<?xml version="1.0" encoding="UTF-8" standalone="no"?>
<svg 
  version="1.1" 
  xmlns="http://www.w3.org/2000/svg" 
  xmlns:xlink="http://www.w3.org/1999/xlink" 
  xmlns:svg="http://www.w3.org/2000/svg"
  xmlns:rdf="http://www.w3.org/1999/02/22-rdf-syntax-ns#"
  xmlns:cc="http://creativecommons.org/ns#"
  xmlns:dc="http://purl.org/dc/elements/1.1/"
  viewBox="0 0 768 768"
  width="768"
  height="768"
>
<style>svg {background-color: white; }</style>"
<metadata id="metadata1">
Created by https://svgstud.io and licensed under CC-BY-SA 4.0 license. Please attribute https://svgstud.io
</metadata>
<metadata id="prompt">
barley
</metadata>
<metadata id="version">
7
</metadata>
<metadata id="metadata2">
<rdf:RDF>
<cc:Work
    rdf:about="">
    <cc:license
    rdf:resource="http://creativecommons.org/licenses/by-sa/4.0/" />
    <dc:creator>
        <cc:Agent>
            <dc:title>https://svgstud.io</dc:title>
        </cc:Agent>
    </dc:creator>
</cc:Work>
<cc:License
    rdf:about="http://creativecommons.org/licenses/by-sa/4.0/">
    <cc:permits
    rdf:resource="http://creativecommons.org/ns#Reproduction" />
    <cc:permits
    rdf:resource="http://creativecommons.org/ns#Distribution" />
    <cc:requires
    rdf:resource="http://creativecommons.org/ns#Notice" />
    <cc:requires
    rdf:resource="http://creativecommons.org/ns#Attribution" />
    <cc:permits
    rdf:resource="http://creativecommons.org/ns#DerivativeWorks" />
    <cc:requires
    rdf:resource="http://creativecommons.org/ns#ShareAlike" />
</cc:License>
</rdf:RDF>
</metadata>
<metadata id="uid">
c65175299e6fb42f34fc7fb51777257cb3d8ba47a099542de957e0cc9a422d1b
</metadata>
<path stroke="none" fill="black" fill-rule="evenodd" d="M417.5,710.6C398.2,710.7 376.4,710.4 369.0,710.0C361.6,709.5 351.3,708.9 346.2,708.5C337.9,707.9 336.6,707.5 334.1,705.1C331.4,702.5 330.6,702.3 318.9,701.6C312.1,701.3 302.6,700.7 297.8,700.3C290.5,699.8 289.0,699.4 289.0,698.1C289.0,697.1 290.5,695.0 292.2,693.3C294.0,691.5 298.4,688.7 302.0,687.1C305.6,685.4 310.9,683.6 313.9,683.0C316.9,682.5 321.7,682.0 324.6,682.0C327.6,682.0 330.0,681.7 330.0,681.4C330.0,681.1 328.0,678.1 325.5,674.7C323.0,671.3 317.4,663.3 312.9,657.0C308.5,650.7 303.7,643.7 302.3,641.5C301.0,639.3 297.1,633.1 293.8,627.7C290.5,622.3 288.0,617.7 288.2,617.4C288.5,617.2 289.4,617.2 290.2,617.5C291.0,617.8 295.0,621.8 299.1,626.3C303.2,630.8 309.6,638.5 313.3,643.5C317.1,648.5 322.1,655.0 324.6,658.1C327.1,661.2 330.8,666.4 332.8,669.6C334.8,672.9 338.0,678.6 340.0,682.4C342.0,686.2 344.2,689.6 345.0,689.8C346.0,690.2 346.2,689.1 345.7,684.9C345.4,681.9 343.6,673.9 341.7,667.0C339.8,660.1 336.4,648.4 334.1,641.0C331.7,633.6 329.0,625.7 328.0,623.5C326.9,621.3 325.0,616.1 323.6,612.0C322.3,607.9 318.9,597.8 316.1,589.7C313.3,581.6 311.0,574.4 311.0,573.8C311.0,573.2 312.1,573.7 313.5,575.0C314.9,576.3 317.6,580.1 319.4,583.4C321.3,586.8 324.8,594.7 327.3,601.0C329.8,607.3 333.8,618.1 336.3,625.0C338.7,631.9 343.0,644.8 345.9,653.7C348.7,662.6 351.5,670.2 352.0,670.5C352.6,670.9 353.0,667.8 353.0,662.3C353.0,657.5 352.3,647.0 351.5,639.0C350.7,631.0 349.4,618.0 348.5,610.0C347.6,602.0 346.5,590.8 346.0,585.0C345.4,579.2 344.8,572.9 344.5,571.0C344.2,569.1 343.3,561.0 342.4,553.0C341.6,545.0 340.3,531.3 339.4,522.5C338.6,513.7 337.5,500.9 337.0,494.0C336.5,487.1 335.3,474.5 334.5,466.0C333.7,457.5 332.5,446.0 332.0,440.5C331.5,435.0 330.5,425.6 329.9,419.5C329.3,413.4 328.0,400.9 326.9,391.5C325.8,382.1 324.7,372.2 324.4,369.5C324.1,366.8 323.0,358.0 321.9,350.1C320.8,342.2 319.3,331.4 318.5,326.1C317.6,320.8 316.5,315.3 315.9,313.8C314.9,311.3 314.3,311.0 309.6,310.9C306.8,310.9 303.2,310.7 301.7,310.5C300.1,310.3 295.7,308.9 291.8,307.3C287.1,305.5 282.8,302.9 279.3,299.6C276.3,296.9 272.8,292.5 271.4,289.8C270.1,287.2 269.4,285.0 269.9,285.0C270.4,285.0 273.9,286.8 277.7,288.9C281.4,291.0 286.0,293.1 287.9,293.5C289.8,293.9 292.7,295.1 294.4,296.1C296.1,297.1 298.1,298.0 298.9,298.0C299.9,298.0 300.1,297.0 299.7,293.8C299.4,291.5 297.9,287.8 296.3,285.6C293.7,281.9 292.8,281.4 287.2,280.3C283.8,279.6 278.2,278.1 274.8,276.9C271.3,275.8 267.4,273.9 266.1,272.7C264.8,271.5 263.1,269.0 262.3,267.1C261.5,265.3 261.1,263.6 261.3,263.4C261.5,263.2 263.7,263.8 266.1,264.9C268.5,266.0 274.7,267.6 279.7,268.6C284.8,269.6 289.2,270.1 289.6,269.7C290.0,269.4 289.9,267.5 289.6,265.6C289.2,263.6 287.9,260.8 286.6,259.2C284.6,257.0 282.8,256.2 276.9,255.2C272.9,254.5 267.2,253.3 264.4,252.4C261.5,251.6 257.7,249.9 255.9,248.7C254.2,247.5 251.9,244.9 250.9,243.0C249.8,241.1 249.4,239.2 249.9,238.7C250.4,238.2 252.6,238.8 255.0,240.0C257.3,241.2 262.2,242.8 265.9,243.6C269.5,244.5 274.4,245.4 276.6,245.7C279.0,246.0 281.0,245.8 281.4,245.2C281.7,244.6 281.2,242.0 280.2,239.4C279.1,236.3 277.5,234.1 276.0,233.4C274.6,232.7 269.8,231.7 265.3,231.1C260.8,230.6 254.9,229.1 252.2,228.0C249.4,226.8 246.1,224.7 244.7,223.2C243.4,221.7 241.9,219.5 241.5,218.3C241.2,217.0 241.1,216.0 241.3,216.0C241.6,216.0 243.5,216.7 245.5,217.6C247.6,218.4 253.2,220.0 257.9,221.1C262.6,222.1 268.0,223.0 269.8,223.0C272.5,223.0 273.0,222.6 273.0,220.7C273.0,219.4 271.5,216.6 269.8,214.6C266.8,211.2 265.8,210.7 258.0,209.4C253.3,208.6 247.9,207.5 245.9,207.0C243.9,206.4 241.1,205.1 239.6,203.9C238.1,202.8 236.1,200.1 235.0,198.0C234.0,195.9 233.3,194.0 233.7,193.7C234.0,193.4 236.5,194.4 239.4,196.0C242.2,197.6 247.2,199.3 250.4,199.9C253.7,200.5 258.1,201.0 260.2,201.0C263.6,201.0 264.0,200.7 264.0,198.6C264.0,197.2 263.0,194.9 261.8,193.5C260.0,191.5 257.8,190.6 251.5,189.5C247.1,188.6 241.1,187.5 238.2,186.9C234.3,186.1 231.9,184.8 229.0,182.1C226.3,179.5 225.0,177.5 225.0,175.6C225.0,172.9 225.0,172.9 229.3,175.5C232.2,177.1 237.1,178.6 243.9,179.7C251.2,180.9 254.4,181.0 255.1,180.3C255.9,179.5 255.6,178.0 254.0,175.1C252.7,172.9 250.5,170.7 249.1,170.1C247.7,169.6 242.9,168.4 238.5,167.5C234.1,166.7 228.5,165.0 226.0,163.7C222.8,162.1 221.0,160.4 219.7,157.7C218.7,155.5 218.0,153.4 218.2,152.9C218.4,152.4 219.8,152.8 221.5,153.6C223.2,154.5 225.7,155.9 227.1,156.6C228.5,157.4 233.1,158.5 237.4,159.2C243.8,160.2 245.3,160.1 246.0,159.0C246.5,158.3 246.4,156.5 245.8,155.1C245.3,153.7 244.2,151.7 243.3,150.8C242.5,149.9 239.9,148.8 237.7,148.5C235.4,148.1 230.0,146.7 225.7,145.3C217.9,142.9 217.8,142.8 215.5,137.7C214.2,134.9 213.3,132.4 213.5,132.2C213.7,132.0 216.7,133.2 220.2,134.9C223.7,136.5 228.4,138.2 230.7,138.6C233.3,139.0 235.0,138.8 235.5,138.1C235.8,137.4 235.3,135.3 234.2,133.2C232.5,129.9 231.5,129.3 225.0,127.3C221.0,126.1 216.9,124.3 215.8,123.3C214.6,122.3 213.1,120.1 212.4,118.3C211.6,116.5 211.3,114.4 211.6,113.6C211.9,112.7 212.5,112.0 213.0,112.0C213.4,112.0 214.5,113.0 215.6,114.1C216.6,115.3 218.9,116.9 220.7,117.6C222.5,118.4 225.1,119.0 226.4,119.0C227.9,119.0 229.6,119.9 230.5,121.2C231.4,122.5 235.1,128.4 238.7,134.5C242.3,140.6 249.3,153.6 254.1,163.5C258.9,173.4 265.3,187.6 268.3,195.0C271.3,202.4 275.5,212.6 277.5,217.5C279.5,222.4 282.4,229.4 284.0,233.0C285.5,236.6 287.8,242.7 289.0,246.5C290.3,250.3 291.9,255.1 292.6,257.0C293.3,258.9 296.5,267.5 299.6,276.0C302.6,284.5 306.1,294.2 307.2,297.5C308.3,300.8 310.1,304.7 311.2,306.2C312.3,307.8 313.6,309.0 314.1,309.0C314.6,309.0 315.0,307.1 315.0,304.8C315.0,302.4 314.1,296.4 313.1,291.4C312.1,286.4 310.2,279.2 309.0,275.4C307.8,271.6 304.9,263.3 302.5,257.0C300.1,250.7 297.8,244.4 297.5,243.0C297.1,241.6 295.0,236.0 292.8,230.5C290.6,225.0 287.3,217.1 285.4,213.0C283.6,208.9 281.6,203.7 280.9,201.5C280.2,199.3 278.0,193.8 275.8,189.2C273.7,184.6 272.0,180.3 272.0,179.7C272.0,178.8 272.3,178.8 272.8,179.7C273.3,180.6 274.5,180.0 276.8,177.9C278.6,176.2 281.2,173.1 282.6,170.9C283.9,168.8 285.5,167.0 286.0,167.0C286.5,167.0 287.3,168.1 287.6,169.6C288.0,171.0 288.0,173.6 287.7,175.5C287.4,177.3 285.8,181.9 284.2,185.6C281.8,191.0 281.4,192.9 282.1,195.3C282.6,197.0 283.4,198.8 284.0,199.4C284.7,200.1 285.6,200.1 286.7,199.4C287.6,198.8 290.0,195.1 292.1,191.0C294.3,186.4 296.0,184.2 296.5,184.9C296.9,185.6 297.4,188.8 297.7,192.0C298.2,197.5 298.0,198.4 294.0,205.5C291.1,210.9 290.0,213.9 290.4,215.6C290.7,216.8 292.1,219.2 293.4,220.7C295.6,223.2 296.0,223.3 297.4,222.0C298.2,221.2 300.6,217.1 302.6,213.0C306.4,205.5 306.4,205.5 307.6,209.5C308.3,211.7 308.9,214.6 308.9,216.0C309.0,217.4 307.9,220.8 306.6,223.5C305.3,226.2 303.0,230.0 301.6,231.9C300.2,233.8 299.0,236.4 299.0,237.7C299.0,239.0 300.0,240.6 301.5,241.6C302.9,242.5 304.8,242.9 305.9,242.5C307.0,242.2 308.8,240.4 309.9,238.6C311.0,236.8 312.8,234.5 314.0,233.5C316.0,231.7 316.0,231.7 316.0,236.3C316.0,239.9 314.9,243.0 311.5,249.6C309.0,254.3 307.0,259.2 307.0,260.4C307.0,261.6 307.6,263.5 308.4,264.5C309.2,265.6 310.3,266.1 311.4,265.7C312.3,265.3 314.4,263.0 316.2,260.5C317.9,258.0 319.7,256.0 320.1,256.0C320.5,256.0 321.0,257.0 321.4,258.2C321.7,259.5 322.0,261.9 322.0,263.5C322.0,265.2 321.1,268.4 319.9,270.5C318.7,272.7 317.1,275.7 316.3,277.3C315.4,278.9 315.1,281.1 315.5,282.8C315.8,284.3 317.0,287.1 318.1,288.9C319.8,291.7 320.3,292.0 321.7,290.9C322.5,290.1 324.7,287.4 326.5,284.7C328.6,281.6 330.0,280.3 330.5,281.0C330.9,281.7 330.9,284.9 330.6,288.2C330.2,291.5 329.4,295.4 328.9,296.8C328.3,298.3 326.6,300.9 325.1,302.5C323.5,304.1 321.8,306.4 321.2,307.4C320.5,308.8 320.7,310.8 322.1,314.8C323.2,317.9 324.9,325.6 326.0,331.9C327.0,338.3 328.8,350.9 329.9,360.0C331.0,369.1 332.4,381.0 333.0,386.5C333.5,392.0 334.5,401.9 335.0,408.5C335.6,415.1 336.9,427.9 338.1,436.9C339.2,446.0 341.0,462.2 342.1,472.9C343.2,483.7 344.7,499.7 345.5,508.5C346.3,517.3 347.4,529.9 348.0,536.5C348.5,543.1 349.5,553.9 350.0,560.5C350.6,567.1 352.6,585.8 354.6,602.0C356.5,618.2 359.2,640.7 360.6,652.0C362.0,663.3 363.8,676.4 364.7,681.3C365.5,686.1 367.0,691.0 368.0,692.2C369.0,693.5 370.3,694.1 371.3,693.7C372.7,693.2 372.8,691.7 372.3,683.0C371.9,677.0 372.1,673.0 372.6,673.0C373.2,673.0 374.8,675.5 376.3,678.5C377.8,681.5 379.4,684.0 380.0,684.0C380.5,684.0 381.0,683.6 381.0,683.1C381.0,682.7 380.3,675.8 379.5,667.9C378.7,660.0 377.4,644.3 376.5,633.0C375.7,621.7 374.4,601.2 373.5,587.5C372.7,573.8 371.6,549.9 371.0,534.5C370.5,519.1 369.8,501.8 369.5,496.0C369.2,490.2 368.5,471.3 367.9,454.0C367.3,436.7 366.8,418.9 366.8,414.4C366.8,410.0 367.4,404.5 368.1,402.1C369.3,398.2 369.5,398.0 370.2,400.1C370.7,401.3 371.7,410.5 372.5,420.4C373.3,430.4 374.4,447.7 375.0,459.0C375.5,470.3 376.2,485.1 376.5,492.0C376.8,498.9 377.7,523.3 378.6,546.3C379.4,569.3 380.3,588.6 380.5,589.3C380.7,590.0 381.4,600.2 382.0,612.0C382.6,623.8 383.7,640.2 384.5,648.5C385.3,656.8 386.9,668.7 388.0,675.0C389.2,681.3 390.4,687.9 390.8,689.5C391.4,691.8 392.2,692.6 394.4,692.8C396.0,693.0 397.6,692.8 398.0,692.3C398.5,691.9 399.1,661.6 399.5,625.0C399.8,588.4 400.7,546.6 401.5,532.0C402.3,517.4 403.4,502.1 404.0,498.0C404.6,493.9 406.2,483.5 407.5,475.0C408.9,466.5 410.9,454.8 412.0,449.0C413.1,443.2 414.7,436.1 415.5,433.3C416.4,430.4 417.5,425.7 418.0,422.8C418.6,419.9 420.8,411.6 423.1,404.5C425.3,397.4 428.7,386.8 430.7,381.0C432.7,375.2 435.6,367.9 437.2,364.8C438.7,361.6 440.0,358.5 440.0,357.9C440.0,357.3 438.3,355.1 436.1,353.0C433.3,350.3 431.9,347.8 431.0,344.1C430.3,341.0 430.0,336.8 430.4,333.7C430.8,330.8 431.5,327.8 432.0,327.0C432.7,325.9 433.4,326.8 435.0,330.5C436.2,333.3 437.9,337.2 438.7,339.2C439.5,341.3 440.6,343.0 441.0,343.0C441.5,343.0 443.7,340.4 445.9,337.3C448.2,334.1 450.0,331.0 450.0,330.5C450.0,329.9 447.9,327.0 445.4,324.0C441.0,318.7 440.9,318.3 441.2,312.8C441.4,309.7 442.2,306.4 443.0,305.5C444.2,304.1 444.7,304.7 447.5,310.7C449.2,314.4 451.4,318.1 452.3,318.9C453.2,319.6 454.6,320.0 455.5,319.7C456.3,319.3 457.3,317.9 457.6,316.3C458.1,314.6 457.6,311.3 456.2,307.0C455.0,303.4 453.9,299.4 453.9,298.0C453.8,296.6 453.8,294.3 453.8,292.8C453.9,291.2 454.6,290.0 455.2,290.0C455.9,290.0 458.0,292.3 459.9,295.0C461.7,297.8 463.9,300.0 464.7,300.0C465.5,300.0 467.0,299.5 468.1,298.9C469.5,298.2 467.4,303.2 460.7,316.3C454.3,328.8 450.7,337.0 449.6,341.8C448.7,345.7 448.0,350.1 448.0,351.6C448.0,354.3 448.0,354.3 450.2,352.4C451.4,351.4 457.1,340.6 463.0,328.5C468.9,316.4 476.2,302.0 479.2,296.5C482.3,291.0 487.1,282.2 490.0,277.0C493.0,271.8 498.5,262.3 502.4,256.0C506.2,249.7 510.5,243.3 511.9,241.8C514.1,239.3 514.5,239.2 516.0,240.5C516.9,241.3 518.8,242.0 520.2,242.0C521.6,242.0 525.2,241.1 528.3,240.1C533.0,238.5 534.0,238.4 534.0,239.5C534.0,240.3 532.1,243.0 529.8,245.4C526.3,249.0 524.1,250.2 518.0,252.1C512.8,253.6 509.5,255.3 507.2,257.6C505.5,259.3 504.0,261.8 504.0,263.0C504.0,265.1 504.4,265.2 508.4,264.8C510.8,264.5 515.3,263.1 518.4,261.7C522.0,260.0 524.0,259.5 524.0,260.3C524.0,261.0 523.1,263.0 522.0,264.8C520.9,266.6 517.9,269.4 515.3,271.0C512.7,272.7 509.0,274.5 507.0,275.0C505.1,275.5 502.2,276.0 500.6,276.0C498.5,276.0 496.5,277.3 493.3,280.5C490.8,282.9 489.0,285.5 489.2,286.2C489.5,287.0 491.7,287.6 494.7,287.8C497.9,288.0 502.0,287.3 505.6,286.1C508.8,285.0 511.6,284.3 511.8,284.5C512.1,284.7 511.3,286.2 510.1,287.8C509.0,289.4 506.5,292.1 504.7,293.7C502.4,295.7 498.6,297.3 492.4,299.0C485.5,300.8 482.8,302.0 480.2,304.6C478.5,306.3 477.0,308.7 477.0,309.9C477.0,311.7 477.6,312.0 481.5,312.0C484.0,312.0 488.8,311.1 492.1,310.0C495.5,308.8 498.5,308.1 498.7,308.4C499.0,308.7 498.3,310.1 497.2,311.7C496.1,313.2 493.9,315.7 492.3,317.2C490.8,318.7 485.8,321.5 481.3,323.4C476.8,325.3 471.7,327.9 470.1,329.1C468.4,330.3 466.4,332.8 465.5,334.7C464.6,336.5 464.2,338.5 464.5,339.0C464.8,339.6 466.0,340.0 467.0,340.0C468.1,340.0 471.3,339.1 474.1,337.9C477.0,336.8 480.6,335.0 482.2,333.8C483.8,332.7 485.4,332.0 485.7,332.3C486.0,332.6 484.5,335.4 482.5,338.5C480.4,341.5 476.2,346.0 473.1,348.4C470.0,350.8 466.1,353.4 464.3,354.4C462.6,355.3 458.1,356.4 454.4,356.9C450.7,357.5 447.2,358.5 446.5,359.2C445.9,359.9 444.1,363.4 442.7,367.0C441.2,370.6 438.6,377.6 436.9,382.5C435.2,387.4 432.1,397.4 429.9,404.5C427.7,411.6 424.2,425.1 422.0,434.5C419.9,443.9 417.2,456.2 416.1,462.0C415.0,467.8 413.1,480.6 412.0,490.5C411.0,500.4 409.4,518.4 408.5,530.4C407.4,546.1 407.0,566.7 407.1,602.9C407.2,630.7 407.5,656.2 407.9,659.4C408.4,664.4 408.7,665.1 409.8,663.8C410.5,662.9 411.5,659.6 412.0,656.3C412.5,653.1 413.9,640.1 415.0,627.5C416.1,614.9 418.1,597.0 419.4,587.8C420.8,578.7 422.8,567.0 423.9,561.8C425.0,556.7 426.8,548.2 427.9,543.0C429.1,537.8 431.4,529.0 433.1,523.5C434.8,518.0 437.4,509.9 439.0,505.5C440.5,501.1 444.1,491.9 446.9,485.1C449.7,478.3 454.6,467.7 457.8,461.6C461.0,455.5 467.6,444.4 472.5,437.0C479.0,427.1 484.0,420.8 491.5,413.4C501.5,403.5 501.6,403.3 500.7,399.9C500.2,398.0 500.0,394.3 500.3,391.7C500.6,388.3 501.8,385.4 504.4,381.7C506.4,378.8 509.2,375.2 510.6,373.6C512.0,372.1 513.4,371.0 513.7,371.4C514.0,371.7 513.3,374.9 512.1,378.5C510.9,382.1 510.0,386.3 510.2,387.8C510.5,390.4 510.8,390.2 517.8,383.0C521.9,378.9 527.0,373.1 529.3,370.1C531.6,367.1 536.3,362.3 539.8,359.4C543.3,356.5 548.1,353.2 550.5,351.9C552.9,350.6 555.2,349.8 555.5,350.2C555.9,350.5 555.3,352.5 554.2,354.7C553.1,356.8 548.3,361.8 543.4,366.0C538.5,370.1 529.6,378.6 523.5,384.9C517.5,391.1 512.5,397.0 512.5,397.9C512.5,399.3 514.0,399.5 523.0,399.5C531.5,399.5 534.1,399.1 536.4,397.7C537.9,396.7 538.9,395.3 538.7,394.7C538.5,394.0 536.1,393.0 533.4,392.4C530.1,391.7 528.4,390.8 528.2,389.6C528.0,388.7 528.4,387.2 529.1,386.3C529.8,385.5 531.5,384.4 532.8,383.9C534.4,383.3 537.3,383.4 541.0,384.2C545.4,385.1 548.1,385.1 552.5,384.2C555.7,383.5 559.2,382.3 560.2,381.3C561.2,380.4 562.0,379.3 562.0,378.9C562.0,378.5 560.3,377.6 558.2,377.1C556.2,376.5 552.7,376.0 550.4,376.0C548.2,376.0 546.1,375.7 545.7,375.4C545.4,375.1 545.4,374.2 545.7,373.4C546.0,372.6 548.1,370.7 550.4,369.1C554.2,366.5 554.8,366.4 558.5,367.6C560.7,368.3 564.5,368.9 567.0,368.9C569.5,369.0 573.1,368.5 575.1,368.0C577.1,367.4 579.3,366.4 579.9,365.6C580.8,364.5 579.9,363.9 575.3,362.4C572.2,361.3 569.5,360.0 569.3,359.4C569.1,358.8 570.2,357.8 571.7,357.2C573.2,356.6 577.7,355.2 581.5,354.1C586.3,352.7 590.7,350.5 595.0,347.3C601.1,342.7 601.3,342.5 598.7,342.2C597.2,342.0 592.7,342.6 588.8,343.5C584.9,344.4 577.3,347.3 572.1,350.0C566.8,352.7 561.4,355.2 560.1,355.5C558.3,356.1 557.9,355.9 558.5,354.9C559.0,354.1 560.6,351.9 562.1,349.9C563.6,348.0 567.1,345.2 569.9,343.7C572.7,342.2 577.5,340.0 580.7,338.9C583.9,337.8 591.0,336.5 596.5,336.0C602.0,335.5 609.1,335.4 612.3,335.7C615.8,336.1 617.9,336.7 617.7,337.4C617.5,338.0 615.4,340.0 612.9,341.8C610.5,343.7 603.6,349.5 597.5,354.8C591.5,360.2 584.8,366.2 582.5,368.3C580.3,370.4 575.8,374.2 572.5,376.8C569.2,379.3 564.0,383.6 561.1,386.3C558.1,389.0 552.4,393.5 548.6,396.4C544.7,399.2 539.0,403.0 536.0,404.7C532.6,406.5 527.8,408.2 523.8,408.8C519.7,409.4 515.7,409.5 513.4,408.9C511.2,408.4 508.1,408.0 506.4,408.0C503.5,408.0 502.2,409.3 491.8,422.2C485.5,430.1 479.4,438.0 478.1,439.8C476.9,441.6 472.5,449.0 468.4,456.2C464.3,463.4 461.0,469.5 461.0,469.9C461.0,470.2 460.0,472.3 458.9,474.5C457.7,476.7 454.4,484.3 451.5,491.5C448.6,498.6 444.6,509.7 442.7,516.0C440.7,522.3 437.3,534.5 435.2,543.0C433.0,551.5 430.8,561.4 430.2,565.0C429.6,568.6 428.4,575.5 427.6,580.5C426.7,585.5 424.6,601.0 422.9,615.0C421.2,629.0 419.4,644.1 418.9,648.5C418.4,652.9 417.7,661.8 417.3,668.4C416.8,678.2 416.9,680.2 418.1,679.8C418.8,679.6 420.4,675.5 421.6,670.4C422.8,665.5 423.9,661.3 424.0,661.0C424.1,660.7 424.6,661.6 425.0,663.0C425.4,664.4 425.8,667.8 425.9,670.7C426.0,673.5 426.4,677.1 427.0,678.5C427.5,679.9 428.4,680.9 428.9,680.6C429.4,680.3 430.2,678.1 430.8,675.8C431.4,673.4 432.8,664.5 433.9,656.0C435.1,647.5 436.4,638.5 436.9,636.0C437.4,633.5 439.5,624.5 441.5,616.0C443.5,607.5 446.7,595.1 448.6,588.4C450.5,581.7 453.5,572.1 455.4,566.9C457.3,561.7 461.6,551.2 464.9,543.6C468.3,535.9 472.5,527.2 474.2,524.2C476.0,521.3 478.3,518.1 479.2,517.3C480.9,515.8 481.0,515.8 481.0,517.4C481.0,518.3 480.1,521.9 478.9,525.3C477.8,528.7 473.3,540.7 469.0,552.0C464.7,563.3 458.8,580.1 456.0,589.5C453.1,598.9 449.9,609.2 448.9,612.5C447.9,615.8 446.2,624.0 445.0,630.8C443.9,637.6 443.0,645.9 443.0,649.3C443.0,655.5 443.0,655.5 445.5,652.5C447.9,649.5 447.9,649.5 448.0,653.2C448.0,655.2 447.5,660.3 446.9,664.4C446.4,668.6 446.2,672.5 446.5,673.1C447.0,673.8 447.6,673.7 448.5,673.0C449.3,672.4 451.1,668.6 452.6,664.7C454.0,660.7 457.3,652.3 459.7,646.0C462.2,639.7 467.3,628.6 471.1,621.4C475.5,613.2 481.3,604.3 486.8,597.4C491.5,591.4 499.7,582.2 505.0,577.0C510.2,571.7 518.5,564.6 523.5,561.2C529.5,557.0 534.7,554.2 539.3,552.8C543.0,551.7 546.3,551.0 546.6,551.2C546.8,551.5 541.3,556.1 534.3,561.5C527.2,566.9 515.2,577.7 507.5,585.4C497.9,595.0 491.0,603.2 485.5,611.1C481.1,617.4 474.9,627.8 471.8,634.1C468.7,640.4 465.8,647.1 465.5,649.0C464.8,652.5 464.8,652.5 466.8,650.5C467.9,649.4 472.3,643.3 476.6,637.0C480.8,630.7 488.4,620.1 493.4,613.5C498.4,606.9 506.0,597.9 510.5,593.4C514.9,588.9 520.5,583.9 522.9,582.1C525.3,580.4 527.9,579.0 528.7,579.0C529.8,579.0 529.6,579.8 527.9,582.2C526.6,584.0 520.4,591.8 514.0,599.5C507.6,607.2 500.1,616.4 497.3,620.0C494.5,623.6 486.9,634.6 480.4,644.5C473.8,654.5 467.6,664.7 466.6,667.3C465.6,670.0 465.0,672.4 465.3,672.7C465.6,673.0 470.1,669.0 475.2,663.8C481.5,657.5 486.6,653.3 490.9,651.1C496.0,648.4 498.9,647.6 504.7,647.2C509.3,646.9 512.0,647.1 512.0,647.8C512.0,648.3 510.8,649.1 509.3,649.5C507.7,649.9 502.8,652.2 498.2,654.7C493.6,657.2 488.6,660.4 487.1,661.7C484.5,664.1 484.5,664.1 488.8,663.7C491.1,663.4 493.0,663.5 493.0,663.9C493.0,664.3 491.6,665.9 490.0,667.5C488.4,669.1 487.0,670.7 487.0,671.1C487.0,671.5 488.5,671.5 490.2,671.1C492.0,670.6 495.1,669.5 497.0,668.4C500.0,666.8 502.4,666.5 514.5,666.7C522.2,666.8 533.0,667.6 538.5,668.4C544.0,669.3 550.5,670.6 553.0,671.2C555.5,671.8 559.9,672.9 562.8,673.7C565.9,674.6 568.0,675.7 568.0,676.5C568.0,677.3 567.2,678.3 566.2,678.8C565.3,679.3 561.4,680.4 557.5,681.1C552.2,682.2 539.5,682.5 505.0,682.5C471.6,682.5 458.4,682.8 455.4,683.7C453.2,684.4 448.6,686.8 445.2,689.0C441.8,691.2 439.0,693.4 439.0,693.9C439.0,694.3 445.4,695.0 453.2,695.4C461.1,695.8 473.4,696.5 480.5,697.1C487.6,697.7 494.3,698.3 495.2,698.6C496.2,698.9 497.0,699.8 497.0,700.5C497.0,701.3 495.3,702.4 493.2,702.9C491.2,703.4 483.9,704.0 477.0,704.3C465.7,704.7 463.9,705.0 458.5,707.6C452.5,710.5 452.5,710.5 417.5,710.6zM463.8,610.3C460.8,614.5 460.8,614.5 461.5,610.5C461.8,608.3 463.5,602.2 465.2,597.0C466.9,591.8 471.7,580.8 476.0,572.5C480.2,564.2 486.8,552.3 490.6,546.0C494.5,539.7 499.4,531.8 501.5,528.5C503.7,525.2 509.3,517.3 514.0,511.0C518.7,504.7 525.2,496.7 528.4,493.3C531.7,489.8 538.0,484.2 542.6,481.0C547.1,477.7 551.3,475.0 551.9,475.0C552.5,475.0 553.0,475.3 553.0,475.8C553.0,476.2 548.0,481.9 541.9,488.5C535.8,495.1 527.0,505.7 522.2,512.0C517.5,518.3 511.1,527.3 508.0,532.0C504.9,536.7 500.6,543.4 498.3,547.0C496.1,550.6 492.4,556.6 490.2,560.5C488.0,564.4 481.9,576.2 476.6,586.8C471.3,597.4 465.5,608.0 463.8,610.3zM335.2,574.2C334.6,574.8 333.5,574.1 332.3,572.3C331.2,570.8 328.2,564.5 325.5,558.5C322.9,552.5 317.8,541.6 314.3,534.5C310.7,527.4 307.0,520.4 306.0,519.0C305.1,517.6 302.6,513.2 300.5,509.2C298.4,505.2 295.2,500.6 293.3,499.1C290.3,496.6 288.7,496.2 278.2,495.2C271.8,494.6 264.2,493.4 261.3,492.5C257.8,491.5 254.3,489.3 250.5,485.8C247.4,483.0 245.1,480.5 245.4,480.3C245.6,480.1 249.8,480.8 254.6,482.0C259.5,483.2 266.5,484.4 270.2,484.7C275.6,485.2 277.0,485.0 277.0,483.9C277.0,483.1 275.4,480.7 273.6,478.5C270.2,474.5 270.2,474.5 256.9,474.5C245.1,474.5 243.0,474.2 239.5,472.3C237.3,471.2 234.4,469.0 233.1,467.6C231.7,466.2 230.9,464.8 231.2,464.5C231.4,464.2 235.2,464.5 239.6,465.1C243.9,465.6 250.2,466.0 253.5,465.8C258.3,465.6 259.5,465.1 259.8,463.7C260.0,462.7 258.7,460.5 256.8,458.6C253.5,455.3 253.5,455.3 242.1,455.2C235.9,455.1 228.9,454.5 226.6,453.9C224.4,453.3 221.6,452.3 220.5,451.7C218.7,450.8 218.8,450.6 222.0,449.4C223.9,448.7 227.8,448.1 230.5,448.1C233.2,448.0 236.5,447.7 237.8,447.4C239.0,447.0 240.3,445.7 240.6,444.4C241.1,442.3 241.4,442.2 243.6,443.3C244.9,444.0 250.3,448.6 255.7,453.5C261.0,458.5 266.8,464.0 268.5,465.9C270.1,467.8 275.7,473.6 280.9,478.9C288.1,486.2 290.4,488.1 290.8,486.7C291.0,485.8 289.5,482.0 287.4,478.3C285.1,474.1 278.9,466.6 270.1,457.3C262.6,449.4 255.7,442.7 254.7,442.4C253.7,442.1 249.4,438.8 245.2,435.1C241.0,431.3 235.9,427.5 234.0,426.5C232.1,425.6 227.2,422.3 223.3,419.4C219.3,416.4 211.9,411.6 206.8,408.7C201.7,405.7 190.7,399.7 182.3,395.1C173.9,390.6 163.5,385.6 159.1,384.0C154.8,382.4 148.9,380.8 146.1,380.4C142.1,379.9 141.0,380.0 141.0,381.1C141.0,381.9 142.9,383.7 145.3,385.1C147.6,386.6 151.3,388.7 153.5,389.8C155.7,390.9 160.2,392.5 163.5,393.5C166.8,394.4 170.4,395.8 171.5,396.6C173.5,398.1 173.5,398.2 171.6,399.5C170.6,400.3 167.4,401.4 164.6,402.1C159.9,403.1 159.0,403.0 155.1,401.1C152.8,399.9 145.6,393.9 139.2,387.8C132.8,381.7 126.6,375.9 125.5,374.8C123.5,372.9 123.6,372.9 131.0,373.1C135.1,373.2 140.5,373.6 143.0,374.1C145.5,374.5 151.7,375.6 156.8,376.6C164.9,378.0 166.5,378.7 170.4,382.1C172.8,384.3 175.3,386.0 175.9,386.0C176.5,386.0 177.6,384.9 178.2,383.5C178.8,382.1 179.6,381.0 180.0,381.0C180.4,381.0 181.9,382.2 183.4,383.6C184.8,385.1 187.4,388.6 189.0,391.5C190.6,394.3 193.1,397.9 194.4,399.3C195.8,400.8 197.4,402.0 198.0,402.0C198.8,402.0 199.0,400.1 198.5,395.5C198.1,391.9 198.2,389.0 198.7,389.0C199.1,389.0 201.2,390.4 203.3,392.1C205.4,393.9 208.5,398.1 210.4,401.9C212.3,405.5 214.7,409.3 215.8,410.3C216.9,411.3 218.7,412.0 219.7,411.8C221.1,411.5 221.5,410.5 221.4,406.7C221.4,404.1 221.8,402.0 222.3,402.0C222.9,402.0 225.0,403.7 227.0,405.8C229.2,408.2 231.7,412.6 233.6,417.5C235.2,421.8 237.8,426.6 239.4,428.2C241.0,429.8 243.0,430.9 243.9,430.8C244.8,430.6 245.5,429.6 245.4,428.5C245.4,427.4 245.0,424.3 244.6,421.7C243.9,416.9 243.9,416.9 246.4,418.5C247.8,419.5 250.5,422.3 252.4,424.9C254.3,427.4 256.5,432.1 257.3,435.3C258.2,438.6 259.7,442.1 260.7,443.2C261.7,444.3 263.8,446.1 265.4,447.2C267.6,448.8 268.4,449.0 269.0,448.0C269.4,447.3 269.5,445.0 269.3,442.9C269.0,440.7 269.2,439.0 269.7,439.0C270.2,439.0 271.9,440.3 273.3,441.8C274.8,443.4 276.9,447.0 278.0,449.7C279.0,452.5 280.2,457.0 280.6,459.7C280.9,462.5 281.6,465.3 282.0,466.0C282.5,466.9 283.3,466.9 284.8,466.1C285.9,465.5 287.1,463.9 287.4,462.5C287.8,461.1 288.4,460.0 288.9,460.0C289.3,460.0 291.1,463.0 292.8,466.8C294.5,470.5 296.3,475.3 296.9,477.5C297.5,479.7 298.0,483.3 298.0,485.5C297.9,487.7 297.3,490.4 296.5,491.4C295.2,493.2 295.4,493.7 298.9,497.5C301.1,499.9 305.8,506.3 309.5,512.0C313.2,517.6 319.2,528.1 322.7,535.3C326.3,542.6 330.3,551.2 331.6,554.6C332.8,557.9 334.4,563.5 335.0,567.0C335.7,570.9 335.8,573.6 335.2,574.2zM395.1,474.3C393.3,477.1 393.3,477.1 390.0,471.9C388.1,469.1 386.1,464.5 385.3,461.7C384.4,458.2 384.0,449.7 384.0,435.1C384.0,413.6 384.0,413.6 388.5,418.0C390.9,420.4 394.1,424.9 395.6,427.9C397.0,431.0 399.1,437.1 400.2,441.4C401.7,447.1 402.1,451.0 401.6,455.1C401.3,458.2 400.1,463.2 399.0,466.1C397.9,469.1 396.2,472.8 395.1,474.3zM321.8,439.8C321.5,445.5 321.5,445.5 317.7,438.8C315.6,435.2 312.4,428.6 310.5,424.3C308.6,420.0 304.6,411.8 301.4,406.0C298.3,400.2 294.2,393.0 292.3,390.0C290.3,387.0 287.4,382.5 285.7,380.0C284.0,377.5 279.8,372.0 276.4,367.7C272.9,363.4 267.6,357.2 264.6,353.8C259.0,347.7 259.0,347.7 253.5,349.0C250.0,349.8 245.0,350.1 239.2,349.7C234.3,349.4 227.8,348.2 224.6,347.1C221.3,346.0 215.9,343.2 212.5,341.0C209.1,338.8 205.3,335.9 204.0,334.5C202.7,333.1 201.9,331.8 202.2,331.5C202.4,331.2 205.8,332.1 209.6,333.4C213.4,334.7 219.1,336.3 222.4,337.0C225.6,337.6 229.7,337.9 231.6,337.5C234.4,337.0 235.0,336.5 235.0,334.4C235.0,332.8 233.7,330.5 231.5,328.3C227.9,324.7 227.9,324.7 220.7,325.4C216.7,325.8 210.0,326.3 205.8,326.7C198.5,327.3 197.6,327.1 191.5,324.1C187.9,322.3 184.2,319.7 183.3,318.4C182.5,317.0 182.0,315.7 182.4,315.3C182.7,315.0 185.4,315.2 188.2,315.8C191.1,316.4 196.0,317.2 199.2,317.6C202.3,317.9 206.7,317.9 208.9,317.5C211.2,317.1 213.0,316.3 213.0,315.6C213.0,314.9 211.5,312.6 209.6,310.4C206.2,306.5 206.2,306.5 191.9,306.5C179.4,306.5 176.9,306.2 173.0,304.4C170.5,303.2 167.4,301.1 166.1,299.6C164.7,298.2 164.0,296.7 164.3,296.3C164.7,296.0 167.9,296.2 171.4,296.8C174.9,297.5 179.6,298.0 181.8,298.0C184.0,298.0 186.5,297.7 187.4,297.4C188.3,297.1 189.0,295.9 189.0,294.9C189.0,293.9 189.3,293.0 189.8,293.0C190.2,293.0 192.3,294.2 194.5,295.6C196.7,297.1 200.1,299.7 202.0,301.5C203.9,303.3 208.8,306.9 212.9,309.6C217.0,312.2 223.5,317.5 227.4,321.3C231.3,325.1 236.1,329.3 238.0,330.8C239.9,332.2 243.6,335.4 246.2,337.7C248.8,340.1 251.6,342.0 252.5,342.0C253.3,342.0 254.0,341.2 254.0,340.2C254.0,339.2 252.7,336.6 251.2,334.5C249.6,332.4 243.0,325.8 236.4,319.8C229.9,313.8 222.9,308.0 221.0,307.0C219.1,306.0 215.5,303.4 213.0,301.3C210.5,299.1 206.0,295.7 203.0,293.7C200.0,291.7 194.8,288.3 191.5,286.0C188.2,283.8 182.3,280.1 178.5,277.8C174.7,275.6 170.6,272.9 169.5,271.9C168.4,270.9 163.5,268.2 158.7,266.0C152.8,263.2 148.9,262.0 146.7,262.2C143.5,262.5 143.5,262.5 149.2,266.8C152.4,269.1 155.0,271.5 155.0,272.1C155.0,272.6 153.8,273.5 152.3,274.1C150.8,274.6 150.1,275.4 150.6,275.9C151.1,276.4 154.5,277.7 158.1,278.9C162.8,280.4 165.9,280.9 168.8,280.4C172.3,279.9 173.2,280.1 175.4,282.3C176.8,283.8 178.0,285.6 178.0,286.3C178.0,287.1 177.0,288.0 175.8,288.4C174.5,288.7 171.2,289.0 168.5,289.0C165.8,289.0 161.8,288.5 159.6,287.9C157.5,287.3 153.9,285.1 151.5,282.9C149.1,280.7 146.9,277.8 146.6,276.5C146.3,275.2 145.1,273.6 144.0,273.0C142.9,272.4 139.3,268.4 136.0,264.0C132.7,259.7 130.0,255.6 130.0,254.9C130.0,254.1 131.6,253.9 135.8,254.4C138.9,254.8 145.6,256.0 150.5,257.2C155.4,258.3 161.8,259.9 164.6,260.6C167.4,261.4 170.9,262.9 172.4,264.1C173.9,265.3 176.9,268.6 179.0,271.5C181.3,274.5 184.1,277.2 185.9,277.8C188.2,278.6 189.0,278.5 189.4,277.5C189.7,276.7 189.6,274.5 189.3,272.6C188.9,270.3 189.1,269.0 189.8,269.0C190.4,269.0 192.4,270.5 194.2,272.3C196.0,274.1 198.8,278.7 200.4,282.5C202.0,286.5 204.6,290.7 206.3,292.2C208.0,293.8 210.3,295.0 211.4,295.0C213.1,295.0 213.2,294.5 212.6,288.4C211.9,281.9 211.9,281.9 215.5,284.7C217.5,286.2 219.9,288.9 221.0,290.5C222.0,292.1 223.6,296.2 224.5,299.5C225.8,303.9 227.4,306.6 230.6,309.8C233.0,312.2 235.4,313.9 236.0,313.5C236.5,313.2 237.0,310.2 237.0,306.9C237.0,303.7 237.3,301.0 237.8,301.0C238.2,301.0 239.9,303.0 241.7,305.3C243.5,307.7 246.0,312.1 247.4,315.1C248.7,318.1 252.0,323.0 254.8,326.0C257.5,329.0 260.2,332.5 260.8,333.7C261.5,334.9 262.0,337.9 262.0,340.3C262.0,344.4 262.4,345.0 266.8,348.4C269.4,350.4 273.9,354.9 276.7,358.3C279.6,361.7 285.3,368.8 289.3,374.1C293.4,379.4 298.8,387.3 301.4,391.6C304.0,396.0 308.2,403.1 310.6,407.5C313.1,411.9 316.7,419.7 318.6,424.8C321.4,432.3 322.0,435.3 321.8,439.8zM215.5,442.3C213.8,442.6 210.8,442.4 208.6,441.9C206.5,441.4 203.0,440.0 200.9,438.8C198.7,437.6 196.3,435.6 195.5,434.4C194.1,432.2 194.1,432.2 205.3,432.6C211.9,432.9 217.1,432.7 217.9,432.1C219.1,431.3 219.2,430.7 218.2,428.4C217.5,427.0 217.1,425.5 217.4,425.3C217.6,425.1 220.0,426.0 222.8,427.4C225.5,428.8 228.9,431.3 230.4,433.0C231.8,434.7 233.0,436.6 233.0,437.1C233.0,437.6 232.3,438.0 231.5,438.0C230.7,438.0 227.4,438.9 224.3,439.9C221.1,441.0 217.2,442.1 215.5,442.3zM193.0,426.6C189.1,426.9 186.6,426.6 184.5,425.4C182.8,424.5 180.4,422.8 179.2,421.6C176.8,419.5 176.8,419.5 186.0,419.0C194.6,418.5 195.4,418.3 197.6,415.6C199.9,413.0 200.3,412.9 202.9,414.0C204.5,414.6 207.0,416.5 208.6,418.1C210.1,419.7 211.1,421.3 210.7,421.6C210.4,422.0 207.5,423.1 204.3,424.2C201.1,425.3 196.0,426.4 193.0,426.6zM177.3,414.9C175.2,414.9 172.2,414.4 170.7,414.0C169.1,413.5 166.3,412.0 164.4,410.5C162.5,409.1 161.0,407.5 161.0,406.9C161.0,406.4 163.7,406.2 167.9,406.6C173.3,407.1 175.9,406.9 179.8,405.5C184.0,404.0 185.3,403.9 187.8,404.9C189.5,405.6 191.8,407.2 192.9,408.4C195.1,410.7 195.1,410.7 190.9,411.4C188.7,411.8 185.5,412.7 183.9,413.5C182.4,414.3 179.4,415.0 177.3,414.9zM357.0,411.0C356.4,411.0 355.6,410.0 355.1,408.8C354.7,407.5 353.5,398.2 352.6,388.0C351.7,377.8 350.7,366.6 350.4,363.0C350.1,359.4 349.0,349.3 348.0,340.5C347.0,331.7 345.6,314.8 345.0,303.0C344.4,291.2 343.7,280.6 343.5,279.5C343.3,278.4 340.6,275.7 337.5,273.5C334.5,271.3 331.4,268.1 330.6,266.5C329.8,264.8 328.8,261.1 328.4,258.2C328.0,255.1 328.1,253.0 328.7,253.0C329.2,253.0 331.1,254.8 332.9,257.0C334.6,259.2 336.9,261.0 337.8,261.0C338.8,261.0 340.6,260.3 341.8,259.4C343.7,258.1 344.0,258.1 344.0,259.4C344.0,260.2 344.5,263.2 345.1,266.0C345.9,269.8 346.6,271.0 348.0,271.0C349.0,271.0 350.1,270.3 350.4,269.4C350.7,268.5 351.3,260.1 351.6,250.6C351.8,241.2 353.0,224.3 354.1,213.0C355.1,201.7 356.3,191.4 356.5,190.0C356.8,188.6 357.7,182.4 358.5,176.2C359.6,168.1 360.6,164.0 362.0,161.9C363.7,159.5 364.0,158.1 363.5,154.3C363.1,151.6 362.6,148.7 362.3,147.8C362.1,146.8 361.5,146.0 361.0,146.0C360.5,146.0 359.6,147.8 359.0,150.1C358.2,153.0 357.4,154.0 356.2,153.8C355.3,153.6 354.1,152.3 353.6,150.9C353.1,149.5 353.0,147.1 353.3,145.8C353.7,144.4 355.8,141.1 358.0,138.4C360.2,135.7 362.6,133.5 363.2,133.5C363.9,133.5 366.1,138.4 368.2,144.5C370.2,150.6 371.9,156.6 371.9,158.0C372.0,159.4 369.8,164.1 367.0,168.5C364.2,172.9 362.0,177.4 362.0,178.7C362.0,180.1 362.6,181.0 363.5,181.0C364.4,181.0 367.0,179.2 369.4,177.0C371.8,174.8 374.0,173.0 374.4,173.0C374.7,173.0 375.0,174.1 375.0,175.4C375.0,176.8 374.6,179.0 374.0,180.4C373.5,181.8 370.6,185.7 367.5,189.0C364.4,192.3 361.5,196.2 361.0,197.6C360.4,199.0 360.0,201.2 360.0,202.6C360.0,205.0 360.1,205.0 362.8,203.6C364.3,202.8 367.8,200.3 370.5,198.1C375.5,194.0 375.5,194.0 375.8,196.4C376.0,197.8 375.4,200.2 374.6,201.8C373.8,203.4 369.9,208.1 366.0,212.3C360.3,218.4 358.7,220.8 358.3,223.9C358.0,226.1 358.2,228.0 358.9,228.4C359.5,228.8 361.0,228.6 362.2,227.9C363.5,227.3 366.9,224.7 369.8,222.3C375.0,217.8 375.0,217.8 375.0,221.2C375.0,223.0 374.2,225.9 373.1,227.5C372.1,229.2 368.5,233.7 365.0,237.5C361.6,241.4 358.1,246.0 357.3,247.9C356.2,250.5 356.1,251.9 356.9,253.7C357.5,255.0 358.4,256.0 359.0,256.0C359.6,256.0 362.6,253.6 365.7,250.8C371.3,245.5 371.3,245.5 370.8,250.3C370.5,252.9 368.8,257.9 367.1,261.4C365.2,265.3 362.1,269.4 359.1,272.1C356.4,274.5 353.2,277.2 351.9,278.1C349.7,279.7 349.7,279.7 350.8,302.6C351.5,315.2 352.7,330.2 353.5,336.0C354.4,341.8 355.7,353.7 356.6,362.5C357.5,371.3 358.4,384.7 358.7,392.2C359.0,399.7 359.0,407.0 358.6,408.4C358.3,409.8 357.5,411.0 357.0,411.0zM388.5,349.0C387.1,349.0 387.0,348.2 387.5,344.2C387.8,341.6 388.3,337.8 388.6,335.8C389.1,332.5 388.9,332.0 386.2,330.6C384.6,329.8 382.0,327.7 380.6,325.9C379.1,324.2 377.2,321.1 376.3,319.1C375.4,316.9 374.7,312.5 374.7,307.7C374.7,303.5 375.1,299.5 375.7,298.9C376.3,298.3 377.1,299.1 378.2,301.7C379.0,303.8 380.9,307.4 382.4,309.8C385.1,314.1 385.1,314.1 388.0,310.2C389.6,308.0 391.4,305.9 392.1,305.4C393.0,304.9 393.2,306.7 392.8,313.3C392.4,319.1 392.6,322.5 393.4,323.5C394.5,325.0 394.7,325.0 396.3,323.3C397.2,322.2 399.8,313.8 402.0,304.5C404.3,295.1 407.9,279.6 410.1,270.0C412.3,260.4 414.5,249.8 415.1,246.5C415.6,243.2 417.3,238.7 418.7,236.5C420.1,234.3 422.1,231.6 423.1,230.4C424.7,228.7 424.9,227.4 424.4,222.2C424.0,218.8 423.4,216.0 423.0,216.0C422.6,216.0 420.2,218.5 417.7,221.6C414.8,225.1 412.9,228.5 412.5,230.8C412.2,232.8 411.5,236.2 410.9,238.2C410.2,240.9 409.4,242.0 408.0,242.0C407.0,242.0 405.0,240.6 403.6,238.9C401.8,236.8 401.0,234.7 401.0,232.2C401.0,230.2 401.5,227.8 402.0,227.0C402.8,225.8 403.3,225.9 405.3,227.8C406.8,229.2 408.3,229.8 409.4,229.4C410.3,229.1 411.5,227.9 412.0,226.9C412.6,225.9 413.0,223.5 413.0,221.5C413.0,219.5 413.8,216.2 414.7,214.3C415.6,212.4 418.5,208.5 421.1,205.6C424.3,202.2 426.2,200.8 426.8,201.5C427.4,202.1 428.6,206.0 429.4,210.2C430.3,214.4 431.0,221.1 431.0,224.9C431.0,228.7 430.5,233.1 430.0,234.6C429.4,236.0 426.9,239.6 424.3,242.4C421.8,245.2 418.9,248.8 417.9,250.5C416.8,252.2 416.0,254.1 416.0,254.8C416.0,255.4 416.9,256.0 418.0,256.0C419.2,256.0 422.3,254.9 425.0,253.5C430.0,251.0 430.0,251.0 430.0,253.3C430.0,254.6 429.0,257.2 427.7,259.1C426.5,260.9 422.9,264.4 419.8,266.7C415.9,269.7 413.9,272.0 413.5,274.0C413.1,275.6 413.1,277.4 413.5,278.0C413.9,278.6 415.1,278.8 416.3,278.4C417.5,278.1 420.6,276.5 423.3,274.9C425.9,273.3 428.3,272.0 428.6,272.0C428.9,272.0 428.9,273.2 428.5,274.8C428.2,276.3 426.9,279.0 425.8,280.8C424.7,282.6 421.2,286.1 417.9,288.6C414.6,291.1 410.9,294.8 409.5,296.8C408.1,298.8 407.0,301.7 407.0,303.2C407.0,304.8 407.4,306.0 407.8,306.0C408.2,306.0 411.9,303.9 416.0,301.4C420.1,298.9 423.8,296.6 424.2,296.4C424.6,296.1 424.1,298.0 423.0,300.5C421.9,303.0 418.0,309.4 414.4,314.6C410.3,320.5 405.5,325.9 401.9,328.8C397.6,332.3 395.6,334.7 394.3,338.0C393.4,340.5 392.1,344.0 391.4,345.8C390.7,347.5 389.4,349.0 388.5,349.0zM394.6,299.6C393.8,300.4 392.5,299.5 389.8,296.5C387.7,294.2 385.4,291.0 384.5,289.4C383.7,287.8 383.0,284.4 383.0,281.8C383.0,279.2 383.5,275.9 384.1,274.4C385.1,271.6 385.1,271.6 388.0,276.6C389.5,279.3 391.6,282.2 392.5,283.0C394.0,284.2 394.4,284.2 395.4,282.8C396.0,281.9 397.1,280.3 397.8,279.3C398.9,277.8 399.0,278.6 398.5,284.6C398.3,288.5 397.5,293.2 396.9,295.1C396.3,297.0 395.2,299.0 394.6,299.6zM473.2,292.4C472.6,292.7 470.8,291.4 469.2,289.4C467.5,287.4 465.7,284.0 465.2,281.8C464.5,279.2 464.5,276.9 465.1,275.2C465.6,273.9 467.0,271.4 468.1,269.9C469.2,268.3 470.5,267.0 471.0,267.0C471.4,267.0 472.1,268.7 472.5,270.7C472.9,272.8 473.6,275.3 474.2,276.3C474.9,277.7 475.8,278.0 477.6,277.6C479.0,277.2 480.0,277.4 480.0,278.0C480.0,278.6 478.7,281.9 477.1,285.4C475.5,288.9 473.8,292.0 473.2,292.4zM400.1,269.0C399.2,269.0 397.4,268.0 396.3,266.8C395.2,265.5 393.7,263.5 393.1,262.3C392.5,261.1 392.0,258.2 392.0,255.8C392.1,253.4 392.7,250.2 393.4,248.5C394.7,245.5 394.7,245.5 397.1,250.5C399.2,254.9 399.8,255.5 402.4,255.3C405.2,255.1 405.2,255.1 404.6,260.2C404.2,263.0 403.4,266.2 402.9,267.2C402.4,268.2 401.1,269.0 400.1,269.0zM485.9,269.0C485.6,269.0 484.3,266.8 483.1,264.1C482.0,261.4 481.0,257.9 481.0,256.5C481.0,255.0 482.4,252.2 484.2,250.0C486.0,247.8 487.8,246.0 488.2,246.0C488.5,246.0 489.1,247.7 489.5,249.8C489.8,252.0 490.8,254.9 491.5,256.4C492.6,258.4 492.7,259.8 491.9,261.8C491.3,263.3 489.9,265.5 488.8,266.8C487.6,268.0 486.3,269.0 485.9,269.0zM343.0,250.0C342.6,250.0 340.0,248.5 337.4,246.8C334.7,245.0 331.6,242.0 330.3,240.2C329.1,238.4 327.8,234.4 327.4,231.4C327.1,228.4 327.1,225.6 327.5,225.2C327.9,224.8 329.1,225.6 330.1,227.0C331.2,228.4 333.2,230.7 334.5,232.2C335.8,233.8 337.5,235.0 338.4,235.0C339.2,235.0 340.8,234.1 341.8,233.0C343.7,230.9 343.7,231.0 344.2,238.6C344.5,242.9 344.5,247.2 344.2,248.2C344.0,249.2 343.4,250.0 343.0,250.0zM502.4,246.0C501.8,246.0 500.5,244.9 499.6,243.5C498.7,242.2 498.0,239.9 498.0,238.5C498.0,236.9 499.2,234.7 500.9,232.9C502.5,231.3 504.3,230.0 504.9,230.0C505.6,230.0 506.0,232.6 506.0,236.8C506.0,240.8 505.5,244.1 504.8,244.8C504.1,245.5 503.1,246.0 502.4,246.0zM521.2,233.5C520.5,233.8 520.0,233.1 520.0,231.8C520.0,230.5 523.7,226.1 530.2,219.6C535.9,214.0 542.2,208.6 544.2,207.5C546.3,206.5 548.2,205.9 548.6,206.3C549.0,206.6 547.5,210.0 545.3,213.7C543.2,217.4 540.3,222.8 539.1,225.7C536.7,230.9 536.7,230.9 529.6,232.0C525.7,232.6 521.9,233.3 521.2,233.5zM508.4,229.0C508.2,229.0 508.0,228.4 508.0,227.7C508.0,227.0 508.8,225.3 509.7,224.0C510.7,222.6 512.5,220.6 513.9,219.5C515.2,218.4 518.6,216.1 521.4,214.3C524.2,212.6 526.6,211.3 526.8,211.5C527.1,211.7 524.6,214.8 521.4,218.5C518.2,222.1 514.1,225.9 512.3,227.0C510.4,228.1 508.7,229.0 508.4,229.0zM345.2,222.7C344.7,223.5 343.1,222.9 339.9,220.6C337.5,218.8 334.2,215.8 332.7,214.1C331.2,212.2 330.0,209.6 330.0,208.0C330.0,206.5 330.3,203.8 330.6,202.1C331.0,200.4 331.5,199.0 331.9,199.0C332.2,199.0 333.5,200.8 334.8,203.1C336.1,205.3 338.3,207.6 339.7,208.3C341.8,209.2 342.4,209.1 343.5,207.7C344.2,206.8 345.0,206.0 345.4,206.0C345.7,206.0 346.0,209.5 346.0,213.8C346.0,218.0 345.6,222.0 345.2,222.7zM346.4,196.7C345.8,196.9 343.2,194.8 340.7,192.1C336.4,187.5 336.0,186.7 336.0,182.1C336.0,179.4 336.4,176.9 337.0,176.5C337.5,176.2 339.1,177.7 340.6,180.0C342.1,182.2 343.9,184.0 344.6,184.0C345.3,184.0 346.2,183.6 346.5,183.0C346.8,182.4 347.5,182.0 347.9,182.0C348.4,182.0 349.0,184.1 349.4,186.6C349.8,189.5 349.5,192.2 348.7,193.8C348.1,195.2 347.0,196.5 346.4,196.7zM272.1,175.0C271.5,178.4 271.5,178.4 268.2,173.5C266.5,170.9 265.0,167.9 265.0,167.0C265.0,166.1 264.0,163.4 262.7,160.9C261.4,158.5 258.7,153.9 256.7,150.6C253.1,144.8 253.1,144.8 255.5,141.6C256.8,139.9 258.5,136.3 259.2,133.6C260.6,128.7 260.6,128.7 262.8,131.5C264.1,133.1 265.3,135.5 265.7,136.9C266.0,138.2 265.7,141.4 265.0,143.9C264.2,146.4 263.5,151.0 263.3,154.0C263.0,157.8 263.3,160.1 264.3,161.5C265.5,163.1 266.1,163.2 267.3,162.2C268.1,161.5 270.0,158.0 271.6,154.5C273.1,150.9 274.7,148.0 275.2,148.0C275.7,148.0 276.5,149.2 277.0,150.6C277.6,152.0 278.0,154.8 278.0,156.8C278.0,158.8 276.8,163.0 275.4,166.0C273.9,169.0 272.4,173.1 272.1,175.0zM350.2,174.0C349.7,174.0 348.3,172.9 347.1,171.6C345.9,170.3 344.5,168.0 344.1,166.4C343.7,164.8 343.7,162.0 344.1,160.2C344.5,158.3 345.1,156.5 345.5,156.2C345.8,155.8 347.0,156.6 348.1,158.0C349.1,159.4 350.9,162.4 352.1,164.8C354.1,168.8 354.1,169.2 352.6,171.5C351.7,172.9 350.6,174.0 350.2,174.0zM249.1,137.0C248.8,136.9 247.3,135.3 245.8,133.4C244.4,131.5 241.6,125.7 239.6,120.7C236.8,113.4 235.0,110.5 231.4,107.0C226.7,102.5 226.7,102.5 227.3,107.8C227.6,110.6 227.6,113.0 227.1,113.0C226.7,113.0 225.6,112.4 224.7,111.8C223.8,111.1 222.0,108.5 220.7,106.1C218.3,102.0 218.1,101.9 217.1,103.9C216.4,105.0 215.6,106.0 215.1,106.0C214.7,106.0 213.8,104.9 213.2,103.5C212.5,102.1 212.0,99.2 212.0,97.0C212.0,94.9 212.3,92.5 212.6,91.6C212.9,90.7 213.8,90.0 214.6,90.0C215.3,90.0 218.4,92.0 221.3,94.4C224.3,96.8 228.5,99.9 230.6,101.3C232.8,102.7 237.2,106.7 240.6,110.2C244.0,113.6 247.7,117.9 248.8,119.7C250.0,121.4 251.0,124.3 251.0,126.2C251.0,128.0 250.7,131.2 250.4,133.2C250.0,135.3 249.5,137.0 249.1,137.0z" />

</svg>