<?xml version="1.0" encoding="UTF-8" standalone="no"?>
<svg 
  version="1.1" 
  xmlns="http://www.w3.org/2000/svg" 
  xmlns:xlink="http://www.w3.org/1999/xlink" 
  xmlns:svg="http://www.w3.org/2000/svg"
  xmlns:rdf="http://www.w3.org/1999/02/22-rdf-syntax-ns#"
  xmlns:cc="http://creativecommons.org/ns#"
  xmlns:dc="http://purl.org/dc/elements/1.1/"
  viewBox="0 0 768 768"
  width="768"
  height="768"
>
<style>svg {background-color: white; }</style>"
<metadata id="metadata1">
Created by https://svgstud.io and licensed under CC-BY-SA 4.0 license. Please attribute https://svgstud.io
</metadata>
<metadata id="prompt">
barley
</metadata>
<metadata id="version">
7
</metadata>
<metadata id="metadata2">
<rdf:RDF>
<cc:Work
    rdf:about="">
    <cc:license
    rdf:resource="http://creativecommons.org/licenses/by-sa/4.0/" />
    <dc:creator>
        <cc:Agent>
            <dc:title>https://svgstud.io</dc:title>
        </cc:Agent>
    </dc:creator>
</cc:Work>
<cc:License
    rdf:about="http://creativecommons.org/licenses/by-sa/4.0/">
    <cc:permits
    rdf:resource="http://creativecommons.org/ns#Reproduction" />
    <cc:permits
    rdf:resource="http://creativecommons.org/ns#Distribution" />
    <cc:requires
    rdf:resource="http://creativecommons.org/ns#Notice" />
    <cc:requires
    rdf:resource="http://creativecommons.org/ns#Attribution" />
    <cc:permits
    rdf:resource="http://creativecommons.org/ns#DerivativeWorks" />
    <cc:requires
    rdf:resource="http://creativecommons.org/ns#ShareAlike" />
</cc:License>
</rdf:RDF>
</metadata>
<metadata id="uid">
65c8b175a6aaa3647c12df066aabbe6c060aae4e1950b3ffa785c83fcaa6f58e
</metadata>
<path stroke="none" fill="black" fill-rule="evenodd" d="M431.5,710.5C411.7,710.6 392.6,710.5 389.0,710.3C385.4,710.1 375.8,709.3 367.7,708.5C359.5,707.8 352.6,706.9 352.2,706.6C351.9,706.3 352.5,705.1 353.5,704.0C354.5,702.9 357.3,701.1 359.7,699.9C363.6,698.0 364.0,697.5 362.7,696.3C361.6,695.2 356.2,694.9 333.4,694.9C318.1,695.0 303.0,695.2 300.0,695.5C297.0,695.8 284.8,695.7 273.0,695.3C255.4,694.6 251.5,694.2 251.5,693.1C251.5,692.3 253.5,690.6 256.0,689.4C258.5,688.1 263.6,686.4 267.3,685.4C271.0,684.5 275.1,683.0 276.3,682.0C277.5,681.0 278.3,680.0 278.0,679.7C277.7,679.5 263.3,679.0 246.0,678.7C227.2,678.3 206.0,677.3 193.5,676.1C181.9,675.0 165.9,673.8 157.7,673.5C149.6,673.1 142.8,672.5 142.5,672.0C142.3,671.6 142.6,670.6 143.3,669.8C144.0,669.0 147.7,665.8 151.5,662.8C155.3,659.8 162.8,654.8 168.0,651.7C173.2,648.7 185.2,642.3 194.7,637.5C204.1,632.7 212.6,628.0 213.5,627.0C215.1,625.2 215.1,625.1 212.9,624.6C211.6,624.3 208.2,623.7 205.5,623.1C202.8,622.5 196.2,621.4 191.0,620.5C185.8,619.7 178.3,618.2 174.5,617.4C170.7,616.5 159.8,613.3 150.5,610.4C141.2,607.4 131.0,603.7 128.0,602.2C124.8,600.6 122.4,598.7 122.2,597.7C121.8,595.9 122.5,595.9 132.2,596.6C142.5,597.3 142.5,597.3 139.2,594.5C137.4,593.0 128.2,588.7 118.7,585.0C109.2,581.3 98.6,577.3 95.0,576.2C91.4,575.0 84.9,573.3 80.5,572.5C76.1,571.6 72.1,570.5 71.6,570.0C71.1,569.5 72.2,568.3 74.0,567.1C75.8,566.0 80.9,564.1 85.4,562.9C92.8,560.9 94.9,560.8 110.5,561.4C122.1,561.8 132.0,562.8 141.5,564.6C149.2,566.0 159.1,567.6 163.4,568.1C167.8,568.6 171.8,569.4 172.3,569.9C172.8,570.4 168.2,573.3 160.7,576.9C153.9,580.2 147.7,583.6 147.0,584.5C146.4,585.3 146.1,586.3 146.4,586.9C146.7,587.4 150.3,588.1 154.3,588.5C159.3,589.0 163.3,588.7 167.5,587.7C170.8,586.9 177.6,585.0 182.6,583.6C188.7,581.8 193.5,581.0 196.9,581.2C202.0,581.5 202.0,581.5 194.2,587.3C190.0,590.5 185.0,594.4 183.1,596.0C181.2,597.6 179.9,599.2 180.3,599.6C180.6,599.9 186.4,598.8 193.2,597.1C200.0,595.4 209.9,593.1 215.4,592.0C220.8,590.9 226.3,590.0 227.6,590.0C229.6,590.0 228.7,591.2 221.9,597.7C217.5,602.0 214.3,605.6 214.8,605.8C215.4,606.0 222.0,605.0 229.6,603.6C237.3,602.3 246.2,600.4 249.5,599.6C252.7,598.7 256.6,598.0 258.0,598.0C259.4,598.0 261.2,598.5 262.0,599.0C263.3,599.9 263.3,600.1 262.0,601.0C261.2,601.5 260.0,602.0 259.5,602.0C258.9,602.0 256.9,603.3 255.0,604.9C251.5,607.8 251.5,607.8 254.0,608.4C255.4,608.8 259.6,609.5 263.5,610.0C267.4,610.5 274.5,611.8 279.4,612.9C284.3,614.1 293.3,616.5 299.4,618.5C305.6,620.4 314.5,623.8 319.3,626.0C324.1,628.2 331.5,632.1 335.8,634.6C340.0,637.2 346.6,641.8 350.5,644.9C354.3,648.0 362.8,655.0 369.3,660.5C375.8,666.0 383.2,671.9 385.7,673.7C388.2,675.4 391.7,678.2 393.4,679.8C395.1,681.4 397.6,683.3 398.8,684.0C400.1,684.6 401.4,684.9 401.7,684.7C401.9,684.4 400.9,682.2 399.4,679.8C397.9,677.5 394.4,672.8 391.6,669.5C388.8,666.3 385.0,662.1 383.1,660.2C381.2,658.3 375.8,653.6 371.2,649.7C366.5,645.7 358.1,639.2 352.6,635.2C347.0,631.3 340.3,626.8 337.7,625.2C335.0,623.7 328.9,620.1 324.2,617.1C319.4,614.1 309.0,608.1 301.0,603.7C293.0,599.3 283.1,594.0 278.9,591.9C274.7,589.9 267.8,586.8 263.4,585.2C259.1,583.6 251.7,580.9 247.0,579.2C242.3,577.5 236.2,575.5 233.5,574.6C230.8,573.8 214.5,568.6 197.4,563.0C170.4,554.3 164.8,552.8 155.1,551.8C146.4,550.9 141.2,550.9 132.2,551.8C125.8,552.5 118.6,553.3 116.2,553.6C113.7,554.0 112.0,553.9 112.0,553.3C112.0,552.7 114.1,551.3 116.8,550.2C119.4,549.1 124.0,547.4 127.0,546.5C131.0,545.2 137.5,544.6 151.2,544.3C162.1,544.0 174.8,544.2 181.7,544.9C188.2,545.6 198.4,547.0 204.4,548.1C210.4,549.2 218.2,551.2 221.8,552.6C225.4,553.9 228.5,554.8 228.8,554.5C229.1,554.3 226.0,550.1 221.9,545.3C217.8,540.5 209.1,531.1 202.4,524.5C195.8,517.9 183.3,505.9 174.7,497.8C166.1,489.7 157.0,481.7 154.6,480.0C152.1,478.3 146.5,475.4 142.2,473.6C137.8,471.7 132.8,469.4 131.0,468.5C128.0,467.0 127.8,466.7 129.5,465.8C130.5,465.2 133.7,465.0 136.9,465.4C140.0,465.7 149.5,468.1 158.0,470.6C166.5,473.1 177.3,476.7 182.0,478.7C186.7,480.6 195.0,484.6 200.5,487.5C206.0,490.5 214.4,495.5 219.1,498.7C223.9,501.9 231.3,507.2 235.6,510.4C240.0,513.7 246.9,519.3 251.0,522.9C255.1,526.5 262.5,533.3 267.5,537.9C272.4,542.5 283.6,553.1 292.3,561.4C301.0,569.7 313.6,582.6 320.3,590.0C327.0,597.4 334.3,605.8 336.4,608.5C338.6,611.2 342.6,615.9 345.4,618.9C348.2,621.8 354.7,627.6 359.9,631.9C365.1,636.1 371.6,641.2 374.3,643.2C377.1,645.3 379.5,646.8 379.7,646.6C379.9,646.4 378.9,643.2 377.4,639.4C375.9,635.6 373.2,628.7 371.2,624.0C369.3,619.3 365.1,610.0 361.9,603.4C358.7,596.7 351.8,583.6 346.6,574.4C341.5,565.1 335.6,554.8 333.6,551.5C331.7,548.2 327.9,542.0 325.3,537.7C322.6,533.4 319.4,528.5 318.0,526.9C315.5,524.0 315.5,524.0 308.4,525.2C302.6,526.1 299.7,526.0 292.9,524.8C288.3,523.9 281.9,522.0 278.7,520.5C275.4,518.9 271.4,515.9 269.4,513.6C267.4,511.4 265.2,508.3 264.4,506.8C263.3,504.7 263.3,504.0 264.2,504.0C264.8,504.0 268.3,505.8 271.9,508.0C275.5,510.1 281.1,512.6 284.3,513.4C287.5,514.3 293.5,515.2 297.6,515.6C304.2,516.2 305.0,516.1 305.0,514.5C305.0,513.6 304.3,511.3 303.4,509.4C302.5,507.5 300.5,504.9 298.9,503.6C296.7,501.7 294.1,501.0 285.8,500.0C280.1,499.3 272.4,498.1 268.5,497.4C264.7,496.6 259.2,494.9 256.4,493.6C252.4,491.8 250.6,490.1 248.5,486.6C247.0,484.0 246.0,481.6 246.4,481.3C246.7,480.9 250.3,482.3 254.3,484.3C258.7,486.6 264.0,488.3 268.0,488.9C271.6,489.4 277.8,490.2 281.7,490.5C287.9,491.1 289.1,491.0 289.6,489.6C290.0,488.6 289.1,486.5 287.5,484.4C286.0,482.5 283.1,479.1 281.1,476.9C277.4,473.1 277.2,473.0 270.3,473.0C266.5,473.0 258.7,472.3 252.9,471.5C247.2,470.6 240.2,469.0 237.3,467.9C234.0,466.6 230.4,464.0 227.5,460.9C225.0,458.3 222.5,454.9 221.8,453.5C221.2,452.1 221.0,450.7 221.4,450.3C221.8,449.9 223.1,450.2 224.3,451.0C225.5,451.8 228.8,453.8 231.7,455.6C234.6,457.3 239.5,459.2 242.7,459.8C245.9,460.4 253.4,461.6 259.3,462.6C266.5,463.7 270.5,463.9 271.1,463.3C271.8,462.6 270.1,459.7 266.1,454.7C262.8,450.5 259.1,446.6 258.0,446.0C256.9,445.4 250.7,444.5 244.2,443.9C237.8,443.4 228.9,442.1 224.5,441.0C218.9,439.5 214.9,437.8 211.0,435.0C208.0,432.8 202.0,428.5 197.8,425.4C193.5,422.4 188.2,417.8 185.9,415.2C182.1,410.9 182.0,410.5 183.9,410.2C185.1,410.0 188.6,411.1 191.8,412.7C197.3,415.4 198.2,415.5 214.8,415.8C226.0,416.0 232.0,415.8 232.0,415.1C232.0,414.6 229.0,411.6 225.3,408.4C221.5,405.3 216.7,401.9 214.5,400.9C210.6,399.1 210.5,399.2 207.0,401.3C203.9,403.2 202.1,403.5 192.5,403.5C182.6,403.5 180.9,403.2 175.5,400.7C172.2,399.2 166.1,395.7 162.0,393.1C157.9,390.5 151.9,386.8 148.7,384.9C145.5,383.1 141.7,380.3 140.3,378.8C138.8,377.3 137.9,375.7 138.3,375.4C138.7,375.0 143.1,375.9 148.3,377.4C154.8,379.2 159.8,380.0 165.0,379.9C169.1,379.9 174.4,379.5 176.8,379.2C179.1,378.8 181.1,378.1 181.2,377.5C181.3,376.9 178.3,374.4 174.5,371.8C170.6,369.2 166.0,366.8 164.2,366.4C161.9,365.9 158.7,366.6 152.7,368.8C148.2,370.4 143.0,372.4 141.2,373.1C138.1,374.4 137.5,374.3 131.2,371.0C127.6,369.1 121.4,365.0 117.5,361.9C113.7,358.8 108.5,354.1 106.0,351.4C103.5,348.7 99.0,344.2 96.0,341.5C90.6,336.5 90.6,336.5 99.1,336.2C103.7,336.0 111.1,336.4 115.4,337.0C119.8,337.6 125.6,339.1 128.4,340.1C133.2,342.0 133.5,342.1 134.7,340.4C135.4,339.4 136.0,338.2 136.0,337.8C136.0,337.3 137.2,337.7 138.6,338.6C140.0,339.6 142.7,342.4 144.6,344.9C146.5,347.4 150.7,351.1 153.8,353.2C156.9,355.3 159.8,357.0 160.2,357.0C160.7,357.0 161.0,355.9 161.0,354.6C161.0,353.3 160.3,350.4 159.5,348.1C158.7,345.8 157.1,342.5 155.8,340.8C153.6,337.7 153.6,337.7 157.0,338.4C158.9,338.7 161.7,340.3 163.3,341.8C164.9,343.3 167.5,347.0 169.0,350.0C170.5,353.1 172.3,357.4 172.9,359.7C173.7,362.5 175.2,364.8 177.3,366.4C179.1,367.7 181.9,369.5 183.7,370.4C185.5,371.3 187.4,372.0 188.0,372.0C188.5,372.0 189.0,370.8 189.0,369.2C189.0,367.7 187.7,362.8 186.1,358.2C184.5,353.6 182.4,349.0 181.4,347.9C180.5,346.9 179.9,345.7 180.2,345.4C180.6,345.1 182.1,345.5 183.7,346.4C185.3,347.2 188.4,349.8 190.4,352.1C192.5,354.4 195.0,358.1 196.0,360.4C197.0,362.6 198.6,368.3 199.4,372.8C200.3,377.4 201.2,381.5 201.5,382.0C201.7,382.4 204.7,384.4 208.1,386.4C211.4,388.4 214.6,390.0 215.2,390.0C215.9,390.0 216.1,388.0 215.7,384.1C215.3,380.8 213.7,374.0 212.1,368.9C210.4,363.8 209.2,359.5 209.4,359.3C209.6,359.1 212.0,361.5 214.9,364.5C217.8,367.5 221.0,372.1 222.2,374.7C223.5,377.7 224.5,382.6 224.9,388.4C225.5,397.5 225.5,397.5 232.2,403.8C235.9,407.2 239.5,410.0 240.1,410.0C241.0,410.0 241.2,406.3 240.7,395.6C240.2,383.6 239.8,380.5 238.0,377.0C236.8,374.7 236.1,372.5 236.5,372.2C236.8,371.9 239.1,373.6 241.6,376.1C244.1,378.5 247.7,383.6 249.6,387.4C252.5,393.2 253.0,395.3 253.0,400.9C253.0,404.5 252.5,409.3 251.9,411.5C251.3,413.7 250.6,416.9 250.3,418.5C249.9,421.1 250.6,422.6 254.7,427.4C257.3,430.7 260.7,434.7 262.2,436.4C263.6,438.1 265.2,439.1 265.7,438.7C266.1,438.2 266.5,429.3 266.4,418.9C266.3,408.5 266.4,400.0 266.5,400.0C266.6,400.0 268.7,403.0 271.3,406.8C273.8,410.5 276.3,414.8 276.9,416.3C277.5,417.9 278.0,422.1 278.0,425.8C277.9,430.0 277.2,434.6 275.9,438.0C274.8,441.0 273.4,445.0 272.8,446.8C271.8,449.7 271.9,450.3 274.2,452.8C275.6,454.3 278.1,457.6 279.9,460.3C281.8,463.1 283.8,465.0 285.0,465.0C286.2,465.0 287.3,463.8 288.2,461.2C289.1,458.7 289.5,452.8 289.4,443.2C289.4,435.4 289.6,429.0 289.9,429.0C290.2,429.0 291.9,431.1 293.7,433.8C295.5,436.4 297.9,440.8 299.1,443.5C300.6,446.8 301.5,451.2 301.8,456.5C302.0,460.9 301.7,467.2 301.1,470.5C300.5,473.7 299.5,476.9 299.0,477.4C298.4,478.0 296.8,476.9 294.4,474.2C292.5,471.9 290.2,470.0 289.4,470.0C288.6,470.0 288.0,470.9 288.0,471.9C288.0,472.9 289.5,476.0 291.4,478.6C293.3,481.3 297.6,488.3 301.0,494.2C304.3,500.1 309.5,507.6 312.4,510.7C315.4,513.9 318.1,516.2 318.5,515.8C318.9,515.4 317.6,512.0 315.7,508.3C313.8,504.5 311.6,499.4 310.9,497.1C309.8,493.3 309.8,492.7 311.3,491.9C312.2,491.4 313.4,489.1 314.0,486.8C314.7,484.6 315.2,477.6 315.3,471.3C315.3,460.0 315.3,460.0 317.2,462.7C318.3,464.3 320.2,467.6 321.6,470.2C322.9,472.8 324.7,477.9 325.5,481.5C326.4,485.0 327.1,491.8 327.1,496.5C327.3,504.3 327.0,505.7 324.1,511.4C320.9,517.7 320.9,517.7 326.8,526.0C330.0,530.5 338.4,544.0 345.3,555.9C352.1,567.8 360.4,582.7 363.5,589.0C366.7,595.3 371.3,605.0 373.7,610.5C376.2,616.0 381.1,627.7 384.7,636.5C388.3,645.2 392.0,654.0 393.0,656.0C394.0,657.9 397.1,665.5 399.8,672.8C402.6,680.1 405.8,687.4 407.0,689.0C408.1,690.6 410.0,692.2 411.1,692.5C412.3,692.9 413.7,692.7 414.2,692.2C415.0,691.4 413.7,686.0 410.1,674.3C407.2,665.1 403.0,652.1 400.8,645.5C398.6,638.9 392.8,624.7 388.0,614.0C383.1,603.3 377.8,591.1 376.2,587.0C374.6,582.9 372.3,575.2 371.1,570.0C370.0,564.8 367.7,554.6 366.0,547.5C364.3,540.4 362.1,530.7 361.0,526.0C359.9,521.3 357.9,513.7 356.4,509.0C355.0,504.3 353.0,497.4 352.0,493.6C351.0,489.9 349.9,484.9 349.5,482.6C348.9,478.5 348.9,478.5 351.9,481.9C353.6,483.8 356.8,489.7 359.1,494.9C361.4,500.2 366.7,515.3 370.7,528.5C374.8,541.7 379.5,558.1 381.1,565.0C382.7,571.9 385.0,580.4 386.0,584.0C387.1,587.6 388.8,592.2 389.7,594.2C390.6,596.3 391.7,598.0 392.1,598.0C392.6,598.0 393.2,596.9 393.6,595.6C393.9,594.3 393.7,587.9 393.0,581.4C392.4,574.8 391.1,564.8 390.0,559.0C388.9,553.2 386.7,541.3 385.0,532.5C383.4,523.7 379.6,506.6 376.6,494.5C373.6,482.4 369.5,466.6 367.5,459.5C365.4,452.4 362.5,442.9 361.0,438.5C358.3,430.5 358.3,430.5 354.4,430.3C352.2,430.1 346.9,429.5 342.5,428.9C338.1,428.4 332.6,427.0 330.3,425.9C328.0,424.8 323.5,421.1 320.3,417.7C317.0,414.2 314.0,409.8 313.3,407.7C312.6,405.4 312.6,404.0 313.2,404.0C313.7,404.0 316.7,406.1 319.8,408.7C322.9,411.2 327.3,414.1 329.5,415.1C331.8,416.1 335.5,417.2 337.8,417.6C341.9,418.2 342.0,418.2 342.0,415.4C342.0,413.8 340.3,409.4 338.2,405.5C334.5,398.6 334.5,398.6 323.2,395.9C315.3,394.1 310.6,392.4 307.7,390.3C305.3,388.7 302.3,385.2 300.8,382.5C299.3,379.7 298.0,376.2 298.0,374.6C298.0,371.7 298.0,371.7 302.4,375.8C304.8,378.0 308.6,380.8 310.7,381.9C312.9,382.9 317.5,384.6 321.1,385.5C324.6,386.3 328.5,387.5 329.8,388.0C331.6,388.8 332.0,388.6 332.0,387.0C332.0,385.9 330.3,381.2 328.1,376.6C325.7,371.4 323.5,368.0 322.4,367.7C321.3,367.4 315.2,366.0 308.8,364.5C300.4,362.6 296.0,361.1 293.2,359.0C291.0,357.5 288.3,354.2 287.2,351.8C286.1,349.5 284.8,346.3 284.5,344.8C284.0,342.9 284.2,342.0 285.0,342.0C285.7,342.0 288.6,344.2 291.6,346.9C296.0,350.9 298.2,352.1 304.7,353.9C309.0,355.0 314.0,356.2 315.8,356.6C318.8,357.2 319.0,357.1 319.0,354.5C319.0,352.9 317.4,348.9 315.5,345.5C313.6,342.1 311.5,338.8 310.8,338.2C310.1,337.7 305.4,336.5 300.5,335.6C295.5,334.8 288.4,333.1 284.7,332.0C280.3,330.6 276.9,328.8 274.7,326.6C272.9,324.8 270.9,321.5 270.2,319.3C269.5,317.1 269.0,314.5 269.0,313.6C269.0,312.7 269.3,312.0 269.8,312.0C270.2,312.0 273.2,314.3 276.4,317.0C281.1,320.9 283.9,322.3 289.9,323.9C294.1,325.0 299.4,326.2 301.8,326.6C305.5,327.2 306.0,327.0 306.0,325.4C306.0,324.3 304.3,320.6 302.2,317.1C300.2,313.6 297.3,309.8 295.9,308.8C294.5,307.7 290.5,306.5 286.9,306.0C283.4,305.5 277.8,304.4 274.5,303.5C271.2,302.7 266.1,300.7 263.1,299.2C258.3,296.8 257.5,295.9 255.3,290.6C254.0,287.4 253.0,283.8 253.2,282.6C253.5,280.7 254.0,280.9 258.5,285.1C261.2,287.7 265.3,290.6 267.5,291.7C269.7,292.8 274.0,294.5 277.2,295.4C280.3,296.3 284.2,297.0 285.9,297.0C288.1,297.0 289.0,296.5 289.0,295.4C289.0,294.5 286.5,290.2 283.4,285.9C280.2,281.6 277.0,277.8 276.1,277.6C275.2,277.3 272.5,276.8 270.0,276.5C267.5,276.1 262.6,275.1 259.0,274.3C255.4,273.4 250.6,271.3 248.3,269.7C245.8,268.0 243.1,264.8 241.9,262.4C240.8,260.0 240.0,257.1 240.2,255.9C240.5,254.0 241.1,254.2 247.1,258.9C252.3,263.0 255.3,264.4 261.5,266.0C265.8,267.1 269.9,268.0 270.7,268.0C271.4,268.0 272.0,267.1 272.0,266.0C272.0,264.8 271.4,262.7 270.6,261.2C269.8,259.7 267.4,256.8 265.3,254.8C262.1,251.6 260.5,250.9 254.5,250.0C250.5,249.4 244.7,247.6 241.0,245.7C236.8,243.7 234.1,241.6 233.2,239.9C232.6,238.4 231.7,235.8 231.4,234.0C230.7,230.9 230.7,230.9 236.9,234.9C240.5,237.2 245.4,239.4 248.6,240.0C251.6,240.6 254.8,241.0 255.8,240.8C257.0,240.6 257.4,239.7 257.1,238.0C257.0,236.6 255.3,233.5 253.5,231.0C250.4,226.8 249.6,226.3 243.8,225.1C240.3,224.4 235.1,222.7 232.1,221.3C227.7,219.2 226.4,218.0 224.8,214.3C223.7,211.9 223.0,209.0 223.2,207.9C223.5,206.1 223.9,206.3 228.3,209.4C231.0,211.3 235.9,213.8 239.3,214.9C242.6,216.1 246.2,217.0 247.2,217.0C248.6,217.0 249.0,216.2 249.0,213.8C249.0,212.0 248.5,208.8 248.0,206.8C247.4,204.8 245.2,200.5 243.1,197.3C240.9,194.1 237.4,189.8 235.3,187.7C233.2,185.5 230.3,183.2 228.9,182.4C227.4,181.7 226.0,181.3 225.7,181.6C225.4,181.9 225.6,183.5 226.1,185.3C226.6,187.0 229.0,191.0 231.5,194.3C234.1,197.5 236.4,200.8 236.7,201.6C237.0,202.6 236.5,203.0 234.9,203.0C233.7,203.0 230.6,202.0 228.2,200.9C224.8,199.2 223.3,197.7 222.0,194.6C221.0,192.3 219.9,187.3 219.5,183.4C219.1,178.7 219.2,175.5 219.9,174.1C220.7,172.8 221.6,172.3 222.8,172.7C223.7,173.0 227.7,175.3 231.5,177.8C235.3,180.2 241.3,184.7 244.6,187.6C248.0,190.5 252.9,196.0 255.4,199.8C260.1,206.7 260.1,206.7 257.5,213.1C256.1,216.6 254.9,220.9 254.8,222.7C254.7,225.0 256.2,228.1 260.5,234.4C263.7,239.1 266.7,243.0 267.1,243.0C267.5,243.0 268.3,240.7 268.9,238.0C269.5,235.2 270.0,231.7 270.0,230.3C270.0,228.8 268.8,223.8 267.4,219.2C266.0,214.6 265.1,210.6 265.4,210.3C265.7,209.9 266.9,210.5 268.0,211.5C269.1,212.5 272.1,216.4 274.7,220.2C278.7,226.1 279.4,227.7 279.3,231.8C279.3,234.6 278.1,239.3 276.5,243.1C275.0,246.6 273.6,250.5 273.3,251.7C272.9,253.2 273.9,255.7 276.2,259.2C278.2,262.1 280.2,265.5 280.9,266.8C281.5,268.0 282.7,269.0 283.4,269.0C284.2,269.0 285.6,267.1 286.6,264.8C287.9,261.5 288.3,257.9 288.2,249.2C288.2,239.5 288.4,238.1 289.6,239.1C290.4,239.7 292.6,242.9 294.6,246.2C296.6,249.5 298.2,253.2 298.2,254.4C298.2,255.6 297.0,259.9 295.6,264.0C294.1,268.1 291.8,273.2 290.4,275.2C289.1,277.3 288.0,279.4 288.0,279.9C288.0,280.4 290.7,284.9 294.0,289.9C297.3,294.9 300.4,299.0 300.9,299.0C301.4,299.0 302.4,296.6 303.2,293.8C304.0,290.6 304.5,283.4 304.4,275.8C304.4,268.7 304.6,263.0 304.8,263.0C305.1,263.0 305.9,263.8 306.7,264.8C307.4,265.7 309.6,269.5 311.5,273.2C313.5,277.0 315.0,281.4 315.0,283.4C315.0,285.2 313.8,289.8 312.4,293.6C311.0,297.3 309.0,301.6 307.9,303.1C306.9,304.6 306.0,306.7 306.0,307.8C306.0,308.9 308.0,313.1 310.5,317.1C313.0,321.2 315.7,325.1 316.5,325.9C317.3,326.7 318.2,327.1 318.5,326.8C318.9,326.5 319.8,323.6 320.7,320.3C321.6,317.1 322.3,310.1 322.4,304.8C322.4,299.4 322.8,295.0 323.1,295.0C323.4,295.0 324.4,295.8 325.2,296.8C326.1,297.7 327.7,300.3 328.8,302.5C329.9,304.7 331.3,308.4 331.9,310.8C332.9,314.4 332.8,316.1 331.5,320.8C330.6,323.9 328.9,328.3 327.8,330.5C326.7,332.7 325.0,335.4 324.0,336.5C323.1,337.6 322.0,339.2 321.7,340.1C321.4,341.0 322.5,344.6 324.1,348.1C325.8,351.6 327.7,355.6 328.3,357.0C329.0,358.4 330.2,359.5 331.0,359.5C331.7,359.5 333.4,356.9 334.7,353.8C336.0,350.6 337.7,343.6 338.7,338.3C339.6,332.9 340.7,328.1 341.1,327.6C341.6,327.1 343.3,329.8 345.1,333.6C347.5,339.0 348.1,341.5 347.7,345.0C347.4,348.0 345.8,351.9 342.9,356.7C340.5,360.7 337.2,365.7 335.7,367.9C332.8,371.9 332.8,371.9 336.2,379.7C338.2,384.4 340.1,387.5 341.0,387.5C341.8,387.5 344.1,384.4 346.2,380.5C348.2,376.6 350.6,370.5 351.5,366.8C352.5,363.0 353.6,360.0 354.1,360.0C354.6,360.0 355.9,363.2 357.1,367.0C358.5,371.7 359.0,375.2 358.6,377.5C358.2,379.5 355.1,384.7 351.3,389.7C347.5,394.7 344.7,399.4 344.8,400.5C344.9,401.6 346.5,406.5 348.3,411.4C350.0,416.3 352.1,420.5 352.8,420.8C353.5,421.0 355.0,419.0 356.5,415.8C357.8,412.9 359.4,406.7 360.0,402.0C360.6,397.3 361.3,392.7 361.6,391.8C361.9,390.8 362.5,390.0 363.0,390.0C363.4,390.0 364.6,391.9 365.5,394.2C366.4,396.6 367.4,401.9 367.7,406.1C368.2,412.8 368.0,414.4 365.8,419.2C363.3,424.7 363.3,424.7 367.2,435.0C369.3,440.6 373.3,453.2 376.0,462.9C378.6,472.6 382.6,488.4 384.9,498.0C387.1,507.6 390.5,523.6 392.4,533.5C394.4,543.4 398.3,568.8 401.0,590.0C403.8,611.2 406.5,631.0 407.1,634.0C407.7,637.0 409.2,644.7 410.6,651.0C412.0,657.3 414.0,665.4 415.2,669.0C416.3,672.6 417.8,676.1 418.6,676.9C419.7,678.1 420.0,677.9 420.6,675.6C420.9,674.1 420.7,665.6 420.1,656.7C419.5,647.8 418.5,634.0 418.0,626.0C417.5,618.0 416.3,604.5 415.5,596.0C414.6,587.5 413.5,576.5 412.9,571.5C412.4,566.5 409.9,551.5 407.4,538.0C404.9,524.5 400.9,504.9 398.5,494.5C396.1,484.1 392.1,465.8 389.6,454.0C387.0,442.2 383.9,428.0 382.6,422.5C381.3,417.0 378.3,405.3 376.0,396.5C373.8,387.7 370.8,376.9 369.5,372.5C368.2,368.1 365.3,357.5 363.1,349.0C360.8,340.5 356.9,326.1 354.4,317.0C351.9,307.9 348.8,297.1 347.6,293.0C346.3,288.9 342.3,276.1 338.6,264.5C334.9,252.9 328.5,234.5 324.3,223.5C320.1,212.5 316.1,202.9 315.5,202.2C314.8,201.4 311.0,200.4 307.0,199.9C302.3,199.3 298.2,198.1 295.4,196.5C293.1,195.1 289.8,192.3 288.1,190.3C286.4,188.3 284.4,184.6 283.5,182.1C282.7,179.7 282.2,177.5 282.5,177.2C282.7,176.9 285.4,179.0 288.5,181.8C291.9,184.9 295.9,187.5 299.1,188.5C302.3,189.6 304.5,189.9 305.1,189.3C305.7,188.7 305.6,186.9 304.8,184.4C303.8,181.5 302.6,180.0 299.8,178.7C297.7,177.7 292.4,176.1 287.9,175.2C279.8,173.7 279.8,173.6 278.0,169.5C277.0,167.3 275.9,164.0 275.5,162.2C275.1,160.4 275.2,159.0 275.8,159.0C276.3,159.0 278.3,160.5 280.2,162.3C282.1,164.1 285.5,166.1 287.7,166.8C289.9,167.5 292.9,168.0 294.4,168.0C296.3,168.0 297.0,167.5 297.0,166.0C297.0,164.9 297.4,164.0 297.9,164.0C298.4,164.0 299.1,164.8 299.5,165.8C299.9,166.7 301.2,170.5 302.5,174.1C303.7,177.7 306.0,182.6 307.4,184.9C308.9,187.2 310.8,189.4 311.6,189.7C312.5,190.0 313.9,189.6 314.7,188.7C316.2,187.3 315.9,186.1 312.0,175.3C309.7,168.8 305.9,157.9 303.5,151.0C301.2,144.1 297.6,134.6 295.6,129.7C293.6,124.9 291.3,119.5 290.4,117.7C289.5,116.0 287.0,111.9 284.8,108.7C282.7,105.5 280.5,103.2 280.1,103.4C279.6,103.7 279.0,106.3 278.7,109.3C278.3,112.2 278.5,116.2 279.0,118.0C279.6,119.9 281.6,122.9 283.5,124.7C285.7,126.7 287.0,128.8 287.0,130.4C287.0,132.9 287.0,132.9 282.5,131.3C280.0,130.5 276.7,128.6 275.0,127.0C272.2,124.4 272.0,123.7 272.0,117.3C272.0,113.6 272.6,108.2 273.4,105.5C274.1,102.8 275.4,99.0 276.4,97.3C277.3,95.5 278.3,94.0 278.6,94.0C278.8,94.0 280.4,95.0 282.0,96.2C283.7,97.4 287.9,101.8 291.3,105.9C294.8,110.1 299.9,116.9 302.7,121.0C305.4,125.1 309.2,131.4 311.2,135.0C313.1,138.6 316.8,146.4 319.5,152.5C322.1,158.5 325.2,167.2 326.3,171.8C328.1,179.1 328.2,180.8 327.1,184.8C326.5,187.3 324.6,190.9 322.9,192.7C320.0,196.1 320.0,196.1 322.4,200.8C323.8,203.4 326.2,209.1 327.9,213.5C329.6,217.9 333.2,227.6 335.9,235.0C338.5,242.4 342.3,253.4 344.3,259.5C346.2,265.6 349.5,275.9 351.5,282.5C353.6,289.1 356.8,299.9 358.7,306.5C360.6,313.1 363.4,323.7 365.0,330.0C366.5,336.3 368.7,344.6 369.8,348.5C370.9,352.4 374.2,364.5 377.0,375.5C379.8,386.5 384.1,402.9 386.5,412.0C389.0,421.1 392.3,434.6 393.9,442.0C395.6,449.4 397.4,458.4 398.0,462.0C398.7,465.6 400.7,474.4 402.6,481.5C404.4,488.6 408.5,506.6 411.5,521.5C414.6,536.4 417.6,550.2 418.2,552.3C419.0,555.0 419.6,555.8 420.4,555.0C421.1,554.3 421.6,547.4 421.8,537.4C422.0,528.3 421.7,508.6 421.1,493.7C420.5,478.7 419.5,455.5 419.0,442.0C418.4,428.5 417.8,416.5 417.5,415.4C417.2,414.1 415.9,413.0 414.3,412.5C412.7,412.2 409.5,410.6 407.0,409.0C404.5,407.4 401.3,404.8 399.8,403.3C398.3,401.8 396.2,398.4 395.0,395.8C393.9,393.2 392.7,388.1 392.3,384.5C392.0,380.9 392.0,378.0 392.4,378.0C392.7,378.0 394.4,380.9 396.0,384.4C397.7,388.0 400.7,392.2 402.6,393.9C404.5,395.6 408.3,398.1 411.0,399.5C413.8,400.9 416.1,401.6 416.5,401.0C416.8,400.5 416.8,395.3 416.4,389.5C415.7,378.9 415.7,378.9 410.6,376.3C407.8,374.9 402.9,371.7 399.8,369.1C396.6,366.6 393.3,363.1 392.5,361.3C391.7,359.6 390.7,354.6 390.4,350.3C389.8,343.3 389.9,342.7 391.2,344.5C392.0,345.6 393.9,348.6 395.4,351.2C396.9,353.7 399.2,357.0 400.7,358.4C402.1,359.8 405.7,362.4 408.6,364.1C411.6,365.8 414.4,366.9 415.0,366.5C415.5,366.2 416.0,362.0 416.0,357.2C416.0,352.2 415.4,347.4 414.7,346.0C414.0,344.6 410.4,341.9 406.5,339.7C402.6,337.6 397.8,334.3 395.8,332.3C393.7,330.3 391.4,327.3 390.6,325.5C389.8,323.8 388.8,319.4 388.4,315.8C388.0,311.4 388.1,309.0 388.9,308.6C389.6,308.2 390.9,309.9 392.3,313.3C393.7,316.2 396.2,320.2 397.9,322.2C399.7,324.2 403.2,327.3 405.7,328.9C408.3,330.6 411.1,332.0 412.1,332.0C413.1,332.0 414.0,331.0 414.2,329.5C414.5,328.1 414.4,323.6 414.0,319.5C413.6,315.4 412.7,311.4 412.1,310.6C411.5,309.9 408.0,307.5 404.3,305.4C400.7,303.2 395.8,299.6 393.4,297.4C390.1,294.2 388.9,292.1 388.0,287.9C387.4,284.9 387.0,280.9 387.2,279.0C387.5,275.5 387.5,275.5 391.3,281.7C393.3,285.1 396.6,289.2 398.5,290.9C400.5,292.6 403.4,294.7 405.1,295.6C406.8,296.4 408.9,296.9 409.7,296.5C411.0,296.1 411.2,294.8 410.7,289.2C410.4,285.5 409.6,281.1 409.0,279.4C408.2,277.0 406.7,275.8 402.5,274.1C399.6,272.9 395.1,270.0 392.5,267.8C390.0,265.6 387.3,262.5 386.5,260.9C385.7,259.4 385.0,255.6 385.0,252.5C385.0,249.5 385.4,247.0 385.9,247.0C386.4,247.0 388.2,249.2 390.0,252.0C391.7,254.7 394.8,258.4 396.8,260.1C398.8,261.8 402.2,264.1 404.4,265.1C406.7,266.1 408.9,266.5 409.4,266.0C409.9,265.5 409.7,262.2 409.1,258.3C408.4,254.6 407.7,250.7 407.4,249.7C407.1,248.8 403.6,246.5 399.7,244.7C395.0,242.5 391.0,239.7 388.2,236.7C384.1,232.1 384.0,231.9 384.0,225.0C384.0,221.1 384.4,218.0 385.0,218.0C385.5,218.0 387.3,220.6 388.9,223.8C390.5,226.9 392.9,230.5 394.1,231.7C395.4,232.9 398.7,235.0 401.4,236.4C404.0,237.8 406.6,238.7 407.1,238.4C407.6,238.1 408.0,235.5 408.0,232.7C408.0,229.8 407.7,226.6 407.4,225.5C407.1,224.4 404.2,221.9 400.8,220.0C397.5,218.1 392.6,214.5 390.0,212.0C386.0,208.3 385.0,206.7 384.5,202.9C384.1,200.4 384.0,197.2 384.2,195.9C384.3,194.6 384.9,193.5 385.5,193.5C386.0,193.5 387.8,196.0 389.5,199.0C391.4,202.4 394.6,206.1 398.3,208.9C401.4,211.3 404.3,213.1 404.6,212.7C405.0,212.4 405.5,210.1 405.7,207.7C406.0,205.2 405.7,201.6 405.1,199.7C404.2,197.2 402.5,195.2 399.0,193.0C396.3,191.2 392.7,188.3 391.0,186.4C389.2,184.3 388.0,181.8 388.0,180.1C388.0,178.6 388.5,175.9 389.1,174.1C389.7,172.4 390.6,171.0 391.0,171.0C391.4,171.0 392.1,172.2 392.5,173.8C392.8,175.3 394.1,178.0 395.2,179.8C396.3,181.7 398.4,183.6 399.7,184.1C401.4,184.7 402.7,184.7 403.6,183.9C404.4,183.3 405.0,180.9 405.0,178.7C405.0,175.1 404.4,174.1 400.1,170.1C397.4,167.6 394.8,164.2 394.4,162.6C393.9,160.6 394.2,158.7 395.4,156.6C396.3,154.9 397.9,152.4 399.0,151.0C401.0,148.5 401.0,148.5 401.0,154.7C401.0,158.1 401.5,162.0 402.2,163.4C402.8,164.8 404.2,166.3 405.3,166.6C406.8,167.1 407.9,166.6 409.3,164.9C410.7,163.2 411.0,161.6 410.6,158.9C410.3,156.9 408.9,152.7 407.5,149.5C405.1,144.1 405.0,143.6 406.6,141.9C407.5,140.9 408.6,140.3 409.1,140.5C409.5,140.8 411.7,144.4 414.0,148.4C416.2,152.5 419.6,160.4 421.4,166.1C423.3,171.8 425.2,178.2 425.5,180.2C425.9,182.3 426.0,185.0 425.6,186.3C425.3,187.6 421.8,192.2 417.9,196.6C410.8,204.5 410.8,204.5 411.2,211.7C411.4,215.6 411.9,219.2 412.3,219.6C412.7,220.0 414.1,219.7 415.5,219.0C416.9,218.2 419.4,215.6 421.0,213.2C422.6,210.8 424.7,206.2 425.6,203.1C427.3,197.5 427.3,197.5 428.6,200.5C429.3,202.2 429.9,205.7 430.0,208.3C430.0,211.0 429.5,214.1 428.9,215.3C428.3,216.5 424.6,220.8 420.7,224.7C413.6,232.0 413.6,232.0 413.7,240.1C413.8,244.6 414.1,248.5 414.4,248.7C414.6,249.0 415.8,248.9 416.9,248.5C418.0,248.2 420.4,246.1 422.1,243.8C423.9,241.6 426.3,237.0 427.5,233.7C428.6,230.4 430.0,227.5 430.6,227.3C431.2,227.1 432.0,227.9 432.4,229.2C432.7,230.5 433.0,233.7 433.0,236.3C433.0,239.1 432.2,242.6 431.1,244.8C430.0,246.8 426.6,251.0 423.5,254.0C420.4,257.0 417.2,260.7 416.4,262.2C415.6,263.7 415.0,267.4 415.0,270.4C415.0,273.4 415.4,277.0 416.0,278.4C416.5,279.8 417.5,281.0 418.1,281.0C418.8,281.0 421.1,279.1 423.3,276.8C425.5,274.5 428.3,270.3 429.6,267.6C430.8,264.8 432.6,260.7 433.5,258.5C435.0,255.0 435.3,254.7 436.0,256.5C436.5,257.6 436.9,261.4 436.9,265.0C437.0,269.5 436.5,272.3 435.3,274.0C434.4,275.4 429.9,280.4 425.2,285.2C416.8,294.0 416.8,294.0 417.2,300.0C417.4,303.3 418.2,306.6 418.8,307.2C419.7,308.1 421.0,307.4 424.5,304.0C426.9,301.6 430.5,296.6 432.5,292.9C434.5,289.1 436.5,285.8 437.1,285.4C437.7,285.1 438.4,285.0 438.6,285.3C438.9,285.6 439.4,288.3 439.7,291.3C440.2,295.8 439.9,297.5 438.2,300.2C437.1,302.0 432.7,306.9 428.6,311.0C421.0,318.5 421.0,318.5 421.0,327.5C421.0,332.4 421.4,337.1 421.9,337.9C422.6,339.0 423.2,338.9 425.2,337.6C426.6,336.7 429.1,334.0 430.9,331.5C432.7,329.0 435.6,323.8 437.4,319.8C440.8,312.5 440.8,312.5 441.9,315.3C442.5,316.9 443.0,320.5 443.0,323.4C443.0,327.7 442.4,329.5 440.0,332.9C438.3,335.2 433.8,340.3 430.0,344.4C423.0,351.7 423.0,351.7 423.0,359.6C423.0,364.0 423.3,368.5 423.6,369.8C424.0,371.1 424.8,371.9 425.4,371.7C426.0,371.5 428.7,368.7 431.3,365.4C434.0,362.2 437.9,355.9 440.0,351.5C443.7,343.7 443.9,343.6 444.7,346.5C445.1,348.1 445.5,352.2 445.5,355.6C445.5,361.4 445.3,362.0 440.9,367.1C438.3,370.1 433.9,375.0 431.0,378.0C428.1,381.0 425.4,384.4 425.1,385.5C424.7,386.6 424.5,391.0 424.8,395.2C425.1,400.6 425.6,403.0 426.5,403.0C427.2,403.0 429.9,400.4 432.5,397.2C435.1,394.1 438.9,388.2 440.8,384.1C443.7,378.2 444.5,377.1 445.1,378.6C445.5,379.6 445.9,383.0 445.9,386.0C445.9,389.4 445.2,393.1 444.0,395.8C443.0,398.1 439.7,402.5 436.8,405.6C433.9,408.7 430.1,411.8 428.2,412.6C424.9,414.0 424.9,414.0 425.5,421.7C425.8,426.0 426.5,443.4 427.0,460.5C427.6,477.6 428.3,513.1 428.5,539.5C428.8,565.9 429.8,605.5 430.6,627.5C431.4,649.5 432.5,672.6 433.0,678.9C433.5,686.6 434.2,690.5 435.1,691.1C435.9,691.6 437.9,692.0 439.5,692.0C441.1,692.0 443.1,691.6 443.9,691.1C445.0,690.4 445.3,673.0 445.5,585.4C445.6,510.4 446.0,478.1 446.9,472.1C447.6,467.5 448.8,462.1 449.7,460.1C451.2,456.5 451.2,456.5 452.0,459.5C452.5,461.1 453.1,484.8 453.4,512.0C453.8,539.2 454.4,563.3 454.8,565.5C455.6,569.5 455.6,569.5 457.7,565.5C458.8,563.3 460.3,559.0 460.9,556.0C461.5,553.0 464.7,540.1 467.9,527.5C471.1,514.9 475.6,497.3 477.9,488.5C480.2,479.7 483.7,467.8 485.7,462.0C487.6,456.2 490.5,447.4 492.0,442.5C493.6,437.6 496.4,429.2 498.3,424.0C500.2,418.8 504.0,408.4 506.8,401.0C509.5,393.6 513.4,383.7 515.3,379.0C517.2,374.3 521.7,364.2 525.2,356.5C528.8,348.8 535.2,335.7 539.6,327.4C543.9,319.0 550.2,307.6 553.4,301.9C556.7,296.2 563.1,285.9 567.7,279.0C572.3,272.1 577.0,265.3 578.2,263.8C580.4,261.0 580.4,261.0 578.3,258.8C577.1,257.5 575.7,255.2 575.1,253.7C574.5,252.1 574.0,248.6 574.0,245.9C574.0,242.6 574.8,239.3 576.5,235.9C577.9,233.2 580.5,229.3 582.4,227.2C584.2,225.2 586.9,221.7 588.5,219.5C590.1,217.3 596.4,210.6 602.5,204.5C613.5,193.5 613.5,193.5 614.0,201.0C614.5,208.5 614.5,208.5 618.6,208.3C621.0,208.2 625.5,206.8 629.1,205.0C632.6,203.2 636.5,200.9 637.8,199.7C639.0,198.6 640.0,197.1 640.0,196.4C640.0,195.7 637.7,194.7 635.0,194.1C630.9,193.2 629.2,193.3 626.3,194.5C623.4,195.7 622.5,195.8 621.8,194.8C621.3,194.1 620.5,192.7 619.9,191.7C619.2,190.4 619.4,189.3 620.7,187.5C621.7,186.1 627.8,180.7 634.2,175.5C640.6,170.2 649.6,164.0 654.2,161.6C658.8,159.1 666.9,155.7 672.3,153.9C677.7,152.2 682.3,151.0 682.7,151.3C683.0,151.6 681.7,153.9 679.9,156.4C678.0,158.8 674.7,163.2 672.4,166.2C670.2,169.1 664.3,177.1 659.3,184.0C654.3,190.9 649.6,197.9 648.7,199.6C647.8,201.3 645.5,204.6 643.5,206.9C641.6,209.3 633.9,220.3 626.5,231.5C619.1,242.6 611.2,253.4 608.9,255.5C606.6,257.5 602.5,260.3 599.6,261.6C596.8,262.9 592.7,264.0 590.5,264.0C588.3,264.0 586.0,264.4 585.4,264.8C584.8,265.2 580.5,271.4 575.8,278.5C571.1,285.6 563.8,297.8 559.5,305.5C555.2,313.2 547.9,326.7 543.4,335.5C538.8,344.3 531.7,359.6 527.4,369.5C523.2,379.4 518.0,392.2 515.8,398.0C513.6,403.8 510.2,412.8 508.3,418.0C506.4,423.2 502.6,434.2 499.8,442.5C497.1,450.8 493.6,462.0 491.9,467.5C490.3,473.0 486.5,486.1 483.6,496.5C480.6,506.9 475.7,525.9 472.6,538.5C469.6,551.1 465.7,567.6 464.0,575.0C462.3,582.4 460.0,593.7 458.9,600.0C457.8,606.3 456.2,616.7 455.4,623.0C454.6,629.3 453.7,640.8 453.3,648.6C453.0,656.3 453.0,664.0 453.4,665.5C454.1,668.4 454.1,668.4 456.1,665.4C457.1,663.8 459.1,659.1 460.4,654.9C461.8,650.8 465.2,635.9 468.0,621.9C470.9,607.9 476.1,585.0 479.7,571.0C483.3,557.0 488.0,538.3 490.1,529.5C492.3,520.7 495.6,508.3 497.6,502.0C499.5,495.7 503.2,484.2 505.7,476.5C508.2,468.8 512.7,457.6 515.6,451.5C518.5,445.4 521.8,439.4 522.9,438.0C524.3,436.3 525.0,436.0 525.0,437.0C525.0,437.8 523.8,442.6 522.4,447.5C521.0,452.5 518.3,462.1 516.4,468.9C514.5,475.8 513.1,481.8 513.3,482.4C513.5,483.0 515.6,480.1 518.0,476.0C520.3,471.9 525.3,463.3 529.0,457.0C532.7,450.7 537.4,442.4 539.5,438.5C541.6,434.6 547.2,425.4 551.8,418.0C556.5,410.6 566.6,396.2 574.4,386.1C582.1,375.9 593.3,362.6 599.2,356.5C605.0,350.4 613.1,342.9 617.2,339.8C621.2,336.7 627.6,332.3 631.5,329.9C635.4,327.6 640.9,324.6 643.9,323.3C646.8,322.0 650.0,321.1 650.9,321.2C652.0,321.5 649.2,325.0 641.4,333.0C635.4,339.3 627.3,348.6 623.5,353.5C619.7,358.4 614.1,365.3 611.1,368.8C608.1,372.3 604.3,376.1 602.7,377.2C599.7,379.3 599.7,379.3 600.2,376.4C600.5,374.8 601.9,370.9 603.4,367.7C606.1,361.8 606.1,361.8 603.3,363.8C601.7,364.9 598.4,368.0 595.9,370.7C593.4,373.3 589.8,377.5 588.0,380.0C586.1,382.5 582.3,387.4 579.4,391.0C576.6,394.6 570.9,402.4 566.8,408.5C562.8,414.6 557.4,422.9 554.9,427.0C552.4,431.1 547.8,439.0 544.7,444.6C541.6,450.1 539.0,454.9 539.0,455.3C539.0,455.6 536.8,460.0 534.0,465.0C531.3,470.0 524.3,484.4 518.4,496.8C512.5,509.3 504.5,526.5 500.4,535.0C496.4,543.5 492.4,553.1 491.5,556.3C490.6,559.4 490.0,562.8 490.2,563.7C490.4,564.9 492.7,562.9 497.8,556.8C501.8,552.0 506.0,547.4 507.2,546.6C508.4,545.7 509.6,545.2 509.8,545.5C510.0,545.7 507.2,552.1 503.5,559.7C499.8,567.3 494.0,580.7 490.5,589.5C487.0,598.3 481.9,611.6 479.1,619.0C476.4,626.5 472.4,639.2 470.1,647.2C467.9,655.3 465.6,664.6 464.9,668.0C464.1,672.4 464.0,674.4 464.8,675.2C465.4,675.8 466.5,676.0 467.3,675.7C468.1,675.4 470.6,671.9 472.8,667.8C475.0,663.8 478.0,657.6 479.6,654.0C481.1,650.4 484.9,640.1 488.1,631.0C491.2,621.9 495.4,610.5 497.3,605.5C499.2,600.5 504.3,589.1 508.5,580.0C512.7,570.9 517.7,560.6 519.7,557.0C521.7,553.4 526.2,545.1 529.8,538.5C533.4,531.9 538.2,523.4 540.5,519.5C542.8,515.6 547.2,508.2 550.3,503.0C553.5,497.8 560.0,487.8 564.8,480.9C569.6,473.9 576.2,464.8 579.5,460.5C582.8,456.2 589.1,448.4 593.4,443.1C597.8,437.8 604.5,430.0 608.3,425.8C612.1,421.5 617.4,416.4 620.1,414.4C622.9,412.4 625.4,411.0 625.7,411.3C626.0,411.7 624.4,414.9 622.1,418.5C619.9,422.1 615.6,428.1 612.6,431.8C609.7,435.5 603.3,444.4 598.4,451.5C593.6,458.6 586.9,469.0 583.5,474.5C580.1,480.0 571.5,493.7 564.4,505.0C557.3,516.3 549.9,528.1 548.1,531.3C546.3,534.5 545.1,537.4 545.4,537.8C545.8,538.1 550.3,534.2 555.5,529.0C561.2,523.3 565.0,520.2 565.0,521.2C565.0,522.1 563.5,525.7 561.6,529.2C559.8,532.7 554.5,541.6 550.0,549.0C545.4,556.4 539.6,566.1 537.0,570.5C534.4,574.9 527.9,586.4 522.5,596.0C517.1,605.6 508.3,620.0 502.9,628.0C497.5,636.0 490.5,647.9 487.2,654.5C483.9,661.1 480.1,669.8 478.6,673.8C477.2,677.8 476.0,682.0 476.0,683.1C476.0,684.3 476.5,685.0 477.2,684.8C477.9,684.5 482.4,678.8 487.2,671.9C492.0,665.1 497.9,656.1 500.4,651.9C502.9,647.7 507.7,640.5 511.0,635.9C514.2,631.3 519.5,624.9 522.7,621.7C526.5,617.9 531.1,614.6 536.0,612.2C543.5,608.5 543.5,608.5 557.5,608.6C565.2,608.7 572.8,609.3 574.3,609.9C575.9,610.5 577.0,611.6 576.8,612.3C576.5,612.9 573.2,615.1 569.4,617.0C565.6,618.9 560.5,621.9 558.0,623.6C555.5,625.4 552.4,628.0 551.1,629.4C549.7,630.8 548.9,632.2 549.2,632.5C549.5,632.8 553.1,631.9 557.3,630.5C562.5,628.8 568.2,627.8 575.2,627.4C581.0,627.0 589.5,627.3 594.5,627.9C599.5,628.5 604.6,629.2 606.0,629.5C607.4,629.8 610.4,630.4 612.8,630.9C615.2,631.4 617.4,632.1 617.8,632.5C618.2,632.9 617.2,634.3 615.7,635.6C613.0,637.9 613.0,638.0 615.2,637.9C616.5,637.9 621.6,638.6 626.6,639.4C631.6,640.3 637.5,641.6 639.6,642.3C641.7,643.1 643.6,644.2 643.8,644.8C644.0,645.4 642.1,647.1 639.5,648.5C636.6,650.2 634.0,651.0 632.4,650.7C631.1,650.5 629.7,650.7 629.4,651.2C629.1,651.6 628.3,651.7 627.7,651.3C627.0,650.9 627.1,651.4 627.9,652.3C628.7,653.3 629.0,654.3 628.7,654.6C628.4,654.9 623.7,656.0 618.3,657.1C612.9,658.1 605.3,660.0 601.3,661.1C597.3,662.3 593.3,664.1 592.4,665.1C590.9,666.8 591.0,666.9 594.7,667.5C596.8,667.9 601.2,668.8 604.5,669.6C607.8,670.4 610.8,671.4 611.3,671.9C611.7,672.3 610.2,673.4 607.8,674.3C605.4,675.2 601.5,676.4 599.0,677.1C596.4,677.7 580.4,678.5 560.5,678.9C526.5,679.5 526.5,679.5 522.0,682.2C519.5,683.7 514.7,687.3 511.3,690.4C507.9,693.4 503.8,696.1 502.3,696.4C500.8,696.8 495.1,697.4 489.8,697.9C484.4,698.4 479.6,699.1 479.0,699.5C478.2,700.0 478.4,700.8 479.6,702.1C481.3,703.9 481.2,704.1 479.4,705.5C478.4,706.3 475.2,707.7 472.5,708.6C468.2,710.1 462.2,710.4 431.5,710.5zM287.6,687.0C287.9,687.0 289.6,686.0 291.3,684.8C293.1,683.6 296.4,680.9 298.7,678.8C301.0,676.8 306.0,673.0 309.9,670.6C313.7,668.1 319.0,665.0 321.7,663.7C324.3,662.4 328.7,660.7 331.3,660.0C334.4,659.2 339.0,658.9 344.3,659.3C348.8,659.6 354.3,660.6 356.5,661.5C360.5,663.2 360.5,663.2 357.0,659.5C355.1,657.5 349.7,653.0 345.0,649.5C340.3,646.1 332.8,641.4 328.3,639.1C323.8,636.9 316.3,633.5 311.6,631.5C306.9,629.6 298.2,626.8 292.3,625.3C282.5,622.8 279.8,622.5 263.0,622.6C246.8,622.6 243.5,622.9 236.5,624.8C232.2,626.1 225.4,628.5 221.5,630.2C217.7,631.9 210.9,635.3 206.5,637.8C202.1,640.3 194.7,644.9 190.0,648.1C185.3,651.2 180.8,654.5 180.1,655.4C179.4,656.3 178.2,657.0 177.6,657.0C177.0,657.0 174.9,658.4 173.0,660.1C169.8,662.8 169.7,663.1 172.0,662.4C173.4,662.1 176.1,661.0 178.0,660.0C179.9,659.1 184.0,657.7 187.0,657.0C190.0,656.3 195.4,654.7 199.0,653.5C202.6,652.3 210.0,649.8 215.5,648.1C221.0,646.3 226.1,644.7 226.8,644.4C227.4,644.2 228.0,644.5 228.0,645.0C228.0,645.5 225.7,648.7 222.9,652.2C220.1,655.7 217.3,659.5 216.7,660.8C216.1,662.0 216.0,663.3 216.3,663.6C216.6,664.0 218.8,662.8 221.2,660.9C223.6,659.1 228.4,655.3 232.0,652.4C235.6,649.6 241.2,645.9 244.6,644.2C247.9,642.5 253.4,640.4 256.7,639.6C260.1,638.7 264.9,638.0 267.5,638.0C272.2,638.0 272.2,638.0 266.0,644.8C262.6,648.5 258.7,653.4 257.3,655.8C255.9,658.1 255.1,660.7 255.4,661.6C256.0,663.1 256.2,663.1 258.3,661.7C259.5,660.8 265.7,657.2 272.1,653.6C278.5,650.0 285.3,646.3 287.3,645.5C289.3,644.7 294.3,643.7 298.2,643.4C302.5,643.1 308.4,643.4 312.5,644.2C317.3,645.1 319.5,646.0 319.5,646.9C319.5,647.7 317.0,649.9 313.8,651.7C310.7,653.5 305.0,658.5 301.0,662.7C296.9,667.3 292.5,673.3 290.4,677.4C288.6,681.2 287.0,684.9 287.0,685.6C287.0,686.4 287.3,687.0 287.6,687.0zM289.9,586.4C290.1,586.2 288.0,583.0 285.3,579.3C282.6,575.5 278.6,570.1 276.4,567.1C274.3,564.2 270.3,559.0 267.7,555.6C265.1,552.3 259.0,545.3 254.3,540.2C249.6,535.0 241.0,526.6 235.3,521.4C229.6,516.2 219.4,508.3 212.7,503.8C206.0,499.3 194.1,492.6 186.2,488.8C178.4,485.0 171.3,482.0 170.4,482.2C169.4,482.4 175.0,488.0 185.6,497.5C194.9,505.8 211.2,521.2 222.0,531.9C232.7,542.6 244.5,554.1 248.1,557.4C251.7,560.8 258.9,566.7 264.1,570.6C269.3,574.5 275.8,579.0 278.5,580.7C281.2,582.4 284.9,584.5 286.5,585.3C288.1,586.1 289.7,586.6 289.9,586.4zM579.5,522.0C578.4,522.0 578.3,521.5 579.0,519.5C579.5,518.2 580.8,515.4 581.9,513.3C582.9,511.2 586.7,506.6 590.2,503.0C594.4,498.7 598.7,495.5 602.8,493.6C606.2,492.0 609.3,490.9 609.6,491.3C610.0,491.6 608.9,493.6 607.2,495.7C605.6,497.8 599.0,504.6 592.6,510.8C586.2,516.9 580.3,522.0 579.5,522.0zM246.2,434.9C248.9,435.0 250.0,434.6 250.0,433.6C250.0,432.8 248.0,430.0 245.6,427.4C243.2,424.7 239.2,421.0 236.7,419.2C233.7,417.1 231.9,416.3 231.4,417.1C231.1,417.7 228.2,419.4 225.1,420.7C222.0,422.1 217.7,423.8 215.6,424.4C213.4,425.0 211.5,426.1 211.2,426.8C211.0,427.5 212.4,428.7 214.3,429.5C216.2,430.3 221.9,431.6 227.1,432.4C232.3,433.3 237.8,434.1 239.5,434.3C241.2,434.5 244.2,434.8 246.2,434.9zM201.8,395.9C204.1,395.9 206.0,395.7 206.0,395.4C206.0,395.1 205.6,394.0 205.0,393.0C204.5,392.0 201.3,389.1 197.9,386.6C193.5,383.3 190.9,382.0 188.7,382.1C186.9,382.1 181.7,383.8 177.1,385.8C172.5,387.8 168.8,389.9 168.8,390.5C168.8,391.1 170.8,392.1 173.2,392.8C175.5,393.6 182.0,394.5 187.5,394.9C193.0,395.4 199.4,395.8 201.8,395.9zM502.9,369.0C502.4,369.0 501.3,367.9 500.5,366.6C499.6,365.3 498.4,361.1 497.8,357.3C497.2,353.5 497.0,344.3 497.3,336.5C497.6,326.0 498.4,320.1 500.3,312.9C501.7,307.6 504.0,301.1 505.4,298.4C507.9,293.5 507.9,293.5 508.0,303.2C508.0,308.5 507.3,324.2 506.5,338.2C505.7,352.1 504.7,364.7 504.4,366.2C504.1,367.8 503.4,369.0 502.9,369.0zM141.2,362.9C144.9,363.0 149.1,362.5 150.6,362.0C153.3,360.9 153.3,360.9 150.9,358.4C149.6,357.0 146.9,355.0 145.0,354.0C143.1,353.1 135.7,350.4 128.5,348.2C121.3,346.0 114.0,343.9 112.2,343.5C109.7,343.0 109.0,343.2 109.0,344.4C109.0,345.2 110.2,346.7 111.8,347.8C113.3,348.9 116.9,350.8 119.8,352.0C122.6,353.2 125.0,354.5 125.0,354.8C125.0,355.1 124.3,356.2 123.3,357.2C122.4,358.2 121.9,359.2 122.1,359.4C122.3,359.6 125.2,360.4 128.5,361.3C131.8,362.1 137.5,362.8 141.2,362.9zM545.9,351.0C544.8,351.0 544.0,350.6 544.0,350.1C544.0,349.6 544.5,347.9 545.1,346.4C545.6,344.8 548.5,340.6 551.5,336.9C554.5,333.2 559.7,328.4 563.1,326.1C566.5,323.8 571.6,321.3 574.4,320.6C577.2,319.8 582.2,318.9 585.5,318.6C588.8,318.3 592.2,318.4 593.0,319.0C594.2,319.7 594.0,320.4 591.5,323.1C589.8,324.8 585.8,328.1 582.5,330.5C579.2,332.8 571.1,337.5 564.5,341.0C557.9,344.5 551.4,348.2 550.1,349.2C548.8,350.2 546.9,351.0 545.9,351.0zM521.6,310.0C521.4,310.0 520.8,307.0 520.4,303.2C520.0,299.2 520.2,292.7 520.9,287.0C521.6,281.8 522.6,273.5 523.1,268.7C524.1,259.9 524.1,259.9 520.2,255.6C518.0,253.3 515.7,249.6 515.0,247.5C514.3,245.3 514.0,241.3 514.3,238.0C514.5,234.9 515.7,230.3 516.8,227.9C518.8,223.5 518.8,223.5 519.0,229.5C519.0,232.8 519.6,236.9 520.3,238.7C521.0,240.4 523.2,243.7 525.3,245.9C528.3,249.3 529.4,249.9 530.9,249.1C531.9,248.5 533.5,246.8 534.5,245.3C535.5,243.8 537.4,241.3 538.8,239.8C540.2,238.3 541.0,236.5 540.7,235.6C540.3,234.7 538.5,234.0 535.8,233.8C531.6,233.5 531.4,233.3 527.2,226.0C523.6,219.8 523.0,217.8 523.3,214.5C523.5,212.3 524.7,208.2 526.0,205.5C528.3,200.5 528.3,200.5 529.1,207.1C529.5,210.8 530.3,214.7 530.9,215.9C531.6,217.1 532.4,218.0 532.8,218.0C533.2,218.0 535.2,216.0 537.3,213.6C539.3,211.1 541.0,208.4 541.0,207.6C541.0,206.8 539.4,203.2 537.5,199.7C535.6,196.2 534.0,192.6 534.0,191.6C534.0,190.7 534.9,188.3 535.9,186.2C536.9,184.2 538.7,181.6 539.9,180.6C542.0,178.7 542.0,178.7 542.0,185.2C542.0,190.4 542.4,192.1 543.9,193.4C545.8,195.1 546.0,195.1 548.4,192.6C549.8,191.2 551.0,189.1 551.0,187.9C551.0,186.7 549.6,183.3 548.0,180.3C545.1,175.2 545.0,174.8 546.5,171.4C547.3,169.5 548.8,166.8 549.9,165.5C551.8,163.0 551.8,163.0 552.4,166.1C552.7,167.9 553.0,170.5 553.0,172.0C553.0,173.5 553.9,175.9 555.0,177.3C556.1,178.7 557.0,180.5 557.0,181.4C557.0,182.2 557.7,183.3 558.6,183.8C559.5,184.3 562.4,184.3 565.2,183.9C567.9,183.5 571.6,182.3 573.3,181.2C575.1,180.2 576.6,178.4 576.8,177.3C577.1,175.5 576.5,175.0 573.3,174.5C571.2,174.2 568.4,173.6 567.0,173.3C565.6,173.0 563.7,172.8 562.8,172.9C561.5,173.1 560.9,172.0 560.4,168.2C560.1,165.5 559.5,162.8 559.1,162.3C558.8,161.8 557.7,160.9 556.7,160.3C555.0,159.4 555.2,158.9 558.6,153.9C560.6,150.9 562.8,147.9 563.5,147.1C564.5,146.1 564.6,146.6 563.7,150.0C562.8,153.3 562.8,154.6 564.1,156.8C564.9,158.3 566.5,159.6 567.6,159.8C569.5,160.1 569.6,160.4 568.6,164.0C568.1,166.2 567.8,168.1 568.1,168.4C568.3,168.7 571.9,168.0 576.0,166.9C580.1,165.8 584.6,164.1 585.9,163.1C587.3,162.2 588.5,160.9 588.7,160.4C588.9,159.8 586.4,158.5 583.1,157.5C579.8,156.5 576.0,155.9 574.7,156.2C572.5,156.6 572.3,156.4 573.0,154.5C573.4,153.4 573.6,151.2 573.3,149.8C573.0,148.3 571.7,146.2 570.5,145.0C568.5,143.1 568.3,142.4 569.1,140.1C569.7,138.7 571.3,136.2 572.8,134.7C575.5,131.8 575.5,131.8 576.5,137.7C577.4,142.5 577.9,143.6 579.7,143.8C581.0,144.0 582.4,143.3 583.4,141.8C584.3,140.6 585.0,137.7 585.0,135.4C585.0,132.8 584.3,130.3 583.1,128.9C581.3,126.6 581.3,126.5 584.2,121.8C585.9,119.1 588.0,116.5 589.0,116.0C590.0,115.4 591.1,115.0 591.4,115.0C591.7,115.0 591.6,116.0 591.1,117.2C590.7,118.5 590.5,121.2 590.8,123.2C591.0,125.3 591.8,127.5 592.6,128.1C593.4,128.7 594.0,130.1 594.0,131.1C594.0,132.3 594.7,133.0 596.0,133.0C597.1,133.0 600.9,131.6 604.5,129.8C608.1,128.0 611.0,126.0 611.0,125.4C611.0,124.8 609.8,123.5 608.4,122.6C607.0,121.6 604.7,121.0 603.2,121.2C600.8,121.5 600.3,120.9 598.3,116.1C596.8,112.4 596.4,110.2 597.0,109.0C597.5,108.1 601.9,103.5 606.9,98.8C611.8,94.1 619.6,87.9 624.2,85.2C628.8,82.4 633.7,79.9 635.3,79.5C637.4,78.9 638.0,79.1 638.0,80.4C638.0,81.3 637.1,84.5 636.0,87.5C634.9,90.5 633.1,95.6 631.9,98.8C630.8,101.9 628.2,107.4 626.1,111.0C624.0,114.6 619.5,122.5 616.0,128.5C612.6,134.6 608.2,142.2 606.2,145.5C604.1,148.9 600.8,153.9 598.7,156.8C596.6,159.6 592.7,165.3 590.0,169.4C587.3,173.6 584.3,178.4 583.4,180.2C582.5,182.0 580.3,185.8 578.5,188.5C576.7,191.2 572.0,199.2 568.1,206.2C564.2,213.1 561.0,219.1 561.0,219.3C561.0,219.6 557.8,225.4 553.8,232.2C549.9,239.0 544.9,246.8 542.7,249.7C540.5,252.5 536.8,256.0 534.5,257.5C530.3,260.1 530.3,260.1 529.1,268.8C528.5,273.6 527.3,283.4 526.4,290.5C525.5,297.6 524.2,305.0 523.5,306.8C522.7,308.5 521.9,310.0 521.6,310.0zM590.5,254.0C592.5,254.0 595.8,253.1 597.8,252.1C599.9,251.0 603.7,247.9 606.4,245.0C609.1,242.2 610.8,239.5 610.4,239.0C609.9,238.5 606.0,238.0 601.6,237.8C593.8,237.5 593.8,237.5 591.3,231.2C589.9,227.7 588.2,225.1 587.6,225.3C587.0,225.5 585.5,227.4 584.3,229.6C583.1,231.7 581.6,235.8 580.9,238.5C580.1,242.1 580.1,244.3 580.9,246.2C581.5,247.8 582.4,249.0 582.9,249.0C583.4,249.0 584.2,248.1 584.5,247.0C584.8,245.9 585.8,244.3 586.6,243.5C587.5,242.7 588.5,242.0 589.0,242.0C589.5,242.0 589.3,243.9 588.5,246.1C587.7,248.4 587.0,251.1 587.0,252.1C587.0,253.6 587.7,254.0 590.5,254.0zM600.8,231.0C601.3,231.0 606.1,229.2 611.6,227.0C618.1,224.4 622.4,222.0 624.2,220.0C625.8,218.3 627.0,216.6 627.0,216.1C627.0,215.6 623.1,215.2 618.4,215.3C609.8,215.4 609.8,215.4 608.5,212.4C607.9,210.8 606.6,208.9 605.7,208.2C604.3,207.0 603.7,207.2 601.6,209.5C600.2,211.0 598.6,213.8 597.9,215.7C597.1,218.3 597.1,220.3 598.0,223.8C598.7,226.4 599.4,229.1 599.6,229.8C599.8,230.4 600.3,231.0 600.8,231.0zM538.8,226.0C540.3,226.0 543.1,225.5 545.0,225.0C547.1,224.4 550.7,221.8 554.0,218.5C556.9,215.5 559.2,212.9 558.9,212.6C558.7,212.4 554.6,211.9 549.8,211.5C541.0,210.8 541.0,210.8 538.5,216.1C537.1,219.1 536.0,222.5 536.0,223.8C536.0,225.5 536.6,226.0 538.8,226.0zM548.4,204.0C549.2,204.0 552.7,203.1 556.3,202.0C560.1,200.8 564.2,198.7 566.0,197.0C567.7,195.4 568.9,193.7 568.6,193.2C568.3,192.7 564.9,191.9 561.0,191.6C555.9,191.1 553.4,191.2 552.4,192.1C551.5,192.8 550.0,195.1 548.9,197.1C547.9,199.2 547.0,201.6 547.0,202.5C547.0,203.3 547.6,204.0 548.4,204.0zM410.6,192.8C411.5,192.6 413.6,190.2 415.2,187.3C417.0,184.1 418.4,180.0 418.7,176.6C419.2,171.9 419.0,170.9 417.5,170.4C416.2,169.9 414.6,170.9 411.4,174.3C407.5,178.3 407.0,179.4 407.0,183.4C407.0,185.8 407.5,189.1 408.0,190.5C408.6,192.1 409.6,193.0 410.6,192.8zM634.9,188.5C637.8,188.1 642.4,187.2 645.2,186.4C648.0,185.7 651.0,184.4 651.8,183.6C653.2,182.2 653.1,182.0 650.7,181.1C649.2,180.5 648.0,179.6 648.0,179.1C648.0,178.5 649.9,177.0 652.2,175.6C654.6,174.2 658.3,171.3 660.5,169.1C662.8,166.7 663.8,165.0 663.0,165.0C662.2,165.0 659.6,165.9 657.2,167.0C654.8,168.1 649.0,171.5 644.2,174.7C639.4,177.8 634.9,181.1 634.2,181.9C633.5,182.8 632.3,184.8 631.4,186.4C629.8,189.2 629.8,189.2 634.9,188.5zM294.8,157.9C294.1,157.9 290.6,156.8 287.1,155.5C283.5,154.2 279.5,152.3 278.1,151.2C276.7,150.2 274.7,147.8 273.8,145.9C272.8,144.0 272.0,140.6 272.0,138.2C272.0,135.9 272.4,134.0 272.9,134.0C273.4,134.0 274.9,135.7 276.1,137.8C277.4,139.8 279.5,142.5 280.9,143.8C282.2,145.0 284.1,146.0 285.2,146.0C286.2,146.0 288.5,146.7 290.1,147.6C291.8,148.4 293.8,150.6 294.6,152.5C295.4,154.4 296.0,156.4 296.0,157.0C296.0,157.5 295.4,158.0 294.8,157.9zM585.3,151.5C587.1,151.1 590.6,149.6 593.2,148.3C595.8,146.9 598.9,144.7 600.1,143.4C602.3,141.1 602.3,141.1 599.9,140.6C598.6,140.3 595.5,139.6 593.1,139.1C590.7,138.6 588.1,138.4 587.4,138.7C586.7,139.0 584.9,141.6 583.4,144.5C582.0,147.5 581.1,150.4 581.5,151.0C581.9,151.7 583.4,151.9 585.3,151.5zM608.7,115.0C609.7,114.9 612.2,114.3 614.3,113.6C616.4,112.8 619.0,111.4 620.1,110.4C621.1,109.5 622.0,108.4 622.0,108.0C622.0,107.6 620.6,107.0 619.0,106.7C617.4,106.3 616.0,105.5 616.0,104.9C616.0,104.2 618.5,101.1 621.5,97.9C624.5,94.7 627.0,91.4 627.0,90.5C627.0,89.0 626.8,88.9 625.2,90.1C624.3,90.8 620.9,93.5 617.8,96.0C614.6,98.5 610.7,101.5 609.1,102.7C607.5,104.0 605.9,106.1 605.6,107.4C605.3,108.8 605.4,111.0 606.0,112.4C606.5,113.9 607.7,115.0 608.7,115.0z" />

</svg>