<?xml version="1.0" encoding="UTF-8" standalone="no"?>
<svg 
  version="1.1" 
  xmlns="http://www.w3.org/2000/svg" 
  xmlns:xlink="http://www.w3.org/1999/xlink" 
  xmlns:svg="http://www.w3.org/2000/svg"
  xmlns:rdf="http://www.w3.org/1999/02/22-rdf-syntax-ns#"
  xmlns:cc="http://creativecommons.org/ns#"
  xmlns:dc="http://purl.org/dc/elements/1.1/"
  viewBox="0 0 768 768"
  width="768"
  height="768"
>
<style>svg {background-color: white; }</style>"
<metadata id="metadata1">
Created by https://svgstud.io and licensed under CC-BY-SA 4.0 license. Please attribute https://svgstud.io
</metadata>
<metadata id="prompt">
chrysanthemum
</metadata>
<metadata id="version">
7
</metadata>
<metadata id="metadata2">
<rdf:RDF>
<cc:Work
    rdf:about="">
    <cc:license
    rdf:resource="http://creativecommons.org/licenses/by-sa/4.0/" />
    <dc:creator>
        <cc:Agent>
            <dc:title>https://svgstud.io</dc:title>
        </cc:Agent>
    </dc:creator>
</cc:Work>
<cc:License
    rdf:about="http://creativecommons.org/licenses/by-sa/4.0/">
    <cc:permits
    rdf:resource="http://creativecommons.org/ns#Reproduction" />
    <cc:permits
    rdf:resource="http://creativecommons.org/ns#Distribution" />
    <cc:requires
    rdf:resource="http://creativecommons.org/ns#Notice" />
    <cc:requires
    rdf:resource="http://creativecommons.org/ns#Attribution" />
    <cc:permits
    rdf:resource="http://creativecommons.org/ns#DerivativeWorks" />
    <cc:requires
    rdf:resource="http://creativecommons.org/ns#ShareAlike" />
</cc:License>
</rdf:RDF>
</metadata>
<metadata id="uid">
bc70fce070dc8ab6d839163ce498a979ad4336f44b799d682fc34efc061e2f88
</metadata>
<path stroke="none" fill="black" fill-rule="evenodd" d="M351.0,743.2C346.9,743.5 342.7,743.5 341.8,743.3C340.7,743.0 339.8,741.2 339.1,737.7C338.6,734.8 337.6,728.5 337.0,723.5C336.2,716.8 335.2,713.4 333.2,710.0C331.7,707.5 327.1,702.9 323.0,699.7C318.9,696.5 314.1,693.1 312.3,692.3C309.2,690.7 309.0,690.8 302.3,694.7C298.6,697.0 293.4,699.5 290.9,700.3C288.3,701.2 282.3,702.6 277.4,703.6C269.7,705.0 265.4,705.1 245.0,704.4C232.1,703.9 215.2,703.5 207.5,703.6C197.8,703.7 192.0,704.2 188.7,705.3C184.0,706.8 184.0,706.8 183.4,704.3C183.0,702.9 183.0,699.5 183.3,696.7C183.6,693.8 185.4,687.3 187.3,682.2C189.2,677.1 193.2,669.3 196.1,664.9C199.0,660.5 204.7,653.7 208.9,649.8C214.2,644.8 219.0,641.5 224.6,638.8C229.9,636.2 235.8,634.3 241.6,633.3C248.9,632.0 252.2,631.9 260.0,632.9C265.2,633.5 272.4,634.7 276.0,635.6C279.6,636.5 285.4,638.6 288.9,640.2C293.0,642.2 297.9,645.8 302.9,650.5C307.3,654.7 312.2,660.7 314.4,664.5C316.6,668.1 321.2,673.7 324.7,677.0C328.2,680.3 331.6,683.0 332.2,683.0C332.9,683.0 333.1,681.0 332.6,676.8C332.3,673.3 331.6,665.1 331.0,658.5C330.4,651.9 329.5,644.9 329.0,642.9C328.3,640.4 324.5,635.4 317.2,627.4C311.2,620.8 302.8,612.3 298.4,608.5C294.1,604.6 288.4,599.8 285.9,597.8C283.4,595.8 276.7,591.3 270.9,587.9C260.5,581.6 260.5,581.6 246.8,580.9C239.3,580.5 232.8,580.0 232.2,579.6C231.7,579.3 223.3,578.1 213.6,577.0C203.9,575.9 190.5,573.9 183.7,572.5C177.0,571.2 166.6,568.2 160.6,566.0C154.7,563.9 145.9,560.0 141.1,557.4C136.4,554.8 129.1,550.4 125.0,547.4C120.9,544.5 113.9,538.4 109.4,533.8C104.9,529.2 97.5,521.0 93.0,515.5C88.4,510.0 82.3,502.9 79.3,499.8C76.4,496.7 74.0,493.3 74.0,492.2C74.0,491.2 74.8,489.6 75.8,488.8C76.7,487.9 82.1,484.9 87.8,482.1C93.5,479.2 102.5,475.3 107.8,473.4C113.1,471.5 121.5,469.2 126.5,468.3C132.8,467.2 138.4,467.0 145.1,467.4C150.3,467.7 156.9,468.7 159.6,469.5C162.3,470.3 164.8,471.0 165.2,471.0C165.5,471.0 166.1,469.1 166.5,466.8C166.8,464.4 168.0,459.2 169.1,455.2C170.2,451.2 172.2,445.5 173.6,442.7C175.1,439.8 178.1,434.6 180.4,431.0C184.6,424.5 184.6,424.5 165.1,424.4C151.1,424.4 143.5,423.9 138.5,422.8C134.6,421.9 127.5,420.0 122.8,418.5C118.0,417.0 113.3,415.2 112.4,414.5C110.7,413.3 110.7,412.9 112.4,406.9C113.3,403.4 116.2,397.1 118.7,393.0C121.2,388.9 124.4,384.2 125.8,382.7C127.9,380.5 128.2,379.7 127.1,379.1C126.4,378.6 122.5,378.0 118.6,377.6C114.6,377.2 106.6,375.7 100.9,374.1C95.2,372.6 86.3,369.6 81.1,367.5C75.9,365.5 69.5,362.4 66.8,360.8C63.0,358.4 62.0,357.3 62.0,355.1C62.0,353.6 63.4,350.1 65.2,347.4C67.0,344.7 71.6,339.3 75.5,335.4C79.3,331.5 85.0,326.7 88.0,324.8C91.0,322.9 96.0,320.3 99.0,319.1C102.0,317.8 104.9,316.4 105.4,316.0C105.8,315.5 104.9,314.4 103.4,313.4C101.8,312.4 96.9,309.3 92.5,306.4C88.1,303.6 80.4,297.0 75.3,292.0C70.3,286.9 65.0,280.5 63.5,277.9C61.2,273.6 61.0,272.8 62.3,271.0C63.0,270.0 65.4,267.7 67.6,265.9C69.7,264.2 74.1,261.5 77.3,259.8C80.5,258.2 87.3,255.5 92.3,253.9C97.4,252.2 105.3,250.5 109.9,250.0C114.5,249.5 118.5,248.9 118.8,248.6C119.1,248.3 115.7,244.3 111.4,239.7C107.1,235.2 101.6,228.2 99.3,224.2C96.9,220.3 94.1,214.2 92.9,210.8C91.8,207.4 91.1,203.7 91.4,202.6C91.8,201.2 94.3,199.4 98.9,197.2C102.7,195.4 107.8,193.7 110.2,193.4C112.6,193.1 118.7,192.6 123.8,192.3C133.1,191.8 133.2,191.7 132.5,189.3C132.2,187.9 130.9,185.2 129.6,183.2C128.4,181.2 125.9,175.2 124.1,170.0C122.4,164.7 120.5,156.3 119.9,151.0C119.2,145.1 119.1,140.2 119.7,138.0C120.4,135.3 121.5,134.0 124.5,132.5C127.6,131.0 131.2,130.5 140.3,130.2C147.1,129.9 155.4,130.3 159.8,131.0C164.0,131.7 171.6,133.6 176.5,135.2C181.4,136.9 188.1,139.6 191.4,141.2C194.6,142.8 197.5,143.9 197.8,143.5C198.1,143.2 197.3,139.7 196.0,135.7C194.0,129.6 193.7,126.6 193.7,115.4C193.8,106.5 194.3,100.5 195.4,96.8C196.3,93.8 197.9,90.1 199.1,88.5C201.1,86.0 201.7,85.8 206.2,86.4C208.8,86.8 214.1,88.0 217.8,89.1C221.5,90.2 229.1,93.6 234.8,96.6C240.5,99.6 245.5,101.8 245.9,101.5C246.4,101.3 247.0,97.6 247.3,93.3C247.6,89.0 248.6,83.2 249.4,80.5C250.3,77.8 251.9,74.0 253.0,72.1C255.1,68.8 255.2,68.8 260.8,69.2C264.4,69.4 269.0,70.7 273.0,72.6C276.6,74.3 282.1,77.8 285.2,80.3C288.4,82.9 291.2,85.0 291.5,85.0C291.7,85.0 294.6,79.5 297.9,72.7C302.2,63.8 304.9,59.4 307.9,56.7C310.2,54.7 312.8,53.0 313.8,53.0C314.8,53.0 317.8,54.4 320.5,56.1C323.2,57.8 328.5,62.2 332.3,65.9C336.1,69.5 341.2,75.3 343.7,78.8C346.2,82.2 348.5,85.0 349.0,85.0C349.4,85.0 351.5,82.0 353.5,78.3C355.5,74.6 359.2,68.8 361.7,65.3C364.1,61.8 368.0,57.4 370.3,55.5C372.6,53.5 375.5,51.7 376.7,51.3C378.0,51.0 380.4,51.3 382.0,52.0C383.6,52.7 387.2,55.5 390.0,58.2C392.8,60.9 397.3,66.5 400.1,70.7C402.9,74.9 406.9,82.2 408.9,87.1C412.6,95.9 412.6,95.9 421.5,86.3C426.4,81.0 432.5,75.4 434.9,73.8C438.2,71.8 440.6,71.0 444.1,71.0C447.3,71.0 449.6,71.6 451.3,73.1C452.8,74.2 455.8,78.8 457.9,83.3C460.1,87.8 462.6,95.0 463.5,99.2C464.3,103.4 465.0,108.2 465.0,109.8C465.0,111.3 464.4,113.5 463.6,114.5C462.8,115.6 461.6,116.1 460.7,115.7C459.7,115.3 458.9,113.3 458.5,110.3C458.1,107.7 456.8,101.4 455.4,96.3C454.1,91.2 451.9,84.8 450.6,82.1C448.9,78.8 447.3,77.0 445.5,76.6C444.0,76.2 441.8,76.6 440.2,77.4C438.7,78.2 434.3,82.1 430.4,86.2C426.6,90.2 421.3,96.7 418.7,100.5C416.2,104.4 412.5,111.2 410.5,115.6C408.6,120.1 405.7,128.9 404.1,135.2C402.4,141.5 400.6,150.7 399.9,155.6C399.2,161.3 398.9,172.4 399.2,186.5C399.5,198.6 400.1,209.3 400.4,210.2C400.8,211.1 401.8,212.1 402.6,212.4C403.4,212.7 404.6,212.7 405.4,212.4C406.2,212.1 407.1,210.6 407.4,209.2C407.7,207.7 408.2,202.9 408.6,198.5C409.0,193.1 409.5,191.2 410.0,192.5C410.4,193.6 411.5,198.8 412.4,204.0C413.3,209.2 414.5,213.9 415.0,214.4C415.6,215.0 418.6,215.7 421.8,216.1C424.9,216.5 428.5,217.1 429.7,217.5C431.6,218.1 432.0,217.8 432.5,215.4C432.9,213.8 434.1,208.9 435.1,204.5C436.2,200.1 439.3,192.0 442.0,186.5C444.6,181.0 448.2,175.2 449.9,173.6C451.6,171.9 453.0,171.2 453.0,171.8C453.0,172.4 451.2,177.8 449.0,183.6C446.8,189.5 443.9,198.4 442.5,203.4C441.1,208.4 440.0,214.4 440.0,216.8C440.0,220.5 440.4,221.3 443.2,223.0C445.0,224.1 446.9,225.0 447.5,225.0C448.1,225.0 450.0,222.1 451.9,218.5C453.7,214.9 456.9,210.1 459.0,207.8C461.1,205.4 463.1,203.8 463.4,204.1C463.8,204.5 462.2,209.1 460.0,214.3C457.5,220.0 456.0,225.1 456.2,226.7C456.4,228.2 457.2,229.6 458.0,229.8C458.9,229.9 461.0,227.7 463.2,224.2C465.3,221.0 468.3,217.2 469.9,215.6C471.5,214.1 473.3,212.9 473.8,213.1C474.4,213.3 473.3,216.8 471.4,220.9C469.5,224.9 468.0,229.3 468.0,230.6C468.0,232.2 468.6,233.0 469.7,233.0C470.6,233.0 472.6,231.8 474.2,230.3C475.7,228.9 477.2,227.9 477.5,228.2C477.8,228.4 476.4,230.9 474.5,233.6C472.2,236.7 471.0,239.4 471.2,241.0C471.4,242.7 472.2,243.6 473.8,243.8C475.2,244.0 477.5,243.1 479.6,241.5C481.4,240.1 483.0,239.1 483.0,239.4C483.0,239.7 482.1,241.4 481.0,243.3C479.4,246.0 479.2,247.3 479.9,249.1C480.5,250.4 482.5,253.0 484.4,254.8C486.9,257.3 488.3,258.0 489.9,257.5C491.0,257.2 496.9,252.7 503.0,247.6C509.1,242.5 516.6,236.9 519.6,235.0C522.6,233.2 525.3,232.0 525.7,232.3C526.0,232.7 524.8,234.9 522.9,237.3C521.0,239.7 515.0,245.8 509.5,251.0C504.0,256.1 499.1,261.0 498.6,261.8C498.2,262.6 498.2,263.6 498.8,264.2C499.4,264.8 501.1,264.6 503.6,263.5C505.8,262.6 508.5,261.4 509.8,260.9C511.0,260.4 512.0,260.3 512.0,260.6C512.0,260.9 509.0,264.3 505.4,268.1C501.3,272.2 499.0,275.5 499.3,276.3C499.8,277.5 502.4,277.1 514.6,274.0C526.3,271.0 532.2,268.8 543.4,263.2C551.2,259.4 561.1,253.6 565.5,250.3C569.9,247.0 576.9,240.7 581.1,236.4C585.3,232.1 591.4,224.4 594.7,219.5C598.0,214.6 602.4,207.1 604.4,203.0C606.4,198.9 609.6,191.0 611.5,185.5C613.7,178.9 614.5,175.2 613.9,174.5C613.3,173.9 607.2,173.3 600.3,173.1C591.0,172.9 585.9,173.2 580.6,174.5C576.7,175.4 570.1,177.8 566.0,179.7C559.4,182.9 556.7,185.1 543.5,198.5C535.2,206.9 527.2,214.5 525.7,215.5C524.2,216.5 522.7,217.0 522.4,216.8C522.2,216.5 523.9,213.5 526.2,210.1C528.6,206.8 534.9,199.0 540.3,192.8C547.3,184.8 551.3,179.3 554.0,173.5C556.2,169.1 559.1,161.4 560.5,156.5C562.2,150.9 563.4,143.8 563.7,137.7C564.3,128.0 564.3,128.0 559.9,128.0C557.5,128.0 552.7,128.7 549.2,129.5C545.7,130.3 539.6,132.5 535.7,134.4C531.7,136.2 524.9,140.4 520.5,143.7C516.1,147.1 507.6,154.8 501.5,160.9C495.5,167.0 490.2,172.0 489.7,172.0C489.3,172.0 490.4,169.2 492.2,165.8C494.4,161.6 499.2,155.6 506.7,147.9C518.0,136.3 518.0,136.3 518.0,130.4C518.0,127.2 517.3,120.2 516.5,115.0C515.6,109.8 514.1,104.2 513.2,102.5C512.0,100.5 510.5,99.4 508.6,99.2C507.0,99.0 503.1,99.9 499.7,101.1C496.4,102.3 490.5,105.5 486.6,108.0C482.7,110.6 476.4,116.0 472.5,120.1C468.6,124.2 462.6,131.2 459.1,135.7C455.6,140.3 452.4,143.8 452.0,143.5C451.6,143.2 451.6,141.5 452.0,139.6C452.4,137.7 455.0,132.4 457.6,127.9C460.3,123.3 465.0,117.2 468.0,114.2C471.0,111.2 476.3,106.8 479.7,104.4C483.0,101.9 488.8,98.6 492.5,96.9C496.5,95.1 501.7,93.7 505.5,93.3C510.4,92.9 512.5,93.1 514.2,94.2C515.5,95.1 517.8,98.2 519.3,101.3C520.7,104.3 522.6,110.7 523.5,115.5C524.3,120.3 525.0,125.8 525.0,127.6C525.0,130.0 525.5,131.0 526.5,131.0C527.4,131.0 530.2,129.9 532.9,128.6C535.5,127.2 540.4,125.4 543.7,124.6C547.1,123.7 553.4,123.0 557.8,123.0C565.2,123.0 566.0,123.2 567.8,125.5C568.9,126.8 570.0,130.3 570.4,133.4C570.7,136.4 570.6,143.1 570.0,148.4C569.5,153.6 568.1,160.8 566.9,164.5C565.7,168.1 564.9,171.3 565.2,171.5C565.5,171.8 568.8,171.0 572.6,169.8C578.6,167.8 581.6,167.5 596.0,167.5C610.5,167.5 613.0,167.7 616.5,169.5C619.5,171.0 620.6,172.2 620.8,174.3C621.0,175.8 620.1,180.5 618.9,184.8C617.7,189.0 615.1,196.3 613.2,200.9C611.4,205.6 607.8,212.6 605.4,216.6C603.0,220.6 601.0,224.2 601.0,224.6C601.0,224.9 604.1,225.0 607.9,224.6C611.6,224.2 619.5,224.4 625.2,225.0C631.0,225.6 638.4,226.7 641.6,227.6C644.9,228.4 649.5,230.1 652.0,231.3C656.2,233.3 656.5,233.8 656.4,237.2C656.3,239.8 654.7,243.6 651.4,249.1C648.7,253.6 643.6,260.5 640.0,264.3C636.4,268.1 630.0,273.9 625.7,277.2C621.5,280.4 614.1,285.0 609.4,287.2C603.7,290.0 599.0,291.5 595.4,291.8C592.4,292.0 590.0,291.9 590.0,291.4C590.0,290.9 591.5,289.5 593.3,288.3C595.0,287.1 600.8,283.6 606.0,280.5C611.2,277.4 618.6,272.4 622.5,269.5C626.4,266.5 630.9,262.9 632.5,261.3C634.2,259.8 638.2,255.3 641.3,251.3C644.4,247.3 647.9,242.5 649.1,240.6C651.1,237.1 651.1,237.1 649.1,236.1C648.0,235.5 644.1,234.3 640.5,233.5C636.5,232.5 629.0,231.9 622.1,231.9C615.7,231.8 608.2,232.4 605.5,233.1C602.8,233.7 598.2,235.3 595.5,236.5C592.8,237.7 586.9,242.0 582.5,245.9C578.1,249.9 570.9,255.6 566.5,258.5C562.1,261.4 555.4,265.3 551.5,267.0C547.6,268.8 540.2,272.2 534.9,274.5C529.7,276.9 520.1,280.5 513.7,282.5C506.8,284.7 502.0,286.7 502.0,287.5C502.0,288.2 502.9,289.9 504.0,291.3C506.0,293.8 506.2,293.8 516.0,293.3C523.3,292.9 526.0,293.0 526.0,293.9C526.0,294.5 522.5,296.7 518.3,298.8C513.2,301.2 510.4,303.2 510.1,304.4C509.8,306.2 510.3,306.3 516.6,305.7C520.4,305.3 530.0,304.6 537.9,304.0C545.8,303.4 557.5,301.8 563.9,300.5C570.3,299.3 579.8,297.6 585.0,296.9C590.2,296.2 601.7,295.6 610.5,295.6C622.8,295.6 629.2,296.1 638.4,297.8C645.7,299.2 654.8,301.8 662.0,304.6C668.4,307.1 675.9,310.8 678.6,312.9C681.3,314.9 683.6,317.4 683.8,318.4C684.1,319.6 681.6,322.8 676.3,327.9C671.6,332.6 665.3,337.5 660.2,340.4C655.6,343.0 649.0,346.2 645.5,347.5C642.0,348.9 634.9,351.1 629.8,352.5C624.7,354.0 620.2,355.5 619.7,355.9C619.3,356.3 622.6,358.1 626.9,359.9C631.3,361.7 639.7,366.1 645.6,369.6C651.5,373.2 659.3,378.8 662.9,382.2C666.5,385.6 671.2,390.4 673.3,392.9C675.4,395.5 678.4,399.8 680.0,402.6C681.7,405.4 683.0,408.7 683.0,409.8C683.0,411.0 682.0,412.6 680.8,413.4C679.5,414.2 673.3,416.0 667.0,417.3C660.7,418.7 652.6,420.1 649.0,420.4C645.4,420.7 642.1,420.9 641.6,420.9C641.1,421.0 644.5,424.9 649.1,429.8C653.7,434.6 659.2,441.1 661.3,444.3C663.4,447.4 666.0,452.1 667.1,454.5C668.3,457.1 669.0,460.6 668.8,462.7C668.5,466.2 668.3,466.4 663.6,467.6C660.9,468.3 654.2,468.9 648.6,469.0C643.0,469.1 635.1,468.8 630.8,468.4C623.2,467.7 623.2,467.7 626.2,476.1C627.8,480.7 629.2,486.2 629.3,488.2C629.4,490.3 628.9,492.5 628.3,493.1C627.6,493.8 624.9,494.6 622.3,495.1C619.4,495.5 612.7,495.3 605.5,494.4C598.9,493.6 591.8,492.6 589.7,492.1C587.7,491.6 585.8,491.5 585.6,491.9C585.4,492.2 585.2,495.2 585.3,498.6C585.4,502.8 584.9,505.4 583.8,507.2C582.8,508.7 580.4,510.4 578.4,511.0C576.0,511.8 572.1,512.0 567.6,511.7C563.7,511.3 555.7,509.7 549.9,508.1C544.0,506.4 537.1,503.9 534.5,502.6C531.9,501.2 529.4,500.3 528.9,500.6C528.4,500.9 528.0,506.3 528.0,512.6C528.0,518.9 527.3,527.5 526.5,531.8C525.6,536.0 523.4,542.7 521.5,546.7C519.0,551.6 516.3,555.4 512.4,558.9C509.3,561.7 505.7,564.3 504.2,564.7C502.8,565.0 499.1,564.8 496.0,564.2C493.0,563.5 485.8,560.7 480.0,557.9C474.3,555.2 467.3,551.0 464.5,548.7C461.8,546.5 457.3,542.0 454.7,538.8C452.0,535.6 449.5,533.0 449.1,533.0C448.6,533.0 446.3,537.2 443.8,542.2C441.3,547.3 436.6,555.1 433.3,559.6C430.0,564.0 426.0,568.6 424.5,569.8C423.0,571.0 420.9,572.0 420.0,572.0C419.0,572.0 416.4,571.3 414.2,570.6C411.9,569.8 409.9,569.4 409.7,569.8C409.4,570.2 409.6,579.0 410.1,589.5C410.5,600.0 411.4,624.5 411.9,644.0C412.5,663.5 413.0,693.6 413.1,710.8C413.3,735.9 413.1,742.3 412.0,743.0C411.3,743.4 407.1,743.6 402.6,743.3C398.1,743.0 394.3,742.5 394.0,742.3C393.7,742.0 393.2,719.5 392.8,692.2C392.4,664.9 391.6,629.0 391.0,612.5C390.4,596.0 389.5,577.3 388.9,571.0C388.4,564.7 387.5,557.7 386.9,555.5C386.3,553.3 383.7,547.3 381.2,542.2C378.6,537.2 376.1,533.0 375.5,533.0C375.0,533.0 372.1,536.9 369.1,541.6C366.1,546.4 359.7,554.4 354.8,559.5C345.9,568.8 345.9,568.8 347.4,600.7C348.3,618.2 349.7,644.1 350.5,658.3C351.3,672.5 352.9,690.9 354.0,699.3C355.1,707.7 356.6,720.8 357.5,728.4C358.3,736.1 358.9,742.4 358.8,742.5C358.6,742.6 355.1,742.9 351.0,743.2zM450.8,742.7C450.1,743.3 448.9,743.5 448.2,743.3C447.6,743.0 447.0,741.6 447.0,740.2C447.0,738.7 448.8,733.0 450.9,727.4C453.1,721.9 458.9,709.4 463.8,699.8C468.7,690.2 476.0,677.8 479.9,672.3C483.9,666.8 490.7,658.7 495.0,654.4C503.0,646.5 503.0,646.5 503.0,639.0C503.0,634.8 503.6,629.1 504.3,626.3C505.1,623.4 507.4,618.6 509.6,615.4C511.7,612.3 516.2,607.2 519.6,604.1C523.4,600.5 528.8,596.8 534.1,594.3C538.7,592.0 545.4,589.5 549.0,588.6C552.6,587.8 559.5,586.6 564.3,586.1C569.9,585.4 576.9,585.4 583.6,586.0C589.4,586.5 595.8,587.2 597.8,587.6C599.8,587.9 606.0,589.0 611.5,590.0C617.0,591.1 624.5,592.8 628.1,594.0C631.8,595.1 637.4,597.2 640.6,598.6C643.8,600.0 649.4,603.0 653.1,605.1C657.2,607.5 663.3,612.8 668.7,618.3C673.6,623.4 679.2,630.2 681.2,633.5C683.1,636.8 686.4,643.6 688.3,648.5C690.3,653.5 692.6,661.6 693.5,666.5C694.3,671.5 695.1,678.9 695.2,683.0C695.5,689.9 695.3,690.5 693.4,690.8C692.3,691.0 687.3,689.9 682.4,688.5C677.5,687.1 669.0,685.1 663.5,684.0C658.0,683.0 648.3,681.2 642.0,680.0C635.7,678.9 623.3,676.3 614.5,674.4C605.7,672.4 591.5,669.1 583.0,666.9C574.5,664.8 562.5,661.6 556.5,659.9C548.5,657.7 542.4,656.7 533.8,656.3C523.1,655.8 521.9,655.9 518.7,657.9C516.8,659.1 512.5,663.0 509.1,666.5C505.8,670.1 501.3,675.6 499.2,678.7C497.0,681.9 493.3,687.9 490.8,692.0C488.3,696.1 484.4,702.9 482.2,707.1C479.9,711.3 477.4,716.5 476.6,718.6C475.8,720.8 473.3,727.0 471.0,732.5C468.7,738.0 466.3,742.8 465.7,743.2C465.0,743.6 463.0,744.0 461.1,744.0C458.0,744.0 457.8,743.8 458.5,741.2C458.8,739.7 460.6,735.1 462.5,731.0C464.3,726.9 468.5,717.9 471.8,711.0C475.2,704.1 480.4,694.3 483.5,689.2C486.5,684.1 490.9,677.3 493.2,674.2C495.5,671.1 499.0,666.7 500.9,664.5C502.8,662.3 507.4,658.0 511.1,654.9C516.0,650.7 519.2,648.9 523.0,648.0C526.3,647.2 530.7,647.0 535.1,647.4C538.9,647.8 547.6,649.5 554.3,651.1C561.0,652.7 574.8,656.3 585.0,659.0C595.2,661.8 609.8,665.4 617.5,667.1C625.2,668.7 639.6,671.5 649.4,673.1C659.5,674.8 672.1,677.6 678.3,679.6C684.3,681.6 689.3,683.0 689.5,682.8C689.7,682.6 689.0,677.6 687.9,671.7C686.9,665.7 685.4,658.4 684.5,655.5C683.7,652.6 681.0,646.1 678.5,641.2C675.2,634.6 671.9,629.9 666.5,624.1C662.3,619.8 655.9,614.1 652.2,611.6C648.5,609.1 640.9,605.2 635.3,603.0C628.5,600.3 622.4,598.6 617.0,598.0C611.0,597.3 607.9,597.4 604.5,598.4C602.0,599.2 598.1,601.0 595.8,602.4C593.4,603.8 589.9,606.3 588.0,608.1C585.4,610.3 585.0,611.0 586.5,610.7C587.6,610.4 592.1,609.3 596.4,608.1C600.8,607.0 606.0,606.0 607.9,606.1C609.9,606.1 612.4,606.5 613.4,606.9C614.9,607.5 614.3,608.1 609.9,609.9C606.9,611.2 602.5,613.7 600.0,615.4C595.5,618.5 595.5,618.5 581.5,618.2C573.8,618.0 567.1,617.5 566.7,617.1C566.2,616.6 568.2,613.8 571.0,610.7C573.7,607.7 579.4,602.6 583.5,599.5C587.6,596.3 591.0,593.4 591.0,592.9C591.0,592.5 588.6,591.9 585.8,591.5C582.9,591.1 576.5,591.4 571.6,592.0C566.7,592.6 561.1,593.9 559.0,595.0C557.0,596.0 552.9,599.5 550.0,602.7C547.1,605.8 543.1,611.8 541.1,615.9C537.5,623.4 537.5,623.4 528.3,628.1C523.2,630.6 518.9,632.6 518.7,632.3C518.4,632.1 518.6,630.0 519.1,627.7C519.6,625.4 521.4,620.7 523.1,617.2C524.8,613.7 525.9,610.6 525.6,610.3C525.3,610.0 523.4,611.0 521.5,612.5C519.5,614.0 516.6,617.0 515.0,619.2C513.4,621.3 511.7,625.4 511.1,628.1C510.5,630.8 510.0,634.6 510.0,636.5C510.0,638.4 510.4,640.1 510.9,640.4C511.4,640.8 516.9,638.3 523.2,635.1C529.4,631.8 537.6,627.9 541.3,626.5C545.7,624.9 551.5,623.7 557.8,623.2C563.1,622.7 572.0,622.7 577.4,623.1C582.8,623.5 590.7,624.6 594.9,625.5C599.1,626.5 609.0,629.8 617.0,633.1C625.0,636.3 634.9,640.4 639.0,642.2C643.1,644.1 649.3,647.0 652.6,648.7C656.0,650.5 662.3,654.6 666.6,657.8C671.0,661.1 675.6,665.2 676.8,667.0C678.1,668.7 678.9,670.4 678.6,670.7C678.3,671.0 674.4,669.1 669.8,666.5C665.2,663.8 658.4,659.6 654.5,657.0C650.6,654.4 644.2,650.6 640.1,648.6C633.0,645.0 632.8,644.9 633.3,647.2C633.6,648.5 634.2,651.3 634.6,653.5C635.2,657.5 635.2,657.5 628.0,649.8C624.1,645.5 620.5,642.0 620.0,642.0C619.5,642.0 618.7,643.2 618.2,644.8C617.3,647.5 617.3,647.5 614.4,642.8C612.8,640.2 609.9,637.2 608.0,636.2C606.1,635.1 600.8,633.2 596.3,632.1C591.8,630.9 587.9,630.0 587.5,630.0C587.1,630.0 587.0,631.5 587.3,633.2C587.6,635.0 588.3,638.2 588.8,640.2C589.3,642.3 589.4,644.0 589.0,644.0C588.6,644.0 586.3,641.8 583.9,639.1C581.5,636.5 578.5,633.1 577.3,631.6C575.2,629.1 574.7,629.0 565.3,629.0C559.9,629.0 552.7,629.7 549.3,630.5C545.9,631.3 537.9,634.0 531.5,636.6C525.0,639.2 515.9,643.9 511.1,647.0C505.3,650.8 499.9,655.5 494.9,661.2C490.7,665.8 486.0,671.6 484.3,674.1C482.6,676.5 479.2,682.1 476.6,686.4C474.0,690.8 469.1,700.2 465.6,707.4C462.1,714.6 457.6,724.9 455.6,730.2C453.6,735.5 452.0,740.3 452.0,740.8C452.0,741.3 451.4,742.2 450.8,742.7zM403.3,722.7C404.0,722.5 404.8,720.6 405.3,718.4C405.7,716.3 406.0,697.0 406.0,675.5C406.0,654.0 405.6,631.8 405.0,626.0C404.5,620.3 403.5,614.0 402.9,612.2C402.1,609.6 401.3,609.0 399.7,609.2C397.5,609.5 397.5,609.5 397.7,642.8C397.8,661.2 398.3,685.0 399.0,695.8C399.6,706.6 400.5,717.2 401.1,719.3C401.7,721.5 402.6,723.0 403.3,722.7zM337.7,700.9C338.3,701.0 338.6,700.2 338.3,699.2C338.1,698.2 336.2,695.4 334.2,692.8C332.2,690.2 327.3,685.4 323.3,682.1C319.3,678.7 315.9,676.0 315.6,676.0C315.3,676.0 315.3,676.6 315.6,677.3C315.9,678.1 315.4,679.3 314.5,680.0C313.7,680.7 313.0,682.0 313.0,683.0C313.0,684.0 314.9,685.8 317.8,687.3C320.4,688.7 325.6,692.4 329.5,695.4C333.4,698.4 337.0,700.9 337.7,700.9zM190.7,697.6C191.6,697.2 196.9,696.5 202.4,696.0C208.9,695.4 217.0,695.4 225.0,696.0C231.9,696.5 245.0,697.0 254.1,697.0C263.3,697.0 273.2,696.5 276.1,696.0C279.1,695.4 284.2,693.6 287.5,692.0C290.8,690.4 297.4,686.0 302.2,682.3C307.0,678.5 310.9,675.0 311.0,674.5C311.0,674.0 309.5,672.5 307.7,671.4C306.0,670.2 301.6,668.3 298.0,667.2C294.4,666.0 287.7,664.1 283.0,663.0C278.4,661.8 270.7,660.6 265.9,660.3C258.8,659.8 256.1,660.1 249.9,662.0C245.8,663.3 240.4,665.3 237.9,666.6C235.3,667.9 228.0,672.1 221.6,675.9C215.2,679.8 208.7,683.8 207.2,684.9C205.7,686.0 203.4,687.1 202.1,687.5C199.8,688.2 199.8,688.2 201.6,685.0C202.7,683.3 205.4,680.0 207.8,677.8C210.2,675.6 214.9,672.6 218.3,671.1C221.7,669.5 225.8,667.8 227.3,667.1C228.8,666.5 229.8,665.5 229.5,665.0C229.2,664.4 227.0,664.0 224.7,664.0C222.4,664.0 219.9,663.6 219.2,663.1C218.1,662.5 218.4,661.8 220.4,660.2C221.9,659.1 225.2,657.9 227.8,657.6C230.4,657.3 235.9,657.0 240.0,656.9C244.1,656.9 249.6,657.2 252.2,657.5C254.9,657.9 257.0,657.9 257.0,657.5C257.0,657.1 256.1,655.2 255.0,653.4C253.8,651.6 250.7,648.7 248.0,647.1C244.7,645.1 243.2,643.6 243.6,642.6C244.0,641.5 243.3,641.3 239.8,641.6C237.4,641.9 233.6,642.6 231.2,643.2C228.8,643.8 224.3,646.0 221.2,648.0C218.1,650.0 212.6,654.8 209.0,658.6C205.4,662.5 200.6,669.0 198.3,673.1C196.1,677.3 193.0,684.3 191.6,688.9C190.2,693.4 189.0,697.4 189.0,697.7C189.0,698.0 189.8,697.9 190.7,697.6zM344.2,696.2C345.0,695.4 345.3,691.4 345.2,684.3C345.1,678.3 344.3,660.0 343.5,643.5C342.7,627.0 341.8,610.8 341.5,607.5C341.2,604.2 340.2,596.0 339.3,589.2C337.7,577.6 337.5,577.0 335.3,577.0C334.0,577.0 332.6,577.8 332.3,578.7C331.9,579.6 332.2,590.5 332.8,602.9C333.5,615.4 334.7,634.3 335.4,645.0C336.2,655.7 337.4,668.8 338.0,674.0C338.6,679.2 339.6,685.4 340.1,687.6C340.5,689.9 341.4,693.0 342.0,694.5C342.8,696.7 343.4,697.0 344.2,696.2zM257.4,687.0C256.1,687.0 255.9,686.4 256.5,684.3C256.8,682.8 258.5,679.8 260.1,677.6C261.7,675.4 263.0,672.8 263.0,671.7C263.0,670.0 262.5,669.9 258.8,670.5C256.4,670.9 252.1,672.3 249.2,673.6C246.4,674.8 244.0,675.5 244.0,675.1C244.0,674.7 245.2,673.2 246.8,671.7C248.3,670.3 251.3,668.4 253.4,667.5C255.9,666.4 261.5,665.6 268.4,665.3C274.5,665.0 280.6,665.2 281.9,665.7C284.3,666.6 284.2,666.8 278.4,671.0C275.2,673.4 269.5,678.0 265.7,681.2C262.0,684.4 258.2,687.0 257.4,687.0zM272.2,654.0C274.1,654.0 274.1,653.9 272.6,651.5C271.7,650.1 270.3,647.8 269.3,646.4C268.4,645.0 266.0,643.0 263.9,641.9C261.4,640.7 258.1,640.0 254.3,640.0C248.5,640.0 248.5,640.0 253.5,642.4C256.2,643.7 261.1,646.8 264.4,649.4C267.6,651.9 271.1,654.0 272.2,654.0zM636.7,636.9C635.5,636.9 632.1,636.0 629.2,634.9C626.4,633.8 624.0,632.2 624.0,631.5C624.0,630.7 625.4,629.3 627.2,628.4C629.7,627.1 632.4,626.8 640.4,627.2C648.1,627.6 651.6,628.2 655.2,630.0C657.9,631.2 660.0,632.6 660.0,633.0C660.0,633.5 657.4,634.1 654.2,634.5C651.1,634.8 646.3,635.5 643.7,636.1C641.1,636.6 637.9,637.0 636.7,636.9zM329.2,628.0C329.7,628.0 330.0,627.1 330.0,626.0C330.0,624.8 329.3,622.5 328.4,620.7C327.5,618.9 324.8,615.2 322.3,612.3C319.9,609.4 313.3,603.1 307.7,598.2C302.0,593.4 292.9,586.2 287.5,582.3C282.0,578.5 274.6,573.7 271.0,571.7C267.4,569.8 260.4,566.6 255.5,564.7C250.6,562.8 244.5,560.6 242.0,559.7C238.8,558.6 231.9,558.0 218.5,557.6C205.8,557.2 197.9,556.5 194.5,555.5C191.8,554.7 188.9,553.6 188.2,553.1C187.1,552.5 187.3,551.6 188.9,548.9C190.1,547.0 191.0,544.2 191.0,542.7C191.0,541.1 190.3,539.7 189.4,539.3C188.5,539.0 185.3,539.5 182.2,540.5C179.1,541.4 174.0,542.5 170.8,542.8C167.0,543.1 165.0,542.9 165.0,542.2C165.0,541.6 166.5,540.0 168.2,538.7C170.0,537.4 173.9,535.0 176.8,533.5C179.6,531.9 182.0,530.4 182.0,530.0C182.0,529.6 181.0,529.0 179.8,528.6C178.5,528.3 172.5,528.0 166.4,528.0C160.3,528.0 153.8,527.7 152.1,527.4C150.3,527.0 149.1,526.2 149.3,525.6C149.5,525.0 152.5,522.9 156.0,521.0C159.5,519.1 162.5,517.0 162.7,516.3C162.9,515.7 162.1,514.6 161.0,514.0C159.3,513.1 155.7,513.2 144.9,514.6C134.9,515.9 130.7,516.1 129.9,515.3C129.1,514.5 130.6,513.0 135.1,509.9C141.4,505.6 141.4,505.6 138.4,504.4C136.8,503.7 130.7,502.0 125.0,500.6C119.2,499.2 110.2,497.0 105.0,495.7C99.8,494.5 95.6,493.1 95.7,492.5C95.9,491.9 100.2,491.4 105.5,491.2C112.5,491.0 117.3,491.5 123.7,493.0C128.5,494.1 136.9,496.9 142.5,499.1C148.0,501.3 157.4,505.9 163.5,509.2C169.6,512.6 177.6,517.5 181.5,520.2C186.0,523.4 188.6,524.7 188.9,523.9C189.1,523.2 186.6,520.1 183.3,517.1C179.5,513.5 172.4,508.8 163.6,504.0C156.0,499.9 149.6,495.8 149.3,495.0C149.0,494.2 147.4,490.5 145.7,486.8C144.1,483.1 143.0,479.2 143.3,478.1C143.7,476.5 143.1,476.0 140.2,475.3C138.2,474.8 133.0,474.8 128.6,475.2C124.1,475.5 117.1,476.9 113.0,478.3C108.9,479.6 100.2,483.1 93.7,486.1C85.2,490.0 82.0,492.0 82.0,493.2C82.0,494.2 82.4,495.0 83.0,495.0C83.5,495.0 85.6,496.5 87.6,498.2C89.6,500.0 95.7,506.6 101.0,513.0C106.4,519.3 113.2,526.8 116.1,529.6C119.1,532.4 124.9,537.3 129.0,540.4C133.1,543.5 141.9,548.7 148.5,552.0C155.1,555.2 163.8,558.8 167.8,560.0C171.8,561.1 180.8,563.4 187.8,565.1C195.6,566.9 204.7,568.3 211.5,568.7C220.3,569.1 223.8,568.9 229.0,567.5C232.6,566.5 236.9,565.5 238.7,565.3C240.8,565.0 244.6,565.9 250.2,568.1C254.7,569.9 261.2,573.0 264.5,574.9C267.8,576.8 275.0,581.5 280.5,585.3C286.0,589.2 294.1,595.4 298.5,599.1C302.9,602.8 311.4,610.9 317.5,616.9C323.5,623.0 328.8,628.0 329.2,628.0zM552.2,617.0C551.6,617.0 551.0,616.6 551.0,616.2C551.0,615.8 553.2,613.3 555.8,610.7C558.4,608.1 560.9,606.0 561.3,606.0C561.8,606.0 560.6,608.1 558.9,610.8C557.1,613.4 555.2,615.8 554.6,616.2C554.0,616.6 552.9,617.0 552.2,617.0zM328.0,608.1C328.3,606.9 328.0,598.7 327.4,590.0C326.4,574.1 326.4,574.1 321.5,569.8C318.8,567.4 315.0,562.9 312.9,559.8C310.9,556.6 308.0,550.7 306.6,546.8C305.1,542.8 303.4,535.5 302.7,530.6C302.0,525.7 301.0,521.5 300.4,521.3C299.9,521.1 296.5,522.8 293.0,525.0C289.4,527.2 282.0,531.3 276.6,534.0C269.9,537.4 265.4,539.0 262.9,539.0C260.8,539.0 257.9,539.5 256.5,540.2C255.1,540.8 254.0,541.9 254.0,542.6C254.0,543.3 256.0,547.9 258.4,552.7C262.8,561.6 262.8,561.6 273.3,567.8C279.1,571.2 287.8,576.9 292.6,580.3C297.4,583.7 307.2,591.9 314.4,598.4C326.1,609.1 327.5,610.1 328.0,608.1zM331.2,566.0C332.2,566.0 334.5,565.3 336.3,564.4C338.1,563.5 343.5,558.8 348.3,554.1C354.7,548.0 358.7,542.9 362.6,536.3C365.6,531.3 368.7,525.2 369.5,522.9C371.0,518.8 370.9,518.1 367.5,505.6C365.6,498.4 363.5,490.6 363.0,488.2C362.4,485.9 361.6,484.0 361.1,484.0C360.7,484.0 359.5,485.7 358.5,487.8C356.6,491.5 356.6,491.5 356.2,488.6C356.0,487.0 356.3,482.9 356.9,479.5C357.5,476.1 358.0,471.9 358.0,470.2C358.0,468.4 357.7,467.0 357.2,467.0C356.8,467.0 355.8,467.6 354.9,468.3C354.1,469.0 351.6,472.2 349.6,475.5C347.5,478.8 343.6,483.8 341.1,486.5C338.5,489.2 334.7,494.5 332.7,498.1C330.6,501.8 327.8,507.7 326.4,511.1C325.0,514.6 323.1,519.1 322.2,521.0C320.6,524.4 320.6,524.4 319.9,522.0C319.5,520.6 319.2,516.1 319.1,512.1C319.0,504.6 319.0,504.6 315.5,508.0C313.5,509.9 311.5,513.2 310.9,515.5C310.2,517.9 310.0,523.0 310.4,528.0C310.7,533.0 312.0,539.5 313.4,543.8C314.8,547.9 316.9,552.7 318.0,554.6C319.2,556.4 322.2,559.8 324.7,562.0C327.2,564.2 330.1,566.0 331.2,566.0zM418.7,563.0C420.2,563.0 422.6,560.9 426.5,555.8C429.7,551.8 434.4,543.9 437.2,538.3C439.9,532.6 443.2,523.7 444.6,518.4C445.9,513.1 447.0,507.3 447.0,505.5C447.0,503.7 447.3,500.2 447.6,497.6C448.0,495.1 448.7,493.0 449.2,493.0C449.7,493.0 451.5,496.0 453.1,499.8C454.8,503.5 457.7,509.5 459.6,513.1C461.5,516.8 463.0,520.3 463.0,521.0C463.0,521.7 461.6,521.2 459.8,519.8C458.0,518.4 455.5,516.8 454.2,516.1C452.3,515.1 452.0,515.2 452.0,516.7C452.0,517.7 453.7,521.4 455.8,524.9C458.3,529.2 462.4,533.9 468.2,539.0C473.0,543.2 480.0,548.4 483.9,550.4C487.7,552.4 492.7,554.7 494.9,555.5C497.9,556.5 499.1,556.6 499.8,555.7C500.4,555.0 502.7,548.6 505.1,541.5C508.9,529.7 509.4,527.3 509.8,515.9C510.2,505.6 509.9,501.3 508.1,492.3C506.8,486.2 504.8,477.9 503.5,473.9C502.2,469.8 501.4,466.3 501.6,466.1C501.8,465.9 505.7,469.3 510.2,473.6C514.8,478.0 521.0,483.4 524.0,485.7C527.0,488.0 533.1,491.7 537.5,493.8C541.9,496.0 549.1,498.9 553.5,500.3C557.9,501.7 564.8,503.3 568.8,503.9C572.8,504.5 576.6,504.8 577.2,504.4C577.8,504.0 577.9,502.0 577.5,499.1C577.2,496.6 576.1,491.6 575.3,488.0C574.4,484.4 572.1,477.9 570.2,473.5C568.3,469.1 565.9,464.3 564.8,462.7C563.7,461.2 562.5,458.6 562.0,457.0C561.5,455.3 561.5,454.0 561.9,454.0C562.3,454.0 564.4,455.9 566.7,458.2C569.0,460.6 573.3,466.6 576.3,471.5C580.9,479.1 582.3,480.7 585.4,481.7C587.4,482.4 593.7,483.9 599.3,485.1C604.9,486.2 612.5,487.4 616.2,487.7C621.6,488.2 623.0,488.0 623.0,486.9C623.0,486.1 621.0,480.7 618.6,474.9C616.2,469.0 612.1,460.9 609.5,456.9C606.9,452.8 601.2,445.4 596.9,440.5C592.6,435.6 585.8,428.5 581.8,424.9C577.8,421.3 572.0,416.8 568.9,414.8C565.9,412.8 562.4,410.9 561.2,410.6C559.4,410.0 559.1,410.2 559.7,411.7C560.1,412.7 561.4,414.9 562.7,416.6C564.0,418.3 565.0,420.0 565.0,420.4C565.0,420.7 562.9,419.9 560.2,418.5C557.6,417.1 552.5,413.6 548.8,410.7C545.2,407.9 535.7,401.9 527.8,397.6C520.0,393.2 509.2,386.8 503.8,383.3C498.5,379.8 491.8,375.9 488.8,374.6C485.9,373.2 482.1,371.8 480.5,371.4C477.9,370.8 478.5,371.8 486.4,379.9C491.3,384.9 495.0,389.3 494.7,389.6C494.4,389.9 493.1,389.6 491.8,388.9C490.6,388.3 485.1,384.9 479.8,381.3C474.5,377.8 468.5,374.3 466.4,373.4C464.1,372.4 462.4,372.2 461.8,372.8C461.2,373.4 462.5,375.9 465.6,379.6C469.4,384.3 470.0,385.6 468.7,385.8C467.7,386.0 464.8,384.9 462.2,383.4C459.6,381.9 455.8,379.8 453.8,378.6C451.8,377.5 449.8,376.9 449.4,377.3C449.0,377.7 449.4,379.7 450.4,381.8C451.4,383.8 454.4,388.9 457.2,393.0C460.0,397.1 466.2,404.6 470.9,409.5C475.7,414.4 482.4,421.6 485.7,425.5C489.0,429.4 493.7,435.0 496.1,438.0C498.6,441.0 503.2,447.3 506.4,451.8C509.5,456.4 511.9,460.4 511.7,460.7C511.4,461.0 509.1,459.8 506.6,458.1C504.1,456.4 498.1,450.4 493.3,444.8C488.5,439.3 482.8,432.6 480.7,430.1C478.6,427.6 467.5,416.1 456.2,404.7C444.8,393.2 435.4,384.3 435.2,384.9C435.0,385.6 435.5,387.9 436.4,390.1C437.3,392.2 438.0,394.5 438.0,395.0C438.0,395.6 437.4,396.0 436.7,396.0C435.9,396.0 432.7,393.8 429.6,391.0C426.1,387.9 422.9,386.0 421.4,386.0C420.1,386.0 419.0,386.3 419.0,386.6C419.0,386.9 420.4,389.2 422.1,391.6C423.8,394.1 427.1,400.3 429.5,405.3C431.9,410.4 434.7,417.2 435.8,420.5C436.9,423.8 438.2,428.3 438.5,430.5C439.3,434.5 439.3,434.5 436.7,432.1C435.3,430.8 431.8,425.1 428.9,419.3C426.0,413.6 423.2,408.6 422.8,408.4C422.4,408.1 422.0,410.9 422.0,414.6C422.0,421.2 422.0,421.3 420.0,419.5C419.0,418.6 417.2,415.0 416.1,411.6C415.1,408.3 413.2,402.3 412.1,398.4C411.0,394.4 409.2,390.2 408.1,388.9C406.2,386.6 406.2,386.6 405.7,389.5C405.4,391.2 404.8,394.4 404.5,396.8C404.1,399.4 403.3,401.0 402.7,400.7C402.0,400.5 400.6,398.1 399.5,395.4C398.4,392.7 397.1,389.9 396.7,389.2C396.1,388.3 395.5,388.2 394.6,389.0C393.8,389.5 393.0,393.6 392.6,398.2C392.2,402.8 391.5,406.9 391.0,407.4C390.5,407.9 389.5,406.9 388.6,405.1C387.7,403.4 386.4,398.3 385.8,393.9C384.6,385.7 384.6,385.7 382.5,388.2C381.3,389.6 377.6,397.7 374.2,406.3C370.8,414.8 367.3,424.7 366.5,428.2C365.6,432.2 365.0,439.6 365.0,448.5C365.0,456.2 365.7,467.4 366.6,473.5C367.5,479.5 369.7,490.5 371.6,497.8C373.4,505.1 376.8,515.3 379.0,520.3C381.3,525.4 386.1,534.0 389.8,539.5C394.1,545.9 398.5,551.1 402.2,554.0C405.3,556.5 409.8,559.5 412.2,560.7C414.5,562.0 417.5,563.0 418.7,563.0zM510.9,551.0C512.0,550.5 513.7,548.6 514.8,546.8C515.9,545.0 517.5,541.0 518.3,538.0C519.2,535.0 520.2,530.2 520.5,527.3C520.9,524.4 520.9,520.7 520.5,519.0C520.1,517.4 519.4,516.0 518.9,516.0C518.4,516.0 518.0,516.8 518.0,517.9C518.0,518.9 516.0,525.5 513.5,532.4C511.0,539.4 509.0,546.7 509.0,548.6C509.0,551.7 509.2,552.0 510.9,551.0zM206.3,548.0C210.8,547.9 218.1,547.3 222.5,546.5C228.2,545.5 233.4,543.7 240.6,540.0C246.2,537.2 251.5,534.3 252.6,533.6C254.3,532.3 254.3,532.0 251.3,526.4C249.6,523.1 247.5,517.0 246.6,512.8C245.7,508.6 245.0,503.1 245.0,500.7C245.0,498.3 244.7,496.0 244.3,495.7C244.0,495.3 241.1,497.5 237.9,500.5C234.7,503.5 231.7,506.0 231.1,506.0C230.5,506.0 230.5,504.9 231.0,503.0C231.5,501.4 234.1,495.8 236.9,490.6C239.7,485.5 242.0,480.5 242.0,479.5C242.0,478.0 241.5,478.2 238.2,480.5C236.2,482.0 230.5,487.3 225.7,492.3C216.8,501.5 216.8,501.5 217.4,497.5C217.7,495.3 219.5,490.5 221.4,486.8C223.3,483.1 224.5,479.8 224.0,479.5C223.5,479.2 221.5,479.6 219.5,480.4C217.6,481.2 213.6,484.3 210.7,487.2C207.8,490.2 204.1,495.4 202.3,499.1C200.5,502.7 198.3,508.5 197.4,512.0C196.2,516.9 195.9,521.7 196.2,531.9C196.4,539.4 196.9,546.1 197.3,546.8C197.9,547.6 200.8,548.0 206.3,548.0zM264.2,530.0C265.9,530.0 271.2,527.9 276.1,525.3C280.9,522.8 288.9,517.7 293.7,514.1C298.5,510.5 305.7,504.4 309.5,500.5C313.4,496.7 320.3,489.0 325.0,483.5C329.6,478.0 336.2,469.2 339.6,464.0C343.0,458.8 348.4,449.6 351.7,443.5C354.9,437.4 359.0,429.3 360.7,425.3C362.5,421.4 365.1,413.7 366.4,408.3C367.8,402.9 370.1,395.2 371.5,391.1C372.9,387.0 374.0,383.2 374.0,382.8C374.0,382.3 372.8,382.0 371.3,382.2C369.4,382.4 367.4,384.0 364.8,387.5C362.7,390.2 360.5,392.7 359.9,392.9C359.0,393.2 358.9,391.8 359.4,388.0C359.9,384.2 359.8,383.0 358.9,383.5C358.3,383.9 355.4,387.9 352.6,392.4C349.7,396.8 346.5,401.2 345.5,402.0C343.8,403.4 343.7,403.3 344.3,398.5C344.7,395.8 345.3,392.2 345.7,390.6C346.3,387.7 346.3,387.7 341.5,391.4C338.8,393.4 336.5,394.8 336.2,394.6C336.0,394.3 336.7,392.2 337.9,389.8C339.0,387.4 341.9,383.2 344.3,380.5C346.7,377.8 349.2,374.5 349.9,373.2C350.9,371.4 350.8,371.0 349.5,371.0C348.6,371.0 346.0,372.0 343.7,373.1C341.2,374.4 332.4,382.5 322.0,393.0C312.4,402.8 303.5,411.1 302.2,411.5C300.9,411.9 299.6,411.9 299.3,411.6C299.0,411.3 300.3,409.2 302.1,406.8C304.0,404.4 311.3,396.1 318.5,388.2C325.6,380.3 331.9,373.2 332.3,372.4C332.8,371.5 333.0,370.6 332.7,370.4C332.4,370.1 330.5,370.8 328.3,371.9C326.2,373.0 322.5,375.3 320.0,376.9C317.5,378.6 314.7,380.0 313.7,380.0C312.2,380.0 312.1,379.7 313.1,377.8C313.7,376.5 315.8,373.8 317.8,371.8C319.8,369.7 321.1,367.7 320.7,367.3C320.3,366.9 318.3,367.2 316.2,367.9C314.2,368.7 308.9,371.4 304.5,374.0C300.1,376.6 295.7,379.0 294.7,379.3C293.1,379.9 293.1,379.7 294.4,377.2C295.2,375.6 297.9,372.5 300.4,370.2C302.9,367.9 307.8,364.1 311.3,361.9C314.7,359.7 317.5,357.3 317.5,356.7C317.5,356.0 316.0,355.5 313.8,355.6C311.6,355.7 306.3,357.5 301.3,360.0C296.5,362.3 288.3,366.2 283.2,368.6C276.6,371.7 274.0,372.5 274.0,371.5C274.0,370.7 278.6,366.0 284.2,360.9C289.9,355.9 295.7,351.3 297.2,350.8C298.8,350.2 300.0,349.5 300.0,349.1C300.0,348.7 298.9,347.3 297.5,346.0C295.3,343.9 294.6,343.8 291.8,344.7C290.0,345.3 282.7,348.4 275.7,351.5C267.6,355.1 261.3,357.2 258.7,357.3C256.4,357.4 254.3,357.1 254.1,356.5C253.9,356.0 258.7,353.0 264.6,350.0C270.6,347.0 276.6,343.7 278.0,342.7C280.4,341.0 280.4,341.0 277.0,341.0C275.1,341.0 269.2,341.7 264.0,342.6C256.4,343.8 250.4,344.0 234.0,343.5C220.9,343.1 211.1,343.2 206.9,343.9C203.2,344.5 196.2,346.1 191.4,347.5C186.5,348.9 177.1,352.7 170.5,355.9C163.9,359.2 154.9,364.5 150.5,367.8C146.1,371.0 139.6,376.8 136.0,380.6C132.4,384.4 127.3,390.9 124.6,395.0C121.9,399.1 119.2,403.7 118.6,405.2C117.9,407.0 117.9,408.3 118.5,408.9C119.1,409.5 123.8,410.8 129.0,411.9C134.2,413.0 142.0,414.4 146.3,415.0C150.6,415.5 159.8,416.0 166.8,416.0C173.8,416.0 183.6,415.3 188.5,414.5C193.4,413.7 202.2,411.7 208.0,410.0C213.8,408.3 220.8,406.1 223.5,405.0C226.3,404.0 233.0,401.2 238.5,398.7C244.0,396.3 249.7,394.0 251.2,393.6C252.8,393.3 254.0,393.4 254.0,393.8C254.0,394.3 251.4,396.9 248.2,399.6C245.1,402.4 238.9,407.1 234.5,410.2C230.1,413.3 221.8,420.0 216.0,425.1C210.2,430.1 204.5,435.0 203.2,435.8C202.0,436.6 200.7,437.0 200.4,436.7C200.1,436.4 201.0,434.0 202.4,431.3C203.8,428.7 205.9,425.0 207.1,423.2C209.2,420.0 209.2,420.0 206.8,420.0C205.6,420.0 202.7,420.9 200.5,421.9C198.3,422.9 194.0,425.9 191.0,428.7C187.5,431.9 183.8,436.8 180.8,442.1C178.3,446.7 175.5,453.0 174.7,456.0C173.8,459.0 172.9,464.5 172.5,468.2C172.0,473.5 172.1,475.0 173.2,475.1C173.9,475.2 177.7,475.2 181.5,475.1C185.3,475.0 192.1,474.5 196.5,473.9C200.9,473.3 211.0,470.7 219.0,468.0C227.0,465.4 238.4,461.1 244.5,458.5C250.6,455.9 259.3,451.8 264.0,449.3C268.7,446.8 277.4,441.5 283.5,437.5C289.6,433.5 295.6,429.9 296.9,429.5C299.4,428.8 299.4,428.8 297.3,432.0C296.2,433.7 291.5,439.5 286.9,444.8C282.3,450.1 276.6,456.5 274.2,459.0C269.9,463.5 269.9,463.5 270.2,459.2C270.4,456.9 270.2,455.0 269.9,455.0C269.5,455.0 266.9,456.8 264.2,459.0C260.4,462.0 258.2,464.8 255.3,470.7C251.5,478.4 251.5,478.4 251.6,494.5C251.6,507.8 252.0,511.5 253.7,516.6C254.8,520.0 257.0,524.4 258.5,526.4C260.6,529.1 262.0,530.0 264.2,530.0zM654.7,460.9C658.1,460.9 661.2,460.6 661.5,460.0C661.8,459.5 660.4,455.7 658.4,451.8C655.8,446.9 652.1,442.1 647.0,437.0C641.0,430.9 638.0,428.8 631.7,426.1C627.4,424.3 623.6,423.0 623.3,423.4C623.0,423.7 623.5,424.9 624.5,426.0C625.5,427.1 626.1,428.2 625.9,428.4C625.7,428.7 622.3,427.7 618.5,426.4C614.6,425.0 608.1,422.8 604.0,421.6C599.9,420.3 594.3,418.9 591.6,418.6C586.8,417.8 586.8,417.8 594.5,426.7C598.8,431.5 605.1,439.6 608.6,444.6C612.1,449.6 616.1,454.5 617.5,455.4C618.9,456.3 622.4,457.5 625.3,458.0C628.1,458.6 634.5,459.4 639.5,459.9C644.5,460.3 651.3,460.8 654.7,460.9zM637.5,411.4C648.0,411.1 660.5,410.4 665.5,409.7C672.4,408.8 674.5,408.1 674.8,406.9C675.0,406.0 672.4,401.9 669.2,397.9C665.9,393.8 662.0,389.3 660.4,387.9C658.8,386.5 654.3,383.1 650.5,380.3C646.6,377.5 639.7,373.4 635.0,371.2C630.3,369.0 623.2,365.8 619.1,364.0C615.1,362.3 607.0,359.3 601.1,357.5C595.3,355.6 586.9,353.2 582.5,352.1C578.1,351.0 568.2,349.2 560.5,348.1C552.8,346.9 541.5,345.6 535.5,345.1C529.5,344.5 519.5,343.6 513.3,342.9C507.1,342.3 500.9,342.1 499.5,342.4C497.7,342.9 497.0,343.6 497.2,344.8C497.4,345.7 500.1,347.7 503.3,349.2C506.9,350.9 508.8,352.4 508.4,353.1C508.0,353.9 505.2,354.0 499.9,353.6C494.6,353.1 491.4,353.2 489.9,354.1C487.8,355.2 488.4,355.6 498.1,360.3C506.0,364.2 507.9,365.5 506.2,365.8C504.9,366.0 498.9,365.2 492.9,364.0C486.8,362.8 481.7,362.0 481.4,362.3C481.1,362.6 484.8,364.9 489.7,367.6C494.5,370.2 502.5,374.9 507.5,378.0C512.4,381.1 520.3,385.7 525.0,388.3C529.7,390.8 537.1,394.2 541.5,395.8C545.9,397.4 555.1,400.1 562.0,401.8C568.9,403.5 577.6,405.6 581.5,406.4C585.4,407.2 593.7,408.6 600.0,409.4C606.3,410.3 613.1,411.2 615.0,411.4C616.9,411.6 627.0,411.6 637.5,411.4zM416.0,378.0C416.5,378.0 418.2,376.9 419.9,375.5C421.5,374.1 423.6,371.0 424.5,368.6C425.9,365.0 426.0,363.6 425.0,359.9C424.4,357.5 422.8,353.6 421.4,351.4C420.1,349.1 418.4,347.0 417.6,346.7C416.6,346.3 415.3,347.2 414.0,349.0C412.9,350.6 411.3,353.8 410.4,356.2C409.4,359.1 409.1,362.0 409.5,365.0C409.9,367.5 410.9,370.8 411.7,372.5C412.6,374.1 413.7,376.1 414.2,376.8C414.8,377.4 415.6,378.0 416.0,378.0zM394.4,376.4C395.6,376.1 397.5,374.8 398.6,373.5C399.8,372.2 401.0,369.2 401.4,366.8C401.7,364.5 401.6,361.0 401.1,359.2C400.5,357.3 398.9,353.8 397.5,351.4C395.9,348.6 394.2,347.0 393.0,347.0C391.8,347.0 389.9,348.6 388.3,351.1C386.4,354.0 385.5,356.8 385.2,361.1C384.9,364.6 385.3,368.3 386.0,370.0C386.7,371.7 388.4,374.0 389.8,375.1C391.4,376.3 393.1,376.8 394.4,376.4zM439.2,371.0C441.0,370.6 443.3,369.9 444.2,369.5C445.1,369.2 446.7,367.2 447.6,365.2C448.6,363.2 449.5,359.5 449.5,357.0C449.5,353.6 448.7,351.4 446.5,348.0C444.8,345.5 442.5,343.4 441.3,343.2C439.7,343.0 438.5,344.1 436.1,348.3C434.4,351.3 433.0,355.2 433.0,356.9C433.0,358.7 433.5,362.2 434.1,364.8C434.7,367.4 435.3,370.0 435.5,370.7C435.8,371.5 436.9,371.6 439.2,371.0zM367.0,371.0C370.8,371.0 372.2,370.6 373.0,369.1C373.5,368.0 374.0,364.8 374.0,362.0C374.0,359.2 373.1,354.1 371.9,350.7C370.8,347.3 369.2,343.5 368.4,342.2C367.6,341.0 366.3,340.0 365.6,340.0C364.8,340.0 362.8,342.1 361.2,344.8C359.5,347.4 357.6,351.6 356.9,354.2C355.9,357.9 355.9,359.7 356.9,363.0C357.6,365.2 359.0,368.0 360.1,369.1C361.5,370.5 363.4,371.0 367.0,371.0zM129.3,368.9C133.6,369.0 138.1,368.5 139.3,367.9C140.5,367.2 145.1,364.1 149.5,360.9C153.9,357.8 162.8,352.4 169.2,348.9C175.7,345.5 181.0,342.3 181.0,341.9C181.0,341.5 178.6,340.7 175.8,340.1C172.9,339.5 165.2,338.1 158.6,337.0C152.1,335.9 145.1,335.0 143.1,334.9C141.1,334.9 138.6,334.5 137.5,334.0C135.7,333.3 135.6,333.2 137.2,332.5C138.2,332.1 139.0,331.1 139.0,330.2C139.0,328.9 137.7,328.8 130.0,329.3C125.0,329.7 121.0,329.6 121.0,329.2C121.0,328.8 122.3,327.6 124.0,326.7C125.7,325.7 127.0,324.5 127.0,324.0C127.0,323.6 124.9,322.7 122.2,322.1C119.0,321.3 115.9,321.2 112.4,321.9C109.7,322.4 105.0,323.8 102.0,325.0C99.0,326.2 93.6,329.1 90.0,331.5C86.4,333.9 80.9,338.5 77.9,341.7C74.8,344.9 71.5,349.0 70.6,350.8C68.9,354.0 68.9,354.0 73.7,356.1C76.2,357.2 82.9,359.6 88.4,361.5C94.0,363.3 103.7,365.7 110.0,366.8C116.3,367.9 125.0,368.9 129.3,368.9zM461.3,363.0C462.0,363.0 463.3,362.3 464.2,361.6C465.2,360.9 466.7,358.7 467.5,356.7C468.3,354.7 469.0,351.6 469.0,349.8C469.0,348.1 468.1,344.7 466.9,342.3C465.8,339.9 463.6,337.1 462.2,335.9C459.5,333.8 459.5,333.8 456.8,339.7C455.2,342.9 454.0,346.3 454.0,347.3C454.0,348.2 455.1,350.7 456.4,352.8C457.7,354.8 459.1,358.0 459.5,359.8C459.9,361.5 460.7,363.0 461.3,363.0zM339.9,361.0C342.2,361.0 342.3,360.8 341.6,354.8C341.3,351.3 340.8,344.4 340.4,339.5C340.1,334.6 339.4,329.3 338.8,327.8C338.3,326.3 337.1,324.9 336.2,324.5C335.2,324.1 333.9,324.8 332.8,326.2C331.8,327.5 329.6,331.3 327.9,334.7C325.2,340.0 324.8,341.8 325.2,346.1C325.5,348.9 326.6,352.3 327.7,353.8C328.8,355.3 331.4,357.5 333.6,358.7C335.7,360.0 338.6,361.0 339.9,361.0zM479.7,351.9C480.5,351.2 481.8,349.4 482.6,347.9C483.4,346.3 484.0,344.1 484.0,342.8C484.0,341.5 482.9,338.2 481.6,335.5C480.3,332.7 477.8,329.2 476.1,327.7C474.3,326.2 472.2,325.0 471.5,325.0C470.7,325.0 469.6,325.9 469.0,326.9C468.5,328.0 468.0,329.7 468.0,330.7C468.0,331.7 469.8,335.2 472.0,338.5C474.2,341.8 476.3,346.1 476.6,348.0C477.0,349.9 477.5,351.9 477.7,352.3C478.0,352.7 478.8,352.5 479.7,351.9zM381.3,348.4C382.1,348.1 383.7,346.2 384.8,344.1C386.3,341.4 387.0,338.5 387.0,334.7C387.0,331.7 387.3,327.8 387.6,326.1C388.1,324.0 388.8,323.0 390.1,323.0C391.4,323.0 392.0,322.3 392.0,320.8C392.0,319.5 391.4,316.5 390.6,314.0C389.5,310.2 389.5,308.8 390.7,304.8C391.7,301.3 391.8,299.5 391.0,298.0C390.4,296.9 389.1,296.0 388.1,296.0C387.1,296.0 385.8,296.6 385.2,297.2C384.7,297.9 384.0,301.7 383.8,305.6C383.5,312.2 383.2,313.1 379.8,316.8C377.1,319.8 375.9,322.1 375.4,325.7C375.0,328.3 374.7,332.3 374.7,334.5C374.7,336.8 375.8,340.7 377.3,343.7C379.0,347.1 380.5,348.8 381.3,348.4zM404.9,348.8C405.8,348.6 407.4,346.7 408.4,344.5C409.5,342.3 410.3,338.5 410.3,336.0C410.3,333.5 409.2,328.8 407.9,325.6C406.6,322.3 404.7,319.2 403.8,318.6C402.5,317.8 401.6,318.0 400.1,319.4C399.1,320.4 397.4,324.2 396.5,328.0C395.5,331.9 395.1,336.2 395.5,337.8C395.8,339.4 397.7,342.6 399.7,344.9C401.7,347.3 403.9,349.0 404.9,348.8zM604.0,348.4C607.6,348.1 614.8,347.1 620.0,346.0C625.2,345.0 633.5,342.7 638.5,341.0C643.5,339.2 649.8,336.6 652.5,335.3C655.2,333.9 660.7,330.5 664.6,327.9C668.5,325.2 672.7,321.9 673.9,320.6C675.2,319.2 675.9,317.7 675.6,317.2C675.3,316.7 670.2,314.3 664.4,312.0C658.1,309.6 648.0,306.7 639.6,305.0C631.9,303.5 621.0,301.9 615.4,301.5C609.9,301.2 600.6,301.3 594.9,301.9C589.2,302.5 580.0,303.8 574.5,304.7C569.0,305.6 564.0,306.6 563.5,307.1C563.0,307.5 558.7,308.5 554.0,309.4C549.3,310.2 538.5,311.6 530.0,312.5C521.5,313.3 513.5,314.3 512.3,314.5C511.1,314.8 509.4,315.7 508.6,316.6C507.7,317.4 507.0,318.8 507.0,319.5C507.0,320.4 508.5,321.1 510.8,321.5C512.8,321.8 517.3,322.6 520.8,323.2C524.2,323.7 527.0,324.6 527.0,325.0C527.0,325.4 526.4,326.2 525.7,326.9C525.0,327.5 520.6,328.4 516.1,328.9C511.1,329.4 507.2,330.4 506.3,331.3C504.9,332.6 505.0,332.9 506.6,333.8C507.7,334.3 512.5,335.2 517.5,335.8C522.5,336.4 529.2,337.2 532.5,337.6C535.8,337.9 542.5,338.8 547.5,339.6C552.5,340.4 564.4,342.6 574.0,344.5C583.6,346.4 592.9,348.1 594.5,348.4C596.1,348.6 600.4,348.6 604.0,348.4zM352.7,346.8C353.5,346.2 355.2,343.5 356.6,340.9C358.9,336.2 358.9,336.2 356.9,328.3C355.8,324.0 354.7,320.4 354.5,320.2C354.3,320.0 353.6,320.1 353.0,320.5C352.3,320.9 350.5,323.3 348.9,325.8C347.3,328.3 346.0,331.7 346.0,333.3C346.0,334.9 347.2,338.9 348.6,342.1C350.8,347.0 351.5,347.8 352.7,346.8zM312.1,347.0C312.4,347.0 313.0,341.9 313.3,335.8C313.7,329.6 314.0,321.5 314.0,317.8C314.0,313.4 313.6,311.0 312.9,311.0C312.3,311.0 310.1,312.7 308.0,314.8C305.5,317.3 303.7,320.4 302.6,324.0C301.7,326.9 301.0,330.6 301.0,332.2C301.0,333.8 301.6,336.6 302.4,338.4C303.2,340.3 305.5,343.0 307.6,344.4C309.7,345.8 311.7,347.0 312.1,347.0zM428.2,345.9C428.6,346.0 429.7,344.8 430.8,343.2C431.9,341.7 433.3,338.8 434.0,336.7C434.8,334.2 435.0,330.8 434.5,327.3C434.1,324.2 433.3,320.5 432.7,319.1C432.1,317.7 430.7,315.5 429.6,314.2C428.5,313.0 426.7,312.0 425.4,312.0C423.8,312.0 422.7,313.2 420.9,317.2C419.1,321.2 418.5,324.3 418.5,329.5C418.5,335.0 419.0,337.3 420.7,340.1C422.0,342.1 424.0,344.2 425.2,344.8C426.5,345.4 427.8,345.9 428.2,345.9zM447.9,339.0C449.0,339.0 450.3,337.8 451.0,336.0C451.7,334.3 452.3,330.2 452.3,326.7C452.3,322.3 451.7,319.3 450.2,316.3C449.0,314.1 446.9,311.2 445.4,310.1C443.9,308.9 441.7,308.0 440.5,308.0C439.3,308.0 437.7,308.6 437.1,309.4C436.2,310.5 436.4,312.1 438.1,316.7C439.2,319.9 441.2,325.7 442.5,329.7C443.8,333.6 445.1,337.4 445.5,337.9C445.8,338.5 446.9,339.0 447.9,339.0zM491.6,339.0C492.4,339.0 494.2,336.6 495.5,333.8C496.9,330.9 498.0,327.4 498.0,326.0C497.9,324.6 497.4,322.6 496.7,321.4C496.0,320.3 494.5,318.1 493.4,316.7C492.2,315.2 490.7,314.0 490.1,314.0C489.6,314.0 488.2,314.9 487.2,316.0C486.2,317.1 484.7,319.1 484.0,320.5C482.9,322.6 483.0,323.4 485.8,327.7C487.4,330.3 489.1,334.0 489.5,335.8C489.9,337.6 490.8,339.0 491.6,339.0zM241.0,336.5C253.9,336.4 267.0,335.8 270.0,335.2C273.0,334.6 277.6,333.8 280.2,333.5C283.4,333.1 285.0,332.4 285.0,331.5C285.0,330.7 284.1,329.6 283.1,329.0C282.0,328.5 277.6,327.5 273.3,326.9C269.0,326.3 265.1,325.4 264.7,325.0C264.2,324.6 264.6,323.5 265.5,322.6C266.4,321.7 268.3,321.0 269.8,321.0C271.3,321.0 274.2,320.7 276.2,320.4C278.9,319.9 280.0,319.2 280.0,318.0C280.0,317.0 279.3,315.9 278.4,315.6C277.5,315.3 272.9,315.0 268.2,315.0C260.3,314.9 259.7,314.8 261.4,313.5C262.5,312.7 264.2,312.0 265.2,312.0C266.2,312.0 267.0,311.6 267.0,311.0C267.0,310.5 264.6,309.4 261.8,308.6C258.9,307.8 248.6,305.7 239.0,304.1C229.4,302.5 218.4,300.2 214.7,299.0C211.0,297.8 208.2,296.5 208.5,296.0C208.9,295.4 211.2,295.0 213.8,295.0C216.4,295.0 222.4,295.5 227.0,296.0C231.7,296.6 240.0,297.7 245.5,298.6C251.0,299.4 260.2,301.0 265.8,302.1C271.5,303.1 276.6,303.7 277.1,303.4C277.7,303.0 277.7,302.3 277.0,301.5C276.4,300.7 269.7,298.0 262.2,295.5C254.7,293.0 247.4,290.3 246.0,289.5C243.6,288.1 243.6,288.1 248.2,288.0C250.8,288.0 255.9,288.6 259.7,289.4C263.4,290.2 268.8,291.1 271.5,291.4C276.5,292.1 276.5,292.1 274.0,289.9C272.6,288.7 268.9,286.5 265.8,284.9C262.6,283.3 260.0,281.7 260.0,281.4C260.0,281.1 263.7,281.0 268.2,281.2C276.5,281.5 276.5,281.5 276.5,279.0C276.5,276.7 275.6,276.2 264.5,272.5C257.9,270.3 250.6,267.4 248.3,266.0C245.9,264.6 244.0,263.1 244.0,262.7C244.0,262.2 245.5,262.1 247.2,262.4C249.0,262.8 256.7,264.5 264.2,266.2C271.8,267.9 278.3,269.1 278.6,268.7C278.9,268.4 278.9,267.6 278.5,267.0C278.1,266.4 276.1,264.9 274.1,263.6C272.0,262.3 267.0,259.8 262.9,258.0C258.8,256.3 251.9,252.8 247.5,250.3C243.1,247.8 234.4,241.8 228.1,237.1C221.9,232.4 213.5,226.2 209.6,223.4C205.6,220.5 198.6,216.1 193.8,213.6C189.1,211.0 181.6,207.6 177.1,206.0C172.6,204.3 162.5,201.8 154.7,200.4C142.5,198.1 138.9,197.8 128.8,198.4C120.8,198.8 114.0,199.8 107.5,201.6C101.1,203.4 98.0,204.7 98.0,205.7C98.0,206.5 99.9,210.4 102.2,214.3C104.5,218.3 108.4,224.1 110.7,227.2C113.1,230.4 118.2,235.7 121.9,239.1C125.7,242.5 132.7,247.8 137.5,251.1C142.3,254.3 149.7,258.7 154.0,261.0C158.3,263.2 168.1,267.3 175.6,270.0C183.2,272.7 191.2,276.2 193.4,277.7C195.8,279.2 196.9,280.5 196.2,280.8C195.5,281.0 191.9,280.6 188.2,280.0C184.5,279.3 176.3,277.2 170.0,275.3C163.7,273.5 155.6,271.3 152.0,270.4C148.4,269.6 141.7,268.4 137.0,267.9C132.3,267.4 128.1,266.5 127.6,266.0C127.1,265.5 128.4,264.7 130.6,264.1C132.8,263.5 135.4,263.0 136.5,263.0C137.6,263.0 139.1,262.6 139.7,262.2C140.6,261.7 139.4,260.6 136.2,259.0C132.6,257.2 129.4,256.6 122.0,256.2C115.8,255.9 109.6,256.3 104.2,257.3C99.6,258.2 92.3,260.5 87.9,262.4C83.5,264.3 77.4,267.3 74.4,269.1C71.4,270.9 69.0,272.9 69.0,273.6C69.0,274.2 73.6,279.2 79.2,284.5C85.4,290.5 93.8,297.2 100.8,301.8C107.1,305.9 114.8,310.3 117.9,311.7C121.0,313.1 131.1,317.1 140.5,320.6C149.8,324.2 159.9,327.7 163.0,328.5C166.0,329.3 172.9,330.8 178.3,331.9C183.6,333.0 192.9,334.4 198.8,335.0C204.7,335.6 211.3,336.2 213.5,336.4C215.7,336.6 228.1,336.7 241.0,336.5zM365.6,331.0C366.4,331.0 367.5,329.8 368.1,328.3C368.6,326.8 369.6,323.4 370.2,320.7C370.7,318.0 370.9,314.0 370.6,311.7C370.2,309.4 369.5,306.9 369.1,306.1C368.3,304.9 367.8,304.9 365.7,306.3C364.4,307.1 362.6,309.4 361.6,311.3C360.7,313.2 360.0,316.4 360.0,318.3C360.0,320.1 360.5,323.2 361.1,325.1C361.8,327.0 362.7,329.1 363.3,329.8C363.8,330.4 364.9,331.0 365.6,331.0zM293.3,329.7C293.9,329.5 294.9,327.2 295.6,324.6C296.3,322.0 297.9,318.2 299.2,316.2C300.6,314.2 301.9,311.7 302.3,310.7C302.7,309.6 302.3,307.3 301.4,305.5C300.6,303.7 299.2,301.9 298.5,301.6C297.7,301.3 295.9,302.5 294.5,304.2C293.1,305.9 291.0,309.0 290.0,311.1C288.8,313.3 288.0,316.9 288.0,319.8C288.0,323.3 288.6,325.5 290.1,327.4C291.3,328.9 292.7,329.9 293.3,329.7zM461.7,328.0C461.9,328.0 462.9,326.5 464.0,324.8C465.1,323.0 466.0,319.8 466.0,317.7C466.0,315.6 465.4,312.5 464.6,310.7C463.9,308.9 459.8,303.6 455.5,298.8C448.8,291.2 447.3,290.0 444.5,290.0C442.8,290.0 441.0,290.3 440.7,290.6C440.3,291.0 440.8,292.6 441.8,294.2C442.7,295.9 444.3,297.6 445.2,298.1C446.2,298.6 447.9,301.0 449.1,303.3C450.3,305.6 452.7,310.0 454.5,313.0C456.3,316.0 458.6,320.6 459.5,323.2C460.5,325.9 461.4,328.0 461.7,328.0zM325.0,326.0C325.6,326.0 326.5,325.0 327.0,323.8C327.5,322.5 328.6,316.6 329.4,310.7C330.4,303.1 331.7,298.0 333.8,293.6C336.0,289.0 338.1,286.3 341.3,283.9C343.8,282.0 346.3,279.7 346.9,278.7C347.6,277.7 347.8,276.5 347.5,276.0C347.1,275.4 345.6,275.0 344.0,275.0C342.4,275.0 340.0,275.5 338.6,276.1C337.3,276.7 335.4,278.8 334.4,280.6C333.4,282.5 332.2,284.0 331.8,284.0C331.4,284.0 329.5,285.4 327.5,287.1C325.5,288.9 322.7,292.3 321.2,294.9C318.9,298.8 318.5,300.6 318.5,307.0C318.6,313.0 319.1,315.7 321.2,320.2C322.7,323.4 324.4,326.0 325.0,326.0zM478.7,320.4C479.4,319.4 480.2,317.2 480.6,315.4C480.9,313.6 480.7,310.5 480.0,308.5C479.4,306.6 477.4,303.4 475.5,301.5C473.7,299.6 471.6,298.0 470.8,298.0C470.0,298.0 468.5,298.6 467.5,299.4C465.8,300.6 465.9,301.2 470.5,310.1C473.1,315.3 475.7,320.1 476.3,320.8C477.2,321.9 477.6,321.9 478.7,320.4zM344.0,321.0C345.2,321.0 346.1,320.2 346.4,318.8C346.7,317.5 347.4,312.3 348.0,307.1C348.6,302.0 349.6,296.8 350.2,295.6C350.8,294.5 352.6,292.0 354.1,290.2C355.7,288.4 357.0,286.3 357.0,285.4C357.0,284.6 355.9,283.5 354.5,282.8C352.6,281.9 351.6,282.0 349.5,283.4C348.1,284.3 345.0,287.8 342.5,291.1C340.1,294.3 337.9,298.4 337.5,300.1C337.1,301.7 337.1,305.7 337.5,308.9C337.9,312.1 339.0,316.2 340.1,317.9C341.2,319.7 342.8,321.0 344.0,321.0zM411.9,320.0C412.4,320.0 413.6,319.0 414.4,317.8C415.5,316.3 416.0,313.3 416.0,309.2C416.0,305.8 415.3,301.4 414.6,299.5C413.6,297.3 412.4,296.0 411.3,296.0C410.2,296.0 408.9,296.5 408.2,297.2C407.5,297.9 407.0,301.2 407.0,305.0C407.0,309.2 407.7,313.0 409.0,315.8C410.0,318.1 411.3,320.0 411.9,320.0zM499.0,315.0C499.5,315.0 500.4,314.1 501.0,313.1C501.5,312.0 502.0,308.4 502.0,305.0C502.0,301.0 501.4,297.8 500.3,296.0C499.4,294.4 497.6,292.6 496.4,291.9C495.2,291.3 493.5,291.0 492.7,291.3C491.8,291.6 491.1,294.1 490.7,298.6C490.4,302.3 490.4,306.0 490.7,306.7C491.1,307.7 491.6,307.8 492.6,306.9C493.6,306.1 494.4,306.6 496.0,309.2C497.1,311.0 498.0,313.1 498.0,313.8C498.0,314.4 498.4,315.0 499.0,315.0zM399.2,312.0C400.2,310.8 401.5,307.9 402.1,305.7C402.8,303.1 402.9,300.5 402.3,299.0C401.8,297.6 400.5,296.4 399.3,296.2C397.9,296.0 396.7,296.6 395.9,298.1C395.3,299.3 394.7,302.7 394.6,305.5C394.5,308.7 395.0,311.3 396.0,312.4C397.3,314.1 397.5,314.1 399.2,312.0zM376.3,310.1C376.9,309.5 378.4,306.2 379.6,302.9C380.8,299.5 381.6,296.1 381.3,295.4C381.0,294.7 379.9,293.8 378.7,293.4C377.1,292.9 375.9,293.5 373.8,295.9C371.9,298.0 371.0,300.1 371.0,302.4C371.0,304.3 371.9,306.9 373.1,308.4C374.6,310.4 375.6,310.8 376.3,310.1zM356.4,308.7C357.0,308.5 359.9,305.5 362.8,302.1C366.8,297.4 368.0,295.2 367.8,293.2C367.6,291.3 366.8,290.4 365.2,290.2C363.9,290.0 362.2,290.4 361.3,291.2C360.4,291.9 358.4,294.5 356.8,296.9C355.3,299.4 354.0,302.8 354.0,304.5C354.0,306.3 354.3,308.0 354.7,308.4C355.1,308.7 355.9,308.9 356.4,308.7zM425.7,308.9C426.3,309.0 427.2,308.1 427.5,306.9C427.9,305.8 427.9,303.4 427.6,301.6C427.2,299.8 425.9,297.3 424.6,296.1C423.3,294.8 421.4,294.0 420.3,294.2C419.2,294.4 418.4,295.5 418.2,297.2C418.0,298.6 418.8,301.6 419.9,303.8C421.0,306.0 422.5,308.0 423.2,308.3C423.9,308.6 425.0,308.9 425.7,308.9zM287.5,306.0C287.7,306.0 290.2,302.6 293.0,298.4C295.7,294.2 298.0,289.7 298.0,288.5C298.0,287.3 297.4,285.7 296.6,285.1C295.8,284.4 293.9,284.0 292.3,284.2C290.1,284.4 288.9,285.6 286.8,289.5C285.3,292.2 284.0,296.1 284.0,298.0C284.0,300.0 284.7,302.6 285.6,303.8C286.4,305.0 287.3,306.0 287.5,306.0zM309.5,305.4C310.3,305.1 311.8,302.3 313.0,299.3C314.1,296.3 315.8,292.4 316.7,290.7C317.6,288.9 319.3,286.2 320.6,284.7C321.9,283.1 323.0,280.8 323.0,279.5C323.0,278.0 322.3,276.9 321.0,276.5C319.9,276.2 318.1,276.1 317.1,276.5C316.1,276.8 313.2,279.2 310.7,281.9C307.9,284.9 305.7,288.4 305.0,291.0C304.4,293.3 304.2,296.6 304.5,298.3C304.9,300.1 305.8,302.5 306.6,303.7C307.4,305.0 308.6,305.7 309.5,305.4zM438.0,306.0C439.0,306.0 440.0,305.4 440.3,304.7C440.6,304.0 440.2,301.7 439.5,299.6C438.8,297.6 437.4,295.0 436.4,293.9C435.5,292.9 433.7,292.0 432.4,292.0C431.1,292.0 429.8,292.5 429.5,293.1C429.1,293.6 429.1,295.2 429.4,296.5C429.8,297.9 431.4,300.5 433.1,302.5C434.8,304.4 437.0,306.0 438.0,306.0zM483.6,303.0C484.3,303.0 485.1,302.6 485.4,302.2C485.7,301.7 485.5,299.7 484.9,297.6C484.4,295.6 482.3,292.4 480.4,290.5C478.3,288.4 475.9,287.0 474.5,287.0C472.3,287.0 472.0,287.4 472.0,290.9C472.0,293.9 472.5,295.0 473.8,295.4C474.8,295.8 477.1,297.6 479.0,299.5C480.9,301.4 483.0,303.0 483.6,303.0zM464.2,295.0C466.0,295.0 466.2,294.6 465.6,291.8C465.3,290.0 464.2,287.4 463.2,286.1C462.2,284.7 460.1,282.7 458.6,281.6C456.1,279.7 455.7,279.7 453.2,281.1C451.7,281.9 450.4,283.5 450.2,284.7C450.0,286.3 451.1,287.4 455.4,289.8C458.4,291.5 461.1,293.4 461.5,294.0C461.8,294.5 463.0,295.0 464.2,295.0zM407.2,289.0C408.2,287.8 409.0,285.6 409.0,284.2C409.0,281.9 409.2,282.0 412.0,285.9C413.7,288.2 415.8,290.4 416.6,290.7C417.5,291.0 418.6,290.7 419.1,289.9C419.6,289.1 420.0,287.7 420.0,286.7C420.0,285.6 418.6,283.5 417.0,282.0C415.3,280.4 414.3,278.9 414.8,278.6C415.3,278.3 417.5,278.8 419.8,279.6C422.8,280.8 423.9,281.9 424.3,284.0C424.8,286.5 425.4,286.8 430.2,287.3C433.1,287.5 435.7,287.6 435.9,287.4C436.2,287.2 435.3,285.9 434.0,284.5C432.7,283.1 430.0,281.7 428.0,281.4C424.8,280.9 424.4,280.5 424.8,278.4C425.1,276.5 424.5,275.8 421.6,274.4C419.6,273.4 418.0,272.0 418.0,271.3C418.0,270.6 418.3,270.0 418.6,270.0C419.0,270.0 420.8,271.0 422.7,272.1C425.5,273.9 426.6,274.1 428.6,273.1C429.9,272.5 431.0,271.2 431.0,270.1C431.0,269.0 429.6,267.3 427.5,266.0C425.6,264.8 424.0,263.7 424.0,263.5C424.0,263.2 426.4,263.2 429.2,263.3C433.9,263.5 434.5,263.3 434.5,261.5C434.5,260.4 433.6,259.1 432.4,258.5C430.7,257.6 430.5,257.1 431.3,255.2C432.2,253.2 431.9,252.5 429.4,250.5C427.8,249.2 425.9,248.1 425.1,248.0C424.3,248.0 422.1,248.6 420.2,249.2C417.0,250.4 416.7,250.3 414.1,247.1C411.4,243.8 411.3,243.8 407.8,245.0C404.7,246.2 403.8,246.1 401.7,244.7C400.3,243.8 398.4,243.1 397.4,243.0C396.3,243.0 392.4,242.9 388.5,242.7C384.6,242.6 381.0,242.2 380.4,241.8C379.8,241.4 378.4,242.0 377.4,243.1C375.9,244.7 374.7,245.1 372.0,244.6C369.8,244.3 367.8,244.6 366.6,245.5C365.5,246.3 363.2,247.0 361.5,247.0C358.9,247.0 357.1,248.2 351.7,253.9C346.9,258.8 345.0,261.6 345.0,263.4C345.0,264.8 345.5,266.0 346.1,266.0C346.7,266.0 348.5,265.1 350.1,263.9C351.7,262.8 353.8,262.0 354.7,262.2C355.6,262.4 356.5,263.0 356.7,263.6C356.9,264.2 355.5,265.7 353.5,266.8C351.6,268.0 350.0,269.4 350.0,270.0C350.0,270.6 350.5,272.0 351.0,273.1C351.6,274.1 352.8,275.0 353.8,275.0C354.7,275.0 356.9,274.1 358.5,273.0C360.1,271.9 362.3,271.0 363.2,271.0C364.1,271.0 365.1,271.4 365.5,271.9C365.8,272.4 364.9,274.0 363.5,275.4C362.1,276.8 361.0,279.1 361.0,280.5C361.0,282.5 361.5,283.0 363.5,283.0C365.0,283.0 367.6,281.5 370.0,279.4C372.8,276.9 374.5,276.0 375.7,276.5C377.3,277.0 377.0,277.5 374.2,279.9C371.7,281.9 370.9,283.3 371.2,285.1C371.4,286.7 372.2,287.6 373.7,287.8C375.1,288.0 376.6,287.1 378.4,284.7C379.9,282.8 382.0,281.0 383.1,280.7C384.7,280.3 384.9,280.4 384.0,281.5C383.4,282.3 383.0,284.1 383.2,285.7C383.4,287.9 384.0,288.5 386.0,288.5C387.9,288.5 388.9,287.7 389.9,285.2C390.7,283.5 391.8,282.0 392.3,282.0C392.8,282.0 393.0,282.7 392.6,283.5C392.3,284.3 392.5,286.1 393.0,287.5C393.5,288.9 394.6,290.0 395.5,290.0C396.3,290.0 397.7,288.8 398.6,287.4C400.3,284.8 400.3,284.8 402.8,288.1C405.4,291.3 405.4,291.3 407.2,289.0zM492.0,289.0C493.0,289.0 494.1,288.3 494.4,287.4C494.7,286.5 495.0,285.2 495.0,284.5C495.0,283.7 493.7,281.5 492.0,279.7C490.4,277.8 487.6,275.7 486.0,275.0C483.4,273.9 482.7,274.0 481.0,275.5C479.9,276.5 479.0,278.4 479.0,279.6C479.0,281.2 480.0,282.5 482.2,283.6C484.0,284.5 486.6,286.1 487.9,287.1C489.2,288.2 491.1,289.0 492.0,289.0zM286.1,283.0C287.1,282.4 289.0,280.5 290.3,278.7C291.7,277.0 294.0,273.1 295.5,270.2C297.6,266.2 298.0,264.7 297.1,263.6C296.4,262.8 295.1,262.0 294.0,261.7C292.9,261.4 291.0,262.0 289.6,263.1C288.3,264.1 286.2,266.9 285.1,269.3C283.9,271.7 283.0,275.6 283.0,278.1C283.0,280.6 283.3,283.0 283.6,283.3C284.0,283.6 285.1,283.5 286.1,283.0zM443.2,282.9C444.4,283.0 445.0,282.3 445.0,281.0C445.0,279.9 444.1,278.1 443.0,277.0C441.9,275.9 439.9,274.8 438.5,274.4C437.0,274.0 434.7,274.3 433.4,274.9C431.9,275.5 431.0,276.7 431.2,277.6C431.4,278.5 433.8,280.0 436.5,281.0C439.2,281.9 442.3,282.8 443.2,282.9zM471.8,283.0C473.0,283.0 474.0,282.5 474.0,282.0C474.0,281.4 473.3,279.6 472.5,278.0C471.7,276.5 469.5,274.2 467.7,273.1C465.8,271.9 463.6,271.0 462.8,271.0C461.9,271.0 460.1,271.9 458.6,273.1C457.2,274.2 456.2,275.6 456.5,276.1C456.8,276.5 458.8,277.4 460.9,278.0C463.1,278.6 465.9,279.9 467.2,281.0C468.4,282.1 470.5,282.9 471.8,283.0zM302.1,282.0C302.5,282.0 304.4,280.1 306.4,277.8C308.3,275.4 311.7,272.1 313.9,270.5C316.1,268.9 318.0,266.7 318.0,265.7C318.0,264.8 316.9,263.4 315.5,262.8C313.4,261.9 312.3,262.0 309.5,263.3C307.6,264.2 304.7,266.8 303.0,269.1C301.0,272.0 300.0,274.5 300.0,277.0C300.0,279.0 300.3,281.0 300.7,281.3C301.0,281.7 301.7,282.0 302.1,282.0zM327.3,278.0C328.1,278.0 330.7,276.7 333.1,275.1C335.5,273.4 338.6,271.0 339.9,269.6C341.2,268.3 341.9,266.7 341.5,266.1C341.2,265.5 339.6,265.0 338.0,265.0C336.4,265.0 333.8,266.1 332.0,267.6C330.3,269.1 328.3,271.5 327.5,273.1C326.7,274.6 326.0,276.4 326.0,277.0C326.0,277.5 326.6,278.0 327.3,278.0zM450.8,273.9C451.4,274.0 452.0,273.2 452.0,272.1C452.0,271.1 450.8,269.1 449.4,267.6C447.6,265.9 445.7,265.0 443.5,265.0C441.7,265.0 439.7,265.7 439.0,266.5C438.0,267.7 438.0,268.3 439.0,269.5C439.7,270.3 442.3,271.7 444.9,272.4C447.4,273.2 450.1,273.9 450.8,273.9zM494.2,272.9C495.2,273.0 496.0,272.3 496.0,271.4C496.0,270.5 494.3,268.0 492.2,265.9C490.1,263.8 487.1,261.8 485.6,261.4C484.1,261.1 481.7,261.3 480.4,261.9C478.8,262.6 478.0,263.7 478.2,264.8C478.4,265.7 479.9,267.2 481.5,268.0C483.2,268.8 486.3,270.2 488.5,271.1C490.7,272.0 493.3,272.8 494.2,272.9zM473.1,270.9C474.0,270.9 475.0,270.7 475.4,270.3C475.7,269.9 473.9,267.5 471.3,264.8C468.7,262.2 466.0,260.0 465.2,260.0C464.5,260.0 462.6,260.7 461.0,261.5C459.3,262.4 458.0,263.7 458.0,264.5C458.0,265.4 459.0,266.4 460.2,266.9C461.5,267.3 464.5,268.4 467.0,269.2C469.5,270.1 472.2,270.8 473.1,270.9zM323.9,268.0C325.4,268.0 328.2,267.0 330.1,265.7C332.3,264.2 333.6,262.5 333.8,260.7C334.1,258.2 333.8,258.0 330.7,258.0C328.2,258.0 326.3,258.9 324.1,260.9C322.4,262.5 321.0,264.7 321.0,265.9C321.0,267.5 321.6,268.0 323.9,268.0zM452.3,263.0C453.7,263.0 454.1,262.4 453.8,260.3C453.6,258.2 452.2,257.0 447.4,254.3C441.7,251.2 441.1,251.1 439.6,252.6C438.2,253.9 438.2,254.5 439.2,255.7C439.8,256.5 442.7,258.5 445.5,260.1C448.2,261.7 451.3,263.0 452.3,263.0zM283.3,260.9C283.7,261.0 284.3,260.3 284.7,259.4C285.1,258.2 283.6,256.1 279.7,252.3C276.5,249.3 274.0,246.5 274.0,246.0C274.0,245.6 274.7,244.7 275.5,244.0C276.7,243.0 277.9,243.3 281.8,245.9C284.5,247.6 287.5,249.0 288.5,249.0C289.5,249.0 291.2,248.3 292.2,247.3C293.2,246.4 294.0,245.2 294.0,244.6C294.0,244.0 290.1,239.9 285.2,235.5C280.4,231.1 273.4,224.1 269.7,219.8C266.0,215.6 259.0,207.3 254.3,201.3C249.5,195.4 239.8,184.6 232.6,177.4C224.7,169.5 216.3,162.3 211.5,159.1C207.1,156.2 198.1,151.2 191.5,147.9C182.6,143.5 176.5,141.3 168.0,139.3C158.6,137.1 154.1,136.6 143.0,136.6C134.1,136.6 128.7,137.0 127.3,137.8C125.5,138.8 125.0,140.0 125.0,142.9C125.0,145.0 126.1,151.2 127.5,156.6C128.9,162.3 132.0,170.4 134.8,175.9C137.4,181.0 140.8,186.7 142.5,188.5C145.2,191.4 146.7,192.0 156.5,194.0C162.5,195.2 170.8,197.3 175.0,198.7C179.1,200.1 187.4,203.6 193.5,206.6C199.6,209.5 210.3,216.0 217.5,221.0C224.7,226.0 234.9,233.1 240.4,236.8C245.8,240.5 257.5,247.4 266.4,252.2C275.2,256.9 282.9,260.9 283.3,260.9zM311.2,258.6C313.0,257.8 317.1,256.0 320.3,254.6C323.5,253.2 326.3,251.3 326.7,250.4C327.1,249.3 326.6,248.2 325.4,247.3C324.2,246.4 322.2,246.1 320.0,246.4C317.6,246.8 315.2,248.3 312.2,251.4C309.9,253.9 308.0,256.8 308.0,258.0C308.0,259.9 308.2,260.0 311.2,258.6zM297.2,258.9C298.1,259.0 300.0,257.6 301.4,255.9C302.8,254.2 304.0,252.3 304.0,251.6C304.0,250.9 305.1,249.1 306.5,247.7C307.9,246.4 312.1,243.6 315.8,241.7C322.5,238.1 322.7,238.1 324.3,240.0C325.3,241.2 327.2,242.0 328.9,242.0C330.5,242.0 332.6,241.3 333.4,240.4C334.3,239.6 335.0,238.5 335.0,238.0C335.0,237.5 334.0,236.6 332.8,235.9C330.9,234.9 330.9,234.7 332.3,233.8C333.2,233.3 336.3,233.1 339.1,233.2C343.0,233.4 344.5,233.1 345.3,231.8C346.2,230.5 346.0,229.7 344.6,228.1C343.7,227.1 341.8,225.9 340.4,225.6C339.1,225.2 336.5,225.6 334.6,226.4C332.7,227.2 330.7,229.0 330.0,230.7C329.2,232.3 327.4,234.4 325.9,235.2C323.7,236.5 323.0,236.6 322.6,235.5C322.4,234.8 320.7,233.9 319.0,233.5C316.9,233.0 315.1,233.4 313.1,234.7C311.5,235.7 308.5,238.6 306.5,241.2C304.3,244.2 302.1,246.0 300.9,246.0C299.8,246.0 297.5,247.3 295.9,248.9C294.0,250.9 293.0,252.9 293.0,254.8C293.0,256.5 293.6,258.1 294.2,258.3C294.9,258.6 296.2,258.9 297.2,258.9zM474.5,258.6C475.1,258.5 475.6,257.3 475.8,256.1C476.1,254.6 475.0,252.8 472.5,250.4C470.1,248.2 467.9,247.0 466.0,247.0C464.4,247.0 461.9,248.1 460.3,249.4C458.0,251.4 457.7,252.2 458.6,253.7C459.4,254.9 461.0,255.5 463.6,255.6C465.7,255.6 468.9,256.4 470.5,257.3C472.1,258.2 473.9,258.8 474.5,258.6zM335.2,255.9C336.7,256.0 339.0,255.6 340.5,255.0C341.9,254.5 343.3,253.3 343.7,252.4C344.1,251.4 343.7,250.4 342.6,249.8C341.7,249.3 341.2,248.5 341.5,247.9C341.9,247.4 343.6,247.0 345.5,247.0C347.3,247.0 349.6,246.3 350.5,245.4C351.4,244.5 351.9,243.3 351.7,242.6C351.5,242.0 350.2,240.9 348.8,240.1C346.6,238.8 345.9,238.9 342.5,240.6C340.3,241.6 337.9,243.7 337.0,245.2C336.2,246.7 334.3,248.9 332.8,250.0C331.2,251.2 330.0,252.7 330.0,253.5C330.0,254.2 330.6,255.1 331.2,255.3C331.9,255.6 333.7,255.9 335.2,255.9zM451.8,250.4C452.6,250.2 453.6,250.0 454.1,250.0C454.6,250.0 455.0,249.3 455.0,248.5C455.0,247.6 453.9,245.8 452.5,244.5C451.2,243.1 449.2,242.0 448.2,242.0C447.1,242.0 445.3,242.8 444.2,243.8C443.0,244.7 442.0,246.1 441.8,246.9C441.6,247.8 443.1,248.8 446.0,249.6C448.5,250.2 451.1,250.6 451.8,250.4zM433.5,245.0C435.4,245.0 437.2,244.5 437.6,243.9C437.9,243.3 437.3,241.5 436.2,240.0C434.1,237.2 434.1,237.2 439.3,236.0C442.2,235.3 445.1,234.3 445.8,233.7C446.4,233.2 447.0,231.9 447.0,230.9C447.0,229.9 446.1,228.6 445.1,228.0C444.0,227.5 442.2,227.0 441.1,227.0C440.0,227.0 437.5,228.4 435.5,230.1C433.6,231.8 431.7,234.3 431.4,235.6C431.1,236.9 430.2,238.0 429.4,238.0C428.6,238.0 428.0,238.2 428.0,238.4C428.0,238.6 427.7,239.5 427.4,240.3C427.1,241.1 427.6,242.5 428.5,243.4C429.4,244.3 431.7,245.0 433.5,245.0zM462.7,241.8C463.3,241.9 464.2,241.6 464.5,241.0C464.8,240.5 464.6,239.1 464.0,238.0C463.4,236.8 461.5,235.1 459.8,234.0C457.4,232.6 456.2,232.4 454.1,233.1C452.7,233.7 450.7,234.9 449.8,235.7C448.8,236.6 448.0,237.8 448.0,238.5C448.0,239.2 450.8,240.1 454.8,240.7C458.5,241.2 462.0,241.8 462.7,241.8zM354.3,241.0C354.4,241.0 356.5,240.4 359.0,239.6C362.2,238.7 363.6,237.7 363.8,236.2C364.0,235.0 363.2,233.6 361.8,232.6C360.6,231.7 358.6,231.0 357.4,231.0C356.1,231.0 354.2,232.2 353.1,233.6C351.9,235.1 351.0,236.6 351.0,237.1C351.0,237.5 351.7,238.6 352.6,239.4C353.4,240.3 354.2,241.0 354.3,241.0zM419.7,240.9C420.9,241.0 422.3,240.3 422.8,239.4C423.3,238.5 423.5,236.9 423.3,235.9C423.0,234.9 421.8,233.8 420.6,233.5C419.5,233.1 417.5,232.4 416.3,231.8C414.6,230.9 413.5,231.1 411.5,232.4C410.1,233.3 409.0,234.9 409.0,236.1C409.0,237.2 409.6,238.2 410.2,238.4C410.9,238.6 412.9,239.2 414.5,239.8C416.1,240.3 418.5,240.8 419.7,240.9zM301.1,239.0C302.0,239.0 303.1,238.3 303.4,237.5C303.7,236.5 302.2,233.8 299.4,230.4C296.9,227.3 295.1,224.6 295.4,224.3C295.7,224.0 298.2,225.7 300.9,228.1C305.5,231.9 306.3,232.2 308.5,231.2C309.9,230.6 311.0,229.3 311.0,228.5C311.0,227.7 309.9,225.3 308.5,223.2C307.2,221.2 304.5,216.0 302.6,211.8C300.6,207.5 299.4,204.0 299.9,204.0C300.3,204.0 302.9,206.4 305.6,209.2C308.3,212.1 312.8,217.5 315.5,221.2C319.0,226.2 321.0,228.0 322.7,228.0C323.9,228.0 325.4,227.1 326.0,226.1C326.5,225.0 326.7,223.3 326.3,222.3C326.0,221.3 324.5,218.7 323.0,216.5C321.6,214.3 316.5,204.6 311.8,195.0C307.1,185.4 301.4,172.0 299.1,165.3C296.9,158.6 294.1,148.0 292.9,141.8C291.3,133.6 290.6,125.5 290.4,112.0C290.2,101.8 290.0,93.0 290.0,92.5C290.0,91.9 287.0,89.1 283.3,86.1C279.6,83.2 274.0,79.5 270.8,77.9C267.7,76.3 263.4,75.0 261.5,75.0C258.3,75.0 257.7,75.4 256.2,78.8C255.0,81.6 254.6,85.6 254.5,95.2C254.5,107.8 254.5,107.8 260.9,114.2C264.4,117.6 269.6,123.7 272.6,127.5C275.5,131.3 278.8,136.6 279.9,139.2C281.0,141.9 281.6,144.0 281.3,144.0C280.9,144.0 274.2,137.3 266.3,129.1C256.3,118.6 249.7,112.7 244.3,109.2C240.0,106.5 233.3,102.7 229.4,100.7C225.5,98.7 219.5,96.2 216.2,95.1C212.8,93.9 208.5,93.0 206.5,93.0C203.6,93.0 202.8,93.5 202.0,95.6C201.4,97.0 201.0,103.4 201.0,109.9C201.0,116.4 201.7,125.6 202.5,130.3C203.3,135.0 204.9,141.3 206.0,144.2C207.8,149.0 208.9,150.2 217.9,156.8C223.4,160.7 232.5,168.5 238.2,173.9C243.9,179.3 253.3,189.5 259.0,196.6C264.8,203.6 271.7,211.9 274.5,214.9C277.2,218.0 283.9,224.7 289.4,229.8C295.0,234.8 300.2,239.0 301.1,239.0zM371.0,237.0C372.9,237.0 374.3,236.3 375.0,235.0C375.8,233.6 375.8,232.4 375.0,231.0C374.3,229.7 372.9,229.0 371.0,229.0C369.1,229.0 367.7,229.7 367.0,231.0C366.2,232.4 366.2,233.6 367.0,235.0C367.7,236.3 369.1,237.0 371.0,237.0zM400.6,236.9C401.7,237.0 403.1,236.5 403.8,235.8C404.5,235.1 405.0,233.9 405.0,233.1C405.0,232.3 404.0,230.6 402.8,229.3C401.6,228.0 400.9,226.7 401.2,226.4C401.6,226.1 404.2,225.5 407.2,225.1C410.1,224.7 413.1,224.1 413.8,223.6C414.4,223.2 415.0,222.3 415.0,221.5C415.0,220.8 414.3,219.4 413.4,218.6C412.6,217.7 410.4,217.0 408.6,217.0C406.5,217.0 404.3,217.9 402.6,219.5C401.2,220.8 400.0,222.9 400.0,224.0C400.0,225.2 398.4,227.7 396.4,229.5C394.4,231.4 393.1,233.4 393.5,234.0C393.9,234.6 395.2,235.5 396.4,236.0C397.5,236.5 399.4,236.9 400.6,236.9zM384.4,236.0C385.0,236.0 386.6,235.3 387.8,234.4C389.0,233.6 390.0,232.5 390.0,232.0C390.0,231.5 389.0,229.9 387.7,228.4C385.7,226.1 385.1,225.9 383.2,226.9C382.0,227.5 380.5,229.0 379.9,230.2C378.9,232.0 379.1,232.6 381.0,234.2C382.2,235.2 383.7,236.0 384.4,236.0zM422.0,229.0C425.4,229.0 429.0,228.5 430.1,228.0C431.1,227.4 432.0,226.4 432.0,225.8C432.0,225.2 431.3,223.8 430.3,222.8C429.4,221.8 427.5,221.0 426.0,221.0C424.5,221.0 421.8,222.0 419.9,223.3C418.0,224.5 416.4,226.3 416.2,227.3C415.9,228.8 416.7,229.0 422.0,229.0zM352.1,227.0C354.2,227.0 356.2,226.5 356.5,226.0C356.9,225.4 356.5,223.8 355.6,222.5C354.7,221.1 352.8,219.7 351.3,219.4C349.9,219.0 348.0,219.2 347.1,219.7C346.2,220.3 345.3,221.5 345.1,222.5C344.9,223.5 345.6,225.0 346.6,225.7C347.6,226.4 350.1,227.0 352.1,227.0zM361.9,226.0C363.5,225.6 365.6,224.7 366.7,224.1C367.9,223.5 369.0,222.3 369.4,221.4C369.7,220.5 369.8,219.4 369.4,218.9C369.1,218.4 367.8,218.0 366.6,218.0C365.3,218.0 363.1,218.9 361.8,220.0C360.4,221.1 359.0,222.8 358.7,223.9C358.4,225.0 358.4,226.1 358.7,226.4C358.9,226.6 360.4,226.5 361.9,226.0zM389.8,223.5C392.4,223.1 395.3,222.4 396.3,221.8C397.5,221.2 398.0,220.0 397.8,218.2C397.5,215.9 397.0,215.5 393.9,215.2C390.9,214.9 389.8,215.4 387.6,218.0C386.2,219.7 385.0,221.8 385.0,222.7C385.0,224.0 385.8,224.1 389.8,223.5zM375.0,223.0C376.5,223.0 378.9,222.1 380.4,220.9C381.8,219.8 383.0,218.2 383.0,217.4C383.0,216.6 381.9,215.4 380.5,214.8C378.4,213.9 377.3,214.0 374.5,215.3C372.0,216.5 371.0,217.6 371.0,219.3C371.0,220.6 371.3,222.0 371.7,222.3C372.0,222.7 373.5,223.0 375.0,223.0zM334.8,220.8C335.2,220.6 336.6,219.9 338.0,219.3C339.4,218.7 341.7,217.9 343.2,217.6C345.4,217.1 346.0,216.4 346.0,214.2C345.9,212.7 345.3,208.6 344.5,205.0C343.7,201.4 343.1,196.5 343.1,194.0C343.1,189.5 343.1,189.5 346.5,196.0C348.4,199.6 350.6,204.6 351.5,207.1C352.4,209.7 353.9,212.5 354.9,213.4C356.3,214.7 357.7,214.9 360.8,214.4C363.1,214.0 365.5,213.1 366.1,212.4C366.9,211.4 366.4,207.9 364.1,198.2C361.7,188.2 361.0,183.2 361.0,175.3C361.0,169.7 361.4,164.9 361.9,164.5C362.4,164.2 363.1,164.8 363.4,165.7C363.7,166.7 364.9,172.1 366.0,177.6C367.1,183.2 369.4,192.3 371.0,198.0C372.6,203.6 374.5,208.9 375.1,209.7C376.0,210.7 377.4,211.0 379.6,210.5C381.4,210.2 384.8,210.4 387.2,210.9C390.3,211.6 391.8,211.6 392.6,210.7C393.3,209.9 393.4,205.1 393.0,196.0C392.6,188.6 392.7,176.0 393.2,168.0C393.7,159.1 395.1,148.1 396.9,139.4C398.5,131.7 401.4,121.6 403.3,116.9C405.2,112.3 407.0,107.2 407.4,105.7C407.9,103.7 407.3,101.0 405.4,96.7C404.0,93.3 400.6,86.0 398.0,80.5C395.4,75.0 391.4,68.2 389.1,65.4C386.9,62.5 383.4,59.5 381.4,58.5C377.8,56.8 377.8,56.8 373.3,61.2C370.9,63.5 366.7,69.1 364.1,73.5C361.4,77.9 358.3,84.4 357.2,88.0C356.0,91.6 354.6,96.8 354.0,99.5C353.5,102.2 352.7,105.6 352.4,106.9C352.0,108.8 350.7,106.8 345.6,96.4C342.1,89.3 337.1,80.6 334.5,77.1C331.8,73.6 326.7,68.3 323.1,65.4C319.5,62.4 315.6,60.0 314.4,60.0C313.1,60.0 311.2,61.4 309.6,63.5C308.1,65.4 305.6,69.8 304.0,73.3C302.4,76.7 300.4,82.2 299.5,85.5C298.6,88.8 297.5,96.4 297.0,102.3C296.5,108.8 296.5,117.2 297.0,123.3C297.5,128.9 298.8,138.0 299.9,143.5C301.0,149.0 303.3,157.3 305.0,162.0C306.7,166.7 310.4,175.7 313.2,182.0C316.0,188.3 320.6,197.8 323.3,203.0C326.1,208.2 329.7,214.4 331.3,216.8C332.9,219.2 334.5,221.0 334.8,220.8zM153.2,183.0C152.7,183.0 151.0,181.3 149.3,179.2C147.6,177.2 145.4,173.7 144.3,171.5C143.2,169.3 141.7,165.8 141.0,163.7C140.4,161.6 140.0,159.7 140.2,159.4C140.5,159.2 142.3,161.4 144.3,164.3C146.2,167.3 149.2,172.4 150.9,175.8C152.6,179.2 154.0,182.2 154.0,182.5C154.0,182.8 153.6,183.0 153.2,183.0z" />

</svg>