<?xml version="1.0" encoding="UTF-8" standalone="no"?>
<svg 
  version="1.1" 
  xmlns="http://www.w3.org/2000/svg" 
  xmlns:xlink="http://www.w3.org/1999/xlink" 
  xmlns:svg="http://www.w3.org/2000/svg"
  xmlns:rdf="http://www.w3.org/1999/02/22-rdf-syntax-ns#"
  xmlns:cc="http://creativecommons.org/ns#"
  xmlns:dc="http://purl.org/dc/elements/1.1/"
  viewBox="0 0 768 768"
  width="768"
  height="768"
>
<style>svg {background-color: white; }</style>"
<metadata id="metadata1">
Created by https://svgstud.io and licensed under CC-BY-SA 4.0 license. Please attribute https://svgstud.io
</metadata>
<metadata id="prompt">
chrysanthemum
</metadata>
<metadata id="version">
7
</metadata>
<metadata id="metadata2">
<rdf:RDF>
<cc:Work
    rdf:about="">
    <cc:license
    rdf:resource="http://creativecommons.org/licenses/by-sa/4.0/" />
    <dc:creator>
        <cc:Agent>
            <dc:title>https://svgstud.io</dc:title>
        </cc:Agent>
    </dc:creator>
</cc:Work>
<cc:License
    rdf:about="http://creativecommons.org/licenses/by-sa/4.0/">
    <cc:permits
    rdf:resource="http://creativecommons.org/ns#Reproduction" />
    <cc:permits
    rdf:resource="http://creativecommons.org/ns#Distribution" />
    <cc:requires
    rdf:resource="http://creativecommons.org/ns#Notice" />
    <cc:requires
    rdf:resource="http://creativecommons.org/ns#Attribution" />
    <cc:permits
    rdf:resource="http://creativecommons.org/ns#DerivativeWorks" />
    <cc:requires
    rdf:resource="http://creativecommons.org/ns#ShareAlike" />
</cc:License>
</rdf:RDF>
</metadata>
<metadata id="uid">
e615eb8c5faeadc4942874d75c7b5ca23f1ef6105a4b5970249869ef23b58fab
</metadata>
<path stroke="none" fill="black" fill-rule="evenodd" d="M361.8,761.8C357.8,762.0 356.0,761.7 355.0,760.5C354.2,759.5 353.6,755.0 353.4,747.7C353.2,741.6 352.6,720.1 352.0,700.0C351.4,679.9 350.8,628.4 350.7,585.5C350.5,507.5 350.5,507.5 348.1,502.7C346.7,500.1 342.6,494.7 339.0,490.8C332.3,483.6 332.3,483.6 329.8,487.5C328.4,489.7 326.1,493.6 324.6,496.2C323.2,498.8 319.4,503.7 316.3,507.1C313.2,510.4 308.0,515.0 304.7,517.2C301.5,519.4 296.8,522.1 294.4,523.2C291.9,524.2 282.4,526.9 273.2,529.0C264.0,531.2 250.0,535.1 242.0,537.9C234.0,540.6 225.3,543.7 222.6,544.9C219.9,546.1 214.7,549.1 211.1,551.7C207.5,554.2 199.9,561.0 194.2,566.9C185.6,575.8 183.7,577.3 182.2,576.4C181.3,575.8 179.7,573.8 178.8,571.9C177.9,570.0 176.6,565.6 176.1,562.0C175.5,558.4 175.0,549.6 175.0,542.4C175.0,532.7 175.5,527.4 176.9,521.7C178.0,517.5 180.4,510.8 182.3,506.8C184.2,502.8 187.7,496.8 190.2,493.5C192.6,490.2 197.2,484.7 200.4,481.2C203.6,477.8 209.9,472.2 214.3,468.9C218.7,465.6 225.8,461.1 230.0,459.0C234.3,456.9 240.4,454.2 243.7,453.1C247.0,452.0 251.9,451.0 254.6,450.8C257.3,450.7 262.3,450.9 265.8,451.4C272.1,452.2 272.1,452.2 271.4,449.4C271.1,447.8 270.0,443.6 269.0,440.0C267.9,436.4 266.8,430.5 266.5,426.8C266.1,423.0 265.5,420.0 265.0,420.0C264.5,420.0 261.1,422.1 257.3,424.7C253.6,427.2 246.4,431.3 241.5,433.6C236.6,435.9 229.7,438.6 226.2,439.5C222.7,440.4 217.1,441.0 213.7,440.8C207.5,440.5 207.5,440.5 204.2,433.8C201.5,428.5 200.7,425.5 200.1,418.3C199.7,413.4 199.0,408.9 198.7,408.3C198.3,407.6 195.8,407.9 191.3,409.2C186.4,410.5 181.3,411.1 172.9,411.1C166.5,411.1 160.4,410.7 159.4,410.3C158.4,410.0 157.2,409.2 156.8,408.6C156.4,408.0 156.0,405.2 156.0,402.5C156.0,399.8 156.7,394.7 157.5,391.2C158.3,387.7 160.6,381.4 162.5,377.3C164.4,373.1 166.0,369.7 166.0,369.6C166.0,369.5 159.1,369.5 150.7,369.5C138.1,369.5 134.9,369.2 132.2,367.7C130.1,366.5 129.0,365.2 129.0,363.7C129.0,362.5 130.9,358.0 133.3,353.8C135.6,349.6 140.0,343.1 143.0,339.5C146.0,335.8 150.9,330.8 153.8,328.3C156.6,325.9 158.8,323.5 158.5,323.0C158.3,322.6 155.7,322.0 152.8,321.6C149.9,321.2 143.9,320.0 139.5,318.9C135.1,317.8 130.5,316.2 129.2,315.4C127.7,314.4 127.0,313.0 127.0,310.6C127.0,308.8 126.4,306.8 125.8,306.2C125.1,305.7 120.1,303.7 114.7,301.9C109.3,300.2 103.4,297.7 101.7,296.6C99.8,295.3 98.4,293.4 98.2,292.0C98.0,290.5 99.1,287.6 101.0,284.8C102.7,282.3 107.1,277.3 110.8,273.8C114.5,270.4 120.7,265.8 124.5,263.8C128.4,261.8 134.9,259.2 138.9,258.1C143.0,257.0 146.5,255.8 146.8,255.5C147.1,255.2 147.1,254.8 146.9,254.6C146.7,254.4 143.6,252.8 140.0,251.0C136.4,249.2 130.5,245.8 126.9,243.4C123.2,241.0 118.2,236.6 115.6,233.6C113.1,230.6 109.9,226.2 108.5,223.8C107.1,221.4 106.0,218.3 106.0,216.8C106.0,215.0 106.9,213.5 108.7,212.2C110.3,211.1 115.2,208.4 119.7,206.2C124.2,203.9 131.6,201.1 136.2,199.9C142.9,198.1 147.4,197.6 159.7,197.6C168.1,197.5 175.0,197.3 175.0,197.1C175.0,196.9 171.2,193.1 166.5,188.8C161.2,183.8 156.5,178.3 154.0,174.1C151.9,170.5 148.9,163.9 147.5,159.6C145.6,153.8 144.8,149.4 144.7,143.0C144.5,135.7 144.8,133.9 146.3,132.2C147.4,131.0 150.4,129.6 153.1,129.1C155.9,128.5 162.4,128.0 167.6,128.0C173.4,128.0 181.1,128.8 187.3,130.1C192.9,131.3 200.1,133.3 203.4,134.7C206.6,136.0 209.4,136.9 209.7,136.6C210.0,136.4 209.0,132.2 207.6,127.3C206.2,122.5 204.5,114.7 203.9,110.1C203.4,105.4 203.2,99.8 203.5,97.6C203.8,95.3 204.6,91.6 205.2,89.3C205.7,87.0 207.1,84.3 208.1,83.4C209.6,82.1 211.3,81.8 216.8,82.2C221.7,82.6 226.1,83.8 232.0,86.3C238.3,89.0 240.6,89.6 241.2,88.7C241.6,88.1 242.0,85.9 242.0,84.0C242.0,82.1 242.7,77.7 243.5,74.2C244.3,70.7 245.7,66.6 246.5,65.0C247.4,63.3 249.1,61.3 250.5,60.4C252.7,59.0 253.4,59.0 258.7,60.5C261.9,61.4 267.2,63.6 270.5,65.3C274.1,67.2 279.6,71.6 284.2,76.2C288.5,80.5 292.2,84.0 292.4,84.0C292.7,84.0 293.4,82.1 294.0,79.8C294.6,77.4 296.2,72.4 297.7,68.6C299.1,64.9 301.6,60.2 303.2,58.4C305.1,56.3 307.1,55.0 308.6,55.0C310.0,55.0 312.9,55.9 315.2,57.1C317.5,58.3 321.8,61.5 324.8,64.4C327.8,67.2 331.5,71.2 333.0,73.2C335.5,76.7 335.8,76.8 337.2,75.2C338.0,74.3 339.7,71.0 341.0,68.0C342.2,65.0 344.8,60.1 346.7,57.3C348.6,54.4 351.5,50.9 353.2,49.5C354.9,48.1 357.4,47.0 359.1,47.0C360.7,47.0 363.9,47.9 366.2,49.1C368.4,50.2 372.2,53.2 374.6,55.7C377.1,58.2 380.5,63.3 382.3,67.1C384.0,70.9 385.7,74.0 386.0,74.0C386.3,74.0 387.3,72.7 388.3,71.1C389.2,69.6 392.1,65.9 394.7,63.0C397.4,60.0 401.3,56.4 403.4,54.8C405.6,53.2 408.6,52.0 410.3,52.0C412.7,52.0 414.5,53.2 418.2,57.0C420.8,59.7 423.2,63.1 423.6,64.5C423.9,65.9 424.7,67.0 425.2,67.0C425.7,67.0 428.7,65.0 431.8,62.6C435.0,60.2 438.9,57.5 440.7,56.6C442.5,55.7 445.2,55.0 446.8,55.0C448.4,55.0 450.9,55.9 452.3,57.0C453.7,58.2 456.3,61.9 458.0,65.4C460.0,69.5 461.8,75.4 462.8,81.5C464.5,91.2 464.5,91.2 462.0,93.1C460.6,94.2 457.0,97.6 453.9,100.7C450.7,103.7 446.4,109.5 444.1,113.4C441.9,117.3 439.0,123.4 437.8,126.9C435.5,133.2 435.5,133.2 438.0,134.9C439.4,135.8 442.4,138.3 444.8,140.4C448.8,144.0 449.1,144.2 450.8,142.6C451.8,141.7 452.9,141.0 453.3,141.0C453.6,141.0 453.7,142.5 453.4,144.2C453.1,146.0 453.5,148.6 454.2,150.0C455.0,151.4 456.3,152.6 457.3,152.8C458.3,153.0 462.0,150.3 466.7,145.8C471.0,141.7 479.7,134.5 486.1,129.7C495.4,122.8 498.1,120.3 499.3,117.1C500.2,115.0 501.6,108.0 502.4,101.6C503.3,95.2 503.7,89.3 503.4,88.5C503.0,87.5 501.4,87.0 498.9,87.0C496.7,87.0 492.2,88.1 488.8,89.5C485.5,90.9 479.4,94.5 475.4,97.5C471.3,100.6 468.0,102.6 468.0,102.0C468.0,101.4 468.7,99.4 469.5,97.5C470.3,95.5 472.6,92.4 474.7,90.4C476.8,88.4 480.8,85.7 483.7,84.4C486.5,83.0 491.4,81.5 494.4,81.0C497.4,80.5 501.6,80.4 503.6,80.7C506.6,81.2 507.5,81.9 508.7,84.9C509.9,87.7 510.1,91.4 509.8,101.8C509.5,109.0 509.6,115.0 509.9,115.0C510.2,115.0 513.7,114.3 517.5,113.5C521.4,112.7 528.3,112.0 533.0,112.0C537.8,112.0 542.6,112.6 544.0,113.3C546.0,114.3 546.6,115.4 546.8,118.8C547.0,121.2 546.4,125.5 545.6,128.4C544.7,131.4 544.0,134.3 544.0,134.9C544.0,135.6 546.5,136.0 550.8,136.0C554.5,136.0 560.6,136.7 564.4,137.5C568.1,138.3 571.9,139.5 572.7,140.2C573.8,141.1 574.1,142.6 573.7,145.3C573.4,147.5 570.5,154.5 567.3,160.9C564.1,167.2 561.4,172.8 561.2,173.2C561.0,173.7 564.4,174.0 568.7,174.0C573.0,174.0 579.4,174.5 583.0,175.1C586.6,175.6 592.5,177.0 596.2,178.2C602.4,180.0 603.0,180.4 603.0,182.8C603.0,184.3 600.9,188.7 598.4,192.5C596.0,196.3 591.7,202.1 588.9,205.3C585.6,209.0 584.3,211.2 585.2,211.4C585.9,211.7 591.0,212.7 596.6,213.8C602.2,214.9 608.9,216.9 611.6,218.2C615.5,220.1 616.6,221.2 616.8,223.5C617.1,225.9 615.8,227.6 607.8,235.5C602.7,240.5 596.5,245.8 594.0,247.3C591.5,248.7 587.7,250.8 585.5,251.9C583.3,252.9 580.1,254.3 578.5,255.0C575.8,256.1 575.7,256.3 577.5,257.0C578.6,257.4 583.2,258.0 587.8,258.3C593.3,258.7 599.7,260.2 606.8,262.5C612.7,264.5 620.0,267.7 623.0,269.7C626.0,271.7 630.3,274.8 632.6,276.6C634.9,278.4 637.3,281.3 638.0,283.0C639.2,285.8 639.1,286.3 636.9,288.6C635.6,290.1 631.7,293.2 628.4,295.6C625.0,298.0 618.9,301.5 614.9,303.4C610.8,305.2 605.2,307.2 602.5,307.8C599.8,308.4 595.5,309.2 593.0,309.6C588.6,310.2 588.6,310.2 594.5,313.3C597.8,314.9 603.1,318.2 606.2,320.6C609.3,323.0 613.5,326.9 615.5,329.2C617.5,331.6 620.7,336.2 622.6,339.6C624.5,342.9 626.0,346.4 626.0,347.3C626.0,348.2 625.1,349.4 623.9,350.0C622.8,350.6 619.3,351.9 616.2,352.7C613.1,353.6 607.4,354.6 603.5,354.9C597.2,355.4 596.4,355.8 595.3,358.1C594.3,360.2 592.7,361.0 587.3,362.3C583.5,363.2 576.5,364.4 571.5,365.0C566.5,365.5 559.0,366.0 554.6,366.0C546.7,366.0 546.7,366.0 549.4,369.2C550.9,371.0 554.4,375.8 557.3,379.8C560.1,383.8 563.8,390.1 565.3,393.8C566.9,397.5 569.2,404.1 570.5,408.5C571.9,412.9 573.0,418.4 573.0,420.6C573.0,423.5 572.5,425.0 571.4,425.4C570.5,425.7 566.4,426.0 562.3,426.0C558.1,426.0 551.7,425.5 548.2,424.9C542.3,423.8 541.5,423.9 540.3,425.6C539.6,426.6 539.0,428.9 539.0,430.8C539.0,432.6 538.5,435.0 537.9,436.1C537.4,437.2 535.9,438.5 534.6,439.0C533.1,439.5 528.5,439.0 520.9,437.5C514.6,436.2 507.0,434.2 503.9,433.0C500.7,431.9 495.6,429.2 492.4,427.0C489.1,424.8 483.8,420.7 480.5,418.0C474.5,412.9 474.5,412.9 473.3,421.2C472.3,427.5 470.9,431.8 467.3,439.0C462.5,448.5 462.5,448.5 457.0,448.4C453.6,448.3 450.0,447.5 447.5,446.2C445.3,445.1 441.1,442.3 438.1,440.1C434.2,437.2 432.3,436.3 431.4,437.0C430.8,437.6 429.9,439.6 429.6,441.6C429.2,443.5 427.3,448.8 425.4,453.3C423.5,457.8 420.7,463.5 419.3,465.9C417.9,468.3 415.2,472.0 413.3,474.1C409.8,478.0 409.8,478.0 415.6,478.0C418.9,478.0 425.7,478.9 430.7,479.9C435.8,481.0 442.6,483.0 445.7,484.5C448.9,485.9 453.6,488.5 456.2,490.1C458.8,491.8 461.9,494.7 463.0,496.6C464.2,498.4 465.0,500.7 464.8,501.5C464.6,502.6 463.5,502.3 459.7,499.8C457.1,498.1 454.7,497.0 454.4,497.3C454.1,497.6 454.4,500.6 455.0,504.0C455.6,507.4 455.9,510.4 455.6,510.7C455.4,511.0 454.2,510.5 453.0,509.7C451.8,508.9 448.2,504.2 445.0,499.2C441.8,494.2 438.3,489.9 437.1,489.5C436.0,489.2 434.5,489.2 433.9,489.5C433.3,490.0 433.1,491.7 433.5,494.1C433.9,496.2 433.8,498.0 433.4,498.0C432.9,498.0 430.1,495.4 427.2,492.2C421.9,486.5 421.9,486.5 422.3,491.3C422.6,493.9 424.2,498.9 425.9,502.4C427.6,506.0 431.3,510.9 434.4,514.0C437.4,516.9 442.2,520.8 445.1,522.6C448.0,524.5 454.4,527.5 459.4,529.5C464.4,531.4 473.0,534.6 478.5,536.6C484.0,538.6 493.7,542.7 500.0,545.6C506.3,548.6 511.9,550.8 512.6,550.6C513.3,550.3 515.3,545.5 517.1,539.8C519.5,532.1 520.4,527.1 520.8,520.0C521.1,513.4 520.7,508.4 519.6,503.6C518.7,499.8 516.8,494.5 515.3,491.8C513.8,489.1 510.5,484.9 507.8,482.4C505.1,479.9 500.0,476.5 496.3,474.8C490.8,472.2 488.4,471.7 482.1,471.6C475.4,471.5 473.9,471.9 469.1,474.6C466.1,476.3 463.5,478.1 463.3,478.7C463.1,479.2 467.5,480.2 473.2,480.8C480.3,481.6 485.1,482.8 488.5,484.5C491.2,485.9 494.6,487.9 496.0,489.0C498.5,491.0 498.5,491.0 488.8,491.0C483.4,491.0 479.0,491.2 479.0,491.4C479.0,491.6 483.4,496.2 488.8,501.7C494.4,507.3 499.5,513.5 500.8,516.2C502.3,519.3 503.0,522.3 502.8,524.7C502.5,528.5 502.5,528.5 490.4,514.0C483.7,506.0 475.9,497.2 472.9,494.5C469.9,491.7 465.9,488.2 464.0,486.8C462.1,485.3 456.4,482.4 451.3,480.2C443.9,477.0 440.5,476.1 433.1,475.5C428.1,475.1 424.0,474.4 424.0,473.9C424.0,473.5 425.5,471.9 427.2,470.5C429.0,469.1 434.6,466.1 439.5,463.8C447.7,460.1 449.4,459.7 458.7,459.3C467.4,458.8 470.3,459.2 479.0,461.4C484.6,462.8 492.4,465.5 496.3,467.4C500.3,469.2 505.9,472.6 508.8,474.9C511.7,477.2 516.1,481.9 518.5,485.3C521.2,488.9 524.0,494.3 525.3,498.5C527.1,504.4 527.5,507.7 527.4,519.0C527.3,530.9 527.0,533.5 524.5,541.0C523.0,545.7 521.2,550.6 520.5,552.0C519.8,553.4 518.2,555.6 516.9,556.9C515.0,558.9 514.0,559.2 510.0,558.7C507.1,558.3 501.5,556.1 494.9,552.6C489.2,549.6 478.6,545.2 471.5,542.9C464.4,540.6 455.7,537.5 452.4,536.0C449.0,534.5 443.6,531.4 440.3,529.2C437.1,527.0 431.9,522.5 428.9,519.3C426.0,516.1 422.0,510.5 420.1,507.0C418.2,503.4 415.7,497.4 414.5,493.5C412.8,487.9 411.9,486.4 410.2,486.2C408.7,486.0 406.3,487.5 402.4,491.2C399.3,494.1 394.2,500.1 391.1,504.5C387.9,508.9 383.7,515.3 381.6,518.7C379.5,522.2 377.4,526.4 376.9,528.2C376.4,530.2 375.9,571.0 375.8,628.5C375.8,681.9 376.0,726.5 376.4,727.8C376.8,729.0 377.5,730.0 378.0,730.0C378.5,730.0 381.7,725.8 385.1,720.8C388.5,715.7 394.3,707.7 397.9,703.0C401.5,698.3 406.0,692.7 407.9,690.4C409.9,688.2 414.4,682.8 418.0,678.4C421.6,674.1 429.7,665.1 436.1,658.5C442.5,651.9 448.2,645.5 448.8,644.4C449.7,642.6 449.6,641.0 448.0,636.4C446.9,633.2 445.7,627.0 445.4,622.6C444.9,616.6 445.2,612.8 446.4,608.0C447.3,604.5 449.7,598.7 451.7,595.1C453.6,591.6 458.6,585.2 462.8,580.8C466.9,576.5 473.3,570.8 476.9,568.1C480.5,565.5 486.1,561.9 489.3,560.1C492.5,558.3 495.7,557.1 496.5,557.4C497.3,557.7 498.0,558.4 498.0,558.9C498.0,559.4 493.2,563.4 487.2,567.8C481.3,572.2 473.8,578.2 470.6,581.2C467.3,584.1 462.7,589.1 460.3,592.3C457.9,595.7 455.2,601.0 454.0,604.7C452.9,608.3 452.0,612.9 452.0,615.0C452.0,617.1 452.3,620.2 452.6,621.9C453.0,623.6 453.5,625.0 453.9,625.0C454.3,625.0 455.3,621.8 456.3,617.9C457.2,614.0 458.7,609.6 459.7,608.1C461.4,605.5 461.4,605.5 462.1,608.5C462.5,610.1 463.5,613.9 464.2,616.9C464.9,619.9 465.9,622.5 466.5,622.7C467.1,622.9 470.0,620.6 473.1,617.7C478.8,612.5 478.8,612.5 479.4,603.5C479.9,597.3 480.8,593.1 482.3,590.2C483.5,587.8 484.9,585.7 485.5,585.7C486.1,585.6 486.9,588.0 487.3,591.0C487.8,594.0 488.3,597.5 488.6,598.8C488.8,600.0 489.7,601.0 490.5,601.0C491.3,601.0 492.8,600.1 493.7,599.1C494.6,598.0 496.7,593.4 498.5,588.8C500.2,584.2 502.4,579.3 503.4,577.8C504.4,576.3 505.6,575.3 506.1,575.6C506.6,575.9 507.0,577.8 507.0,579.9C507.0,581.9 507.6,584.4 508.3,585.5C509.1,586.5 510.1,587.0 510.7,586.7C511.2,586.4 512.5,583.4 513.5,580.1C514.5,576.8 516.6,572.6 518.1,570.8C520.9,567.5 520.9,567.5 521.0,571.7C521.0,574.0 521.5,577.1 522.1,578.7C522.6,580.2 523.5,581.7 524.0,582.0C524.5,582.3 522.6,584.1 519.9,586.0C517.2,587.9 511.2,592.2 506.7,595.4C502.2,598.7 494.0,605.4 488.5,610.3C483.0,615.2 471.5,626.7 463.0,636.0C454.5,645.2 442.1,658.5 435.5,665.6C428.9,672.7 417.4,686.1 409.9,695.5C402.4,704.9 391.8,719.0 386.3,727.0C380.9,735.0 375.1,743.7 373.6,746.3C372.1,749.0 370.0,753.5 369.1,756.3C367.3,761.5 367.3,761.5 361.8,761.8zM380.3,762.0C378.3,762.0 376.7,761.4 376.4,760.5C376.1,759.7 376.7,757.8 377.7,756.3C378.8,754.8 381.1,750.8 382.9,747.5C384.8,744.2 389.9,736.1 394.3,729.5C398.7,722.9 404.5,714.7 407.2,711.3C409.8,707.9 415.0,701.3 418.7,696.7C422.5,692.1 429.1,684.1 433.5,678.9C437.9,673.7 448.8,661.6 457.7,652.0C466.6,642.4 479.2,629.5 485.7,623.4C492.2,617.3 499.1,611.0 501.0,609.3C502.9,607.6 508.5,603.5 513.5,600.0C518.4,596.6 527.1,591.1 532.8,587.8C538.4,584.5 545.9,580.6 549.3,579.0C552.7,577.5 562.9,572.9 572.0,569.0C581.1,565.0 592.3,560.3 597.0,558.5C601.7,556.7 608.4,553.6 612.0,551.7C615.6,549.7 623.0,545.7 628.5,542.9C634.0,540.0 639.8,537.3 641.4,536.9C644.4,536.0 644.4,536.0 640.9,539.6C639.0,541.6 634.9,545.0 631.7,547.2C626.8,550.6 625.9,551.6 626.3,553.6C626.7,555.7 626.3,556.0 624.0,556.0C622.5,556.0 619.3,556.6 616.9,557.4C614.5,558.2 609.8,560.0 606.5,561.4C603.2,562.7 600.4,564.3 600.2,564.9C600.0,565.4 602.1,566.5 604.8,567.4C607.5,568.2 611.2,569.5 612.9,570.4C614.6,571.3 616.0,572.5 616.0,573.1C616.0,573.9 612.7,574.0 605.2,573.6C599.3,573.3 590.8,572.7 586.3,572.4C578.2,571.8 578.1,571.8 572.1,575.5C568.7,577.6 565.6,579.8 565.0,580.5C564.3,581.4 566.6,582.4 574.5,584.5C580.3,586.0 586.2,588.2 587.6,589.3C589.6,590.8 589.9,591.5 588.8,592.1C588.1,592.6 585.7,593.0 583.5,593.0C581.3,593.0 572.5,592.1 564.0,590.9C555.2,589.6 546.9,589.0 544.9,589.4C543.0,589.7 537.3,592.7 532.2,596.0C527.1,599.2 523.0,602.4 523.0,602.9C523.0,603.4 525.6,604.4 528.8,605.0C531.9,605.7 539.0,607.6 544.5,609.2C550.0,610.8 555.5,612.8 556.8,613.6C558.0,614.4 559.0,615.7 559.0,616.5C559.0,617.7 557.7,618.0 553.2,617.9C550.1,617.9 544.1,617.2 540.0,616.5C535.9,615.7 527.7,614.3 521.8,613.4C515.9,612.5 510.1,612.0 508.8,612.3C507.5,612.7 504.3,614.9 501.5,617.3C497.0,621.4 496.7,621.8 498.5,622.7C499.6,623.2 503.4,624.4 507.0,625.4C510.6,626.3 514.6,628.0 516.0,629.0C518.1,630.7 518.3,631.1 517.0,632.0C516.1,632.7 512.7,632.9 508.5,632.6C504.6,632.3 498.5,631.8 494.9,631.4C488.3,630.8 488.2,630.8 484.5,634.1C482.4,636.0 479.7,638.5 478.3,639.8C477.0,641.0 476.1,642.4 476.4,642.9C476.7,643.3 479.5,644.4 482.7,645.3C485.9,646.2 493.2,647.9 498.9,649.0C504.6,650.1 513.4,651.5 518.4,651.9C523.4,652.4 533.3,652.4 540.5,651.9C547.6,651.4 557.0,650.2 561.2,649.1C565.5,648.0 573.1,645.3 578.3,643.2C583.4,641.1 592.3,636.2 598.0,632.5C604.9,628.1 611.6,622.6 617.6,616.5C623.3,610.6 628.6,604.0 631.9,598.5C634.8,593.7 638.1,587.3 639.1,584.2C640.2,581.0 642.7,572.7 644.6,565.5C646.6,558.4 649.4,549.8 651.0,546.4C652.5,543.1 655.4,537.9 657.4,534.9C659.4,532.0 661.0,529.0 661.0,528.3C661.0,527.3 658.7,527.0 652.2,527.0C647.4,527.1 633.1,527.5 620.5,528.0C605.7,528.5 593.6,529.6 586.5,530.8C580.5,531.9 572.8,533.5 569.5,534.4C566.2,535.2 556.4,538.8 547.7,542.3C539.1,545.8 532.0,548.4 532.0,547.9C532.0,547.5 534.1,545.3 536.8,543.0C539.4,540.6 545.2,537.0 549.8,534.9C554.4,532.8 562.3,529.9 567.3,528.5C572.4,527.2 582.4,525.2 589.5,524.1C596.6,523.0 609.4,521.9 617.8,521.5C626.2,521.1 641.2,521.1 651.0,521.5C661.6,522.0 669.6,522.7 670.5,523.4C671.8,524.3 671.4,525.4 667.5,531.5C665.0,535.4 661.2,542.1 659.1,546.5C656.9,550.9 653.8,559.9 652.1,566.5C650.4,573.1 647.9,581.8 646.5,585.9C645.2,590.0 642.8,595.4 641.4,597.9C639.9,600.4 636.4,605.7 633.5,609.6C630.6,613.5 625.7,619.4 622.7,622.7C619.6,626.0 612.9,631.8 607.8,635.7C602.7,639.6 595.1,644.5 591.0,646.8C586.9,649.0 579.6,652.2 574.7,653.9C569.9,655.6 561.4,657.9 555.9,659.0C548.6,660.4 541.8,661.0 531.8,661.0C524.1,661.0 513.0,660.3 507.1,659.4C501.3,658.6 490.8,656.3 483.7,654.4C476.4,652.4 470.4,651.3 469.6,651.7C468.8,652.1 462.9,658.4 456.3,665.5C449.8,672.6 440.4,683.3 435.4,689.1C430.4,694.9 422.2,705.1 417.2,711.8C412.2,718.4 405.6,727.6 402.7,732.2C399.7,736.8 394.9,744.8 392.0,750.0C389.1,755.2 386.0,760.1 385.2,760.8C384.3,761.4 382.1,762.0 380.3,762.0zM365.2,708.0C365.7,706.1 366.5,672.3 367.1,633.0C367.8,582.1 367.8,552.7 367.0,531.0C366.4,514.2 365.3,492.7 364.5,483.3C363.3,468.5 362.7,465.2 360.4,460.0C358.9,456.7 357.4,454.0 356.9,454.0C356.5,454.0 355.8,456.1 355.4,458.8C355.0,461.4 355.2,479.0 355.9,498.0C356.5,517.0 357.0,562.0 356.9,598.0C356.9,639.9 357.2,669.1 358.0,679.0C358.6,687.5 359.8,697.4 360.7,701.0C361.6,704.6 362.7,708.4 363.3,709.5C364.3,711.3 364.5,711.2 365.2,708.0zM529.0,580.0C528.5,580.0 531.1,575.8 534.7,570.8C538.4,565.7 542.6,560.4 544.2,559.1C545.8,557.8 547.3,557.0 547.6,557.2C547.8,557.5 547.6,558.9 547.0,560.4C546.5,561.9 546.0,565.1 546.0,567.5C546.0,571.3 545.6,572.2 542.8,574.3C541.0,575.7 537.3,577.5 534.7,578.4C532.1,579.3 529.5,580.0 529.0,580.0zM185.3,565.4C186.1,565.1 188.2,562.9 190.0,560.4C191.8,557.9 196.6,552.9 200.8,549.4C205.8,545.1 212.3,541.0 219.4,537.4C225.4,534.5 233.9,530.9 238.4,529.6C242.9,528.3 250.8,526.0 256.0,524.6C261.2,523.2 269.8,521.2 275.0,520.1C280.2,519.1 288.1,516.8 292.5,514.9C299.3,512.1 301.7,510.4 308.5,503.6C313.7,498.3 317.5,493.6 319.2,490.0C320.6,487.0 322.0,483.3 322.4,481.7C322.9,479.7 322.6,478.8 321.6,478.4C320.6,478.0 317.1,480.5 312.0,485.1C307.6,489.1 302.6,493.3 300.9,494.3C299.3,495.4 297.7,496.0 297.4,495.7C297.1,495.4 297.3,493.6 297.9,491.8C298.5,490.0 300.3,486.5 302.0,484.0C303.6,481.5 304.6,479.4 304.1,479.2C303.6,479.0 301.7,479.6 300.0,480.5C298.3,481.4 295.0,484.0 292.7,486.3C290.4,488.6 285.6,494.0 282.1,498.4C277.8,503.8 275.5,505.9 275.0,505.0C274.6,504.3 274.6,502.6 275.0,501.1C275.4,499.7 277.1,495.6 278.8,492.0C281.2,487.0 281.5,485.4 280.4,485.2C279.7,485.0 274.4,487.3 268.8,490.2C259.8,494.9 257.9,496.4 252.4,503.0C249.0,507.1 244.7,511.6 243.0,512.9C239.7,515.3 239.7,515.3 240.3,512.8C240.7,511.5 241.6,508.8 242.4,506.8C243.3,504.8 246.3,500.7 249.2,497.5C252.1,494.3 257.5,489.3 261.3,486.3C265.0,483.3 270.6,479.5 273.6,477.9C276.6,476.4 280.9,474.5 283.1,473.9C285.3,473.2 286.9,472.2 286.7,471.6C286.5,471.0 285.0,470.1 283.3,469.6C281.0,469.0 278.3,469.3 273.1,470.9C268.7,472.2 263.0,475.1 257.8,478.7C253.2,481.8 246.6,486.7 243.0,489.6C239.4,492.5 231.8,500.0 226.0,506.2C220.2,512.4 212.2,520.9 208.2,525.0C200.8,532.5 200.8,532.5 201.4,529.0C201.8,527.1 203.3,523.5 204.8,521.0C206.3,518.5 210.6,514.1 214.3,511.1C218.0,508.2 221.0,505.1 221.0,504.3C221.0,503.2 219.4,503.0 214.0,503.1C210.1,503.2 206.6,503.0 206.2,502.6C205.8,502.2 206.5,501.0 207.8,499.9C209.1,498.9 211.8,497.6 213.8,497.0C215.8,496.5 219.3,496.0 221.5,496.0C223.7,496.0 227.3,495.5 229.4,495.0C232.1,494.4 235.0,492.5 238.8,488.7C241.9,485.6 244.0,482.7 243.6,482.1C243.2,481.5 239.8,481.0 235.4,481.0C229.8,481.0 227.9,480.7 228.2,479.8C228.4,479.1 230.3,477.7 232.3,476.7C234.8,475.4 239.7,474.6 247.4,474.0C253.6,473.6 259.3,473.0 259.9,472.6C260.5,472.2 261.0,471.2 261.0,470.4C261.0,469.6 259.1,468.1 256.8,467.0C254.4,466.0 250.0,464.6 246.9,464.0C243.8,463.3 239.6,463.0 237.7,463.4C235.7,463.8 231.0,465.6 227.2,467.5C222.6,469.8 217.2,473.9 211.2,479.6C206.2,484.3 199.9,490.9 197.2,494.3C194.5,497.7 190.6,503.9 188.5,508.0C186.3,512.4 184.0,519.1 182.9,524.5C181.9,529.4 181.0,537.3 181.0,542.0C181.0,546.7 181.5,553.4 182.0,557.0C182.6,560.6 183.3,564.1 183.5,564.7C183.7,565.4 184.6,565.7 185.3,565.4zM561.1,566.0C560.5,566.0 560.0,565.6 560.0,565.1C560.0,564.6 561.8,561.5 564.1,558.1C566.3,554.8 569.8,550.7 571.8,549.0C573.8,547.4 575.9,546.0 576.3,546.0C576.8,546.0 576.9,546.8 576.5,547.8C576.1,548.7 575.2,551.9 574.5,554.8C573.8,557.7 572.5,560.9 571.6,561.9C570.7,562.9 568.2,564.2 566.1,564.8C564.0,565.5 561.8,566.0 561.1,566.0zM590.2,554.5C588.4,554.9 587.0,554.8 587.0,554.2C587.0,553.7 588.0,551.8 589.2,550.0C590.5,548.2 593.2,545.3 595.2,543.7C597.3,542.0 599.2,540.9 599.6,541.2C599.9,541.5 599.7,543.6 599.1,545.7C598.5,547.9 597.0,550.6 595.8,551.7C594.5,552.8 592.0,554.1 590.2,554.5zM611.4,545.0C609.7,545.0 609.2,544.6 609.6,543.5C610.0,542.6 611.1,541.5 612.1,541.0C613.1,540.4 614.9,540.0 616.1,540.0C618.3,540.0 618.3,540.0 616.0,542.5C614.7,543.9 612.6,545.0 611.4,545.0zM374.9,511.0C375.2,511.0 377.9,507.7 380.9,503.6C383.9,499.5 389.4,493.1 393.1,489.4C396.9,485.6 400.0,482.0 400.0,481.4C400.0,480.8 397.6,479.1 394.7,477.7C391.8,476.2 387.8,473.8 385.8,472.3C383.8,470.8 379.8,467.5 377.0,465.0C371.7,460.6 371.7,460.6 372.4,481.5C372.8,493.1 373.3,504.4 373.7,506.8C374.0,509.1 374.5,511.0 374.9,511.0zM349.7,487.6C349.9,487.4 349.4,475.8 348.6,461.9C347.7,447.9 346.7,433.9 346.4,430.7C345.8,424.8 345.8,424.8 342.7,428.7C341.0,430.8 336.8,435.4 333.5,438.9C330.2,442.4 322.4,449.4 316.1,454.4C304.7,463.5 304.7,463.5 310.4,464.2C313.5,464.6 318.1,465.9 320.7,467.0C323.2,468.1 328.4,471.4 332.3,474.3C336.2,477.1 341.7,481.4 344.4,483.7C347.1,486.1 349.5,487.8 349.7,487.6zM446.8,474.0C447.7,474.0 450.5,473.1 452.9,472.0C455.3,470.9 457.0,469.7 456.6,469.3C456.2,468.9 454.3,468.7 452.2,468.8C450.2,469.0 447.8,469.8 446.8,470.7C445.8,471.6 445.0,472.7 445.0,473.2C445.0,473.6 445.8,474.0 446.8,474.0zM403.2,472.0C404.1,472.0 406.1,470.8 407.5,469.2C408.9,467.7 412.3,462.2 415.0,457.0C417.7,451.7 420.8,444.1 421.9,440.0C423.1,435.9 424.0,430.9 424.0,429.0C424.0,426.2 422.6,423.5 417.8,416.7C414.3,412.0 411.2,408.0 410.7,408.0C410.3,408.0 410.1,412.4 410.2,417.8C410.3,423.1 410.1,429.0 409.6,430.8C409.2,432.5 408.4,434.0 408.0,434.0C407.5,434.0 406.5,432.2 405.9,430.0C405.2,427.8 403.5,420.3 402.1,413.3C400.7,406.2 399.1,400.6 398.5,400.7C398.0,400.8 396.5,404.1 395.2,408.0C393.8,412.0 392.4,414.8 391.9,414.3C391.5,413.9 390.3,410.3 389.3,406.5C388.3,402.6 387.4,399.3 387.3,399.1C387.1,398.9 386.1,399.5 385.0,400.5C384.0,401.4 382.4,404.1 381.6,406.4C380.8,408.6 379.9,411.8 379.5,413.3C379.2,414.9 378.4,416.0 377.7,415.7C377.0,415.5 375.6,412.7 374.5,409.4C372.9,404.9 372.0,403.5 370.5,403.5C369.0,403.5 368.1,404.7 367.0,408.4C365.4,413.3 365.4,413.3 362.2,406.1C360.1,401.3 358.6,399.1 357.9,399.6C357.1,400.1 356.9,403.0 357.3,409.4C357.6,414.4 358.8,421.6 360.0,425.5C361.2,429.4 363.8,435.4 365.7,439.0C367.7,442.6 370.8,447.6 372.7,450.1C374.5,452.7 379.0,457.3 382.8,460.3C386.5,463.3 392.2,467.1 395.5,468.8C398.8,470.5 402.3,471.9 403.2,472.0zM289.7,462.0C290.5,462.0 292.5,461.3 294.3,460.4C296.1,459.5 301.3,455.8 306.0,452.1C310.7,448.5 318.7,441.5 323.8,436.5C329.2,431.3 335.6,423.9 338.8,419.0C342.7,413.2 345.5,407.4 347.7,400.7C350.2,393.0 350.7,390.3 349.9,387.8C349.5,386.1 348.2,383.7 347.1,382.6C346.1,381.4 343.9,377.8 342.2,374.5C340.2,370.6 339.0,369.0 338.6,370.0C338.3,370.8 336.5,376.0 334.6,381.4C332.6,386.9 330.4,392.0 329.6,392.8C328.3,394.1 328.0,394.0 327.4,391.6C327.0,390.0 327.0,386.2 327.3,383.0C327.7,379.8 328.2,375.3 328.6,373.1C329.0,370.3 328.9,369.0 328.1,369.0C327.5,369.0 325.0,370.8 322.7,372.9C320.2,375.2 315.7,381.6 312.1,387.9C308.7,394.0 305.4,399.0 304.9,399.0C304.4,399.0 304.0,397.1 304.0,394.8C304.0,392.4 304.5,388.5 305.1,386.1C305.6,383.7 305.7,381.4 305.3,381.0C304.9,380.6 303.5,379.9 302.2,379.5C300.4,379.0 299.2,379.5 296.7,382.2C294.9,384.1 292.1,388.6 290.3,392.2C288.3,396.2 286.5,402.1 285.5,407.6C284.7,412.5 283.7,417.8 283.4,419.4C282.8,422.4 282.8,422.4 281.5,419.9C280.8,418.6 279.9,415.3 279.6,412.7C278.9,408.4 278.7,408.0 277.3,409.2C276.4,409.9 275.1,411.9 274.3,413.7C273.6,415.5 273.0,419.8 273.0,423.2C273.0,426.7 273.7,432.2 274.4,435.5C275.2,438.8 276.8,443.6 277.9,446.2C279.0,448.9 281.8,453.5 284.1,456.5C286.4,459.5 288.9,462.0 289.7,462.0zM456.1,441.0C457.0,441.0 458.4,440.2 459.2,439.2C460.1,438.3 461.8,434.4 462.9,430.5C464.1,426.7 465.3,420.4 465.6,416.5C466.0,412.1 465.6,405.8 464.6,399.7C463.7,394.4 461.1,384.9 458.9,378.7C456.6,372.6 453.8,365.7 452.5,363.5C451.2,361.3 446.9,356.4 442.9,352.5C438.9,348.6 435.5,346.0 435.3,346.7C435.1,347.4 435.4,348.8 436.0,349.9C436.6,351.1 438.0,356.8 439.0,362.7C440.1,368.6 441.0,374.0 441.0,374.7C441.0,375.4 440.7,376.0 440.2,376.0C439.8,376.0 437.8,373.4 435.8,370.2C433.8,367.1 431.0,361.9 429.6,358.6C427.4,353.8 426.8,353.0 425.6,353.9C424.8,354.6 423.4,357.2 422.6,359.7C421.7,362.3 421.0,367.5 421.0,371.3C421.0,377.5 420.8,378.1 419.4,376.9C418.6,376.2 417.0,373.9 415.9,371.8C414.2,368.5 413.5,367.9 411.2,368.2C409.0,368.4 408.3,369.2 407.6,372.2C406.9,374.8 407.1,377.7 408.3,382.5C409.2,386.1 411.7,392.8 413.8,397.3C416.0,401.8 420.6,409.4 424.1,414.1C427.6,418.8 433.9,425.7 438.0,429.4C442.1,433.1 447.5,437.2 450.0,438.5C452.5,439.8 455.2,440.9 456.1,441.0zM216.4,432.6C219.2,432.3 224.9,430.9 228.9,429.5C233.0,428.2 239.7,425.2 243.9,422.9C248.1,420.7 254.4,416.6 258.0,414.0C261.6,411.3 268.1,405.4 272.6,400.8C277.0,396.3 283.2,388.6 286.3,383.8C289.4,379.0 292.0,374.7 292.0,374.3C292.0,373.9 290.6,371.5 289.0,369.0C287.3,366.5 284.8,361.9 283.3,358.8C281.9,355.6 280.1,353.0 279.4,353.0C278.7,353.0 276.0,355.6 273.3,358.9C270.7,362.1 267.6,365.3 266.6,366.0C264.8,367.1 264.7,366.9 265.2,362.7C265.5,359.9 267.6,354.9 270.9,349.0C273.8,344.0 275.9,339.6 275.6,339.3C275.3,339.0 273.3,339.9 271.2,341.3C269.1,342.7 264.5,346.1 261.1,349.0C257.7,351.9 251.9,357.9 248.4,362.4C244.8,366.8 239.2,374.9 235.8,380.3C232.4,385.7 228.8,390.6 227.8,391.1C226.3,391.9 226.0,391.7 226.0,389.5C226.0,388.1 227.3,383.9 228.9,380.2C230.4,376.5 234.0,369.4 236.8,364.5C239.6,359.6 241.8,355.4 241.5,355.2C241.3,355.0 240.1,355.4 238.8,356.1C237.6,356.7 233.9,359.3 230.7,361.8C227.6,364.3 224.8,366.1 224.6,365.9C224.4,365.7 224.8,363.8 225.5,361.8C226.2,359.7 226.4,358.0 226.0,358.0C225.6,358.0 223.5,359.3 221.4,360.9C219.3,362.5 214.1,367.2 210.0,371.4C205.9,375.6 202.2,379.0 201.8,379.0C201.3,379.0 201.0,378.3 201.0,377.5C201.0,376.6 202.1,373.8 203.4,371.2C204.7,368.6 207.7,364.1 209.9,361.1C212.9,357.0 213.7,355.4 212.8,354.8C212.1,354.3 209.4,354.2 206.8,354.6C202.8,355.1 202.0,354.9 202.0,353.6C202.0,352.7 200.5,351.1 198.8,350.0C197.0,349.0 194.9,347.6 194.1,346.9C193.1,346.0 193.0,344.4 193.5,340.6C193.8,337.8 195.0,332.9 196.1,329.7C197.2,326.4 198.0,323.4 197.8,322.9C197.6,322.5 193.5,323.9 188.5,326.1C183.6,328.4 178.1,330.4 176.3,330.7C174.5,331.0 173.0,330.9 173.0,330.4C173.0,329.9 173.7,328.4 174.6,327.2C176.0,325.1 176.0,325.0 173.8,325.0C172.5,325.0 169.0,326.2 166.1,327.7C163.1,329.1 157.9,333.0 154.4,336.3C150.9,339.5 145.8,345.7 143.0,349.9C140.3,354.1 138.0,358.3 138.0,359.2C138.0,360.3 139.1,361.2 140.7,361.6C142.2,362.0 149.1,361.8 156.0,361.2C164.4,360.5 170.9,359.3 175.9,357.6C180.0,356.2 183.5,355.0 183.7,355.0C183.9,355.0 183.6,355.8 183.1,356.9C182.5,357.9 180.6,360.5 178.7,362.8C176.8,365.0 173.5,370.3 171.3,374.6C169.1,379.0 166.0,386.4 164.5,391.1C162.9,395.8 162.0,400.5 162.3,401.4C162.9,402.9 164.1,403.0 172.2,402.4C177.3,402.1 184.5,401.2 188.1,400.5C191.7,399.8 197.7,397.8 201.5,396.1C205.2,394.4 208.4,393.1 208.6,393.2C208.7,393.4 208.2,396.4 207.4,400.0C206.7,403.6 206.0,408.8 206.0,411.7C206.0,414.6 206.5,419.3 207.1,422.2C207.7,425.1 208.9,428.8 209.7,430.4C211.1,433.1 211.4,433.2 216.4,432.6zM531.2,431.9C531.6,432.0 532.2,430.4 532.6,428.5C532.9,426.6 532.7,422.0 532.1,418.3C531.4,414.5 530.2,409.2 529.3,406.5C528.5,403.8 526.2,398.5 524.3,394.8C522.4,391.2 519.3,386.4 517.4,384.2C515.5,382.0 511.1,378.6 507.5,376.6C503.9,374.6 500.0,373.0 498.9,373.0C497.0,373.0 497.0,373.3 499.9,378.2C501.5,381.1 503.6,386.3 504.6,389.8C505.5,393.2 506.0,396.3 505.7,396.7C505.3,397.1 503.6,396.0 501.9,394.4C500.1,392.8 495.5,387.4 491.5,382.5C487.5,377.6 483.4,372.7 482.3,371.8C481.3,370.8 478.7,369.4 476.6,368.5C474.5,367.6 472.6,367.1 472.4,367.3C472.2,367.5 473.9,371.8 476.1,376.9C478.4,382.0 480.0,386.4 479.7,386.7C479.4,386.9 478.2,386.6 477.0,386.0C475.8,385.4 473.1,383.2 470.9,381.3C468.8,379.4 467.0,378.0 467.0,378.2C467.0,378.5 468.1,381.9 469.4,385.8C470.8,389.8 473.1,395.4 474.7,398.3C476.2,401.1 481.0,407.0 485.3,411.3C490.8,416.6 495.4,420.1 500.4,422.5C504.3,424.5 512.7,427.4 519.0,429.0C525.3,430.5 530.8,431.9 531.2,431.9zM561.3,417.9C563.1,418.0 564.3,417.4 564.7,416.3C565.1,415.4 564.1,411.0 562.6,406.5C561.0,402.1 558.5,396.0 556.9,393.0C555.3,390.0 551.6,384.8 548.6,381.5C545.7,378.2 541.6,374.6 539.7,373.5C537.7,372.5 535.7,371.9 535.3,372.3C534.9,372.8 536.5,376.6 538.8,380.9C541.1,385.2 543.0,389.7 543.0,390.9C543.0,392.0 542.6,393.0 542.1,393.0C541.6,393.0 538.8,391.4 536.0,389.5C533.1,387.5 530.3,386.1 529.9,386.2C529.4,386.4 530.1,388.8 531.4,391.7C532.7,394.5 535.0,400.7 536.4,405.4C537.9,410.1 539.6,414.3 540.3,414.7C540.9,415.1 545.3,416.0 550.0,416.6C554.7,417.2 559.8,417.8 561.3,417.9zM378.1,395.0C378.9,395.0 380.3,394.4 381.2,393.8C382.0,393.1 385.6,388.9 389.1,384.5C392.6,380.1 396.6,374.1 398.0,371.2C399.8,367.1 400.2,365.5 399.3,364.2C398.6,363.0 396.8,362.5 393.6,362.4C389.3,362.3 388.4,361.8 383.4,356.9C380.5,354.0 377.1,349.6 375.9,347.1C374.8,344.7 373.4,340.2 372.9,337.2C372.4,334.1 372.2,331.5 372.4,331.3C372.5,331.1 374.8,333.9 377.5,337.6C380.2,341.2 384.0,345.6 386.1,347.4C388.2,349.1 394.3,352.5 399.6,354.7C406.6,357.7 409.8,358.6 411.0,358.0C412.0,357.5 414.2,354.8 416.0,352.0C417.8,349.3 420.1,344.2 421.2,340.7C422.8,335.8 423.1,332.8 422.7,326.5C422.3,321.1 421.1,315.8 419.1,310.4C417.5,305.9 414.3,298.4 412.0,293.9C409.7,289.3 406.2,283.8 404.2,281.8C402.2,279.7 399.8,278.0 398.7,278.0C397.4,278.0 397.0,278.5 397.4,279.8C397.7,280.7 398.4,283.8 399.0,286.5C399.6,289.2 400.1,295.0 400.1,299.3C400.2,303.6 400.0,307.3 399.8,307.5C399.6,307.7 398.2,305.5 396.7,302.7C395.3,299.8 392.6,293.8 390.9,289.2C389.2,284.6 387.2,280.6 386.4,280.3C385.6,280.0 384.1,280.5 383.0,281.5C382.0,282.4 380.2,285.1 379.1,287.5C378.0,289.9 376.3,295.2 375.4,299.2C373.7,306.5 373.7,306.5 371.8,302.5C370.3,299.2 370.0,296.8 370.3,289.2C370.6,282.2 370.4,280.0 369.4,280.0C368.7,280.0 366.6,281.8 364.7,284.1C361.9,287.3 359.9,292.0 355.1,306.5C351.7,316.6 348.1,329.2 347.0,334.5C345.9,339.9 345.0,346.8 345.0,349.9C345.0,353.0 345.7,358.3 346.5,361.8C347.3,365.2 349.1,370.3 350.5,373.0C351.9,375.7 355.6,380.7 358.8,384.0C362.9,388.4 366.1,390.7 370.5,392.5C373.8,393.9 377.2,395.0 378.1,395.0zM305.0,369.4C307.5,369.1 311.8,367.8 314.6,366.4C317.5,365.1 323.1,360.7 327.2,356.7C332.1,352.0 335.5,347.5 337.4,343.7C338.9,340.5 341.7,331.2 343.6,323.2C345.5,315.1 347.8,305.4 348.7,301.7C349.5,298.0 349.9,294.6 349.5,294.2C349.2,293.8 348.4,294.3 347.9,295.3C347.3,296.2 344.2,300.4 340.9,304.5C337.6,308.6 331.4,315.1 327.2,319.0C323.0,322.9 316.5,328.1 312.9,330.6C307.3,334.4 305.9,335.0 304.2,334.1C302.9,333.4 301.2,333.4 298.9,334.0C297.0,334.6 293.9,335.0 291.9,335.0C288.9,335.0 288.1,335.4 287.6,337.2C287.3,338.5 287.0,340.9 287.0,342.6C287.0,344.4 288.0,348.9 289.1,352.6C290.3,356.4 292.1,361.2 293.1,363.2C294.2,365.3 296.2,367.6 297.8,368.5C299.6,369.5 301.9,369.8 305.0,369.4zM494.1,358.9C500.6,359.0 503.1,358.6 504.0,357.5C505.0,356.3 505.0,354.3 504.1,347.8C503.2,341.9 501.7,337.1 498.9,331.2C496.0,325.3 493.1,321.1 488.7,316.7C483.8,311.7 481.3,310.1 476.9,308.7C473.8,307.8 470.3,307.0 469.0,307.0C466.9,307.0 466.8,307.1 468.4,309.2C469.3,310.5 471.0,313.3 472.1,315.5C473.3,317.7 474.6,320.7 475.1,322.2C475.5,323.8 475.5,325.0 474.9,325.0C474.4,325.0 468.0,319.1 460.5,311.9C453.1,304.6 444.9,297.3 442.3,295.5C439.7,293.7 433.4,288.6 428.5,284.0C421.3,277.4 419.4,276.2 419.2,277.7C419.0,278.8 421.0,283.3 423.5,287.7C426.0,292.2 428.7,297.7 429.5,300.1C430.3,302.4 431.0,304.4 431.0,304.7C431.0,304.9 429.3,303.9 427.3,302.6C425.3,301.2 423.4,300.2 423.2,300.4C423.0,300.7 423.8,304.6 425.0,309.2C426.2,313.8 428.5,320.3 430.1,323.6C432.2,328.1 435.2,331.8 440.9,337.2C445.5,341.5 451.7,346.2 455.8,348.3C459.7,350.4 464.8,352.8 467.2,353.6C469.6,354.5 474.6,356.1 478.5,357.1C482.4,358.1 489.3,358.9 494.1,358.9zM559.7,356.9C562.6,356.9 569.6,356.5 575.2,355.9C581.4,355.3 586.1,354.2 587.0,353.4C588.2,352.2 588.2,351.4 587.3,348.9C586.6,347.1 584.1,342.3 581.8,338.1C579.0,333.1 574.5,327.5 569.0,322.0C563.0,316.0 558.3,312.3 553.0,309.6C548.9,307.4 543.7,305.3 541.5,304.9C539.3,304.5 534.0,303.5 529.7,302.6C525.4,301.7 520.7,300.7 519.2,300.4C517.0,299.8 517.8,300.9 523.8,306.8C527.7,310.6 531.0,314.1 531.0,314.5C531.0,314.9 529.5,314.8 527.8,314.4C526.0,314.1 522.6,312.8 520.3,311.7C517.9,310.5 515.8,309.9 515.5,310.2C515.2,310.5 515.7,312.4 516.6,314.4C517.6,316.3 518.1,318.2 517.8,318.5C517.5,318.8 513.3,317.3 508.5,315.0C503.7,312.8 499.1,311.0 498.4,311.0C497.6,311.0 497.0,311.2 497.0,311.4C497.0,311.6 498.6,314.3 500.5,317.5C502.4,320.7 505.3,326.9 507.0,331.4C508.6,335.8 510.6,340.6 511.4,342.0C512.2,343.5 516.0,346.2 520.6,348.5C525.0,350.7 529.9,353.1 531.5,353.7C533.2,354.4 539.0,355.4 544.5,355.8C550.0,356.3 556.8,356.8 559.7,356.9zM604.5,346.0C611.6,346.0 615.2,345.6 616.5,344.6C618.3,343.3 618.3,342.9 617.0,340.6C616.2,339.1 614.1,336.1 612.2,334.0C610.4,331.8 605.8,328.2 602.1,326.0C598.4,323.8 594.8,322.0 594.1,322.0C593.4,322.0 594.2,323.7 595.9,325.9C598.1,328.7 598.6,329.9 597.7,330.3C597.0,330.6 594.4,330.4 591.9,329.9C589.5,329.5 586.7,329.1 585.7,329.0C583.9,329.0 583.9,329.2 586.0,332.2C587.2,334.0 588.8,337.1 589.7,339.0C590.5,340.9 591.9,343.3 592.8,344.2C594.0,345.7 596.1,346.0 604.5,346.0zM221.0,344.6C237.0,344.3 237.8,344.2 248.5,340.6C254.6,338.5 261.6,335.5 264.2,333.9C266.7,332.2 269.9,329.8 271.3,328.4C273.6,326.1 273.8,325.2 273.8,316.0C273.8,310.5 273.5,306.0 273.2,306.0C272.8,306.0 270.2,307.5 267.4,309.4C264.6,311.3 259.5,314.3 256.2,316.1C252.9,317.8 249.6,319.0 249.0,318.8C248.3,318.6 249.1,316.8 250.9,314.2C253.5,310.7 253.7,310.0 252.3,310.0C251.3,310.0 248.7,310.9 246.5,311.9C244.3,312.9 238.9,316.3 234.5,319.5C230.2,322.6 225.5,325.6 224.2,326.1C222.9,326.6 221.7,327.0 221.4,327.0C221.1,327.0 221.5,326.0 222.1,324.8C222.8,323.5 226.4,319.3 230.2,315.4C233.9,311.5 237.0,308.1 237.0,307.7C237.0,307.4 234.5,306.6 231.5,306.0C228.4,305.4 224.6,305.1 223.0,305.5C221.4,305.9 217.8,308.2 215.1,310.6C212.3,313.1 209.2,316.6 208.0,318.5C206.9,320.3 204.8,325.1 203.5,329.1C202.1,333.1 201.0,338.0 201.0,340.1C201.0,342.8 201.5,344.0 202.8,344.4C203.7,344.7 211.9,344.8 221.0,344.6zM290.4,325.0C295.9,325.0 301.0,324.3 305.1,323.0C308.6,321.9 314.0,319.4 317.0,317.3C320.0,315.3 325.4,310.6 329.1,306.9C334.3,301.6 336.9,297.7 341.9,288.0C345.8,280.2 347.8,275.4 347.2,274.8C346.6,274.2 345.2,274.1 344.1,274.5C342.9,274.9 337.8,278.8 332.7,283.2C327.6,287.6 321.8,292.3 319.8,293.7C317.8,295.1 315.6,296.0 315.0,295.8C314.4,295.6 315.5,293.3 317.6,290.5C319.7,287.7 324.0,282.6 327.2,279.1C331.1,274.8 332.7,272.3 332.1,271.7C331.4,271.0 329.1,271.2 325.3,272.3C321.4,273.3 319.1,273.5 318.3,272.9C317.5,272.2 316.1,272.4 313.8,273.6C312.0,274.5 308.0,277.2 305.0,279.5C302.0,281.8 296.1,287.3 291.9,291.7C286.5,297.4 283.8,301.1 282.6,304.6C281.7,307.3 280.7,312.0 280.3,315.1C280.0,318.5 280.2,321.5 280.9,322.8C282.0,324.8 282.9,325.0 290.4,325.0zM175.0,313.5C186.6,313.3 192.3,312.7 197.7,311.2C201.7,310.1 206.4,308.3 208.3,307.1C210.2,305.9 212.3,304.3 212.9,303.6C213.9,302.4 213.3,301.8 209.8,300.2C207.4,299.2 204.9,297.6 204.1,296.7C203.2,295.6 202.9,293.7 203.3,291.3C203.7,289.3 205.3,285.4 207.0,282.7C208.7,280.0 209.9,277.6 209.8,277.4C209.6,277.3 202.9,279.3 195.0,281.9C187.0,284.6 178.7,287.0 176.5,287.3C172.5,287.9 172.5,287.9 176.9,284.2C179.3,282.2 183.3,279.4 185.8,278.0C188.3,276.6 190.5,275.0 190.7,274.5C190.9,273.9 186.5,272.0 181.0,270.2C175.5,268.3 170.6,267.1 170.1,267.4C169.6,267.7 169.0,267.1 168.7,266.1C168.4,264.8 166.6,263.9 163.0,263.0C159.8,262.2 155.4,262.0 151.4,262.4C147.9,262.8 140.9,264.4 136.0,266.0C129.0,268.3 125.4,270.2 120.2,274.3C116.5,277.3 111.8,281.6 109.7,283.8C107.7,286.1 106.0,288.4 106.0,288.9C106.0,289.4 106.6,290.2 107.2,290.8C107.9,291.3 112.9,293.0 118.3,294.4C123.8,295.8 128.9,297.0 129.7,297.0C130.6,297.0 134.9,293.5 139.4,289.1C143.8,284.8 149.0,280.5 150.8,279.6C152.5,278.7 154.0,278.2 154.0,278.6C154.0,278.9 151.5,281.9 148.5,285.2C145.5,288.4 141.2,293.8 139.0,297.0C136.8,300.3 134.6,304.0 134.0,305.4C133.4,307.2 133.5,308.2 134.4,309.0C135.2,309.6 139.5,310.7 144.1,311.5C148.7,312.3 154.1,313.1 156.0,313.4C157.9,313.6 166.5,313.7 175.0,313.5zM586.5,300.6C596.4,300.3 599.8,299.7 606.0,297.5C610.1,296.0 617.2,292.8 621.7,290.3C626.3,287.9 630.2,285.4 630.5,284.9C630.9,284.4 629.4,282.4 627.3,280.5C625.2,278.6 620.9,275.6 617.7,273.9C614.5,272.2 608.0,269.8 603.2,268.4C598.4,267.1 592.7,266.0 590.4,266.0C588.2,266.0 586.1,266.3 585.7,266.6C585.4,266.9 587.3,270.0 589.9,273.4C592.5,276.7 594.9,280.2 595.3,281.1C595.6,282.2 594.8,283.7 593.2,285.2C591.7,286.6 587.7,289.6 584.2,291.9C580.7,294.3 576.2,296.8 574.2,297.7C570.9,299.1 570.7,299.4 572.5,300.1C573.6,300.6 579.9,300.8 586.5,300.6zM253.4,298.4C258.8,298.1 265.7,297.2 268.6,296.4C271.6,295.7 276.6,293.7 279.8,292.1C282.9,290.5 289.1,286.4 293.5,282.9C297.9,279.5 305.2,273.3 309.7,269.2C314.2,265.1 317.7,261.4 317.4,260.9C317.2,260.4 315.5,260.3 313.7,260.6C311.9,261.0 306.7,263.4 302.0,266.0C297.3,268.7 292.3,271.2 290.8,271.5C289.2,271.9 288.0,271.9 288.0,271.6C288.0,271.2 290.0,268.7 292.5,266.1C297.0,261.3 297.0,261.3 284.5,266.3C277.7,269.1 271.8,271.1 271.4,270.7C271.0,270.3 271.3,269.3 272.1,268.3C272.9,267.4 277.7,263.6 282.8,259.8C287.8,256.0 292.0,252.2 292.0,251.5C292.0,250.7 291.3,250.0 290.5,250.0C289.7,250.0 283.5,252.3 276.6,255.0C269.8,257.8 257.3,262.1 249.0,264.6C240.6,267.1 231.2,270.4 228.0,272.0C224.9,273.6 220.9,276.5 219.1,278.5C217.4,280.5 214.8,283.9 213.4,286.0C212.0,288.1 211.0,290.7 211.2,291.6C211.4,292.9 213.2,293.8 217.5,294.7C220.8,295.4 228.0,296.7 233.5,297.4C239.7,298.3 247.2,298.7 253.4,298.4zM483.5,297.6C492.9,297.3 496.8,296.8 501.5,295.0C504.8,293.7 508.7,291.4 510.2,289.9C512.1,288.0 512.8,286.6 512.3,285.3C511.9,284.3 509.3,280.4 506.5,276.5C503.6,272.6 499.3,267.7 496.9,265.4C494.4,263.2 490.0,260.2 487.0,258.7C484.0,257.2 477.9,255.1 473.5,254.0C469.1,252.9 462.6,251.7 459.0,251.4C455.2,251.0 451.3,251.3 449.7,251.9C448.1,252.5 447.1,253.4 447.4,253.9C447.7,254.4 450.9,256.5 454.5,258.6C458.1,260.7 461.0,262.8 461.0,263.2C461.0,263.6 459.3,264.0 457.2,264.0C455.2,264.0 451.0,263.3 448.0,262.5C445.0,261.7 440.8,261.0 438.8,261.0C436.8,261.0 434.8,261.5 434.5,262.0C434.2,262.6 435.5,265.0 437.6,267.5C440.6,271.2 440.9,272.0 439.4,272.0C438.3,272.0 435.3,270.8 432.5,269.5C429.7,268.1 427.2,267.4 426.7,267.9C426.2,268.4 426.1,269.7 426.4,270.8C426.8,271.9 430.0,275.6 433.6,278.9C437.5,282.6 443.4,286.7 448.3,289.2C452.8,291.5 459.9,294.4 464.0,295.7C470.5,297.7 473.1,298.0 483.5,297.6zM548.0,295.4C552.5,295.1 559.0,293.7 564.2,292.0C569.0,290.4 576.0,287.5 579.8,285.6C583.5,283.7 587.3,281.4 588.0,280.4C589.3,278.9 588.8,278.2 583.0,272.9C579.4,269.7 573.8,265.5 570.5,263.5C567.2,261.6 563.2,260.0 561.5,260.0C559.9,260.0 556.2,260.9 553.3,262.0C550.4,263.1 544.8,264.6 540.8,265.5C536.8,266.3 530.5,267.0 526.9,267.0C523.3,267.0 517.8,266.5 514.6,265.9C511.5,265.2 508.7,265.0 508.4,265.3C508.0,265.6 509.8,269.2 512.4,273.2C514.9,277.2 517.4,282.8 518.0,285.6C518.8,289.4 519.7,291.0 521.4,291.8C522.7,292.4 526.4,293.3 529.6,293.9C532.9,294.5 536.6,295.2 538.0,295.4C539.4,295.6 543.9,295.6 548.0,295.4zM372.1,267.8C372.6,267.1 373.2,264.7 373.6,262.5C373.9,260.3 374.6,257.9 375.0,257.1C375.4,256.3 376.1,257.4 376.8,260.3C377.5,262.8 378.7,265.0 379.5,265.4C380.7,265.8 381.5,265.0 382.6,262.5C383.4,260.6 384.3,254.4 384.6,248.7C385.2,240.3 385.0,237.9 383.7,235.3C382.4,233.0 380.8,231.8 377.0,230.5C372.4,229.0 371.7,229.0 369.6,230.4C368.2,231.2 366.6,233.6 365.8,235.7C365.1,237.9 364.6,243.0 364.7,248.0C364.7,253.0 365.5,258.4 366.4,261.0C367.3,263.4 368.8,266.2 369.7,267.2C371.0,268.6 371.5,268.7 372.1,267.8zM212.5,266.9C217.5,267.0 223.8,266.0 233.5,263.6C241.2,261.7 249.3,259.9 251.4,259.5C253.6,259.1 258.3,257.7 261.9,256.2C265.5,254.8 271.4,251.8 275.0,249.6C281.5,245.5 281.5,245.5 272.6,245.0C264.3,244.5 263.9,244.4 265.6,242.8C266.7,241.9 269.2,240.5 271.2,239.7C273.3,238.8 275.0,237.6 275.0,237.1C275.0,236.5 273.5,236.0 271.8,236.0C270.0,236.0 263.0,236.5 256.3,237.2C247.9,238.0 243.5,238.1 241.9,237.3C239.6,236.3 239.6,236.3 241.5,235.2C242.6,234.7 248.0,233.0 253.5,231.5C259.0,230.1 263.6,228.7 263.8,228.5C264.0,228.3 262.5,227.7 260.4,227.1C258.2,226.5 251.8,225.5 246.0,224.7C235.9,223.4 235.6,223.3 238.5,221.9C240.6,221.0 245.7,220.5 255.0,220.5C263.0,220.5 268.7,220.1 268.9,219.5C269.1,218.9 267.6,217.5 265.5,216.3C263.3,215.1 256.5,213.2 250.1,212.0C243.7,210.9 235.3,209.0 231.5,207.9C227.7,206.8 221.3,204.7 217.5,203.4C213.7,202.0 206.0,198.4 200.6,195.3C193.8,191.5 188.4,187.4 183.5,182.6C179.6,178.7 174.7,172.8 172.8,169.5C170.8,166.2 168.5,161.1 167.7,158.2C166.8,155.4 166.4,153.0 166.8,153.0C167.2,153.1 169.8,156.1 172.5,159.8C175.2,163.4 180.1,169.2 183.3,172.6C186.5,176.0 193.1,181.6 198.0,184.9C202.9,188.3 210.6,192.8 215.2,195.0C219.8,197.2 228.0,200.1 233.5,201.6C239.0,203.0 247.5,204.4 252.4,204.7C260.7,205.3 261.2,205.2 260.8,203.4C260.6,202.0 257.8,200.6 250.8,198.0C245.5,196.1 238.9,193.0 236.3,191.1C233.7,189.2 232.0,187.5 232.7,187.3C233.3,187.1 236.7,187.6 240.2,188.5C243.6,189.4 249.6,190.8 253.3,191.5C260.1,192.8 260.1,192.8 263.0,189.8C264.7,188.2 266.0,186.5 266.0,186.1C266.0,185.7 265.2,184.6 264.2,183.8C263.3,183.0 258.2,179.8 253.0,176.7C247.8,173.7 240.8,169.5 237.4,167.4C234.1,165.4 227.1,159.6 221.9,154.6C213.4,146.4 211.6,145.2 204.0,142.3C199.3,140.5 192.8,138.3 189.5,137.5C186.2,136.6 179.2,135.5 174.0,135.0C168.8,134.4 161.9,134.3 158.8,134.6C155.6,135.0 152.5,135.9 151.9,136.7C151.1,137.6 150.9,140.2 151.3,144.3C151.6,147.8 153.0,153.6 154.3,157.3C155.7,161.0 158.3,166.5 160.1,169.6C162.0,172.7 168.2,179.9 173.9,185.6C183.3,195.0 185.3,196.4 195.9,201.7C202.3,204.9 209.0,208.1 210.8,208.8C212.5,209.6 214.0,210.6 214.0,211.1C214.0,211.6 212.3,212.1 210.2,212.2C208.2,212.3 204.5,212.2 202.1,212.1C199.7,211.9 193.6,210.3 188.6,208.5C182.6,206.4 176.0,204.9 169.0,204.1C161.5,203.3 155.9,203.3 149.6,204.0C144.8,204.6 137.4,206.2 133.1,207.6C128.9,209.0 122.8,211.6 119.6,213.3C116.3,215.1 113.4,217.1 113.2,217.9C113.0,218.6 116.3,222.7 120.6,226.9C125.6,231.8 131.3,236.1 136.2,238.8C140.4,241.1 144.2,243.0 144.5,243.0C144.8,243.0 148.4,239.9 152.4,236.1C156.5,232.3 161.9,228.3 164.4,227.1C166.9,225.8 170.2,225.0 171.7,225.2C174.4,225.5 174.2,225.7 167.5,231.1C163.7,234.2 158.5,238.8 156.1,241.3C153.2,244.3 151.9,246.4 152.4,247.5C152.7,248.4 154.5,249.7 156.4,250.5C158.3,251.3 163.9,252.9 168.8,254.1C177.9,256.3 177.9,256.3 185.2,249.6C189.2,246.0 194.8,241.9 197.7,240.5C200.5,239.1 204.1,238.0 205.7,238.0C208.5,238.0 208.5,238.1 204.0,241.7C201.5,243.7 196.2,248.6 192.1,252.6C188.1,256.6 185.0,260.5 185.2,261.2C185.5,261.9 187.9,263.1 190.6,263.8C193.3,264.5 197.8,265.4 200.5,265.9C203.2,266.4 208.7,266.8 212.5,266.9zM398.0,266.0C398.5,266.0 399.4,265.1 400.0,264.1C400.5,263.0 401.0,261.0 401.0,259.6C401.0,258.2 401.4,256.9 401.9,256.6C402.4,256.3 403.1,257.2 403.4,258.6C403.9,260.3 404.6,261.0 405.8,260.8C406.8,260.6 408.1,258.7 408.8,256.5C409.7,253.9 410.0,249.5 409.8,244.0C409.5,238.5 408.7,234.1 407.5,231.7C406.5,229.5 404.6,227.3 403.4,226.8C401.7,226.0 400.3,226.1 398.1,227.0C396.4,227.7 394.5,229.6 393.6,231.5C392.6,233.5 392.0,237.5 392.0,241.7C392.0,245.4 392.7,251.5 393.5,255.2C394.2,258.9 395.4,262.8 396.0,263.9C396.6,265.1 397.5,266.0 398.0,266.0zM349.3,264.7C350.0,264.5 350.6,263.1 350.8,261.7C351.0,260.2 351.5,259.0 351.8,259.0C352.2,259.0 353.1,260.4 353.7,262.0C354.3,263.6 355.3,265.0 355.9,265.0C356.4,265.0 357.1,263.5 357.4,261.8C357.7,260.0 358.3,254.1 358.9,248.8C359.5,243.5 360.0,237.2 360.0,234.8C360.0,232.4 359.5,229.9 358.8,229.2C358.1,228.5 355.9,228.0 353.9,228.0C351.0,228.0 349.6,228.7 347.6,231.0C346.2,232.7 344.6,235.7 344.0,237.8C343.5,239.8 343.0,244.0 343.0,247.0C343.0,250.0 343.4,254.2 343.9,256.3C344.4,258.3 345.5,261.2 346.5,262.6C347.4,264.0 348.7,264.9 349.3,264.7zM327.2,252.6C327.6,250.0 328.1,247.6 328.4,247.3C328.7,247.0 329.9,248.8 331.2,251.4C332.4,253.9 333.8,256.0 334.2,256.0C334.6,256.0 335.0,255.7 335.0,255.2C335.0,254.8 335.6,250.7 336.4,246.0C337.2,241.3 339.0,234.9 340.5,231.8C341.9,228.6 342.8,225.5 342.5,225.0C342.1,224.4 339.3,222.8 336.2,221.4C333.1,220.0 329.6,219.1 328.4,219.4C327.3,219.7 325.2,222.0 323.8,224.7C322.4,227.4 320.9,231.3 320.6,233.5C320.2,235.7 320.4,240.5 320.9,244.2C321.5,248.4 322.7,252.2 324.2,254.2C326.5,257.5 326.5,257.5 327.2,252.6zM535.5,256.7C549.5,256.4 549.5,256.4 560.2,251.6C566.1,248.9 571.5,246.1 572.2,245.3C573.0,244.3 573.1,243.3 572.4,242.2C571.8,241.2 568.4,238.5 564.8,236.0C561.1,233.5 557.3,230.7 556.2,229.8C555.2,228.8 553.5,228.0 552.4,228.0C551.3,228.0 546.8,231.7 542.0,236.5C537.3,241.2 530.4,247.2 526.5,249.8C522.6,252.4 519.3,254.6 519.0,254.8C518.8,255.0 519.2,255.6 520.0,256.1C520.9,256.7 527.2,257.0 535.5,256.7zM419.9,255.6C420.4,255.2 421.6,252.7 422.5,250.0C423.4,247.2 424.6,245.2 425.0,245.5C425.5,245.8 426.2,247.7 426.5,249.8C426.9,251.8 427.4,254.1 427.6,254.9C427.9,256.0 428.5,255.9 430.1,254.4C431.3,253.4 432.9,251.2 433.7,249.6C434.5,248.0 435.2,243.9 435.3,240.1C435.3,236.5 434.8,231.8 434.1,229.8C433.4,227.7 431.5,224.9 429.9,223.5C428.2,222.1 425.8,221.0 424.6,221.0C423.3,221.0 421.1,221.9 419.7,223.0C418.3,224.1 416.6,226.7 415.9,228.7C415.0,231.7 415.0,234.3 416.5,242.9C417.4,248.7 418.4,254.1 418.6,254.8C418.8,255.5 419.4,255.9 419.9,255.6zM494.6,251.9C496.8,252.0 501.8,251.2 505.8,250.1C509.7,249.1 515.5,246.8 518.7,245.0C521.9,243.2 527.0,239.8 530.0,237.5C533.0,235.2 537.9,231.1 540.8,228.5C544.6,225.0 545.8,223.4 545.0,222.5C544.5,221.9 541.0,219.9 537.3,218.2C533.5,216.5 527.6,214.6 524.0,214.1C520.4,213.5 514.3,213.0 510.4,213.0C506.5,213.0 499.3,213.7 494.4,214.5C489.6,215.4 483.6,217.0 481.1,218.1C478.6,219.2 475.5,221.1 474.2,222.3C472.1,224.3 472.0,224.5 473.7,225.1C474.7,225.5 477.8,225.9 480.7,225.9C483.5,226.0 486.1,226.4 486.4,226.8C486.7,227.3 483.7,228.7 479.7,229.9C475.7,231.1 471.4,232.4 470.1,232.8C468.8,233.2 467.5,234.0 467.3,234.7C467.0,235.4 468.1,236.2 469.7,236.6C471.2,236.9 474.2,237.6 476.2,238.1C478.3,238.7 480.0,239.5 480.0,239.9C480.0,240.4 476.9,241.6 473.0,242.6C469.1,243.6 466.0,244.7 466.0,245.0C466.0,245.4 469.7,246.7 474.2,247.8C478.8,249.0 484.3,250.4 486.5,250.9C488.7,251.4 492.3,251.8 494.6,251.9zM306.1,250.3C306.5,249.8 307.0,247.0 307.2,244.0C307.5,238.5 307.5,238.5 309.4,242.8C310.4,245.1 311.6,247.0 312.1,247.0C312.6,247.0 313.2,246.0 313.4,244.8C313.7,243.5 314.1,239.6 314.4,236.1C314.7,232.5 316.1,227.2 317.6,224.0C319.0,220.8 320.0,217.4 319.8,216.4C319.7,215.5 317.0,213.4 314.0,211.8C309.5,209.5 308.1,209.1 306.2,210.0C304.8,210.6 302.7,213.6 300.8,217.6C298.0,223.6 297.8,224.8 298.2,232.3C298.5,237.4 299.3,241.8 300.4,244.0C301.4,245.9 302.9,248.3 303.8,249.3C304.7,250.2 305.7,250.7 306.1,250.3zM581.4,243.4C582.6,243.0 584.9,242.1 586.5,241.2C588.1,240.4 592.5,237.7 596.2,235.3C599.9,232.8 604.1,229.5 605.5,227.9C606.9,226.2 608.0,224.1 608.0,223.1C608.0,221.8 606.0,221.0 597.8,219.5C592.1,218.4 584.8,217.5 581.4,217.5C576.1,217.5 574.5,218.0 569.4,221.2C566.2,223.2 563.4,225.5 563.2,226.2C563.0,227.0 565.1,229.0 567.8,230.7C570.7,232.5 574.0,235.8 576.0,238.9C578.7,243.1 579.7,243.9 581.4,243.4zM447.4,243.0C447.7,243.0 448.5,242.0 449.2,240.8C449.8,239.5 450.6,235.3 451.0,231.5C451.5,224.5 451.5,224.5 453.8,228.8C455.1,231.1 456.5,232.8 457.0,232.5C457.6,232.1 458.0,229.8 458.0,227.2C458.0,224.4 457.0,220.5 455.6,217.3C454.2,214.5 452.3,211.7 451.1,211.1C450.0,210.5 448.4,210.0 447.5,210.0C446.5,210.0 444.3,211.5 442.4,213.4C440.2,215.6 439.0,217.8 439.0,219.5C439.0,221.0 440.5,226.1 442.4,230.9C444.2,235.6 446.0,240.3 446.3,241.2C446.7,242.2 447.2,243.0 447.4,243.0zM287.1,235.0C287.6,235.0 288.0,232.7 288.0,229.9C288.0,225.7 288.3,224.9 289.6,225.4C290.7,225.8 291.6,224.7 293.1,221.2C294.1,218.6 296.4,213.9 298.0,210.7C299.7,207.5 300.8,204.4 300.5,204.0C300.2,203.5 297.4,201.4 294.3,199.4C290.0,196.5 288.4,195.9 287.1,196.7C286.2,197.2 284.5,199.2 283.3,201.0C282.0,202.8 280.6,205.9 280.0,207.9C279.5,209.9 279.0,213.5 279.0,216.0C279.0,218.5 279.4,222.2 279.9,224.3C280.4,226.4 282.0,229.6 283.5,231.5C284.9,233.4 286.5,235.0 287.1,235.0zM386.8,226.0C387.3,226.0 388.5,225.1 389.6,223.9C391.2,222.1 391.5,220.2 391.5,212.0C391.5,202.5 391.4,202.1 388.4,198.3C386.5,196.0 384.3,194.4 382.7,194.2C381.3,194.0 379.2,194.3 378.1,194.9C377.1,195.5 375.3,197.9 374.1,200.3C372.6,203.4 372.0,206.5 372.0,211.6C372.0,215.4 372.6,219.6 373.3,221.0C374.0,222.4 375.4,223.6 376.3,223.8C377.3,224.0 379.2,223.0 380.5,221.6C383.0,218.9 383.0,218.9 384.4,222.5C385.2,224.4 386.3,226.0 386.8,226.0zM350.4,221.0C351.1,221.0 352.2,220.4 352.7,219.8C353.3,219.1 354.0,217.2 354.4,215.5C355.1,212.6 355.1,212.6 357.1,216.9C358.6,220.3 359.4,221.1 361.2,220.8C363.2,220.5 363.7,219.4 365.7,210.0C366.9,204.2 367.9,198.5 367.9,197.3C368.0,196.1 367.1,194.2 365.9,193.1C364.7,192.0 362.7,190.9 361.4,190.6C360.0,190.2 357.5,190.6 355.6,191.5C353.7,192.4 351.3,194.8 350.0,197.2C348.4,200.1 347.5,203.5 347.2,208.4C347.0,212.3 347.3,216.7 347.9,218.2C348.5,219.8 349.6,221.0 350.4,221.0zM554.2,221.0C554.6,221.0 559.3,218.0 564.7,214.4C570.1,210.8 578.0,204.4 582.2,200.2C586.5,196.0 591.3,190.7 593.0,188.4C594.7,186.0 595.7,183.9 595.3,183.7C594.8,183.5 592.7,182.9 590.5,182.5C588.3,182.1 583.1,181.5 579.0,181.1C574.8,180.6 567.2,180.6 561.9,181.0C555.6,181.5 550.7,182.5 547.4,183.9C544.7,185.1 536.8,189.4 529.9,193.5C523.0,197.6 516.8,201.0 516.2,201.0C515.5,201.0 515.0,200.6 515.0,200.2C515.0,199.8 518.9,196.2 523.8,192.4C528.6,188.5 534.8,183.8 537.5,182.0C540.2,180.2 544.1,177.3 546.0,175.6C547.9,174.0 551.1,170.6 553.1,168.1C555.1,165.6 559.2,159.3 562.3,154.1C565.5,148.9 568.0,144.3 568.0,143.9C568.0,143.5 566.3,142.9 564.2,142.5C562.1,142.2 556.4,141.9 551.4,141.8C545.5,141.8 541.5,142.2 539.8,143.1C538.3,143.9 532.7,149.2 527.3,155.0C521.9,160.8 514.4,168.3 510.5,171.8C506.7,175.3 498.3,181.7 491.8,186.1C485.4,190.5 479.9,194.8 479.6,195.7C479.2,196.6 479.3,197.7 479.8,198.2C480.3,198.7 483.8,198.6 487.9,197.9C491.9,197.3 495.3,197.0 495.5,197.2C495.7,197.4 493.0,199.6 489.4,202.0C485.9,204.4 482.4,207.0 481.7,207.8C480.7,209.0 481.3,209.1 486.0,208.4C489.0,207.9 498.1,207.5 506.1,207.6C514.1,207.6 523.6,208.2 527.1,209.0C530.6,209.7 536.3,211.5 539.6,213.0C543.0,214.5 547.5,216.9 549.6,218.4C551.7,219.8 553.8,221.0 554.2,221.0zM403.5,220.0C404.3,220.0 405.4,219.1 406.0,218.1C406.5,217.0 407.0,214.8 407.0,213.1C407.0,211.4 407.4,210.0 407.9,210.0C408.5,210.0 409.5,212.1 410.2,214.6C410.9,217.1 411.9,219.2 412.5,219.2C413.1,219.2 414.1,218.2 414.7,216.9C415.4,215.6 416.0,212.2 416.0,209.4C416.0,205.8 415.2,202.8 413.2,199.0C411.3,195.1 409.4,193.1 406.8,191.7C404.6,190.6 402.2,190.1 401.0,190.5C399.9,190.8 398.3,192.4 397.5,194.0C396.7,195.6 396.0,197.6 396.0,198.5C396.0,199.4 397.4,204.6 399.1,210.1C401.0,216.4 402.7,220.0 403.5,220.0zM429.4,214.7C430.0,214.5 430.6,213.3 430.8,212.1C431.0,210.6 431.7,210.0 432.6,210.4C433.4,210.7 434.5,210.0 435.1,208.8C435.8,207.6 436.0,204.9 435.6,202.3C435.3,199.8 434.3,196.3 433.4,194.5C432.4,192.2 430.3,190.4 427.4,189.0C423.6,187.1 422.7,187.0 420.3,188.2C418.2,189.2 417.4,190.3 417.2,192.9C417.0,195.2 417.5,196.9 418.9,198.4C420.0,199.5 422.1,203.2 423.6,206.5C425.1,209.8 426.7,213.1 427.3,213.8C427.8,214.5 428.8,214.9 429.4,214.7zM333.1,214.0C333.5,214.0 335.1,212.9 336.5,211.6C337.9,210.3 340.1,206.5 341.4,203.2C342.7,199.8 344.5,196.1 345.4,194.8C346.3,193.6 347.0,191.8 347.0,190.8C347.0,189.9 346.0,188.2 344.8,187.0C343.6,185.9 341.4,185.0 339.9,185.0C338.4,185.0 335.8,186.1 334.1,187.5C332.4,189.0 330.2,192.5 329.0,195.8C327.5,199.8 327.0,202.9 327.3,206.0C327.6,208.9 328.5,211.0 330.0,212.2C331.2,213.2 332.6,214.0 333.1,214.0zM272.1,211.0C272.5,211.0 273.4,209.3 274.1,207.2C274.7,205.2 276.3,201.5 277.5,199.0C278.8,196.5 281.2,193.2 282.9,191.6C284.6,189.9 286.0,187.6 286.0,186.4C286.0,185.2 284.8,183.2 283.4,182.1C281.9,180.9 279.9,180.0 278.9,180.0C277.9,180.0 276.2,181.3 275.1,182.9C273.9,184.5 272.1,187.8 271.0,190.2C269.8,192.8 269.0,196.7 269.0,200.2C269.0,203.3 269.5,207.1 270.2,208.5C270.8,209.9 271.7,211.0 272.1,211.0zM462.0,211.0C462.5,211.0 463.0,209.0 463.0,206.5C463.0,203.9 462.1,200.2 461.0,198.1C460.0,196.0 458.4,194.0 457.5,193.6C456.6,193.3 455.4,193.2 454.9,193.6C454.4,193.9 454.0,194.7 454.0,195.3C454.0,196.0 455.6,199.8 457.5,203.8C459.4,207.8 461.4,211.0 462.0,211.0zM472.0,210.5C472.6,210.2 473.0,206.9 473.0,203.2C473.0,199.5 472.5,194.7 471.9,192.5C471.1,189.6 468.9,186.7 463.6,181.8C459.7,178.1 455.2,174.8 453.6,174.4C451.4,173.9 450.3,174.2 449.3,175.6C448.6,176.6 448.0,177.9 448.0,178.6C448.0,179.3 448.7,180.6 449.5,181.4C450.4,182.3 452.9,183.4 455.0,184.0C458.3,184.9 459.0,185.5 459.0,187.5C459.0,188.9 461.0,192.7 463.5,196.1C466.0,199.5 468.0,202.6 468.0,203.0C468.0,203.4 468.7,205.4 469.5,207.4C470.4,209.4 471.5,210.8 472.0,210.5zM317.3,205.0C317.7,205.0 319.0,202.9 320.2,200.2C321.3,197.6 323.8,193.0 325.7,189.8C327.6,186.7 329.0,183.3 328.8,182.3C328.6,181.3 327.0,179.7 325.1,178.8C322.1,177.3 321.4,177.3 319.0,178.5C317.5,179.3 314.8,182.1 313.1,184.7C311.3,187.3 309.7,190.4 309.4,191.6C309.1,192.7 309.0,195.6 309.2,198.1C309.5,201.9 309.8,202.5 311.7,202.5C313.0,202.5 314.5,203.1 315.2,203.8C315.9,204.5 316.8,205.0 317.3,205.0zM447.0,205.0C447.5,205.0 448.4,204.1 449.0,203.1C449.5,202.0 450.0,199.2 450.0,196.8C450.0,194.3 449.1,190.6 447.8,188.0C445.8,184.0 445.1,183.5 441.8,183.2C438.9,183.0 437.9,183.3 437.0,184.9C436.2,186.5 436.2,187.6 437.1,189.2C437.7,190.5 440.0,194.5 442.2,198.2C444.3,202.0 446.5,205.0 447.0,205.0zM299.1,194.4C299.6,194.1 301.0,192.0 302.1,189.7C303.3,187.4 306.0,183.4 308.1,180.8C310.2,178.2 312.0,175.2 312.0,174.1C312.0,172.9 311.1,171.1 310.0,170.0C308.9,168.9 307.2,167.9 306.2,167.9C305.3,167.8 303.8,167.9 303.0,168.0C302.2,168.1 300.4,169.1 299.2,170.3C297.9,171.5 295.9,174.2 294.9,176.2C293.9,178.3 293.0,181.5 293.0,183.4C293.0,185.3 293.4,188.0 293.9,189.3C294.4,190.6 295.6,192.4 296.5,193.4C297.4,194.3 298.6,194.8 299.1,194.4zM374.6,190.0C376.0,190.0 378.1,188.9 379.5,187.4C380.9,185.9 382.0,183.9 382.0,183.0C382.0,182.1 380.9,180.8 379.6,180.1C378.1,179.3 376.0,179.1 374.1,179.5C372.1,179.9 370.5,181.1 369.8,182.6C368.9,184.4 369.1,185.5 370.4,187.5C371.4,189.1 373.0,190.0 374.6,190.0zM391.9,190.0C392.7,190.0 394.2,189.3 395.2,188.3C396.2,187.4 397.0,185.9 397.0,184.9C397.0,183.9 395.5,182.0 393.7,180.6C391.8,179.1 389.7,178.0 389.0,178.0C388.3,178.0 386.8,178.7 385.8,179.7C384.8,180.6 384.0,181.8 384.0,182.4C384.0,182.9 385.4,184.9 387.2,186.7C389.0,188.5 391.1,190.0 391.9,190.0zM357.4,185.4C358.6,185.1 361.2,183.7 363.2,182.4C365.8,180.8 367.0,179.2 367.0,177.7C367.0,176.4 366.5,174.9 365.8,174.2C365.1,173.5 363.7,173.0 362.7,173.0C361.6,173.0 359.0,174.0 356.9,175.2C354.6,176.5 352.7,178.4 352.3,179.7C352.0,181.2 352.4,182.8 353.5,184.1C354.7,185.4 356.0,185.8 357.4,185.4zM411.6,185.9C412.8,186.0 414.3,185.3 415.0,184.5C415.6,183.7 415.9,182.2 415.6,181.2C415.2,180.1 414.1,178.5 413.1,177.6C412.1,176.7 409.7,175.7 407.7,175.3C404.7,174.9 403.9,175.2 402.6,177.2C401.7,178.6 401.2,180.4 401.6,181.3C401.9,182.1 403.8,183.5 405.8,184.4C407.8,185.2 410.5,185.9 411.6,185.9zM478.9,184.0C479.2,184.0 482.6,182.2 486.5,180.1C490.4,178.0 496.6,174.1 500.5,171.4C504.3,168.7 510.5,163.6 514.3,160.1C518.0,156.6 523.3,150.9 526.0,147.5C528.7,144.1 533.2,136.5 536.1,130.7C539.0,124.6 540.9,119.6 540.5,118.9C539.9,118.0 537.2,117.9 530.4,118.3C525.2,118.7 518.2,119.7 514.8,120.6C511.4,121.4 505.7,123.5 502.2,125.1C498.7,126.7 493.0,129.9 489.7,132.4C486.3,134.8 479.8,140.4 475.3,144.8C470.8,149.3 466.8,154.1 466.4,155.6C466.0,157.3 466.2,158.5 467.1,159.1C468.0,159.6 469.7,159.2 471.8,158.0C473.6,156.9 475.5,156.0 476.1,156.0C476.6,156.0 477.0,156.4 477.0,156.9C477.0,157.4 475.9,159.2 474.5,160.8C473.1,162.5 472.0,164.7 472.0,165.8C472.0,167.0 473.0,169.1 474.3,170.6C476.4,172.9 476.9,173.1 478.9,172.1C480.1,171.4 481.3,171.0 481.6,171.2C481.8,171.4 480.8,173.3 479.5,175.3C478.1,177.3 477.0,179.7 477.0,180.8C477.0,181.8 477.3,183.0 477.7,183.3C478.0,183.7 478.6,184.0 478.9,184.0zM430.7,183.0C431.3,183.0 432.6,182.3 433.4,181.4C434.6,180.3 434.7,179.4 434.0,178.1C433.5,177.1 431.5,174.9 429.5,173.1C427.3,171.2 424.8,170.0 423.1,170.0C421.6,170.0 419.6,170.8 418.6,171.9C417.7,172.9 417.2,174.4 417.5,175.2C417.8,176.0 419.1,177.2 420.3,177.9C421.5,178.5 424.1,179.9 426.0,181.0C427.9,182.1 430.0,183.0 430.7,183.0zM341.5,178.4C344.8,178.0 347.9,177.4 348.4,177.0C348.9,176.5 349.0,175.1 348.7,173.8C348.3,172.5 346.7,170.4 345.1,169.2C342.1,167.0 342.1,167.0 337.6,169.0C333.7,170.6 333.0,171.4 333.0,173.8C333.0,175.3 333.6,177.2 334.2,177.8C335.1,178.7 337.3,178.9 341.5,178.4zM272.7,176.3C273.7,175.9 271.2,172.9 264.7,166.6C257.7,159.8 254.8,156.3 253.5,152.8C252.6,150.3 252.0,147.6 252.2,147.0C252.4,146.3 257.8,150.8 264.2,156.9C270.6,163.0 276.0,168.0 276.3,168.0C276.6,168.0 277.2,166.6 277.5,164.8C277.9,163.0 279.6,160.3 281.3,158.7C284.3,155.9 284.3,155.9 271.3,142.7C264.2,135.4 256.3,126.5 253.7,122.9C251.2,119.3 248.2,114.2 247.0,111.6C245.9,109.0 245.0,105.9 245.0,104.7C245.0,103.6 243.1,100.8 240.6,98.5C237.4,95.4 234.0,93.5 227.9,91.3C223.3,89.6 218.1,88.0 216.5,87.7C214.8,87.4 212.9,87.4 212.3,87.8C211.8,88.2 210.9,89.6 210.5,90.9C210.1,92.2 209.8,97.5 209.9,102.7C209.9,107.8 210.7,114.9 211.6,118.3C212.5,121.7 215.0,128.1 217.2,132.5C219.4,136.9 222.3,142.0 223.6,143.7C225.0,145.5 228.6,149.7 231.6,153.0C234.7,156.3 240.5,161.0 244.6,163.6C248.6,166.1 256.3,170.1 261.6,172.5C266.9,174.9 271.9,176.6 272.7,176.3zM285.2,176.0C286.0,176.0 289.4,172.6 292.9,168.4C298.5,161.7 299.5,160.9 302.3,161.1C304.1,161.2 306.5,161.0 307.7,160.6C308.9,160.2 310.2,159.0 310.5,157.9C310.9,156.8 310.6,155.3 310.0,154.5C309.4,153.7 307.3,152.6 305.5,152.0C302.9,151.1 301.4,151.2 298.6,152.4C296.7,153.2 293.1,155.7 290.6,158.0C287.3,161.1 285.6,163.7 284.4,167.5C283.5,170.4 283.0,173.5 283.3,174.4C283.7,175.3 284.5,176.0 285.2,176.0zM379.2,175.0C379.7,175.0 381.9,174.0 384.0,172.8C387.3,170.9 388.3,170.7 390.0,171.8C391.1,172.4 393.5,173.0 395.3,173.0C397.3,173.0 399.3,172.3 400.2,171.2C401.1,170.3 402.0,168.6 402.2,167.5C402.4,166.4 403.2,165.4 404.1,165.2C405.1,165.0 406.0,165.8 406.3,167.0C406.6,168.3 407.6,169.0 409.2,169.0C410.5,169.0 412.1,168.5 412.8,167.8C413.5,167.1 414.0,165.9 414.0,165.0C414.0,164.2 414.9,162.7 416.0,161.7C417.1,160.8 418.0,159.4 418.0,158.6C418.0,157.9 414.9,155.0 411.1,152.1C405.1,147.7 403.6,147.0 399.6,147.0C396.9,147.0 393.2,146.1 390.9,145.0C388.0,143.5 383.9,142.7 375.2,142.2C364.0,141.4 363.2,141.5 355.6,144.1C351.2,145.6 346.9,147.5 346.1,148.3C345.2,149.1 342.8,151.7 340.8,154.0C337.7,157.4 337.2,158.5 338.0,160.1C338.6,161.1 339.9,162.4 341.0,163.0C342.0,163.5 344.0,164.0 345.4,164.0C346.7,164.0 349.2,165.1 350.8,166.5C352.5,167.9 354.9,169.0 356.3,169.0C357.6,169.0 359.3,168.3 360.0,167.5C360.7,166.7 361.7,166.0 362.2,166.0C362.7,166.0 364.5,167.3 366.2,169.0C368.3,171.1 370.1,172.0 372.5,172.0C374.3,172.0 376.3,172.7 377.0,173.5C377.7,174.3 378.7,175.0 379.2,175.0zM467.2,174.9C467.7,175.0 468.0,174.2 468.0,173.2C468.0,172.3 467.0,169.7 465.7,167.5C464.5,165.3 461.9,162.5 460.1,161.3C458.2,160.0 455.5,159.0 454.1,159.0C452.6,159.0 450.9,159.5 450.2,160.2C449.5,160.9 449.0,162.7 449.0,164.2C449.0,165.8 449.6,167.2 450.2,167.4C450.9,167.6 453.3,168.3 455.6,168.9C457.8,169.5 461.2,171.1 463.1,172.4C465.0,173.7 466.8,174.9 467.2,174.9zM441.7,174.0C442.4,174.0 443.3,173.4 443.6,172.6C443.9,171.8 443.0,169.0 441.6,166.2C439.8,162.6 438.2,160.9 436.0,160.2C434.3,159.6 432.2,159.4 431.2,159.7C430.3,160.0 428.5,161.2 427.2,162.3C426.0,163.4 425.0,164.9 425.0,165.6C425.0,166.3 426.7,167.2 428.8,167.6C430.8,168.0 433.7,168.9 435.1,169.6C436.5,170.3 438.2,171.6 438.9,172.4C439.7,173.3 440.9,174.0 441.7,174.0zM320.2,171.0C321.2,171.0 323.8,170.3 326.0,169.4C328.6,168.4 330.0,167.1 330.0,166.0C330.0,165.0 329.3,163.7 328.5,163.0C327.7,162.4 325.3,161.6 323.2,161.3C320.0,160.9 318.8,161.2 317.1,162.9C316.0,164.0 315.0,165.9 315.0,167.0C315.0,168.0 315.8,169.4 316.8,169.9C317.7,170.5 319.3,171.0 320.2,171.0zM328.0,156.9C328.9,157.0 330.6,156.3 331.8,155.4C333.0,154.6 334.0,153.1 334.0,152.1C334.0,150.9 332.7,149.7 330.8,148.9C329.0,148.2 327.2,147.2 326.9,146.7C326.5,146.2 325.1,146.0 323.7,146.4C322.3,146.7 320.4,147.7 319.5,148.6C318.6,149.5 318.0,151.2 318.2,152.3C318.4,153.7 319.8,154.7 322.5,155.6C324.7,156.2 327.2,156.8 328.0,156.9zM445.4,156.7C447.0,156.6 448.8,155.7 449.4,154.8C450.2,153.5 449.9,152.5 448.0,150.5C446.3,148.7 444.6,148.0 441.9,148.0C439.8,148.0 437.8,148.5 437.5,149.1C437.1,149.6 437.1,151.2 437.4,152.6C437.8,154.0 439.1,155.5 440.3,156.0C441.5,156.5 443.8,156.8 445.4,156.7zM428.0,154.8C428.8,154.6 429.6,153.6 429.8,152.5C430.0,151.3 428.9,149.3 427.2,147.7C424.9,145.5 423.5,144.9 420.9,145.2C418.7,145.4 417.4,146.1 417.2,147.2C417.0,148.4 418.4,150.0 421.7,152.0C424.3,153.7 427.2,154.9 428.0,154.8zM290.7,148.9C291.4,148.2 292.7,146.2 293.6,144.4C294.5,142.5 297.5,139.6 300.6,137.5C303.6,135.5 306.0,133.6 306.0,133.3C306.0,133.0 304.4,129.8 302.4,126.2C300.4,122.6 297.0,114.9 294.9,108.9C292.8,103.0 290.1,96.2 289.0,93.8C287.8,91.4 284.9,87.3 282.6,84.5C280.4,81.8 277.0,78.2 275.1,76.5C273.3,74.9 268.8,71.8 265.1,69.8C261.5,67.7 257.6,66.0 256.4,66.0C255.3,66.0 253.6,66.8 252.8,67.8C251.9,68.7 250.7,71.3 249.9,73.5C249.2,75.7 248.6,81.3 248.6,86.0C248.5,92.2 249.1,96.4 250.7,101.5C251.9,105.3 254.6,111.4 256.7,114.9C258.8,118.4 263.4,124.7 267.0,128.9C270.6,133.0 277.1,139.5 281.4,143.2C287.7,148.6 289.5,149.8 290.7,148.9zM302.8,147.4C304.8,147.0 308.2,146.7 310.3,146.8C313.4,146.9 314.3,146.5 315.2,144.5C316.0,142.6 316.0,141.7 315.0,140.5C314.3,139.6 312.1,139.0 309.8,139.0C307.6,139.0 305.0,139.5 303.9,140.0C302.9,140.6 301.3,142.4 300.5,144.0C299.7,145.6 299.0,147.2 299.0,147.6C299.0,147.9 300.7,147.9 302.8,147.4zM433.7,145.9C435.0,146.0 436.4,145.1 437.0,143.9C437.9,142.3 437.8,141.5 436.5,140.0C435.6,139.0 433.4,138.0 431.7,137.7C429.9,137.5 427.7,137.7 426.8,138.2C425.8,138.7 425.0,140.2 425.0,141.5C425.0,143.4 425.7,144.2 428.2,144.9C430.0,145.4 432.5,145.9 433.7,145.9zM329.8,145.0C331.3,145.0 334.2,144.1 336.3,143.0C338.4,141.8 341.9,141.0 344.5,141.0C347.8,141.0 349.2,140.5 349.7,139.4C350.0,138.5 349.9,137.0 349.3,136.1C348.7,135.2 346.9,134.1 345.2,133.6C342.7,132.9 341.3,133.2 337.3,135.5C334.7,137.0 331.3,139.4 329.8,140.8C328.2,142.2 327.0,143.7 327.0,144.2C327.0,144.6 328.2,145.0 329.8,145.0zM290.8,141.5C290.5,141.8 288.2,139.8 285.6,136.9C283.1,134.1 281.0,131.2 281.0,130.4C281.0,129.3 281.4,129.2 282.8,130.1C283.9,130.8 286.2,133.5 288.0,136.1C289.8,138.8 291.1,141.3 290.8,141.5zM412.0,142.0C413.4,142.0 415.0,141.2 415.7,140.1C416.4,139.0 418.3,137.9 419.9,137.5C421.6,137.1 423.2,136.5 423.5,136.0C423.8,135.6 423.7,134.5 423.4,133.7C423.1,132.8 421.5,131.7 419.8,131.1C417.3,130.2 415.9,130.4 412.4,131.9C409.7,133.1 407.5,134.9 406.8,136.6C405.7,138.9 405.8,139.4 407.5,140.6C408.5,141.4 410.5,142.0 412.0,142.0zM318.5,139.0C319.4,139.0 323.2,137.4 327.0,135.5C330.9,133.6 334.0,131.7 334.0,131.3C334.0,131.0 333.3,129.8 332.3,128.8C331.4,127.8 329.8,127.0 328.8,127.0C327.8,127.0 325.3,127.7 323.3,128.5C321.3,129.3 319.1,130.8 318.4,131.8C317.7,132.7 317.0,134.7 317.0,136.2C317.0,138.1 317.5,139.0 318.5,139.0zM394.2,138.9C394.7,138.9 396.7,137.5 398.7,135.6C400.8,133.8 403.5,131.8 404.8,131.1C406.0,130.5 407.0,129.3 407.0,128.5C407.0,127.7 406.1,126.6 404.9,126.0C403.8,125.3 401.7,125.1 400.3,125.5C398.9,125.8 396.2,127.3 394.3,128.7C392.4,130.1 390.5,132.1 390.0,133.1C389.4,134.1 389.3,135.5 389.6,136.4C389.9,137.2 390.9,138.1 391.8,138.3C392.8,138.6 393.8,138.8 394.2,138.9zM372.9,136.0C374.5,136.0 377.3,134.7 379.5,133.0C381.6,131.3 384.5,129.7 385.9,129.4C387.3,129.1 389.5,128.5 390.8,128.0C392.0,127.5 393.0,126.6 393.0,126.1C393.0,125.6 392.3,124.4 391.4,123.6C390.6,122.7 389.0,122.0 387.9,122.0C386.8,122.0 384.7,123.2 383.3,124.6C380.8,127.2 380.8,127.2 377.6,124.1C375.4,122.0 373.4,121.0 371.4,121.0C369.6,121.0 367.6,121.8 366.5,123.0C365.6,124.0 365.0,125.6 365.3,126.5C365.7,127.3 366.8,128.0 367.8,128.0C368.9,128.0 370.2,128.6 370.8,129.3C371.5,130.1 371.4,131.1 370.4,132.4C369.7,133.4 369.3,134.7 369.6,135.1C369.9,135.6 371.4,136.0 372.9,136.0zM358.8,134.0C359.5,134.0 360.7,132.5 361.5,130.8C362.9,127.6 362.8,127.4 359.9,124.8C357.6,122.6 356.0,122.0 352.4,122.0C349.9,122.0 346.9,122.5 345.7,123.2C344.5,123.8 343.0,125.0 342.3,125.9C341.6,126.8 341.0,128.1 341.0,128.8C341.0,129.7 342.4,129.9 346.3,129.4C351.1,128.8 351.9,129.0 354.6,131.4C356.2,132.8 358.1,134.0 358.8,134.0zM312.6,130.0C312.9,130.0 315.2,128.8 317.7,127.2C322.0,124.5 322.1,124.4 321.5,120.0C321.2,117.5 320.7,112.6 320.3,109.1C319.9,104.7 320.0,102.9 320.8,103.4C321.3,103.7 323.5,108.3 325.6,113.6C327.7,118.9 329.9,123.4 330.5,123.6C331.1,123.9 333.7,123.2 336.2,122.0C338.7,120.9 341.2,119.4 341.9,118.7C342.7,117.6 342.2,114.7 339.6,106.3C337.8,100.3 335.3,92.8 334.1,89.6C333.0,86.5 329.8,80.6 327.1,76.6C324.4,72.6 320.7,68.1 318.9,66.6C317.2,65.1 314.4,63.2 312.8,62.4C310.4,61.1 309.6,61.1 308.3,62.2C307.4,62.9 305.4,66.2 304.0,69.5C302.5,72.8 300.7,77.9 300.0,80.9C299.2,84.1 298.9,89.3 299.3,93.9C299.6,98.1 300.6,103.8 301.5,106.5C302.4,109.2 305.1,115.7 307.5,120.8C309.9,125.8 312.2,130.0 312.6,130.0zM429.2,129.4C429.5,129.1 430.6,126.8 431.5,124.1C432.3,121.5 435.1,116.0 437.6,111.9C440.1,107.8 445.3,101.3 449.1,97.4C452.9,93.4 456.0,89.8 456.0,89.2C456.0,88.7 455.3,84.4 454.5,79.6C453.7,74.9 452.3,69.2 451.4,67.0C450.5,64.8 448.9,62.5 447.9,61.9C446.6,61.2 445.0,61.4 442.5,62.4C440.5,63.3 436.2,66.5 432.9,69.7C429.3,73.1 424.7,79.1 421.8,84.0C419.0,88.7 415.6,95.7 414.3,99.5C413.0,103.3 411.6,110.1 411.3,114.4C410.8,121.3 410.9,122.5 412.5,123.7C413.6,124.4 415.3,125.0 416.4,125.0C417.6,125.0 420.8,126.1 423.5,127.4C426.2,128.7 428.8,129.6 429.2,129.4zM472.8,126.0C472.3,126.0 472.0,125.8 472.0,125.5C472.0,125.1 472.7,123.5 473.6,121.7C474.5,119.9 476.9,116.4 478.8,113.8C480.8,111.1 483.0,109.0 483.7,109.0C484.4,109.0 485.0,109.6 485.0,110.3C485.0,111.0 483.7,113.7 482.1,116.2C480.5,118.7 477.9,121.9 476.4,123.4C474.8,124.8 473.2,126.0 472.8,126.0zM401.0,119.7C403.3,119.5 403.6,118.8 405.3,110.5C406.3,105.5 408.5,98.1 410.1,93.9C411.7,89.8 414.8,83.4 417.0,79.7C419.2,76.1 421.0,72.7 421.0,72.2C421.0,71.7 419.8,69.7 418.2,67.7C416.7,65.8 414.7,62.8 413.8,61.1C412.7,59.2 411.3,58.0 410.0,58.0C408.9,58.0 405.7,60.1 403.0,62.6C400.3,65.1 396.7,69.3 395.0,71.9C393.4,74.5 391.1,79.3 390.0,82.5C388.4,87.2 388.0,90.9 388.0,101.9C388.0,109.4 388.4,116.0 388.8,116.6C389.2,117.2 391.5,118.1 394.0,118.7C396.5,119.3 399.6,119.7 401.0,119.7zM355.0,117.0C358.4,117.0 360.0,116.6 360.4,115.4C360.7,114.5 361.0,109.8 360.9,104.8C360.9,99.8 361.3,95.3 361.8,94.8C362.5,94.1 363.4,95.5 364.4,99.1C365.3,102.1 366.3,106.9 366.7,109.8C367.0,112.7 367.6,115.2 367.9,115.4C368.2,115.6 371.8,116.1 375.9,116.4C383.3,117.2 383.3,117.2 382.6,102.9C382.3,95.0 381.3,85.9 380.4,82.6C379.6,79.2 377.3,73.3 375.5,69.4C373.3,64.9 370.3,60.7 367.1,57.7C364.3,55.1 361.1,53.0 359.9,53.0C358.7,53.0 356.3,54.6 354.4,56.6C352.6,58.7 349.2,64.6 346.9,69.8C343.3,78.0 342.8,80.2 342.8,86.4C342.8,91.1 343.7,96.5 345.4,102.5C346.9,107.5 348.5,112.7 349.1,114.2C350.1,116.7 350.7,117.0 355.0,117.0zM233.7,115.7C233.5,115.9 231.9,114.5 230.1,112.5C228.4,110.5 227.0,108.8 227.0,108.7C227.0,108.6 226.6,107.0 226.1,105.2C225.4,102.9 225.5,102.0 226.4,102.0C227.0,102.0 229.0,105.0 230.8,108.6C232.6,112.3 233.9,115.4 233.7,115.7z" />

</svg>