<?xml version="1.0" encoding="UTF-8" standalone="no"?>
<svg 
  version="1.1" 
  xmlns="http://www.w3.org/2000/svg" 
  xmlns:xlink="http://www.w3.org/1999/xlink" 
  xmlns:svg="http://www.w3.org/2000/svg"
  xmlns:rdf="http://www.w3.org/1999/02/22-rdf-syntax-ns#"
  xmlns:cc="http://creativecommons.org/ns#"
  xmlns:dc="http://purl.org/dc/elements/1.1/"
  viewBox="0 0 768 768"
  width="768"
  height="768"
>
<style>svg {background-color: white; }</style>"
<metadata id="metadata1">
Created by https://svgstud.io and licensed under CC-BY-SA 4.0 license. Please attribute https://svgstud.io
</metadata>
<metadata id="prompt">
forest flora
</metadata>
<metadata id="version">
7
</metadata>
<metadata id="metadata2">
<rdf:RDF>
<cc:Work
    rdf:about="">
    <cc:license
    rdf:resource="http://creativecommons.org/licenses/by-sa/4.0/" />
    <dc:creator>
        <cc:Agent>
            <dc:title>https://svgstud.io</dc:title>
        </cc:Agent>
    </dc:creator>
</cc:Work>
<cc:License
    rdf:about="http://creativecommons.org/licenses/by-sa/4.0/">
    <cc:permits
    rdf:resource="http://creativecommons.org/ns#Reproduction" />
    <cc:permits
    rdf:resource="http://creativecommons.org/ns#Distribution" />
    <cc:requires
    rdf:resource="http://creativecommons.org/ns#Notice" />
    <cc:requires
    rdf:resource="http://creativecommons.org/ns#Attribution" />
    <cc:permits
    rdf:resource="http://creativecommons.org/ns#DerivativeWorks" />
    <cc:requires
    rdf:resource="http://creativecommons.org/ns#ShareAlike" />
</cc:License>
</rdf:RDF>
</metadata>
<metadata id="uid">
482d9d71e58c8f61ec83e85c214a767681dbdc3cd6802fd6fc7c19abcef36014
</metadata>
<path stroke="none" fill="black" fill-rule="evenodd" d="M312.5,744.8C298.2,745.1 294.1,744.8 292.5,743.7C291.2,742.8 286.2,742.1 277.5,741.6C270.4,741.3 262.8,740.5 260.8,740.0C258.1,739.2 257.0,738.3 257.0,737.0C257.0,736.0 259.2,733.3 262.0,731.0C264.8,728.7 267.0,726.4 267.0,725.9C267.0,725.4 265.3,725.0 263.2,725.0C261.2,725.0 255.7,726.0 251.0,727.1C245.0,728.5 237.4,729.3 225.4,729.7C215.9,730.0 206.6,730.0 204.6,729.6C202.2,729.1 201.0,728.4 201.0,727.3C201.0,726.4 202.0,724.6 203.1,723.3C204.8,721.6 205.0,720.9 203.9,720.6C203.1,720.3 196.1,719.1 188.2,718.0C180.3,716.9 171.9,715.5 169.4,714.9C166.3,714.1 165.0,713.2 165.0,712.0C165.0,711.0 165.6,709.8 166.2,709.2C166.9,708.6 171.7,706.5 176.8,704.5C181.8,702.5 186.0,700.4 186.0,700.0C186.0,699.5 182.6,698.9 178.5,698.5C174.4,698.1 168.2,698.0 164.8,698.4C161.3,698.7 153.6,698.6 147.6,698.1C139.9,697.5 136.3,696.7 135.1,695.6C133.8,694.3 133.8,693.6 134.8,692.0C135.4,690.9 136.0,689.8 136.0,689.6C136.0,689.4 132.1,688.9 127.2,688.6C122.4,688.2 112.8,687.2 105.9,686.4C98.9,685.5 92.7,684.4 91.9,684.0C90.9,683.3 90.9,682.8 92.0,681.5C92.8,680.5 94.6,679.4 96.0,678.8C97.4,678.3 100.9,677.4 103.8,676.9C107.4,676.2 109.5,676.2 110.4,676.9C111.2,677.6 114.1,677.5 119.5,676.6C123.9,675.8 130.1,674.9 133.2,674.5C136.4,674.2 139.0,673.5 139.0,673.0C139.0,672.5 136.9,671.7 134.2,671.1C131.6,670.6 127.1,669.8 124.3,669.4C119.2,668.8 119.1,668.6 119.7,666.1C120.0,664.7 120.9,661.6 121.6,659.2C122.7,655.5 122.6,654.9 121.2,654.1C120.2,653.7 114.1,653.0 107.6,652.6C101.0,652.2 90.6,651.2 84.6,650.4C78.5,649.6 70.2,648.4 66.1,647.7C62.0,647.0 58.5,646.0 58.3,645.3C58.1,644.7 59.2,643.3 60.7,642.1C62.2,640.9 67.1,637.2 71.5,633.9C75.9,630.5 82.5,626.0 86.2,623.9C89.9,621.7 93.2,619.4 93.6,618.8C94.0,618.1 93.3,617.0 91.9,616.1C90.6,615.2 86.6,611.8 83.0,608.5C79.4,605.2 74.2,601.0 71.3,599.2C68.5,597.4 65.9,595.2 65.6,594.4C65.3,593.6 65.5,591.9 66.0,590.5C66.5,589.2 68.1,586.3 69.6,584.1C71.0,581.9 72.0,579.4 71.7,578.7C71.4,577.9 69.2,576.8 66.7,576.2C64.2,575.5 62.0,574.4 61.7,573.5C61.3,572.7 61.5,571.8 62.0,571.5C62.5,571.2 67.0,570.6 72.0,570.1C81.0,569.3 81.1,569.2 86.7,564.3C89.8,561.6 92.5,558.9 92.8,558.2C93.0,557.6 91.2,556.1 88.8,554.9C86.4,553.7 83.7,552.0 82.6,551.1C81.6,550.2 80.1,548.2 79.3,546.7C78.5,545.1 78.1,543.6 78.4,543.3C78.7,543.0 83.6,543.9 89.3,545.4C94.9,546.8 100.1,548.0 100.8,548.0C101.5,548.0 102.0,547.4 102.0,546.7C102.0,546.0 98.5,543.4 94.2,540.8C90.0,538.3 84.4,534.3 81.7,532.0C79.1,529.7 77.0,527.2 77.0,526.3C77.0,525.2 77.7,525.0 79.7,525.4C81.3,525.7 87.1,526.7 92.8,527.5C98.4,528.3 103.3,529.1 103.8,529.3C104.2,529.4 104.7,529.1 104.9,528.6C105.1,528.2 103.7,525.7 101.8,523.1C99.9,520.6 96.1,514.5 93.2,509.5C90.4,504.6 87.5,498.4 86.8,495.8C86.2,493.2 85.9,490.7 86.3,490.3C86.7,489.9 89.7,492.3 93.0,495.5C99.0,501.4 99.0,501.4 99.0,496.7C99.0,494.1 99.4,492.0 99.8,492.0C100.3,492.0 101.4,492.8 102.2,493.8C103.0,494.7 105.4,498.3 107.4,501.8C109.5,505.3 111.4,507.9 111.7,507.6C111.9,507.4 110.5,502.1 108.4,495.8C105.4,486.7 104.7,482.9 104.6,476.0C104.5,467.5 104.5,467.5 115.4,467.8C126.4,468.2 126.4,468.2 123.1,464.5C121.3,462.4 119.1,459.3 118.2,457.4C117.4,455.5 116.9,453.8 117.2,453.5C117.5,453.2 122.0,455.0 127.3,457.6C132.6,460.1 137.3,461.9 137.8,461.6C138.4,461.3 138.6,460.1 138.3,458.9C138.0,457.7 134.8,454.9 131.1,452.5C127.5,450.2 123.8,447.4 122.9,446.4C122.0,445.4 121.0,442.8 120.7,440.7C120.3,438.5 120.5,437.0 121.2,437.0C121.7,437.0 123.4,437.8 124.8,438.9C126.3,439.9 128.8,441.4 130.5,442.2C132.2,443.1 134.5,444.1 135.8,444.4C137.7,445.1 138.0,444.8 138.0,442.1C138.0,439.6 137.2,438.5 133.2,435.9C130.6,434.2 127.9,432.0 127.3,431.2C126.6,430.3 126.0,428.8 126.0,427.8C126.0,426.8 126.7,425.7 127.5,425.4C128.3,425.0 131.2,426.0 134.0,427.4C139.0,430.0 139.0,430.0 139.0,427.5C139.0,426.2 138.0,423.1 136.8,420.6C134.7,416.2 134.7,416.2 137.0,410.1C138.2,406.7 139.8,404.0 140.5,404.0C141.2,404.0 143.1,406.6 144.8,409.8C146.4,412.9 148.1,417.4 148.5,419.8C148.9,422.1 149.6,424.0 150.1,424.0C150.6,424.0 151.0,423.6 151.0,423.0C151.0,422.5 152.2,421.3 153.6,420.4C155.8,418.9 156.3,418.9 157.1,420.1C157.6,420.9 158.0,422.9 158.0,424.6C158.0,426.3 156.8,429.9 155.4,432.6C154.0,435.3 151.7,440.6 150.4,444.5C149.1,448.4 148.0,452.8 148.0,454.3C148.0,455.9 148.3,457.0 148.8,456.8C149.2,456.6 151.2,455.4 153.2,454.1C155.3,452.9 156.7,451.4 156.4,450.9C156.1,450.4 155.2,450.0 154.5,450.0C153.7,450.0 152.6,449.2 152.1,448.2C151.4,446.8 151.5,445.6 152.7,443.9C153.6,442.6 155.7,440.0 157.4,438.2C159.1,436.3 161.7,434.2 163.2,433.4C164.7,432.6 166.1,432.0 166.5,432.0C166.8,432.0 167.0,434.1 167.0,436.6C167.0,439.6 166.2,442.5 164.9,444.6C163.8,446.5 163.2,448.0 163.7,448.0C164.1,447.9 165.6,447.3 167.0,446.5C168.4,445.7 170.1,445.1 170.8,445.0C171.5,445.0 172.0,446.3 172.0,448.3C172.0,450.6 170.7,453.7 167.9,457.8C165.7,461.1 164.1,464.3 164.4,464.9C164.8,465.5 166.2,465.5 167.9,465.0C169.4,464.6 172.5,463.1 174.6,461.7C176.7,460.2 180.2,458.4 182.2,457.5C184.3,456.7 186.0,456.3 186.0,456.6C186.0,456.9 184.8,459.4 183.3,462.1C181.9,464.8 180.9,467.3 181.2,467.6C181.6,467.9 183.1,467.5 184.7,466.7C186.2,465.8 189.9,463.1 192.8,460.6C195.8,458.1 198.6,456.0 199.1,456.0C199.6,456.0 200.0,457.3 200.0,459.0C200.0,460.6 199.1,464.2 198.0,467.0C196.5,470.7 196.4,472.0 197.3,472.0C198.0,472.0 200.4,470.2 202.5,468.0C206.5,463.9 206.5,463.9 206.8,443.3C207.1,422.7 207.1,422.7 204.6,420.1C203.2,418.7 201.4,415.8 200.6,413.8C199.7,411.7 199.0,408.3 199.0,406.2C199.0,404.0 199.6,400.7 200.4,398.9C201.8,395.6 201.7,395.3 198.3,389.7C195.9,385.9 194.6,382.4 194.2,379.1C193.9,375.3 194.3,373.0 196.2,368.8C197.6,365.9 201.0,361.0 203.8,357.9C208.9,352.4 208.9,352.4 208.3,318.6C207.7,284.8 207.7,284.8 204.1,282.5C202.1,281.3 199.5,279.2 198.3,277.9C197.1,276.5 195.4,273.8 194.5,271.8C193.5,269.2 193.0,264.8 193.0,257.6C193.0,247.1 193.0,247.1 187.3,249.1C183.4,250.5 177.8,251.4 170.5,251.7C162.1,252.1 158.0,251.9 153.0,250.6C149.5,249.7 145.2,248.2 143.6,247.2C142.0,246.3 139.8,244.2 138.6,242.7C136.9,240.4 136.5,238.4 136.5,232.7C136.5,225.5 136.5,225.5 128.9,221.9C123.8,219.4 120.1,216.8 117.3,213.6C115.0,211.0 112.4,206.8 111.6,204.3C110.7,201.7 110.0,198.3 110.0,196.6C110.0,194.9 110.9,191.6 111.9,189.3C113.1,186.7 115.4,184.1 118.0,182.3C120.4,180.8 125.2,178.6 128.9,177.3C135.5,175.1 135.5,175.1 135.3,171.3C135.1,169.2 134.9,164.3 134.8,160.5C134.5,154.6 134.9,152.7 137.1,148.5C138.9,144.9 141.0,142.7 144.5,140.5C149.2,137.6 149.7,137.5 161.9,137.5C174.5,137.5 174.5,137.5 175.7,132.6C176.4,129.9 178.2,125.6 179.7,123.1C181.3,120.6 184.5,117.2 186.8,115.5C190.6,112.9 192.2,112.5 199.8,112.0C207.0,111.6 209.3,111.0 213.2,108.7C216.1,106.9 219.9,105.7 223.2,105.3C226.4,105.0 231.2,105.4 235.2,106.4C238.9,107.2 244.7,109.3 248.2,110.9C251.7,112.6 256.1,115.2 258.0,116.9C260.0,118.5 262.8,122.0 264.3,124.8C266.0,127.9 267.5,132.9 268.3,138.1C269.6,146.5 269.6,146.5 280.5,146.5C290.4,146.5 292.0,146.8 295.9,149.0C299.1,150.8 301.1,152.9 302.9,156.5C305.0,160.5 305.5,162.8 305.5,169.0C305.5,174.9 305.0,177.4 303.1,181.0C301.8,183.5 299.2,187.3 297.4,189.4C295.5,191.6 294.0,193.9 294.0,194.5C294.0,195.1 295.1,196.7 296.5,198.0C297.8,199.2 299.4,201.8 300.1,203.7C301.0,206.5 300.8,207.7 299.0,211.5C297.8,213.9 294.6,218.0 291.8,220.5C289.0,223.0 283.8,226.4 280.1,228.2C274.8,230.7 271.9,231.5 265.3,231.8C260.3,232.1 252.4,231.6 245.0,230.5C238.4,229.5 232.7,228.9 232.4,229.2C232.1,229.6 232.8,236.2 233.9,244.0C235.1,251.8 236.0,261.5 236.0,265.6C236.0,269.8 235.5,274.1 234.9,275.3C234.2,276.5 232.2,278.9 230.4,280.6C227.3,283.5 227.1,284.2 227.5,288.1C227.8,290.5 228.5,301.7 229.0,312.8C229.6,324.0 230.3,333.6 230.6,334.1C230.9,334.6 232.2,335.0 233.6,335.0C235.0,335.0 237.4,335.7 238.9,336.5C241.7,337.9 241.8,337.9 244.6,333.5C246.1,331.0 249.2,327.8 251.4,326.2C255.0,323.7 256.1,323.5 264.4,323.6C269.8,323.6 275.7,324.3 279.0,325.3C282.1,326.2 285.7,328.1 287.0,329.5C288.3,330.9 289.1,332.3 288.8,332.6C288.4,332.9 287.2,332.6 285.9,332.0C284.7,331.3 281.6,330.6 279.1,330.4C276.6,330.2 272.5,329.6 270.0,329.0C267.5,328.3 263.1,328.0 260.1,328.3C255.5,328.6 254.2,329.2 251.8,331.9C250.3,333.6 249.0,336.1 249.0,337.4C249.0,338.7 250.8,343.6 253.0,348.4C255.3,353.1 257.7,357.0 258.4,357.0C259.2,357.0 260.3,356.3 261.0,355.5C261.7,354.7 262.0,353.1 261.7,352.0C261.4,350.9 261.6,349.7 262.1,349.4C262.6,349.1 263.0,350.0 263.0,351.3C263.0,352.6 263.8,354.4 264.8,355.3C265.8,356.3 268.1,357.0 269.8,357.0C271.5,357.0 273.2,357.4 273.5,358.0C273.8,358.6 274.9,359.0 275.8,359.0C276.8,359.0 278.8,356.7 280.7,353.2C282.5,350.0 286.0,345.0 288.5,342.2C291.8,338.6 294.1,336.9 296.6,336.4C298.5,336.1 301.6,336.1 303.6,336.4C305.5,336.8 308.9,338.7 311.0,340.6C313.1,342.5 315.8,346.0 316.9,348.4C318.2,351.0 319.0,354.6 319.0,357.7C319.0,361.1 318.4,363.5 317.2,364.9C316.3,366.0 311.6,368.2 306.5,369.9C301.6,371.5 295.4,373.7 292.8,374.9C288.9,376.5 288.0,377.4 288.0,379.4C288.0,381.2 288.6,382.1 290.2,382.5C291.5,382.7 297.0,383.9 302.5,385.1C308.0,386.2 314.7,387.4 317.3,387.7C321.4,388.2 322.5,387.9 324.5,386.0C326.1,384.5 327.0,382.5 327.0,380.7C327.0,379.1 326.0,376.2 324.9,374.3C323.7,372.4 321.3,369.9 319.6,368.9C316.5,367.0 316.5,367.0 319.3,367.0C320.8,367.0 323.3,367.6 324.8,368.4C326.3,369.2 328.6,371.0 330.0,372.4C331.9,374.5 332.5,376.4 332.8,381.3C333.2,387.2 333.0,387.9 329.8,392.1C327.3,395.4 326.2,398.0 325.7,401.8C325.4,404.7 324.1,408.5 322.9,410.3C321.7,412.1 319.1,415.2 317.1,417.3C315.1,419.4 311.8,422.0 309.8,423.1C307.6,424.2 304.1,425.0 301.2,425.0C296.7,425.0 296.3,425.2 295.2,428.3C294.5,430.2 292.2,433.1 290.0,434.8C286.1,438.0 286.1,438.0 286.4,472.0C286.5,490.7 286.9,506.3 287.3,506.6C287.6,506.9 288.7,505.5 289.8,503.3C290.9,501.2 292.7,498.6 293.9,497.6C296.0,495.7 296.0,495.7 296.0,504.3C296.0,509.1 296.4,513.0 296.8,513.0C297.2,513.0 299.2,510.9 301.2,508.2C303.2,505.6 306.2,502.7 307.9,501.7C309.5,500.8 311.1,500.3 311.3,500.8C311.6,501.2 311.4,503.7 310.9,506.3C310.5,508.9 310.3,511.7 310.6,512.5C311.0,513.3 312.0,514.0 313.0,514.0C314.1,514.0 315.2,513.5 315.5,513.0C315.8,512.5 316.5,512.0 317.1,512.0C317.6,512.0 318.0,514.5 318.0,517.5C318.0,520.6 318.7,526.0 319.6,529.6C320.5,533.2 321.6,535.8 322.0,535.3C322.3,534.9 323.4,531.2 324.3,527.2C325.2,523.2 327.1,517.5 328.5,514.7C329.9,511.8 332.6,507.7 334.4,505.5C336.3,503.3 338.2,501.8 338.6,502.3C339.0,502.7 338.9,505.7 338.2,508.8C337.5,512.0 337.0,517.0 337.0,519.8C337.0,522.7 337.4,525.0 337.8,525.0C338.2,525.0 340.5,522.2 342.9,518.9C345.3,515.5 349.4,510.4 352.0,507.4C354.7,504.5 357.4,501.2 358.0,500.0C358.7,498.7 359.6,498.2 360.1,498.7C360.5,499.1 361.4,502.7 361.9,506.5C362.4,510.4 363.0,517.5 363.2,522.4C363.5,531.3 363.5,531.3 358.0,534.1C355.0,535.7 350.2,539.3 347.2,542.2C344.2,545.1 340.0,550.1 337.9,553.3C335.7,556.5 332.8,561.9 331.6,565.3C330.3,568.7 328.9,573.4 328.5,575.8C328.1,578.5 328.2,580.0 328.9,580.0C329.5,580.0 331.4,578.0 333.2,575.5C335.0,573.1 336.8,571.1 337.2,571.0C337.7,571.0 338.0,571.7 338.0,572.5C338.0,573.4 338.7,574.3 339.5,574.6C340.3,575.0 341.6,574.7 342.4,574.1C343.2,573.5 348.2,566.4 353.6,558.4C363.4,543.8 363.5,543.8 364.6,546.6C365.2,548.2 366.3,554.6 366.9,560.9C367.6,567.2 368.3,572.7 368.6,573.2C368.9,573.6 369.7,574.0 370.5,574.0C371.3,574.0 372.2,572.5 372.6,570.4C373.0,568.4 373.0,560.8 372.6,553.6C372.2,546.4 371.3,531.3 370.5,520.0C369.7,508.7 368.1,493.9 366.9,487.0C365.8,480.1 364.5,474.1 364.0,473.6C363.6,473.2 360.2,472.2 356.6,471.4C352.9,470.6 348.3,469.2 346.2,468.1C344.1,467.0 340.7,464.3 338.7,462.1C336.7,459.9 334.4,456.6 333.7,454.8C332.9,453.0 332.0,449.6 331.7,447.3C331.2,444.5 331.6,440.7 332.6,436.4C333.6,432.5 335.6,428.1 337.4,425.7C339.1,423.5 341.1,421.5 341.9,421.2C342.6,421.0 342.3,421.7 341.1,422.9C339.9,424.1 339.0,426.3 339.0,428.0C339.0,430.4 339.5,431.1 341.8,431.6C343.3,431.9 346.1,432.6 348.0,433.1C349.9,433.5 356.2,434.0 362.0,434.1C369.8,434.2 373.6,433.8 376.5,432.6C378.7,431.7 381.2,430.2 382.2,429.3C383.2,428.4 384.0,426.9 384.0,426.0C384.0,425.1 383.5,423.9 382.9,423.3C382.0,422.4 380.8,422.6 378.1,424.1C376.2,425.1 372.8,426.0 370.8,426.0C367.2,426.0 367.1,425.9 367.6,423.0C368.2,420.4 368.0,420.0 366.1,420.0C365.0,420.0 363.9,420.6 363.9,421.2C363.8,421.9 363.8,423.3 363.9,424.2C364.1,425.6 363.4,426.0 360.9,426.0C359.1,426.0 356.8,425.2 355.8,424.3C354.4,423.0 353.7,422.9 352.8,423.8C352.1,424.5 350.6,425.0 349.4,425.0C348.2,425.0 346.5,423.9 345.7,422.7C344.2,420.4 344.3,420.2 349.8,417.0C354.3,414.4 356.9,413.6 362.0,413.2C366.6,412.9 369.7,413.3 372.4,414.4C374.5,415.3 378.8,417.9 382.0,420.2C385.2,422.6 388.8,426.1 389.8,428.0C390.9,429.9 392.3,434.1 393.0,437.3C393.6,440.5 393.9,445.3 393.5,447.9C393.2,450.5 391.5,455.0 390.0,457.8C388.4,460.6 384.8,464.8 382.0,467.2C377.0,471.5 377.0,471.5 377.0,478.5C377.0,482.4 377.9,496.6 379.0,510.0C380.0,523.5 381.4,543.3 382.0,554.0C382.7,564.7 383.6,574.2 384.1,575.2C384.6,576.2 386.2,577.0 387.5,577.0C389.0,577.0 390.4,576.1 391.1,574.9C391.8,573.6 392.4,563.7 392.7,549.1C393.0,536.0 393.0,523.7 392.6,521.7C392.0,518.7 391.2,517.6 388.1,516.1C386.1,515.0 383.7,513.4 383.0,512.5C382.2,511.5 381.6,508.6 381.6,505.6C381.7,502.8 382.2,498.7 382.8,496.4C383.5,494.2 385.3,490.4 387.0,487.9C388.6,485.4 392.1,481.8 394.7,479.9C399.3,476.6 399.8,476.5 408.5,476.5C415.4,476.5 418.4,477.0 421.5,478.5C423.8,479.6 426.7,482.3 428.3,484.8C429.9,487.1 431.8,489.0 432.5,489.0C433.3,489.0 434.2,488.5 434.5,488.0C434.9,487.4 434.6,479.2 434.0,469.7C433.4,460.3 432.5,452.1 431.9,451.6C431.4,451.0 428.6,450.0 425.8,449.3C422.9,448.6 418.7,446.7 416.5,445.2C414.3,443.7 411.5,440.6 410.2,438.3C408.8,435.8 407.9,432.3 407.8,429.5C407.8,427.0 408.0,424.7 408.2,424.4C408.5,424.1 410.0,425.0 411.6,426.3C413.5,427.8 415.9,428.7 418.3,428.7C420.4,428.8 423.3,429.3 424.8,429.9C426.9,430.8 428.6,430.7 432.3,429.6C435.0,428.8 438.6,428.4 440.3,428.7C442.1,428.9 444.9,428.6 446.5,428.0C449.4,426.9 449.4,426.8 447.6,425.4C446.5,424.6 443.5,424.0 440.9,424.0C438.2,424.0 433.7,423.5 430.8,422.9C427.9,422.4 424.1,421.4 422.5,420.8C420.9,420.2 417.6,418.9 415.2,417.8C412.9,416.7 411.0,415.7 411.0,415.5C411.0,415.4 412.4,412.2 414.2,408.4C417.4,401.5 417.4,401.5 418.1,375.0C418.5,360.4 419.5,335.4 420.4,319.5C421.3,303.6 422.5,281.3 423.1,270.0C423.7,258.7 424.4,221.3 424.7,186.9C425.0,152.4 424.9,120.0 424.5,114.8C423.8,105.3 423.8,105.3 417.5,101.1C413.8,98.7 409.0,94.3 406.0,90.5C403.1,86.9 399.9,83.5 398.9,82.9C397.8,82.4 396.0,82.2 395.0,82.5C393.9,82.9 392.5,84.0 391.9,85.1C391.3,86.4 391.1,90.0 391.6,95.2C392.3,103.3 392.3,103.3 388.9,102.7C387.0,102.4 383.4,101.8 380.9,101.5C377.4,101.0 375.9,101.2 374.7,102.5C373.7,103.4 373.0,105.2 373.0,106.4C373.0,107.7 373.5,110.2 374.2,112.1C374.8,114.0 376.2,116.7 377.4,118.2C378.5,119.7 381.1,122.2 383.2,123.6C385.3,125.1 387.3,126.1 387.5,125.8C387.8,125.5 386.9,122.9 385.5,119.9C384.1,116.9 383.0,113.9 383.0,113.2C383.0,112.6 383.4,112.0 383.8,112.0C384.2,112.0 387.6,114.7 391.4,118.1C395.2,121.4 398.4,123.9 398.6,123.7C398.9,123.5 398.6,122.1 398.0,120.6C397.5,119.1 397.0,116.9 397.0,115.8C397.0,113.8 397.2,113.9 400.2,116.4C402.0,117.8 405.0,120.2 406.9,121.7C410.1,124.3 410.3,124.3 411.6,122.5C412.4,121.5 413.0,119.2 413.0,117.6C413.1,114.5 413.1,114.5 414.7,117.5C416.0,119.7 416.5,123.9 416.8,133.3C417.1,141.8 416.9,146.5 416.2,147.2C415.4,148.0 413.9,147.8 410.8,146.5C408.4,145.5 400.4,141.8 392.9,138.3C381.5,133.0 378.9,132.1 376.8,132.9C375.4,133.4 373.8,135.2 373.1,136.8C372.0,139.4 372.1,140.5 373.9,144.5C375.0,147.1 378.6,151.7 381.8,154.8C385.0,158.0 390.5,162.0 394.2,163.8C398.7,166.2 402.3,167.2 405.8,167.3C409.5,167.5 411.3,167.0 413.0,165.5C414.8,163.9 415.3,163.8 416.1,165.0C416.8,166.0 416.9,177.2 416.6,196.5C416.3,213.0 415.6,234.8 415.1,245.0C414.5,255.2 413.0,285.3 411.6,312.0C410.2,338.7 408.6,373.1 408.0,388.5C407.5,403.9 407.0,418.2 407.0,420.2C407.0,422.3 406.6,424.0 406.1,424.0C405.6,424.0 404.6,422.3 403.8,420.2C402.9,417.6 402.5,411.0 402.7,397.0C402.8,386.3 403.8,361.3 404.9,341.5C406.0,321.7 407.7,291.8 408.5,275.0C409.4,258.2 410.2,238.2 410.3,230.5C410.5,216.5 410.5,216.5 407.0,216.8C405.1,216.9 398.6,217.3 392.7,217.6C385.8,218.0 380.3,217.8 377.3,217.0C374.7,216.4 370.2,214.8 367.4,213.4C364.5,212.0 359.9,208.9 357.2,206.5C354.4,204.0 350.9,199.9 349.2,197.3C347.5,194.6 345.4,190.0 344.6,186.9C343.7,183.9 342.9,179.1 342.9,176.3C342.8,173.5 343.1,170.7 343.4,170.1C343.8,169.5 345.5,168.3 347.1,167.5C348.7,166.6 353.5,165.7 357.8,165.4C362.0,165.0 369.1,165.3 373.4,165.9C377.8,166.5 381.5,166.8 381.8,166.5C382.1,166.2 380.0,163.5 377.1,160.5C374.3,157.5 371.0,153.1 370.0,150.8C368.9,148.4 368.0,144.5 368.0,142.0C368.0,139.3 368.8,136.2 369.9,134.3C371.0,132.6 372.8,130.9 373.9,130.5C375.1,130.2 376.0,129.3 376.0,128.6C376.0,127.9 375.2,126.2 374.1,124.9C373.1,123.6 371.5,121.1 370.6,119.3C369.6,117.3 369.0,113.7 369.0,109.5C369.0,103.8 369.3,102.6 371.6,100.4C373.6,98.3 374.8,97.9 377.8,98.3C379.8,98.6 382.4,99.0 383.5,99.2C385.3,99.5 385.5,98.8 386.0,92.0C386.3,87.9 387.1,83.5 387.8,82.3C388.5,81.0 389.9,79.6 391.0,79.0C392.0,78.5 394.0,78.0 395.3,78.0C396.7,78.0 398.2,77.4 398.7,76.7C399.3,76.1 400.3,73.9 400.9,72.0C401.5,70.1 404.3,65.5 407.0,61.8C409.8,58.1 414.4,53.2 417.3,50.9C420.2,48.6 423.5,46.3 424.8,45.7C426.8,44.8 427.6,45.2 431.1,48.6C433.4,50.7 437.0,55.1 439.2,58.3C441.4,61.5 443.8,65.7 444.6,67.6C445.4,69.6 446.1,73.8 446.1,77.0C446.1,80.5 445.5,84.1 444.5,86.1C443.5,87.9 440.3,91.8 437.4,94.8C434.4,97.7 431.6,101.0 431.0,102.0C430.5,103.0 430.0,105.9 430.0,108.4C430.0,110.9 430.4,113.2 431.0,113.5C431.5,113.8 433.4,113.3 435.1,112.4C438.2,110.9 438.3,110.9 437.5,112.6C437.1,113.7 436.5,115.8 436.2,117.4C435.7,120.3 435.7,120.3 439.0,118.4C440.8,117.3 445.3,113.6 449.1,110.2C452.9,106.7 456.3,102.7 456.6,101.3C457.0,99.7 456.8,98.5 455.9,97.9C455.1,97.4 453.0,97.3 451.3,97.6C449.5,98.0 447.3,97.9 446.4,97.6C444.9,97.0 444.9,96.8 446.6,95.5C447.7,94.7 450.8,94.1 454.2,94.0C459.0,94.0 460.1,94.4 461.4,96.2C462.3,97.4 463.0,99.3 463.0,100.4C463.0,101.4 462.5,104.1 461.8,106.4C460.9,109.6 457.5,113.7 446.1,125.3C431.5,140.1 431.5,140.1 431.6,148.7C431.7,153.3 432.2,157.6 432.8,158.2C433.5,158.9 435.7,158.1 439.9,155.4C443.2,153.2 448.1,150.2 450.7,148.6C453.3,147.0 457.2,144.6 459.3,143.2C461.4,141.8 464.4,139.0 466.1,136.9C467.7,134.9 469.0,132.5 469.0,131.6C469.0,130.3 467.6,130.0 460.2,130.0C452.3,129.9 451.7,129.8 453.4,128.5C454.8,127.4 458.0,127.0 464.5,127.0C470.7,127.0 474.2,127.4 475.5,128.4C477.2,129.6 477.3,130.1 476.1,134.0C475.4,136.4 473.7,140.1 472.4,142.2C471.0,144.3 468.4,147.8 466.5,149.9C464.5,152.1 461.0,154.5 458.3,155.5C455.6,156.5 451.6,158.7 449.2,160.3C446.9,162.0 445.0,163.5 445.0,163.8C445.0,164.0 446.2,163.9 447.8,163.5C450.0,163.0 450.3,163.1 449.2,164.1C448.6,164.8 448.0,165.8 448.0,166.2C448.0,166.6 449.3,167.0 450.9,167.0C452.5,167.0 456.1,166.5 458.9,165.8C461.7,165.2 464.3,165.0 464.7,165.3C465.1,165.7 463.6,167.8 461.5,170.0C457.6,174.0 457.6,174.0 460.4,174.0C462.0,174.0 465.9,172.6 469.1,170.9C472.3,169.2 477.3,165.3 480.1,162.3C484.2,158.0 485.0,156.6 483.9,155.9C483.1,155.4 481.1,155.0 479.5,155.0C477.9,155.0 475.8,154.5 475.0,154.0C474.0,153.3 475.9,153.1 481.4,153.2C487.4,153.4 489.5,153.9 490.3,155.1C491.0,156.3 490.7,158.0 489.0,161.6C487.7,164.3 483.7,169.3 480.2,172.7C476.7,176.2 472.4,179.8 470.7,180.7C468.9,181.6 463.5,183.4 458.5,184.6C452.5,186.1 449.2,186.6 448.4,185.9C447.7,185.4 444.1,184.1 440.4,183.0C436.6,182.0 433.2,181.4 432.8,181.6C432.4,181.9 432.0,185.9 432.0,190.5C432.0,195.1 432.4,199.2 433.0,199.5C433.5,199.8 436.7,197.5 440.0,194.5C443.4,191.4 446.4,189.1 446.7,189.3C446.9,189.6 445.1,192.4 442.6,195.4C440.1,198.5 437.3,202.4 436.5,204.0C435.7,205.6 435.0,207.6 435.0,208.5C435.0,209.3 435.3,210.0 435.8,210.0C436.2,210.0 437.9,209.1 439.5,207.9C441.1,206.8 444.6,204.8 447.2,203.4C449.8,202.1 452.4,201.0 453.0,201.0C453.6,201.0 453.2,202.3 452.1,203.9C450.9,205.5 450.0,207.3 450.0,207.9C450.0,208.5 450.3,209.0 450.7,209.0C451.0,209.0 457.3,205.9 464.7,202.0C472.1,198.2 478.3,195.0 478.7,195.0C479.0,195.0 478.5,196.1 477.6,197.5C476.7,198.8 476.0,200.2 476.0,200.5C476.0,200.8 477.2,201.5 478.8,202.1C481.5,203.2 481.5,203.2 478.5,204.6C476.9,205.3 473.3,206.8 470.5,208.0C466.9,209.5 465.9,210.3 466.9,210.9C467.7,211.4 471.6,212.1 475.6,212.5C482.2,213.1 483.5,212.9 488.2,210.7C491.1,209.4 496.5,205.6 500.2,202.4C504.0,199.1 507.7,195.4 508.6,194.2C509.5,192.9 510.0,191.6 509.7,191.3C509.4,191.1 503.9,189.6 497.6,188.1C491.2,186.5 485.7,185.0 485.3,184.6C485.0,184.3 487.9,184.0 491.9,184.0C495.9,184.0 502.3,184.7 506.2,185.6C510.0,186.5 514.1,188.1 515.1,189.1C516.6,190.6 516.8,191.5 515.9,193.7C515.4,195.2 512.9,199.2 510.5,202.6C508.0,206.0 503.7,210.9 500.8,213.5C497.9,216.0 492.1,219.8 487.9,221.9C483.4,224.1 477.2,226.3 473.2,227.0C467.7,228.0 464.2,228.0 456.8,227.1C451.7,226.4 444.4,225.2 440.7,224.3C436.6,223.3 433.6,223.0 433.0,223.6C432.5,224.1 431.2,250.8 430.1,283.0C429.0,315.2 427.9,354.0 427.7,369.3C427.2,397.0 427.2,397.0 430.9,396.4C434.2,395.7 434.4,395.8 433.1,397.3C432.4,398.3 430.5,399.0 429.0,399.0C427.5,399.0 425.5,399.9 424.5,401.0C423.5,402.1 421.9,403.2 420.9,403.5C419.8,403.9 418.3,405.4 417.5,407.0C416.7,408.6 416.3,410.6 416.6,411.4C416.9,412.2 418.8,413.5 420.8,414.2C423.0,414.9 429.7,415.4 437.0,415.5C445.4,415.5 450.6,415.1 452.7,414.1C454.5,413.4 456.2,411.9 456.6,410.8C456.9,409.7 456.8,408.4 456.3,407.9C455.7,407.3 453.6,407.6 450.9,408.5C447.6,409.7 444.5,410.0 438.5,409.5C434.1,409.2 429.2,408.4 427.7,407.8C426.2,407.2 425.1,406.2 425.3,405.6C425.5,405.0 427.4,404.4 429.5,404.2C432.1,404.0 434.7,402.7 437.8,400.2C440.9,397.7 443.1,396.6 444.9,396.8C446.3,397.0 448.9,397.5 450.6,398.1C452.3,398.6 455.0,400.5 456.7,402.3C458.4,404.0 460.8,407.4 462.0,409.7C463.7,412.9 464.2,415.8 464.2,421.7C464.3,427.7 463.8,430.7 462.1,434.6C460.9,437.4 458.4,441.2 456.6,442.9C454.7,444.7 451.1,447.6 448.4,449.4C443.5,452.6 443.5,452.6 443.8,468.5C444.0,477.3 444.5,486.1 445.0,488.0C445.8,490.7 447.3,492.3 452.0,495.4C455.3,497.5 460.2,501.6 462.9,504.6C465.6,507.5 468.7,511.9 469.8,514.2C471.0,516.6 472.2,521.0 472.6,524.0C473.0,527.3 474.0,530.4 475.3,531.7C477.1,533.7 477.2,534.9 476.8,545.2C476.4,556.1 476.1,557.0 470.8,570.5C467.7,578.2 464.5,587.0 463.6,590.0C462.8,593.0 461.6,599.3 461.0,604.0C460.1,610.7 460.2,614.8 461.4,623.8C462.3,630.2 463.7,636.3 464.7,638.0C465.6,639.6 466.9,641.1 467.6,641.4C468.4,641.7 468.9,638.1 469.4,628.9C469.8,621.8 470.5,613.4 471.1,610.2C471.7,607.1 472.6,602.7 473.2,600.5C474.2,596.9 474.7,599.4 478.1,626.4C480.2,642.9 482.6,659.3 483.5,662.9C484.4,666.6 485.5,670.2 486.0,671.0C486.5,671.8 487.3,672.1 487.7,671.6C488.1,671.2 488.5,652.1 488.5,629.2C488.5,590.4 488.3,586.6 486.2,574.7C484.4,564.1 484.0,558.0 483.9,538.7C483.8,526.0 483.5,514.2 483.1,512.6C482.6,510.2 481.5,509.4 477.2,507.7C474.3,506.6 469.7,503.8 467.1,501.4C464.5,499.1 461.2,494.9 459.6,492.0C457.1,487.3 456.8,486.1 457.2,478.7C457.4,472.2 458.1,469.3 460.3,464.8C461.8,461.7 465.1,456.9 467.6,454.1C470.0,451.4 474.2,448.1 476.7,446.9C480.3,445.1 483.1,444.6 488.2,444.7C492.9,444.8 496.3,445.5 499.4,447.0C501.9,448.2 506.4,451.8 509.4,455.0C512.9,458.8 515.6,463.0 517.0,466.7C518.8,471.4 519.1,474.0 518.8,480.5C518.5,486.2 517.7,489.8 516.1,492.9C514.9,495.3 511.8,499.2 509.3,501.6C506.2,504.6 503.2,506.5 499.5,507.5C496.6,508.4 493.8,509.9 493.4,510.8C493.0,511.7 492.4,521.4 492.2,532.3C492.0,543.2 492.1,552.8 492.4,553.7C493.0,555.1 493.6,554.7 496.1,551.7C497.8,549.7 501.2,546.8 503.6,545.4C506.1,543.9 508.4,543.1 508.7,543.4C509.1,543.8 508.6,545.4 507.7,546.9C506.8,548.5 506.0,550.5 506.0,551.4C506.0,552.3 506.1,553.0 506.2,553.0C506.4,553.0 508.9,552.3 511.9,551.5C517.1,550.2 517.2,550.2 517.8,552.3C518.3,554.2 518.8,553.9 522.9,549.2C525.4,546.4 530.6,541.6 534.5,538.5C538.3,535.5 541.8,533.0 542.2,533.0C542.7,533.0 543.0,533.8 543.0,534.9C543.0,535.9 540.6,539.5 537.6,542.8C534.6,546.1 529.5,552.4 526.2,556.7C522.9,561.0 518.1,567.8 515.6,571.8C513.0,575.8 509.3,582.4 507.4,586.4C505.4,590.5 504.0,594.8 504.2,596.0C504.4,597.6 505.7,596.5 510.1,590.3C513.2,586.0 518.8,578.9 522.5,574.5C526.2,570.1 531.3,563.4 533.8,559.5C536.3,555.6 539.7,551.0 541.3,549.2C543.0,547.5 544.8,546.0 545.2,546.0C545.7,546.0 545.8,547.6 545.4,549.5C545.1,551.5 545.2,553.0 545.7,553.0C546.3,553.0 549.1,551.7 552.1,550.0C555.1,548.4 557.9,547.0 558.3,547.0C558.8,547.0 557.7,549.0 555.9,551.5C554.1,554.0 549.9,558.3 546.6,561.2C543.2,564.1 537.4,569.4 533.6,573.0C529.9,576.6 524.9,582.2 522.5,585.5C520.2,588.8 517.5,593.1 516.5,595.0C514.7,598.4 514.7,598.5 516.6,597.0C517.6,596.2 523.2,591.3 529.0,586.1C534.8,581.0 541.4,575.5 543.7,573.9C546.0,572.3 548.3,571.0 548.9,571.0C549.5,571.0 550.0,571.2 550.0,571.5C550.0,571.9 549.3,573.5 548.4,575.1C547.6,576.8 547.1,578.4 547.3,578.6C547.5,578.9 550.1,577.2 553.0,574.9C555.9,572.6 559.8,568.1 561.9,564.8C563.9,561.5 568.3,554.5 571.7,549.2C575.2,544.0 577.8,539.5 577.6,539.3C577.4,539.1 574.7,538.5 571.6,538.0C568.5,537.5 563.2,535.6 559.7,533.8C556.3,532.0 551.4,528.4 548.9,525.9C546.3,523.4 542.8,518.9 541.1,515.9C539.4,512.9 538.0,509.8 538.0,508.9C538.0,507.6 540.0,506.8 546.5,505.5C552.8,504.2 557.4,503.8 564.9,504.3C572.6,504.7 576.1,505.4 580.4,507.3C583.4,508.7 588.0,511.8 590.5,514.1C593.1,516.5 596.5,520.7 598.1,523.5C599.7,526.2 601.0,529.5 601.0,530.8C601.0,532.7 599.9,533.6 595.2,535.7C592.1,537.1 587.4,538.5 584.7,539.0C582.1,539.4 579.8,539.9 579.6,540.1C579.4,540.3 579.0,542.6 578.8,545.3C578.2,550.0 578.3,550.1 582.7,553.2C585.1,555.0 588.7,558.6 590.6,561.3C592.6,564.0 595.0,566.4 596.0,566.7C597.0,567.0 598.1,568.2 598.4,569.3C598.7,570.5 599.0,572.9 599.0,574.6C599.0,577.8 599.0,577.8 594.9,576.4C592.7,575.6 588.2,574.7 585.0,574.3C581.8,574.0 578.0,574.0 576.6,574.4C575.2,574.7 573.6,575.9 573.0,576.9C572.5,578.0 572.3,579.5 572.6,580.3C573.0,581.3 576.1,581.9 585.2,582.3C593.0,582.8 597.7,582.6 598.5,582.0C599.5,581.2 600.1,582.0 601.1,585.2C601.9,587.8 603.1,589.5 604.0,589.5C605.2,589.5 605.6,587.3 606.0,578.0C606.4,571.7 606.6,527.7 606.5,480.3C606.5,432.9 606.3,393.9 606.0,393.7C605.7,393.4 602.8,393.9 599.5,394.7C594.7,396.0 592.5,396.1 588.1,395.2C585.2,394.6 580.5,392.6 577.8,390.9C575.1,389.1 571.3,385.7 569.5,383.3C567.6,380.8 565.2,376.5 564.2,373.7C563.1,370.8 562.0,366.7 561.6,364.5C561.3,362.3 561.4,359.9 561.8,359.2C562.5,358.2 564.3,358.2 570.1,359.0C574.5,359.6 580.0,361.2 583.7,363.0C587.6,365.0 591.7,368.1 594.9,371.6C597.7,374.7 601.2,379.2 602.6,381.6C604.0,384.0 605.6,386.0 606.1,386.0C606.6,386.0 606.9,379.7 606.9,371.8C606.8,363.9 606.5,354.1 606.1,350.0C605.5,342.5 605.5,342.5 597.8,342.8C591.2,343.2 589.4,342.8 584.0,340.4C580.3,338.7 576.6,336.1 574.5,333.7C572.6,331.5 570.4,327.7 569.6,325.2C568.7,322.7 568.0,318.2 568.0,315.3C568.0,311.6 568.4,309.8 569.4,309.4C570.2,309.1 572.8,309.9 575.1,311.1C577.5,312.3 582.9,315.7 587.2,318.7C591.5,321.7 597.4,326.8 600.3,330.1C603.3,333.3 606.0,335.7 606.3,335.3C606.7,335.0 607.0,327.6 607.0,318.9C607.0,310.2 606.6,302.0 606.1,300.7C605.6,299.4 602.9,296.8 600.0,295.0C597.2,293.2 594.3,290.5 593.5,288.9C592.7,287.4 592.0,283.9 592.0,281.2C592.0,278.6 592.7,274.1 593.5,271.4C594.3,268.6 596.8,263.7 598.9,260.4C601.1,257.2 604.7,252.5 606.9,250.0C611.0,245.5 611.0,245.5 612.9,247.8C614.0,249.0 616.3,253.8 618.1,258.3C620.2,263.9 621.4,269.0 621.8,274.2C622.2,280.0 621.9,283.0 620.6,286.3C619.7,288.7 617.2,292.4 615.0,294.5C611.2,298.2 611.0,298.7 611.0,304.5C611.0,307.8 611.4,311.1 611.8,311.8C612.4,312.6 614.8,310.8 620.1,305.6C626.5,299.3 628.4,298.0 634.4,296.0C640.1,294.1 641.4,294.0 642.1,295.1C642.6,295.9 642.8,298.5 642.4,301.0C642.1,303.5 641.0,307.5 639.9,309.9C638.8,312.4 636.5,316.2 634.6,318.4C632.8,320.7 629.2,323.5 626.8,324.8C624.3,326.0 620.8,327.0 618.9,327.0C617.0,327.0 614.8,327.5 614.0,328.0C612.8,328.7 612.4,331.6 612.2,340.4C612.0,346.7 612.2,352.6 612.8,353.5C613.5,354.9 614.2,354.5 616.9,350.8C618.6,348.5 622.6,343.9 625.7,340.7C628.8,337.6 633.6,333.9 636.4,332.5C639.2,331.2 644.2,329.6 647.5,329.1C652.1,328.4 653.8,328.5 654.9,329.5C655.9,330.5 656.0,331.8 655.1,336.0C654.5,338.8 652.8,343.1 651.4,345.5C650.0,347.9 647.1,351.5 645.0,353.4C642.8,355.3 638.9,358.0 636.3,359.3C633.7,360.6 630.3,362.0 628.8,362.4C627.3,362.7 623.7,362.2 620.1,361.1C616.8,360.1 613.8,359.5 613.5,359.8C613.2,360.1 613.0,367.7 613.0,376.7C613.0,385.7 613.4,393.0 613.8,393.0C614.3,393.0 615.3,391.5 616.2,389.7C617.1,387.8 620.3,383.6 623.3,380.4C626.4,377.1 631.1,373.2 633.9,371.6C636.7,370.1 641.8,368.4 645.2,367.9C648.6,367.3 652.5,367.2 653.8,367.5C656.0,368.0 656.1,368.5 655.5,371.7C655.1,373.8 653.9,377.2 652.8,379.3C651.7,381.5 648.7,385.4 646.2,387.9C643.6,390.5 639.3,393.6 636.7,394.9C632.4,397.0 630.9,397.2 625.2,396.6C621.5,396.2 617.4,395.8 616.0,395.7C613.5,395.5 613.5,395.5 613.2,411.8C613.1,420.8 613.4,428.8 613.9,429.7C614.6,431.0 615.4,430.1 618.0,424.9C619.8,421.4 622.3,417.1 623.6,415.4C624.9,413.7 628.4,410.6 631.4,408.6C634.4,406.6 639.6,404.3 643.0,403.4C646.4,402.6 653.7,401.8 659.3,401.7C669.3,401.5 669.5,401.5 669.8,403.9C670.0,405.2 668.7,409.1 667.0,412.7C665.1,416.5 661.5,421.4 658.4,424.5C655.4,427.5 650.9,430.8 648.5,432.0C646.1,433.2 641.6,434.4 638.6,434.7C635.5,435.0 629.6,434.7 625.4,434.1C618.6,432.9 617.7,433.0 615.9,434.6C614.2,436.2 614.0,437.8 614.0,453.7C614.0,463.2 614.4,471.0 614.8,471.0C615.3,471.0 618.2,467.4 621.3,463.1C624.4,458.8 628.7,453.8 630.8,452.1C633.0,450.4 637.1,447.8 640.1,446.3C645.0,443.8 646.7,443.5 659.2,443.2C671.4,442.8 673.0,443.0 673.6,444.5C674.0,445.4 673.2,448.4 671.9,451.3C670.6,454.1 666.6,459.6 663.0,463.4C658.2,468.5 654.7,471.2 649.5,473.7C644.1,476.3 641.3,477.0 636.7,477.0C633.5,477.0 627.7,476.5 623.8,475.9C618.0,475.0 616.5,475.1 615.4,476.2C614.2,477.3 614.0,481.7 614.2,498.6C614.5,519.5 614.5,519.5 618.0,513.1C619.9,509.5 623.6,504.5 626.2,501.9C628.9,499.2 634.1,495.6 638.2,493.6C642.3,491.6 648.4,489.6 652.0,489.0C655.6,488.5 662.6,488.0 667.7,488.0C672.8,488.0 677.2,488.4 677.5,489.0C677.9,489.6 677.4,492.6 676.5,495.8C675.6,498.9 673.4,504.1 671.7,507.3C670.1,510.5 666.3,515.3 663.4,517.9C660.5,520.5 656.0,523.7 653.4,524.9C650.5,526.3 645.8,527.4 641.6,527.7C637.3,528.0 631.0,527.6 625.6,526.7C620.7,525.8 616.3,525.3 615.8,525.6C615.4,525.9 615.0,533.4 615.0,542.3C615.0,551.2 615.3,561.5 615.7,565.2C616.0,569.0 616.6,572.0 616.9,572.0C617.3,572.0 618.9,569.0 620.4,565.4C622.1,561.5 625.5,556.5 628.6,553.1C631.5,550.0 636.2,546.1 639.1,544.5C642.0,543.0 647.1,541.1 650.4,540.4C653.8,539.7 658.1,539.1 660.0,539.1C663.3,539.1 663.4,539.2 661.0,540.1C659.6,540.7 655.4,541.8 651.7,542.6C647.6,543.4 643.1,545.2 640.5,547.0C638.1,548.7 634.6,551.9 632.7,554.3C630.8,556.6 628.5,560.0 627.6,561.8C626.6,563.6 626.0,565.8 626.2,566.7C626.4,567.7 628.2,566.7 632.3,563.1C635.5,560.3 640.1,556.9 642.6,555.4C645.1,553.9 647.3,553.0 647.5,553.2C647.8,553.5 644.0,558.9 639.0,565.4C634.1,571.8 628.9,579.5 627.4,582.5C626.0,585.5 625.0,588.4 625.2,588.9C625.3,589.5 631.6,584.0 639.0,576.7C649.6,566.2 653.5,561.6 657.4,554.9C660.1,550.3 663.3,544.8 664.6,542.8C666.0,540.7 667.5,539.0 668.0,539.0C668.6,539.0 669.0,540.0 669.0,541.3C669.0,542.6 668.3,546.1 667.4,549.1C666.5,552.1 663.9,558.1 661.7,562.5C658.8,567.9 655.5,572.4 651.1,576.7C647.5,580.2 644.9,583.2 645.2,583.5C645.4,583.8 647.7,583.4 650.2,582.6C652.7,581.9 659.1,578.8 664.6,575.7C670.0,572.7 676.2,569.5 678.4,568.6C680.5,567.7 682.9,567.0 683.6,567.0C684.4,567.0 685.0,567.8 685.0,568.8C685.0,569.7 678.6,576.7 670.8,584.4C662.4,592.5 657.0,598.4 657.8,598.7C658.5,599.0 660.5,598.7 662.2,598.1C663.9,597.5 667.3,597.0 669.6,597.0C672.0,597.0 674.0,597.3 674.0,597.7C674.0,598.0 670.9,601.6 667.0,605.6C663.2,609.5 660.0,613.3 660.0,613.9C660.0,614.5 660.2,615.0 660.5,615.0C660.7,615.0 663.1,613.6 665.7,612.0C668.5,610.2 671.7,609.0 673.7,609.0C675.5,609.0 677.0,609.3 677.0,609.8C677.0,610.2 676.1,611.6 675.0,613.0C673.9,614.4 673.0,616.1 673.0,616.8C673.0,617.4 673.3,618.0 673.6,618.0C673.9,618.0 678.0,616.4 682.7,614.4C687.4,612.5 692.1,611.0 693.2,611.2C695.0,611.5 694.9,611.7 692.6,614.9C691.1,616.8 690.0,618.7 690.0,619.1C690.0,619.5 692.7,619.6 696.0,619.3C699.9,618.9 702.0,619.1 702.0,619.8C702.0,620.4 700.8,622.2 699.4,623.9C698.0,625.6 694.1,628.2 690.7,629.8C687.3,631.4 683.2,633.3 681.6,633.9C678.9,635.0 678.9,635.2 680.4,636.9C681.3,637.9 682.0,639.1 682.0,639.7C682.0,640.3 678.7,641.5 674.6,642.4C670.1,643.4 665.6,645.2 663.3,646.9C661.2,648.4 656.2,653.3 652.2,657.8C647.5,662.9 645.3,666.1 646.2,666.4C646.9,666.6 651.5,668.0 656.5,669.5C661.5,671.0 668.6,673.8 672.5,675.7C676.4,677.6 680.5,680.1 681.8,681.3C683.0,682.4 684.0,683.9 684.0,684.7C684.0,685.4 682.2,686.9 680.0,688.0C677.8,689.1 671.8,690.9 666.7,692.0C661.7,693.0 655.8,694.6 653.6,695.5C651.0,696.6 645.3,697.3 635.9,697.7C628.2,698.0 621.7,698.7 621.5,699.1C621.2,699.5 624.2,700.9 628.2,702.2C634.0,704.0 635.5,704.9 635.5,706.5C635.5,707.6 634.4,709.0 632.9,709.7C631.4,710.4 626.7,711.5 622.4,712.1C617.9,712.7 609.5,713.0 602.8,712.7C592.1,712.2 591.0,712.3 591.0,713.8C591.0,714.7 591.4,717.1 592.0,718.9C592.6,721.2 592.6,722.8 592.0,723.5C591.4,724.2 587.7,725.0 583.7,725.3C579.8,725.7 571.4,725.6 565.2,725.1C555.2,724.3 553.2,724.5 547.7,726.2C542.4,727.9 539.6,728.1 529.0,727.7C522.1,727.4 514.0,726.6 511.0,726.0C506.9,725.1 504.8,724.0 502.9,721.7C500.2,718.6 500.2,718.6 495.9,721.5C491.7,724.5 491.7,724.5 472.1,725.0C452.7,725.5 452.5,725.5 456.2,727.2C458.3,728.1 460.0,729.1 460.0,729.4C460.0,729.6 459.3,730.6 458.4,731.4C457.3,732.6 454.8,733.0 448.9,733.0C441.5,733.0 440.9,733.2 441.5,734.9C441.8,736.0 441.4,737.3 440.4,738.0C439.3,739.0 435.3,739.4 425.7,739.3C413.7,739.2 411.9,739.5 406.5,741.7C400.8,744.1 399.8,744.2 388.0,743.7C381.1,743.4 373.6,742.5 371.5,741.8C368.3,740.8 367.4,739.9 367.2,737.9C366.9,735.5 366.4,735.2 361.7,734.6C358.8,734.3 354.5,734.0 352.1,734.0C348.8,734.0 346.9,734.7 344.0,737.0C341.9,738.7 338.0,741.0 335.3,742.2C331.0,744.2 328.5,744.5 312.5,744.8zM383.2,730.6C385.8,730.3 389.3,729.4 390.9,728.5C392.6,727.7 394.0,726.4 394.0,725.8C394.0,725.1 391.9,724.9 387.5,725.2C383.8,725.5 379.8,726.5 378.4,727.5C376.3,728.9 376.0,729.4 377.1,730.2C377.9,730.7 380.6,730.9 383.2,730.6zM581.3,716.0C581.7,716.0 581.3,714.6 580.4,712.9C579.6,711.2 575.2,706.0 570.7,701.3C566.2,696.6 559.8,690.8 556.5,688.5C553.2,686.2 547.8,682.9 544.4,681.2C541.1,679.5 535.5,677.4 532.0,676.5C528.5,675.6 522.8,674.8 519.4,674.8C514.5,674.7 512.1,675.2 507.9,677.4C504.9,678.9 501.3,681.2 499.8,682.5C498.2,683.8 497.0,685.1 497.0,685.3C497.0,685.6 500.5,686.0 504.8,686.2C509.0,686.5 515.4,687.7 519.0,689.0C522.6,690.2 530.9,693.7 537.5,696.7C544.1,699.7 554.0,704.3 559.5,706.7C565.0,709.2 572.0,712.3 575.0,713.6C578.0,714.9 580.8,716.0 581.3,716.0zM412.6,714.0C413.0,714.0 417.3,712.4 422.3,710.4C427.3,708.5 433.5,705.8 436.1,704.4C438.8,703.1 444.2,699.2 448.2,695.7C452.2,692.2 457.7,687.8 460.3,685.8C462.9,683.8 464.6,681.9 464.1,681.5C463.5,681.2 460.9,680.7 458.3,680.3C455.6,680.0 450.1,680.3 446.0,680.9C441.8,681.6 436.5,683.2 433.7,684.8C431.0,686.2 426.8,689.7 424.3,692.4C421.8,695.2 418.0,700.9 415.9,705.2C413.8,709.5 412.0,713.2 412.0,713.5C412.0,713.8 412.3,714.0 412.6,714.0zM358.5,705.9C365.6,705.9 373.3,705.5 375.5,704.9C378.5,704.1 381.7,701.6 388.1,695.2C393.1,690.1 398.8,683.0 401.8,678.1C404.6,673.4 408.4,666.2 410.2,662.1C413.2,655.2 413.5,653.6 413.4,644.5C413.4,637.1 412.8,632.6 411.2,627.4C410.0,623.5 407.3,616.9 405.3,612.9C402.9,608.0 399.6,603.5 395.5,599.5C391.4,595.4 386.5,591.9 380.5,588.8C375.5,586.3 369.1,583.7 366.2,583.0C363.1,582.3 357.4,581.9 353.1,582.2C347.8,582.5 343.9,583.4 340.5,585.0C337.9,586.3 333.2,589.8 330.1,592.9C326.9,596.0 323.3,600.7 322.1,603.3C320.8,605.9 320.0,608.4 320.3,608.7C320.6,609.0 322.8,607.7 325.2,605.7C327.6,603.8 332.1,600.6 335.2,598.6C338.4,596.6 341.0,595.1 341.0,595.4C341.0,595.6 338.1,599.2 334.6,603.4C331.2,607.6 327.7,612.2 327.0,613.6C325.7,616.0 325.9,616.4 334.1,624.3C338.7,628.8 344.6,635.4 347.1,639.0C349.7,642.6 354.6,650.5 358.0,656.5C361.5,662.5 366.6,672.1 369.3,677.7C371.9,683.4 374.0,688.8 373.8,689.7C373.6,691.0 372.4,690.3 368.6,686.5C366.0,683.7 362.5,678.7 360.9,675.2C359.3,671.8 356.7,666.1 355.1,662.7C353.6,659.2 350.1,653.0 347.4,649.0C344.7,644.9 340.0,638.8 336.8,635.4C333.6,632.0 327.7,627.0 323.8,624.3C319.8,621.5 315.0,618.5 313.1,617.6C311.2,616.6 308.8,616.1 307.4,616.4C306.1,616.8 301.5,620.5 297.2,624.8C292.6,629.2 288.2,634.7 286.7,637.6C285.3,640.4 283.5,645.3 282.6,648.6C281.8,651.8 280.7,658.6 280.1,663.7C279.6,668.7 278.4,674.3 277.5,676.1C275.9,679.0 275.7,679.1 274.2,677.6C272.8,676.2 272.5,673.7 272.5,663.1C272.5,650.3 272.5,650.3 276.7,641.9C279.3,636.7 283.2,630.9 286.9,626.9C290.6,622.8 295.2,619.1 299.0,617.1C302.3,615.3 304.9,613.3 304.7,612.7C304.5,612.0 303.0,610.7 301.3,609.7C299.6,608.7 293.8,606.8 288.4,605.4C280.2,603.3 276.9,602.9 269.3,603.3C261.4,603.7 259.0,604.2 253.6,606.9C249.2,609.0 245.2,612.2 240.6,617.0C235.4,622.5 232.8,626.6 228.5,635.4C225.4,641.7 222.0,650.6 220.8,655.1C219.1,662.1 218.8,665.3 219.3,675.5C219.6,682.1 220.5,690.2 221.4,693.5C222.3,696.8 223.5,700.7 224.1,702.2C224.7,703.8 226.0,705.0 226.9,705.0C227.9,705.0 231.8,703.9 235.6,702.6C239.4,701.3 246.6,699.3 251.5,698.2C256.5,697.1 264.9,695.6 270.4,695.0C275.8,694.4 282.5,694.1 285.4,694.5C288.2,694.9 299.3,697.0 310.0,699.2C320.7,701.4 333.1,703.8 337.5,704.5C341.9,705.2 351.4,705.8 358.5,705.9zM232.2,692.8C231.6,693.0 231.0,692.5 231.0,691.8C231.0,691.0 231.7,687.7 232.6,684.5C233.4,681.2 235.7,675.7 237.6,672.2C239.6,668.7 243.6,663.4 246.6,660.4C249.6,657.4 252.5,655.0 253.0,655.0C253.6,655.0 254.0,655.5 254.0,656.1C254.0,656.7 252.4,660.2 250.5,663.9C248.5,667.5 243.9,675.4 240.2,681.4C236.5,687.4 232.9,692.5 232.2,692.8zM333.4,690.0C332.6,690.0 331.5,688.8 331.0,687.4C330.4,686.0 330.0,683.6 330.0,682.1C330.0,680.6 330.7,676.9 331.6,674.0C332.5,671.0 334.5,666.7 336.0,664.5C337.5,662.3 339.7,659.6 340.9,658.6C342.1,657.5 343.2,656.9 343.5,657.2C343.8,657.4 342.9,660.8 341.7,664.6C340.4,668.4 338.3,675.7 337.0,680.8C335.5,687.0 334.3,690.0 333.4,690.0zM424.0,682.7C427.8,679.7 433.1,676.1 435.7,674.9C439.8,672.8 441.9,672.5 450.5,672.6C459.0,672.7 461.9,673.1 469.6,675.8C474.7,677.6 479.2,679.0 479.6,679.0C480.0,679.0 478.8,677.4 476.9,675.4C475.1,673.5 471.2,670.6 468.4,669.0C465.6,667.4 460.4,665.3 456.9,664.4C452.6,663.3 448.5,662.9 444.3,663.3C440.9,663.7 436.3,664.8 434.2,665.9C432.0,667.0 428.2,670.3 425.6,673.1C423.0,676.0 420.0,680.1 418.9,682.2C417.9,684.2 417.0,686.4 417.0,687.0C417.0,687.6 420.1,685.7 424.0,682.7zM596.3,685.0C596.7,685.0 596.3,683.6 595.3,681.9C594.3,680.2 590.8,676.3 587.5,673.2C584.1,670.0 578.9,666.3 575.8,664.7C572.6,663.2 567.3,661.2 563.8,660.3C559.1,659.0 554.0,658.6 544.0,658.7C530.5,658.8 530.5,658.8 534.1,656.0C536.0,654.4 540.5,651.1 544.1,648.6C547.6,646.1 554.8,641.5 560.0,638.3C565.2,635.1 573.2,631.1 577.7,629.2C582.2,627.4 589.8,625.0 594.7,623.9C601.1,622.4 609.0,621.7 624.0,621.2C635.3,620.8 645.1,620.1 645.8,619.7C646.5,619.2 646.8,618.5 646.5,618.0C646.2,617.5 642.9,615.1 639.2,612.7C635.5,610.3 631.4,607.7 630.1,607.0C628.8,606.3 623.9,604.5 619.2,602.9C614.6,601.3 604.4,599.1 596.6,597.9C587.0,596.4 579.9,595.9 574.5,596.3C569.4,596.6 564.6,597.6 561.3,599.0C558.5,600.2 555.1,602.3 553.8,603.7C551.5,606.3 551.5,606.3 555.5,605.7C557.7,605.3 563.8,604.6 569.0,604.0C574.2,603.3 580.3,603.0 582.5,603.2C586.5,603.5 586.5,603.5 577.8,608.4C573.1,611.1 566.8,615.3 563.9,617.9C561.0,620.4 553.2,628.4 546.5,635.8C538.9,644.0 533.0,651.5 531.0,655.3C529.2,658.7 526.8,662.5 525.7,663.7C523.7,666.0 523.7,666.0 531.6,665.4C535.9,665.0 543.5,665.3 548.5,665.9C553.5,666.6 560.2,667.8 563.5,668.7C566.8,669.6 572.2,671.5 575.6,673.0C578.9,674.5 584.7,677.8 588.5,680.4C592.4,682.9 595.8,685.0 596.3,685.0zM311.0,679.4C310.5,679.8 309.4,679.0 308.5,677.6C307.1,675.5 306.9,673.7 307.3,669.5C307.6,666.1 309.1,661.7 311.1,657.9C312.9,654.5 316.4,649.6 318.8,646.9C321.2,644.2 324.1,641.5 325.2,640.9C326.3,640.3 327.4,640.1 327.7,640.3C328.0,640.6 326.6,643.6 324.6,647.0C322.6,650.4 319.9,655.8 318.6,658.9C317.3,662.0 315.2,667.6 314.0,671.5C312.8,675.4 311.4,678.9 311.0,679.4zM498.6,671.0C499.1,671.0 501.8,666.1 504.7,660.2C507.5,654.2 512.4,645.5 515.5,640.9C518.7,636.3 526.1,626.0 532.0,618.0C537.8,610.0 545.9,598.9 549.8,593.4C553.8,587.8 557.0,582.8 557.0,582.1C557.0,581.5 556.4,581.0 555.7,581.0C555.0,581.0 550.8,582.7 546.4,584.9C542.1,587.0 535.8,590.7 532.5,593.2C529.1,595.7 524.4,600.1 521.9,603.1C519.4,606.1 515.8,610.7 514.0,613.4C512.2,616.0 509.2,621.8 507.3,626.2C505.4,630.6 502.8,638.4 501.5,643.6C500.1,648.7 498.8,657.0 498.4,662.0C498.0,667.1 498.1,671.0 498.6,671.0zM615.8,670.5C616.0,670.3 614.2,667.2 611.6,663.7C609.1,660.1 605.0,655.4 602.4,653.1C599.8,650.9 595.3,647.9 592.3,646.4C589.3,645.0 583.7,643.2 579.9,642.4C576.1,641.6 571.7,641.2 570.2,641.6C568.7,641.9 566.7,642.4 565.8,642.7C564.8,642.9 564.0,643.5 564.0,643.9C564.0,644.4 565.8,645.0 568.0,645.4C570.3,645.7 576.2,647.4 581.3,649.0C586.4,650.6 592.5,653.2 595.0,654.8C597.5,656.4 603.1,660.7 607.4,664.3C611.8,668.0 615.6,670.8 615.8,670.5zM182.2,668.4C183.5,668.1 188.3,665.0 193.0,661.5C197.7,658.1 204.3,653.4 207.7,651.2C211.0,648.9 214.8,645.9 215.9,644.4C217.1,642.9 218.0,641.1 218.0,640.3C218.0,639.5 215.9,638.0 213.4,636.8C210.8,635.7 204.4,633.9 199.1,632.7C192.1,631.2 185.6,630.6 175.0,630.6C161.0,630.5 160.3,630.6 155.0,633.3C152.0,634.9 147.1,638.0 144.2,640.2C141.3,642.5 137.7,645.9 136.1,647.9C134.6,649.9 132.3,653.4 131.0,655.7C129.8,658.0 129.0,660.5 129.3,661.3C129.7,662.3 132.5,662.9 139.2,663.4C144.3,663.8 150.8,664.3 153.5,664.6C158.4,665.2 158.8,665.1 164.4,660.5C167.6,657.9 172.7,654.2 175.8,652.4C178.8,650.5 185.1,647.9 189.7,646.5C194.3,645.1 200.5,643.5 203.5,642.9C206.5,642.4 209.5,642.2 210.1,642.6C210.7,642.9 207.0,645.5 202.0,648.3C196.1,651.6 190.5,655.7 186.4,659.8C182.9,663.4 180.0,666.9 180.0,667.7C180.0,668.7 180.6,668.9 182.2,668.4zM138.9,659.0C135.5,658.9 135.5,658.9 138.8,656.1C141.1,654.1 145.7,652.2 153.3,650.0C159.5,648.3 165.3,646.6 166.4,646.3C167.9,645.9 168.0,645.6 166.9,644.9C166.1,644.5 163.2,643.8 160.3,643.4C157.4,643.1 155.0,642.4 155.0,641.9C155.0,641.5 156.7,640.6 158.8,640.1C160.8,639.5 164.8,639.0 167.5,639.0C170.2,639.0 173.5,639.3 174.8,639.6C176.0,640.0 177.0,640.5 176.9,640.9C176.9,641.2 174.2,643.5 170.8,646.0C167.5,648.5 162.6,651.9 159.8,653.7C156.8,655.6 152.5,657.2 148.6,657.9C145.2,658.5 140.8,659.0 138.9,659.0zM624.8,655.0C625.2,655.0 627.7,653.8 630.5,652.4C633.2,650.9 639.7,648.0 645.0,645.8C650.2,643.6 656.2,640.9 658.2,639.7C660.3,638.6 662.0,637.2 662.0,636.7C662.0,636.2 659.4,636.1 655.8,636.5C652.3,636.9 646.9,638.1 643.7,639.1C640.5,640.2 636.2,642.1 634.1,643.4C632.1,644.7 629.0,647.4 627.2,649.4C625.4,651.4 624.0,653.5 624.0,654.0C624.0,654.6 624.3,655.0 624.8,655.0zM387.3,652.9C386.3,652.8 381.7,651.7 377.1,650.4C372.5,649.2 367.9,647.3 366.9,646.4C365.9,645.5 365.0,644.2 365.0,643.7C365.0,643.1 367.5,642.9 371.4,643.2C375.4,643.6 379.3,644.6 381.9,646.1C384.2,647.3 386.7,649.4 387.5,650.7C388.9,652.8 388.9,653.0 387.3,652.9zM237.0,647.0C236.3,647.0 236.2,646.4 236.9,645.1C237.5,644.1 239.4,642.0 241.2,640.5C243.0,638.9 245.9,637.1 247.7,636.3C249.5,635.6 251.9,635.0 253.1,635.0C255.3,635.0 255.3,635.0 253.4,637.1C252.4,638.3 248.5,641.0 244.8,643.1C241.2,645.2 237.7,647.0 237.0,647.0zM450.6,642.7C450.9,642.4 450.2,639.1 449.0,635.3C447.9,631.6 445.5,624.9 443.9,620.5C442.2,616.1 440.1,611.1 439.3,609.5C437.8,606.5 437.8,606.5 441.5,610.0C443.5,611.9 447.9,617.2 451.3,621.8C454.7,626.4 457.6,629.6 457.8,629.1C458.0,628.5 456.3,624.3 454.2,619.6C452.0,614.9 448.6,608.7 446.7,605.8C444.7,602.9 440.7,597.7 437.8,594.4C434.9,591.0 428.9,585.0 424.5,581.0C420.1,577.0 414.3,572.5 411.5,570.9C408.8,569.3 405.5,568.0 404.2,568.0C403.0,568.0 402.0,568.2 402.0,568.5C402.0,568.8 404.9,571.8 408.5,575.1C414.0,580.3 415.9,583.2 421.6,594.2C425.2,601.4 431.9,613.3 436.4,620.5C440.8,627.8 445.8,635.9 447.3,638.5C448.8,641.1 450.3,643.0 450.6,642.7zM389.2,636.9C387.7,636.9 382.7,635.7 378.1,634.4C373.5,633.0 368.7,631.2 367.4,630.3C366.1,629.5 365.3,628.4 365.6,627.9C365.9,627.4 368.1,627.0 370.6,627.0C373.0,627.0 377.5,627.9 380.5,628.9C383.5,630.0 387.3,631.8 389.0,633.0C390.6,634.2 392.0,635.6 392.0,636.1C392.0,636.6 390.8,637.0 389.2,636.9zM85.6,635.6C87.1,635.2 92.6,634.5 98.0,634.1C103.3,633.6 109.9,632.4 112.8,631.4C115.6,630.4 118.2,629.9 118.6,630.3C119.0,630.7 118.8,631.6 118.2,632.2C117.5,632.9 117.0,633.8 117.0,634.2C117.0,634.7 119.3,633.9 122.1,632.4C124.9,631.0 126.9,629.5 126.4,629.1C125.9,628.7 122.6,627.2 119.0,625.9C114.7,624.4 110.4,623.6 106.0,623.6C100.8,623.6 98.5,624.1 94.5,626.3C91.8,627.9 88.0,630.4 86.2,632.0C84.5,633.6 83.0,635.3 83.0,635.6C83.0,635.9 84.2,635.9 85.6,635.6zM431.2,626.0C431.7,626.0 432.0,625.6 432.0,625.2C432.0,624.7 430.3,621.9 428.2,619.0C426.2,616.0 422.7,612.3 420.5,610.8C418.3,609.3 415.3,607.8 413.8,607.4C411.6,606.9 411.0,607.1 411.0,608.4C411.0,609.3 412.7,611.8 414.7,614.1C416.8,616.4 421.2,620.0 424.5,622.1C427.8,624.2 430.8,626.0 431.2,626.0zM254.1,622.6C250.9,623.1 250.8,623.0 252.0,621.5C252.7,620.6 255.2,618.9 257.4,617.8C260.0,616.4 264.0,615.5 268.5,615.3C272.4,615.1 276.2,615.4 277.0,615.9C278.0,616.6 278.2,617.2 277.4,618.0C276.8,618.6 272.1,619.7 266.9,620.5C261.7,621.3 256.0,622.2 254.1,622.6zM164.5,615.6C173.6,615.4 187.8,614.2 200.5,612.5C212.1,611.0 221.7,609.5 222.0,609.3C222.3,609.0 221.1,607.6 219.3,606.2C217.6,604.7 213.7,602.0 210.7,600.2C207.7,598.4 204.0,596.5 202.4,595.9C199.8,594.9 198.8,595.2 193.8,598.2C190.7,600.1 185.2,602.7 181.5,603.9C177.8,605.1 174.5,605.8 174.2,605.5C173.9,605.2 174.1,604.6 174.6,604.1C175.1,603.6 179.5,600.7 184.3,597.7C193.0,592.2 193.0,592.1 190.8,590.5C189.5,589.7 184.7,587.8 180.1,586.3C171.8,583.7 171.8,583.7 162.4,588.5C157.2,591.2 152.8,593.1 152.5,592.8C152.2,592.5 154.2,590.2 157.0,587.7C159.7,585.2 162.0,582.8 162.0,582.2C162.0,581.7 160.5,580.9 158.7,580.6C157.0,580.3 154.0,580.4 152.2,580.9C150.5,581.4 144.9,584.2 140.0,587.1C135.0,589.9 130.6,592.0 130.2,591.6C129.8,591.2 131.1,589.4 133.1,587.7C135.0,585.9 138.2,583.1 140.1,581.5C143.5,578.5 143.5,578.5 138.1,578.2C134.7,578.0 130.1,578.7 125.6,580.0C121.7,581.2 115.3,583.9 111.3,586.1C107.3,588.2 103.5,590.0 102.8,590.0C102.1,590.0 103.8,587.7 106.5,584.9C109.3,582.1 113.5,578.6 116.0,577.2C120.4,574.5 120.7,574.5 139.0,574.5C154.3,574.5 159.4,574.9 168.5,576.8C174.5,578.1 184.4,580.7 190.5,582.7C196.5,584.6 205.6,588.3 210.5,590.8C215.4,593.2 223.0,597.5 227.3,600.3C231.6,603.0 235.4,605.0 235.7,604.6C236.1,604.2 233.8,601.4 230.7,598.2C226.4,593.9 225.0,591.7 224.9,589.5C224.9,586.7 224.8,586.6 224.0,588.8C223.5,590.0 222.4,591.0 221.6,591.0C220.8,591.0 219.0,590.0 217.7,588.8C215.6,586.8 215.1,585.3 214.6,578.6C214.0,570.6 214.0,570.6 216.6,573.1C218.0,574.4 220.3,577.4 221.7,579.7C223.0,582.0 225.8,585.6 227.8,587.7C229.8,589.9 232.7,593.2 234.1,595.0C235.6,596.9 237.1,598.2 237.4,597.9C237.8,597.5 237.3,593.8 236.5,589.5C235.6,585.2 233.9,579.7 232.8,577.4C231.7,575.0 228.6,571.0 225.9,568.5C223.1,565.9 217.7,562.3 213.7,560.5C209.7,558.7 202.2,555.8 196.9,554.2C191.6,552.5 182.0,550.4 175.4,549.5C168.7,548.5 157.0,547.8 148.5,547.8C138.2,547.8 131.0,548.3 125.6,549.5C121.2,550.4 115.3,552.0 112.4,553.1C109.5,554.2 103.8,557.3 99.8,559.9C95.8,562.5 89.0,568.3 84.8,572.8C80.6,577.2 75.9,582.6 74.5,584.9C73.0,587.1 72.1,589.3 72.4,589.8C72.7,590.3 75.0,591.3 77.6,591.9C80.1,592.6 85.4,594.7 89.2,596.6C93.1,598.6 105.3,603.1 116.3,606.7C127.4,610.3 139.3,613.8 142.9,614.5C147.2,615.4 154.7,615.8 164.5,615.6zM381.4,610.9C379.3,610.8 375.5,610.4 373.0,609.9C370.5,609.5 366.1,609.1 363.2,609.1C360.4,609.0 358.0,608.6 358.0,608.0C358.0,607.5 359.3,606.4 361.0,605.5C362.6,604.7 366.4,604.0 369.5,604.0C372.6,604.0 376.5,604.6 378.3,605.4C380.1,606.1 382.4,607.7 383.4,608.9C385.3,611.0 385.3,611.0 381.4,610.9zM265.1,595.0C266.1,595.0 267.0,594.4 267.0,593.7C267.0,593.0 265.4,589.1 263.5,585.1C261.5,581.0 258.6,576.0 256.9,573.8C255.2,571.7 251.9,568.9 249.7,567.6C247.4,566.3 243.0,564.5 240.1,563.6C236.2,562.5 234.3,562.3 233.6,563.0C232.8,563.8 233.8,565.2 237.0,567.8C239.4,569.8 243.3,573.3 245.5,575.6C247.7,577.9 252.6,583.1 256.3,587.4C260.4,591.9 263.9,595.0 265.1,595.0zM290.2,595.0C290.9,595.0 291.0,593.0 290.6,589.5C290.3,586.5 289.0,581.4 287.9,578.3C286.7,575.1 283.7,569.4 281.2,565.5C278.8,561.6 273.1,554.8 268.7,550.2C264.3,545.7 261.1,542.0 261.6,542.0C262.2,542.0 265.2,543.6 268.4,545.5C271.6,547.4 277.0,551.1 280.3,553.7C283.7,556.4 288.2,560.3 290.4,562.5C292.5,564.7 296.1,569.0 298.4,572.1C300.7,575.2 304.4,581.2 306.6,585.6C310.4,593.4 310.5,593.4 310.8,590.0C311.0,588.1 310.6,584.7 310.0,582.5C309.3,580.3 307.6,576.2 306.3,573.5C304.9,570.8 301.1,564.6 297.9,559.9C294.6,555.2 289.8,549.0 287.2,546.3C284.6,543.6 280.4,539.9 278.0,538.1C275.6,536.4 270.1,533.9 265.8,532.5C261.4,531.1 255.8,530.0 253.3,530.0C250.8,530.0 247.0,530.5 244.9,531.2C242.8,531.8 240.3,533.1 239.4,534.1C237.9,535.7 238.2,536.0 244.1,539.0C247.6,540.7 252.3,543.6 254.5,545.5C256.7,547.3 262.0,552.2 266.2,556.3C270.4,560.4 275.7,566.5 277.9,570.0C280.1,573.4 283.6,580.4 285.6,585.6C287.6,590.8 289.7,595.0 290.2,595.0zM406.8,584.9C407.7,585.0 407.9,584.3 407.4,582.8C407.1,581.5 406.1,579.3 405.3,577.8C404.6,576.2 403.5,575.0 403.0,575.0C402.5,575.0 401.6,575.9 401.0,576.9C400.5,578.0 400.0,579.8 400.0,580.9C400.0,582.1 401.0,583.2 402.8,583.8C404.3,584.4 406.1,584.9 406.8,584.9zM206.8,583.0C206.6,583.0 205.0,582.2 203.2,581.4C201.4,580.5 200.0,579.0 200.0,578.0C200.0,577.1 199.7,574.1 199.3,571.5C198.9,567.9 199.0,566.9 199.9,567.4C200.5,567.8 202.1,570.2 203.4,572.8C204.7,575.4 206.0,578.7 206.4,580.2C206.7,581.8 206.9,583.0 206.8,583.0zM454.0,582.0C454.9,582.0 457.3,580.0 459.4,577.5C461.4,575.0 463.0,572.2 462.8,571.3C462.6,570.3 460.4,568.8 457.5,567.7C454.7,566.6 450.2,565.1 447.5,564.4C444.8,563.6 437.8,563.0 432.0,562.9C426.2,562.8 420.1,562.5 418.5,562.1C415.5,561.4 415.5,561.4 419.0,559.2C420.9,558.0 425.1,556.5 428.2,555.9C431.4,555.3 434.0,554.4 434.0,553.9C434.0,553.5 432.4,552.6 430.4,552.0C427.7,551.1 425.8,551.0 423.1,551.9C421.0,552.5 417.4,554.8 415.1,556.9C412.7,559.1 411.0,561.5 411.2,562.2C411.4,562.9 415.1,565.4 419.5,567.6C426.8,571.5 428.1,571.8 438.0,572.5C443.8,572.8 449.3,573.5 450.1,574.0C451.3,574.8 451.3,575.3 450.1,577.1C448.9,579.1 449.0,579.5 450.6,580.7C451.6,581.4 453.1,582.0 454.0,582.0zM93.5,579.9C91.9,579.9 92.0,579.6 94.3,578.4C95.9,577.5 99.7,576.6 102.8,576.3C106.0,576.0 108.2,576.1 107.8,576.5C107.4,576.9 104.5,577.9 101.3,578.6C98.1,579.4 94.6,580.0 93.5,579.9zM188.8,577.0C188.1,576.9 186.1,576.3 184.3,575.5C181.8,574.4 180.9,573.2 180.0,569.8C179.4,567.4 178.4,564.0 177.8,562.2C177.3,560.4 177.1,558.6 177.4,558.3C177.7,557.9 180.1,559.8 182.6,562.5C185.1,565.1 187.8,568.8 188.6,570.6C189.4,572.4 190.0,574.6 190.0,575.5C190.0,576.3 189.4,577.0 188.8,577.0zM141.5,566.0C140.7,566.0 138.2,564.4 136.0,562.4C133.8,560.4 132.2,558.5 132.4,558.3C132.6,558.0 133.8,558.1 134.9,558.5C136.1,558.8 138.4,560.3 140.0,561.7C141.7,563.0 143.0,564.6 143.0,565.1C143.0,565.6 142.3,566.0 141.5,566.0zM310.0,558.9C310.4,558.1 311.3,554.4 312.0,550.5C312.8,546.6 313.3,540.7 313.3,537.2C313.3,533.0 312.4,528.5 310.5,523.5C309.0,519.3 307.2,516.0 306.5,516.0C305.8,516.0 304.3,517.5 303.2,519.2C302.1,521.0 300.2,525.3 299.1,528.7C297.9,532.2 297.0,537.5 297.0,540.7C297.0,544.7 297.6,547.5 299.0,549.8C300.1,551.6 301.4,552.8 301.9,552.5C302.5,552.2 303.4,549.5 304.1,546.5C304.8,543.5 305.5,541.2 305.8,541.4C306.0,541.7 306.6,545.6 307.1,550.1C307.6,554.6 308.3,558.7 308.7,559.3C309.0,559.9 309.6,559.7 310.0,558.9zM206.7,539.5C213.8,537.1 227.1,531.5 236.3,527.0C245.5,522.5 254.6,518.6 256.5,518.3C258.9,517.9 260.0,517.2 260.0,516.1C260.0,515.1 259.1,513.4 258.0,512.2C256.8,511.0 253.6,508.8 250.8,507.4C248.0,506.0 242.8,504.2 239.1,503.4C235.5,502.7 229.0,502.0 224.8,502.0C220.6,502.0 214.7,502.5 211.8,503.1C208.9,503.7 204.7,505.2 202.5,506.3C200.3,507.4 195.8,511.0 192.4,514.4C188.4,518.4 185.1,523.1 182.6,528.1C180.4,532.5 179.0,536.8 179.2,538.1C179.5,540.3 179.8,540.1 181.7,536.4C182.9,534.1 186.2,529.7 189.1,526.6C192.0,523.5 195.5,520.3 196.9,519.5C199.6,518.2 199.6,518.2 196.3,524.7C194.5,528.3 193.0,531.9 193.0,532.7C193.0,533.7 193.6,533.9 195.2,533.4C196.5,533.1 198.7,532.1 200.2,531.4C201.6,530.6 205.0,528.2 207.6,525.9C210.2,523.6 214.1,520.6 216.2,519.2C218.3,517.8 220.3,517.0 220.6,517.3C220.9,517.6 220.5,518.9 219.6,520.2C218.7,521.4 218.0,522.8 218.0,523.2C218.0,523.7 218.9,524.0 220.1,524.0C221.3,524.0 221.9,524.4 221.4,525.1C221.0,525.8 216.8,528.1 212.1,530.3C207.4,532.5 201.1,536.0 198.3,538.2C195.4,540.4 193.2,542.6 193.5,543.0C193.8,543.4 199.7,541.9 206.7,539.5zM437.5,536.9C441.4,537.0 445.1,536.6 445.9,536.1C446.6,535.6 446.8,535.0 446.3,534.7C445.8,534.4 442.0,533.2 437.9,532.1C433.8,530.9 428.5,529.0 426.1,527.7C423.6,526.5 421.4,524.8 421.2,524.1C420.8,523.0 422.8,522.9 432.4,523.5C439.8,523.9 444.0,523.8 444.0,523.2C444.0,522.7 440.1,518.8 435.3,514.6C430.6,510.4 426.3,507.0 425.8,507.0C425.4,507.0 425.0,506.6 425.0,506.1C425.0,505.5 426.5,505.6 428.8,506.2C430.8,506.7 435.3,508.7 438.7,510.6C442.2,512.5 446.9,516.3 449.2,519.0C451.6,521.8 454.1,524.0 454.8,524.0C455.4,524.0 456.0,523.3 456.0,522.5C456.0,521.6 455.1,519.0 453.9,516.7C452.7,514.4 450.6,511.3 449.2,509.8C447.8,508.2 447.0,507.0 447.4,507.0C447.8,507.0 449.8,507.9 451.9,508.9C453.9,510.0 456.2,511.6 456.9,512.4C457.7,513.3 458.6,514.0 459.1,514.0C459.6,514.0 460.0,513.3 460.0,512.5C460.0,511.6 458.9,509.2 457.6,507.1C456.3,505.1 453.7,502.1 451.8,500.5C450.0,499.0 446.7,496.9 444.5,495.9C442.2,494.8 438.1,494.0 434.9,494.0C431.8,494.0 427.6,494.7 425.7,495.5C423.7,496.3 420.4,498.5 418.4,500.2C416.4,502.0 411.9,507.0 408.4,511.3C404.9,515.6 402.3,519.6 402.6,520.3C402.8,521.0 407.2,524.3 412.3,527.6C417.4,531.0 423.5,534.5 426.0,535.4C428.5,536.2 433.6,536.9 437.5,536.9zM158.2,530.9C161.4,530.9 164.0,530.8 164.0,530.5C164.0,530.3 162.7,529.4 161.1,528.6C159.5,527.7 154.6,525.7 150.1,524.1C145.7,522.5 140.7,520.2 139.0,519.0C137.3,517.8 136.2,516.4 136.5,515.9C136.9,515.4 142.6,515.0 149.3,515.0C161.5,514.9 161.5,514.9 166.8,520.7C171.7,526.0 172.1,526.2 171.5,523.6C171.2,521.9 169.5,517.9 167.9,514.6C166.2,511.2 163.7,507.2 162.2,505.7C160.7,504.1 154.6,498.7 148.6,493.7C141.5,487.7 138.2,484.4 139.2,484.2C140.1,484.0 142.8,484.9 145.2,486.1C147.6,487.3 151.9,490.3 154.8,492.7C157.7,495.2 160.2,497.1 160.4,496.9C160.6,496.7 162.2,493.7 163.9,490.2C165.6,486.8 167.4,484.2 167.9,484.4C168.3,484.7 169.0,489.0 169.3,494.0C169.7,499.1 170.3,503.8 170.8,504.6C171.3,505.6 173.0,504.3 177.3,499.5C180.5,495.9 183.6,493.0 184.1,493.0C184.6,493.0 183.9,495.3 182.4,498.2C181.0,501.0 178.3,505.5 176.5,508.2C174.4,511.2 173.4,513.7 173.7,515.0C174.0,516.1 174.7,517.3 175.2,517.6C175.8,518.0 177.4,516.7 178.8,514.9C180.3,513.0 185.7,507.2 190.8,502.0C196.0,496.8 200.6,491.5 201.0,490.4C201.5,489.2 201.6,487.2 201.3,486.1C201.0,484.9 199.1,483.1 197.1,482.1C195.1,481.1 191.2,479.6 188.5,478.7C185.8,477.8 179.4,476.4 174.5,475.6C169.6,474.7 159.4,473.6 152.0,473.1C144.6,472.5 131.9,471.8 123.8,471.4C109.0,470.7 109.0,470.7 109.0,473.2C109.0,474.6 109.9,479.1 111.0,483.4C112.0,487.6 115.4,496.1 118.4,502.3C121.5,508.4 125.9,516.0 128.4,519.1C131.2,522.7 134.5,525.6 137.5,527.0C140.0,528.2 144.4,529.6 147.3,530.0C150.2,530.4 155.1,530.8 158.2,530.9zM275.5,530.6C276.1,530.4 276.4,524.4 276.2,514.4C276.0,505.7 275.0,491.8 274.0,483.5C273.0,475.2 271.9,464.7 271.5,460.0C271.2,455.3 270.7,449.1 270.4,446.2C269.8,440.9 269.8,440.9 265.9,441.5C263.8,441.9 260.2,441.9 258.0,441.5C255.7,441.1 252.9,439.7 251.3,438.1C249.7,436.7 248.0,434.6 247.4,433.5C246.4,431.7 246.0,431.7 240.4,432.9C237.2,433.6 233.5,434.4 232.2,434.6C230.0,435.0 230.0,435.0 230.0,459.6C230.0,484.2 230.0,484.2 236.1,478.6C239.4,475.5 242.8,473.0 243.7,473.0C244.7,473.0 245.1,473.6 244.7,474.8C244.4,475.7 243.5,478.2 242.6,480.2C241.7,482.2 241.4,484.1 241.8,484.4C242.3,484.7 244.3,483.8 246.3,482.5C248.3,481.1 250.4,480.0 250.9,480.0C251.5,480.0 252.0,480.9 252.0,482.0C252.0,483.0 251.1,486.2 250.0,489.0C248.9,491.7 248.5,494.0 249.0,494.0C249.5,494.0 253.0,490.4 256.7,486.1C260.7,481.5 263.9,478.5 264.4,479.0C264.9,479.5 265.9,488.4 266.6,498.7C267.3,509.0 268.3,520.0 268.7,523.0C269.4,527.4 270.0,528.7 272.0,529.7C273.4,530.4 274.9,530.8 275.5,530.6zM582.7,528.9C585.6,529.0 588.2,528.5 588.6,527.8C589.0,527.2 588.5,526.1 587.4,525.3C586.1,524.4 584.3,524.1 581.8,524.5C579.4,524.9 576.2,524.6 573.1,523.5C570.4,522.7 566.5,520.3 564.4,518.4C560.5,514.9 560.5,514.9 565.0,515.3C567.5,515.5 572.6,517.1 576.5,518.8C580.3,520.5 583.8,521.6 584.3,521.3C584.7,521.1 584.8,519.9 584.4,518.7C584.1,517.5 582.8,515.4 581.6,514.2C580.5,512.9 577.8,510.9 575.6,509.8C573.2,508.6 568.2,507.5 562.6,506.9C557.6,506.5 551.9,506.3 550.0,506.7C548.1,507.0 545.9,507.7 545.2,508.3C544.6,508.8 544.0,509.6 544.0,510.0C544.0,510.4 545.8,512.8 548.1,515.4C550.4,518.0 554.3,521.5 556.7,523.2C560.2,525.5 563.3,526.6 569.4,527.5C573.8,528.2 579.8,528.8 582.7,528.9zM93.2,523.0C91.7,522.9 88.1,522.1 85.1,521.0C82.2,519.9 78.1,517.9 76.1,516.4C74.1,514.9 71.5,512.5 70.3,511.1C69.1,509.7 68.1,507.9 68.0,507.2C68.0,506.6 68.8,506.0 69.8,506.0C70.8,506.0 74.1,506.7 77.1,507.6C80.1,508.5 84.1,510.3 86.0,511.8C87.9,513.2 91.0,515.7 92.8,517.3C94.5,519.0 96.0,521.0 96.0,521.7C96.0,522.5 94.9,523.0 93.2,523.0zM641.0,518.9C643.9,518.9 647.4,518.1 650.7,516.5C653.6,515.2 657.9,512.1 660.3,509.7C662.6,507.3 666.2,502.5 668.3,499.2C670.4,495.8 671.8,492.5 671.4,491.9C670.9,491.1 667.7,490.9 661.1,491.3C654.7,491.6 649.5,492.6 645.5,494.1C642.2,495.3 637.9,497.3 636.0,498.5C634.1,499.7 630.6,502.8 628.2,505.3C625.2,508.6 624.0,510.8 624.0,512.9C624.0,515.5 624.5,516.0 627.8,516.9C629.8,517.4 632.6,518.1 634.0,518.3C635.4,518.5 638.5,518.8 641.0,518.9zM631.6,514.0C630.7,514.0 630.0,513.8 630.0,513.5C630.0,513.3 631.2,511.9 632.8,510.5C634.3,509.1 639.7,505.9 644.8,503.5C649.9,501.0 655.2,499.0 656.5,499.0C657.9,499.0 659.0,499.4 659.0,499.9C659.0,500.4 657.4,502.2 655.5,503.9C653.5,505.6 650.3,507.8 648.2,508.9C646.2,509.9 642.0,511.5 638.8,512.4C635.7,513.3 632.5,514.0 631.6,514.0zM156.0,508.2C155.7,508.4 150.3,507.1 144.0,505.3C137.7,503.4 131.6,501.3 130.4,500.5C129.2,499.7 126.8,496.6 125.0,493.5C123.2,490.4 122.1,487.6 122.5,487.2C122.9,486.8 128.3,489.2 134.6,492.5C140.9,495.7 148.4,500.5 151.3,503.1C154.2,505.7 156.3,508.0 156.0,508.2zM389.6,502.0C391.3,502.0 392.0,501.4 392.0,500.0C392.0,498.6 392.7,498.0 394.4,498.0C395.7,498.0 397.0,498.6 397.3,499.2C397.6,500.0 399.7,500.5 403.1,500.5C407.8,500.5 408.5,500.3 408.5,498.5C408.5,497.0 407.3,496.1 403.5,494.8C400.8,493.9 398.5,492.6 398.5,491.8C398.5,490.9 400.2,490.5 404.6,490.5C408.0,490.5 411.3,489.9 412.2,489.2C413.1,488.5 414.5,488.3 415.5,488.6C416.7,489.1 417.1,488.9 416.8,488.0C416.6,487.3 412.4,485.4 407.4,483.9C402.5,482.3 398.1,481.0 397.7,481.0C397.3,481.0 394.7,483.0 392.1,485.5C388.5,488.9 386.9,491.3 386.1,494.6C385.2,498.1 385.2,499.5 386.1,500.6C386.7,501.4 388.3,502.0 389.6,502.0zM214.0,498.0C216.1,498.0 218.3,497.4 218.9,496.6C219.8,495.5 220.0,487.1 219.8,465.3C219.5,435.4 219.5,435.4 216.2,431.2C214.3,428.9 212.2,427.0 211.5,427.0C210.5,427.0 210.1,432.9 209.5,453.4C209.1,468.0 209.1,483.9 209.5,488.9C210.2,498.0 210.2,498.0 214.0,498.0zM483.5,496.8C488.5,496.9 488.5,496.9 483.5,495.4C480.8,494.6 476.7,493.7 474.6,493.3C471.8,492.9 470.9,493.0 471.4,493.8C471.8,494.5 473.5,495.4 475.3,495.9C477.1,496.4 480.8,496.8 483.5,496.8zM576.5,494.0C572.4,494.0 567.3,493.2 564.2,492.1C561.3,491.1 556.4,488.6 553.4,486.5C550.4,484.4 546.1,480.6 544.0,478.2C541.9,475.7 539.3,471.9 538.2,469.6C537.1,467.3 535.9,464.6 535.6,463.4C535.3,462.3 535.6,460.6 536.4,459.5C537.5,457.9 539.5,457.6 551.1,457.2C562.6,456.8 565.6,457.1 572.3,458.9C576.6,460.1 581.8,462.1 583.9,463.5C586.1,464.8 589.4,467.6 591.4,469.6C593.4,471.6 596.3,476.0 598.0,479.3C599.6,482.6 601.0,486.1 601.0,487.0C601.0,488.2 598.7,489.4 592.2,491.4C586.2,493.2 581.3,494.0 576.5,494.0zM479.0,487.3C479.8,486.9 483.4,486.5 487.0,486.3C490.6,486.1 494.1,485.7 494.9,485.4C495.9,485.1 496.0,484.6 495.1,483.6C494.4,482.8 491.2,482.1 487.0,481.8C482.1,481.6 479.5,480.9 478.3,479.7C476.7,478.1 476.7,477.8 478.0,476.9C478.8,476.4 481.3,476.1 483.5,476.4C485.7,476.6 490.7,476.3 494.7,475.6C499.6,474.7 503.0,473.5 505.4,471.6C507.4,470.1 509.0,468.4 509.0,467.8C509.0,467.2 507.9,467.0 506.2,467.4C504.7,467.7 500.9,468.5 497.7,469.0C493.8,469.7 488.7,469.7 482.5,469.1C474.6,468.3 472.4,467.7 469.4,465.4C466.6,463.3 465.4,462.9 464.2,463.7C463.2,464.2 462.0,466.2 461.3,468.1C460.6,470.0 460.1,473.6 460.1,476.1C460.0,479.6 460.5,481.1 462.2,482.7C463.5,483.8 465.4,485.2 466.4,485.8C467.6,486.4 469.3,486.5 470.5,486.0C471.8,485.5 473.5,485.7 475.0,486.6C476.4,487.3 478.2,487.6 479.0,487.3zM575.1,485.9C577.1,486.0 580.1,485.5 581.9,484.9C583.6,484.3 585.0,483.4 585.0,482.9C585.0,482.4 584.0,481.8 582.8,481.6C581.5,481.3 578.4,480.8 575.8,480.5C573.2,480.2 568.0,478.4 564.2,476.5C560.5,474.6 556.2,471.7 554.5,470.0C551.6,467.0 551.6,467.0 554.9,467.0C556.6,467.0 559.8,467.9 562.0,469.0C564.2,470.1 567.6,471.0 569.7,471.0C571.8,471.0 575.9,471.9 578.8,473.0C581.7,474.1 584.5,475.0 585.0,475.0C585.6,475.0 586.0,474.4 586.0,473.7C586.0,473.0 584.3,470.8 582.2,468.8C580.2,466.8 577.1,464.5 575.3,463.6C573.5,462.7 569.3,461.3 565.8,460.5C562.3,459.7 555.4,459.0 550.4,459.0C544.0,459.0 540.9,459.4 540.1,460.3C539.3,461.3 539.7,462.7 541.9,466.1C543.4,468.5 546.9,472.6 549.7,475.1C552.4,477.7 556.1,480.5 557.8,481.4C559.5,482.3 563.3,483.7 566.2,484.4C569.1,485.2 573.1,485.9 575.1,485.9zM471.0,480.0C470.7,480.0 469.4,479.3 468.2,478.4C467.0,477.6 466.0,476.5 466.0,475.9C466.0,475.4 467.0,475.0 468.3,475.0C469.6,475.0 471.5,475.7 472.6,476.5C474.2,477.8 474.3,478.1 473.0,479.0C472.2,479.5 471.3,480.0 471.0,480.0zM639.2,466.9C641.3,467.0 645.3,466.1 648.1,464.9C651.0,463.8 654.6,461.9 656.1,460.6C657.6,459.3 660.9,456.0 663.4,453.1C665.9,450.3 668.0,447.2 668.0,446.4C668.0,445.0 666.6,444.9 657.2,445.5C648.7,446.1 645.7,446.7 642.5,448.5C640.3,449.8 637.1,452.3 635.4,454.2C633.7,456.0 631.3,459.2 630.1,461.2C628.7,463.5 628.3,465.0 629.0,465.0C629.7,465.0 631.5,464.1 633.0,463.0C634.5,461.9 638.8,459.7 642.5,458.0C646.2,456.4 650.0,455.0 651.1,455.0C652.1,455.0 653.0,455.4 653.0,455.9C653.0,456.4 651.3,458.2 649.2,459.9C647.1,461.5 643.1,463.8 640.4,464.9C635.5,466.9 635.5,466.9 639.2,466.9zM504.1,464.0C505.0,464.0 506.1,463.3 506.4,462.4C506.7,461.6 506.6,460.1 506.1,459.1C505.6,458.2 502.9,455.3 500.2,452.8C496.3,449.2 494.2,448.0 490.6,447.5C488.0,447.1 484.6,447.0 482.9,447.4C481.2,447.7 477.9,449.4 475.7,451.2C473.4,452.9 470.7,455.3 469.8,456.4C468.8,457.6 468.0,459.5 468.0,460.8C468.0,462.7 468.5,463.0 471.8,463.0C475.1,463.0 476.1,462.3 480.8,457.0C483.7,453.7 486.7,451.0 487.3,451.0C488.0,451.0 489.8,452.4 491.5,454.0C493.1,455.7 496.3,458.6 498.5,460.5C500.7,462.4 503.2,464.0 504.1,464.0zM363.0,450.4C368.2,450.2 374.5,449.7 377.0,449.3C380.7,448.6 381.6,448.1 381.8,446.2C382.2,443.9 382.0,443.8 373.8,444.0C369.2,444.1 363.7,443.9 361.5,443.5C359.3,443.2 356.1,442.7 354.3,442.4C352.2,442.1 350.9,441.2 350.5,439.9C349.9,438.1 349.3,437.9 345.7,438.5C342.0,439.2 341.4,439.0 339.3,436.4C337.3,434.0 336.8,433.7 336.0,435.0C335.5,435.8 335.0,437.8 335.0,439.3C335.0,440.9 335.5,443.1 336.1,444.3C336.8,445.5 337.8,446.8 338.4,447.2C339.0,447.6 341.1,448.0 343.0,448.0C344.9,448.1 348.1,448.7 350.0,449.5C352.4,450.4 356.6,450.7 363.0,450.4zM584.5,446.3C581.8,446.6 577.8,446.4 575.7,445.9C573.7,445.4 569.7,443.9 566.8,442.4C564.0,441.0 559.4,437.5 556.5,434.6C553.7,431.8 550.1,426.8 548.6,423.5C546.8,419.8 545.5,415.2 545.2,411.4C544.7,405.3 544.7,405.3 548.2,404.6C550.0,404.3 555.1,404.4 559.5,405.0C563.9,405.6 569.1,406.3 571.0,406.6C572.9,407.0 577.0,408.5 580.0,410.0C583.1,411.6 587.4,414.8 589.7,417.3C592.0,419.8 595.0,424.0 596.3,426.7C597.7,429.3 599.5,433.9 600.4,436.9C601.3,439.9 601.9,442.4 601.7,442.6C601.6,442.7 598.8,443.5 595.5,444.3C592.2,445.2 587.2,446.1 584.5,446.3zM427.0,438.4C428.4,438.1 429.9,437.9 430.5,437.9C431.1,437.9 433.8,438.2 436.7,438.6C439.5,438.9 443.0,439.0 444.4,438.6C445.8,438.3 447.0,437.5 447.0,436.8C447.0,436.1 445.3,435.9 441.5,436.4C436.5,437.0 435.5,436.8 432.6,434.5C430.8,433.1 428.8,432.0 428.1,432.0C427.5,432.0 426.2,432.5 425.2,433.1C423.9,433.9 422.5,433.8 419.6,432.6C417.4,431.7 415.5,431.2 415.2,431.4C415.0,431.7 415.0,432.6 415.4,433.5C415.7,434.4 417.9,435.9 420.2,437.0C422.6,438.1 425.6,438.7 427.0,438.4zM580.8,437.9C581.4,438.0 582.0,437.6 582.0,437.0C582.0,436.5 580.2,435.1 577.9,434.0C575.7,432.8 571.0,428.9 567.4,425.2C563.9,421.5 561.0,418.1 561.0,417.7C561.0,417.2 562.0,417.2 563.2,417.5C564.5,417.9 568.2,419.5 571.5,421.2C574.8,422.9 580.1,426.0 583.2,428.1C586.4,430.3 589.5,432.0 590.1,432.0C590.7,432.0 590.9,431.1 590.5,429.8C590.1,428.5 588.9,425.9 587.7,424.0C586.6,422.1 584.3,419.0 582.6,417.2C580.9,415.3 577.9,413.0 575.9,412.0C573.9,410.9 567.6,409.4 561.9,408.5C556.3,407.7 551.1,407.0 550.3,407.0C549.6,407.0 549.0,408.0 549.0,409.2C549.0,410.5 550.1,413.9 551.5,416.8C552.8,419.6 555.3,423.7 557.0,425.8C558.7,427.9 561.9,430.7 564.2,432.0C566.5,433.3 570.9,435.1 573.9,436.1C577.0,437.1 580.1,437.9 580.8,437.9zM257.8,433.0C258.7,433.0 265.3,432.3 272.3,431.6C283.0,430.5 285.5,429.9 287.5,428.0C288.8,426.8 290.1,424.7 290.5,423.3C290.8,421.9 290.4,418.5 289.6,415.7C288.7,412.8 286.5,407.9 284.5,404.7C281.8,400.3 281.5,399.2 282.9,400.0C284.0,400.5 288.1,404.6 292.1,409.0C297.7,415.2 300.0,417.0 302.0,417.0C303.5,417.0 306.5,415.7 308.6,414.2C310.7,412.6 314.0,409.7 315.7,407.7C317.5,405.6 319.2,402.9 319.6,401.6C319.9,400.2 320.0,398.3 319.8,397.3C319.7,396.3 317.7,394.6 315.5,393.6C313.3,392.5 308.2,390.8 304.0,389.8C299.9,388.8 294.4,388.0 291.8,388.0C289.1,388.0 287.0,388.4 287.0,389.0C287.0,389.5 285.4,391.0 283.5,392.2C281.6,393.5 279.8,395.3 279.4,396.2C279.0,397.5 277.8,398.0 275.5,398.0C273.6,398.0 271.0,398.4 269.7,398.9C267.5,399.7 267.1,400.7 266.5,406.2C266.1,409.7 265.4,413.1 265.0,413.9C264.6,414.7 264.3,412.0 264.4,407.9C264.5,400.5 264.5,400.5 261.5,400.0C259.9,399.7 256.8,398.6 254.8,397.7C252.7,396.8 250.6,396.0 250.1,396.0C249.5,396.0 244.0,400.2 237.9,405.2C231.8,410.3 226.4,414.6 225.9,414.8C225.4,415.0 225.0,414.6 225.0,413.9C225.0,413.3 228.1,409.7 231.8,406.1C235.6,402.5 240.3,398.6 242.3,397.5C244.3,396.4 246.0,395.0 246.0,394.4C246.0,393.7 245.2,392.2 244.2,390.9C242.3,388.7 242.3,388.7 230.9,390.9C224.6,392.1 217.3,393.6 214.5,394.1C211.8,394.6 208.5,395.7 207.3,396.5C206.1,397.3 204.7,399.6 204.1,401.6C203.5,403.7 203.5,406.0 204.0,407.3C204.5,408.5 208.2,412.7 212.2,416.6C216.2,420.5 221.0,424.3 222.9,424.9C224.8,425.5 229.9,426.0 234.2,426.0C241.2,426.0 242.4,425.7 244.5,423.6C245.8,422.3 248.7,417.7 250.8,413.4C253.0,409.0 255.6,404.6 256.5,403.5C258.1,401.5 258.1,401.5 257.6,403.5C257.4,404.6 256.0,409.9 254.5,415.3C253.0,420.8 252.1,426.1 252.4,427.5C252.7,428.8 253.7,430.6 254.6,431.4C255.4,432.3 256.9,433.0 257.8,433.0zM638.5,425.8C642.0,425.9 644.7,425.3 647.4,423.7C649.6,422.5 654.2,418.2 657.7,414.2C661.3,410.2 663.9,406.3 663.7,405.7C663.4,404.9 660.9,404.6 655.9,404.8C651.8,404.9 645.6,405.9 642.0,407.0C638.0,408.2 633.9,410.3 631.3,412.5C629.0,414.4 626.2,417.6 625.0,419.6C623.8,421.5 623.1,423.4 623.4,423.8C623.8,424.1 626.2,424.7 628.8,425.1C631.4,425.4 635.8,425.8 638.5,425.8zM632.4,424.0C630.7,424.0 630.0,423.4 630.0,422.2C630.0,421.1 630.8,419.6 631.8,418.7C632.8,417.7 635.9,416.4 638.6,415.6C641.3,414.8 645.0,414.0 646.8,413.6C648.5,413.3 650.0,413.4 650.0,413.9C650.0,414.4 648.5,416.0 646.8,417.6C645.0,419.1 641.6,421.1 639.2,422.1C636.8,423.2 633.7,424.0 632.4,424.0zM446.2,405.0C447.4,405.0 448.0,404.2 448.0,402.6C448.0,401.3 447.3,399.9 446.4,399.6C445.5,399.3 444.2,399.0 443.4,399.0C442.6,399.0 442.0,399.8 442.0,400.8C442.0,401.8 442.5,403.1 443.2,403.8C443.9,404.5 445.2,405.0 446.2,405.0zM627.7,389.0C630.3,389.0 633.1,388.0 636.1,386.2C638.5,384.6 642.4,381.2 644.8,378.7C647.1,376.1 649.0,373.4 649.0,372.5C649.0,371.7 648.2,371.0 647.2,371.0C646.3,371.0 642.8,372.3 639.5,373.9C635.5,375.8 632.1,378.4 629.4,381.6C627.2,384.3 625.0,387.1 624.6,387.8C624.1,388.7 624.9,389.0 627.7,389.0zM212.0,388.0C215.0,388.0 221.8,387.3 227.0,386.5C232.2,385.7 237.5,384.8 238.8,384.5C240.1,384.2 241.0,383.2 241.0,382.0C241.0,381.0 240.4,379.8 239.8,379.3C239.1,378.9 235.3,378.0 231.5,377.4C224.5,376.2 224.5,376.2 232.8,376.1C240.7,376.0 241.0,375.9 241.0,373.7C241.0,371.8 238.6,369.9 228.8,363.6C219.4,357.7 216.1,356.0 214.3,356.5C212.9,356.8 209.9,359.1 207.4,361.6C204.9,364.1 202.2,367.6 201.4,369.5C200.6,371.4 200.0,374.3 200.0,376.0C200.0,377.7 200.6,380.6 201.4,382.4C202.2,384.3 203.6,386.3 204.7,386.9C205.7,387.5 209.0,388.0 212.0,388.0zM262.1,387.0C262.6,387.0 263.0,386.2 263.0,385.1C263.0,384.1 262.4,382.7 261.6,382.1C260.9,381.5 258.9,381.3 257.1,381.6C255.4,382.0 254.0,382.9 254.0,383.6C254.0,384.5 255.1,385.0 256.9,385.0C258.6,385.0 260.2,385.4 260.5,386.0C260.8,386.6 261.5,387.0 262.1,387.0zM588.7,385.0C590.5,385.0 592.0,384.8 592.0,384.5C592.0,384.3 590.3,383.2 588.2,382.1C586.2,381.1 583.2,378.8 581.6,377.1C579.9,375.4 579.0,374.0 579.4,374.0C579.8,374.0 581.5,374.7 583.1,375.6C584.8,376.4 586.8,376.9 587.6,376.6C588.4,376.3 589.0,375.6 589.0,375.0C589.0,374.5 587.4,372.2 585.4,370.1C583.5,367.9 580.0,365.2 577.7,364.1C575.4,363.0 571.8,361.8 569.8,361.5C566.3,360.8 566.0,361.0 566.0,363.1C566.0,364.4 566.9,367.3 567.9,369.5C568.9,371.7 570.9,374.9 572.4,376.7C573.8,378.4 577.4,381.0 580.2,382.4C583.1,383.8 586.9,385.0 588.7,385.0zM253.5,379.8C254.9,379.6 255.6,378.6 255.8,376.3C256.0,374.6 256.7,372.7 257.3,372.2C258.0,371.7 260.8,371.0 263.7,370.6C266.9,370.2 269.1,370.3 269.5,371.0C269.8,371.5 271.2,372.0 272.5,372.0C273.9,372.0 275.4,371.1 276.0,369.9C276.9,368.4 276.8,367.5 275.9,366.4C275.3,365.6 274.3,365.0 273.8,365.0C273.3,365.0 271.7,364.1 270.3,363.0C268.9,361.9 266.7,361.0 265.4,361.0C264.2,361.0 260.9,361.5 258.1,362.2C255.3,362.8 252.1,364.2 251.0,365.2C249.9,366.2 249.0,367.7 249.0,368.4C249.0,369.2 249.9,370.0 251.0,370.3C252.1,370.6 253.0,371.3 253.0,371.8C253.0,372.4 252.0,373.0 250.8,373.2C249.5,373.4 248.4,374.3 248.2,375.4C247.9,376.5 248.6,378.0 249.6,378.7C250.7,379.5 252.4,379.9 253.5,379.8zM269.5,379.3C270.5,379.0 271.0,377.8 270.8,376.1C270.6,374.4 269.8,373.4 268.4,373.2C267.3,373.0 265.8,373.6 265.1,374.4C264.1,375.6 264.3,376.3 265.9,377.9C267.1,379.1 268.6,379.7 269.5,379.3zM286.4,372.0C286.6,372.0 290.3,370.4 294.6,368.4C298.9,366.4 304.3,364.0 306.6,362.9C308.8,361.8 311.2,359.9 311.8,358.6C312.5,357.0 312.6,355.0 312.0,352.9C311.5,351.2 310.4,348.7 309.5,347.4C308.7,346.1 307.0,344.2 305.8,343.0C304.4,341.7 302.3,341.0 299.8,341.0C296.6,341.0 295.2,341.7 291.7,345.2C289.4,347.6 285.6,352.4 283.2,355.9C279.0,362.2 279.0,362.3 280.8,364.4C281.8,365.6 283.4,367.7 284.3,369.2C285.3,370.8 286.2,372.0 286.4,372.0zM244.5,365.0C245.6,363.9 248.0,361.8 249.9,360.2C253.4,357.3 253.4,357.3 251.1,351.8C249.9,348.8 247.5,344.7 245.9,342.7C243.0,339.1 242.6,339.0 236.4,339.0C232.8,339.0 228.5,339.6 226.7,340.3C224.9,341.1 221.8,343.6 219.7,345.9C217.6,348.2 216.0,350.8 216.2,351.7C216.4,352.6 219.3,354.2 222.9,355.6C226.5,356.8 232.3,359.9 235.9,362.4C242.4,366.9 242.5,366.9 244.5,365.0zM625.3,355.0C626.0,355.0 629.2,353.7 632.5,352.1C635.9,350.5 640.3,347.4 642.7,344.8C645.0,342.3 647.5,338.8 648.4,337.2C649.3,335.5 650.0,333.9 650.0,333.5C650.0,333.2 649.0,333.0 647.8,333.0C646.5,333.0 643.2,334.1 640.5,335.4C637.7,336.7 634.6,339.0 633.6,340.5C631.8,343.3 631.8,343.3 634.0,342.7C635.2,342.4 635.9,342.4 635.6,342.8C635.2,343.1 633.1,344.4 630.8,345.5C628.5,346.6 625.8,348.8 624.7,350.2C623.6,351.6 623.1,353.3 623.4,353.9C623.8,354.5 624.7,355.0 625.3,355.0zM212.7,344.0C213.2,344.0 215.3,342.2 217.4,340.1C221.3,336.1 221.3,336.1 220.5,320.3C219.9,306.5 219.5,303.8 217.3,299.0C215.0,294.1 214.7,293.7 213.7,295.5C212.9,296.8 212.4,305.4 212.2,320.8C212.0,333.5 212.3,344.0 212.7,344.0zM590.2,334.0C591.2,334.0 592.0,333.7 592.0,333.4C592.0,333.0 590.4,331.0 588.5,328.8C586.5,326.7 584.7,323.7 584.4,322.2C584.0,320.3 582.2,318.3 579.0,316.1C576.2,314.2 573.4,313.0 572.5,313.3C571.7,313.7 571.0,314.5 571.0,315.2C571.0,315.9 572.0,318.5 573.1,321.0C574.2,323.4 575.9,326.3 576.8,327.4C577.7,328.4 580.8,330.3 583.5,331.6C586.2,332.9 589.3,334.0 590.2,334.0zM599.8,320.4C599.6,321.5 597.4,320.3 592.0,316.2C587.5,312.7 583.8,309.0 582.7,306.8C581.7,304.8 580.6,301.5 580.3,299.5C579.8,296.5 580.0,295.9 581.2,296.1C582.1,296.3 584.9,299.2 587.4,302.5C590.0,305.8 593.9,310.8 596.1,313.7C598.3,316.6 600.0,319.6 599.8,320.4zM618.9,320.0C619.9,320.0 622.5,318.7 624.7,317.1C627.0,315.5 629.9,312.6 631.3,310.8C632.6,309.0 634.5,306.1 635.4,304.3C636.4,302.3 636.6,300.9 636.0,300.5C635.5,300.2 633.4,300.7 631.5,301.6C629.5,302.5 626.1,305.3 623.8,307.9C621.6,310.4 618.9,313.8 617.9,315.4C616.9,317.0 616.3,318.7 616.6,319.2C616.9,319.6 617.9,320.0 618.9,320.0zM603.9,288.0C605.0,288.0 606.0,287.4 606.0,286.8C605.9,286.1 605.5,283.6 605.1,281.2C604.6,278.9 604.6,276.8 605.0,276.5C605.4,276.3 606.0,273.1 606.4,269.5C606.8,266.0 607.3,262.4 607.6,261.6C607.9,260.8 608.8,260.4 609.6,260.7C610.6,261.1 611.0,260.4 611.0,258.6C611.0,257.2 610.7,256.0 610.4,256.0C610.1,256.0 608.3,257.2 606.4,258.7C604.4,260.1 602.0,263.1 600.8,265.3C599.7,267.6 599.0,270.5 599.2,272.1C599.6,274.3 599.2,275.0 597.6,275.2C596.2,275.4 595.4,276.4 595.2,278.1C595.0,280.0 595.9,281.8 598.3,284.4C600.2,286.4 602.7,288.0 603.9,288.0zM218.0,275.4C220.5,275.1 223.6,274.1 225.0,273.1C227.0,271.6 227.6,270.3 227.8,265.9C228.0,262.9 227.4,256.8 226.4,252.2C225.5,247.7 224.3,243.7 223.9,243.4C223.4,243.1 222.5,244.1 221.9,245.7C221.3,247.2 220.0,252.8 218.9,258.0C217.8,263.2 216.4,267.9 215.9,268.5C215.2,269.2 214.4,268.9 213.5,267.7C212.8,266.7 211.7,263.1 211.1,259.7C210.5,256.3 209.8,250.5 209.4,246.9C209.0,243.2 208.3,239.6 207.9,238.9C207.2,237.8 206.4,238.1 204.5,240.3C203.2,241.8 201.5,244.9 200.8,247.3C200.1,249.6 199.6,255.6 199.5,260.7C199.5,268.8 199.8,270.2 201.6,272.0C202.7,273.2 205.9,274.5 208.6,275.0C211.3,275.5 215.5,275.6 218.0,275.4zM147.5,238.0C148.3,238.0 149.0,237.1 149.0,236.0C149.0,234.8 149.8,233.9 151.2,233.6C152.5,233.3 156.1,232.6 159.3,232.0C162.5,231.3 169.6,229.3 175.2,227.4C180.8,225.5 186.0,224.0 186.8,224.0C187.8,224.0 187.7,224.7 186.2,226.8C185.2,228.3 184.0,230.1 183.6,230.8C183.0,231.8 183.5,231.9 185.7,231.4C187.2,231.0 190.4,229.9 192.8,228.9C195.1,227.9 197.0,227.3 197.0,227.6C197.0,227.9 196.3,229.5 195.4,231.1C194.6,232.8 194.1,234.4 194.4,234.7C194.7,235.0 196.9,234.1 199.3,232.7C201.7,231.3 205.3,228.3 207.4,226.0C209.4,223.7 211.0,221.1 210.8,220.2C210.6,219.3 208.2,217.3 205.5,215.8C202.7,214.2 195.3,211.4 189.0,209.4C182.7,207.5 174.7,204.7 171.2,203.3C166.9,201.5 165.3,200.4 166.2,199.8C166.9,199.4 173.2,199.3 180.2,199.7C187.6,200.0 193.0,199.9 193.0,199.4C193.0,198.9 192.6,198.0 192.2,197.5C191.8,196.9 189.7,195.1 187.5,193.4C185.3,191.7 180.2,188.6 176.1,186.4C171.8,184.2 165.9,179.9 162.1,176.3C158.5,172.9 155.9,169.8 156.3,169.4C156.6,169.0 157.6,169.3 158.4,169.9C159.2,170.6 160.0,170.7 160.3,170.3C160.6,169.9 160.1,166.7 159.2,163.3C158.3,159.9 157.9,156.8 158.3,156.4C158.7,156.0 160.7,157.0 162.8,158.7C164.8,160.3 170.1,164.1 174.5,167.0C178.8,169.9 184.3,174.1 186.7,176.3C190.9,180.2 190.9,180.2 191.6,174.9C192.3,169.7 192.3,169.6 193.9,171.9C194.8,173.1 198.4,179.3 202.1,185.7C205.7,192.0 209.0,197.1 209.6,196.9C210.1,196.7 210.4,194.9 210.4,193.0C210.3,191.1 210.4,190.3 210.7,191.2C210.9,192.2 211.5,193.0 212.0,193.0C212.4,193.0 213.1,190.9 213.4,188.2C213.8,185.2 213.5,181.5 212.5,178.0C211.7,175.0 210.3,169.9 209.4,166.7C208.6,163.5 208.1,160.5 208.5,160.2C208.9,159.8 210.5,161.0 212.1,162.9C213.7,164.8 215.2,166.2 215.5,165.9C215.7,165.6 216.3,162.1 216.6,158.2C217.0,154.2 217.6,151.0 218.0,151.0C218.4,151.0 219.2,152.1 219.8,153.5C220.4,154.9 221.7,156.0 222.5,156.0C223.4,156.0 224.6,154.8 225.2,153.2C226.3,150.5 226.3,150.5 227.6,154.5C228.3,156.7 228.9,162.0 228.9,166.2C229.0,170.5 229.4,174.0 229.8,174.0C230.2,174.0 232.9,171.0 235.7,167.2C238.5,163.5 243.3,156.6 246.3,151.9C249.3,147.2 253.0,140.9 254.5,138.0C256.0,135.1 257.2,131.2 257.2,129.5C257.2,127.7 256.4,125.1 255.5,123.6C254.6,122.2 251.6,119.7 248.8,118.0C246.1,116.3 240.6,113.8 236.5,112.5C232.5,111.1 227.5,110.0 225.5,110.0C223.6,110.0 220.3,110.7 218.4,111.5C216.5,112.3 213.7,113.9 212.3,115.0C210.3,116.6 208.2,117.0 202.8,117.0C199.0,117.0 194.5,117.6 192.6,118.4C190.8,119.1 188.0,121.4 186.3,123.4C184.6,125.5 182.8,128.8 182.1,130.9C181.5,133.0 181.0,136.3 181.0,138.1C181.0,140.0 180.6,142.1 180.2,142.7C179.6,143.7 178.0,143.7 173.5,143.0C170.2,142.4 164.1,141.9 160.0,141.9C155.9,141.8 151.3,142.3 149.9,142.8C148.5,143.4 146.1,145.3 144.7,147.0C143.2,148.7 141.7,151.3 141.4,152.7C141.0,154.1 141.0,158.1 141.3,161.6C141.7,165.2 142.8,170.1 144.0,172.7C145.1,175.2 146.0,177.6 146.0,177.9C146.0,178.3 142.6,179.2 138.5,179.8C134.3,180.5 129.2,181.9 127.0,183.0C124.8,184.1 121.5,186.4 119.5,188.1C116.8,190.5 116.0,192.0 116.0,194.7C116.0,196.5 116.7,199.4 117.5,200.9C118.3,202.5 120.3,204.9 122.0,206.4C123.8,207.8 125.6,209.0 126.1,209.0C126.7,209.0 126.8,208.0 126.4,206.8C126.0,205.5 125.5,203.9 125.3,203.2C125.0,202.6 125.4,202.0 126.1,202.0C126.9,202.0 131.8,204.0 137.0,206.5C142.2,208.9 149.8,211.9 153.9,213.0C157.9,214.2 160.9,215.5 160.4,216.0C159.9,216.4 157.2,217.5 154.4,218.4C151.5,219.4 147.6,221.6 145.6,223.6C142.8,226.3 142.0,227.9 142.0,230.5C142.0,232.7 142.8,234.8 144.0,236.0C145.1,237.1 146.7,238.0 147.5,238.0zM248.8,213.6C254.2,213.2 260.5,212.0 263.4,210.9C266.2,209.8 272.8,206.8 278.0,204.2C283.7,201.4 287.5,198.9 287.5,198.0C287.5,196.9 285.6,196.3 279.8,195.6C275.5,195.1 272.0,194.3 272.0,193.9C272.0,193.5 273.9,191.8 276.3,190.1C278.7,188.5 281.2,186.5 281.9,185.6C282.7,184.7 282.8,184.0 282.2,184.0C281.7,184.0 277.3,185.6 272.6,187.6C267.9,189.6 262.5,192.4 260.6,193.8C258.7,195.3 252.8,200.0 247.6,204.4C242.3,208.7 238.3,212.7 238.6,213.2C239.1,213.9 242.6,214.0 248.8,213.6zM227.9,204.0C228.4,204.0 231.8,200.6 235.5,196.5C239.2,192.4 242.6,189.0 243.0,189.0C243.5,189.0 243.2,191.3 242.4,194.1C241.5,196.9 241.1,199.4 241.4,199.7C241.6,200.0 242.8,199.9 244.0,199.5C245.2,199.1 250.8,195.1 256.4,190.6C261.9,186.2 270.8,179.3 276.0,175.4C281.2,171.4 287.4,165.8 289.8,162.9C292.4,159.7 294.0,156.8 293.8,155.6C293.6,154.2 292.2,153.1 290.0,152.3C287.8,151.5 284.2,151.2 280.5,151.6C277.3,151.9 273.2,152.7 271.5,153.5C269.9,154.2 264.1,158.7 258.7,163.4C253.2,168.1 248.2,172.0 247.4,172.0C246.6,172.0 246.0,171.0 246.0,169.5C246.0,168.1 245.6,167.0 245.2,167.0C244.7,167.0 243.7,167.6 242.8,168.2C242.0,168.9 240.1,171.1 238.7,173.0C237.3,174.9 234.6,179.7 232.6,183.6C230.6,187.6 228.4,193.4 227.5,196.5C226.7,199.7 226.3,202.7 226.6,203.1C226.9,203.6 227.5,204.0 227.9,204.0zM368.9,202.5C369.1,202.2 367.7,200.3 365.7,198.1C363.8,195.9 361.6,193.2 361.0,192.0C360.4,190.8 360.1,189.6 360.3,189.3C360.6,189.1 362.5,189.9 364.7,191.3C366.8,192.6 371.1,194.7 374.3,195.8C377.4,197.0 382.4,198.2 385.3,198.5C388.1,198.8 391.8,198.7 393.5,198.2C396.4,197.4 396.4,197.4 390.5,193.3C387.2,191.0 383.1,188.0 381.5,186.7C379.9,185.3 378.8,183.9 379.1,183.6C379.4,183.3 382.8,184.1 386.6,185.4C390.4,186.7 395.6,188.7 398.0,190.0C400.5,191.2 404.0,193.3 405.8,194.7C407.6,196.1 409.8,196.9 410.5,196.6C411.7,196.2 412.0,194.1 412.0,187.6C412.0,182.7 411.6,178.8 410.9,178.5C410.3,178.1 405.7,176.7 400.7,175.4C395.6,174.1 388.6,172.3 385.0,171.4C381.4,170.6 372.4,169.6 364.9,169.3C355.1,168.9 350.7,169.1 349.1,170.0C347.1,171.0 346.9,171.7 347.4,175.1C347.7,177.2 348.9,181.4 350.0,184.4C351.2,187.4 353.9,191.9 356.2,194.5C358.5,197.2 362.2,200.1 364.4,201.1C366.6,202.1 368.6,202.7 368.9,202.5zM398.7,154.9C396.9,154.9 394.6,154.5 393.5,154.1C392.4,153.6 390.6,152.3 389.6,151.1C388.5,149.9 387.9,148.8 388.2,148.5C388.4,148.2 391.3,148.7 394.5,149.5C397.7,150.4 401.0,151.6 401.7,152.2C402.4,152.7 402.7,153.6 402.4,154.1C402.1,154.6 400.4,155.0 398.7,154.9zM197.4,149.0C196.6,149.0 196.0,148.0 196.0,146.7C196.0,145.4 197.4,141.6 199.0,138.3C200.7,134.9 202.7,131.6 203.6,131.0C204.4,130.3 205.3,129.9 205.6,130.2C205.8,130.5 205.6,132.9 205.0,135.5C204.4,138.1 202.8,142.2 201.4,144.6C200.0,147.0 198.2,149.0 197.4,149.0zM422.2,97.2C422.6,96.8 423.4,90.6 424.0,83.5C424.6,76.3 425.3,69.4 425.6,68.0C426.2,65.6 426.2,65.6 428.1,69.3C429.2,71.4 430.4,75.3 430.7,78.0C431.0,80.6 431.6,83.4 432.1,84.1C432.7,85.1 433.2,85.1 434.5,84.0C435.4,83.3 436.8,81.3 437.7,79.6C439.0,77.1 439.0,75.8 438.1,71.5C437.4,68.6 434.8,63.1 432.0,58.7C429.3,54.5 426.4,51.0 425.6,51.0C424.8,51.0 421.6,53.6 418.5,56.8C415.4,59.9 411.3,64.8 409.5,67.5C407.6,70.2 405.8,74.4 405.4,76.7C404.8,80.8 404.8,80.9 413.1,89.4C417.7,94.1 421.8,97.6 422.2,97.2z" />

</svg>