<?xml version="1.0" encoding="UTF-8" standalone="no"?>
<svg 
  version="1.1" 
  xmlns="http://www.w3.org/2000/svg" 
  xmlns:xlink="http://www.w3.org/1999/xlink" 
  xmlns:svg="http://www.w3.org/2000/svg"
  xmlns:rdf="http://www.w3.org/1999/02/22-rdf-syntax-ns#"
  xmlns:cc="http://creativecommons.org/ns#"
  xmlns:dc="http://purl.org/dc/elements/1.1/"
  viewBox="0 0 768 768"
  width="768"
  height="768"
>
<style>svg {background-color: white; }</style>"
<metadata id="metadata1">
Created by https://svgstud.io and licensed under CC-BY-SA 4.0 license. Please attribute https://svgstud.io
</metadata>
<metadata id="prompt">
golden eagle
</metadata>
<metadata id="version">
7
</metadata>
<metadata id="metadata2">
<rdf:RDF>
<cc:Work
    rdf:about="">
    <cc:license
    rdf:resource="http://creativecommons.org/licenses/by-sa/4.0/" />
    <dc:creator>
        <cc:Agent>
            <dc:title>https://svgstud.io</dc:title>
        </cc:Agent>
    </dc:creator>
</cc:Work>
<cc:License
    rdf:about="http://creativecommons.org/licenses/by-sa/4.0/">
    <cc:permits
    rdf:resource="http://creativecommons.org/ns#Reproduction" />
    <cc:permits
    rdf:resource="http://creativecommons.org/ns#Distribution" />
    <cc:requires
    rdf:resource="http://creativecommons.org/ns#Notice" />
    <cc:requires
    rdf:resource="http://creativecommons.org/ns#Attribution" />
    <cc:permits
    rdf:resource="http://creativecommons.org/ns#DerivativeWorks" />
    <cc:requires
    rdf:resource="http://creativecommons.org/ns#ShareAlike" />
</cc:License>
</rdf:RDF>
</metadata>
<metadata id="uid">
6517e10b6f0fb48f200ba073e79c8715d965cfad030f5c81068bb1349095e0c5
</metadata>
<path stroke="none" fill="black" fill-rule="evenodd" d="M362.1,763.0C361.7,763.0 360.6,762.2 359.7,761.2C358.8,760.2 356.8,756.8 355.3,753.5C352.6,747.8 352.5,746.8 352.7,734.5C352.7,727.4 353.0,720.1 353.2,718.5C353.5,715.5 353.5,715.5 344.6,714.8C336.8,714.1 335.2,714.3 332.5,715.9C330.8,716.9 327.6,718.3 325.4,719.0C323.3,719.7 318.2,722.0 314.2,724.1C310.1,726.2 306.1,728.0 305.2,728.0C304.4,728.0 302.6,727.1 301.4,725.9C299.2,723.8 299.2,723.8 297.3,725.8C296.3,726.8 293.7,730.0 291.5,732.9C289.3,735.8 286.7,738.6 285.8,739.1C284.5,739.8 283.7,739.5 282.5,737.7C281.7,736.4 280.7,733.3 280.4,730.7C280.0,728.0 280.3,723.4 281.0,719.9C281.7,716.6 284.0,710.5 286.2,706.3C288.3,702.2 290.0,698.6 290.0,698.5C290.0,698.3 287.3,700.0 284.0,702.3C279.1,705.6 277.6,706.2 276.2,705.4C275.3,704.8 273.7,701.9 272.8,699.0C271.8,696.0 270.7,693.3 270.2,692.8C269.8,692.4 265.3,692.8 260.1,693.7C250.7,695.4 250.7,695.4 246.1,701.0C243.6,704.0 240.5,707.8 239.3,709.4C237.5,711.6 236.5,712.1 234.6,711.6C232.8,711.2 231.8,709.9 231.1,707.2C230.5,705.2 230.0,701.4 230.0,698.9C230.0,696.4 230.7,691.9 231.6,688.9C232.5,685.9 234.0,682.1 235.1,680.4C236.1,678.7 237.0,676.6 237.0,675.7C237.0,674.6 235.7,674.0 232.8,673.6C230.4,673.3 225.5,672.8 221.8,672.5C218.1,672.1 214.7,671.4 214.4,670.8C214.0,670.3 214.7,668.8 215.9,667.7C217.8,665.7 219.3,665.5 232.8,665.1C245.4,664.8 247.9,664.5 250.2,662.8C251.8,661.7 253.0,660.4 253.0,659.8C253.0,659.3 251.9,657.9 250.5,656.8C249.1,655.7 248.0,654.2 248.0,653.4C248.0,652.6 250.8,649.0 254.2,645.5C257.8,641.9 261.8,638.8 263.5,638.4C265.2,638.0 273.5,638.6 283.6,640.0C297.5,641.9 301.2,642.1 302.4,641.1C303.2,640.4 305.0,636.8 306.4,633.2C307.8,629.5 310.1,622.5 311.5,617.7C312.8,612.8 314.2,608.4 314.5,607.9C314.9,607.4 316.4,601.6 318.1,594.9C319.7,588.3 321.4,582.0 322.0,581.0C322.8,579.5 322.4,578.7 320.1,576.7C318.0,574.9 316.9,572.9 316.2,568.9C315.6,565.9 314.9,560.1 314.5,555.9C314.2,551.7 313.3,543.8 312.5,538.4C311.6,532.9 309.6,523.1 308.0,516.5C306.3,509.9 304.4,503.3 303.8,501.7C303.2,500.2 299.9,496.7 296.4,493.9C292.9,491.1 286.4,484.9 282.0,480.2C277.5,475.4 270.3,466.3 265.9,460.0C261.5,453.7 256.1,445.6 254.1,442.0C250.9,436.6 249.6,435.3 246.4,434.2C244.2,433.5 238.9,431.2 234.5,429.0C228.1,425.9 224.5,423.1 216.4,415.3C210.4,409.5 203.8,401.7 200.1,396.1C196.6,391.0 191.1,381.3 187.8,374.7C184.5,368.0 180.2,357.8 178.3,352.0C176.4,346.2 173.8,335.9 172.4,329.0C170.8,320.4 170.0,313.1 170.0,305.5C170.0,298.4 170.7,291.4 172.0,285.7C173.0,280.9 174.8,275.0 175.9,272.6C176.9,270.2 180.0,266.0 182.6,263.2C186.2,259.6 188.9,257.8 192.5,256.7C195.2,255.9 198.9,255.5 200.7,255.7C202.5,256.0 204.3,256.7 204.8,257.4C205.3,258.0 206.0,264.8 206.3,272.5C206.7,283.6 207.5,289.9 210.3,302.5C212.3,311.3 214.9,323.6 216.0,329.9C217.2,336.2 219.3,345.0 220.7,349.4C222.1,353.9 224.4,359.6 225.8,362.2C227.2,364.9 228.7,367.0 229.2,367.0C229.6,367.0 230.0,366.4 230.0,365.8C230.0,365.1 229.3,360.9 228.5,356.5C227.7,352.1 227.1,345.7 227.0,342.3C227.0,338.9 227.4,335.9 227.9,335.6C228.4,335.3 229.2,336.3 229.8,337.8C230.4,339.3 233.0,348.4 235.5,358.0C238.1,367.6 241.9,379.7 244.1,384.8C246.3,390.0 249.5,396.7 251.2,399.8C252.9,403.0 258.9,411.6 264.4,419.0C269.9,426.4 277.5,435.7 281.2,439.6C284.9,443.5 291.3,449.3 295.4,452.4C299.5,455.6 306.4,460.2 310.7,462.6C315.0,465.1 321.6,468.0 325.5,469.1C329.4,470.3 333.3,471.4 334.2,471.7C335.2,471.9 336.0,471.7 336.0,471.2C336.0,470.7 333.2,468.1 329.8,465.4C326.3,462.7 318.3,456.2 311.9,450.8C305.4,445.4 298.1,438.7 295.5,435.8C292.9,432.9 289.5,428.6 287.8,426.3C286.2,423.9 285.4,422.0 286.0,422.0C286.6,422.0 288.0,422.5 289.1,423.0C290.1,423.6 291.0,423.8 291.0,423.4C291.0,423.1 289.2,419.0 287.0,414.3C284.8,409.6 283.0,404.9 283.0,403.9C283.0,402.8 283.3,402.0 283.6,402.0C284.0,402.0 289.9,407.7 296.9,414.8C305.0,423.0 311.4,428.6 314.8,430.4C317.7,431.9 320.4,432.9 320.7,432.6C321.0,432.3 319.9,428.9 318.2,425.2C316.4,421.4 315.0,417.8 315.0,417.2C315.0,416.5 315.4,416.0 315.8,416.0C316.3,416.0 318.7,417.5 321.1,419.4C323.5,421.3 327.2,425.1 329.3,427.9C331.4,430.6 336.2,435.8 339.9,439.3C343.7,442.8 348.8,447.1 351.3,448.9C353.8,450.6 356.3,452.0 356.8,452.0C357.4,452.0 357.0,448.9 356.0,444.8C355.0,440.8 354.0,435.7 353.7,433.5C353.1,429.5 353.1,429.5 357.2,434.0C359.5,436.5 362.8,441.6 364.5,445.5C366.3,449.4 370.8,461.8 374.4,473.1C378.0,484.4 382.8,501.5 385.0,511.0C387.2,520.5 389.6,532.4 390.5,537.4C391.3,542.4 392.2,553.1 392.6,561.2C393.1,572.0 393.6,576.0 394.5,576.0C395.2,576.0 397.7,573.9 400.0,571.2C404.1,566.5 404.1,566.5 403.6,574.2C403.2,579.6 403.4,582.1 404.2,582.6C405.0,583.1 408.5,580.0 413.8,574.4C421.2,566.5 423.0,563.8 430.0,549.7C434.3,541.0 438.4,531.4 439.1,528.2C439.8,525.1 440.3,518.0 440.4,512.5C440.4,502.5 440.4,502.5 429.9,483.0C424.1,472.3 418.0,460.4 416.4,456.6C414.1,451.2 412.7,449.2 409.5,447.2C407.3,445.8 402.2,441.5 398.2,437.6C394.1,433.7 388.4,427.6 385.5,424.0C382.6,420.4 377.7,413.3 374.5,408.2C371.4,403.0 367.0,394.8 364.9,389.8C362.8,384.8 360.5,380.1 359.8,379.2C359.1,378.4 356.5,376.9 354.1,375.8C351.6,374.8 347.0,372.3 343.8,370.4C340.1,368.1 336.6,364.9 334.0,361.3C331.8,358.2 330.0,355.3 330.0,354.8C330.0,354.3 331.9,355.0 334.2,356.3C336.6,357.7 340.7,359.3 343.4,359.9C346.3,360.6 348.7,360.7 349.2,360.2C349.7,359.7 346.3,356.2 340.8,351.8C335.7,347.7 329.4,342.9 326.7,341.1C324.1,339.3 320.2,335.5 318.0,332.7C315.9,329.8 313.4,325.8 312.6,323.8C311.8,321.9 311.3,320.1 311.5,319.8C311.7,319.6 315.6,321.2 320.1,323.3C324.5,325.5 330.2,327.5 332.6,327.8C335.9,328.1 337.0,327.9 336.9,326.9C336.9,326.1 335.2,322.2 333.2,318.1C331.0,313.7 328.5,310.2 327.0,309.4C325.6,308.7 321.9,306.8 318.7,305.3C315.4,303.8 310.8,300.8 308.4,298.7C306.0,296.6 302.8,292.8 301.4,290.4C299.7,287.5 298.6,283.9 298.3,279.8C297.7,273.7 297.7,273.7 305.0,281.4C309.4,286.0 314.8,290.5 318.5,292.5C321.9,294.4 325.4,296.0 326.3,296.0C327.8,296.0 328.0,294.4 328.0,282.2C328.0,270.4 328.4,267.6 330.4,261.9C331.7,258.3 334.2,253.1 336.1,250.4C337.9,247.7 341.2,243.5 343.5,241.1C345.7,238.7 349.8,235.3 352.7,233.4C355.5,231.6 359.8,229.1 362.2,227.9C365.0,226.5 369.5,225.4 375.0,224.9C382.2,224.2 386.0,224.5 400.5,227.0C409.9,228.6 420.4,230.2 424.0,230.5C427.6,230.9 430.3,231.0 430.0,230.7C429.7,230.4 427.2,228.7 424.5,226.8C421.8,225.0 417.7,222.4 415.5,221.1C413.3,219.8 408.1,217.5 404.0,215.9C399.9,214.3 393.9,212.3 390.8,211.5C387.6,210.6 380.3,209.3 374.5,208.5C368.6,207.7 362.6,206.3 361.1,205.5C359.6,204.8 356.8,202.4 355.0,200.3C353.2,198.3 350.6,194.3 349.4,191.5C348.1,188.6 346.7,184.3 346.4,181.8C346.0,179.0 346.2,177.0 346.8,176.6C347.5,176.2 350.3,179.1 353.4,183.4C356.5,187.5 360.1,191.8 361.6,192.9C363.1,194.1 364.5,194.9 364.7,194.7C364.9,194.5 364.3,191.5 363.5,188.1C362.6,184.7 362.0,181.0 362.2,179.9C362.4,178.3 364.2,179.5 372.4,187.0C377.9,191.9 382.9,196.0 383.7,196.0C384.4,196.0 385.0,195.7 385.0,195.3C385.0,195.0 383.9,193.3 382.6,191.6C381.4,189.9 379.6,187.2 378.8,185.5C377.9,183.8 376.9,180.9 376.5,179.0C376.1,177.1 374.7,174.2 373.5,172.5C372.3,170.9 368.7,164.6 365.6,158.5C362.5,152.5 360.0,146.8 360.0,145.8C360.0,144.8 360.3,144.0 360.6,144.0C360.9,144.0 362.1,144.5 363.3,145.1C364.5,145.7 368.1,148.7 371.2,151.8C377.0,157.4 377.0,157.4 377.0,154.2C377.0,152.4 375.9,148.2 374.5,144.9C373.2,141.6 370.3,136.0 368.0,132.4C365.8,128.9 364.0,125.8 364.0,125.6C364.0,125.3 366.0,125.9 368.5,127.0C371.0,128.1 375.1,130.3 377.5,132.0C379.9,133.6 382.1,135.0 382.4,135.0C382.8,135.0 381.7,132.4 380.1,129.2C378.5,126.0 374.4,120.0 371.1,115.9C367.7,111.8 365.0,108.1 365.0,107.6C365.0,107.2 365.6,107.0 366.2,107.3C366.9,107.6 369.9,108.8 372.8,110.1C375.7,111.3 378.3,112.0 378.7,111.6C379.0,111.3 378.7,109.8 377.9,108.4C377.2,107.0 374.4,103.3 371.8,100.2C369.1,97.0 365.2,92.4 362.9,89.8C358.9,85.1 358.9,85.0 361.4,85.0C362.8,85.0 366.2,85.9 369.0,87.0C371.8,88.1 374.3,89.0 374.5,89.0C374.8,89.0 375.0,88.4 375.0,87.7C375.0,87.0 372.6,83.0 369.8,78.8C366.9,74.6 361.2,67.7 357.3,63.5C353.3,59.2 347.8,54.0 345.2,52.0C342.5,50.0 336.7,46.5 332.2,44.2C326.7,41.3 320.9,39.3 314.3,37.9C305.9,36.1 302.1,35.9 287.5,36.3C273.7,36.7 268.7,37.2 261.0,39.3C255.8,40.6 247.7,43.2 243.1,45.0C236.6,47.5 233.4,49.5 229.3,53.4C226.2,56.5 224.0,59.5 224.0,60.7C224.0,61.9 224.5,63.2 225.1,63.6C225.7,63.9 228.0,63.7 230.2,62.9C234.1,61.6 234.3,61.7 236.2,64.3C237.3,65.8 239.0,67.0 239.9,67.0C240.9,67.0 242.7,65.9 244.0,64.5C245.3,63.1 246.7,62.0 247.2,62.0C247.6,62.0 248.0,63.1 248.0,64.5C248.0,66.4 248.5,67.0 250.0,67.0C251.2,67.0 253.3,66.4 254.8,65.6C256.3,64.9 261.2,63.7 265.7,63.1C270.3,62.4 276.6,61.2 279.7,60.3C283.2,59.3 289.7,58.7 296.0,58.6C301.8,58.6 308.2,58.9 310.2,59.3C312.2,59.7 315.7,61.6 318.0,63.5C320.2,65.4 325.4,68.8 329.5,71.2C333.6,73.5 337.0,76.0 337.0,76.7C337.0,77.4 335.8,78.3 334.2,78.6C332.7,79.0 329.9,80.1 328.0,81.1C326.1,82.0 323.1,84.3 321.3,86.2C319.6,88.0 318.0,90.2 317.8,91.0C317.6,91.8 315.9,93.6 314.0,94.9C310.6,97.4 310.6,97.4 313.8,98.7C315.5,99.4 317.0,100.5 317.0,101.1C317.0,101.6 314.0,103.5 310.2,105.2C306.5,106.9 300.5,109.0 296.8,109.8C290.0,111.4 290.0,111.4 290.0,114.9C290.0,116.8 289.3,119.1 288.4,120.1C287.5,121.1 287.0,122.6 287.3,123.5C287.7,124.3 289.1,125.0 290.5,125.0C292.0,125.0 294.1,125.5 295.2,126.1C297.3,127.2 297.3,127.2 295.0,129.0C292.6,130.8 292.6,130.8 296.6,132.8C298.8,133.9 304.7,135.9 309.8,137.3C316.6,139.1 320.3,140.7 324.2,143.7C327.1,145.9 330.4,149.3 331.5,151.3C332.5,153.3 333.1,155.3 332.7,155.7C332.3,156.1 329.0,155.0 325.4,153.2C321.9,151.4 318.5,150.0 318.0,150.0C317.4,150.0 318.4,152.8 320.2,156.2C322.2,160.0 323.5,164.3 323.8,167.6C324.2,172.1 324.0,173.1 322.4,173.7C321.2,174.2 319.9,173.5 318.0,171.1C316.5,169.4 313.8,166.8 312.0,165.5C310.1,164.1 308.3,163.0 307.9,163.0C307.5,163.0 307.4,165.6 307.7,168.9C308.1,173.0 307.9,175.0 307.0,175.5C306.2,176.0 304.5,174.9 302.3,172.1C300.4,169.8 298.0,167.5 296.9,167.0C295.2,166.0 295.1,166.2 296.0,168.5C296.6,170.0 297.0,173.3 297.0,176.0C297.0,178.7 296.6,181.1 296.1,181.4C295.6,181.8 294.3,180.5 293.2,178.8C292.0,177.0 289.6,174.0 287.7,172.2C284.3,168.9 284.3,168.9 283.7,174.9C283.4,178.7 282.1,183.2 280.0,187.4C278.2,191.0 274.5,196.3 271.8,199.1C268.2,202.8 266.6,204.0 265.8,203.2C265.0,202.4 265.0,200.5 265.9,196.5C266.7,192.9 266.8,190.5 266.2,189.7C265.7,189.0 264.5,186.1 263.6,183.3C262.6,180.4 261.5,177.8 261.0,177.5C260.5,177.2 259.7,178.5 259.0,180.4C258.4,182.3 256.3,185.9 254.4,188.4C252.5,190.9 250.4,193.0 249.9,193.0C249.2,193.0 249.1,190.0 249.6,184.0C249.9,179.1 250.0,175.0 249.7,175.0C249.4,175.0 246.0,179.4 242.2,184.8C238.3,190.1 233.6,197.2 231.7,200.6C229.7,203.9 227.2,209.0 226.0,212.0C224.9,214.9 224.2,217.5 224.4,217.8C224.7,218.0 227.1,216.4 229.8,214.1C232.6,211.9 235.5,210.0 236.4,210.0C237.7,210.0 237.8,210.5 236.9,212.8C236.3,214.3 234.0,218.0 231.8,221.0C229.6,224.0 225.8,228.3 223.4,230.5C219.5,234.0 218.8,235.2 218.0,240.5C217.5,243.8 217.0,250.2 217.0,254.8C217.0,260.7 217.3,263.0 218.2,262.9C218.9,262.9 223.3,258.6 227.9,253.4C232.5,248.2 236.4,244.1 236.6,244.3C236.8,244.4 236.4,247.7 235.9,251.5C235.3,255.4 234.9,263.4 234.9,269.5C234.9,278.1 235.4,282.6 237.4,290.0C238.8,295.2 240.5,301.4 241.2,303.7C241.8,306.0 242.1,308.3 241.7,308.7C241.3,309.0 239.4,307.8 237.4,305.9C235.5,304.0 232.5,299.6 230.8,296.1C229.2,292.6 226.9,285.5 225.8,280.2C224.7,274.9 223.7,270.4 223.6,270.2C223.4,270.1 222.1,271.8 220.6,274.0C219.1,276.2 217.5,279.2 216.9,280.7C216.4,282.1 215.6,283.0 215.2,282.6C214.8,282.2 213.7,279.1 212.7,275.7C211.7,272.1 210.7,264.5 210.3,257.5C209.9,249.0 210.2,242.4 211.4,234.7C212.6,226.3 213.9,222.0 217.3,214.7C219.7,209.7 224.5,201.0 228.0,195.5C231.5,190.0 235.9,182.1 237.7,178.0C240.2,172.3 241.0,169.1 241.0,164.5C241.0,159.9 240.3,157.0 237.9,152.0C236.3,148.4 232.8,143.4 230.3,140.8C225.6,136.1 225.6,136.1 215.1,136.1C209.3,136.1 202.9,135.7 201.0,135.1C199.1,134.5 196.9,134.0 196.2,134.0C195.5,134.0 194.0,135.5 192.9,137.2C191.2,140.0 190.9,141.6 191.4,147.8C191.7,151.7 191.7,155.0 191.4,155.0C191.1,155.0 189.4,154.0 187.8,152.8C186.1,151.7 183.8,148.6 182.8,146.1C181.7,143.6 180.2,140.8 179.5,140.0C178.8,139.2 177.5,135.0 176.6,130.8C175.2,124.4 175.1,121.6 175.9,114.3C176.4,109.5 177.6,103.2 178.5,100.3C179.3,97.4 182.3,91.7 185.1,87.6C187.8,83.5 192.4,78.1 195.3,75.7C198.2,73.2 202.3,70.4 204.5,69.3C206.7,68.2 209.6,67.0 211.0,66.7C212.8,66.2 214.3,64.3 216.5,59.8C218.7,55.2 221.0,52.4 225.3,48.9C228.5,46.3 233.9,42.8 237.3,41.2C240.7,39.5 247.0,37.0 251.3,35.6C255.6,34.2 263.0,32.4 267.8,31.5C272.6,30.7 280.6,29.7 285.5,29.4C290.6,29.0 299.1,29.3 305.0,29.9C310.8,30.6 318.6,32.0 322.5,33.2C326.4,34.3 332.2,36.6 335.5,38.2C338.8,39.9 344.6,43.3 348.4,45.7C352.2,48.2 358.8,53.6 362.9,57.9C367.1,62.1 372.7,68.7 375.3,72.4C377.9,76.1 381.6,82.2 383.4,85.9C385.3,89.5 388.2,97.1 389.9,102.8C391.6,108.5 393.6,117.7 394.4,123.3C395.3,128.9 396.4,138.5 396.9,144.7C397.5,150.8 398.6,159.9 399.5,164.9C400.4,169.9 402.4,178.0 404.1,182.8C405.8,187.6 409.2,195.0 411.7,199.3C414.2,203.6 418.6,209.7 421.4,212.7C424.2,215.8 430.8,221.9 436.0,226.2C444.5,233.2 446.4,234.3 454.0,236.5C458.7,237.9 466.5,240.9 471.4,243.3C476.4,245.6 484.0,250.2 488.4,253.4C492.9,256.7 500.0,262.4 504.2,266.2C508.4,270.1 516.2,278.1 521.6,284.1C527.0,290.1 532.7,297.0 534.4,299.3C536.0,301.6 538.8,305.1 540.5,307.0C542.1,308.9 548.7,318.8 555.1,329.0C561.5,339.2 571.9,356.7 578.2,368.0C584.6,379.3 593.3,395.0 597.7,403.0C602.1,411.0 610.7,427.6 616.8,439.9C623.0,452.2 630.6,466.6 633.7,471.9C636.8,477.2 640.3,482.9 641.5,484.5C642.8,486.1 644.1,488.6 644.5,489.9C645.0,491.4 644.8,492.5 643.9,493.1C643.1,493.6 641.5,494.0 640.2,494.0C638.8,494.0 638.0,494.6 638.0,495.8C638.0,496.7 641.2,502.0 645.2,507.5C649.1,513.0 655.7,521.8 659.9,527.0C664.1,532.2 669.0,538.4 670.9,540.8C672.7,543.2 674.0,545.4 673.7,545.7C673.3,546.0 671.1,545.1 668.7,543.7C666.2,542.2 660.3,536.9 655.5,531.8C650.7,526.7 643.3,518.0 639.0,512.5C634.7,507.0 630.1,501.3 628.7,499.8C627.3,498.3 624.5,496.7 622.4,496.1C620.2,495.5 616.6,494.8 614.2,494.4C611.9,494.0 610.0,494.1 610.0,494.4C610.0,494.8 611.9,497.9 614.2,501.3C616.5,504.7 620.5,510.2 623.2,513.5C625.9,516.8 632.3,523.8 637.4,529.0C642.5,534.2 649.3,540.3 652.4,542.5C655.5,544.7 662.1,549.6 666.9,553.5C671.8,557.4 679.3,563.6 683.7,567.5C688.1,571.4 692.9,575.5 694.4,576.8C696.5,578.6 696.9,579.4 696.1,580.4C695.5,581.2 692.6,582.0 689.7,582.3C686.6,582.6 680.2,582.0 674.0,580.9C668.2,579.9 657.9,577.5 651.2,575.6C644.4,573.6 636.4,571.0 633.5,569.6C630.5,568.3 626.1,565.3 623.5,562.9C621.0,560.6 616.5,555.0 613.6,550.6C610.6,546.1 607.4,541.7 606.4,540.8C605.2,539.8 602.1,539.0 598.5,538.7C595.2,538.4 588.0,537.0 582.5,535.6C577.0,534.2 568.7,531.7 564.0,530.1C559.3,528.4 554.7,527.0 553.7,527.0C552.0,527.0 552.0,527.1 553.8,529.8C554.9,531.3 556.9,534.8 558.4,537.7C559.8,540.6 563.7,546.9 567.1,551.7C570.5,556.5 576.5,564.5 580.4,569.5C584.3,574.5 593.7,585.8 601.3,594.7C608.8,603.6 619.9,615.3 625.8,620.7C631.7,626.1 640.9,634.1 646.2,638.4C651.5,642.6 656.2,647.0 656.5,648.1C656.9,649.3 656.9,650.5 656.5,650.8C656.1,651.2 651.3,651.5 645.7,651.5C640.1,651.5 632.7,651.1 629.2,650.6C624.1,649.9 623.1,650.0 623.5,651.1C623.8,651.9 623.6,653.1 623.1,653.9C622.3,655.2 621.1,655.2 615.3,654.1C611.6,653.5 606.4,652.2 603.8,651.4C601.2,650.6 595.4,647.4 590.9,644.4C586.4,641.4 582.6,639.1 582.4,639.3C582.1,639.5 582.7,641.4 583.5,643.4C584.4,645.4 584.8,647.6 584.4,648.2C584.0,648.9 581.5,649.1 577.6,648.7C574.2,648.4 567.5,646.7 562.6,645.1C557.6,643.4 550.6,640.0 546.8,637.5C543.1,635.1 537.0,630.1 533.1,626.5C529.3,622.9 522.8,615.5 518.7,610.0C514.6,604.6 508.6,595.8 505.4,590.6C502.1,585.3 499.2,581.0 498.8,581.0C498.3,581.0 498.0,582.8 498.0,585.0C498.0,587.2 499.2,592.4 500.6,596.5C502.0,600.6 503.0,604.5 502.8,605.2C502.5,606.0 500.0,604.2 496.7,600.7C493.5,597.5 491.0,595.4 491.0,596.0C491.0,596.6 491.5,598.0 492.1,599.2C492.7,600.3 492.9,602.3 492.6,603.6C492.2,604.9 491.5,606.0 491.0,606.0C490.4,606.0 488.3,604.9 486.2,603.6C483.9,602.2 480.3,597.9 476.7,592.4C473.5,587.5 469.4,581.1 467.7,578.1C465.9,575.1 464.1,572.7 463.5,572.9C463.0,573.0 462.7,574.5 462.8,576.3C463.0,578.0 464.9,583.5 467.1,588.4C469.2,593.3 471.0,597.6 471.0,598.1C471.0,598.6 470.6,599.0 470.0,599.0C469.5,599.0 467.3,597.4 465.1,595.5C463.0,593.6 459.5,588.7 457.4,584.7C455.3,580.8 452.4,573.7 451.0,569.0C448.4,560.5 448.4,560.5 443.7,569.6C441.1,574.6 436.5,581.4 433.5,584.7C430.4,588.1 427.2,593.1 426.0,596.1C424.8,599.1 421.8,608.5 419.3,617.0C416.8,625.5 414.6,635.3 414.3,638.8C413.9,642.7 414.1,645.0 414.8,645.0C415.3,645.0 419.1,643.4 423.1,641.5C427.4,639.5 433.0,637.8 436.2,637.4C440.5,636.9 443.1,637.2 446.4,638.4C448.8,639.3 451.6,641.0 452.5,642.0C453.5,643.1 454.9,644.0 455.7,644.0C456.4,644.0 458.2,643.3 459.6,642.4C461.7,641.0 463.8,640.8 473.1,641.4C479.1,641.8 488.5,642.8 493.8,643.6C499.1,644.4 505.0,645.5 506.8,646.1C510.1,647.2 510.1,647.2 508.0,648.7C506.8,649.6 503.5,650.8 500.6,651.5C495.8,652.6 495.6,652.7 498.0,653.8C499.4,654.3 502.7,655.4 505.3,656.1C508.7,656.9 510.0,657.7 509.8,658.8C509.6,659.7 506.7,661.3 502.8,662.6C499.1,663.8 493.9,666.0 491.3,667.3C488.7,668.7 482.6,671.7 477.8,674.1C473.0,676.5 469.4,678.7 469.8,679.1C470.2,679.5 477.0,680.5 485.0,681.4C493.0,682.2 501.0,683.5 502.8,684.1C504.7,684.8 506.0,685.9 506.0,686.9C506.0,687.9 505.2,689.4 504.2,690.3C503.2,691.2 499.8,693.2 496.5,694.7C491.0,697.2 489.5,697.5 479.0,697.5C472.7,697.5 466.9,697.9 466.2,698.3C465.6,698.8 465.0,699.9 465.0,700.9C465.0,701.9 463.6,705.5 461.9,708.8C460.2,712.2 458.5,715.0 458.2,715.0C457.8,715.0 456.2,713.1 454.6,710.9C452.2,707.5 451.3,706.9 449.1,707.3C447.7,707.6 444.0,708.6 441.0,709.4C437.8,710.4 431.7,711.0 426.0,711.0C416.5,711.0 416.5,711.0 411.0,719.8C408.0,724.6 403.5,731.3 401.1,734.8C397.5,740.1 396.4,741.1 394.2,740.8C392.1,740.6 391.3,739.5 389.9,735.5C388.9,732.8 388.1,728.7 388.1,726.4C388.0,724.1 388.5,720.8 389.1,718.9C389.8,717.0 391.8,713.5 393.7,711.1C396.5,707.4 396.8,706.4 395.7,705.3C395.0,704.6 393.0,703.6 391.2,703.1C388.7,702.4 387.6,702.5 386.0,703.8C384.8,704.8 383.3,708.2 382.4,711.7C380.9,717.6 380.9,718.1 382.9,722.6C384.1,725.2 384.8,728.2 384.4,729.3C384.1,730.3 379.7,737.4 374.6,744.9C369.6,752.4 364.9,759.6 364.2,760.8C363.5,762.0 362.6,763.0 362.1,763.0zM360.9,748.4C361.4,747.9 362.7,744.1 364.0,740.0C365.2,735.9 367.3,730.5 368.7,728.2C371.2,723.8 371.2,723.8 368.9,721.4C367.7,720.1 365.9,719.0 365.1,719.0C363.7,719.0 363.7,718.9 365.0,718.0C365.8,717.5 368.6,717.0 371.2,717.0C373.8,717.0 376.2,716.5 376.6,715.8C377.0,715.2 376.4,713.9 375.2,712.9C374.0,712.0 373.0,710.9 373.0,710.6C373.0,710.3 375.2,708.9 377.9,707.5C381.7,705.6 383.0,704.4 383.5,702.1C384.0,699.9 384.9,699.0 386.9,698.5C388.4,698.2 390.9,698.4 392.4,699.0C393.9,699.5 395.6,700.0 396.1,700.0C396.6,700.0 397.0,698.5 397.0,696.6C397.0,694.0 396.3,692.7 394.3,691.2C391.7,689.3 391.7,689.3 394.8,689.8C397.2,690.1 398.1,689.8 398.6,688.5C399.0,687.6 398.6,685.6 397.8,684.1C396.6,682.1 396.5,681.0 397.3,679.1C398.2,677.2 398.1,676.5 396.6,675.4C395.5,674.7 394.2,673.9 393.6,673.7C393.0,673.5 393.7,671.9 395.3,670.1C396.8,668.3 398.0,665.8 398.0,664.4C398.0,662.1 397.7,662.0 394.0,662.6C391.5,663.0 390.0,662.9 390.0,662.2C390.0,661.7 391.6,660.9 393.5,660.6C395.5,660.2 397.8,658.8 399.0,657.3C400.1,655.8 400.9,653.9 400.8,653.1C400.6,652.0 399.0,651.3 396.1,651.0C393.6,650.7 391.5,650.0 391.3,649.3C391.0,648.6 392.3,647.8 394.5,647.4C396.4,647.1 399.4,645.5 401.1,643.9C402.8,642.3 404.0,640.3 403.8,639.3C403.6,637.9 402.2,637.4 398.6,637.0C395.9,636.7 393.5,635.9 393.2,635.2C393.0,634.4 394.2,634.0 397.2,634.0C399.6,634.0 402.4,633.4 403.3,632.8C404.2,632.1 406.1,630.0 407.5,628.1C409.4,625.5 409.7,624.4 408.7,623.8C408.1,623.4 405.6,623.0 403.3,623.0C401.0,623.0 398.9,622.6 398.5,622.1C398.2,621.5 398.8,620.6 399.9,620.1C401.0,619.5 402.7,619.0 403.8,619.0C404.9,619.0 407.6,617.0 409.9,614.5C412.1,612.1 414.0,609.6 414.0,609.1C414.0,608.6 412.3,607.9 410.3,607.5C408.2,607.1 405.7,606.4 404.6,605.8C402.8,604.8 403.2,604.5 407.6,602.9C410.4,601.8 413.8,599.8 415.1,598.4C417.5,595.9 417.5,595.8 415.6,594.4C414.5,593.6 411.8,593.0 409.5,593.0C407.2,593.0 403.2,592.3 400.6,591.4C398.0,590.5 395.6,590.1 395.3,590.4C394.9,590.7 394.0,593.8 393.2,597.3C392.4,600.7 391.6,605.3 391.5,607.5C391.3,609.7 390.5,613.8 389.6,616.5C388.7,619.2 386.9,625.1 385.5,629.5C384.2,633.9 381.7,642.1 379.9,647.8C377.0,657.3 376.3,658.7 370.9,664.5C365.9,669.8 363.7,671.3 357.2,673.8C353.0,675.5 347.9,677.3 346.0,677.9C344.1,678.5 337.1,679.9 330.6,681.0C320.5,682.6 317.7,683.5 312.1,686.9C308.5,689.1 302.5,693.7 298.9,697.2C294.6,701.3 291.1,705.8 289.0,709.9C287.2,713.5 285.6,718.5 285.3,721.5C285.0,724.7 285.2,727.0 285.8,727.4C286.4,727.8 289.0,725.0 291.9,720.8C294.6,716.8 299.4,711.0 302.7,707.9C305.9,704.8 311.8,699.5 315.9,696.1C320.3,692.4 324.2,690.0 325.6,690.0C327.2,690.0 328.7,691.1 330.2,693.5C331.5,695.4 333.1,697.2 333.9,697.5C334.7,697.8 336.3,697.4 337.5,696.6C338.7,695.8 340.3,693.8 340.9,692.1C341.6,690.5 342.8,688.9 343.6,688.6C344.4,688.3 345.6,688.3 346.4,688.6C347.2,688.9 348.3,690.5 348.9,692.1C349.4,693.7 350.4,695.0 350.9,695.0C351.5,695.0 353.7,693.3 355.8,691.2C358.0,689.2 360.0,686.8 360.4,686.0C360.8,684.9 361.1,684.8 361.6,685.8C361.9,686.4 362.7,687.0 363.4,687.0C364.0,687.0 367.5,684.6 371.0,681.6C374.5,678.6 377.8,676.4 378.2,676.6C378.6,676.9 379.0,678.1 379.0,679.3C379.0,680.5 378.1,682.6 377.0,684.0C375.9,685.4 375.0,687.0 375.0,687.6C375.0,688.3 373.4,691.1 371.5,694.0C369.6,696.8 366.4,702.3 364.4,706.1C362.4,709.9 360.7,714.2 360.6,715.7C360.5,717.3 359.8,719.6 359.0,721.0C357.9,722.8 357.5,726.4 357.6,733.5C357.6,739.0 358.2,744.8 358.9,746.4C359.6,748.1 360.4,748.9 360.9,748.4zM317.9,709.0C319.0,708.5 321.5,706.5 323.4,704.6C325.8,702.4 326.8,700.7 326.4,699.6C326.0,698.7 324.6,698.0 323.0,698.0C321.1,698.0 319.4,698.9 318.1,700.6C316.9,702.1 316.0,704.7 316.0,706.7C316.0,709.7 316.2,710.0 317.9,709.0zM458.7,702.0C459.0,702.0 459.0,699.6 458.7,696.6C458.4,693.6 457.4,689.8 456.5,688.0C455.6,686.2 453.0,682.8 450.7,680.3C448.4,677.8 444.5,674.8 442.0,673.5C439.5,672.3 430.8,669.6 422.6,667.5C410.2,664.4 407.6,664.0 406.5,665.2C405.8,665.9 404.2,668.4 402.9,670.8C400.6,675.0 400.6,675.0 404.1,678.0C406.0,679.6 407.9,680.9 408.3,681.0C408.8,681.0 409.4,680.1 409.7,679.0C410.0,677.9 410.6,677.0 411.1,677.0C411.6,677.0 412.0,678.1 412.0,679.5C412.0,680.9 412.6,682.0 413.4,682.0C414.1,682.0 415.9,681.1 417.3,680.0C418.7,678.9 420.0,678.0 420.3,678.0C420.5,678.0 421.0,679.4 421.4,681.2C421.7,682.9 422.5,684.9 423.1,685.7C423.7,686.4 425.2,687.0 426.4,687.0C428.0,687.0 429.1,685.9 430.3,683.4C431.3,681.5 432.5,680.2 433.0,680.5C433.6,680.8 434.0,682.4 434.0,684.1C434.0,685.7 434.3,687.0 434.6,687.0C434.9,687.0 436.0,686.0 436.9,684.9C438.3,683.2 439.0,682.9 440.6,683.8C441.7,684.3 444.1,686.3 446.0,688.2C447.9,690.0 451.5,693.9 453.8,696.8C456.2,699.6 458.4,702.0 458.7,702.0zM235.9,699.8C236.5,699.6 240.0,695.0 243.8,689.5C249.7,680.9 251.7,678.8 258.5,674.2C262.8,671.4 266.7,669.0 267.1,669.0C267.6,669.0 268.2,670.1 268.6,671.5C268.9,672.9 269.6,674.0 270.0,674.0C270.5,674.0 273.0,672.2 275.5,670.0C278.1,667.7 281.2,666.0 282.5,666.0C283.8,666.0 285.2,665.5 285.5,665.0C285.8,664.5 287.2,664.0 288.5,664.0C290.8,664.0 290.5,664.6 284.6,671.8C280.3,677.2 277.9,681.1 277.1,684.4C276.5,687.0 276.2,690.7 276.6,692.6C276.9,694.5 277.6,696.0 278.0,696.0C278.5,696.0 280.2,693.7 281.9,691.0C283.6,688.2 287.6,683.1 290.8,679.7C294.0,676.3 297.4,672.1 298.4,670.5C299.4,668.8 301.6,666.6 303.3,665.4C305.7,663.9 306.5,662.7 306.3,660.8C306.2,658.6 306.6,658.1 309.7,657.5C311.8,657.1 313.7,657.3 314.3,657.9C315.0,658.6 314.5,660.2 312.3,663.2C310.6,665.6 308.5,668.9 307.6,670.7C306.7,672.5 306.0,675.0 306.0,676.5C306.0,677.9 306.4,679.0 306.8,679.0C307.3,679.0 308.5,678.0 309.6,676.9C310.6,675.7 312.8,674.2 314.4,673.5C316.3,672.7 318.4,672.5 320.3,673.1C321.9,673.6 323.7,673.7 324.1,673.4C324.6,673.1 325.0,672.5 325.0,671.9C325.0,671.4 324.0,670.0 322.8,668.8C320.6,666.6 320.6,666.6 323.8,665.8C325.6,665.3 327.4,664.2 327.7,663.4C328.0,662.6 327.8,661.4 327.1,660.7C326.5,660.1 326.0,658.2 326.0,656.5C326.0,654.8 325.4,652.6 324.7,651.5C323.5,649.9 323.7,649.4 326.3,647.0C328.3,645.2 329.1,643.8 328.7,642.7C328.3,641.7 327.0,641.0 325.6,641.0C324.2,641.0 322.8,640.5 322.5,640.0C322.1,639.4 323.1,639.0 324.9,639.0C327.0,639.0 328.4,638.3 329.6,636.5C330.4,635.2 330.9,633.6 330.5,633.0C330.2,632.5 329.0,632.0 328.0,632.0C327.0,632.0 325.5,631.7 324.6,631.4C323.7,631.1 323.3,630.4 323.6,629.9C323.9,629.4 325.6,629.0 327.4,629.0C329.6,629.0 331.4,628.2 333.0,626.6C334.2,625.2 335.0,623.4 334.7,622.6C334.4,621.8 332.7,621.0 330.9,620.8C329.1,620.6 327.5,620.0 327.3,619.4C327.1,618.8 328.7,617.8 330.8,617.2C332.9,616.5 335.5,615.1 336.5,614.0C337.4,613.0 338.0,611.4 337.7,610.5C337.3,609.7 336.0,609.0 334.6,609.0C333.2,609.0 330.9,608.6 329.5,608.0C328.1,607.5 327.2,606.5 327.5,606.0C327.9,605.4 328.5,605.2 329.0,605.5C329.5,605.8 331.8,605.6 333.9,604.9C336.1,604.2 338.9,602.6 340.2,601.3C341.5,599.9 342.0,598.6 341.4,598.1C340.9,597.6 339.1,597.0 337.5,596.8C335.8,596.6 334.5,595.9 334.5,595.2C334.5,594.5 336.9,593.1 339.8,592.1C342.7,591.1 345.7,589.4 346.5,588.4C347.3,587.4 347.9,585.8 347.7,585.0C347.5,583.9 345.9,583.4 341.9,583.2C337.5,583.0 335.8,582.4 334.1,580.6C332.7,579.1 331.1,578.4 329.9,578.7C328.8,579.0 327.3,580.5 326.5,582.1C325.7,583.6 325.0,586.6 325.0,588.6C325.0,590.7 324.1,594.2 323.1,596.4C322.0,598.7 320.9,601.9 320.7,603.5C320.4,605.1 319.3,609.6 318.1,613.4C317.0,617.1 316.0,621.3 316.0,622.6C316.0,623.9 315.1,626.6 314.1,628.7C313.0,630.8 311.2,634.7 310.1,637.3C308.9,640.0 305.4,644.9 302.3,648.2C299.1,651.5 294.6,655.5 292.3,657.1C288.3,659.9 287.9,660.0 276.8,659.7C266.0,659.5 265.2,659.6 259.0,662.6C254.3,664.8 250.7,667.6 245.9,672.7C241.2,677.7 238.6,681.5 237.1,685.4C235.9,688.5 235.0,693.1 235.0,695.6C235.0,698.1 235.4,700.0 235.9,699.8zM364.3,661.1C365.5,660.7 366.8,659.6 367.4,658.7C368.1,657.6 368.0,656.7 367.0,655.5C366.3,654.6 363.9,653.0 361.7,651.9C359.6,650.8 355.5,649.6 352.7,649.3C349.8,649.1 345.6,648.1 343.4,647.3C340.2,646.2 338.7,646.1 337.1,646.9C336.0,647.6 334.7,649.2 334.4,650.6C333.9,652.4 334.4,654.0 335.7,655.8C336.8,657.3 338.7,658.6 339.9,658.8C341.0,659.0 342.0,658.7 342.0,658.3C342.0,657.8 342.6,656.5 343.4,655.5C344.7,653.8 344.8,653.8 346.1,656.6C346.9,658.2 348.5,659.6 349.7,659.8C351.1,660.0 352.3,659.4 353.0,658.1C353.6,656.9 354.6,656.0 355.3,656.0C356.1,656.0 357.9,657.3 359.4,658.9C361.6,661.2 362.7,661.7 364.3,661.1zM415.8,656.0C417.1,656.0 419.5,655.2 421.0,654.3C423.2,653.0 424.4,652.9 426.2,653.7C428.0,654.5 429.4,654.3 432.8,652.7C436.6,650.8 437.5,650.7 441.3,651.9C443.6,652.6 446.8,653.4 448.3,653.7C451.1,654.2 451.1,654.2 447.9,649.7C445.2,645.8 444.0,645.0 440.4,644.4C438.1,644.1 434.0,644.3 431.3,645.0C428.7,645.6 424.2,646.5 421.4,647.0C418.6,647.4 415.3,648.3 414.1,648.9C412.9,649.6 412.0,651.0 412.0,652.4C412.0,653.6 412.3,655.0 412.7,655.3C413.0,655.7 414.4,656.0 415.8,656.0zM258.3,654.0C259.1,654.0 260.9,653.1 262.3,652.0C263.7,650.9 266.2,650.0 267.9,650.0C269.6,650.0 271.9,650.6 273.0,651.2C274.7,652.3 275.6,652.2 277.9,650.8C280.8,649.2 280.8,649.2 281.4,651.6C281.9,653.3 282.7,654.0 284.3,654.0C285.6,654.0 288.7,652.7 291.3,651.0C293.9,649.4 296.0,647.4 296.0,646.5C296.0,645.4 294.8,645.0 290.9,645.0C288.1,645.0 284.9,645.5 283.8,646.1C282.4,646.9 281.5,646.9 281.1,646.2C280.7,645.6 279.2,644.6 277.7,644.1C276.1,643.5 272.9,643.0 270.5,643.0C267.3,643.0 265.4,643.7 263.0,645.6C261.3,647.1 259.3,649.5 258.4,651.1C257.2,653.5 257.2,654.0 258.3,654.0zM374.0,645.7C374.9,645.5 376.5,642.3 378.3,637.0C379.8,632.3 382.8,621.1 385.0,612.0C387.1,602.9 389.2,593.7 389.5,591.5C390.1,588.0 389.8,587.2 387.6,585.1C385.0,582.7 385.0,582.6 385.0,565.6C385.0,556.2 384.5,545.6 383.9,542.1C383.4,538.6 382.2,534.1 381.4,532.1C379.8,528.5 379.8,528.5 375.0,542.0C372.4,549.4 368.8,558.9 367.0,563.0C365.2,567.1 362.5,572.7 360.9,575.5C359.4,578.2 356.5,584.8 354.5,590.0C352.5,595.2 349.2,605.1 347.3,612.0C345.4,618.9 343.2,627.4 342.4,631.0C341.7,634.6 341.1,638.3 341.0,639.2C341.0,640.8 342.1,641.0 350.2,641.0C357.5,641.0 360.9,641.6 366.0,643.4C369.6,644.8 373.2,645.7 374.0,645.7zM576.8,639.7C577.0,638.7 575.8,635.8 574.1,633.2C572.5,630.6 569.3,626.7 567.1,624.5C564.8,622.4 563.0,621.2 563.0,621.9C563.0,622.6 564.4,625.9 566.2,629.1C567.9,632.4 570.9,636.5 572.9,638.2C575.9,640.9 576.5,641.1 576.8,639.7zM333.5,570.0C334.2,570.0 336.1,568.5 337.6,566.8C339.1,565.0 341.4,561.2 342.6,558.5C343.9,555.8 345.0,552.3 345.0,550.8C345.0,549.3 344.6,547.9 344.1,547.5C343.5,547.2 340.5,542.0 337.3,535.9C334.1,529.8 328.7,521.0 325.2,516.4C321.7,511.8 318.0,507.5 316.8,506.9C315.7,506.3 314.6,506.1 314.3,506.4C314.0,506.7 315.4,516.7 317.4,528.7C319.4,540.7 321.0,552.8 321.0,555.5C321.0,558.2 321.3,562.2 321.6,564.2C322.0,566.3 322.8,568.0 323.6,568.0C324.3,568.0 326.2,566.4 327.8,564.4C330.8,560.7 330.8,560.7 331.5,565.4C331.9,568.1 332.7,570.0 333.5,570.0zM421.4,552.0C420.4,552.0 420.0,550.8 420.0,548.2C420.0,546.2 421.2,540.2 422.6,535.0C424.0,529.8 425.8,523.2 426.7,520.5C428.2,515.9 428.4,515.7 429.1,518.0C429.5,519.4 429.8,524.1 429.9,528.6C430.0,533.1 429.3,538.8 428.5,541.7C427.7,544.5 426.1,547.9 424.9,549.4C423.8,550.8 422.2,552.0 421.4,552.0zM634.2,490.9C635.7,490.9 637.1,490.6 637.4,490.2C637.7,489.7 637.2,488.4 636.4,487.2C635.6,486.0 633.7,484.4 632.2,483.6C630.7,482.8 624.5,480.8 618.5,479.0C611.8,477.1 603.4,473.7 597.0,470.3C591.2,467.2 582.5,462.0 577.5,458.7C572.5,455.4 564.9,449.7 560.5,446.0C556.1,442.3 547.1,433.8 540.5,427.3C533.9,420.7 526.7,413.1 524.4,410.4C522.2,407.7 517.5,401.9 513.9,397.5C510.3,393.1 506.1,387.5 504.5,385.0C502.9,382.5 500.9,379.9 500.1,379.2C499.3,378.6 496.6,378.0 494.1,378.0C491.3,378.0 486.8,376.8 482.6,375.0C478.8,373.4 474.0,370.9 471.9,369.4C469.8,368.0 464.4,365.7 459.8,364.4C455.3,363.2 451.4,362.3 451.1,362.6C450.9,362.8 451.6,364.0 452.7,365.3C453.8,366.5 457.5,372.0 461.0,377.4C464.4,382.8 471.0,392.2 475.5,398.3C480.1,404.3 490.9,416.6 499.5,425.6C509.0,435.6 519.0,444.9 525.1,449.5C530.6,453.6 537.0,458.0 539.3,459.1C541.5,460.3 545.9,462.1 548.9,463.1C551.9,464.2 555.1,465.0 556.2,465.0C557.2,465.0 558.0,464.5 558.0,463.8C558.0,463.2 556.1,460.8 553.7,458.6C551.4,456.3 545.0,451.8 539.6,448.6C534.2,445.3 525.7,439.0 520.7,434.5C515.6,430.0 509.7,424.3 507.4,421.9C505.2,419.4 501.1,414.1 498.3,410.0C495.5,405.9 492.3,400.6 491.1,398.2C489.9,395.9 488.5,392.7 488.0,391.2C487.2,389.2 488.5,390.1 493.1,395.0C496.5,398.6 501.6,404.4 504.5,408.0C507.4,411.6 517.7,422.3 527.3,431.9C539.4,443.9 548.1,451.6 555.2,456.5C560.9,460.4 568.5,465.8 572.2,468.4C575.9,471.0 584.1,475.5 590.3,478.5C596.6,481.5 605.7,485.1 610.6,486.5C615.5,487.9 622.2,489.4 625.5,489.9C628.8,490.4 632.7,490.8 634.2,490.9zM626.8,477.0C629.1,477.0 629.1,477.0 627.1,474.2C626.0,472.7 622.8,469.1 619.8,466.3C616.9,463.5 611.5,458.6 607.9,455.3C604.2,452.1 594.1,444.0 585.4,437.5C576.6,430.9 564.8,420.8 559.0,415.0C552.5,408.6 547.3,402.4 545.6,399.1C542.7,393.7 542.7,393.7 550.9,400.6C555.4,404.4 561.9,409.5 565.4,412.0C568.8,414.5 574.0,417.8 576.8,419.3C579.7,420.9 582.0,421.7 582.0,421.1C582.0,420.5 579.2,416.3 575.7,411.8C572.3,407.2 567.9,401.5 566.0,399.0C564.1,396.5 559.2,391.0 555.0,386.8C548.3,379.9 546.7,377.3 540.0,363.8C532.5,348.5 532.5,348.5 524.6,347.8C520.2,347.4 516.4,347.3 516.1,347.5C515.9,347.8 516.7,350.2 518.0,353.0C519.3,355.7 521.6,359.8 523.1,362.1C524.6,364.4 528.1,368.7 531.0,371.6C534.2,374.9 537.7,377.4 540.3,378.3C542.8,379.1 544.6,380.4 544.8,381.4C545.0,382.4 544.4,384.0 543.5,385.1C542.5,386.1 540.3,387.2 538.6,387.5C536.9,387.8 530.1,387.2 523.5,386.1C516.9,385.1 511.3,384.4 511.1,384.6C510.9,384.8 513.2,387.6 516.3,390.7C519.3,393.9 525.3,400.3 529.5,405.0C533.7,409.7 543.1,419.1 550.3,425.9C557.8,432.9 571.2,443.8 581.3,451.1C591.0,458.2 602.4,466.1 606.5,468.6C610.6,471.1 616.4,474.0 619.2,475.0C622.1,476.1 625.5,476.9 626.8,477.0zM509.4,447.6C510.0,447.5 510.5,446.9 510.7,446.3C510.9,445.7 507.8,442.4 503.8,438.9C499.8,435.4 491.8,427.8 486.1,422.0C480.4,416.2 473.0,408.1 469.7,404.0C466.4,399.9 459.7,390.4 454.8,383.0C449.9,375.6 444.1,365.9 441.8,361.5C437.8,353.5 437.7,353.5 433.6,353.3C431.4,353.2 426.8,352.2 423.6,351.1C420.3,349.9 417.3,349.0 416.8,349.0C416.4,349.0 416.0,349.5 416.0,350.2C416.0,350.8 418.1,355.0 420.7,359.4C423.3,363.9 427.9,371.3 431.1,376.0C434.2,380.7 439.4,387.7 442.6,391.7C445.9,395.6 453.7,404.6 460.1,411.7C466.5,418.7 473.3,425.9 475.1,427.6C477.0,429.3 481.9,433.3 486.0,436.4C490.1,439.5 495.5,443.0 497.9,444.2C500.3,445.3 503.7,446.6 505.4,447.0C507.1,447.5 508.9,447.7 509.4,447.6zM475.8,435.9C476.7,436.0 476.8,435.5 476.1,434.2C475.5,433.2 473.4,430.8 471.2,428.9C469.1,427.0 462.9,422.1 457.6,418.0C452.2,413.9 445.0,407.6 441.6,404.0C438.3,400.4 432.3,393.2 428.4,388.0C424.5,382.8 418.8,374.2 415.8,369.0C412.8,363.8 408.8,356.2 407.0,352.2C404.6,346.9 402.4,343.8 399.2,341.2C396.8,339.2 392.8,335.0 390.4,331.9C388.0,328.7 384.2,322.8 382.0,318.8C379.9,314.8 377.4,308.6 376.5,305.2C375.6,301.7 375.0,298.4 375.3,297.7C375.5,297.1 379.4,301.6 383.9,307.8C388.5,313.9 392.4,319.0 392.6,319.0C392.9,319.0 393.4,318.1 393.8,316.9C394.5,315.1 395.3,315.8 400.5,322.6C404.8,328.1 408.5,331.6 413.3,334.7C417.0,337.2 422.5,340.3 425.5,341.6C428.5,343.0 431.7,344.0 432.5,343.8C433.8,343.6 433.2,341.7 429.7,334.5C427.3,329.6 424.3,322.5 423.1,318.7C421.8,315.0 420.2,311.3 419.3,310.5C418.5,309.7 417.3,309.0 416.7,309.0C416.0,309.0 414.4,309.7 413.2,310.6C411.2,312.0 410.6,311.9 405.2,309.5C401.5,307.8 398.0,305.3 395.3,302.2C393.1,299.6 390.3,295.6 389.1,293.3C388.0,291.0 384.6,286.5 381.7,283.3C378.7,280.1 375.6,276.1 374.8,274.5C373.9,272.9 372.9,270.0 372.5,268.2C372.1,266.3 372.1,263.3 372.4,261.4C372.8,259.5 373.5,258.0 373.9,258.0C374.4,258.0 376.4,260.7 378.5,264.1C380.5,267.4 384.0,271.4 386.2,273.0C388.3,274.6 391.5,276.2 393.1,276.5C394.8,276.9 396.4,276.9 396.7,276.6C397.0,276.4 396.7,273.8 396.0,271.0C395.3,268.2 395.0,265.6 395.3,265.4C395.6,265.1 397.9,267.9 400.4,271.7C402.9,275.4 405.2,279.9 405.6,281.6C405.9,283.3 405.8,285.0 405.3,285.3C404.8,285.6 402.4,285.4 400.0,284.9C397.0,284.2 395.3,284.3 394.6,285.0C393.8,285.8 394.2,287.4 396.0,290.6C397.3,293.1 399.9,296.3 401.7,297.7C403.5,299.1 407.9,301.3 411.4,302.6C414.9,303.8 418.7,304.6 419.9,304.3C421.5,303.9 421.9,303.3 421.5,302.1C421.1,301.2 420.0,298.2 419.0,295.4C418.0,292.5 417.1,288.7 416.9,286.9C416.8,285.0 416.8,282.5 416.9,281.2C416.9,280.0 417.4,279.0 417.9,279.0C418.4,279.0 420.8,282.7 423.2,287.2C425.7,291.8 429.3,298.1 431.4,301.3C433.4,304.5 437.0,308.4 439.3,310.1C441.6,311.8 445.0,313.9 446.7,314.8C448.5,315.7 450.3,316.1 450.7,315.7C451.0,315.3 450.6,311.9 449.7,308.1C448.7,304.3 448.0,299.8 448.0,298.1C448.0,296.4 448.4,295.0 448.8,295.0C449.3,295.0 450.4,296.7 451.4,298.8C452.4,300.8 455.5,305.9 458.3,310.2C461.8,315.3 465.0,318.8 468.4,321.1C471.1,322.8 474.6,324.8 476.1,325.4C477.7,325.9 479.2,326.2 479.5,325.9C479.8,325.5 479.1,322.4 478.0,318.9C476.9,315.4 476.0,311.4 476.0,310.1C476.0,308.0 476.2,307.9 477.7,309.1C478.6,309.9 481.7,313.5 484.6,317.1C487.5,320.7 492.0,325.1 494.6,326.9C497.2,328.6 500.4,330.0 501.6,330.0C502.9,330.0 504.3,329.4 504.7,328.6C505.3,327.5 506.6,328.5 510.0,332.8C513.4,337.0 516.3,339.4 521.3,341.9C526.4,344.5 528.3,345.1 529.2,344.2C530.1,343.3 529.7,341.4 527.6,336.3C526.1,332.6 523.4,326.6 521.7,323.0C518.5,316.5 518.5,316.5 512.0,316.4C508.4,316.3 503.7,315.8 501.5,315.2C499.3,314.5 495.2,312.3 492.5,310.3C489.4,307.9 486.6,304.7 485.1,301.7C483.4,298.3 483.0,296.6 483.8,295.8C484.6,295.0 487.1,296.5 492.6,301.0C496.9,304.4 501.5,307.6 502.8,308.1C504.4,308.7 505.7,308.7 506.3,308.1C507.0,307.4 506.9,305.7 506.1,302.9C505.4,300.7 505.1,298.6 505.4,298.3C505.7,298.0 508.9,300.5 512.6,303.8C517.1,307.9 521.3,310.6 525.9,312.4C529.5,313.8 533.1,315.0 533.8,315.0C534.7,315.0 534.8,314.5 534.1,313.2C533.6,312.2 531.3,309.0 529.1,306.0C526.9,303.0 521.8,296.9 517.9,292.4C514.0,287.8 504.6,278.5 497.1,271.6C489.6,264.7 480.1,256.9 476.0,254.4C471.9,251.8 465.7,248.4 462.2,246.8C458.8,245.1 452.7,242.9 448.7,241.9C444.8,240.9 438.8,240.0 435.5,240.0C432.2,240.0 425.0,239.3 419.5,238.5C414.0,237.7 405.0,235.7 399.5,234.0C391.8,231.7 387.6,231.0 381.0,230.9C375.9,230.9 370.8,231.5 368.2,232.4C365.9,233.2 362.0,235.3 359.6,236.9C357.2,238.6 354.0,241.4 352.5,243.2C350.9,245.0 348.3,249.4 346.6,253.0C344.0,258.7 343.6,260.8 343.2,270.8C342.9,280.0 343.2,283.9 345.0,291.8C346.2,297.1 348.6,305.3 350.2,310.0C351.9,314.7 355.8,323.9 358.9,330.5C362.1,337.1 368.2,347.9 372.4,354.5C376.7,361.1 382.7,369.6 385.8,373.5C388.9,377.4 395.7,384.9 400.9,390.4C406.2,395.8 414.6,403.5 419.5,407.5C424.4,411.4 431.1,416.3 434.3,418.3C437.4,420.3 440.2,422.0 440.4,422.0C440.6,422.0 440.6,421.1 440.3,420.0C440.0,418.9 440.1,418.0 440.4,418.0C440.8,418.0 444.5,420.4 448.8,423.4C453.0,426.3 457.6,429.3 459.0,430.0C460.4,430.8 464.4,432.4 468.0,433.6C471.6,434.9 475.1,435.9 475.8,435.9zM596.1,418.0C596.7,418.0 596.9,417.1 596.5,415.8C596.1,414.5 593.5,409.1 590.7,403.7C587.9,398.4 583.6,391.4 581.0,388.2C578.5,385.1 573.1,376.3 569.0,368.7C563.7,358.7 561.1,354.9 559.6,354.6C558.4,354.4 553.9,353.5 549.6,352.6C545.2,351.7 541.4,351.2 541.2,351.5C541.0,351.7 541.0,352.9 541.3,354.2C541.7,355.5 545.4,361.2 549.7,366.9C555.9,375.2 558.7,378.1 563.5,381.0C568.7,384.1 569.5,385.0 569.5,387.6C569.5,389.7 571.0,392.5 574.7,397.1C577.5,400.7 583.3,406.9 587.4,410.8C591.6,414.8 595.5,418.0 596.1,418.0zM326.2,407.9C325.3,407.9 321.8,407.1 318.5,406.1C315.2,405.2 310.4,403.4 307.9,402.2C305.2,400.9 301.7,398.0 299.6,395.3C297.6,392.8 296.0,390.3 296.0,389.8C296.0,389.4 296.2,389.0 296.5,389.0C296.8,389.0 298.8,389.9 301.0,391.0C303.2,392.1 305.7,393.0 306.6,393.0C307.7,393.0 308.0,392.5 307.6,391.4C307.3,390.5 306.7,388.7 306.4,387.4C306.1,386.1 306.2,385.0 306.7,385.0C307.2,385.0 312.5,389.6 318.5,395.3C325.3,401.8 329.1,406.1 328.6,406.8C328.2,407.5 327.1,408.0 326.2,407.9zM522.8,376.0C522.9,375.6 521.5,372.7 519.5,369.5C517.6,366.3 514.4,359.5 512.4,354.4C510.5,349.3 507.6,343.2 506.1,340.8C503.6,336.8 502.7,336.2 497.5,335.1C493.6,334.2 491.5,334.1 490.8,334.8C490.1,335.5 490.8,338.6 492.9,344.5C494.6,349.2 496.7,354.5 497.6,356.3C498.6,358.1 500.9,361.4 502.8,363.8C504.8,366.2 508.3,369.5 510.7,371.1C513.1,372.8 516.7,374.7 518.8,375.4C520.8,376.1 522.6,376.4 522.8,376.0zM398.1,372.0C397.6,372.0 395.9,370.5 394.4,368.8C392.9,367.0 390.9,363.7 389.9,361.5C389.0,359.3 387.9,356.4 387.5,355.0C386.8,352.8 386.9,352.7 388.4,353.9C389.3,354.6 391.6,357.8 393.4,360.9C395.3,364.0 397.4,367.8 397.9,369.3C398.5,370.8 398.6,372.0 398.1,372.0zM306.8,371.0C305.5,370.9 303.0,370.3 301.2,369.5C299.4,368.7 296.7,367.2 295.4,366.1C294.0,365.0 291.3,362.2 289.4,359.8C287.5,357.4 285.1,352.6 284.0,349.1C282.9,345.6 282.0,340.9 282.1,338.6C282.1,334.5 282.1,334.5 284.5,337.5C285.8,339.1 289.9,344.6 293.6,349.5C297.3,354.4 302.3,360.7 304.7,363.4C307.1,366.0 309.0,368.8 309.0,369.6C309.0,370.4 308.0,371.0 306.8,371.0zM493.6,368.0C494.4,368.0 495.0,367.5 495.0,367.0C495.0,366.4 494.2,364.5 493.3,362.7C492.4,360.9 489.3,353.0 486.4,345.0C481.3,330.5 481.3,330.5 477.4,330.4C475.2,330.4 471.4,329.7 468.8,329.0C466.2,328.2 463.7,327.9 463.3,328.3C462.9,328.7 464.8,333.3 467.5,338.5C470.1,343.6 474.6,350.9 477.4,354.6C480.2,358.3 484.7,362.9 487.4,364.7C490.0,366.5 492.8,368.0 493.6,368.0zM272.7,363.4C272.4,365.2 271.6,364.7 266.8,359.8C262.5,355.6 260.7,352.9 259.6,348.9C258.7,346.0 258.1,341.8 258.1,339.6C258.2,337.3 258.5,334.2 258.9,332.6C259.2,331.0 259.9,329.5 260.5,329.3C261.1,329.2 262.2,331.4 263.2,334.3C264.1,337.1 266.7,344.4 269.0,350.4C271.2,356.5 272.9,362.3 272.7,363.4zM467.3,356.9C469.0,357.0 469.0,356.8 467.0,354.0C465.9,352.4 463.3,347.6 461.3,343.3C459.3,339.0 456.7,332.1 455.6,328.0C453.4,320.5 453.4,320.5 446.4,319.9C442.3,319.5 437.6,318.3 435.2,317.1C431.3,315.1 431.0,315.1 431.0,316.7C431.0,317.7 432.3,321.5 433.9,325.1C435.4,328.8 438.9,335.0 441.6,339.0C444.4,343.2 448.7,348.0 451.7,350.2C454.6,352.4 458.9,354.8 461.2,355.5C463.6,356.3 466.3,356.9 467.3,356.9zM556.8,350.0C557.4,350.0 558.0,349.7 558.0,349.4C558.0,349.0 556.1,345.1 553.8,340.7C551.4,336.3 547.5,330.5 545.0,327.8C541.2,323.6 539.7,322.8 534.8,321.8C530.4,320.9 528.7,320.9 527.9,321.7C527.0,322.6 527.9,324.6 531.5,329.9C534.1,333.7 537.9,338.4 539.9,340.4C541.9,342.3 546.2,345.3 549.5,346.9C552.8,348.6 556.1,350.0 556.8,350.0zM187.9,346.8C188.2,345.8 188.2,341.1 187.8,336.3C187.5,331.4 187.1,320.9 187.1,312.8C187.0,304.7 187.5,295.7 188.1,292.8C188.7,289.9 190.5,284.6 192.1,281.1C193.7,277.5 196.2,273.1 197.6,271.3C199.0,269.4 200.0,267.0 199.8,265.7C199.6,263.9 198.8,263.4 195.6,263.2C192.5,262.9 191.2,263.4 188.8,265.7C187.2,267.2 184.7,270.3 183.4,272.6C182.1,274.8 180.1,280.2 178.9,284.6C177.3,290.6 176.8,295.6 176.7,305.5C176.7,315.8 177.1,320.3 178.9,327.0C180.1,331.7 182.5,338.4 184.2,342.0C186.4,346.8 187.4,348.0 187.9,346.8zM464.2,295.9C462.7,295.8 460.4,295.4 459.0,295.0C457.6,294.6 455.0,294.2 453.2,294.1C451.4,294.0 446.2,292.2 441.7,290.1C437.2,287.9 432.2,284.8 430.6,283.1C429.0,281.4 427.2,277.9 426.4,274.9C425.6,272.0 425.3,269.4 425.5,269.1C425.8,268.9 427.3,270.0 428.8,271.7C430.3,273.4 433.3,276.1 435.5,277.7C437.7,279.4 441.8,281.9 444.7,283.4C447.6,284.8 450.4,286.0 451.0,286.0C451.7,286.0 452.0,284.4 451.9,282.0C451.7,279.9 451.8,277.8 452.1,277.5C452.5,277.2 454.9,279.5 457.6,282.7C460.3,285.8 463.5,289.7 464.8,291.4C466.0,293.0 467.0,294.8 467.0,295.2C467.0,295.6 465.8,296.0 464.2,295.9zM481.8,286.9C480.6,286.9 478.8,286.6 478.0,286.3C477.2,286.0 474.9,284.7 472.9,283.3C470.9,282.0 468.5,279.1 467.5,276.9C466.5,274.8 466.0,272.7 466.3,272.3C466.7,272.0 469.5,273.4 472.6,275.4C475.6,277.4 478.9,279.0 479.8,278.8C480.8,278.6 481.7,277.2 482.0,275.6C482.5,272.7 482.5,272.7 486.2,276.9C488.3,279.1 490.0,281.6 490.0,282.3C490.0,283.0 488.7,284.3 487.1,285.3C485.5,286.2 483.1,287.0 481.8,286.9zM292.5,253.0C291.6,253.7 290.9,253.6 290.3,252.8C289.7,252.1 289.0,248.8 288.6,245.5C288.2,242.3 287.7,238.6 287.4,237.3C287.0,236.0 286.4,235.0 285.9,235.0C285.4,235.0 283.7,237.1 282.0,239.8C280.4,242.4 276.6,246.4 273.6,248.8C268.0,253.1 268.0,253.1 268.0,250.5C268.0,249.1 269.3,245.4 270.9,242.2C272.5,239.1 277.8,230.7 282.7,223.5C287.6,216.3 292.1,210.5 292.6,210.5C293.1,210.5 293.8,215.2 294.2,220.9C294.6,226.5 295.1,231.5 295.4,231.8C295.7,232.1 296.9,231.5 298.0,230.5C299.1,229.5 302.6,224.2 305.7,218.9C309.4,212.6 311.7,209.5 312.2,210.3C312.6,211.0 313.0,213.3 313.0,215.5C313.0,217.7 311.9,222.0 310.7,225.1C309.4,228.1 305.1,235.4 301.0,241.3C297.0,247.2 293.1,252.5 292.5,253.0zM187.5,135.0C188.3,135.0 189.4,133.3 190.1,130.8C190.7,128.4 192.1,124.7 193.2,122.5C194.4,120.3 197.1,116.2 199.3,113.5C201.5,110.8 204.5,107.5 205.9,106.3C207.3,105.0 208.8,104.0 209.2,104.0C209.7,104.0 210.0,105.5 210.0,107.4C210.0,109.5 210.6,111.0 211.5,111.4C212.3,111.7 216.6,111.5 221.0,110.9C225.4,110.4 230.1,109.5 231.4,109.0C232.8,108.5 234.2,107.5 234.7,106.8C235.3,105.7 236.4,105.7 240.0,106.6C244.3,107.7 244.4,107.8 242.0,108.8C240.6,109.4 235.2,111.1 230.0,112.5C224.8,114.0 218.2,116.2 215.5,117.4C212.8,118.6 208.9,120.4 207.0,121.3C203.5,123.0 203.5,123.0 208.5,122.4C211.2,122.0 218.4,120.5 224.5,118.9C230.6,117.3 238.0,115.3 241.0,114.4C245.1,113.2 251.3,112.7 264.8,112.5C275.1,112.4 283.6,111.8 284.1,111.3C284.8,110.6 283.0,109.7 279.0,108.6C275.7,107.7 267.5,106.5 260.7,105.9C248.5,105.0 248.5,105.0 244.8,101.0C242.7,98.9 241.0,96.0 240.9,94.8C240.9,93.5 240.5,88.8 240.1,84.2C239.4,76.7 239.0,75.6 236.1,72.6C234.3,70.7 231.0,68.4 228.9,67.4C225.5,65.9 224.1,65.8 219.0,66.8C215.4,67.4 211.2,69.1 208.3,71.1C205.6,72.8 200.9,76.8 197.7,79.9C194.5,83.0 190.4,88.2 188.5,91.5C186.7,94.8 184.4,100.4 183.5,104.0C182.2,109.0 181.9,112.7 182.4,120.5C182.8,126.7 183.6,131.3 184.5,132.7C185.4,134.0 186.7,135.0 187.5,135.0zM259.2,127.8C264.6,128.0 266.0,127.7 266.0,126.5C266.0,125.7 264.2,124.1 262.0,123.0C259.9,121.9 257.6,120.1 257.0,119.0C256.3,117.6 254.9,117.0 252.7,117.0C250.9,117.0 246.7,117.9 243.3,119.0C240.0,120.2 236.2,122.2 235.0,123.5C233.2,125.4 233.0,126.1 234.1,126.5C234.9,126.7 239.3,127.1 244.0,127.3C248.7,127.5 255.5,127.7 259.2,127.8zM233.7,102.0C233.5,102.0 232.1,100.6 230.4,98.9C228.8,97.2 224.6,94.1 221.0,92.0C217.4,89.9 213.7,87.3 212.7,86.2C210.9,84.3 210.9,84.2 213.2,82.6C214.4,81.7 216.2,81.0 217.2,81.0C218.1,81.0 219.2,81.9 219.5,83.0C219.9,84.1 223.3,88.4 227.1,92.5C230.9,96.6 234.0,100.4 234.0,101.0C234.0,101.5 233.9,102.0 233.7,102.0zM289.0,95.9C293.3,95.9 296.9,95.3 299.5,94.1C301.7,93.1 305.4,90.2 307.8,87.7C310.1,85.1 312.0,82.2 312.0,81.1C312.0,80.0 310.8,77.8 309.4,76.1C308.0,74.4 306.4,73.0 305.8,73.0C305.2,73.0 305.0,74.3 305.4,76.5C305.9,78.8 305.6,81.0 304.5,83.0C303.6,84.6 301.2,87.1 299.1,88.5C297.0,89.9 293.6,91.3 291.6,91.7C289.6,92.0 286.0,91.7 283.5,91.0C281.0,90.3 277.5,88.4 275.8,86.8C273.2,84.4 272.9,83.5 273.4,80.8C273.7,79.0 275.2,76.4 276.5,75.0C277.9,73.6 279.0,72.1 279.0,71.7C279.0,71.3 278.4,71.0 277.6,71.0C276.9,71.0 274.0,74.1 271.1,77.9C268.3,81.7 266.0,85.1 266.0,85.4C266.0,85.7 268.4,87.8 271.4,90.0C274.4,92.3 278.1,94.5 279.7,95.0C281.2,95.4 285.4,95.9 289.0,95.9zM231.4,89.7C230.8,89.9 228.5,88.7 226.2,87.0C223.9,85.4 222.0,83.3 222.0,82.5C222.0,81.7 223.2,80.7 224.7,80.4C226.3,80.0 228.3,80.2 229.8,81.1C231.2,81.9 232.8,83.3 233.4,84.2C234.2,85.5 234.2,86.5 233.4,87.7C232.8,88.6 231.9,89.5 231.4,89.7zM294.0,84.0C294.5,84.0 296.0,82.6 297.4,80.9C298.9,79.2 300.0,76.6 300.0,75.0C300.0,73.1 299.1,71.4 297.4,70.1C295.9,68.9 294.0,68.0 293.1,68.0C292.1,68.0 290.9,68.5 290.2,69.2C289.5,69.9 289.0,71.4 289.0,72.7C289.0,73.9 290.2,76.0 291.6,77.4C293.5,79.1 294.1,80.5 293.7,81.9C293.4,83.1 293.6,84.0 294.0,84.0z" />

</svg>