<?xml version="1.0" encoding="UTF-8" standalone="no"?>
<svg 
  version="1.1" 
  xmlns="http://www.w3.org/2000/svg" 
  xmlns:xlink="http://www.w3.org/1999/xlink" 
  xmlns:svg="http://www.w3.org/2000/svg"
  xmlns:rdf="http://www.w3.org/1999/02/22-rdf-syntax-ns#"
  xmlns:cc="http://creativecommons.org/ns#"
  xmlns:dc="http://purl.org/dc/elements/1.1/"
  viewBox="0 0 768 768"
  width="768"
  height="768"
>
<style>svg {background-color: white; }</style>"
<metadata id="metadata1">
Created by https://svgstud.io and licensed under CC-BY-SA 4.0 license. Please attribute https://svgstud.io
</metadata>
<metadata id="prompt">
golden eagle
</metadata>
<metadata id="version">
7
</metadata>
<metadata id="metadata2">
<rdf:RDF>
<cc:Work
    rdf:about="">
    <cc:license
    rdf:resource="http://creativecommons.org/licenses/by-sa/4.0/" />
    <dc:creator>
        <cc:Agent>
            <dc:title>https://svgstud.io</dc:title>
        </cc:Agent>
    </dc:creator>
</cc:Work>
<cc:License
    rdf:about="http://creativecommons.org/licenses/by-sa/4.0/">
    <cc:permits
    rdf:resource="http://creativecommons.org/ns#Reproduction" />
    <cc:permits
    rdf:resource="http://creativecommons.org/ns#Distribution" />
    <cc:requires
    rdf:resource="http://creativecommons.org/ns#Notice" />
    <cc:requires
    rdf:resource="http://creativecommons.org/ns#Attribution" />
    <cc:permits
    rdf:resource="http://creativecommons.org/ns#DerivativeWorks" />
    <cc:requires
    rdf:resource="http://creativecommons.org/ns#ShareAlike" />
</cc:License>
</rdf:RDF>
</metadata>
<metadata id="uid">
881ca3f1c389a2a141c778e97471b9f7aa80ee69abbadf68a95b5e09d3183a65
</metadata>
<path stroke="none" fill="black" fill-rule="evenodd" d="M366.6,750.0C365.9,750.0 364.7,749.3 364.0,748.6C363.4,747.8 362.1,743.8 361.2,739.8C359.5,732.5 359.5,732.5 351.0,732.0C346.3,731.7 341.5,730.9 340.2,730.2C338.7,729.3 337.4,729.2 336.1,729.9C335.1,730.5 333.1,732.3 331.6,734.0C330.2,735.7 328.8,738.6 328.4,740.5C328.1,742.4 327.4,744.0 326.9,744.0C326.5,744.0 325.4,743.0 324.6,741.8C323.7,740.5 323.0,737.5 323.0,734.9C323.0,732.4 323.9,727.8 324.9,724.7C326.8,719.1 326.8,719.0 325.0,718.0C324.0,717.5 321.7,717.0 320.0,717.0C318.3,717.0 313.2,718.0 308.7,719.1C304.2,720.3 297.1,721.4 293.0,721.5C288.9,721.7 285.2,721.8 284.9,721.9C284.5,721.9 283.3,724.0 282.1,726.5C280.9,729.0 279.3,731.3 278.4,731.7C277.6,732.0 276.4,731.8 275.9,731.3C275.3,730.7 274.3,726.9 273.6,722.9C272.4,715.5 272.4,715.5 266.2,715.2C260.1,714.9 260.1,714.9 257.3,719.2C254.6,723.5 254.6,723.5 253.9,720.1C253.5,718.0 253.7,714.9 254.6,712.1C255.3,709.6 256.9,706.0 258.0,704.2C259.1,702.5 260.4,701.0 261.0,701.0C261.5,701.0 262.0,700.5 262.0,699.9C262.0,699.1 260.3,698.9 256.6,699.3C253.6,699.6 250.1,700.6 248.7,701.5C247.3,702.4 245.0,704.9 243.6,707.1C242.1,709.3 240.5,710.8 240.0,710.5C239.6,710.2 238.9,708.7 238.5,707.1C238.1,705.2 238.5,703.0 239.6,700.8C240.5,699.0 242.4,696.0 243.8,694.3C245.1,692.5 247.7,690.1 249.5,689.0C251.7,687.6 254.5,687.0 258.3,687.0C262.4,687.0 265.5,686.3 269.5,684.3C275.0,681.6 275.0,681.6 284.3,684.7C289.3,686.4 295.0,688.1 296.9,688.4C298.7,688.7 303.2,688.5 306.9,687.9C310.5,687.4 315.4,685.8 317.7,684.4C320.0,683.1 323.2,680.3 324.9,678.3C326.6,676.2 329.0,672.5 330.2,670.0C331.3,667.5 334.5,660.6 337.1,654.6C339.8,648.6 342.2,642.2 342.6,640.4C343.1,637.7 342.8,636.9 340.6,635.5C339.2,634.6 337.8,633.0 337.5,632.1C337.2,631.1 337.4,627.3 337.9,623.6C338.6,618.9 338.5,614.0 337.5,606.7C336.8,601.0 335.3,592.8 334.2,588.5C333.1,584.1 329.9,572.9 327.0,563.5C324.1,554.1 321.0,542.7 320.0,538.1C319.0,533.5 317.7,529.3 317.3,528.9C316.8,528.4 312.1,525.4 306.9,522.2C301.7,519.0 293.2,513.2 287.9,509.3C282.6,505.3 274.5,498.6 269.9,494.3C265.3,489.9 257.0,481.7 251.5,476.0C246.0,470.2 238.3,461.2 234.4,456.0C230.6,450.8 224.9,442.0 221.9,436.5C218.8,431.0 214.5,422.4 212.2,417.5C210.0,412.6 206.3,403.1 204.0,396.5C201.8,389.9 198.5,377.8 196.8,369.5C193.9,355.6 193.6,353.0 193.6,334.0C193.5,321.0 194.0,310.8 194.8,306.0C195.6,301.9 197.3,294.0 198.7,288.5C200.0,283.0 202.7,274.6 204.5,269.9C206.3,265.1 210.7,255.9 214.3,249.3C217.8,242.8 221.5,235.2 222.4,232.3C223.4,229.2 224.1,223.8 224.2,218.8C224.2,214.2 223.7,207.8 223.0,204.5C222.4,201.2 221.6,197.7 221.3,196.7C221.1,195.7 218.8,192.5 216.4,189.7C214.0,186.8 210.2,182.4 208.0,179.8C205.8,177.3 204.0,174.7 204.0,174.1C204.0,173.5 202.8,172.5 201.3,171.9C199.9,171.4 198.0,171.2 197.3,171.4C196.5,171.7 190.2,171.5 183.3,170.9C176.4,170.3 170.4,170.2 169.9,170.7C169.5,171.1 168.8,175.7 168.4,180.8C167.9,187.4 167.3,190.3 166.3,190.7C165.5,191.0 163.8,190.2 162.4,188.9C161.0,187.6 158.0,182.8 155.8,178.4C152.5,171.7 151.6,168.6 150.9,161.3C150.2,155.4 150.3,150.3 151.1,145.8C151.7,142.0 153.9,135.6 156.0,131.0C159.0,124.9 161.8,121.2 167.7,115.2C173.8,109.1 177.6,106.3 184.7,102.7C193.4,98.2 194.0,97.7 196.8,92.2C199.0,87.9 201.2,85.3 206.3,81.5C209.9,78.8 217.3,74.6 222.6,72.2C228.0,69.8 236.9,66.8 242.4,65.4C248.0,64.1 258.2,62.5 265.2,61.9C275.9,60.9 280.0,61.0 291.5,62.4C299.0,63.4 307.9,65.1 311.3,66.2C314.6,67.3 321.5,70.2 326.4,72.7C331.4,75.2 338.6,79.5 342.5,82.3C346.4,85.1 351.5,89.2 353.8,91.4C356.2,93.7 360.8,99.2 364.0,103.6C367.2,108.1 371.6,115.1 373.8,119.1C376.1,123.2 378.8,129.0 379.9,132.0C381.0,135.0 383.9,144.5 386.5,153.0C389.1,161.5 392.5,172.8 394.2,178.0C395.8,183.2 398.7,190.8 400.6,194.8C402.4,198.8 406.0,205.3 408.6,209.1C411.1,213.0 416.7,219.6 421.0,223.9C425.3,228.2 432.6,234.4 437.2,237.6C444.2,242.5 447.1,243.9 456.0,246.3C461.7,247.8 469.4,250.3 473.0,251.7C476.6,253.1 483.8,256.5 489.2,259.1C494.5,261.8 502.8,266.5 507.7,269.6C512.5,272.7 521.2,279.2 527.0,284.0C532.8,288.8 542.9,298.3 549.5,305.2C556.1,312.0 565.1,322.3 569.6,328.0C574.1,333.8 586.8,352.2 598.0,369.0C609.1,385.8 621.1,403.8 624.5,409.0C627.9,414.2 635.8,426.7 642.1,436.7C648.4,446.7 654.8,457.0 656.4,459.7C658.1,462.3 662.1,469.2 665.5,475.1C668.9,480.9 673.1,487.8 675.0,490.6C676.8,493.3 680.6,498.6 683.5,502.5C686.3,506.4 691.6,513.5 695.2,518.5C698.8,523.5 702.5,529.0 703.5,530.9C705.0,533.9 705.0,534.4 703.7,535.8C702.3,537.1 701.5,537.1 695.8,535.0C692.3,533.7 687.9,531.6 686.0,530.2C684.1,528.8 680.8,526.1 678.7,524.2C676.5,522.4 674.6,521.1 674.3,521.3C674.1,521.6 675.1,524.1 676.5,526.9C678.0,529.7 679.4,533.7 679.7,535.8C680.1,538.5 679.8,540.0 678.6,540.9C677.7,541.6 677.0,543.2 677.0,544.4C677.0,545.5 681.0,552.4 685.9,559.5C690.8,566.6 696.7,575.2 699.1,578.5C701.5,581.8 708.0,591.0 713.4,599.0C718.9,607.0 725.5,616.6 728.1,620.5C730.7,624.4 733.0,628.4 733.2,629.5C733.4,630.8 732.7,631.7 730.8,632.4C728.7,633.1 725.6,632.9 719.0,631.6C714.0,630.5 709.7,630.0 709.4,630.2C709.1,630.5 711.3,634.3 714.3,638.6C717.3,643.0 720.7,648.4 721.9,650.7C723.0,653.0 724.0,655.6 724.0,656.5C724.0,657.4 722.4,658.8 720.5,659.6C718.6,660.3 713.9,661.0 710.1,661.0C706.3,661.0 699.6,660.5 695.3,659.9C691.0,659.4 681.5,656.9 674.1,654.4C666.1,651.8 657.6,648.1 652.8,645.3C647.1,641.9 642.2,637.8 636.3,631.5C628.7,623.5 627.9,622.8 628.3,625.5C628.5,627.1 630.6,635.7 633.0,644.5C636.2,656.5 637.3,662.6 637.4,668.7C637.5,675.5 637.2,677.3 635.4,679.7C634.2,681.2 632.1,682.9 630.6,683.4C628.9,684.1 625.4,684.0 620.2,683.1C616.0,682.4 608.9,680.8 604.4,679.5C599.3,677.9 593.5,675.2 588.9,672.2C584.8,669.5 578.8,664.4 575.5,660.8C572.2,657.3 567.0,651.1 564.0,647.2C561.0,643.3 556.5,636.6 554.2,632.3C551.8,628.0 545.2,615.7 539.6,605.0C534.0,594.3 529.0,585.6 528.4,585.7C527.9,585.9 527.4,589.5 527.2,593.7C527.1,598.0 526.8,602.5 526.5,603.8C526.2,605.0 525.2,606.0 524.2,606.0C523.3,606.0 520.1,603.9 517.2,601.4C512.0,596.8 512.0,596.8 512.0,601.4C512.0,605.1 511.7,606.0 510.3,606.0C509.4,606.0 506.2,603.5 503.2,600.4C500.2,597.4 497.6,595.1 497.4,595.3C497.1,595.6 495.6,600.8 493.9,607.1C492.2,613.8 489.3,621.4 486.9,625.9C484.4,630.7 480.2,636.2 475.8,640.7C471.4,645.1 466.8,648.7 464.0,649.9C461.4,651.0 458.9,652.5 458.3,653.2C457.8,653.9 456.1,658.1 454.6,662.5C453.0,666.9 449.8,676.1 447.4,683.0C445.0,689.9 443.0,697.3 443.0,699.6C443.0,703.7 443.0,703.7 451.8,704.4C458.2,704.8 461.8,704.6 465.4,703.5C468.6,702.5 472.6,702.2 476.9,702.5C480.5,702.8 490.7,703.4 499.5,704.0C508.3,704.6 526.8,705.5 540.5,706.0C554.2,706.5 574.0,707.4 584.5,708.0C595.0,708.6 607.5,709.7 612.4,710.5C617.3,711.3 621.8,712.4 622.4,713.0C623.2,713.8 622.9,714.6 621.3,716.0C620.0,717.0 615.2,718.5 610.3,719.4C605.4,720.2 595.2,721.4 587.5,722.0C578.9,722.7 557.0,722.9 530.8,722.6C488.0,722.1 488.0,722.1 488.0,726.8C488.0,729.5 487.5,732.1 487.0,732.6C486.3,733.3 476.1,733.5 457.2,733.3C435.0,732.9 426.2,733.2 418.3,734.4C411.9,735.3 406.3,736.8 403.2,738.4C400.4,739.8 394.9,741.5 391.0,742.1C385.3,743.1 382.8,743.1 378.9,742.1C376.3,741.4 373.6,741.1 373.0,741.5C372.4,741.8 371.1,743.9 370.0,746.1C368.9,748.2 367.3,750.0 366.6,750.0zM365.9,734.0C366.3,734.0 369.0,731.3 371.9,727.9C374.9,724.5 378.7,720.9 380.4,719.9C382.1,718.9 384.5,718.0 385.8,718.0C387.0,718.0 388.0,718.6 388.0,719.4C388.0,720.2 386.4,722.7 384.5,725.0C382.6,727.3 381.0,729.6 381.0,730.1C381.0,730.6 381.2,731.0 381.4,731.0C381.7,731.0 383.5,730.1 385.5,728.9C388.1,727.3 389.9,727.0 392.4,727.4C395.5,728.0 396.1,727.7 398.5,724.5C400.0,722.6 402.1,721.0 403.1,721.0C404.3,721.0 405.2,722.0 405.6,723.5C405.9,724.9 406.4,726.0 406.6,726.0C406.8,726.0 410.5,723.2 414.8,719.8C419.1,716.3 424.7,712.0 427.3,710.3C429.9,708.5 432.0,706.4 432.0,705.6C432.0,704.8 430.0,703.5 427.3,702.6C424.7,701.7 421.4,701.0 419.9,701.0C418.4,701.0 415.8,700.2 414.0,699.2C410.9,697.5 410.9,697.5 408.4,700.5C407.1,702.1 405.6,703.8 405.2,704.2C404.8,704.6 402.8,706.3 400.8,708.0C397.4,710.9 396.4,711.1 386.2,711.9C377.4,712.5 374.7,713.1 372.2,714.8C370.5,716.1 368.0,719.5 366.6,722.5C365.2,725.4 364.0,729.0 364.0,730.3C364.0,731.6 364.3,733.0 364.7,733.3C365.0,733.7 365.6,734.0 365.9,734.0zM335.2,719.0C339.8,715.7 344.4,713.0 345.5,713.0C346.6,713.0 348.4,713.9 349.3,715.1C351.1,717.1 351.1,717.1 354.7,715.0C358.3,712.9 358.3,712.9 360.2,715.0C361.2,716.1 362.4,717.0 362.8,717.0C363.3,717.0 365.5,715.6 367.8,713.9C370.1,712.2 372.0,710.4 372.0,709.9C372.0,709.4 369.8,709.0 367.1,709.0C364.4,709.0 360.7,708.3 358.7,707.5C356.2,706.5 353.3,706.2 348.3,706.7C344.6,707.0 340.3,707.9 338.9,708.6C337.5,709.3 334.8,711.8 332.8,714.2C330.9,716.6 328.8,719.5 328.2,720.7C327.5,721.9 327.0,723.3 327.0,723.9C327.0,724.4 330.7,722.2 335.2,719.0zM468.3,725.0C469.6,725.0 471.1,724.5 471.8,723.8C472.5,723.1 473.0,721.8 473.0,720.9C473.0,719.9 471.8,717.7 470.3,715.9C467.5,712.7 467.5,712.7 471.9,713.3C474.5,713.6 478.1,715.1 480.6,717.0C483.0,718.7 485.0,719.6 485.0,719.0C485.0,718.4 484.3,716.8 483.4,715.5C482.5,714.1 480.2,712.1 478.4,710.9C476.0,709.4 473.9,708.9 471.7,709.3C469.9,709.6 466.6,710.4 464.2,711.1C460.8,712.2 459.5,712.2 458.0,711.2C456.8,710.5 452.5,710.0 446.8,710.1C441.7,710.2 435.8,710.3 433.8,710.3C431.0,710.5 429.2,711.4 426.1,714.4C423.8,716.6 421.8,719.2 421.4,720.2C421.1,721.2 421.1,722.4 421.5,722.9C421.8,723.5 423.8,723.1 426.3,722.0C429.9,720.4 431.1,720.3 434.8,721.3C438.2,722.2 439.7,722.1 442.3,721.0C444.0,720.3 447.3,719.6 449.5,719.5C451.7,719.5 454.5,719.1 455.8,718.6C457.6,718.0 458.9,718.5 462.0,721.4C464.2,723.4 467.0,725.0 468.3,725.0zM277.2,717.0C277.8,717.0 280.9,714.5 284.1,711.5C287.3,708.5 290.8,706.0 291.9,706.0C293.5,706.0 294.0,706.6 294.0,708.6C294.0,710.4 294.5,711.1 295.6,710.8C296.5,710.6 297.7,709.7 298.1,708.8C298.6,707.8 299.4,706.2 299.9,705.2C300.3,704.3 301.5,703.3 302.5,703.2C303.5,703.0 305.6,703.8 307.2,705.0C310.2,707.2 310.2,707.2 318.2,702.5C322.6,700.0 326.4,698.1 326.7,698.3C326.9,698.6 326.7,699.8 326.0,700.9C325.4,702.1 325.2,703.5 325.5,704.0C325.8,704.6 327.3,704.7 328.8,704.3C330.3,704.0 333.9,702.3 336.9,700.7C341.9,697.8 342.5,697.7 346.6,698.8C349.1,699.5 352.6,700.0 354.5,700.0C356.9,700.0 358.0,699.5 358.0,698.6C358.0,697.8 357.3,696.4 356.5,695.6C355.6,694.7 353.0,693.6 350.7,693.0C348.4,692.4 346.1,691.7 345.5,691.4C344.9,691.1 343.4,690.3 342.0,689.5C340.6,688.7 337.6,688.0 335.2,688.0C332.1,688.0 331.0,687.6 331.0,686.5C331.0,685.7 331.8,685.0 332.8,685.0C333.8,685.0 336.7,685.7 339.2,686.6C343.4,688.0 344.1,688.0 346.9,686.6C348.6,685.7 350.4,684.1 351.0,683.1C351.5,682.0 352.0,680.9 352.0,680.6C352.0,680.3 350.2,680.0 348.0,680.0C345.8,680.0 342.6,679.1 340.8,678.0C339.0,676.9 336.2,676.0 334.7,676.0C332.3,676.0 331.6,676.7 329.9,680.4C328.2,684.3 327.3,685.1 321.4,687.6C317.8,689.1 314.3,691.2 313.6,692.2C312.5,693.7 310.6,694.0 302.8,694.3C295.1,694.6 292.6,695.1 289.8,696.8C287.8,698.1 284.6,700.8 282.7,703.0C280.7,705.1 278.4,708.2 277.6,709.9C276.7,711.5 276.0,713.8 276.0,715.0C276.0,716.1 276.5,717.0 277.2,717.0zM392.9,702.7C394.7,702.3 397.8,701.3 399.7,700.3C401.6,699.4 404.6,696.8 406.2,694.6C407.9,692.3 410.3,688.2 411.6,685.4C412.9,682.7 415.8,675.2 418.0,668.9C420.3,662.6 422.3,656.8 422.6,656.0C422.9,655.1 421.5,652.8 419.1,650.4C416.2,647.4 414.7,644.7 413.5,640.4C412.7,637.2 410.8,630.5 409.3,625.5C407.9,620.5 406.1,615.3 405.3,613.8C404.6,612.2 403.3,611.0 402.4,611.0C401.6,611.0 400.0,613.1 398.9,615.8C397.8,618.4 395.5,623.3 393.8,626.7C392.1,630.2 387.7,636.3 384.0,640.3C378.3,646.6 376.6,649.5 372.3,659.7C369.5,666.2 365.9,675.3 364.4,679.8C362.8,684.2 361.9,688.2 362.3,688.6C362.7,689.0 365.3,688.6 368.1,687.7C370.9,686.7 375.8,686.0 378.9,686.0C383.7,686.0 385.3,686.5 388.8,689.1C391.2,690.8 393.8,693.6 394.6,695.2C395.8,697.5 395.9,698.5 394.9,699.6C394.3,700.4 393.2,701.0 392.4,701.0C391.7,701.0 390.8,701.5 390.4,702.2C389.9,703.0 390.6,703.1 392.9,702.7zM264.8,700.0C265.2,700.0 267.0,699.1 268.8,698.0C270.6,696.9 272.8,696.0 273.8,696.0C274.8,696.0 276.1,696.5 276.7,697.1C277.5,697.9 278.8,697.6 281.5,696.2C285.3,694.3 285.3,694.3 282.4,691.6C280.8,690.1 278.4,688.7 277.1,688.3C275.8,688.0 273.3,688.4 271.5,689.3C269.7,690.2 267.0,692.5 265.5,694.4C264.0,696.3 263.1,698.4 263.5,699.0C263.8,699.5 264.4,700.0 264.8,700.0zM423.3,697.5C426.5,697.3 430.2,696.5 431.5,695.6C432.9,694.7 434.0,693.3 434.0,692.5C434.0,691.4 432.7,691.0 428.6,691.0C425.6,691.0 422.9,690.6 422.6,690.1C422.3,689.6 420.6,688.7 418.9,688.1C416.0,687.1 415.8,687.2 414.4,690.5C413.7,692.4 413.3,694.6 413.6,695.4C413.9,696.2 414.9,697.1 415.8,697.4C416.8,697.7 420.1,697.7 423.3,697.5zM429.8,686.8C431.1,686.9 433.4,686.3 435.0,685.5C436.7,684.6 438.0,683.4 438.0,682.7C438.0,682.0 437.5,680.9 436.8,680.2C436.1,679.5 433.9,679.0 431.9,679.0C429.9,679.0 426.5,678.3 424.4,677.4C420.7,675.9 420.5,675.9 418.8,678.0C417.8,679.2 417.0,681.0 417.0,682.0C417.0,683.0 417.6,684.2 418.3,684.8C419.0,685.4 421.3,686.0 423.5,686.3C425.7,686.5 428.5,686.7 429.8,686.8zM627.4,675.8C628.8,675.6 629.6,674.6 629.8,672.9C630.0,671.5 628.3,665.8 626.1,660.3C623.9,654.8 620.6,647.4 618.8,643.9C617.0,640.4 613.7,633.5 611.5,628.6C609.3,623.6 605.6,616.0 603.2,611.6C600.9,607.1 595.3,596.4 590.9,587.7C583.7,573.6 582.4,571.6 579.3,570.4C577.4,569.6 574.6,568.7 572.9,568.3C570.7,567.9 570.0,568.1 570.0,569.3C570.0,570.2 572.0,575.8 574.4,581.7C576.9,587.6 580.4,595.9 582.3,600.0C584.2,604.1 587.4,611.1 589.4,615.5C591.5,619.8 596.6,629.7 600.8,637.5C605.0,645.2 611.5,656.2 615.3,662.0C619.2,667.8 623.0,673.3 623.8,674.3C624.7,675.3 626.3,676.0 627.4,675.8zM345.5,674.4C348.8,674.1 352.5,673.1 353.8,672.3C355.1,671.5 355.9,670.3 355.7,669.7C355.5,669.0 353.1,668.4 350.4,668.2C347.7,668.0 345.2,667.4 344.8,666.7C344.4,666.1 344.4,665.2 344.6,664.8C344.9,664.4 346.2,664.0 347.5,664.0C348.9,664.0 351.9,663.3 354.2,662.3C356.6,661.4 358.9,660.3 359.4,659.9C359.9,659.4 359.0,658.6 357.4,658.0C355.8,657.3 352.5,656.5 350.0,656.0C347.5,655.6 344.7,654.9 343.8,654.6C342.6,654.1 341.6,654.6 340.4,656.5C338.8,659.0 338.8,659.2 340.9,662.1C342.9,664.8 342.9,665.0 341.3,665.0C340.3,665.0 338.4,665.7 337.2,666.6C336.0,667.4 335.0,669.0 335.0,670.0C335.0,671.0 336.0,672.6 337.2,673.5C339.0,674.7 340.9,674.9 345.5,674.4zM425.0,675.0C425.5,675.0 429.2,674.3 433.2,673.5C437.2,672.6 441.1,671.3 441.9,670.5C443.2,669.3 443.0,668.9 440.7,668.0C439.2,667.5 436.8,666.5 435.4,666.0C433.9,665.4 433.0,664.7 433.3,664.4C433.6,664.1 435.8,663.4 438.2,662.9C440.6,662.3 443.5,661.2 444.8,660.4C446.0,659.6 446.8,658.5 446.5,658.0C446.1,657.4 443.6,657.0 440.9,657.0C438.1,657.0 434.5,656.3 432.9,655.4C430.0,654.0 429.7,654.0 427.8,655.7C426.2,657.1 425.9,658.4 426.3,661.7C426.7,665.4 426.5,666.0 424.9,666.0C423.9,666.0 422.6,666.9 422.0,668.1C421.1,669.7 421.2,670.7 422.5,672.6C423.3,673.9 424.5,675.0 425.0,675.0zM351.9,654.9C352.1,655.0 354.3,653.8 356.7,652.4C359.1,651.0 360.9,649.3 360.7,648.7C360.5,648.1 358.6,647.2 356.4,646.8C354.3,646.3 351.7,645.0 350.7,643.8C349.3,642.1 348.5,641.8 347.2,642.6C346.3,643.2 344.9,644.8 344.2,646.2C343.6,647.6 343.2,649.5 343.6,650.3C343.9,651.1 345.8,652.5 347.8,653.3C349.8,654.1 351.7,654.8 351.9,654.9zM709.2,653.9C711.3,654.0 712.0,653.5 712.0,652.2C712.0,651.3 711.2,649.3 710.2,647.9C709.3,646.4 705.8,641.9 702.6,637.9C699.3,633.8 692.1,624.9 686.7,618.0C681.2,611.1 671.0,599.6 664.1,592.5C657.1,585.4 646.1,573.1 639.7,565.3C633.2,557.5 627.1,550.9 626.2,550.5C625.3,550.1 621.5,549.3 617.8,548.5C613.8,547.8 611.0,547.6 611.0,548.2C611.0,548.7 613.5,553.5 616.7,558.8C619.8,564.1 625.7,573.7 629.8,580.0C634.0,586.3 642.5,599.4 648.9,609.0C655.2,618.6 663.3,630.0 666.8,634.3C670.4,638.6 673.4,641.9 673.7,641.6C673.9,641.4 669.6,632.4 664.1,621.7C658.5,611.0 654.0,602.0 654.0,601.6C654.0,601.2 654.5,601.2 655.0,601.5C655.6,601.9 663.9,612.6 673.4,625.3C683.0,638.1 691.9,649.1 693.2,649.9C694.4,650.7 698.0,651.9 701.0,652.5C704.0,653.2 707.7,653.8 709.2,653.9zM439.4,647.0C440.2,647.0 442.5,645.1 444.5,642.8C446.5,640.4 450.1,634.5 452.5,629.5C454.9,624.5 458.4,615.8 460.3,610.0C462.3,604.2 464.4,595.5 465.1,590.6C465.8,585.3 466.0,577.8 465.6,572.1C464.9,562.5 464.9,562.5 467.0,565.0C468.1,566.4 470.7,570.9 472.9,575.0C475.0,579.1 477.5,584.9 478.5,587.8C479.4,590.6 480.6,593.0 481.1,593.0C481.6,593.0 482.3,591.8 482.6,590.4C483.0,588.9 483.0,583.9 482.7,579.1C482.4,574.1 481.3,568.1 480.1,564.9C478.7,561.3 475.6,556.6 471.5,551.9C468.0,547.8 461.8,540.3 457.9,535.1C453.9,529.9 449.3,523.2 447.6,520.1C444.5,514.6 444.1,514.3 430.5,507.3C422.8,503.3 416.2,500.0 415.7,500.0C415.3,500.0 415.6,501.5 416.4,503.4C417.2,505.3 420.4,510.7 423.4,515.3C426.5,520.0 429.0,524.3 429.0,524.8C429.0,525.4 426.6,525.1 423.2,524.1C420.1,523.1 414.6,520.9 411.0,519.3C407.4,517.6 401.3,514.0 397.5,511.3C393.6,508.5 385.6,501.6 379.7,496.0C373.7,490.3 368.3,484.5 367.5,483.0C366.3,480.7 364.8,480.1 355.8,478.0C349.1,476.4 342.2,473.9 336.0,470.8C330.8,468.2 325.4,465.1 324.1,464.0C322.8,462.9 321.9,461.8 322.1,461.6C322.3,461.3 326.6,462.0 331.5,463.0C336.5,464.0 341.8,465.3 343.3,465.9C344.9,466.5 346.3,467.0 346.6,467.0C346.8,467.0 347.0,466.6 347.0,466.1C347.0,465.6 344.6,463.5 341.8,461.3C338.9,459.1 332.7,454.7 328.1,451.4C323.5,448.2 315.5,441.2 310.3,436.0C305.1,430.8 299.6,424.4 298.1,421.9C296.7,419.4 294.1,415.7 292.4,413.8C290.7,411.8 287.5,409.7 285.4,409.0C283.3,408.3 279.7,406.8 277.5,405.8C275.3,404.7 270.4,400.8 266.7,397.1C262.9,393.5 257.7,386.8 254.9,382.3C252.1,377.8 248.2,369.2 246.0,363.3C243.9,357.3 241.4,348.7 240.4,344.1C238.6,335.8 238.6,335.8 235.8,339.1C234.2,341.0 232.0,344.2 230.8,346.2C229.6,348.2 228.1,350.1 227.4,350.4C226.8,350.6 223.6,348.9 220.3,346.5C217.1,344.1 212.8,339.9 210.6,337.1C208.5,334.3 206.3,332.0 205.7,332.0C205.1,332.0 204.9,335.0 205.3,340.7C205.7,345.6 206.6,352.4 207.4,356.0C208.2,359.6 211.1,368.8 214.0,376.5C216.8,384.2 221.9,396.1 225.2,402.9C228.6,409.7 233.1,418.2 235.3,421.8C237.5,425.4 243.9,434.5 249.5,442.0C255.2,449.5 261.8,457.3 264.1,459.4C266.5,461.4 268.6,462.7 268.8,462.1C269.0,461.6 267.3,457.8 265.1,453.8C262.9,449.8 260.3,444.2 259.2,441.5C258.1,438.8 256.9,434.0 256.6,431.0C255.9,425.5 255.9,425.5 258.5,428.5C259.9,430.1 263.7,435.8 267.0,441.0C270.3,446.2 276.9,455.0 281.7,460.5C286.6,466.0 293.1,472.5 296.2,475.0C299.3,477.5 306.9,482.4 313.2,485.9C319.4,489.5 331.9,497.4 341.0,503.5C350.1,509.6 359.7,516.1 362.3,518.0C364.9,519.9 369.3,523.2 372.0,525.2C376.1,528.4 377.1,529.8 378.5,534.7C379.3,537.9 381.9,546.6 384.1,554.0C386.3,561.4 390.4,573.1 393.1,580.0C395.8,586.9 399.1,594.2 400.5,596.2C401.9,598.3 403.5,600.0 403.9,600.0C404.4,600.0 405.0,593.6 405.2,585.8C405.5,577.9 406.2,570.2 406.9,568.5C407.8,566.2 408.3,565.9 409.0,567.0C409.5,567.8 411.6,575.4 413.6,584.0C415.6,592.5 417.7,599.9 418.1,600.4C418.6,600.9 420.0,599.1 421.2,596.4C423.5,591.5 423.5,591.5 423.8,601.4C423.9,606.8 423.4,616.3 422.5,622.4C421.7,628.4 421.0,634.9 421.0,636.7C421.0,639.1 421.5,640.0 422.6,640.0C423.5,640.0 425.8,638.3 427.6,636.3C431.0,632.6 431.0,632.6 431.0,636.8C431.0,639.7 431.5,641.3 432.6,641.7C433.4,642.0 435.1,641.3 436.4,640.1C437.6,639.0 438.9,638.0 439.3,638.0C439.7,638.0 439.5,639.2 439.0,640.6C438.4,642.0 438.0,644.0 438.0,645.1C438.0,646.1 438.6,647.0 439.4,647.0zM709.7,620.0C710.4,620.0 711.0,619.5 711.0,618.9C711.0,618.3 709.8,616.2 708.3,614.2C706.8,612.2 701.7,606.2 696.9,601.0C692.2,595.8 682.3,584.2 674.9,575.3C667.5,566.4 660.8,558.1 660.0,556.9C658.8,555.3 656.9,554.5 653.0,553.9C650.0,553.5 645.6,552.9 643.2,552.5C639.6,551.8 639.0,552.0 639.0,553.5C639.0,554.5 641.4,557.9 644.2,561.0C647.1,564.2 654.2,572.0 660.0,578.5C665.8,584.9 676.3,595.6 683.5,602.1C691.8,609.7 698.6,615.2 702.4,617.0C705.7,618.7 708.9,620.0 709.7,620.0zM628.7,591.6C629.0,591.3 627.3,587.6 624.9,583.3C622.6,579.0 618.4,572.2 615.7,568.2C613.0,564.3 610.3,561.0 609.8,561.0C609.3,561.0 609.2,562.0 609.5,563.2C609.9,564.5 611.8,568.2 613.8,571.5C615.7,574.8 619.8,580.8 622.8,584.8C625.8,588.8 628.4,591.9 628.7,591.6zM644.8,539.9C644.9,540.0 645.0,539.3 645.0,538.5C645.0,537.7 637.3,531.8 627.8,525.4C618.4,518.9 608.0,511.2 604.6,508.3C601.2,505.3 596.1,500.1 593.3,496.7C590.4,493.3 588.0,489.9 588.0,489.2C588.0,488.3 588.8,488.4 590.8,489.7C592.3,490.7 598.7,495.5 605.0,500.5C611.3,505.5 619.9,512.1 624.0,515.1C628.1,518.1 636.9,524.2 643.5,528.7C650.1,533.2 657.3,537.3 659.5,537.9C661.7,538.5 665.7,539.0 668.3,539.0C671.8,539.0 673.2,538.6 673.7,537.3C674.1,536.2 673.3,534.8 671.3,532.9C669.6,531.4 664.9,528.3 660.8,526.0C656.8,523.7 648.3,518.4 642.0,514.2C635.7,510.0 625.5,502.8 619.5,498.2C613.5,493.6 604.2,486.0 598.9,481.4C593.5,476.7 586.3,469.7 582.8,465.7C579.2,461.8 573.3,454.4 569.7,449.5C566.0,444.6 561.6,437.9 559.9,434.7C558.2,431.5 557.0,428.6 557.3,428.4C557.6,428.1 559.1,428.5 560.7,429.4C562.3,430.2 565.8,433.0 568.6,435.7C571.3,438.4 578.9,446.6 585.5,453.9C592.1,461.3 604.0,473.5 612.0,481.0C620.0,488.6 630.3,497.8 635.0,501.5C639.7,505.2 647.3,510.7 652.0,513.8C656.6,516.8 661.0,519.4 661.7,519.7C662.5,520.0 663.0,519.5 663.0,518.5C663.0,517.6 660.6,513.1 657.7,508.7C654.8,504.2 646.8,493.6 639.9,485.1C633.1,476.6 624.7,466.1 621.2,461.6C617.8,457.1 611.5,449.1 607.2,443.8C603.0,438.4 597.8,431.2 595.8,427.8C593.7,424.4 592.0,420.8 592.0,419.8C592.0,418.8 592.5,418.0 593.1,418.0C593.6,418.0 597.6,421.3 601.8,425.3C606.0,429.3 614.8,437.2 621.2,442.8C627.7,448.4 635.3,455.8 638.2,459.1C641.1,462.4 645.9,467.1 648.9,469.6C651.8,472.0 654.6,474.0 655.1,474.0C655.6,474.0 656.0,473.2 656.0,472.2C656.0,471.3 653.6,466.8 650.7,462.3C647.9,457.8 637.6,442.2 627.9,427.8C618.2,413.3 608.6,399.8 606.6,397.8C604.7,395.8 602.1,393.9 600.9,393.5C599.8,393.1 598.6,393.1 598.2,393.4C597.9,393.8 598.4,396.4 599.3,399.4C600.2,402.3 601.0,405.0 601.0,405.4C601.0,405.8 597.8,405.8 593.8,405.4C587.1,404.7 586.7,404.8 587.4,406.6C587.9,407.6 588.5,409.6 589.0,411.0C589.4,412.4 589.4,414.5 588.9,415.7C588.5,416.9 586.3,418.8 584.1,420.0C581.9,421.1 578.6,422.0 576.8,422.0C575.0,422.0 570.7,421.3 567.4,420.5C564.0,419.7 558.6,417.9 555.5,416.5C551.4,414.7 548.0,414.0 543.8,414.0C540.5,414.0 535.1,413.3 531.7,412.4C528.4,411.6 523.6,409.8 521.0,408.5C518.5,407.2 514.5,404.5 512.1,402.6C509.7,400.6 507.5,399.0 507.1,399.0C506.7,399.0 505.1,400.4 503.4,402.1C500.5,405.2 500.5,405.2 492.0,404.7C486.9,404.4 480.3,403.2 475.5,401.6C469.6,399.7 465.9,397.8 461.6,394.2C456.0,389.6 455.5,389.3 450.9,389.8C448.0,390.1 444.3,389.6 441.4,388.6C438.8,387.7 435.8,387.0 434.7,387.0C433.1,387.0 433.3,387.6 436.4,391.0C438.4,393.3 440.8,396.6 441.7,398.5C442.6,400.4 443.1,402.3 442.7,402.6C442.4,402.9 439.7,402.9 436.8,402.5C431.8,401.9 431.1,401.4 423.8,393.8C419.5,389.5 413.3,381.8 409.9,376.7C406.6,371.7 402.3,364.5 400.4,360.8C397.2,354.4 396.8,354.0 394.8,355.1C393.3,355.9 389.6,356.1 383.3,355.6C378.2,355.3 374.0,355.3 374.0,355.7C374.0,356.2 376.2,359.9 378.9,364.0C381.6,368.1 386.2,374.3 389.1,377.7C392.1,381.2 396.7,385.8 399.4,388.0C402.0,390.2 408.0,393.8 412.5,395.9C417.1,398.0 422.4,400.3 424.4,401.0C426.4,401.6 428.2,402.6 428.6,403.1C428.9,403.7 428.6,404.7 428.0,405.5C427.3,406.3 425.8,407.0 424.6,407.0C423.4,407.0 419.7,406.3 416.5,405.5C413.2,404.6 407.8,402.6 404.4,401.0C401.1,399.4 396.1,396.1 393.5,393.8C390.8,391.4 385.3,385.1 381.3,379.7C377.3,374.2 371.9,365.7 369.5,360.7C367.0,355.6 362.5,348.6 359.5,345.0C356.5,341.4 352.3,335.1 350.3,331.0C347.5,325.2 346.6,322.0 346.3,317.0C346.1,311.3 346.2,310.8 347.3,313.0C347.9,314.4 349.8,317.8 351.4,320.5C353.0,323.2 355.9,327.7 357.8,330.3C359.7,333.0 363.8,337.0 366.8,339.2C369.9,341.5 374.5,344.2 377.2,345.2C379.8,346.2 382.9,347.0 384.0,347.0C385.1,347.0 386.0,346.6 386.0,346.1C386.0,345.6 384.4,341.9 382.5,337.9C380.6,333.8 378.7,328.4 378.4,325.8C378.0,322.8 378.1,321.0 378.7,321.0C379.3,321.0 383.8,327.2 388.9,334.8C393.9,342.4 398.0,349.0 398.0,349.6C398.0,350.1 400.1,352.6 402.8,355.2C405.4,357.7 411.5,362.8 416.4,366.5C421.3,370.1 426.9,373.9 428.9,374.9C430.9,375.9 434.8,377.4 437.5,378.3C440.2,379.1 444.2,380.1 446.2,380.5C448.7,380.9 450.0,380.7 450.0,380.0C450.0,379.4 449.5,377.9 448.9,376.8C448.3,375.7 446.4,372.9 444.6,370.6C442.8,368.2 439.7,362.5 437.7,357.8C435.7,353.2 433.8,347.5 433.4,345.2C433.0,342.7 433.1,341.0 433.7,341.0C434.3,341.0 435.4,341.8 436.2,342.8C437.1,343.7 440.0,348.1 442.7,352.5C445.4,356.9 450.8,364.8 454.7,370.0C458.6,375.2 464.2,381.8 467.2,384.6C470.2,387.5 474.4,390.7 476.6,391.8C478.8,392.9 483.8,394.8 487.8,396.0C492.3,397.4 495.5,397.9 496.1,397.3C496.6,396.8 494.1,392.3 489.6,385.9C485.5,380.2 479.4,370.2 476.0,363.7C472.7,357.2 470.0,351.0 470.0,349.9C470.0,348.9 470.4,348.0 470.9,348.0C471.3,348.0 473.7,350.2 476.1,352.8C478.5,355.4 483.0,360.7 486.0,364.5C488.9,368.4 496.6,376.7 503.0,383.0C512.1,392.0 516.4,395.4 522.6,398.7C527.6,401.3 532.5,403.1 536.0,403.6C541.5,404.3 541.5,404.3 536.4,398.9C533.7,395.9 529.5,390.0 527.1,385.8C524.4,380.8 523.0,377.1 523.2,375.3C523.5,372.8 524.3,373.5 534.5,384.6C540.5,391.1 547.6,398.6 550.2,401.2C552.8,403.8 557.5,407.3 560.8,408.9C564.0,410.5 569.4,412.4 572.8,413.0C576.3,413.7 579.3,414.0 579.7,413.7C580.0,413.3 579.5,411.8 578.5,410.3C577.5,408.8 573.3,403.4 569.3,398.5C565.3,393.6 560.4,387.6 558.4,385.2C555.1,381.4 554.9,381.0 556.9,381.0C558.1,381.0 563.1,382.6 568.0,384.5C572.9,386.4 577.7,388.0 578.7,388.0C579.9,388.0 579.0,386.5 575.4,382.8C572.6,379.9 569.1,375.7 567.5,373.6C564.7,369.7 564.7,369.7 567.5,370.4C569.1,370.8 573.4,373.1 577.2,375.6C581.0,378.0 586.3,381.1 589.0,382.5C591.7,383.9 595.1,385.0 596.5,385.0C598.1,385.0 599.0,384.4 599.0,383.5C599.0,382.6 596.6,378.5 593.8,374.3C590.9,370.2 587.2,365.7 585.5,364.5C583.9,363.2 579.9,361.7 576.6,361.1C573.4,360.5 568.7,359.0 566.1,357.8C563.6,356.5 559.7,353.6 557.5,351.4C555.2,349.1 552.6,345.4 551.5,343.1C550.5,340.8 550.0,338.7 550.3,338.4C550.6,338.1 555.6,341.0 561.5,344.9C567.3,348.8 573.0,352.0 574.1,352.0C575.1,352.0 576.0,351.6 576.0,351.1C576.0,350.5 572.1,344.7 567.4,338.1C562.6,331.5 553.7,320.5 547.5,313.7C541.3,306.9 531.8,297.6 526.3,293.0C520.9,288.5 511.6,281.5 505.5,277.5C499.4,273.5 491.8,268.7 488.5,266.9C485.2,265.0 478.8,261.8 474.2,259.7C469.7,257.6 461.9,254.9 456.9,253.5C451.9,252.2 441.6,250.5 434.1,249.9C423.6,248.9 416.7,248.9 405.5,249.7C395.5,250.5 389.9,250.5 387.9,249.8C386.3,249.3 385.0,248.5 385.0,248.1C385.0,247.7 387.8,245.7 391.2,243.8C394.7,241.8 399.6,238.7 402.2,236.8C406.9,233.5 406.9,233.5 389.2,232.8C379.5,232.4 367.1,231.5 361.8,230.6C355.5,229.7 349.9,228.1 345.7,226.1C341.9,224.3 337.6,221.2 335.1,218.5C332.9,216.1 331.0,213.6 331.0,213.0C331.0,212.5 331.2,212.0 331.5,212.0C331.7,212.0 334.3,212.9 337.1,214.0C339.9,215.2 342.5,215.9 342.7,215.6C342.9,215.4 341.6,212.8 339.7,209.8C337.8,206.9 335.9,203.5 335.5,202.3C335.2,201.0 335.1,200.0 335.5,200.0C335.8,200.0 337.7,201.1 339.8,202.5C341.8,203.9 347.3,207.9 352.0,211.4C356.7,214.9 360.7,217.3 360.8,216.8C361.0,216.3 359.4,212.2 357.2,207.7C355.0,203.2 352.9,198.4 352.5,197.0C352.1,195.6 350.0,192.5 347.8,190.1C345.7,187.6 344.1,185.2 344.3,184.6C344.5,184.0 345.5,183.3 346.4,183.2C347.4,183.0 351.7,184.5 355.9,186.6C360.1,188.6 364.8,191.2 366.3,192.3C367.9,193.3 369.3,194.0 369.6,193.7C369.9,193.5 368.7,190.8 366.9,187.9C365.2,184.9 363.0,181.5 362.0,180.3C361.1,179.1 357.3,175.6 353.7,172.5C350.0,169.3 347.0,166.1 347.0,165.3C347.0,164.1 347.9,164.0 351.2,164.5C353.6,164.9 358.5,166.5 362.2,168.0C367.9,170.4 369.0,170.6 369.0,169.2C369.0,168.3 365.0,163.8 360.2,159.1C355.3,154.4 349.4,148.8 346.9,146.7C342.5,142.9 342.5,142.9 348.1,143.4C351.1,143.7 356.2,144.9 359.5,146.0C362.7,147.1 365.7,148.0 366.2,148.0C366.6,148.0 367.0,147.6 367.0,147.1C367.0,146.7 365.8,145.0 364.4,143.4C363.0,141.8 359.5,138.1 356.7,135.2C352.8,131.2 348.9,128.6 341.5,125.0C336.0,122.4 329.0,119.5 326.0,118.6C323.0,117.7 316.4,116.7 311.4,116.3C305.2,115.9 301.1,116.1 298.5,117.0C296.2,117.8 291.7,121.1 287.5,124.9C283.7,128.6 278.9,132.8 277.0,134.2C275.0,135.7 271.3,137.5 268.7,138.1C266.1,138.8 264.0,139.7 264.0,140.1C264.0,140.5 265.5,141.5 267.2,142.3C269.0,143.2 273.4,144.2 276.9,144.6C283.4,145.3 283.4,145.3 274.9,149.5C270.3,151.9 263.8,154.6 260.5,155.6C256.8,156.8 253.2,158.8 250.8,161.1C248.5,163.2 247.2,165.3 247.5,166.2C247.8,167.0 251.2,168.3 255.8,169.2C260.0,170.1 270.9,172.5 279.9,174.4C290.0,176.6 298.4,179.0 301.8,180.7C304.8,182.2 308.7,185.2 310.6,187.4C312.5,189.6 314.0,192.0 314.0,192.7C314.0,193.4 313.7,194.0 313.2,194.0C312.8,194.0 309.2,192.6 305.1,190.9C301.1,189.2 297.6,188.0 297.4,188.3C297.2,188.5 297.8,189.8 298.8,191.1C299.9,192.4 301.6,195.3 302.7,197.5C303.8,199.7 305.1,203.0 305.5,204.8C305.8,206.5 305.8,208.0 305.5,208.0C305.1,208.0 301.4,205.7 297.3,203.0C293.1,200.2 289.6,198.1 289.4,198.3C289.1,198.5 289.7,200.6 290.5,203.0C291.3,205.3 292.0,208.9 292.0,210.9C292.0,212.9 291.6,215.1 291.1,215.9C290.4,217.0 289.6,216.4 287.7,213.4C286.4,211.2 282.7,207.3 279.5,204.5C273.7,199.6 273.7,199.6 274.4,202.5C274.7,204.2 275.3,208.2 275.7,211.5C276.3,217.4 276.3,217.4 273.7,215.7C272.3,214.8 270.9,214.0 270.7,214.0C270.4,214.0 270.0,216.3 269.6,219.0C269.2,221.8 268.5,225.2 267.9,226.6C267.1,228.8 266.7,229.0 265.5,228.0C264.7,227.3 264.0,226.2 264.0,225.6C264.0,225.0 262.9,222.1 261.5,219.3C260.2,216.4 258.4,214.0 257.6,214.0C256.7,214.0 255.8,215.8 255.1,219.2C254.5,222.0 253.0,226.4 251.9,228.9C250.8,231.3 248.8,234.9 247.4,236.7C246.0,238.5 244.4,239.8 243.9,239.5C243.4,239.1 243.0,235.9 243.0,232.2C243.0,228.5 242.4,223.2 241.7,220.5C240.9,217.6 239.8,215.5 239.0,215.5C238.3,215.5 237.2,216.8 236.7,218.5C236.2,220.2 233.8,225.6 231.3,230.5C228.9,235.4 224.5,243.6 221.5,248.5C218.5,253.4 214.9,260.4 213.5,264.0C212.1,267.6 210.7,272.6 210.4,275.2C210.0,277.9 210.1,280.0 210.5,280.0C210.9,280.0 215.7,275.9 221.1,270.9C226.6,265.8 231.3,262.0 231.6,262.3C231.9,262.6 231.6,265.5 231.0,268.9C230.4,272.3 230.2,276.5 230.6,278.4C231.0,280.9 231.6,281.7 232.6,281.3C233.4,281.0 235.5,278.7 237.2,276.2C240.4,271.6 240.4,271.6 241.3,274.3C242.0,276.4 241.6,278.2 239.7,282.2C238.4,285.1 235.0,290.0 232.2,293.0C228.7,296.8 226.8,298.2 226.1,297.5C225.5,296.9 224.5,293.0 223.9,288.7C223.1,283.4 222.3,281.0 221.4,281.0C220.6,281.0 218.0,283.6 215.6,286.7C212.8,290.3 210.7,294.2 209.9,297.4C209.3,300.1 208.7,304.7 208.7,307.5C208.7,310.4 209.9,316.1 211.4,320.6C212.8,324.9 214.4,329.1 214.9,329.9C215.4,330.6 216.2,331.0 216.8,330.6C217.4,330.3 219.4,326.7 221.3,322.7C223.2,318.7 225.4,314.9 226.3,314.2C227.6,313.1 227.9,313.3 228.4,315.7C228.8,317.2 229.4,322.0 229.9,326.3C230.4,330.6 231.1,334.4 231.5,334.8C231.9,335.2 233.6,333.9 235.3,331.9C237.1,329.9 240.8,325.5 243.5,322.2C247.8,317.0 248.5,316.4 248.8,318.3C249.0,319.5 250.2,325.9 251.5,332.5C252.8,339.3 255.7,349.1 258.0,355.0C260.3,360.8 264.7,369.7 267.7,374.8C270.8,380.0 275.5,386.6 278.3,389.6C281.0,392.6 283.5,394.8 283.8,394.6C284.1,394.3 283.6,391.5 282.7,388.3C281.8,385.1 280.8,380.0 280.4,377.0C279.7,372.0 279.8,371.6 281.3,372.8C282.2,373.6 284.4,376.5 286.2,379.3C288.0,382.2 292.3,388.3 295.9,393.0C299.4,397.7 303.2,402.6 304.4,403.9C305.6,405.2 310.9,409.8 316.4,414.2C321.8,418.6 330.2,424.8 335.1,428.1C340.0,431.4 347.8,435.8 352.4,438.0C356.9,440.1 366.3,443.5 373.3,445.5C380.2,447.4 386.1,449.0 386.4,449.0C386.7,449.0 387.0,448.6 387.0,448.1C387.0,447.6 382.6,443.9 377.2,439.9C371.9,435.9 363.9,429.2 359.5,425.0C351.9,417.9 350.9,417.3 342.5,414.8C337.5,413.3 331.6,410.7 329.3,409.1C327.0,407.4 324.6,405.1 324.0,404.0C323.4,402.9 323.3,402.0 323.7,402.0C324.1,402.0 327.3,402.9 330.7,404.0C334.1,405.0 340.3,406.2 344.4,406.6C348.6,407.0 352.0,407.1 352.0,406.8C352.0,406.5 349.6,404.7 346.8,402.8C343.9,400.9 339.1,397.2 336.1,394.7C333.2,392.2 327.8,388.9 324.1,387.4C320.5,386.0 313.9,383.1 309.5,381.0C305.1,379.0 299.0,375.2 295.9,372.6C292.8,370.0 288.0,364.6 285.2,360.5C282.5,356.4 279.2,350.0 277.9,346.3C276.5,342.0 275.6,337.0 275.6,332.6C275.5,328.3 275.9,325.5 276.6,325.3C277.2,325.1 280.0,329.6 282.8,335.2C285.6,340.9 289.7,348.0 292.0,351.0C294.2,354.0 298.8,359.3 302.1,362.7C305.4,366.2 310.1,370.2 312.6,371.6C315.1,373.1 317.4,373.9 317.8,373.6C318.2,373.2 317.4,371.0 316.1,368.7C314.8,366.4 312.1,361.4 310.0,357.5C307.9,353.6 305.9,349.3 305.6,347.8C305.2,346.2 305.4,345.0 305.9,345.0C306.4,345.0 309.9,347.5 313.7,350.5C317.4,353.5 322.8,357.2 325.7,358.7C328.5,360.2 331.2,361.2 331.5,360.8C331.9,360.5 331.0,358.0 329.7,355.3C328.4,352.7 326.3,347.6 325.2,344.0C324.0,340.4 322.4,333.2 321.5,328.0C320.7,322.8 320.0,316.5 320.0,314.0C320.0,311.5 320.7,306.7 321.5,303.2C322.3,299.7 324.5,293.6 326.4,289.6C328.6,284.6 331.9,280.0 336.5,275.1C340.3,271.1 346.3,266.1 349.9,264.0C353.5,261.8 359.2,259.4 362.5,258.5C365.7,257.7 371.7,257.0 375.7,257.0C379.7,257.0 387.4,257.7 392.8,258.5C398.2,259.3 406.4,261.0 411.0,262.4C415.7,263.7 422.4,265.2 426.0,265.8C429.6,266.4 435.4,267.2 439.0,267.5C442.6,267.9 448.5,268.8 452.3,269.6C456.0,270.4 460.8,271.9 463.0,273.0C465.1,274.1 467.1,275.4 467.5,276.0C467.9,276.6 464.9,277.0 458.8,277.0C453.7,277.0 444.8,276.3 439.0,275.5C433.2,274.7 425.1,273.1 421.0,272.0C416.9,270.8 409.4,268.8 404.4,267.5C399.5,266.2 390.9,264.6 385.4,263.9C376.8,262.9 374.2,263.0 367.7,264.3C363.4,265.2 357.9,266.9 355.3,268.2C352.8,269.5 348.5,272.4 345.9,274.7C343.3,277.1 339.8,281.2 338.0,284.0C336.3,286.7 334.0,291.8 332.9,295.2C331.8,299.0 331.0,304.5 331.0,309.0C331.0,313.1 331.7,319.4 332.6,323.0C333.4,326.6 335.2,333.1 336.6,337.5C338.0,341.9 342.2,351.8 345.9,359.5C349.7,367.2 355.4,377.1 358.5,381.5C361.7,385.9 365.3,391.1 366.5,393.0C367.8,394.9 375.3,403.7 383.1,412.6C391.0,421.4 401.1,432.8 405.5,437.9C409.9,443.0 418.7,451.7 425.0,457.2C431.3,462.7 439.9,469.6 444.0,472.5C448.1,475.4 455.7,479.9 460.8,482.4C466.0,485.0 470.9,486.9 471.8,486.7C473.0,486.4 467.6,480.4 453.4,466.4C442.4,455.5 431.4,443.9 428.9,440.6C426.5,437.4 422.8,432.0 420.8,428.5C418.8,425.0 416.8,421.0 416.4,419.6C415.9,417.7 416.2,417.0 417.3,417.0C418.1,417.0 421.7,420.3 425.2,424.2C428.8,428.2 433.7,434.2 436.2,437.5C438.7,440.8 445.8,448.9 452.1,455.5C458.3,462.1 467.4,471.5 472.3,476.3C477.2,481.1 484.1,487.5 487.5,490.5C491.5,494.0 497.4,497.7 504.1,500.9C509.8,503.6 516.9,506.3 519.8,506.8C522.6,507.3 525.0,507.4 525.0,506.9C525.0,506.5 516.3,498.1 505.8,488.2C495.2,478.3 483.3,466.9 479.4,462.8C475.5,458.8 469.2,451.7 465.5,447.0C461.8,442.4 457.1,436.1 455.1,433.0C453.2,430.0 450.6,425.0 449.3,422.0C448.1,419.0 447.0,415.4 447.0,414.1C447.0,411.6 447.1,411.7 450.6,415.1C452.6,416.9 456.3,421.4 458.8,425.0C461.3,428.6 467.5,436.7 472.6,443.0C477.6,449.3 491.8,464.4 504.2,476.5C516.5,488.6 529.9,501.5 534.1,505.2C538.2,508.9 544.7,513.7 548.6,516.0C552.4,518.2 558.5,521.0 562.2,522.1C565.9,523.3 569.4,524.0 570.0,523.8C570.6,523.6 567.6,520.0 563.3,515.9C559.0,511.7 553.0,506.1 550.0,503.4C547.0,500.6 542.0,496.4 539.0,494.0C536.0,491.5 529.2,485.4 523.9,480.5C518.6,475.6 511.2,467.9 507.4,463.5C503.6,459.1 497.5,451.1 493.8,445.8C490.1,440.5 485.7,433.7 484.1,430.8C482.4,427.9 480.4,423.6 479.6,421.2C478.8,418.9 478.3,417.0 478.6,417.0C478.9,417.0 480.0,417.4 481.0,418.0C482.0,418.5 486.5,424.0 491.1,430.2C495.6,436.4 502.1,444.9 505.4,449.0C508.7,453.1 513.7,459.0 516.4,462.0C519.2,465.0 528.9,474.8 538.0,483.8C547.1,492.8 560.1,505.2 567.0,511.4C573.9,517.5 581.0,523.8 582.8,525.2C584.6,526.7 590.8,529.5 596.9,531.4C602.9,533.4 609.7,535.2 612.0,535.6C615.7,536.2 616.2,536.1 615.9,534.5C615.7,533.5 609.4,528.4 602.0,523.3C594.6,518.1 583.7,509.8 577.7,504.9C571.8,499.9 563.2,491.7 558.5,486.6C553.9,481.6 546.1,472.5 541.3,466.3C536.5,460.2 529.4,450.3 525.7,444.3C521.9,438.4 517.5,430.4 515.9,426.6C514.3,422.8 513.2,419.5 513.4,419.3C513.6,419.1 516.0,421.4 518.8,424.4C521.5,427.5 529.5,437.4 536.5,446.5C543.5,455.6 554.9,469.4 561.9,477.3C568.9,485.1 579.1,495.8 584.6,501.1C590.0,506.4 597.3,513.2 600.8,516.1C604.3,519.1 610.8,524.3 615.3,527.7C619.8,531.2 625.0,534.7 626.9,535.6C628.8,536.5 633.5,537.8 637.4,538.5C641.3,539.2 644.6,539.9 644.8,539.9zM390.3,523.0C389.3,522.9 386.6,522.0 384.2,520.8C381.9,519.7 378.0,516.5 375.5,513.8C373.0,511.0 371.0,508.2 371.0,507.4C371.0,506.6 371.3,506.0 371.6,506.0C371.9,506.0 374.2,507.4 376.8,509.2C379.4,510.9 383.4,513.8 385.8,515.7C388.1,517.6 390.5,520.0 391.0,521.1C391.9,522.6 391.7,523.0 390.3,523.0zM331.8,487.9C330.5,487.9 327.7,487.2 325.5,486.4C323.3,485.6 319.0,483.2 316.0,481.2C313.0,479.1 307.4,473.6 303.6,468.9C299.8,464.3 295.4,457.6 293.8,454.1C292.2,450.6 291.0,447.6 291.2,447.5C291.4,447.3 295.3,450.7 300.0,455.2C304.7,459.6 314.2,468.3 321.2,474.6C328.3,481.0 334.0,486.5 334.0,487.1C334.0,487.6 333.0,488.0 331.8,487.9zM531.8,365.9C527.2,365.8 521.8,365.4 519.7,364.9C517.6,364.4 514.5,363.3 512.7,362.4C510.9,361.5 507.6,358.9 505.3,356.7C502.9,354.4 500.5,351.1 499.9,349.2C499.3,347.4 499.0,345.6 499.3,345.3C499.6,345.0 501.8,346.1 504.2,347.8C506.6,349.4 510.8,351.9 513.6,353.3C516.4,354.7 521.7,356.4 525.4,357.1C529.1,357.7 532.3,358.1 532.5,357.9C532.7,357.7 530.6,354.1 527.9,350.0C525.2,345.9 522.7,341.5 522.4,340.2C522.0,338.9 522.0,337.6 522.3,337.3C522.7,337.0 525.7,339.2 529.1,342.1C532.6,345.1 537.8,350.4 540.7,353.9C543.6,357.5 546.0,361.0 546.0,361.7C546.0,362.4 544.7,363.6 543.0,364.5C541.0,365.5 537.5,366.0 531.8,365.9zM422.3,357.0C421.9,357.0 419.8,355.6 417.7,353.9C415.7,352.2 412.9,349.0 411.6,346.7C410.2,344.4 408.8,340.7 408.4,338.5C407.7,334.8 407.8,334.6 409.4,335.9C410.3,336.7 413.5,341.1 416.6,345.6C419.6,350.2 422.3,354.7 422.6,355.5C423.0,356.3 422.8,357.0 422.3,357.0zM473.2,331.9C466.5,331.9 461.9,331.3 458.3,330.0C455.4,329.0 451.1,326.8 448.7,325.1C446.3,323.5 442.9,320.5 441.2,318.5C439.4,316.5 436.9,312.7 435.5,310.0C434.1,307.3 433.0,304.4 433.0,303.5C433.0,302.7 433.3,302.0 433.6,302.0C433.9,302.0 437.6,305.2 441.8,309.1C446.6,313.5 452.1,317.4 456.5,319.5C460.4,321.4 464.5,323.2 465.8,323.5C467.0,323.9 468.0,323.7 468.0,323.1C468.0,322.6 466.6,319.9 465.0,317.3C463.3,314.6 461.7,310.6 461.4,308.4C460.8,304.5 460.8,304.5 467.8,311.6C471.6,315.5 476.5,321.0 478.8,323.9C481.1,326.8 483.0,329.8 483.0,330.6C483.0,331.7 481.0,332.0 473.2,331.9zM520.5,330.9C519.4,330.8 516.1,330.4 513.2,329.9C510.3,329.4 506.1,328.1 503.9,326.9C501.6,325.8 497.9,323.1 495.5,320.9C493.0,318.6 490.1,314.5 488.5,310.9C487.0,307.6 486.0,304.6 486.3,304.3C486.6,304.1 487.7,304.3 488.9,304.9C490.0,305.5 493.4,308.2 496.4,310.8C499.4,313.5 504.3,316.8 507.2,318.2C510.1,319.6 514.2,321.1 516.2,321.5C518.8,322.0 520.0,321.9 520.0,321.1C520.0,320.5 518.6,317.2 516.9,313.9C515.3,310.6 514.1,307.3 514.3,306.7C514.6,306.0 517.9,308.7 521.8,312.6C525.7,316.5 529.8,321.3 530.9,323.1C532.1,325.0 533.0,327.2 533.0,328.1C533.0,329.3 531.7,329.9 527.8,330.4C524.9,330.7 521.6,330.9 520.5,330.9zM431.0,326.7C428.5,326.8 424.5,326.4 422.0,325.9C419.6,325.4 415.2,323.9 412.3,322.5C409.4,321.0 405.1,317.9 402.6,315.6C400.2,313.2 397.5,310.0 396.7,308.4C395.9,306.8 394.9,304.0 394.5,302.2C393.8,298.9 393.9,298.9 396.1,300.1C397.4,300.7 401.3,303.7 404.9,306.7C408.6,309.8 415.7,314.1 421.0,316.6C426.2,319.1 431.6,321.7 433.0,322.5C434.4,323.2 435.5,324.5 435.5,325.2C435.5,326.1 434.0,326.6 431.0,326.7zM249.7,294.5C246.2,298.5 246.2,298.5 245.1,295.7C244.5,294.1 244.3,291.7 244.6,290.4C245.0,289.0 247.6,284.0 250.5,279.2C253.4,274.4 257.6,265.7 260.0,259.8C262.4,253.8 264.7,249.0 265.1,249.0C265.6,249.0 266.0,249.8 266.0,250.8C266.0,251.7 267.3,255.2 268.8,258.5C270.9,262.9 273.6,266.2 278.9,270.9C282.9,274.4 287.0,279.0 288.1,281.1C289.1,283.2 290.0,285.4 290.0,286.0C290.0,286.5 288.5,287.0 286.7,287.0C284.8,287.0 281.5,285.8 278.9,284.2C276.5,282.6 272.3,278.7 269.6,275.5C264.6,269.7 264.6,269.7 263.3,273.4C262.6,275.5 260.1,280.2 257.6,283.8C255.2,287.5 251.6,292.3 249.7,294.5zM311.2,288.0C310.8,288.0 307.2,286.2 303.1,284.0C299.1,281.9 294.6,279.1 293.3,277.8C291.9,276.5 290.2,274.4 289.5,273.0C288.8,271.6 288.0,268.4 287.6,265.9C287.2,263.4 287.2,260.6 287.6,259.6C288.1,258.2 289.1,258.9 293.2,263.4C295.9,266.5 299.5,269.9 301.1,271.1C302.8,272.3 304.4,273.0 304.7,272.7C304.9,272.4 303.6,266.5 301.6,259.6C299.6,252.7 298.0,245.5 298.0,243.5C298.0,241.6 298.4,240.0 299.0,240.0C299.6,240.0 300.0,240.4 300.0,241.0C300.0,241.5 302.8,244.9 306.2,248.5C309.6,252.2 314.5,256.2 317.2,257.6C319.8,258.9 322.8,260.0 324.0,260.0C325.1,260.0 326.0,259.4 326.0,258.6C326.0,257.9 325.3,256.7 324.4,256.0C323.6,255.2 321.7,252.7 320.3,250.3C318.9,247.9 318.0,245.7 318.2,245.4C318.5,245.1 321.1,245.8 323.9,247.0C326.7,248.1 330.0,249.0 331.2,249.0C333.0,249.0 332.8,248.6 329.6,245.0C327.5,242.6 326.0,240.0 326.0,238.5C326.0,237.1 326.2,236.0 326.5,236.0C326.8,236.0 330.5,238.0 334.8,240.4C339.0,242.8 345.1,245.6 348.3,246.5C351.5,247.4 353.8,248.5 353.5,249.1C353.1,249.6 350.2,251.4 347.0,253.0C343.8,254.6 337.8,258.7 333.6,262.0C329.5,265.4 324.1,270.5 321.7,273.3C319.3,276.2 316.1,280.6 314.6,283.2C313.1,285.9 311.6,288.0 311.2,288.0zM164.5,164.9C166.2,159.7 168.4,154.2 169.3,152.5C170.2,150.8 172.6,147.7 174.5,145.5C178.0,141.5 178.0,141.5 177.3,144.9C176.8,147.6 177.1,148.6 178.5,149.7C179.7,150.5 183.2,151.0 187.9,151.0C192.1,151.0 199.3,150.1 204.0,148.9C208.7,147.8 216.1,146.6 220.5,146.3C224.9,146.0 233.2,146.3 239.0,146.8C244.8,147.4 252.2,148.2 255.4,148.6C259.5,149.1 261.1,149.0 260.6,148.2C260.3,147.6 256.0,146.3 251.2,145.2C246.4,144.0 239.2,142.7 235.2,142.1C231.3,141.5 226.1,140.2 223.7,139.3C221.4,138.4 219.1,137.3 218.6,136.9C218.1,136.4 217.6,131.2 217.6,125.3C217.5,116.9 217.1,113.7 215.7,110.8C214.6,108.6 211.9,105.8 209.1,104.0C206.0,102.1 203.0,101.0 200.7,101.0C198.7,101.0 195.8,101.5 194.3,102.2C192.8,102.9 188.5,105.1 184.8,107.3C181.2,109.4 175.5,113.9 172.1,117.3C168.8,120.7 164.5,126.1 162.6,129.2C160.7,132.4 158.7,136.4 158.1,138.2C157.6,140.0 156.8,144.0 156.5,147.0C156.1,150.1 156.3,155.5 156.9,159.0C157.6,162.6 158.8,167.5 159.7,169.9C161.3,174.3 161.3,174.3 164.5,164.9zM197.5,161.6C203.6,161.2 215.8,160.7 224.7,160.3C237.9,159.8 241.6,159.3 244.0,157.9C245.6,156.9 247.0,155.4 247.0,154.7C247.0,153.7 245.2,153.1 241.8,152.6C238.9,152.3 231.1,152.0 224.4,152.0C216.6,152.0 210.7,152.5 207.9,153.4C205.5,154.2 199.7,156.5 195.0,158.5C186.5,162.1 186.5,162.1 197.5,161.6zM202.5,132.0C201.7,132.0 200.4,130.7 199.5,129.0C198.3,126.7 197.3,126.0 195.0,126.0C192.9,126.0 191.9,125.4 191.4,123.8C190.9,122.1 191.5,120.9 194.4,118.3C196.3,116.5 198.5,115.0 199.3,115.0C200.0,115.0 202.2,116.4 204.3,118.1C206.5,119.9 208.0,122.0 208.0,123.3C208.0,124.5 207.1,127.0 206.0,128.8C204.9,130.5 203.4,132.0 202.5,132.0zM262.5,129.6C265.8,129.3 270.2,128.5 272.3,127.8C274.4,127.0 277.8,124.8 279.9,122.7C282.0,120.6 284.4,117.5 285.1,115.8C286.3,112.8 286.2,112.6 283.0,109.9C281.1,108.3 279.5,107.2 279.3,107.4C279.1,107.6 279.4,108.9 280.1,110.3C280.7,111.7 281.0,114.0 280.6,115.5C280.2,117.1 278.0,119.3 274.5,121.5C271.5,123.5 267.8,125.5 266.3,126.0C263.9,126.8 263.8,126.8 265.5,125.7C266.6,125.1 268.9,123.1 270.7,121.3C273.0,119.2 274.0,117.3 274.0,115.3C274.0,113.6 273.1,111.5 272.0,110.5C270.9,109.5 270.0,107.9 270.0,106.9C270.0,105.9 269.1,104.6 267.9,104.0C266.3,103.1 265.3,103.2 263.4,104.5C262.1,105.3 261.0,106.9 261.0,107.9C261.0,108.9 261.7,110.3 262.5,111.0C263.4,111.8 265.2,112.0 267.1,111.6C270.1,111.0 270.2,111.1 269.5,113.8C269.2,115.3 267.9,118.0 266.8,119.8C265.7,121.7 263.6,123.6 262.2,124.1C260.3,124.9 258.5,124.7 255.4,123.5C253.1,122.6 250.5,121.1 249.6,120.1C248.7,119.2 247.4,116.6 246.7,114.5C245.4,110.7 245.4,110.7 243.1,116.0C240.8,121.3 240.8,121.3 243.3,123.8C244.7,125.1 248.2,127.1 251.1,128.1C255.0,129.5 258.1,129.9 262.5,129.6zM361.8,124.9C361.9,125.0 362.0,124.6 362.0,124.1C362.0,123.7 360.2,121.1 358.1,118.4C355.9,115.7 349.6,109.7 344.1,105.0C338.6,100.3 334.3,96.4 334.4,96.2C334.6,96.1 337.9,96.7 341.8,97.7C345.8,98.6 349.3,99.1 349.7,98.7C350.1,98.3 348.6,96.1 346.4,93.9C344.3,91.6 339.7,87.8 336.2,85.3C332.8,82.8 325.3,78.8 319.7,76.4C313.9,74.0 304.7,71.2 298.9,70.0C291.6,68.5 284.7,67.8 275.5,67.8C267.6,67.8 258.7,68.4 252.7,69.5C247.3,70.4 238.4,72.7 232.9,74.5C227.3,76.4 219.8,79.6 216.2,81.6C212.5,83.7 208.0,86.9 206.2,88.9C204.5,90.8 203.0,93.1 203.0,94.0C203.0,94.9 203.5,96.1 204.2,96.8C204.9,97.5 206.1,98.0 207.0,98.0C207.9,98.0 210.3,97.1 212.5,96.0C214.7,94.9 216.5,94.0 216.5,94.0C216.6,94.0 216.6,95.6 216.6,97.5C216.6,99.4 217.3,101.7 218.1,102.5C219.5,103.9 220.0,103.7 223.5,101.0C225.9,99.1 228.0,98.2 228.9,98.6C229.8,98.9 231.3,99.4 232.2,99.7C233.1,100.0 236.3,99.5 239.2,98.7C242.1,97.8 249.4,96.6 255.5,95.9C261.6,95.3 270.4,94.5 275.1,94.3C281.3,93.9 284.6,94.2 287.3,95.3C289.2,96.2 293.3,98.6 296.2,100.8C299.1,102.9 302.4,105.2 303.5,105.8C304.7,106.4 311.0,108.0 317.5,109.5C324.2,111.0 331.5,113.3 334.0,114.7C336.5,116.1 343.7,119.0 350.0,121.0C356.3,123.1 361.6,124.9 361.8,124.9z" />

</svg>