<?xml version="1.0" encoding="UTF-8" standalone="no"?>
<svg 
  version="1.1" 
  xmlns="http://www.w3.org/2000/svg" 
  xmlns:xlink="http://www.w3.org/1999/xlink" 
  xmlns:svg="http://www.w3.org/2000/svg"
  xmlns:rdf="http://www.w3.org/1999/02/22-rdf-syntax-ns#"
  xmlns:cc="http://creativecommons.org/ns#"
  xmlns:dc="http://purl.org/dc/elements/1.1/"
  viewBox="0 0 768 768"
  width="768"
  height="768"
>
<style>svg {background-color: white; }</style>"
<metadata id="metadata1">
Created by https://svgstud.io and licensed under CC-BY-SA 4.0 license. Please attribute https://svgstud.io
</metadata>
<metadata id="prompt">
group of different plants
</metadata>
<metadata id="version">
7
</metadata>
<metadata id="metadata2">
<rdf:RDF>
<cc:Work
    rdf:about="">
    <cc:license
    rdf:resource="http://creativecommons.org/licenses/by-sa/4.0/" />
    <dc:creator>
        <cc:Agent>
            <dc:title>https://svgstud.io</dc:title>
        </cc:Agent>
    </dc:creator>
</cc:Work>
<cc:License
    rdf:about="http://creativecommons.org/licenses/by-sa/4.0/">
    <cc:permits
    rdf:resource="http://creativecommons.org/ns#Reproduction" />
    <cc:permits
    rdf:resource="http://creativecommons.org/ns#Distribution" />
    <cc:requires
    rdf:resource="http://creativecommons.org/ns#Notice" />
    <cc:requires
    rdf:resource="http://creativecommons.org/ns#Attribution" />
    <cc:permits
    rdf:resource="http://creativecommons.org/ns#DerivativeWorks" />
    <cc:requires
    rdf:resource="http://creativecommons.org/ns#ShareAlike" />
</cc:License>
</rdf:RDF>
</metadata>
<metadata id="uid">
8a38beb0ae81c651c4b060cb57bc00254220a1e319a2debaf8fb97797118f184
</metadata>
<path stroke="none" fill="black" fill-rule="evenodd" d="M245.17,718.50C239.85,718.72 234.82,718.74 234.00,718.54C233.18,718.34 229.26,717.65 225.31,717.01C221.35,716.37 217.63,715.26 217.04,714.55C216.45,713.84 216.24,712.54 216.57,711.68C216.90,710.81 218.71,709.59 220.59,708.97C222.47,708.35 225.29,708.13 226.87,708.47C228.54,708.84 232.98,708.25 237.55,707.05C241.86,705.92 247.20,705.01 249.44,705.02C251.67,705.03 255.38,705.90 257.67,706.94C259.96,707.98 262.29,709.68 262.85,710.72C263.41,711.76 263.54,713.13 263.15,713.77C262.75,714.40 260.72,715.64 258.64,716.51C256.41,717.44 250.84,718.26 245.17,718.50zM350.50,718.23C342.25,718.46 328.98,718.36 321.00,718.02C313.02,717.68 305.60,716.90 304.50,716.29C303.40,715.68 301.40,714.00 300.05,712.56C297.63,709.97 297.45,709.95 287.92,710.60C282.60,710.97 276.68,710.97 274.76,710.62C272.67,710.22 268.06,707.43 263.24,703.63C258.82,700.15 253.40,696.58 251.20,695.70C249.00,694.82 242.56,693.62 236.89,693.04C231.22,692.45 226.27,691.65 225.89,691.24C225.51,690.83 225.03,689.60 224.84,688.50C224.59,687.08 223.23,686.20 220.18,685.46C217.81,684.89 215.57,683.94 215.19,683.36C214.80,682.76 208.50,682.01 200.50,681.63C192.80,681.26 183.57,680.55 180.00,680.04C176.43,679.54 164.05,678.40 152.50,677.51C140.95,676.62 130.04,675.67 128.25,675.40C126.46,675.13 125.00,674.52 125.00,674.04C125.00,673.56 127.73,670.89 131.07,668.10C134.41,665.31 139.71,661.23 142.85,659.03C145.99,656.82 149.36,653.67 150.34,652.01C151.31,650.35 151.84,648.55 151.50,648.00C151.14,647.42 145.71,647.00 138.69,646.99C131.99,646.99 123.58,646.52 120.00,645.96C116.42,645.40 109.90,643.76 105.50,642.33C101.10,640.90 92.57,637.49 86.55,634.76C80.53,632.03 69.73,627.82 62.55,625.41C55.37,623.00 48.52,621.02 47.33,621.01C46.14,621.01 44.45,620.73 43.58,620.39C42.71,620.06 42.00,619.22 42.00,618.52C42.00,617.82 45.30,614.12 49.33,610.29C53.36,606.47 58.79,601.87 61.39,600.08C63.99,598.28 68.94,595.54 72.37,593.99C75.81,592.43 81.29,590.49 84.56,589.67C87.83,588.85 92.97,587.90 96.00,587.56C99.03,587.21 104.65,587.38 108.50,587.93C112.35,588.49 117.83,589.64 120.67,590.49C123.52,591.34 129.00,594.15 132.85,596.75C136.71,599.35 139.77,601.56 139.66,601.67C139.55,601.78 134.88,600.35 129.27,598.50C123.67,596.64 116.38,594.58 113.06,593.93C109.50,593.23 102.43,592.94 95.77,593.21C86.34,593.61 83.28,594.17 77.00,596.64C72.88,598.27 66.01,601.95 61.75,604.83C57.49,607.71 54.00,610.23 54.00,610.44C54.00,610.64 54.79,610.65 55.75,610.45C56.71,610.25 60.74,609.39 64.70,608.54C68.66,607.69 73.51,607.00 75.48,607.00C78.76,607.00 78.98,607.17 78.00,609.00C77.41,610.10 77.12,611.00 77.34,611.00C77.57,611.00 79.50,610.27 81.63,609.37C84.78,608.05 87.84,607.85 98.00,608.28C104.88,608.57 111.30,609.13 112.28,609.52C113.68,610.08 112.51,611.14 106.78,614.51C102.78,616.86 98.41,619.96 97.08,621.39C95.74,622.83 95.06,624.00 95.57,624.00C96.07,624.00 99.79,622.36 103.84,620.37C107.88,618.37 113.06,616.54 115.34,616.31C117.63,616.07 124.45,616.85 130.50,618.02C136.55,619.20 145.10,620.83 149.50,621.65C153.90,622.47 159.97,624.03 163.00,625.12C166.02,626.20 169.29,627.35 170.25,627.66C171.35,628.02 172.00,627.72 172.00,626.84C172.00,626.08 168.74,622.26 164.75,618.37C160.76,614.47 154.35,608.82 150.50,605.81C146.65,602.80 139.22,597.38 134.00,593.78C128.78,590.18 120.67,584.99 116.00,582.25C111.33,579.51 101.52,574.24 94.21,570.54C86.90,566.84 77.45,561.22 73.21,558.05C68.97,554.89 62.69,549.35 59.25,545.74C55.81,542.13 53.00,538.68 53.00,538.09C53.00,537.49 54.33,537.00 55.96,537.00C57.59,537.00 65.35,539.10 73.21,541.67C85.85,545.80 88.03,546.85 92.13,550.77C95.01,553.52 97.02,554.78 97.44,554.09C97.83,553.46 99.27,553.26 100.81,553.61C102.29,553.95 105.81,555.50 108.63,557.05C111.45,558.61 114.61,559.65 115.65,559.38C116.74,559.10 121.38,560.83 126.52,563.44C131.46,565.94 135.84,567.99 136.25,567.99C136.66,568.00 137.00,567.48 137.00,566.85C137.00,566.22 135.51,563.86 133.68,561.60C131.85,559.35 130.03,556.94 129.63,556.26C129.13,555.41 129.40,555.22 130.50,555.64C131.38,555.97 133.80,558.78 135.89,561.88C137.97,564.97 141.61,570.88 143.98,575.00C146.35,579.12 150.29,585.34 152.74,588.82C155.19,592.29 157.42,594.92 157.68,594.65C157.95,594.38 155.65,588.57 152.58,581.73C149.51,574.89 147.00,568.53 147.00,567.59C147.00,566.01 147.22,566.02 150.10,567.69C151.80,568.69 154.08,570.74 155.16,572.25C156.25,573.76 157.60,575.00 158.18,575.00C158.79,575.00 158.96,573.97 158.59,572.50C158.24,571.12 158.38,570.00 158.90,570.00C159.42,570.00 162.69,573.12 166.17,576.94C169.65,580.75 176.03,589.75 180.35,596.94C184.67,604.12 188.60,610.00 189.10,610.00C189.59,610.00 189.99,607.86 189.98,605.25C189.96,602.64 188.93,598.02 187.69,595.00C186.44,591.98 183.51,586.69 181.18,583.25C178.84,579.82 173.01,573.06 168.22,568.23C163.42,563.41 155.95,557.08 151.60,554.19C147.26,551.29 140.01,547.12 135.49,544.94C130.97,542.75 122.15,539.66 115.89,538.06C107.87,536.02 105.57,535.13 108.11,535.08C110.10,535.04 114.11,535.45 117.03,536.00C119.94,536.56 122.50,536.83 122.73,536.61C122.95,536.39 121.29,532.56 119.05,528.10C116.81,523.65 115.28,520.00 115.66,520.00C116.04,520.00 117.05,520.64 117.92,521.43C118.79,522.21 123.09,524.68 127.47,526.93C131.86,529.17 136.31,531.00 137.36,531.00C139.07,531.00 139.02,530.81 136.88,529.16C135.57,528.15 131.57,525.72 128.00,523.77C124.42,521.82 119.83,519.69 117.78,519.04C115.58,518.35 112.88,516.36 111.18,514.18C109.59,512.16 107.70,509.39 106.99,508.02C106.27,506.66 105.34,504.19 104.91,502.52C104.48,500.86 103.83,498.49 103.45,497.25C102.81,495.16 103.07,495.00 107.08,495.00C109.84,495.00 111.05,494.65 110.44,494.04C109.91,493.51 103.83,491.77 96.93,490.18C87.00,487.88 83.21,486.49 78.76,483.54C75.67,481.49 72.89,479.16 72.59,478.37C72.28,477.57 72.73,476.66 73.58,476.33C74.43,476.00 78.14,476.04 81.81,476.41C85.49,476.79 91.20,477.78 94.50,478.61C97.80,479.45 104.10,481.86 108.51,483.98C113.58,486.41 119.00,490.10 123.29,494.03C127.02,497.44 133.35,504.12 137.37,508.87C141.39,513.62 147.62,521.77 151.22,527.00C154.82,532.23 159.57,540.10 161.77,544.50C163.97,548.90 166.68,553.62 167.80,555.00C168.92,556.38 170.16,557.17 170.57,556.76C170.97,556.36 170.50,553.05 169.51,549.40C168.52,545.75 165.82,538.89 163.50,534.14C161.18,529.39 157.14,522.35 154.52,518.50C150.55,512.67 150.27,511.98 152.82,514.39C154.51,515.97 159.15,521.70 163.13,527.11C167.12,532.53 170.51,536.82 170.67,536.66C170.84,536.50 170.30,532.79 169.47,528.43C168.64,524.07 167.26,518.37 166.41,515.76C165.37,512.63 163.78,510.29 161.67,508.83C159.93,507.61 154.96,503.46 150.63,499.60C146.31,495.74 143.20,492.43 143.73,492.26C144.25,492.08 148.47,493.97 153.09,496.45C157.72,498.94 162.29,500.97 163.25,500.98C164.45,500.99 165.00,500.22 165.00,498.53C165.00,497.18 163.55,494.41 161.77,492.39C159.25,489.52 158.56,487.86 158.64,484.84C158.74,481.00 158.71,480.96 155.53,481.56C153.76,481.89 150.46,481.66 148.19,481.05C145.48,480.32 143.18,478.79 141.53,476.62C140.14,474.80 139.00,472.62 139.00,471.78C139.00,470.93 139.64,469.71 140.43,469.06C141.54,468.13 142.54,468.23 144.96,469.48C146.66,470.36 148.46,470.84 148.95,470.53C149.43,470.23 150.88,470.38 152.17,470.87C153.45,471.35 155.51,471.37 156.75,470.90C157.99,470.44 159.00,469.40 159.00,468.59C159.00,467.78 158.52,466.82 157.92,466.45C157.33,466.09 153.40,465.25 149.19,464.60C142.15,463.52 141.34,463.14 139.23,460.01C137.96,458.13 137.07,455.90 137.25,455.05C137.42,454.20 138.45,453.57 139.53,453.65C140.61,453.74 142.62,454.09 144.00,454.43C145.38,454.77 148.41,455.32 150.75,455.66C154.60,456.21 155.00,456.07 155.00,454.17C155.00,452.60 153.62,451.41 149.66,449.53C146.40,447.99 143.87,446.02 143.16,444.46C142.52,443.05 142.00,441.08 142.00,440.06C142.00,438.93 142.96,437.97 144.50,437.59C146.10,437.19 148.43,437.69 150.96,438.98C153.14,440.09 155.14,441.00 155.41,441.00C155.68,441.00 155.44,439.71 154.89,438.12C154.34,436.54 152.79,434.21 151.44,432.95C149.99,431.59 149.00,429.53 149.00,427.88C149.00,426.36 149.45,424.84 150.00,424.50C150.55,424.16 152.87,425.93 155.16,428.44C157.44,430.95 159.90,433.00 160.62,433.00C161.34,433.00 162.40,432.13 162.96,431.07C163.53,430.00 164.00,428.89 164.00,428.59C164.00,428.29 162.76,427.41 161.25,426.63C159.74,425.84 157.97,423.78 157.32,422.04C156.33,419.41 156.38,418.79 157.63,418.31C158.46,417.99 159.64,418.24 160.27,418.87C160.89,419.49 161.93,420.00 162.58,420.00C163.23,420.00 164.00,419.10 164.29,418.00C164.58,416.90 165.29,416.00 165.87,416.00C166.45,416.00 167.40,416.87 167.97,417.94C168.80,419.50 168.52,420.42 166.50,422.59C165.13,424.08 164.00,425.66 164.00,426.11C164.00,426.56 164.81,427.36 165.80,427.90C166.91,428.48 168.17,428.50 169.05,427.95C169.85,427.44 171.29,427.02 172.25,427.02C173.53,427.00 174.00,427.80 174.00,429.99C174.00,432.47 173.39,433.23 170.41,434.47C168.38,435.32 167.00,436.52 167.24,437.24C167.47,437.93 168.65,439.00 169.87,439.61C171.08,440.22 172.66,441.52 173.36,442.48C174.26,443.70 175.32,444.03 176.83,443.56C178.02,443.18 179.00,442.09 179.00,441.13C179.00,440.18 178.49,438.89 177.87,438.27C177.24,437.64 177.02,436.38 177.38,435.45C177.90,434.09 178.30,434.01 179.51,435.01C180.33,435.69 181.00,436.68 181.00,437.22C181.00,437.76 181.74,439.76 182.65,441.67C183.98,444.49 184.09,445.81 183.19,448.73C182.20,451.95 182.34,452.62 184.54,455.24C185.90,456.84 187.00,459.18 187.00,460.44C187.00,461.70 186.10,463.87 185.00,465.27C183.90,466.67 183.00,468.25 183.00,468.79C183.00,469.33 181.99,470.04 180.75,470.37C179.51,470.70 177.01,470.98 175.19,470.99C172.99,471.00 170.57,472.06 167.94,474.17C165.77,475.91 164.00,477.76 164.00,478.28C164.00,478.81 164.96,478.98 166.13,478.68C167.30,478.37 169.34,478.83 170.67,479.71C172.56,480.94 173.57,481.05 175.30,480.19C176.51,479.58 178.60,478.95 179.94,478.79C181.79,478.57 182.60,477.66 183.28,475.00C183.78,473.07 184.36,471.32 184.58,471.09C184.81,470.86 185.89,471.50 186.99,472.49C188.10,473.49 189.00,475.57 189.00,477.12C189.00,478.85 187.78,481.32 185.81,483.56C184.05,485.56 180.23,488.55 177.31,490.19C173.22,492.50 172.00,493.74 172.00,495.58C172.00,496.89 173.60,507.31 175.55,518.73C177.50,530.15 179.78,542.88 180.62,547.00C181.47,551.12 182.63,554.95 183.20,555.50C183.93,556.19 184.06,555.12 183.63,552.00C183.29,549.52 182.72,542.55 182.37,536.50C181.95,529.25 182.16,523.49 182.97,519.62C183.64,516.38 186.21,509.81 188.66,505.00C191.12,500.20 196.05,492.61 199.63,488.13C203.21,483.66 208.36,478.13 211.07,475.84C213.78,473.56 216.00,471.19 216.00,470.59C216.00,469.99 211.61,467.72 206.25,465.53C200.89,463.35 195.49,460.56 194.25,459.33C193.01,458.10 192.00,456.56 192.00,455.92C192.00,455.06 193.92,454.93 199.03,455.43C202.90,455.82 208.35,456.81 211.14,457.64C213.93,458.46 223.48,462.89 232.36,467.47C242.50,472.70 250.29,476.07 253.30,476.52C255.93,476.92 258.30,477.03 258.56,476.77C258.82,476.51 256.32,474.63 253.02,472.59C249.71,470.55 247.00,468.61 247.00,468.29C247.00,467.96 253.53,468.00 261.50,468.38C270.37,468.80 276.00,468.70 276.00,468.13C276.00,467.61 273.75,465.30 271.00,463.00C268.10,460.58 266.00,457.98 266.00,456.84C266.00,455.76 265.53,454.00 264.96,452.93C264.40,451.87 264.18,451.00 264.49,451.00C264.80,451.00 267.76,452.36 271.05,454.03C274.35,455.69 280.42,460.25 284.53,464.15C288.64,468.06 292.00,470.60 292.00,469.81C292.00,469.01 291.26,466.14 290.37,463.43C289.47,460.72 287.69,457.10 286.42,455.38C285.14,453.67 282.03,451.29 279.49,450.10C276.96,448.91 269.40,446.63 262.69,445.04C255.99,443.44 246.45,441.25 241.50,440.16C235.95,438.95 233.75,438.15 235.75,438.09C237.91,438.03 239.00,437.50 239.00,436.52C239.00,435.71 238.35,433.34 237.54,431.27C236.74,429.20 234.02,421.72 231.48,414.65C228.95,407.58 227.09,401.58 227.35,401.32C227.61,401.05 228.88,401.39 230.16,402.07C231.45,402.75 234.53,404.89 237.00,406.82C239.47,408.76 243.84,412.85 246.71,415.92C249.58,418.99 251.94,420.92 251.96,420.22C251.98,419.51 251.32,417.31 250.49,415.31C249.65,413.32 249.22,411.44 249.53,411.14C249.83,410.84 251.75,411.44 253.79,412.49C255.83,413.54 262.10,419.12 267.71,424.90C273.33,430.68 278.20,435.13 278.53,434.80C278.87,434.47 278.21,432.37 277.07,430.14C275.93,427.91 275.00,425.81 275.00,425.47C275.00,425.14 276.32,425.80 277.93,426.95C279.54,428.10 281.10,428.65 281.39,428.17C281.69,427.70 281.47,425.55 280.90,423.41C280.34,421.26 278.26,414.55 276.29,408.50C273.53,400.06 271.94,396.78 269.44,394.41C267.65,392.71 264.11,390.73 261.56,390.02C258.43,389.14 254.43,388.94 249.21,389.40C244.97,389.77 238.57,390.45 235.00,390.90C230.93,391.42 221.59,391.23 210.00,390.38C199.82,389.64 184.67,389.02 176.32,389.01C167.97,389.01 157.68,389.48 153.45,390.07C149.22,390.66 142.99,391.99 139.61,393.04C136.23,394.08 130.66,396.64 127.23,398.72C123.79,400.80 118.74,404.43 116.01,406.79C113.27,409.15 108.70,414.66 105.85,419.04C103.00,423.42 100.31,427.00 99.88,427.00C99.45,427.00 98.58,425.31 97.95,423.25C97.33,421.19 96.58,413.41 96.29,405.96C95.83,394.23 96.04,391.31 97.91,384.13C99.09,379.57 101.67,372.61 103.65,368.67C105.63,364.73 109.16,358.55 111.48,354.94C113.81,351.33 118.58,345.32 122.08,341.58C125.58,337.84 131.05,333.00 134.24,330.84C137.43,328.67 141.89,326.24 144.15,325.45C146.40,324.65 151.46,324.01 155.38,324.02C160.93,324.03 164.71,324.81 172.50,327.55C178.00,329.49 189.17,333.08 197.31,335.55C205.46,338.01 213.94,340.95 216.15,342.08C218.37,343.21 222.50,345.76 225.34,347.76C228.18,349.75 233.29,353.79 236.71,356.74C240.12,359.68 245.68,365.56 249.05,369.80C252.43,374.03 258.82,381.23 263.24,385.79C267.66,390.36 272.50,394.72 274.00,395.50C275.97,396.52 278.38,400.23 282.76,409.01C286.19,415.87 289.11,420.63 289.51,419.98C289.90,419.35 289.91,415.84 289.54,412.17C289.17,408.50 286.61,394.02 283.86,380.00C281.11,365.98 277.74,350.00 276.37,344.50C275.00,339.00 273.23,332.25 272.44,329.50C271.00,324.50 271.00,324.50 254.25,324.43C240.58,324.37 235.67,323.94 227.52,322.07C222.04,320.82 213.65,318.52 208.88,316.96C204.12,315.41 196.01,312.02 190.86,309.44C185.71,306.85 179.57,303.41 177.20,301.79C174.84,300.17 171.35,297.28 169.45,295.38C167.55,293.48 164.63,289.23 162.97,285.93C161.30,282.64 158.64,276.02 157.06,271.22C155.47,266.43 153.67,258.45 153.05,253.50C152.44,248.55 151.84,240.05 151.72,234.62C151.50,224.74 151.50,224.74 166.82,219.92C175.24,217.26 185.77,214.56 190.22,213.91C194.70,213.25 201.78,212.99 206.13,213.33C210.43,213.66 216.76,214.66 220.18,215.55C223.60,216.43 228.00,218.00 229.95,219.04C233.50,220.91 233.50,220.91 229.50,220.92C227.30,220.93 222.57,220.29 219.00,219.50C215.43,218.71 208.52,218.05 203.66,218.04C194.82,218.00 194.82,218.00 205.11,229.07C212.22,236.72 215.92,239.99 217.10,239.68C218.04,239.44 220.09,240.08 221.66,241.11C223.22,242.14 224.84,242.99 225.26,242.99C225.68,243.00 225.78,240.41 225.48,237.25C224.95,231.50 224.95,231.50 227.52,238.92C229.80,245.53 230.99,247.25 238.40,254.72C246.72,263.09 246.72,263.09 247.35,259.30C247.70,257.21 247.98,252.16 247.99,248.08C248.00,244.00 248.23,240.90 248.52,241.19C248.81,241.47 249.70,245.46 250.51,250.04C251.31,254.62 252.46,258.85 253.05,259.44C253.82,260.19 254.51,259.99 255.42,258.76C256.13,257.80 257.48,253.30 258.43,248.76C259.37,244.22 260.60,239.04 261.15,237.25C261.70,235.46 262.52,234.00 262.96,234.00C263.40,234.00 264.28,234.63 264.92,235.40C265.78,236.44 265.81,238.93 265.03,245.15C264.46,249.74 263.09,257.24 261.99,261.81C260.90,266.39 260.00,271.22 260.00,272.56C260.00,273.90 260.92,275.92 262.04,277.04C263.95,278.95 264.23,278.98 266.79,277.47C268.91,276.21 270.11,276.09 272.27,276.91C274.81,277.88 274.98,278.28 274.41,281.86C274.01,284.34 274.20,286.01 274.94,286.46C275.57,286.85 276.74,286.63 277.54,285.96C278.80,284.92 279.00,285.80 279.00,292.21C279.00,296.31 279.27,299.94 279.60,300.27C279.93,300.60 284.14,297.64 288.96,293.69C293.77,289.73 300.21,284.60 303.26,282.27C306.81,279.56 309.60,276.40 311.00,273.50C312.21,271.00 312.94,268.29 312.63,267.48C312.32,266.67 311.45,266.00 310.70,266.00C309.94,266.00 307.34,267.55 304.91,269.43C302.49,271.32 299.26,273.34 297.75,273.91C295.68,274.69 295.00,274.65 295.01,273.73C295.02,273.05 297.04,269.12 299.50,265.00C301.96,260.88 303.98,256.26 303.99,254.75C303.99,253.22 304.55,252.00 305.25,252.00C305.94,252.01 307.95,252.89 309.72,253.97C311.49,255.05 314.63,258.48 316.70,261.60C319.95,266.50 320.47,268.06 320.47,272.97C320.47,277.49 319.75,280.08 317.00,285.50C314.92,289.59 310.58,295.46 306.17,300.16C301.31,305.33 295.88,309.76 290.18,313.24C285.43,316.13 280.70,318.84 279.66,319.26C278.27,319.82 277.95,320.61 278.43,322.26C278.79,323.49 280.86,331.42 283.02,339.87C285.19,348.32 288.97,367.45 291.43,382.37C293.89,397.29 297.06,418.05 298.46,428.50C299.86,438.95 301.65,449.61 302.44,452.20C303.23,454.78 304.37,457.82 304.97,458.95C305.58,460.08 306.50,461.00 307.04,461.00C307.57,461.00 308.00,457.47 308.00,453.00C308.00,448.60 308.34,445.01 308.75,445.03C309.16,445.04 310.62,446.64 312.00,448.58C313.38,450.52 315.27,453.10 316.22,454.30C317.56,456.02 317.94,456.15 317.97,454.90C317.99,454.01 316.69,447.94 315.09,441.40C313.50,434.85 311.88,427.48 311.49,425.00C311.11,422.52 309.75,417.80 308.47,414.50C307.18,411.20 305.47,406.02 304.65,403.00C303.84,399.98 302.90,395.59 302.58,393.25C302.25,390.91 302.31,389.00 302.71,389.00C303.11,389.00 306.04,391.57 309.22,394.72C312.40,397.86 315.00,399.85 315.00,399.14C315.00,398.42 313.56,394.38 311.79,390.17C308.99,383.48 308.59,381.41 308.66,374.00C308.70,369.32 309.16,364.44 309.68,363.14C310.54,361.00 310.95,361.51 314.31,368.85C316.34,373.29 318.00,377.47 318.00,378.14C318.00,378.81 316.97,378.38 315.69,377.17C314.41,375.98 313.09,375.00 312.76,375.00C312.42,375.00 312.52,376.34 313.00,377.99C313.47,379.63 315.75,383.68 318.07,386.99C320.39,390.29 322.65,393.00 323.09,393.00C323.52,393.00 324.25,392.44 324.69,391.75C325.14,391.06 325.98,346.85 326.56,293.50C327.14,240.15 327.43,195.94 327.20,195.25C326.97,194.56 326.29,194.00 325.69,194.00C325.09,194.00 319.62,199.06 313.55,205.25C307.47,211.44 301.31,218.08 299.85,220.00C297.20,223.50 297.20,223.50 296.02,220.50C295.36,218.85 294.59,214.35 294.30,210.50C293.96,206.06 294.36,200.36 295.38,194.92C296.27,190.20 297.00,186.04 297.00,185.67C297.00,185.30 296.43,185.00 295.73,185.00C295.03,185.00 291.10,186.41 286.99,188.14C279.64,191.23 279.31,191.27 267.51,190.71C260.90,190.39 250.44,189.58 244.25,188.90C234.76,187.87 233.00,187.40 233.00,185.96C233.00,185.01 235.04,181.60 237.53,178.37C240.02,175.14 244.39,170.55 247.24,168.16C250.09,165.77 255.07,162.48 258.32,160.84C261.56,159.20 267.43,157.05 271.36,156.05C275.29,155.05 281.65,153.94 285.50,153.58C290.02,153.16 295.68,153.46 301.46,154.42C306.39,155.24 310.64,155.69 310.92,155.41C311.20,155.14 310.09,153.82 308.46,152.49C306.83,151.15 302.12,148.29 298.00,146.12C293.88,143.95 287.80,141.28 284.50,140.18C281.20,139.08 272.43,136.98 265.00,135.50C257.57,134.02 247.22,131.23 242.00,129.29C236.78,127.36 228.96,123.69 224.62,121.14C220.29,118.59 213.79,114.03 210.18,111.00C206.57,107.97 203.67,105.05 203.75,104.50C203.82,103.95 207.39,102.66 211.69,101.64C217.42,100.27 223.75,99.74 235.50,99.64C248.46,99.53 252.73,99.86 258.00,101.37C261.57,102.41 268.10,104.95 272.51,107.04C277.73,109.50 282.92,113.02 287.39,117.12C291.17,120.59 297.83,128.04 302.19,133.69C306.55,139.33 310.57,144.23 311.13,144.58C311.68,144.92 312.39,144.95 312.69,144.64C313.00,144.33 311.79,140.43 309.99,135.97C308.19,131.52 304.37,124.19 301.50,119.68C298.63,115.18 293.21,106.56 289.46,100.52C285.33,93.87 281.75,86.65 280.39,82.23C279.15,78.22 277.59,71.56 276.93,67.44C276.26,63.32 275.94,59.73 276.22,59.45C276.49,59.18 281.17,60.77 286.61,62.99C292.05,65.21 298.75,68.57 301.50,70.47C304.25,72.36 308.73,76.18 311.46,78.95C314.19,81.73 315.97,84.00 315.41,84.00C314.85,84.00 312.84,82.37 310.95,80.37C309.05,78.37 304.57,74.83 301.00,72.50C297.43,70.16 291.70,66.85 288.28,65.13C284.86,63.41 281.59,62.00 281.03,62.00C280.46,62.00 280.00,62.66 280.00,63.47C280.00,64.28 281.38,68.45 283.08,72.72C284.77,77.00 287.18,81.62 288.45,83.00C289.71,84.38 291.03,86.73 291.39,88.24C291.74,89.74 293.16,91.71 294.54,92.62C296.24,93.74 296.87,94.85 296.48,96.07C296.09,97.28 297.10,99.21 299.46,101.83C301.83,104.44 302.81,106.33 302.38,107.44C301.93,108.62 303.12,110.41 306.37,113.43C309.24,116.10 311.00,118.60 311.00,120.00C311.00,121.25 311.93,123.77 313.07,125.61C314.21,127.46 314.87,129.40 314.55,129.92C314.22,130.45 315.59,133.45 317.59,136.57C319.59,139.70 322.10,144.24 323.17,146.65C324.30,149.21 325.56,150.77 326.18,150.39C326.90,149.95 327.02,146.90 326.57,141.25C326.13,135.85 325.04,130.88 323.56,127.54C322.29,124.66 320.19,121.32 318.89,120.11C317.58,118.89 316.47,116.63 316.39,115.02C316.31,113.42 315.29,110.91 314.12,109.43C312.95,107.94 312.00,106.30 312.00,105.77C312.00,105.24 311.07,103.50 309.93,101.90C308.79,100.29 307.67,97.52 307.46,95.74C307.06,92.50 307.06,92.50 309.00,95.00C310.06,96.38 314.16,104.03 318.10,112.00C322.05,119.97 326.44,128.84 327.87,131.69C329.29,134.55 330.61,136.73 330.79,136.54C330.98,136.35 330.65,131.99 330.07,126.85C329.48,121.71 328.77,115.70 328.48,113.50C327.98,109.59 328.00,109.61 329.61,114.50C331.00,118.74 331.38,119.20 332.10,117.50C332.57,116.40 333.88,112.96 335.01,109.85C336.14,106.75 338.80,101.52 340.93,98.24C343.05,94.95 347.87,88.99 351.64,84.99C355.41,80.99 361.62,75.52 365.43,72.84C369.24,70.16 372.67,68.31 373.05,68.73C373.42,69.15 374.28,71.75 374.96,74.50C375.63,77.25 376.42,83.78 376.71,89.00C377.15,96.98 376.90,99.44 375.14,104.39C373.99,107.64 368.33,117.34 362.54,125.99C356.75,134.63 351.08,143.83 349.93,146.43C348.78,149.04 348.04,151.38 348.30,151.63C348.56,151.89 351.90,149.40 355.73,146.10C359.55,142.80 364.55,137.67 366.84,134.71C369.12,131.75 373.81,126.63 377.25,123.34C380.69,120.04 385.52,116.19 388.00,114.76C390.48,113.34 395.58,111.24 399.36,110.09C404.35,108.57 408.83,108.01 415.86,108.04C421.16,108.07 427.43,108.46 429.79,108.92C432.15,109.37 434.37,110.04 434.73,110.39C435.08,110.75 433.83,112.41 431.94,114.07C430.05,115.74 423.33,120.52 417.02,124.70C410.70,128.87 400.80,134.88 395.02,138.06C389.23,141.23 380.97,144.97 376.66,146.37C372.35,147.77 366.92,150.03 364.58,151.40C362.25,152.77 359.72,154.63 358.96,155.55C357.68,157.10 358.31,157.17 367.54,156.54C373.02,156.17 379.95,155.45 382.93,154.93C385.92,154.42 391.12,154.00 394.47,154.00C397.83,154.00 403.26,154.70 406.54,155.55C409.82,156.41 414.52,158.29 417.00,159.73C419.48,161.18 423.90,164.85 426.83,167.90C429.76,170.94 433.74,176.14 435.68,179.44C437.61,182.74 439.45,186.98 439.75,188.86C440.31,192.28 440.31,192.28 436.67,191.60C434.67,191.22 426.62,190.06 418.77,189.02C410.92,187.98 402.53,186.42 400.13,185.56C397.73,184.71 393.00,182.04 389.63,179.64C386.26,177.24 381.03,174.03 378.02,172.50C374.23,170.59 370.53,169.61 366.02,169.32C359.50,168.90 359.50,168.90 364.48,173.20C367.21,175.57 372.05,179.93 375.23,182.90C378.50,185.97 382.13,190.60 383.59,193.60C385.46,197.41 386.34,201.14 386.73,206.96C387.22,213.98 386.93,216.12 384.50,223.60C382.96,228.32 381.05,232.43 380.25,232.73C379.45,233.04 378.51,232.83 378.15,232.27C377.79,231.70 370.86,224.40 362.75,216.04C354.64,207.68 348.00,200.43 348.00,199.92C348.00,199.41 347.15,199.00 346.11,199.00C345.07,199.00 343.86,199.79 343.42,200.75C342.99,201.71 342.45,210.82 342.24,221.00C342.03,231.18 342.32,253.68 342.89,271.00C343.46,288.32 344.41,304.52 344.99,307.00C345.58,309.48 346.30,312.18 346.61,313.00C346.95,313.91 348.10,312.04 349.54,308.24C350.85,304.80 353.36,299.85 355.12,297.24C356.88,294.63 362.43,288.41 367.44,283.41C374.11,276.75 378.31,273.48 383.06,271.21C386.63,269.51 393.70,267.11 398.78,265.89C403.85,264.67 408.23,263.89 408.50,264.17C408.77,264.44 407.84,267.52 406.42,271.01C405.00,274.50 401.67,281.67 399.01,286.93C396.36,292.19 391.92,299.71 389.15,303.63C386.38,307.55 380.27,314.28 375.56,318.59C370.85,322.90 365.13,327.68 362.85,329.21C359.61,331.39 357.54,332.00 353.41,332.00C350.50,332.00 347.87,332.40 347.57,332.89C347.27,333.37 347.48,350.13 348.05,370.14C348.61,390.14 349.33,408.41 349.64,410.75C349.95,413.09 350.55,415.00 350.98,415.00C351.40,415.00 352.36,412.86 353.12,410.25C353.96,407.35 354.40,401.96 354.24,396.41C354.06,390.25 354.46,385.94 355.49,383.04C356.32,380.68 357.00,375.99 357.01,372.62C357.01,369.26 357.46,362.64 358.00,357.93C358.54,353.21 359.60,347.59 360.35,345.43C361.72,341.50 361.72,341.50 362.34,346.50C362.68,349.25 363.47,355.87 364.10,361.22C365.24,370.93 365.24,370.93 369.37,368.14C371.64,366.60 376.03,363.92 379.12,362.17C382.21,360.43 385.48,359.00 386.39,359.00C387.68,359.00 387.90,359.60 387.38,361.75C387.02,363.26 386.10,365.74 385.33,367.25C384.57,368.76 384.30,370.00 384.72,370.01C385.15,370.02 383.25,371.10 380.50,372.42C377.75,373.75 372.35,377.76 368.51,381.34C364.67,384.92 361.79,388.12 362.11,388.45C362.44,388.77 368.70,389.15 376.02,389.27C385.95,389.44 389.44,389.18 389.75,388.25C389.98,387.55 391.77,387.01 393.83,387.02C395.85,387.04 399.21,387.44 401.30,387.93C404.06,388.57 405.01,388.50 404.76,387.66C404.57,387.02 402.26,385.42 399.63,384.11C396.30,382.44 393.15,381.71 389.26,381.71C385.40,381.71 383.34,382.19 382.56,383.25C381.66,384.47 380.24,384.65 375.47,384.10C369.50,383.42 369.50,383.42 374.50,380.17C377.25,378.38 381.76,376.26 384.52,375.46C387.28,374.65 391.93,373.85 394.85,373.67C399.35,373.40 400.76,373.76 403.90,376.04C405.94,377.52 409.50,380.93 411.80,383.62C415.03,387.39 415.99,388.04 415.99,386.50C416.00,385.40 414.71,381.80 413.13,378.50C411.55,375.20 409.09,371.42 407.65,370.10C406.22,368.77 403.35,367.41 401.27,367.05C397.64,366.44 397.51,366.28 397.73,362.66C397.85,360.59 398.84,356.88 399.93,354.42C401.02,351.96 404.48,347.26 407.61,343.97C410.87,340.55 415.50,336.96 418.45,335.57C421.29,334.22 425.74,332.59 428.34,331.94C430.95,331.28 433.32,330.99 433.62,331.29C433.92,331.59 430.15,334.54 425.24,337.84C420.33,341.14 415.11,345.26 413.65,347.00C412.19,348.73 411.00,350.50 411.00,350.93C411.00,351.36 412.12,353.23 413.48,355.10C414.84,356.97 416.49,359.51 417.14,360.75C417.79,361.99 418.03,363.31 417.66,363.67C417.30,364.04 415.23,362.41 413.06,360.06C410.89,357.72 408.53,355.99 407.81,356.22C407.09,356.46 406.36,358.01 406.20,359.66C405.97,361.96 406.85,363.80 410.01,367.58C412.28,370.29 414.72,373.62 415.43,375.00C416.15,376.38 417.05,379.27 417.44,381.42C418.16,385.35 418.16,385.35 424.55,373.29C428.07,366.65 432.08,357.31 433.47,352.50C434.86,347.70 436.00,341.77 436.00,339.32C436.00,336.87 436.49,333.96 437.08,332.85C438.07,331.00 438.30,330.96 439.92,332.43C440.89,333.30 443.61,338.08 445.96,343.04C448.32,348.00 450.48,354.19 450.76,356.78C451.03,359.38 451.71,362.06 452.25,362.75C452.80,363.44 454.29,364.00 455.56,364.00C456.84,364.00 458.16,364.45 458.50,365.00C458.88,365.62 456.92,366.01 453.31,366.02C449.85,366.04 445.88,366.78 443.50,367.87C440.84,369.09 438.25,371.53 435.75,375.17C433.69,378.18 432.00,381.36 432.00,382.22C432.00,383.41 433.49,383.98 437.95,384.49C442.91,385.07 444.53,384.84 447.70,383.13C449.79,382.01 453.24,380.39 455.36,379.55C457.48,378.70 461.39,376.41 464.06,374.46C466.72,372.51 469.17,370.03 469.51,368.95C469.86,367.88 470.57,367.00 471.10,367.00C471.63,367.00 472.34,367.72 472.68,368.61C473.02,369.49 472.39,372.08 471.28,374.36C470.17,376.64 467.13,380.87 464.52,383.78C461.90,386.68 457.87,390.16 455.55,391.52C453.24,392.88 448.68,394.93 445.42,396.07C442.16,397.21 436.12,398.68 432.00,399.32C424.50,400.50 424.50,400.50 424.17,404.00C423.99,405.93 423.09,408.35 422.17,409.39C421.25,410.43 418.70,412.11 416.50,413.12C414.30,414.13 411.96,414.97 411.30,414.98C410.63,414.99 409.79,413.42 409.43,411.49C409.07,409.56 408.36,407.72 407.86,407.41C407.36,407.10 405.01,406.74 402.63,406.61C399.83,406.45 396.46,405.22 393.02,403.11C389.93,401.21 385.39,399.47 382.11,398.93C379.03,398.43 374.01,398.01 370.97,398.01C365.44,398.00 365.44,398.00 362.24,408.25C360.48,413.89 358.52,420.65 357.89,423.29C357.26,425.92 356.94,428.28 357.19,428.52C357.43,428.77 362.70,423.57 368.89,416.98C375.08,410.39 380.55,405.00 381.03,405.00C381.51,405.00 381.28,406.78 380.51,408.96C379.74,411.14 378.56,416.54 377.89,420.96C377.21,425.38 376.97,429.30 377.36,429.69C377.74,430.07 379.50,428.61 381.26,426.44C383.02,424.27 386.38,420.48 388.71,418.00C392.95,413.50 392.95,413.50 392.98,418.12C392.99,420.67 392.32,424.68 391.49,427.03C390.66,429.39 390.20,431.53 390.47,431.80C390.74,432.07 392.89,431.55 395.26,430.64C397.63,429.74 399.99,429.00 400.51,429.00C401.03,429.00 397.60,432.94 392.89,437.75C388.18,442.56 382.77,448.75 380.87,451.50C378.96,454.25 375.79,459.20 373.82,462.50C371.84,465.80 367.95,473.68 365.17,480.00C362.39,486.32 359.36,494.55 358.43,498.29C357.50,502.02 357.01,505.34 357.35,505.68C357.68,506.01 358.61,505.74 359.41,505.07C360.21,504.41 362.29,500.41 364.03,496.18C365.77,491.96 369.18,484.72 371.62,480.10C374.05,475.48 378.14,468.75 380.71,465.16C383.27,461.56 385.54,459.13 385.75,459.75C385.96,460.37 385.65,462.60 385.07,464.69C384.49,466.79 384.01,469.96 384.01,471.75C384.00,473.54 384.38,475.00 384.85,475.00C385.31,475.00 386.37,474.21 387.19,473.25C388.02,472.29 392.89,463.40 398.01,453.50C403.13,443.60 409.11,432.84 411.30,429.60C413.49,426.35 416.84,421.97 418.75,419.86C420.65,417.75 424.91,414.22 428.22,412.01C431.52,409.81 434.67,408.00 435.21,408.00C435.75,408.00 434.23,410.27 431.84,413.05C429.45,415.83 425.83,420.21 423.80,422.79C421.76,425.37 418.95,429.82 417.55,432.68C416.15,435.53 415.00,438.80 415.00,439.94C415.00,441.07 414.62,442.00 414.16,442.00C413.69,442.00 412.13,445.04 410.69,448.75C409.24,452.46 407.11,458.58 405.96,462.35C404.80,466.11 404.10,469.81 404.39,470.57C404.81,471.66 406.24,471.33 411.11,469.02C414.52,467.41 418.44,465.11 419.82,463.91C421.64,462.33 422.76,461.99 423.86,462.68C424.70,463.21 425.54,464.13 425.74,464.73C425.94,465.32 424.39,466.35 422.30,467.01C420.21,467.67 415.27,469.77 411.33,471.68C407.38,473.60 403.89,475.84 403.57,476.67C403.25,477.50 403.26,478.61 403.58,479.13C403.90,479.65 405.09,479.79 406.21,479.43C407.44,479.04 408.01,479.18 407.64,479.77C407.31,480.31 408.38,481.03 410.02,481.35C412.38,481.83 413.00,482.47 413.00,484.46C413.00,486.25 413.64,487.09 415.25,487.43C416.49,487.68 419.67,488.17 422.32,488.52C427.14,489.14 427.14,489.14 425.45,486.57C424.26,484.75 424.07,483.63 424.80,482.74C425.36,482.06 425.98,481.05 426.16,480.50C426.35,479.95 429.31,479.57 432.75,479.65C436.44,479.75 439.00,479.39 439.00,478.79C439.00,478.22 437.31,476.08 435.25,474.01C432.12,470.88 431.47,469.52 431.33,465.74C431.24,463.25 430.42,459.77 429.51,458.01C428.60,456.25 428.00,454.67 428.18,454.49C428.36,454.30 435.21,456.60 443.40,459.58C451.58,462.56 458.44,465.00 458.64,465.00C458.84,465.00 459.00,464.58 459.00,464.07C459.00,463.56 455.68,461.07 451.62,458.54C447.29,455.85 439.34,452.28 432.37,449.92C425.84,447.70 419.47,445.22 418.22,444.40C416.96,443.58 416.16,442.55 416.43,442.12C416.70,441.68 419.64,441.69 422.97,442.15C426.29,442.60 431.15,444.09 433.76,445.45C436.37,446.81 440.02,448.92 441.87,450.14C445.04,452.22 445.21,452.24 444.69,450.43C444.39,449.37 443.25,445.12 442.16,441.00C441.08,436.88 439.91,431.55 439.57,429.17C439.21,426.63 439.60,421.68 440.53,417.17C441.40,412.95 442.43,409.18 442.83,408.78C443.22,408.38 445.78,408.65 448.52,409.38C451.26,410.11 456.27,412.11 459.66,413.82C463.05,415.54 468.45,419.13 471.67,421.80C476.01,425.42 478.80,428.96 482.51,435.58C487.50,444.48 487.50,444.48 488.13,434.82C488.48,429.51 489.32,422.76 489.99,419.83C490.67,416.90 492.83,410.47 494.80,405.53C498.37,396.57 498.37,396.57 497.14,373.72C496.45,361.15 495.51,349.84 495.04,348.59C494.33,346.73 492.72,346.01 486.07,344.58C481.62,343.61 475.18,341.43 471.78,339.73C468.37,338.03 463.75,334.80 461.52,332.57C459.28,330.33 456.22,326.31 454.72,323.62C453.23,320.94 452.00,318.55 452.00,318.31C452.00,318.06 453.01,318.16 454.25,318.53C455.49,318.89 459.48,320.93 463.12,323.06C466.76,325.19 471.71,327.21 474.12,327.54C478.50,328.14 478.50,328.14 476.31,326.21C474.12,324.28 474.12,324.28 477.93,323.14C480.02,322.51 482.94,322.00 484.41,322.00C485.88,322.00 488.86,322.91 491.04,324.02C494.49,325.78 495.00,325.84 495.00,324.44C495.00,323.56 493.72,321.57 492.16,320.01C490.61,318.45 486.89,316.42 483.91,315.49C480.27,314.36 472.61,313.56 460.50,313.04C450.60,312.62 440.36,311.71 437.75,311.02C434.65,310.20 431.57,308.37 428.90,305.79C426.65,303.60 423.91,299.79 422.82,297.32C421.73,294.85 421.03,292.64 421.26,292.40C421.50,292.17 424.29,293.16 427.46,294.61C430.62,296.06 438.90,298.76 445.86,300.62C452.81,302.47 459.29,303.99 460.25,304.00C461.23,304.00 462.00,303.25 462.00,302.31C462.00,301.39 460.99,299.54 459.75,298.21C457.50,295.80 457.50,295.80 465.50,296.52C469.90,296.91 475.30,297.85 477.50,298.60C479.70,299.36 481.84,299.98 482.25,299.99C482.66,299.99 483.00,299.53 483.00,298.96C483.00,298.38 480.88,295.64 478.28,292.87C475.69,290.10 472.31,287.18 470.78,286.39C469.25,285.60 459.74,282.26 449.65,278.97C439.56,275.68 430.60,272.20 429.75,271.25C428.90,270.29 427.71,267.70 427.10,265.50C426.50,263.30 426.01,261.16 426.01,260.75C426.00,260.34 426.50,260.00 427.10,260.00C427.71,260.00 430.42,261.99 433.13,264.43C437.13,268.03 439.34,269.14 444.97,270.43C448.78,271.29 453.04,272.00 454.45,272.00C455.85,272.00 457.00,271.50 457.00,270.89C457.00,270.29 455.65,268.08 454.00,266.00C452.35,263.92 451.00,261.73 451.00,261.13C451.00,260.38 451.79,260.35 453.58,261.03C454.99,261.57 458.17,263.40 460.65,265.10C463.12,266.80 465.40,267.93 465.72,267.62C466.03,267.30 465.12,265.26 463.68,263.09C462.24,260.91 457.82,256.52 453.86,253.32C449.90,250.12 443.93,245.70 440.58,243.50C437.24,241.30 433.89,238.21 433.14,236.63C432.39,235.06 431.54,232.02 431.26,229.88C430.97,227.75 430.91,226.00 431.12,226.00C431.33,226.00 437.08,227.99 443.91,230.43C451.41,233.10 457.30,235.84 458.81,237.36C460.83,239.38 461.30,240.80 461.23,244.68C461.17,248.11 461.86,250.73 463.61,253.75C464.97,256.09 466.46,258.00 466.92,258.00C467.38,258.00 468.24,256.76 468.83,255.25C469.42,253.74 470.40,250.55 471.01,248.18C471.96,244.49 472.34,244.04 473.62,245.10C474.45,245.79 475.78,247.60 476.57,249.13C477.35,250.65 478.00,254.46 478.00,257.58C478.00,261.69 478.61,264.27 480.21,266.88C481.43,268.87 483.00,271.09 483.71,271.82C484.42,272.55 485.00,274.69 485.00,276.57C485.00,278.46 485.34,279.99 485.75,279.97C486.16,279.95 487.82,277.81 489.44,275.22C491.06,272.62 493.42,268.51 494.69,266.08C495.96,263.65 497.00,260.35 497.00,258.75C497.00,256.98 497.46,255.99 498.16,256.22C498.80,256.43 500.15,258.15 501.16,260.04C502.17,261.92 503.00,264.87 503.00,266.58C503.00,268.45 500.94,273.46 497.84,279.10C495.01,284.27 492.07,289.69 491.32,291.15C490.12,293.48 490.20,294.47 492.05,299.40C493.20,302.48 494.28,305.00 494.45,305.00C494.61,305.00 497.02,301.51 499.80,297.25C502.57,292.99 505.82,287.59 507.02,285.25C508.22,282.91 509.61,281.00 510.10,281.00C510.60,281.00 511.00,283.91 511.00,287.46C511.00,293.92 511.00,293.92 518.21,290.47C523.22,288.07 525.73,287.33 526.46,288.06C527.08,288.68 527.39,293.14 527.24,299.12C527.06,305.98 526.32,311.09 524.91,315.32C523.78,318.72 521.77,323.36 520.45,325.63C519.14,327.90 515.68,332.20 512.78,335.19C509.88,338.18 506.51,341.27 505.30,342.06C503.19,343.45 503.14,343.82 504.07,352.00C504.60,356.68 505.37,366.12 505.77,373.00C506.50,385.50 506.50,385.50 509.64,385.20C512.16,384.96 513.93,385.86 518.64,389.78C521.86,392.47 526.04,396.41 527.92,398.56C529.80,400.70 533.43,405.65 535.98,409.57C538.54,413.48 541.21,418.10 541.93,419.83C542.65,421.56 543.63,422.73 544.12,422.43C544.60,422.13 545.01,412.57 545.02,401.19C545.04,389.81 545.47,375.07 545.98,368.43C546.50,361.79 547.28,355.49 547.71,354.43C548.33,352.90 548.61,353.33 549.04,356.50C549.34,358.70 549.43,349.93 549.25,337.00C549.06,324.07 548.51,301.93 548.02,287.78C547.53,273.63 546.71,261.30 546.18,260.37C545.41,258.98 543.92,258.71 538.11,258.90C533.76,259.04 528.75,258.49 525.28,257.48C522.15,256.57 517.32,254.69 514.54,253.30C511.77,251.91 507.99,249.64 506.14,248.25C504.30,246.87 501.07,243.08 498.97,239.84C496.88,236.60 494.23,231.17 493.08,227.78C491.94,224.39 491.00,219.67 491.00,217.31C491.00,214.94 491.21,213.00 491.47,213.00C491.73,213.00 494.54,214.16 497.72,215.57C500.90,216.99 507.55,219.69 512.50,221.59C517.45,223.48 523.76,225.92 526.52,227.01C529.28,228.11 532.12,229.00 532.84,229.00C533.72,229.00 533.92,228.27 533.46,226.75C533.09,225.51 532.18,223.53 531.43,222.34C530.69,221.16 524.84,217.35 518.44,213.88C507.91,208.17 506.52,207.09 503.88,202.54C502.28,199.77 500.28,195.17 499.44,192.32C498.56,189.38 498.03,184.52 498.20,181.06C498.50,174.96 498.50,174.96 505.52,178.33C509.38,180.18 515.29,183.99 518.66,186.80C522.03,189.61 525.74,193.24 526.90,194.87C528.07,196.50 529.31,199.32 529.68,201.14C530.34,204.45 530.34,204.45 527.44,202.55C525.84,201.50 520.23,196.23 514.97,190.82C509.72,185.42 504.65,181.00 503.71,181.00C502.58,181.00 502.00,181.80 502.00,183.36C502.00,184.66 503.41,188.37 505.13,191.61C506.85,194.85 510.08,199.53 512.31,202.00C514.54,204.47 518.61,207.96 521.36,209.73C524.11,211.51 527.60,214.16 529.12,215.61C530.88,217.31 532.48,218.03 533.55,217.62C534.85,217.12 535.09,216.15 534.65,213.24C534.34,211.18 533.59,203.88 532.99,197.00C532.39,190.12 532.19,182.03 532.54,179.00C532.89,175.97 534.61,169.68 536.37,165.00C538.36,159.68 540.10,156.50 541.01,156.50C541.82,156.50 544.37,159.65 546.69,163.50C549.53,168.22 551.35,172.78 552.29,177.50C553.05,181.35 554.08,184.44 554.58,184.37C555.09,184.31 558.37,180.03 561.87,174.87C565.37,169.72 570.25,163.03 572.71,160.00C575.17,156.97 579.26,152.29 581.80,149.60C586.42,144.70 586.42,144.70 590.75,149.60C593.14,152.29 597.95,158.78 601.44,164.00C604.94,169.22 610.09,178.09 612.88,183.69C615.68,189.30 618.86,197.11 619.95,201.06C621.04,205.00 622.42,211.73 623.00,216.01C623.85,222.24 623.77,225.23 622.58,230.92C621.77,234.83 619.73,240.61 618.04,243.76C616.36,246.92 612.18,252.85 608.74,256.94C605.31,261.04 600.17,266.28 597.32,268.60C594.48,270.92 591.33,273.28 590.32,273.84C588.59,274.81 588.49,278.26 588.23,343.93C588.08,381.92 588.32,413.00 588.77,413.00C589.21,413.00 591.81,410.72 594.54,407.94C597.27,405.15 602.82,400.31 606.88,397.19C610.94,394.06 616.79,390.15 619.88,388.50C625.50,385.50 625.50,385.50 625.23,372.00C625.08,364.57 624.76,357.96 624.52,357.29C624.29,356.63 621.76,354.90 618.91,353.46C616.07,352.01 611.55,348.79 608.88,346.29C606.21,343.79 602.78,339.22 601.26,336.12C598.77,331.05 598.50,329.47 598.52,320.00C598.55,310.95 598.96,308.34 601.52,301.06C603.16,296.42 604.95,292.49 605.50,292.33C606.05,292.17 610.96,299.23 616.40,308.02C621.85,316.81 626.65,324.00 627.06,324.00C627.48,324.00 627.99,321.19 628.20,317.75C628.54,311.95 628.24,310.86 624.03,302.66C620.25,295.29 619.52,292.96 619.62,288.63C619.71,285.14 620.65,281.64 622.50,277.97C624.02,274.96 627.00,270.42 629.13,267.87C631.25,265.32 636.03,260.77 639.74,257.76C643.46,254.75 647.85,251.46 649.50,250.45C651.15,249.45 649.66,251.24 646.20,254.44C642.73,257.64 638.09,262.92 635.88,266.18C633.67,269.44 631.00,273.99 629.95,276.30C628.90,278.61 628.04,282.07 628.03,284.00C628.02,285.93 628.83,288.74 629.83,290.26C630.83,291.77 631.95,292.71 632.33,292.34C632.70,291.97 633.00,289.94 633.00,287.83C633.00,285.73 633.27,284.00 633.59,284.00C633.91,284.00 635.00,285.01 636.00,286.25C637.01,287.49 638.16,288.17 638.56,287.77C638.96,287.37 639.21,284.11 639.11,280.52C639.01,276.93 639.30,274.00 639.74,274.00C640.19,274.00 641.56,274.71 642.80,275.57C644.97,277.09 645.09,277.02 646.61,273.32C647.47,271.22 649.95,265.53 652.12,260.68C654.29,255.83 656.40,250.22 656.82,248.22C657.37,245.57 658.48,244.04 660.86,242.65C663.21,241.28 664.44,241.04 665.22,241.82C665.81,242.41 667.12,246.64 668.12,251.20C669.12,255.77 670.23,263.38 670.60,268.11C671.04,273.82 670.84,278.54 670.00,282.11C669.30,285.08 667.91,289.14 666.90,291.14C665.89,293.15 663.17,296.41 660.86,298.39C658.54,300.38 652.22,304.27 646.82,307.04C640.06,310.52 636.58,312.93 635.63,314.79C634.87,316.28 633.51,320.74 632.62,324.70C631.73,328.66 631.03,333.38 631.07,335.20C631.14,338.50 631.14,338.50 633.12,334.05C634.20,331.60 636.67,327.66 638.61,325.30C640.55,322.93 642.59,321.00 643.15,321.00C643.75,321.00 643.89,322.21 643.50,324.00C643.14,325.65 643.15,327.00 643.53,327.00C643.92,327.00 646.76,324.84 649.86,322.20C652.96,319.57 658.71,315.07 662.62,312.20C666.54,309.34 670.03,307.00 670.37,307.00C670.72,307.00 671.00,308.91 670.99,311.25C670.99,313.59 670.55,318.20 670.01,321.50C669.47,324.80 667.65,330.29 665.98,333.69C663.89,337.94 660.84,341.80 656.28,345.98C652.39,349.54 646.69,353.47 642.57,355.44C638.68,357.30 634.75,359.05 633.83,359.35C632.65,359.72 631.95,361.55 631.46,365.51C631.07,368.61 631.05,377.53 631.41,385.32C631.77,393.12 633.47,411.43 635.19,426.00C636.91,440.57 638.70,452.93 639.16,453.45C639.69,454.05 640.36,454.04 640.98,453.42C641.53,452.87 642.60,448.85 643.37,444.47C644.14,440.08 646.90,430.20 649.49,422.50C652.09,414.80 657.07,402.88 660.56,396.00C664.06,389.12 668.27,381.93 669.94,380.00C672.94,376.53 672.95,376.53 671.53,379.50C670.74,381.15 669.57,385.88 668.93,390.00C668.29,394.13 667.20,399.30 666.52,401.50C665.76,403.94 665.42,409.20 665.65,415.00C665.94,422.52 665.79,423.98 664.92,422.00C664.31,420.62 663.51,415.45 663.14,410.50C662.46,401.50 662.46,401.50 660.16,407.48C658.06,412.93 657.89,414.76 658.18,428.38C658.42,439.66 658.19,443.41 657.25,443.74C656.48,444.00 656.00,443.25 656.00,441.76C656.00,440.44 655.28,436.92 654.41,433.93C653.53,430.94 652.44,428.10 651.98,427.62C651.52,427.13 650.82,428.45 650.42,430.55C649.88,433.44 650.37,436.41 652.42,442.68C655.00,450.60 655.26,451.00 658.06,451.00C659.68,451.00 661.90,450.10 663.00,449.00C664.10,447.90 665.00,446.40 665.00,445.67C665.00,444.95 666.04,443.37 667.31,442.18C668.59,440.98 672.71,437.86 676.48,435.25C680.25,432.64 683.81,429.73 684.38,428.80C684.96,427.86 685.18,426.85 684.88,426.55C684.58,426.24 681.71,426.90 678.51,428.00C675.31,429.10 671.86,430.00 670.84,430.00C669.83,430.00 669.00,429.37 669.00,428.59C669.00,427.82 671.36,424.77 674.25,421.83C677.14,418.88 680.85,415.52 682.50,414.35C684.15,413.19 685.27,411.99 685.00,411.70C684.73,411.41 682.58,411.53 680.23,411.96C677.88,412.39 675.77,412.43 675.53,412.05C675.30,411.67 676.15,409.14 677.42,406.43C678.69,403.72 680.92,400.41 682.37,399.08C683.82,397.74 685.00,395.83 685.00,394.83C685.00,393.82 684.53,393.00 683.95,393.00C683.37,393.00 681.56,393.69 679.93,394.53C677.25,395.92 676.91,395.92 676.36,394.50C676.03,393.63 676.74,390.01 677.94,386.45C679.50,381.85 680.05,378.13 679.84,373.61C679.65,369.37 680.01,366.70 680.90,365.62C681.64,364.73 682.82,364.00 683.52,364.00C684.25,364.00 686.12,368.16 687.91,373.75C689.62,379.11 691.73,387.10 692.59,391.50C693.56,396.42 694.22,405.65 694.31,415.50C694.45,430.02 694.26,432.02 692.19,437.17C690.94,440.29 688.09,445.13 685.87,447.92C681.83,453.00 681.83,453.00 689.92,453.00C694.37,453.00 704.64,453.93 712.74,455.07C720.83,456.20 728.02,457.60 728.70,458.17C729.69,458.99 729.65,459.90 728.53,462.59C727.75,464.45 725.75,467.96 724.09,470.38C722.42,472.79 718.78,477.26 716.00,480.31C712.16,484.51 708.49,487.10 700.72,491.05C695.10,493.91 689.04,497.35 687.25,498.68C685.46,500.01 684.00,501.47 684.00,501.92C684.00,502.37 687.52,503.05 691.82,503.42C696.12,503.80 703.33,505.38 707.83,506.94C712.33,508.50 718.96,511.69 722.55,514.03C726.14,516.37 729.51,519.09 730.03,520.06C730.81,521.50 729.63,523.08 723.56,528.75C719.48,532.56 713.07,537.29 709.32,539.25C705.57,541.22 697.86,544.68 692.19,546.93C686.52,549.19 679.21,552.38 675.94,554.03C672.67,555.68 670.00,557.46 670.00,558.00C670.00,558.53 671.01,559.15 672.25,559.38C673.49,559.60 677.41,560.33 680.96,560.98C684.51,561.63 691.04,563.31 695.46,564.70C699.88,566.10 707.55,569.26 712.50,571.73C717.45,574.20 724.09,577.78 727.25,579.68C730.41,581.59 733.00,583.84 733.00,584.69C733.00,585.54 731.17,588.77 728.93,591.86C726.70,594.96 721.54,602.19 717.48,607.92C713.41,613.65 710.32,618.71 710.60,619.17C710.89,619.63 712.55,620.03 714.31,620.06C716.06,620.09 719.04,620.65 720.92,621.31C722.81,621.96 724.53,623.06 724.76,623.75C724.98,624.44 723.78,625.79 722.09,626.75C720.40,627.71 719.01,628.80 719.01,629.16C719.00,629.53 722.12,631.02 725.94,632.48C729.75,633.93 733.07,635.66 733.30,636.31C733.54,636.97 733.35,638.23 732.89,639.13C732.43,640.03 730.32,641.46 728.19,642.31C726.07,643.16 721.66,644.34 718.39,644.93C715.12,645.52 704.81,646.41 695.48,646.90C686.14,647.39 677.72,648.11 676.76,648.50C675.80,648.89 675.23,649.56 675.50,649.99C675.76,650.43 677.19,651.08 678.67,651.45C680.15,651.82 684.90,653.75 689.22,655.72C694.69,658.22 696.99,659.79 696.79,660.87C696.62,661.72 692.89,664.56 688.49,667.17C684.10,669.79 677.12,673.06 673.00,674.46C668.88,675.85 661.00,677.65 655.50,678.47C650.00,679.28 638.30,680.42 629.50,681.00C613.62,682.04 613.48,682.07 610.70,685.03C607.98,687.91 607.62,688.00 598.70,687.98C593.64,687.97 580.72,687.33 570.00,686.57C559.27,685.81 549.15,685.43 547.50,685.74C545.85,686.04 542.48,687.67 540.00,689.36C537.52,691.04 533.57,693.89 531.21,695.68C528.85,697.48 525.18,699.46 523.06,700.10C519.98,701.02 517.92,700.95 512.85,699.75C509.36,698.92 495.95,695.27 483.05,691.64C470.15,688.01 457.24,683.84 454.36,682.38C451.48,680.93 447.88,678.44 446.37,676.87C444.86,675.29 443.06,674.00 442.36,674.00C441.67,674.00 436.52,677.71 430.92,682.25C425.32,686.79 419.62,691.11 418.26,691.85C416.90,692.60 413.03,693.41 409.65,693.66C406.27,693.92 402.54,694.31 401.37,694.55C400.20,694.78 396.77,698.02 393.75,701.74C390.50,705.74 386.06,709.81 382.88,711.71C379.92,713.48 374.80,715.58 371.50,716.37C368.20,717.17 358.75,718.01 350.50,718.23zM549.45,715.40C545.08,715.67 539.03,715.45 536.01,714.92C532.99,714.38 529.85,713.28 529.03,712.45C527.93,711.36 527.81,710.53 528.58,709.31C529.15,708.40 531.39,707.03 533.56,706.26C536.20,705.32 540.48,704.97 546.54,705.21C553.33,705.48 556.45,706.08 559.04,707.59C560.94,708.70 562.50,710.26 562.50,711.04C562.50,711.83 561.35,713.02 559.95,713.70C558.54,714.37 553.82,715.14 549.45,715.40zM627.00,709.69C620.12,709.79 613.26,709.41 611.75,708.85C610.24,708.29 609.00,707.17 609.00,706.37C609.00,705.56 610.69,704.19 612.75,703.32C615.62,702.12 618.62,701.87 625.50,702.28C630.45,702.57 635.76,703.39 637.30,704.09C639.26,704.98 640.00,705.98 639.80,707.43C639.52,709.39 638.81,709.51 627.00,709.69zM180.00,707.25C178.07,707.48 173.12,707.40 169.00,707.08C164.88,706.76 160.94,706.14 160.25,705.69C159.56,705.25 159.00,704.25 159.00,703.48C159.00,702.70 159.96,701.56 161.13,700.93C162.30,700.31 166.68,699.56 170.88,699.27C176.51,698.89 179.48,699.17 182.25,700.33C184.88,701.43 186.00,702.52 186.00,703.98C186.00,705.13 185.44,706.24 184.75,706.45C184.06,706.67 181.93,707.03 180.00,707.25zM344.47,707.00C345.30,707.00 346.20,705.78 346.50,704.25C346.79,702.74 347.51,699.70 348.09,697.50C348.67,695.30 349.72,691.51 350.41,689.09C351.15,686.51 351.98,685.16 352.40,685.84C352.79,686.48 353.49,687.00 353.94,687.00C354.39,687.00 355.24,685.76 355.82,684.25C356.41,682.74 357.07,680.60 357.29,679.50C357.63,677.79 357.87,677.93 358.93,680.50C359.64,682.20 360.00,685.98 359.77,689.25C359.55,692.41 359.70,695.00 360.10,695.00C360.50,695.00 362.06,693.54 363.57,691.75C365.08,689.96 367.88,685.22 369.79,681.22C372.67,675.17 373.17,673.16 372.74,669.35C372.39,666.30 371.40,663.94 369.76,662.31C368.30,660.85 365.68,659.63 363.30,659.31C361.03,659.01 358.32,659.29 357.06,659.97C355.01,661.06 354.96,661.30 356.42,662.91C357.29,663.87 358.00,664.95 358.00,665.31C358.00,665.67 355.39,665.70 352.21,665.36C346.48,664.77 346.38,664.80 343.14,668.49C341.34,670.54 339.45,673.33 338.93,674.68C338.42,676.03 338.00,678.25 338.00,679.62C338.00,681.00 337.59,681.87 337.10,681.56C336.60,681.25 335.89,678.33 335.51,675.07C335.13,671.81 334.26,668.37 333.58,667.44C332.43,665.87 332.05,665.89 327.81,667.76C325.32,668.86 322.13,671.28 320.72,673.13C319.31,674.98 317.85,677.73 317.47,679.24C316.93,681.39 317.18,682.11 318.64,682.58C319.66,682.91 321.40,683.62 322.50,684.16C323.60,684.70 325.80,687.17 327.38,689.65C329.55,693.05 330.74,694.04 332.19,693.66C333.70,693.27 335.06,694.64 338.55,700.08C340.99,703.89 343.66,707.00 344.47,707.00zM516.00,692.86C516.27,692.93 517.52,686.81 518.76,679.25C520.00,671.69 521.03,663.70 521.04,661.50C521.05,658.79 521.33,657.98 521.91,659.00C522.38,659.83 523.34,665.12 524.04,670.76C525.30,680.83 525.36,680.98 527.27,679.26C528.34,678.29 530.69,674.58 532.49,671.00C534.30,667.42 536.68,661.54 537.80,657.93C538.91,654.32 540.12,649.35 540.49,646.89C540.99,643.60 540.63,640.89 539.14,636.66C538.03,633.49 535.60,628.79 533.76,626.20C531.91,623.62 530.03,620.89 529.58,620.15C528.93,619.09 529.16,619.02 530.63,619.82C531.66,620.38 534.52,623.32 537.00,626.37C539.48,629.41 542.12,631.92 542.89,631.95C544.01,631.99 544.14,630.54 543.57,624.25C543.19,619.99 542.39,614.25 541.81,611.50C541.23,608.75 539.69,604.48 538.40,602.00C537.11,599.52 535.47,596.81 534.77,595.96C534.07,595.11 531.82,593.15 529.76,591.60C527.70,590.04 521.85,587.44 516.76,585.81C509.57,583.51 505.04,582.74 496.50,582.39C485.75,581.93 485.56,581.96 488.00,583.70C489.38,584.68 491.78,586.73 493.35,588.26C495.13,590.00 495.97,591.64 495.59,592.63C495.25,593.51 495.84,595.64 496.91,597.36C497.97,599.09 500.23,604.01 501.93,608.31C503.63,612.61 506.37,621.42 508.01,627.89C509.65,634.36 511.46,643.22 512.04,647.58C512.61,651.93 513.43,660.90 513.87,667.50C514.30,674.10 514.51,679.68 514.34,679.90C514.17,680.13 513.30,678.57 512.41,676.44C511.52,674.31 509.72,666.70 508.41,659.53C507.09,652.37 505.31,642.90 504.45,638.50C503.59,634.10 502.65,629.71 502.37,628.75C502.09,627.79 501.02,627.00 499.99,627.00C498.46,627.00 498.05,626.12 497.80,622.26C497.57,618.64 497.07,617.44 495.71,617.18C494.73,616.99 492.14,617.77 489.96,618.90C487.78,620.04 486.00,620.68 486.00,620.32C486.00,619.97 487.82,617.27 490.04,614.33C494.08,608.98 494.08,608.98 491.49,605.57C490.06,603.70 488.21,601.91 487.37,601.59C486.52,601.26 484.70,601.00 483.30,601.00C480.78,601.00 480.78,600.99 482.54,598.30C484.31,595.60 484.31,595.60 479.90,591.77C477.48,589.67 473.13,586.78 470.23,585.35C466.21,583.36 464.08,582.89 461.25,583.35C459.21,583.68 456.44,584.77 455.09,585.78C453.73,586.80 452.45,588.14 452.24,588.77C452.03,589.41 453.01,590.22 454.43,590.57C455.84,590.93 456.98,591.73 456.96,592.36C456.95,592.99 456.29,594.62 455.50,596.00C454.71,597.38 454.05,599.03 454.04,599.69C454.01,600.50 455.17,600.68 457.75,600.27C461.50,599.66 461.50,599.66 457.55,604.58C455.38,607.29 452.35,610.98 450.80,612.78C448.89,615.02 448.00,617.18 448.00,619.57C448.00,621.49 449.19,625.41 450.64,628.28C452.09,631.15 454.83,635.95 456.74,638.94C458.65,641.93 462.75,647.05 465.86,650.33C468.96,653.61 478.33,661.38 486.69,667.59C495.04,673.80 504.94,682.00 508.69,685.81C512.43,689.62 515.73,692.79 516.00,692.86zM230.98,682.00C231.47,682.00 238.42,674.99 246.44,666.42C254.45,657.85 261.00,650.42 261.00,649.92C261.00,649.41 258.86,649.02 256.25,649.04C253.64,649.06 248.43,649.67 244.68,650.39C237.86,651.71 237.86,651.71 238.43,649.42C238.75,648.16 238.53,646.83 237.96,646.47C237.38,646.11 235.39,647.43 233.54,649.39C231.69,651.35 229.40,655.28 228.46,658.12C227.24,661.81 226.92,664.89 227.36,668.89C227.69,671.98 228.45,676.19 229.03,678.25C229.62,680.31 230.49,682.00 230.98,682.00zM262.60,676.74C263.64,676.42 271.25,673.39 279.50,669.99C287.75,666.59 294.73,663.59 295.00,663.32C295.27,663.05 294.44,661.97 293.14,660.91C291.84,659.86 289.93,659.00 288.89,659.00C287.85,659.00 287.00,658.32 287.00,657.49C287.00,656.66 286.10,655.21 285.00,654.27C283.90,653.33 283.00,651.98 283.00,651.28C283.00,650.57 282.09,650.00 280.97,650.00C279.85,650.00 277.49,650.62 275.72,651.38C273.95,652.14 271.06,654.28 269.30,656.13C267.54,657.98 265.20,661.54 264.10,664.04C262.99,666.54 261.78,670.55 261.39,672.95C260.76,676.93 260.86,677.26 262.60,676.74zM422.25,663.76C422.94,663.54 425.84,660.02 428.70,655.93C431.56,651.84 434.60,646.51 435.45,644.07C436.30,641.64 437.00,638.23 437.00,636.51C437.00,634.79 436.33,632.51 435.51,631.44C434.06,629.54 433.98,629.55 431.97,632.00C430.84,633.38 428.59,636.75 426.97,639.50C425.35,642.25 424.01,645.29 424.01,646.25C424.00,647.21 423.79,648.00 423.52,648.00C423.26,648.00 421.57,647.10 419.77,646.00C417.97,644.91 415.26,644.01 413.75,644.00C412.11,644.00 411.00,644.54 411.00,645.35C411.00,646.08 411.97,647.55 413.15,648.60C414.33,649.64 416.58,652.26 418.15,654.40C419.75,656.59 421.00,659.59 421.00,661.23C421.00,663.13 421.44,664.02 422.25,663.76zM594.54,662.98C601.14,662.99 607.88,662.40 611.29,661.51C614.43,660.69 619.81,658.85 623.25,657.42C626.69,655.99 637.60,650.83 647.50,645.95C658.61,640.47 668.75,634.65 674.00,630.73C678.68,627.24 686.55,619.93 691.50,614.49C696.45,609.05 704.71,600.22 709.86,594.88C715.01,589.53 718.94,584.71 718.59,584.15C718.25,583.60 716.34,582.61 714.35,581.95C712.36,581.29 709.25,579.75 707.44,578.52C705.63,577.30 699.50,574.62 693.83,572.58C687.90,570.45 679.88,568.42 675.00,567.82C670.33,567.24 659.08,566.98 650.00,567.23C635.56,567.63 632.59,568.00 626.24,570.25C622.24,571.66 616.75,574.24 614.03,575.98C611.31,577.73 606.39,582.03 603.11,585.55C599.82,589.06 595.26,595.09 592.97,598.94C590.68,602.78 587.48,609.36 585.85,613.56C584.12,618.01 583.02,622.55 583.20,624.48C583.50,627.77 583.50,627.77 600.87,611.73C610.42,602.92 617.94,596.60 617.60,597.70C617.25,598.80 616.29,603.21 615.47,607.50C614.65,611.80 614.15,615.48 614.36,615.70C614.57,615.91 616.07,614.97 617.68,613.61C619.30,612.26 622.56,607.54 624.93,603.13C627.30,598.73 630.31,594.12 631.62,592.89C632.92,591.66 634.25,590.92 634.57,591.23C634.88,591.55 634.58,593.66 633.90,595.93C633.01,598.90 632.97,600.37 633.75,601.15C634.53,601.93 635.63,601.82 637.67,600.78C639.22,599.98 644.85,596.98 650.18,594.11C657.12,590.37 663.19,588.04 671.68,585.86C680.29,583.65 685.96,582.80 692.57,582.73C697.56,582.68 703.77,583.24 706.37,583.96C709.62,584.87 710.79,585.61 710.08,586.32C709.51,586.89 702.40,587.70 694.28,588.12C686.15,588.55 677.25,589.55 674.50,590.35C671.75,591.14 667.64,592.48 665.36,593.31C663.09,594.15 659.83,595.56 658.11,596.44C656.40,597.33 655.00,598.41 655.00,598.84C655.00,599.28 658.37,600.43 662.49,601.40C666.61,602.37 670.23,603.57 670.53,604.05C670.84,604.54 669.93,605.23 668.51,605.59C667.10,605.94 661.57,606.55 656.22,606.93C648.21,607.51 646.93,607.82 648.96,608.67C651.43,609.70 651.43,609.70 649.11,610.94C647.41,611.85 647.08,612.48 647.89,613.29C648.50,613.90 649.00,614.72 649.00,615.10C649.00,615.49 644.74,615.96 639.53,616.15C632.37,616.42 629.66,616.91 628.40,618.17C626.85,619.73 627.19,619.97 633.62,621.92C637.40,623.06 641.12,624.40 641.88,624.89C642.92,625.56 642.54,625.94 640.38,626.40C638.80,626.74 633.00,626.95 627.50,626.85C619.90,626.72 616.74,627.08 614.31,628.33C612.56,629.24 610.82,630.49 610.44,631.10C610.05,631.72 610.36,632.62 611.12,633.10C612.19,633.77 612.08,633.97 610.62,633.98C609.58,633.99 607.11,634.98 605.12,636.18C603.13,637.38 599.81,639.67 597.75,641.26C595.69,642.86 594.00,644.81 594.00,645.58C594.00,646.62 595.36,647.00 599.06,647.00C601.84,647.00 608.48,647.51 613.81,648.14C619.14,648.77 623.82,649.56 624.21,649.90C624.60,650.24 623.39,651.57 621.52,652.85C619.65,654.13 615.51,656.25 612.31,657.56C607.48,659.55 604.73,659.96 596.00,659.99C590.23,660.01 584.45,660.31 583.17,660.65C581.42,661.12 581.17,661.49 582.17,662.12C582.90,662.59 588.47,662.98 594.54,662.98zM172.07,654.52C185.12,654.53 185.14,654.53 184.71,652.27C184.31,650.19 184.65,650.00 188.59,650.00C190.96,650.00 194.05,649.48 195.45,648.84C197.05,648.11 198.00,646.86 198.00,645.49C198.00,644.29 197.21,642.62 196.25,641.77C195.29,640.93 193.47,639.92 192.21,639.54C190.95,639.15 187.26,638.85 184.02,638.87C180.00,638.89 176.78,639.58 173.89,641.06C171.55,642.25 167.25,645.49 164.32,648.26C161.40,651.02 159.00,653.56 159.00,653.90C159.00,654.23 164.88,654.51 172.07,654.52zM316.69,651.97C317.35,651.99 318.18,651.52 318.54,650.93C318.90,650.35 324.24,646.55 330.40,642.50C336.56,638.45 343.76,632.82 346.41,629.99C351.23,624.84 351.23,624.84 350.80,618.88C350.50,614.70 349.78,612.33 348.40,610.95C347.31,609.87 345.04,608.59 343.35,608.10C341.65,607.61 339.71,607.56 339.03,607.98C338.15,608.53 338.11,608.95 338.89,609.43C339.50,609.81 340.00,610.57 340.00,611.12C340.00,611.66 339.00,611.41 337.78,610.56C336.56,609.70 334.07,609.00 332.25,609.00C330.44,609.00 325.55,610.43 321.39,612.17C317.04,614.00 311.78,617.19 308.99,619.70C306.33,622.09 302.88,626.06 301.33,628.52C299.77,630.98 298.19,633.00 297.81,633.00C297.43,633.00 297.78,631.08 298.58,628.73C299.38,626.38 302.39,621.35 305.27,617.55C308.14,613.74 312.75,609.10 315.50,607.23C318.25,605.36 320.64,603.45 320.81,602.97C320.99,602.50 319.19,601.60 316.81,600.97C314.44,600.33 309.57,598.84 306.00,597.66C300.84,595.94 297.13,595.50 288.00,595.51C278.35,595.53 275.74,595.88 271.79,597.69C268.39,599.25 266.89,600.60 266.41,602.52C266.04,603.98 266.30,607.04 266.98,609.32C267.66,611.59 269.61,615.49 271.31,617.98C273.00,620.46 276.89,625.14 279.95,628.37C283.00,631.60 288.15,636.29 291.39,638.78C294.62,641.28 300.47,644.73 304.39,646.45C308.30,648.16 312.40,650.10 313.50,650.75C314.60,651.40 316.04,651.95 316.69,651.97zM358.75,642.54C360.26,642.17 365.32,641.19 370.00,640.37C374.68,639.55 382.19,638.04 386.71,637.01C391.23,635.99 397.75,633.88 401.21,632.33C404.67,630.78 411.77,626.32 417.00,622.43C422.23,618.54 432.01,610.23 438.75,603.96C445.49,597.70 451.00,592.33 451.00,592.02C451.00,591.71 445.26,589.67 438.25,587.48C426.55,583.83 424.60,583.51 414.50,583.56C405.04,583.60 402.82,583.94 398.62,585.97C395.94,587.27 391.09,590.80 387.84,593.81C384.60,596.81 382.18,599.52 382.48,599.81C382.78,600.11 382.11,601.32 381.00,602.50C378.99,604.64 378.99,604.64 387.48,604.20C395.47,603.78 396.09,603.89 397.96,606.13C399.04,607.43 399.95,609.02 399.97,609.65C399.99,610.32 397.49,611.09 394.00,611.50C390.70,611.88 387.76,612.57 387.48,613.04C387.19,613.50 387.69,614.29 388.59,614.79C389.76,615.45 388.34,615.86 383.61,616.24C379.34,616.58 375.05,617.72 371.52,619.45C368.51,620.92 365.13,623.29 364.01,624.72C362.12,627.11 362.09,627.49 363.53,629.69C365.04,631.99 364.98,632.11 361.58,633.53C359.65,634.34 357.61,635.87 357.04,636.93C356.47,638.00 356.00,639.85 356.00,641.05C356.00,642.93 356.38,643.14 358.75,642.54zM214.25,635.33C216.04,634.87 225.60,634.50 235.50,634.50C245.40,634.50 257.07,634.88 261.44,635.35C269.38,636.21 269.38,636.21 267.82,633.85C266.96,632.56 264.24,630.46 261.76,629.18C259.29,627.91 254.34,626.37 250.77,625.75C245.59,624.87 244.37,624.32 244.70,623.02C244.96,622.05 244.21,620.96 242.81,620.29C241.54,619.68 239.60,618.87 238.50,618.49C236.62,617.84 236.65,617.74 239.00,616.82C240.38,616.28 244.88,616.07 249.00,616.34C253.12,616.61 257.72,617.14 259.21,617.52C261.86,618.20 261.90,618.14 261.01,615.04C260.51,613.30 259.29,610.21 258.30,608.18C256.77,605.06 255.94,604.45 252.82,604.19C250.79,604.03 247.31,604.38 245.08,604.98C242.85,605.58 237.98,608.14 234.26,610.68C230.54,613.21 225.29,617.12 222.59,619.37C219.90,621.61 216.18,625.80 214.34,628.67C212.51,631.55 211.00,634.41 211.00,635.03C211.00,635.81 212.01,635.90 214.25,635.33zM194.59,634.00C194.78,634.00 198.58,629.40 203.04,623.77C207.49,618.15 210.64,613.38 210.05,613.18C209.46,612.99 206.99,613.99 204.56,615.41C202.13,616.84 199.89,618.00 199.58,618.00C199.27,618.00 200.36,615.82 202.01,613.15C203.65,610.48 210.73,602.95 217.75,596.43C224.76,589.91 231.32,583.54 232.32,582.29C234.14,580.00 234.14,580.00 231.03,580.00C229.32,580.00 226.03,580.96 223.71,582.13C221.39,583.31 217.64,585.60 215.37,587.22C213.09,588.84 208.91,593.29 206.07,597.09C203.23,600.90 199.59,606.80 197.98,610.21C196.36,613.62 194.31,619.70 193.42,623.73C192.12,629.54 192.04,631.35 193.02,632.52C193.69,633.33 194.40,634.00 194.59,634.00zM558.25,620.79C558.94,620.58 560.58,618.25 561.90,615.60C563.60,612.23 565.29,604.85 567.61,590.77C569.43,579.75 571.41,568.21 572.02,565.12C572.63,562.03 573.79,557.44 574.59,554.91C575.40,552.39 577.39,549.04 579.03,547.47C580.66,545.91 582.00,545.07 582.00,545.61C582.00,546.16 581.59,547.03 581.09,547.55C580.59,548.07 579.47,550.94 578.59,553.93C577.72,556.92 577.00,559.73 577.00,560.18C577.00,560.63 577.43,561.00 577.95,561.00C578.48,561.00 581.95,558.30 585.66,555.00C589.38,551.70 592.75,549.00 593.16,549.00C593.56,549.00 594.04,551.36 594.22,554.25C594.40,557.14 594.82,558.83 595.15,558.00C595.48,557.17 596.96,552.00 598.45,546.50C599.93,541.00 604.03,529.03 607.57,519.90C611.11,510.77 614.00,502.39 614.00,501.29C614.00,499.73 612.28,498.55 606.31,496.05C602.08,494.27 595.22,491.93 591.06,490.83C586.18,489.55 579.95,488.81 573.50,488.74C565.45,488.65 562.62,489.03 559.00,490.65C556.52,491.77 553.88,493.42 553.13,494.34C552.37,495.25 551.44,496.00 551.05,496.00C550.67,496.00 547.55,493.58 544.14,490.62C540.72,487.66 535.30,483.84 532.10,482.13C528.89,480.42 522.50,478.14 517.88,477.06C513.27,475.97 502.83,474.48 494.69,473.74C486.54,473.01 479.65,472.75 479.39,473.18C479.12,473.61 479.16,475.44 479.46,477.23C479.77,479.03 480.47,487.44 481.01,495.92C481.55,504.40 482.69,515.31 483.53,520.16C484.37,525.01 486.00,532.02 487.14,535.74C488.29,539.46 490.62,545.36 492.32,548.85C494.02,552.34 498.38,558.52 502.01,562.59C505.64,566.65 510.39,571.49 512.56,573.34C514.73,575.19 518.00,577.48 519.84,578.43C521.68,579.37 523.39,579.94 523.64,579.69C523.89,579.45 523.11,577.05 521.92,574.37C520.72,571.69 519.32,568.67 518.80,567.65C518.28,566.64 518.03,565.64 518.23,565.44C518.43,565.24 521.27,566.88 524.55,569.09C527.82,571.30 532.19,573.99 534.25,575.07C537.32,576.68 538.00,576.77 538.00,575.57C538.00,574.76 535.80,571.49 533.12,568.30C530.43,565.11 526.34,560.70 524.03,558.50C521.72,556.30 517.81,551.87 515.34,548.65C512.88,545.43 511.01,542.67 511.18,542.51C511.36,542.36 515.50,543.99 520.38,546.15C525.26,548.31 529.49,549.84 529.77,549.56C530.05,549.28 526.39,544.97 521.64,539.98C516.89,534.98 513.00,530.49 513.00,529.99C513.00,529.49 515.81,530.42 519.25,532.04C522.69,533.67 526.06,535.00 526.75,535.00C527.44,535.00 528.00,534.59 528.00,534.09C528.00,533.59 525.99,530.72 523.54,527.70C521.08,524.69 516.47,519.87 513.29,516.99C507.50,511.75 507.50,511.75 510.94,512.39C512.83,512.74 516.67,514.08 519.48,515.36C522.29,516.65 526.24,519.15 528.24,520.91C530.25,522.67 534.23,527.26 537.08,531.11C539.93,534.95 545.02,543.57 548.38,550.26C551.75,556.95 555.06,562.59 555.75,562.80C556.44,563.00 557.27,562.47 557.59,561.62C557.92,560.77 556.99,557.47 555.53,554.29C554.08,551.11 549.58,543.54 545.55,537.48C540.78,530.32 534.26,522.44 526.93,514.98C520.72,508.67 512.24,499.95 508.07,495.60C500.50,487.71 500.50,487.71 506.91,492.10C510.44,494.52 515.83,498.86 518.89,501.75C521.95,504.64 524.60,507.00 524.79,507.00C524.98,507.00 524.85,505.99 524.50,504.75C524.02,503.03 524.11,502.85 524.89,503.98C525.44,504.79 526.19,507.16 526.54,509.23C526.89,511.30 527.53,513.00 527.96,513.00C528.39,513.00 529.05,510.71 529.42,507.92C529.99,503.59 530.31,503.01 531.56,504.05C532.37,504.72 534.66,508.36 536.64,512.14C538.62,515.91 540.62,519.00 541.08,519.00C541.53,519.00 542.37,517.31 542.95,515.25C543.52,513.19 543.99,510.85 543.99,510.05C544.00,509.11 544.34,508.94 544.98,509.58C545.51,510.11 547.29,515.66 548.93,521.90C550.57,528.13 552.15,533.48 552.45,533.79C552.75,534.09 553.25,534.09 553.55,533.79C553.85,533.48 554.59,528.91 555.19,523.62C555.79,518.33 556.66,514.00 557.11,514.00C557.57,514.00 558.82,517.04 559.90,520.75C560.97,524.46 562.12,528.76 562.45,530.29C562.79,531.83 563.44,532.84 563.91,532.55C564.38,532.26 566.22,528.42 568.00,524.00C569.78,519.58 571.63,515.73 572.12,515.43C572.60,515.13 573.00,516.03 573.00,517.44C573.00,518.85 573.56,519.98 574.25,519.95C574.94,519.92 577.52,517.39 580.00,514.33C582.48,511.26 587.14,506.54 590.36,503.82C593.59,501.11 596.46,499.13 596.75,499.42C597.04,499.71 593.60,503.82 589.12,508.56C582.67,515.36 580.04,519.10 576.60,526.34C574.20,531.38 571.52,538.20 570.64,541.50C569.76,544.80 567.70,556.05 566.06,566.50C564.41,576.95 561.70,592.21 560.03,600.41C558.37,608.60 557.00,616.63 557.00,618.24C557.00,620.12 557.45,621.03 558.25,620.79zM352.27,605.00C352.90,605.00 356.16,602.19 359.51,598.75C363.02,595.14 367.73,588.70 370.65,583.50C373.43,578.55 376.88,571.53 378.32,567.90C379.80,564.17 381.39,557.43 381.96,552.40C382.52,547.50 382.99,540.44 382.99,536.71C383.00,532.97 383.70,526.55 384.55,522.44C385.39,518.32 385.82,514.52 385.49,513.98C385.14,513.41 378.68,513.00 370.19,513.00C358.53,513.00 354.06,513.41 348.56,514.98C344.74,516.07 339.12,518.62 336.06,520.63C333.00,522.65 327.43,527.49 323.67,531.38C317.61,537.67 316.93,538.12 317.56,535.48C317.95,533.84 318.84,531.83 319.54,531.00C320.25,530.17 320.91,528.83 321.03,528.00C321.14,527.17 321.18,525.91 321.12,525.19C321.05,524.48 318.41,522.68 315.25,521.19C309.64,518.56 309.04,518.50 290.50,518.50C280.05,518.50 270.94,518.14 270.25,517.69C269.56,517.25 268.55,517.16 268.00,517.50C267.45,517.84 267.01,521.35 267.01,525.31C267.02,529.26 267.70,535.42 268.52,539.00C269.35,542.58 270.54,546.51 271.17,547.73C271.80,548.96 273.14,550.23 274.15,550.55C275.16,550.87 276.39,550.88 276.89,550.57C277.42,550.24 277.21,548.03 276.40,545.34C275.63,542.78 275.00,539.65 275.00,538.39C275.00,536.10 275.00,536.10 279.09,538.28C281.34,539.48 287.70,545.04 293.22,550.63C298.75,556.22 304.20,562.26 305.33,564.05C306.47,565.85 307.58,566.77 307.80,566.10C308.02,565.44 307.03,561.14 305.60,556.54C304.17,551.95 301.48,545.94 299.62,543.18C297.76,540.41 296.77,538.36 297.43,538.61C298.08,538.86 301.04,541.86 304.00,545.28C306.96,548.70 309.99,552.17 310.72,553.00C311.45,553.83 313.07,556.08 314.32,558.00C315.56,559.92 317.24,561.50 318.04,561.50C319.07,561.50 319.67,559.88 320.09,556.00C320.42,552.98 321.30,548.81 322.04,546.75C322.79,544.69 323.68,543.00 324.02,543.00C324.36,543.00 326.18,547.27 328.07,552.49C329.96,557.71 331.85,561.98 332.27,561.99C332.70,562.00 333.48,560.86 334.01,559.48C334.54,558.09 336.49,554.57 338.36,551.65C340.23,548.73 344.74,542.92 348.39,538.74C352.29,534.27 358.16,529.03 362.60,526.06C366.76,523.28 370.62,521.00 371.18,521.00C371.73,521.00 370.17,523.24 367.71,525.98C365.25,528.71 361.11,534.36 358.51,538.53C355.92,542.70 352.54,549.57 351.02,553.80C349.49,558.04 347.89,562.36 347.45,563.41C346.74,565.14 346.99,565.25 350.08,564.62C351.96,564.24 355.52,563.69 358.00,563.41C362.50,562.90 362.50,562.90 359.00,565.70C357.07,567.24 352.46,571.65 348.74,575.50C341.98,582.50 341.98,582.50 345.24,583.03C347.03,583.32 350.30,583.24 352.50,582.85C354.70,582.46 357.26,581.85 358.20,581.48C359.61,580.94 359.81,581.30 359.40,583.66C359.12,585.22 357.79,588.75 356.44,591.50C355.10,594.25 353.06,597.95 351.92,599.72C350.78,601.49 350.13,603.41 350.48,603.97C350.83,604.54 351.63,605.00 352.27,605.00zM195.00,588.50C195.44,587.40 196.98,582.71 198.43,578.07C199.88,573.44 202.60,567.14 204.47,564.07C206.34,561.01 209.94,556.08 212.48,553.11C215.02,550.15 220.56,544.57 224.80,540.72C229.03,536.86 236.14,530.66 240.60,526.93C245.05,523.20 251.58,517.37 255.10,513.98C258.62,510.59 262.85,507.40 264.49,506.90C266.14,506.41 268.33,506.00 269.35,506.00C270.95,506.00 271.13,506.51 270.57,509.50C270.20,511.43 270.27,512.99 270.70,512.99C271.14,512.98 274.10,511.66 277.28,510.04C280.46,508.43 285.09,506.81 287.57,506.44C290.06,506.06 291.85,505.52 291.55,505.22C291.26,504.93 291.45,504.16 291.98,503.52C292.62,502.76 292.43,501.63 291.43,500.20C290.59,499.01 288.02,496.74 285.71,495.16C283.39,493.59 278.96,491.35 275.85,490.20C272.74,489.05 264.21,486.96 256.88,485.55C249.56,484.15 242.65,483.01 241.53,483.02C240.41,483.02 238.91,483.40 238.20,483.86C237.48,484.31 235.30,491.17 233.34,499.09C231.39,507.02 229.16,514.72 228.39,516.20C227.63,517.69 223.26,522.03 218.68,525.85C214.11,529.67 207.57,535.84 204.16,539.57C200.54,543.52 196.33,549.58 194.05,554.13C191.78,558.67 189.87,564.17 189.48,567.31C189.03,570.91 189.31,574.66 190.33,578.60C191.16,581.84 192.38,585.85 193.03,587.50C194.12,590.24 194.28,590.33 195.00,588.50zM294.32,584.90C294.78,584.96 295.00,584.21 294.82,583.25C294.61,582.11 292.23,580.70 288.00,579.20C281.50,576.89 281.50,576.89 286.25,577.43C290.67,577.92 291.00,577.80 291.00,575.71C291.00,574.48 289.86,571.78 288.46,569.73C287.07,567.68 286.14,566.00 286.41,566.00C286.67,566.00 288.60,566.99 290.69,568.19C292.79,569.40 297.09,572.40 300.26,574.85C303.43,577.30 306.30,579.04 306.63,578.70C306.97,578.37 306.11,576.15 304.72,573.78C303.33,571.41 299.75,567.17 296.77,564.35C293.79,561.53 289.44,558.24 287.10,557.05C284.48,555.72 279.32,554.48 273.67,553.84C268.63,553.26 261.08,553.07 256.89,553.41C252.71,553.75 246.86,554.74 243.89,555.62C240.93,556.50 236.25,558.36 233.50,559.75C230.75,561.13 226.58,563.59 224.23,565.20C221.88,566.81 220.18,568.49 220.46,568.93C220.73,569.37 225.35,569.98 230.73,570.28C238.47,570.71 243.20,571.69 253.50,575.01C260.65,577.32 272.57,580.47 280.00,582.01C287.43,583.54 293.87,584.85 294.32,584.90zM452.25,571.90C452.66,571.96 453.00,571.64 453.00,571.20C453.00,570.75 451.54,568.98 449.75,567.26C447.96,565.54 443.87,562.55 440.66,560.62C437.44,558.70 431.73,556.42 427.96,555.56C424.19,554.70 418.79,554.00 415.95,554.00C413.12,554.00 409.18,554.77 407.20,555.71C405.22,556.65 401.66,559.27 399.30,561.54C396.89,563.84 395.00,566.59 395.00,567.77C395.00,569.80 395.16,569.83 399.25,568.52C401.59,567.77 406.99,566.94 411.25,566.66C418.92,566.16 419.00,566.18 419.00,568.58C419.00,569.91 419.17,571.00 419.37,571.00C419.58,571.00 421.90,570.05 424.54,568.88C428.87,566.97 429.96,566.87 435.91,567.86C439.54,568.46 444.52,569.60 447.00,570.38C449.48,571.16 451.84,571.85 452.25,571.90zM326.86,571.00C327.41,571.00 328.13,570.17 328.45,569.16C328.77,568.15 328.09,565.20 326.94,562.59C324.94,558.08 324.74,557.93 322.67,559.29C321.48,560.08 320.36,561.69 320.18,562.87C319.98,564.21 320.98,566.13 322.85,568.01C324.50,569.65 326.30,571.00 326.86,571.00zM478.29,558.93C478.72,558.97 478.53,557.99 477.87,556.75C477.20,555.51 474.15,551.86 471.08,548.63C468.01,545.40 462.35,540.62 458.49,538.01C454.64,535.40 447.89,531.46 443.49,529.25C439.10,527.04 431.68,524.00 427.00,522.50C420.94,520.54 415.59,519.61 408.33,519.25C402.73,518.97 396.99,519.04 395.58,519.39C393.72,519.86 393.00,520.70 393.00,522.38C393.00,523.67 393.95,525.94 395.11,527.41C396.27,528.88 401.78,532.38 407.36,535.18C412.94,537.98 421.96,541.81 427.42,543.69C437.34,547.11 437.34,547.11 439.56,544.32C441.39,542.03 442.53,541.55 445.90,541.64C448.55,541.71 452.69,543.12 457.53,545.62C461.67,547.75 467.86,551.60 471.28,554.17C474.70,556.74 477.85,558.88 478.29,558.93zM652.23,554.23C652.62,554.06 654.58,551.46 656.57,548.46C658.56,545.46 662.28,540.68 664.83,537.85C667.37,535.02 671.27,531.88 673.48,530.87C675.69,529.87 679.62,529.03 682.21,529.02C684.80,529.01 690.88,528.08 695.71,526.96C700.55,525.83 707.54,523.52 711.25,521.81C714.96,520.10 718.00,518.35 718.00,517.92C718.00,517.50 714.51,515.80 710.25,514.16C705.99,512.52 699.83,510.69 696.57,510.09C693.30,509.49 687.45,509.01 683.57,509.01C679.68,509.02 673.62,509.71 670.10,510.54C666.58,511.37 660.73,513.61 657.10,515.53C653.47,517.44 648.36,520.84 645.75,523.08C643.14,525.32 641.00,527.51 641.00,527.95C641.00,528.38 643.59,528.13 646.75,527.38C649.91,526.63 654.64,526.13 657.25,526.26C659.86,526.39 661.99,526.77 662.00,527.09C662.00,527.42 658.74,528.95 654.75,530.49C650.76,532.03 645.59,534.39 643.26,535.74C640.93,537.08 636.99,540.24 634.51,542.75C632.03,545.27 630.00,547.75 630.00,548.27C630.00,548.79 630.79,548.88 631.75,548.48C632.71,548.08 635.30,547.38 637.50,546.92C639.70,546.46 643.24,546.07 645.36,546.04C649.21,546.00 649.21,546.00 645.95,549.05C644.03,550.84 643.06,552.45 643.60,552.97C644.09,553.46 646.08,554.01 648.00,554.20C649.92,554.39 651.83,554.40 652.23,554.23zM463.15,532.00C463.70,532.00 464.00,530.54 463.83,528.75C463.54,525.88 463.76,525.54 465.75,525.81C466.99,525.98 468.00,525.63 468.00,525.02C468.00,524.40 465.86,521.79 463.25,519.20C460.64,516.62 455.90,513.24 452.71,511.70C449.53,510.16 442.13,507.35 436.28,505.45C430.42,503.55 424.37,502.00 422.84,502.00C420.25,502.00 420.12,502.18 421.14,504.41C422.07,506.46 421.83,507.36 419.53,510.37C418.05,512.32 417.12,514.38 417.47,514.96C417.83,515.53 420.72,516.00 423.90,516.00C427.08,516.00 433.20,516.90 437.50,518.00C441.81,519.10 447.17,521.14 449.41,522.54C451.66,523.93 455.45,526.63 457.83,528.54C460.21,530.44 462.60,532.00 463.15,532.00zM619.64,526.50C621.05,524.85 624.68,520.67 627.70,517.21C630.72,513.76 636.32,508.23 640.15,504.94C643.98,501.64 647.51,499.20 648.00,499.50C648.49,499.80 651.48,498.39 654.64,496.37C657.80,494.34 664.65,490.67 669.86,488.20C675.07,485.74 681.35,483.49 683.81,483.21C687.03,482.85 688.10,483.03 687.59,483.85C687.20,484.48 687.41,485.00 688.05,485.00C688.69,485.00 690.99,483.60 693.15,481.88C695.32,480.16 696.88,478.54 696.61,478.28C696.35,478.01 693.74,477.51 690.82,477.15C687.89,476.79 685.54,476.05 685.59,475.50C685.64,474.95 691.45,471.39 698.51,467.58C710.20,461.28 711.12,460.58 708.92,459.72C707.59,459.20 701.77,458.74 696.00,458.69C688.19,458.63 684.57,459.03 681.87,460.27C679.87,461.18 671.55,467.26 663.37,473.78C655.19,480.31 645.23,489.15 641.24,493.43C637.25,497.72 631.27,504.83 627.95,509.23C624.63,513.64 620.81,519.42 619.46,522.09C618.11,524.75 617.01,527.51 617.03,528.22C617.05,528.92 618.22,528.15 619.64,526.50zM212.75,515.46C214.81,514.60 217.96,512.48 219.75,510.75C221.54,509.02 223.00,507.24 223.00,506.78C223.00,506.33 221.76,506.26 220.25,506.62C218.74,506.98 216.27,507.90 214.77,508.66C213.26,509.41 211.35,511.35 210.52,512.97C209.68,514.58 209.00,516.15 209.00,516.46C209.00,516.77 210.69,516.32 212.75,515.46zM340.50,514.00C341.74,514.00 343.37,513.26 344.13,512.35C345.25,510.99 345.51,501.54 345.54,460.60C345.56,433.04 345.27,397.68 344.89,382.00C344.36,360.47 343.69,350.44 342.12,341.00C340.97,334.12 339.60,320.85 339.06,311.50C338.51,302.15 337.81,285.73 337.49,275.00C337.18,264.27 336.47,248.07 335.92,239.00C335.37,229.93 334.24,219.14 333.41,215.03C332.57,210.92 331.74,207.40 331.54,207.21C331.35,207.02 330.83,208.81 330.39,211.18C329.94,213.56 329.67,239.80 329.79,269.50C329.90,299.20 330.47,347.57 331.05,377.00C331.62,406.43 332.52,446.02 333.05,465.00C333.57,483.98 334.50,502.20 335.12,505.50C335.74,508.80 336.69,512.06 337.24,512.75C337.79,513.44 339.26,514.00 340.50,514.00zM315.22,510.18C315.93,509.47 315.74,505.61 314.62,497.83C313.72,491.60 312.99,486.09 312.99,485.60C313.00,485.10 313.90,485.50 315.00,486.50C316.10,487.50 317.00,487.88 317.00,487.36C317.00,486.84 314.33,481.00 311.07,474.39C306.00,464.11 304.18,461.46 298.53,456.18C294.04,451.98 291.12,450.00 289.40,450.00C286.87,450.00 286.87,450.00 290.42,454.34C292.37,456.72 295.97,462.91 298.40,468.09C300.84,473.26 304.90,484.16 307.41,492.30C309.92,500.44 312.48,508.02 313.08,509.16C313.84,510.57 314.51,510.89 315.22,510.18zM464.38,498.50C465.00,498.32 466.76,497.89 468.29,497.55C469.83,497.22 470.85,496.56 470.56,496.09C470.27,495.63 467.89,494.72 465.27,494.08C462.65,493.44 459.71,492.67 458.75,492.39C457.60,492.04 457.00,492.41 457.00,493.45C457.00,494.32 458.41,495.89 460.13,496.93C461.85,497.98 463.76,498.69 464.38,498.50zM621.29,495.00C622.00,495.00 624.81,492.72 627.54,489.93C630.27,487.14 635.69,482.71 639.58,480.10C643.48,477.48 651.69,473.15 657.83,470.48C663.97,467.82 669.97,464.59 671.17,463.32C672.36,462.05 673.00,460.67 672.59,460.26C672.18,459.85 666.82,459.35 660.67,459.16C654.53,458.96 646.92,459.28 643.77,459.86C640.61,460.45 635.53,462.11 632.47,463.56C629.41,465.00 624.26,468.64 621.02,471.65C617.77,474.65 613.74,479.18 612.06,481.72C610.38,484.26 609.00,486.75 609.00,487.24C609.00,487.73 609.87,487.86 610.92,487.52C612.36,487.07 613.19,487.62 614.18,489.71C614.94,491.30 616.48,492.64 617.76,492.82C618.99,493.00 620.00,493.56 620.00,494.07C620.00,494.58 620.58,495.00 621.29,495.00zM464.23,484.00C465.21,484.00 466.00,483.56 466.00,483.03C466.00,482.50 463.64,480.31 460.75,478.16C457.86,476.01 454.45,473.71 453.16,473.04C451.88,472.38 450.57,472.10 450.24,472.42C449.92,472.75 450.98,474.65 452.60,476.65C454.22,478.65 457.11,481.12 459.01,482.14C460.91,483.17 463.26,484.00 464.23,484.00zM586.40,483.00C587.32,483.00 589.06,481.31 590.27,479.25C591.48,477.19 595.53,471.00 599.27,465.50C604.96,457.14 606.65,453.62 609.62,444.00C611.57,437.68 614.67,428.45 616.51,423.50C618.34,418.55 620.84,410.68 622.06,406.00C623.27,401.32 624.48,395.81 624.74,393.75C625.02,391.51 624.79,390.00 624.16,390.00C623.59,390.00 619.77,392.70 615.67,395.99C611.58,399.28 604.83,405.59 600.69,409.99C596.54,414.40 591.10,421.08 588.61,424.84C586.11,428.59 582.23,435.49 580.00,440.15C577.53,445.29 575.51,451.32 574.87,455.43C574.15,460.03 574.14,462.54 574.83,463.23C575.52,463.92 576.83,463.55 578.89,462.08C581.94,459.91 581.94,459.91 582.41,462.20C582.67,463.47 583.10,466.52 583.37,468.98C583.65,471.44 584.34,473.61 584.91,473.80C585.54,474.01 585.70,475.87 585.33,478.57C584.83,482.28 585.00,483.00 586.40,483.00zM528.57,474.00C528.88,474.00 530.11,473.50 531.32,472.89C532.52,472.28 538.79,466.55 545.25,460.16C555.52,449.99 557.00,448.12 557.00,445.23C557.00,443.42 556.35,440.38 555.55,438.47C554.75,436.56 553.66,435.00 553.13,435.00C552.59,435.00 551.63,436.59 550.99,438.54C550.34,440.49 550.08,442.77 550.40,443.60C550.72,444.44 550.35,446.34 549.57,447.81C548.79,449.29 545.82,452.75 542.97,455.50C540.11,458.25 535.58,463.11 532.89,466.30C530.20,469.49 528.00,472.53 528.00,473.05C528.00,473.57 528.25,474.00 528.57,474.00zM510.98,467.00C511.39,467.00 512.01,464.64 512.35,461.75C512.70,458.86 512.99,453.46 512.99,449.75C513.00,446.04 513.42,443.00 513.94,443.00C514.46,443.00 515.02,444.91 515.19,447.25C515.44,450.71 515.85,451.47 517.38,451.34C519.06,451.20 519.21,451.74 518.76,456.34C518.49,459.18 518.47,462.06 518.71,462.75C518.96,463.44 519.52,464.00 519.95,464.00C520.38,464.00 521.97,462.76 523.48,461.25C524.99,459.74 528.16,454.68 530.53,450.00C532.89,445.32 536.78,439.24 539.16,436.47C541.55,433.70 545.41,429.71 547.75,427.60C550.09,425.49 552.00,423.14 552.00,422.38C552.00,421.62 551.29,421.00 550.42,421.00C549.56,421.00 547.64,422.26 546.17,423.81C544.70,425.36 541.05,429.48 538.05,432.97C535.06,436.46 532.44,438.81 532.23,438.19C532.02,437.57 532.57,433.56 533.44,429.27C534.87,422.28 534.88,420.96 533.53,416.41C532.70,413.63 530.30,408.68 528.18,405.40C526.07,402.13 521.50,397.09 518.04,394.19C514.57,391.29 511.23,389.08 510.62,389.28C510.00,389.47 507.35,392.74 504.72,396.54C501.80,400.77 498.95,406.56 497.38,411.48C495.24,418.17 494.90,420.68 495.38,426.62C495.70,430.54 496.42,434.96 496.98,436.45C497.55,437.94 498.57,438.98 499.26,438.75C499.99,438.51 500.94,434.91 501.58,429.92C502.17,425.29 503.26,418.91 503.99,415.75C504.72,412.59 505.64,410.00 506.04,410.00C506.43,410.00 507.00,420.91 507.29,434.25C507.60,448.51 508.32,460.25 509.03,462.75C509.70,465.09 510.58,467.00 510.98,467.00zM173.80,461.96C175.06,461.98 177.23,460.86 178.63,459.46C180.62,457.47 180.92,456.61 180.03,455.53C179.25,454.60 176.80,454.18 172.39,454.25C168.82,454.30 165.70,454.68 165.45,455.08C165.20,455.49 165.27,456.55 165.62,457.44C165.96,458.33 167.42,459.70 168.87,460.49C170.32,461.28 172.53,461.94 173.80,461.96zM466.09,443.94C466.44,439.78 467.27,435.37 467.92,434.15C468.58,432.93 468.81,430.93 468.43,429.71C468.06,428.50 466.28,425.68 464.48,423.45C462.68,421.23 458.42,417.69 455.01,415.59C451.07,413.16 448.48,412.12 447.87,412.73C447.34,413.26 446.91,416.34 446.89,419.59C446.88,422.84 447.04,426.94 447.24,428.70C447.44,430.47 448.48,432.87 449.54,434.04C450.60,435.21 453.63,437.76 456.27,439.70C458.91,441.64 462.06,445.09 463.26,447.36C465.44,451.50 465.44,451.50 466.09,443.94zM160.92,448.92C161.70,448.96 163.17,448.26 164.17,447.35C165.18,446.43 166.00,444.89 166.00,443.90C166.00,442.92 165.56,441.84 165.02,441.51C164.48,441.18 162.45,441.20 160.52,441.56C157.49,442.13 157.00,442.61 157.00,445.03C157.00,446.57 157.56,448.06 158.25,448.34C158.94,448.62 160.14,448.88 160.92,448.92zM459.85,436.00C459.21,436.00 456.96,434.18 454.85,431.96C452.73,429.73 451.00,427.07 451.00,426.04C451.00,425.01 450.70,423.38 450.33,422.42C449.85,421.17 450.02,420.89 450.91,421.45C451.60,421.87 454.15,424.92 456.58,428.22C459.01,431.52 461.00,434.62 461.00,435.11C461.00,435.60 460.48,436.00 459.85,436.00zM563.66,434.67C563.88,434.45 564.73,426.67 565.53,417.38C566.34,408.10 567.52,396.09 568.16,390.70C568.80,385.31 569.65,381.44 570.06,382.09C570.46,382.74 571.08,392.55 571.43,403.89C571.78,415.23 572.31,426.03 572.61,427.89C573.06,430.76 573.35,431.07 574.48,429.89C575.21,429.13 576.64,426.25 577.64,423.50C579.33,418.87 579.49,413.22 579.79,347.30C580.12,276.11 580.12,276.11 573.60,271.99C570.02,269.73 564.88,265.46 562.18,262.50C559.21,259.26 556.26,254.61 554.73,250.79C553.33,247.31 551.88,242.22 551.49,239.48C550.80,234.50 550.80,234.50 553.80,239.13C555.45,241.68 557.30,244.07 557.90,244.44C558.51,244.81 559.00,244.63 559.00,244.04C559.00,243.45 561.75,244.36 565.10,246.05C568.46,247.75 571.39,248.94 571.63,248.70C571.86,248.47 570.87,244.14 569.42,239.08C567.97,234.03 567.06,229.61 567.40,229.27C567.74,228.92 569.48,230.14 571.26,231.96C574.50,235.28 574.50,235.28 575.02,232.39C575.32,230.76 575.85,229.98 576.24,230.61C576.63,231.22 578.10,235.38 579.52,239.86C580.93,244.34 582.52,248.00 583.04,248.00C583.60,248.00 584.01,242.67 584.04,235.25C584.05,228.24 584.50,216.43 585.03,209.00C585.56,201.57 585.70,185.47 585.34,173.22C584.89,157.81 584.35,151.05 583.59,151.29C582.99,151.49 579.21,156.34 575.19,162.08C571.16,167.81 565.42,176.58 562.42,181.58C559.42,186.57 554.21,197.59 550.85,206.06C546.58,216.81 544.59,223.29 544.25,227.50C543.94,231.30 544.36,235.85 545.37,239.81C546.26,243.27 548.57,249.53 550.51,253.73C554.04,261.37 554.04,261.37 555.52,299.93C556.33,321.14 557.69,353.80 558.53,372.50C559.37,391.20 560.46,412.12 560.95,419.00C561.44,425.88 562.16,432.31 562.55,433.29C562.93,434.28 563.43,434.90 563.66,434.67zM121.75,388.01C122.16,388.01 126.60,383.74 131.60,378.51C136.61,373.28 141.26,369.00 141.94,369.00C142.87,369.00 143.00,370.84 142.47,376.51C141.80,383.58 141.87,383.99 143.63,383.36C144.66,382.99 146.14,382.20 146.92,381.59C147.71,380.99 151.01,377.12 154.27,373.00C157.53,368.88 162.00,364.24 164.21,362.70C166.42,361.16 168.47,360.14 168.77,360.44C169.07,360.74 168.14,364.03 166.70,367.74C165.25,371.46 163.78,375.30 163.42,376.28C162.83,377.87 163.24,378.00 167.13,377.47C169.53,377.14 172.50,376.67 173.73,376.42C174.96,376.17 176.67,374.60 177.54,372.93C178.40,371.25 180.70,368.12 182.65,365.97C184.59,363.82 188.58,360.92 191.53,359.53C194.47,358.14 197.13,357.00 197.44,357.00C197.75,357.00 198.00,357.86 198.00,358.91C198.00,359.96 196.65,363.67 195.00,367.16C193.35,370.65 192.00,374.55 192.00,375.84C192.00,378.18 192.00,378.18 195.08,375.59C197.41,373.63 199.28,372.99 202.83,372.97C206.42,372.95 208.76,372.15 212.95,369.47C215.95,367.56 218.94,366.00 219.59,366.00C220.24,366.00 220.72,366.79 220.64,367.75C220.54,369.02 221.37,369.58 223.65,369.81C226.02,370.04 227.21,369.54 228.44,367.81C229.95,365.68 229.95,365.42 228.45,364.50C227.56,363.95 226.20,363.05 225.43,362.50C224.61,361.91 224.37,360.98 224.83,360.24C225.43,359.30 227.63,360.07 233.56,363.28C237.93,365.65 242.74,368.40 244.25,369.41C245.76,370.41 247.00,370.80 247.00,370.27C247.00,369.75 243.74,366.72 239.75,363.56C235.76,360.39 227.11,354.60 220.53,350.70C213.95,346.79 206.07,342.57 203.03,341.32C199.99,340.07 195.80,339.04 193.72,339.02C191.64,339.01 188.38,339.65 186.47,340.45C184.56,341.25 183.00,342.32 183.00,342.84C183.00,343.35 181.31,344.09 179.25,344.47C177.19,344.85 171.71,346.93 167.08,349.10C162.45,351.26 154.33,355.71 149.03,358.98C143.73,362.26 137.20,367.09 134.52,369.72C131.85,372.35 127.71,377.14 125.33,380.36C122.95,383.58 121.00,386.62 121.00,387.11C121.00,387.60 121.34,388.00 121.75,388.01zM123.84,364.00C129.75,364.00 131.17,363.63 134.30,361.25C136.30,359.74 137.94,357.94 137.96,357.25C137.99,356.46 136.58,356.00 134.16,356.00C132.05,356.00 128.18,356.64 125.56,357.43C122.95,358.22 119.95,359.64 118.91,360.59C117.86,361.53 117.00,362.69 117.00,363.15C117.00,363.62 120.08,364.00 123.84,364.00zM220.25,356.93C219.84,356.88 215.00,355.27 209.50,353.35C204.00,351.42 196.57,348.92 193.00,347.79C189.43,346.66 186.05,345.29 185.50,344.75C184.84,344.11 186.51,344.01 190.33,344.47C193.54,344.85 198.49,345.96 201.33,346.94C204.17,347.92 209.76,350.36 213.75,352.37C217.74,354.38 221.00,356.24 221.00,356.51C221.00,356.78 220.66,356.97 220.25,356.93zM142.26,352.87C143.23,352.94 147.06,350.99 150.76,348.54C155.06,345.70 161.83,342.62 169.45,340.04C176.02,337.82 181.81,335.59 182.31,335.09C182.87,334.53 181.90,333.45 179.86,332.34C177.07,330.81 174.20,330.50 162.91,330.50C153.03,330.50 148.58,330.89 146.63,331.93C145.16,332.72 144.11,333.84 144.31,334.43C144.51,335.02 147.04,335.88 149.94,336.34C152.84,336.81 154.83,337.54 154.36,337.98C153.89,338.42 150.35,339.29 146.50,339.93C142.65,340.56 137.47,341.74 135.00,342.54C132.53,343.35 129.15,345.09 127.50,346.41C125.85,347.74 124.77,349.10 125.11,349.44C125.45,349.78 129.05,350.66 133.11,351.40C137.17,352.13 141.29,352.80 142.26,352.87zM620.78,339.16C620.97,338.58 620.58,337.07 619.90,335.81C619.23,334.54 615.76,329.68 612.20,325.00C608.64,320.32 604.89,315.91 603.86,315.19C602.21,314.04 601.98,314.15 601.85,316.19C601.77,317.46 601.79,319.85 601.90,321.50C602.04,323.60 603.36,325.63 606.30,328.30C608.61,330.39 612.73,333.92 615.47,336.15C618.20,338.38 620.59,339.73 620.78,339.16zM276.70,317.34C276.92,316.70 275.01,311.97 272.44,306.84C269.88,301.70 265.36,293.23 262.40,288.00C259.45,282.77 254.21,275.05 250.76,270.83C247.32,266.61 242.47,261.62 240.00,259.74C237.53,257.86 231.22,253.36 225.98,249.74C220.74,246.12 212.19,241.27 206.98,238.96C201.77,236.64 195.25,234.13 192.50,233.37C189.75,232.61 183.12,231.31 177.76,230.49C172.40,229.67 167.76,229.00 167.45,229.00C167.14,229.00 167.14,229.41 167.45,229.92C167.77,230.43 171.05,231.83 174.76,233.03C178.47,234.23 186.55,237.92 192.71,241.23C198.88,244.54 205.63,248.69 207.71,250.46C209.80,252.22 215.55,256.39 220.50,259.72C225.45,263.04 231.27,267.19 233.44,268.93C235.61,270.67 240.03,273.50 243.26,275.22C246.50,276.94 250.94,280.40 253.14,282.90C255.34,285.40 260.15,292.28 263.82,298.18C267.50,304.09 271.80,311.07 273.39,313.71C274.99,316.34 276.47,317.98 276.70,317.34zM505.75,313.00C506.30,313.00 509.25,311.89 512.31,310.54C516.64,308.62 518.43,307.12 520.43,303.70C521.84,301.30 523.00,298.58 523.00,297.66C523.00,296.75 522.59,296.00 522.09,296.00C521.60,296.00 519.41,297.48 517.24,299.30C515.07,301.11 511.98,304.15 510.37,306.05C508.77,307.95 506.84,310.29 506.10,311.25C505.36,312.21 505.20,313.00 505.75,313.00zM363.75,311.41C365.26,311.07 368.52,309.86 371.00,308.72C373.48,307.58 378.43,303.67 382.00,300.04C386.21,295.76 390.47,289.92 394.09,283.47C397.16,277.99 399.97,272.70 400.32,271.71C400.72,270.61 400.42,269.72 399.55,269.38C398.77,269.08 395.10,270.28 391.40,272.05C386.71,274.29 382.35,277.56 376.97,282.88C372.60,287.19 368.12,292.75 366.64,295.70C365.20,298.56 364.42,301.14 364.92,301.45C365.41,301.76 366.65,301.71 367.66,301.36C368.71,300.99 367.67,302.62 365.25,305.14C362.91,307.58 361.00,310.13 361.00,310.81C361.00,311.64 361.90,311.83 363.75,311.41zM235.19,308.00C235.83,308.00 237.86,307.46 239.69,306.80C242.14,305.91 244.07,305.87 246.99,306.65C250.12,307.49 251.39,307.41 252.98,306.30C254.51,305.23 255.00,303.77 255.00,300.24C255.00,296.22 254.49,295.07 251.30,291.79C249.26,289.71 246.63,288.00 245.45,288.00C244.27,288.00 242.63,288.79 241.80,289.75C240.96,290.71 239.82,292.85 239.25,294.50C238.69,296.15 237.28,299.86 236.13,302.75C234.74,306.21 234.43,308.00 235.19,308.00zM219.93,297.00C221.74,297.00 224.89,294.45 231.70,287.47C236.82,282.23 241.00,277.56 241.00,277.09C241.00,276.62 239.99,275.60 238.75,274.82C237.51,274.04 234.17,272.83 231.32,272.13C226.59,270.96 225.70,271.04 221.32,272.96C218.67,274.12 215.00,276.74 213.17,278.79C209.85,282.50 209.85,282.50 212.56,278.72C214.06,276.65 215.07,274.74 214.82,274.48C214.56,274.23 208.57,276.07 201.49,278.56C193.19,281.49 187.36,282.99 185.06,282.80C183.10,282.63 181.54,282.05 181.60,281.50C181.65,280.95 182.78,279.95 184.10,279.27C185.42,278.59 189.88,276.52 194.00,274.66C198.12,272.80 203.30,269.67 205.50,267.72C208.55,265.02 209.23,263.89 208.35,262.98C207.62,262.23 200.98,261.48 190.35,260.94C181.08,260.48 173.16,260.07 172.75,260.05C172.34,260.02 172.00,259.64 172.00,259.20C172.00,258.76 174.81,257.82 178.25,257.12C181.69,256.41 185.96,255.15 187.75,254.30C189.54,253.46 191.00,252.19 191.00,251.48C191.00,250.74 185.26,247.93 177.75,245.00C170.46,242.14 162.36,238.65 159.74,237.24C157.13,235.83 154.72,234.95 154.39,235.28C154.06,235.61 154.27,239.49 154.87,243.89C155.46,248.30 156.89,254.52 158.05,257.70C159.20,260.89 160.28,264.62 160.45,266.00C160.61,267.38 160.80,268.80 160.87,269.17C160.94,269.54 162.06,271.12 163.36,272.67C164.65,274.23 166.24,277.13 166.89,279.13C167.54,281.13 168.85,283.43 169.79,284.25C170.73,285.07 176.45,287.37 182.50,289.37C188.55,291.37 194.25,293.00 195.15,293.00C196.06,293.00 199.09,291.46 201.90,289.57C204.70,287.68 207.00,286.27 207.00,286.45C207.00,286.62 206.32,288.37 205.50,290.35C204.68,292.32 204.00,294.23 204.00,294.58C204.00,294.94 206.02,294.92 208.49,294.55C211.81,294.06 213.57,294.29 215.22,295.44C216.44,296.30 218.56,297.00 219.93,297.00zM641.29,294.00C641.46,294.00 643.34,291.70 645.48,288.90C647.62,286.09 652.74,281.25 656.85,278.15C660.96,275.04 664.80,271.73 665.38,270.80C665.96,269.86 666.10,268.77 665.70,268.36C665.29,267.96 661.75,268.95 657.81,270.57C650.66,273.50 650.66,273.50 645.86,283.00C643.21,288.23 641.04,292.84 641.02,293.25C641.01,293.66 641.13,294.00 641.29,294.00zM275.43,269.00C275.07,269.00 275.14,268.21 275.57,267.25C276.00,266.29 277.84,261.23 279.66,256.00C281.48,250.78 282.97,245.49 282.98,244.25C282.99,242.65 283.60,242.00 285.05,242.00C286.18,242.00 288.54,242.73 290.30,243.62C292.06,244.52 294.07,245.71 294.78,246.27C295.76,247.05 295.33,247.73 292.96,249.17C290.78,250.50 288.84,253.29 286.43,258.58C283.58,264.84 282.42,266.34 279.53,267.55C277.63,268.35 275.78,269.00 275.43,269.00zM527.25,244.88C528.21,244.95 529.00,244.56 529.00,244.02C529.00,243.47 527.76,241.72 526.25,240.11C524.74,238.51 520.54,235.21 516.92,232.79C513.30,230.37 506.87,227.13 502.62,225.58C498.38,224.03 494.67,223.00 494.38,223.29C494.09,223.58 494.56,225.18 495.42,226.84C496.28,228.51 500.19,232.38 504.10,235.44C508.63,238.98 513.08,241.53 516.36,242.44C519.19,243.23 522.40,244.08 523.50,244.32C524.60,244.57 526.29,244.82 527.25,244.88zM453.62,243.00C453.83,243.00 454.00,242.32 454.00,241.49C454.00,240.65 452.54,238.40 450.75,236.48C448.82,234.42 446.12,232.73 444.12,232.35C441.84,231.91 440.86,232.06 441.12,232.80C441.33,233.40 444.14,235.95 447.37,238.45C450.60,240.95 453.41,243.00 453.62,243.00zM593.43,243.00C594.10,243.00 595.57,241.99 596.69,240.75C597.82,239.51 601.49,233.15 604.87,226.61C608.24,220.07 611.00,214.10 611.00,213.36C611.00,212.61 610.76,212.00 610.46,212.00C610.16,212.00 607.60,213.56 604.77,215.47C601.93,217.38 599.46,218.80 599.28,218.62C599.10,218.44 600.07,215.88 601.44,212.94C602.80,209.99 603.75,207.42 603.54,207.21C603.34,207.01 602.32,207.30 601.27,207.85C600.23,208.41 597.51,210.89 595.24,213.36C591.10,217.85 591.10,217.85 591.09,228.15C591.08,233.81 591.33,239.47 591.65,240.72C591.96,241.98 592.76,243.00 593.43,243.00zM248.25,232.59C247.44,237.26 247.36,237.36 246.63,234.56C246.21,232.94 245.00,230.40 243.93,228.91C242.87,227.41 242.00,225.67 242.00,225.03C242.00,224.29 242.82,224.11 244.25,224.54C245.49,224.91 247.09,225.77 247.80,226.44C248.77,227.36 248.88,228.94 248.25,232.59zM197.16,231.00C198.17,231.00 199.00,230.52 199.00,229.93C199.00,229.35 198.49,227.89 197.88,226.68C197.26,225.48 195.83,223.49 194.70,222.25C193.53,220.96 191.48,220.00 189.91,220.00C188.40,220.00 186.45,220.27 185.58,220.61C184.71,220.94 184.00,221.59 184.00,222.05C184.00,222.51 186.55,224.71 189.66,226.94C192.78,229.18 196.15,231.00 197.16,231.00zM380.43,224.70C381.02,224.51 381.90,221.42 382.39,217.84C383.07,212.83 382.89,209.61 381.61,203.87C380.70,199.77 378.67,193.70 377.10,190.37C375.27,186.51 372.67,183.04 369.87,180.76C367.47,178.79 361.99,175.29 357.70,172.97C351.29,169.52 348.67,168.69 343.04,168.30C337.02,167.89 336.12,168.06 335.67,169.67C335.38,170.68 334.86,173.36 334.50,175.63C333.87,179.71 333.96,179.86 341.02,186.88C344.96,190.80 348.43,194.00 348.74,194.00C349.04,194.00 349.04,189.50 348.74,184.00C348.19,174.00 348.19,174.00 350.84,176.08C352.31,177.23 355.19,180.21 357.26,182.70C359.33,185.20 363.91,189.43 367.44,192.10C370.97,194.77 374.17,197.47 374.55,198.09C375.04,198.87 374.53,198.99 372.88,198.48C371.57,198.08 369.28,197.13 367.80,196.37C366.31,195.62 364.80,195.00 364.42,195.00C364.05,195.00 364.04,196.46 364.39,198.25C364.75,200.04 367.55,206.00 370.62,211.50C373.69,217.00 376.91,222.30 377.78,223.27C378.64,224.25 379.84,224.89 380.43,224.70zM540.65,210.50C541.49,209.40 544.18,204.52 546.64,199.66C549.10,194.80 550.97,190.40 550.79,189.88C550.62,189.36 548.93,190.07 547.04,191.47C545.16,192.86 543.26,194.00 542.82,194.00C542.39,194.00 541.77,192.94 541.44,191.63C541.12,190.33 541.38,187.30 542.03,184.90C542.67,182.50 543.17,178.24 543.14,175.44C543.11,172.63 542.58,169.03 541.97,167.42C540.92,164.68 540.77,164.61 539.50,166.34C538.76,167.35 537.59,171.33 536.90,175.19C535.92,180.65 535.90,183.19 536.82,186.62C537.47,189.04 538.00,192.35 538.00,193.96C538.00,195.56 538.45,197.16 539.00,197.50C539.55,197.84 540.00,199.07 540.00,200.24C540.00,201.40 539.48,203.80 538.84,205.55C538.21,207.31 538.02,209.59 538.42,210.62C539.12,212.44 539.19,212.43 540.65,210.50zM592.98,205.00C593.51,205.00 595.83,202.64 598.13,199.75C600.42,196.86 603.17,192.54 604.24,190.14C605.47,187.39 605.84,185.44 605.24,184.84C604.63,184.23 602.03,186.34 598.14,190.59C592.84,196.37 592.00,197.82 592.00,201.14C592.00,203.27 592.44,205.00 592.98,205.00zM302.44,203.00C303.16,203.00 305.57,200.64 307.78,197.75C309.99,194.86 314.54,188.25 317.88,183.06C321.22,177.87 323.75,173.42 323.50,173.16C323.24,172.91 321.23,173.95 319.02,175.48C316.82,177.01 313.28,180.15 311.16,182.45C309.04,184.74 306.16,188.62 304.77,191.06C303.38,193.50 301.99,197.19 301.68,199.25C301.28,201.97 301.49,203.00 302.44,203.00zM416.69,184.96C417.35,184.98 418.18,184.52 418.55,183.93C418.91,183.34 418.15,181.72 416.85,180.33C415.56,178.94 413.28,177.18 411.80,176.40C410.31,175.63 408.41,175.00 407.57,175.00C406.34,175.00 406.25,175.44 407.08,177.25C407.66,178.49 409.78,180.72 411.81,182.21C413.84,183.71 416.04,184.94 416.69,184.96zM432.75,184.99C433.44,184.99 434.00,184.43 434.00,183.74C434.00,183.04 432.44,180.16 430.54,177.34C428.64,174.51 425.12,170.59 422.71,168.62C420.31,166.65 415.78,163.91 412.64,162.52C408.65,160.75 405.18,160.00 401.04,160.00C397.79,160.00 391.84,160.69 387.82,161.53C383.79,162.36 379.64,163.32 378.59,163.64C377.03,164.13 376.94,164.39 378.12,165.05C378.91,165.49 383.51,166.59 388.33,167.50C393.16,168.40 401.02,170.61 405.80,172.40C410.59,174.19 418.32,177.75 423.00,180.31C427.68,182.88 432.06,184.98 432.75,184.99zM283.00,182.54C283.82,182.31 287.65,181.81 291.50,181.42C295.35,181.03 300.52,179.86 303.00,178.81C305.48,177.76 310.99,174.78 315.25,172.20C319.51,169.62 322.85,167.05 322.66,166.50C322.47,165.95 318.54,165.43 313.91,165.34C309.28,165.25 302.57,164.69 299.00,164.11C295.43,163.52 288.68,163.03 284.00,163.03C279.32,163.02 272.58,163.49 269.01,164.07C265.43,164.65 260.71,165.92 258.51,166.89C256.30,167.87 252.03,170.95 249.00,173.74C245.97,176.53 243.83,179.15 244.24,179.56C244.65,179.98 248.83,179.51 253.52,178.52C258.22,177.54 262.33,177.00 262.66,177.33C262.99,177.66 262.09,178.46 260.66,179.11C259.23,179.76 258.30,180.68 258.59,181.15C258.88,181.62 262.50,182.00 266.62,182.00C270.75,182.00 275.11,181.50 276.32,180.88C277.52,180.26 280.05,178.35 281.95,176.63C285.40,173.50 285.40,173.50 282.11,177.39C279.56,180.40 279.12,181.46 280.16,182.11C280.90,182.58 282.18,182.77 283.00,182.54zM343.76,140.00C344.18,140.00 345.16,138.99 345.94,137.75C346.72,136.51 348.89,132.80 350.75,129.50C352.62,126.20 356.59,120.30 359.57,116.39C362.56,112.48 365.00,108.99 365.00,108.64C365.00,108.29 364.10,108.00 363.00,108.00C361.90,108.00 359.13,109.69 356.83,111.75C352.93,115.25 352.70,115.34 353.32,113.00C353.68,111.62 353.98,109.94 353.99,109.25C353.99,108.56 354.41,108.11 354.91,108.25C355.41,108.39 358.13,106.30 360.96,103.61C363.78,100.92 366.80,97.35 367.66,95.69C368.52,94.03 369.83,89.25 370.58,85.08C371.32,80.91 371.95,76.46 371.97,75.19C372.00,72.87 372.00,72.87 367.84,75.19C365.55,76.46 360.18,80.78 355.90,84.80C351.62,88.81 347.07,93.99 345.79,96.30C344.51,98.61 342.18,103.37 340.62,106.87C338.47,111.69 337.78,114.79 337.78,119.54C337.78,124.20 338.45,127.31 340.39,131.54C341.82,134.68 343.00,137.86 343.00,138.62C343.00,139.38 343.34,140.00 343.76,140.00zM383.71,130.00C385.80,130.00 390.99,129.33 395.26,128.51C399.53,127.70 404.70,126.17 406.76,125.11C408.82,124.06 413.99,120.65 418.25,117.53C422.51,114.41 426.00,111.44 426.00,110.93C426.00,110.42 423.64,110.00 420.75,110.01C417.86,110.01 412.58,110.49 409.01,111.07C405.01,111.72 400.60,113.29 397.51,115.17C394.76,116.85 390.11,120.04 387.20,122.27C384.28,124.50 381.46,127.15 380.91,128.16C380.04,129.80 380.35,130.00 383.71,130.00zM277.38,129.00C289.31,129.00 289.31,129.00 287.46,126.95C286.44,125.83 279.06,121.46 271.05,117.25C263.05,113.04 252.74,108.29 248.15,106.71C240.51,104.08 238.84,103.86 228.45,104.17C221.23,104.38 216.65,104.95 215.87,105.73C214.91,106.69 216.74,107.93 224.57,111.59C230.57,114.39 236.28,116.36 239.00,116.55C241.47,116.72 246.15,117.33 249.39,117.90C252.62,118.47 255.54,119.20 255.86,119.52C256.18,119.85 255.78,120.53 254.97,121.04C254.16,121.55 253.08,122.11 252.57,122.29C252.06,122.47 251.95,123.11 252.33,123.72C252.70,124.33 254.92,125.15 257.26,125.54C259.59,125.93 262.39,126.87 263.47,127.63C264.88,128.60 268.88,129.00 277.38,129.00z" />

</svg>