<?xml version="1.0" encoding="UTF-8" standalone="no"?>
<svg 
  version="1.1" 
  xmlns="http://www.w3.org/2000/svg" 
  xmlns:xlink="http://www.w3.org/1999/xlink" 
  xmlns:svg="http://www.w3.org/2000/svg"
  xmlns:rdf="http://www.w3.org/1999/02/22-rdf-syntax-ns#"
  xmlns:cc="http://creativecommons.org/ns#"
  xmlns:dc="http://purl.org/dc/elements/1.1/"
  viewBox="0 0 768 768"
  width="768"
  height="768"
>
<style>svg {background-color: white; }</style>"
<metadata id="metadata1">
Created by https://svgstud.io and licensed under CC-BY-SA 4.0 license. Please attribute https://svgstud.io
</metadata>
<metadata id="prompt">
hedgehog
</metadata>
<metadata id="version">
7
</metadata>
<metadata id="metadata2">
<rdf:RDF>
<cc:Work
    rdf:about="">
    <cc:license
    rdf:resource="http://creativecommons.org/licenses/by-sa/4.0/" />
    <dc:creator>
        <cc:Agent>
            <dc:title>https://svgstud.io</dc:title>
        </cc:Agent>
    </dc:creator>
</cc:Work>
<cc:License
    rdf:about="http://creativecommons.org/licenses/by-sa/4.0/">
    <cc:permits
    rdf:resource="http://creativecommons.org/ns#Reproduction" />
    <cc:permits
    rdf:resource="http://creativecommons.org/ns#Distribution" />
    <cc:requires
    rdf:resource="http://creativecommons.org/ns#Notice" />
    <cc:requires
    rdf:resource="http://creativecommons.org/ns#Attribution" />
    <cc:permits
    rdf:resource="http://creativecommons.org/ns#DerivativeWorks" />
    <cc:requires
    rdf:resource="http://creativecommons.org/ns#ShareAlike" />
</cc:License>
</rdf:RDF>
</metadata>
<metadata id="uid">
2f92aecbe4c475d4736ba3e9761d87edca93db4bf6186c456c09ffbe17fca08e
</metadata>
<path stroke="none" fill="black" fill-rule="evenodd" d="M353.5,683.5C326.0,683.7 295.9,683.4 286.5,683.0C277.1,682.5 259.6,681.4 247.5,680.5C235.4,679.6 220.4,678.0 214.2,676.9C208.0,675.9 202.0,674.5 201.0,674.0C199.9,673.4 199.0,672.1 199.0,671.1C199.0,670.1 199.8,668.6 200.8,667.8C201.7,666.9 204.0,665.5 205.7,664.6C207.5,663.7 212.2,661.8 216.2,660.4C220.2,659.0 223.9,657.4 224.5,656.9C225.1,656.2 225.0,655.6 224.0,655.0C223.2,654.5 219.2,653.9 215.0,653.5C210.9,653.2 201.0,652.3 193.2,651.4C185.3,650.6 169.8,648.0 158.7,645.5C147.6,643.1 134.5,639.9 129.5,638.5C124.6,637.0 118.8,634.9 116.5,633.8C114.3,632.7 111.3,630.6 109.8,629.2C108.3,627.9 106.8,625.5 106.5,623.9C106.1,622.3 106.5,620.0 107.4,618.2C108.2,616.6 110.8,613.8 113.1,612.1C115.4,610.4 120.5,607.7 124.5,606.1C128.4,604.4 135.6,602.4 140.6,601.5C145.5,600.6 150.6,599.6 152.0,599.2C153.4,598.8 154.5,598.0 154.4,597.5C154.4,596.9 151.0,594.3 146.9,591.6C142.8,588.9 134.3,581.6 128.0,575.3C121.7,569.0 115.2,563.1 113.5,562.3C111.9,561.4 107.3,558.6 103.5,556.0C99.7,553.4 94.1,549.0 91.2,546.3C88.4,543.6 86.0,540.9 86.0,540.2C86.0,539.5 88.8,539.0 94.2,538.8C102.5,538.5 102.5,538.5 97.6,535.0C94.9,533.1 89.2,529.0 85.1,525.8C80.9,522.7 76.7,518.8 75.7,517.0C74.6,515.3 74.1,513.6 74.4,513.2C74.8,512.9 80.4,513.3 87.0,514.1C93.6,514.9 99.0,515.2 99.0,514.7C99.0,514.3 95.8,510.4 91.8,506.2C85.8,499.8 83.1,497.8 75.5,494.1C68.7,490.8 64.9,488.1 59.9,483.1C56.3,479.5 52.2,474.2 50.8,471.5C49.4,468.7 47.7,464.0 47.0,461.0C46.2,458.0 45.7,452.6 45.7,449.0C45.8,445.4 46.6,440.8 47.5,438.6C48.4,436.5 51.2,432.6 53.8,429.8C56.3,427.1 62.3,422.3 67.0,419.3C71.7,416.2 77.0,412.3 78.8,410.6C80.5,409.0 82.0,407.0 82.0,406.2C82.0,405.4 80.9,403.4 79.4,401.8C78.0,400.1 75.8,396.6 74.5,393.9C73.1,391.3 70.7,385.7 69.0,381.5C67.4,377.4 66.0,372.8 66.0,371.5C66.0,370.1 66.6,369.0 67.4,369.0C68.1,369.0 73.3,370.5 79.0,372.4C87.6,375.3 89.1,375.6 88.7,374.2C88.4,373.3 86.5,367.9 84.5,362.3C82.6,356.7 80.7,349.2 80.3,345.6C79.8,339.9 79.9,339.0 81.4,339.0C82.3,339.0 86.5,340.8 90.8,343.1C95.1,345.3 99.6,347.0 100.9,346.8C103.0,346.5 103.0,346.4 99.5,340.8C97.5,337.6 94.5,331.4 92.9,326.9C91.2,322.3 89.6,315.8 89.3,312.3C88.7,306.4 88.8,306.0 90.6,306.7C91.6,307.0 94.1,308.4 96.0,309.6C97.9,310.9 101.2,312.6 103.2,313.4C105.5,314.4 107.1,314.6 107.5,314.0C107.8,313.5 107.2,310.1 106.0,306.4C104.7,302.1 104.0,297.0 104.0,291.9C104.0,285.4 104.3,284.0 105.5,284.0C106.4,284.0 110.5,286.3 114.6,289.1C119.5,292.3 122.7,293.9 123.9,293.5C124.9,293.2 126.2,291.9 126.7,290.7C127.6,288.8 127.3,287.7 124.8,284.4C123.2,282.3 120.1,277.1 118.0,273.0C115.9,268.8 113.1,262.0 111.9,258.0C110.2,252.5 109.6,248.0 109.6,241.5C109.6,233.7 110.0,231.6 112.5,226.2C114.3,222.2 116.9,218.5 119.7,216.0C122.2,213.9 125.8,211.6 127.7,210.9C130.0,210.2 134.9,209.9 140.9,210.2C147.7,210.6 152.7,211.5 157.9,213.3C162.0,214.8 165.6,215.7 165.9,215.4C166.2,215.2 167.2,210.8 168.3,205.7C169.3,200.6 171.6,192.8 173.4,188.4C175.3,183.9 179.2,176.4 182.2,171.9C185.2,167.3 189.9,161.2 192.6,158.4C195.3,155.6 198.6,152.8 199.8,152.1C201.7,151.1 202.3,151.5 205.9,156.3C208.0,159.2 211.2,164.0 213.0,166.8C214.8,169.7 216.9,172.0 217.8,172.0C218.8,172.0 221.7,168.6 224.9,163.3C227.9,158.5 232.5,152.1 235.1,149.1C237.6,146.0 243.0,140.3 247.1,136.3C251.2,132.3 257.0,127.3 260.0,125.0C263.0,122.8 266.5,120.7 267.8,120.3C269.3,120.0 270.8,120.4 272.1,121.6C273.2,122.6 276.2,127.6 278.6,132.8C282.6,141.2 283.2,142.0 285.0,141.0C286.0,140.4 288.1,138.4 289.6,136.5C291.0,134.6 296.7,129.1 302.2,124.3C307.7,119.4 314.9,113.5 318.3,111.1C321.7,108.7 326.9,105.7 329.7,104.3C332.7,102.9 335.8,102.1 336.9,102.5C338.0,102.8 339.5,104.1 340.2,105.3C341.0,106.5 343.9,113.1 346.6,119.9C349.2,126.7 352.0,132.4 352.7,132.7C353.3,133.0 359.2,129.0 365.7,123.9C372.2,118.8 379.9,113.1 382.9,111.2C385.8,109.3 390.7,106.7 393.6,105.3C396.6,103.9 399.8,103.1 400.9,103.5C401.9,103.8 403.3,105.3 403.9,106.8C404.5,108.3 406.6,115.3 408.4,122.3C410.3,129.4 412.1,135.4 412.4,135.7C412.7,136.0 414.4,135.1 416.2,133.6C418.0,132.1 423.1,128.5 427.5,125.6C431.9,122.6 437.8,119.1 440.7,117.7C443.5,116.2 448.5,114.3 451.8,113.4C455.1,112.5 458.5,112.0 459.4,112.3C460.2,112.6 461.6,114.3 462.5,116.1C463.4,117.8 465.9,125.8 468.0,133.9C471.7,148.5 471.7,148.5 475.6,148.3C477.7,148.1 481.7,147.3 484.5,146.4C487.2,145.5 493.3,143.1 498.0,141.0C502.7,138.9 508.5,136.7 510.8,136.1C513.7,135.3 515.6,135.2 516.9,136.0C518.0,136.5 519.1,137.9 519.5,138.9C519.8,140.0 520.9,147.0 521.9,154.4C522.9,161.9 524.0,168.3 524.3,168.6C524.6,169.0 528.7,167.6 533.4,165.6C538.1,163.5 546.3,160.8 551.6,159.4C556.9,158.1 563.2,157.0 565.5,157.0C567.8,157.0 570.2,157.6 570.8,158.3C571.3,158.9 572.1,169.4 572.5,181.8C573.2,204.0 573.3,204.2 575.4,203.7C576.5,203.4 582.1,201.5 587.8,199.5C593.7,197.4 601.9,195.4 607.0,194.7C615.1,193.7 616.2,193.8 617.7,195.3C619.3,196.8 619.3,197.8 618.1,206.7C617.4,212.1 616.6,218.4 616.3,220.7C615.7,225.0 615.7,225.0 625.8,224.7C632.8,224.6 636.3,224.9 637.1,225.8C638.2,226.8 638.1,229.0 636.6,237.3C635.7,242.9 634.6,248.8 634.3,250.4C633.7,253.1 633.9,253.2 636.6,252.8C638.2,252.5 642.9,251.3 647.0,250.2C651.1,249.1 657.2,247.9 660.6,247.5C665.6,247.0 667.0,247.1 668.3,248.5C669.3,249.4 670.0,251.4 670.0,253.0C670.0,254.6 668.9,262.3 667.5,270.2C666.1,278.1 664.7,285.7 664.4,287.2C663.8,290.0 663.8,290.0 677.9,290.0C689.9,290.0 692.2,290.2 692.7,291.6C693.0,292.5 691.2,300.6 688.6,309.6C686.0,318.6 684.2,326.5 684.6,327.1C685.1,328.0 688.6,328.1 696.7,327.7C703.0,327.3 709.5,327.3 711.2,327.7C714.0,328.3 714.2,328.5 713.7,332.1C713.4,334.3 710.3,340.8 706.1,347.8C702.2,354.3 699.0,360.2 699.0,360.9C699.0,361.8 700.9,361.9 706.3,361.4C711.2,361.0 714.4,361.1 715.8,361.9C717.3,362.7 718.0,364.0 718.0,366.1C718.0,367.8 715.1,374.7 711.1,382.5C707.2,389.9 704.4,396.0 704.8,396.1C705.2,396.1 710.5,396.1 716.5,396.1C722.5,396.0 728.1,396.4 728.9,396.9C730.1,397.7 730.2,398.5 729.2,401.8C728.5,403.9 724.4,411.2 719.9,418.0C715.4,424.7 712.2,430.6 712.7,431.0C713.1,431.4 716.5,432.7 720.1,433.9C723.8,435.1 727.6,437.0 728.5,438.0C730.1,439.7 730.2,440.5 729.2,443.8C728.6,445.8 725.7,451.4 722.9,456.2C720.1,460.9 715.8,467.2 713.4,470.1C710.9,473.1 709.1,476.2 709.2,477.0C709.4,477.9 711.0,478.7 712.9,479.0C714.8,479.3 716.5,480.0 716.7,480.6C716.9,481.2 714.0,484.4 710.3,487.6C706.6,490.8 701.4,495.4 698.8,497.9C696.1,500.4 694.0,502.8 694.0,503.2C694.0,503.6 697.8,504.0 702.5,504.0C707.9,504.0 711.0,504.4 711.0,505.1C711.0,505.7 707.7,509.4 703.8,513.3C699.8,517.3 691.9,524.7 686.2,529.9C680.5,535.0 676.1,539.7 676.3,540.4C676.5,541.0 678.5,541.6 680.7,541.8C683.0,542.0 685.4,542.7 686.0,543.5C687.0,544.7 686.7,545.6 684.5,548.2C683.0,550.0 679.6,553.3 677.0,555.5C674.4,557.7 667.9,563.0 662.6,567.3C657.3,571.6 653.0,575.5 653.0,575.9C653.0,576.4 655.4,577.1 658.2,577.5C661.1,577.8 667.1,578.8 671.5,579.6C675.9,580.5 682.9,582.1 687.0,583.2C691.1,584.3 697.2,586.5 700.5,588.0C703.8,589.5 707.5,591.7 708.7,592.8C709.9,594.0 711.1,595.8 711.4,596.8C711.8,597.9 711.6,599.9 711.1,601.3C710.5,602.7 707.8,605.7 705.1,607.9C702.3,610.1 696.5,613.2 692.3,614.8C688.0,616.5 681.0,618.5 676.8,619.4C672.6,620.3 664.3,621.4 658.4,621.9C648.1,622.8 647.6,623.0 645.2,626.0C643.9,627.7 641.2,629.9 639.2,630.9C637.1,631.9 633.2,633.2 630.5,633.8C627.8,634.4 623.4,635.2 620.8,635.5C618.1,635.8 616.0,636.5 616.0,636.9C616.0,637.3 616.9,638.5 618.0,639.5C619.1,640.5 620.0,642.4 620.0,643.6C620.0,644.9 619.0,646.6 617.7,647.4C616.5,648.2 611.7,649.6 607.0,650.4C602.3,651.2 592.3,652.2 584.8,652.6C577.3,653.0 570.6,653.6 569.9,654.1C568.9,654.7 568.9,655.3 570.3,656.7C571.2,657.8 572.1,659.7 572.2,661.0C572.4,662.8 571.8,663.8 569.9,664.7C568.5,665.4 564.2,666.4 560.4,667.0C556.6,667.5 548.7,668.0 542.9,668.0C537.0,668.0 527.6,667.5 521.9,666.9C511.6,665.9 511.6,665.9 508.1,669.9C506.1,672.0 502.9,674.3 501.0,675.0C499.1,675.6 491.0,676.8 483.0,677.6C475.0,678.4 456.4,679.3 441.5,679.7C421.9,680.1 413.0,680.6 409.0,681.8C404.5,683.0 394.7,683.3 353.5,683.5zM366.6,658.9C369.9,659.0 372.2,658.5 372.9,657.6C373.5,656.9 374.7,653.8 375.6,650.9C376.5,647.9 378.7,642.7 380.6,639.3C382.5,635.9 386.0,631.1 388.5,628.7C391.0,626.2 395.0,623.4 397.5,622.5C400.4,621.3 403.1,621.0 405.5,621.4C407.4,621.8 409.0,622.3 409.0,622.6C409.0,622.9 405.0,627.1 400.2,631.8C394.5,637.4 390.5,642.3 389.0,645.5C387.7,648.2 386.6,652.3 386.6,654.5C386.5,658.5 386.5,658.5 398.0,658.5C409.1,658.4 409.7,658.3 415.7,655.1C419.1,653.3 430.4,645.4 440.7,637.6C451.1,629.9 462.9,620.8 467.0,617.5C471.1,614.2 478.6,607.5 483.5,602.5C488.5,597.6 496.0,589.7 500.1,585.1C507.6,576.6 507.6,576.6 525.4,579.8C535.2,581.6 546.7,583.3 551.0,583.7C555.2,584.0 560.4,584.0 562.4,583.6C564.4,583.2 566.0,582.5 566.0,582.0C566.0,581.6 564.1,580.1 561.8,578.7C559.4,577.3 556.4,575.0 555.1,573.6C553.7,572.2 553.0,570.7 553.4,570.3C553.8,569.9 561.4,571.0 570.3,572.8C579.2,574.6 589.0,576.0 592.0,576.0C595.1,576.0 599.3,575.2 601.5,574.1C603.7,573.1 606.1,571.6 606.9,570.7C607.6,569.7 608.0,569.0 607.7,569.0C607.4,569.0 602.3,568.1 596.4,566.9C590.5,565.8 582.0,563.7 577.6,562.3C573.1,560.9 566.4,558.2 562.5,556.2C558.7,554.3 551.2,550.3 546.0,547.2C540.8,544.2 535.1,540.8 533.5,539.7C531.9,538.5 530.2,537.1 529.8,536.6C529.4,536.0 529.5,535.1 529.9,534.7C530.4,534.2 536.4,534.8 543.4,536.0C550.3,537.1 559.9,538.1 564.8,538.2C570.2,538.2 575.6,537.7 579.0,536.6C582.0,535.7 585.1,534.6 585.9,534.1C586.6,533.6 587.0,532.8 586.6,532.2C586.3,531.7 584.3,530.9 582.3,530.5C580.2,530.2 576.6,529.0 574.2,528.0C571.9,527.0 570.0,525.7 570.0,525.1C570.0,524.5 571.5,523.9 573.2,523.6C575.0,523.3 580.5,522.3 585.5,521.5C590.5,520.6 596.9,518.8 599.7,517.4C602.8,515.9 606.8,512.8 609.4,509.8C611.8,507.0 616.0,500.5 618.7,495.4C621.3,490.3 623.1,485.8 622.7,485.4C622.3,485.0 619.8,485.6 617.2,486.9C614.6,488.2 605.1,494.1 596.2,500.2C587.2,506.2 577.7,512.1 575.2,513.3C571.6,514.9 568.5,515.4 562.0,515.4C556.0,515.4 551.4,514.8 546.4,513.2C542.5,512.0 537.1,509.6 534.4,507.8C531.7,506.0 529.4,503.8 529.2,502.9C529.0,501.5 530.6,501.2 541.2,500.8C551.6,500.3 555.0,499.7 563.4,496.9C568.9,495.0 573.5,493.0 573.7,492.4C573.9,491.7 570.5,490.4 565.3,489.1C560.5,487.9 551.4,485.1 545.3,483.0C539.1,480.8 528.6,478.1 522.0,477.0C515.3,475.9 507.5,474.0 504.6,472.9C501.6,471.8 498.0,469.8 496.6,468.3C495.2,466.9 494.0,465.4 494.0,464.9C494.0,464.5 503.1,464.2 514.2,464.2C530.5,464.4 535.7,464.1 540.9,462.7C544.4,461.7 549.4,460.1 551.9,458.9C554.4,457.8 558.4,455.8 560.8,454.4C563.2,453.0 564.9,451.6 564.6,451.3C564.3,451.0 558.6,449.9 551.8,448.9C545.0,447.9 537.8,446.6 535.7,446.0C533.3,445.3 532.0,444.4 532.2,443.4C532.4,442.7 536.3,438.9 540.8,435.1C545.4,431.3 551.4,427.0 554.1,425.5C559.0,422.9 559.0,422.9 559.0,425.8C559.0,427.7 557.4,430.9 554.6,434.8C550.9,439.8 550.4,440.9 551.7,441.5C552.6,441.8 557.9,441.8 563.4,441.4C569.0,441.1 575.0,440.4 576.7,439.8C578.5,439.3 582.2,437.0 584.9,434.7C587.7,432.4 592.4,427.4 595.5,423.7C598.5,419.9 603.7,412.8 607.1,408.0C610.4,403.1 614.2,398.4 615.5,397.6C616.8,396.7 618.4,396.0 619.1,396.0C619.9,396.0 620.0,397.4 619.5,400.6C618.8,405.2 618.8,405.2 621.7,404.6C623.2,404.3 627.0,403.8 630.2,403.4C634.5,402.9 636.4,402.2 638.3,400.1C639.6,398.7 643.9,392.9 647.8,387.3C651.7,381.7 655.4,376.1 656.0,374.9C657.2,372.7 657.2,372.7 648.8,373.2C641.6,373.6 639.1,374.2 632.6,377.3C628.3,379.3 624.3,381.0 623.8,381.0C623.2,381.0 623.1,379.9 623.4,378.2C623.8,376.7 626.5,371.8 629.5,367.4C632.5,362.9 635.0,358.9 635.0,358.5C635.0,358.1 633.2,358.0 631.0,358.4C628.7,358.7 622.9,360.6 618.0,362.6C613.1,364.6 606.0,368.3 602.3,371.0C598.5,373.6 592.6,378.4 589.1,381.7C585.1,385.4 582.9,388.1 583.4,388.8C583.8,389.5 586.9,390.0 591.3,390.1C595.3,390.1 600.8,390.5 603.5,390.8C606.8,391.3 608.5,392.0 608.5,392.9C608.5,393.7 606.5,395.4 604.0,396.6C601.5,397.9 597.2,399.5 594.5,400.4C591.8,401.2 585.2,403.0 580.0,404.5C574.8,405.9 566.0,409.3 560.5,412.0C555.0,414.7 547.8,417.6 544.5,418.5C541.3,419.3 535.3,420.0 531.2,420.0C527.2,420.0 521.9,419.5 519.4,418.9C517.0,418.3 515.0,417.2 515.0,416.5C515.0,415.9 516.1,414.8 517.5,414.2C518.9,413.5 520.8,413.0 521.6,413.0C522.4,413.0 525.9,412.1 529.3,410.9C532.7,409.8 538.6,407.1 542.3,404.9C546.0,402.7 552.0,398.1 555.7,394.7C559.3,391.3 564.5,385.4 567.2,381.6C569.8,377.8 571.8,374.5 571.6,374.2C571.3,374.0 566.3,375.0 560.3,376.4C554.4,377.8 545.1,379.6 539.7,380.4C530.8,381.7 529.5,382.2 525.2,385.8C522.6,388.0 518.9,390.7 517.0,391.9C515.1,393.0 512.7,394.0 511.8,394.0C510.8,394.0 510.0,393.4 510.0,392.8C510.0,392.1 510.9,390.1 512.0,388.5C513.1,386.9 514.0,385.2 514.0,384.9C514.0,384.5 510.5,384.0 506.2,383.8C500.5,383.4 497.2,382.6 493.4,380.7C490.6,379.3 488.0,377.4 487.6,376.5C487.2,375.4 487.8,374.6 489.6,374.0C491.0,373.4 493.5,373.0 495.1,373.0C496.7,373.0 501.6,372.3 505.8,371.5C510.0,370.6 516.9,368.3 521.0,366.3C526.9,363.5 530.5,360.7 537.6,353.6C542.6,348.6 548.1,342.3 549.9,339.7C551.7,337.0 553.0,334.6 552.7,334.4C552.5,334.1 547.0,335.3 540.5,337.0C534.1,338.6 526.6,340.0 523.9,340.0C521.2,340.0 519.0,339.6 519.0,339.1C519.0,338.6 520.2,337.3 521.8,336.2C523.3,335.1 527.0,333.0 530.0,331.5C533.0,330.0 539.5,325.7 544.5,322.0C549.5,318.3 558.6,311.9 564.7,307.7C570.9,303.5 579.7,298.2 584.2,295.9C588.8,293.6 597.4,290.0 603.3,287.9C609.2,285.7 615.2,284.0 616.5,284.0C617.9,284.0 619.0,284.4 619.0,284.9C619.0,285.5 618.3,288.8 617.5,292.4C616.7,295.9 616.3,299.5 616.6,300.4C616.9,301.3 618.0,302.0 619.0,302.0C620.0,302.0 623.7,301.1 627.2,300.0C630.6,298.9 633.6,298.0 633.8,298.0C633.9,298.0 634.0,298.7 634.0,299.5C634.0,300.3 632.7,303.9 631.0,307.3C629.4,310.8 628.0,314.2 628.0,314.8C628.0,315.5 628.2,316.0 628.5,316.0C628.9,316.0 630.4,315.3 631.9,314.5C633.5,313.7 636.9,310.7 639.4,307.9C642.0,305.0 646.2,298.4 648.7,293.3C651.1,288.2 653.4,282.2 653.7,280.0C654.2,276.5 654.0,276.0 652.2,276.0C650.2,276.0 650.2,275.8 653.1,268.0C654.7,263.6 656.0,259.7 656.0,259.5C656.0,259.2 655.4,259.0 654.7,259.0C654.0,259.0 648.0,262.1 641.3,265.9C630.3,272.3 628.7,272.9 621.9,273.5C617.8,273.9 609.8,275.2 604.0,276.5C598.2,277.8 585.0,281.6 574.5,285.0C564.0,288.3 553.6,291.4 551.2,291.7C547.7,292.2 547.0,292.0 547.0,290.6C547.0,289.7 550.1,285.8 554.0,282.0C557.8,278.1 563.4,271.8 566.3,267.8C569.3,263.8 574.8,255.8 578.4,250.0C582.1,244.2 589.8,232.3 595.5,223.5C601.3,214.8 606.0,207.0 606.0,206.4C606.0,205.5 605.2,205.4 602.8,206.1C601.0,206.6 593.8,208.6 586.9,210.5C579.9,212.4 571.2,215.3 567.6,217.0C563.3,219.0 558.3,222.7 553.3,227.5C549.0,231.5 544.6,236.3 543.6,238.0C541.7,241.3 541.7,241.3 546.4,240.7C548.9,240.3 551.0,240.4 551.0,240.8C551.0,241.2 550.3,242.6 549.4,243.8C548.5,245.1 548.0,246.4 548.3,246.6C548.6,246.9 550.5,246.7 552.7,246.1C554.8,245.5 557.5,245.0 558.8,245.0C560.0,245.0 561.0,245.4 561.0,246.0C561.0,246.5 559.5,248.4 557.6,250.2C555.7,252.1 549.9,255.9 544.8,258.7C539.7,261.5 533.5,264.4 531.1,265.1C528.4,265.9 526.5,267.2 526.0,268.4C525.6,269.6 524.7,275.6 524.1,281.9C523.4,288.1 523.1,293.5 523.4,293.7C523.6,294.0 526.2,293.6 529.2,293.0C532.1,292.4 536.3,292.0 538.4,292.2C540.6,292.3 542.5,293.0 542.7,293.7C542.9,294.3 539.0,297.7 533.9,301.1C528.8,304.5 520.6,311.2 515.7,315.9C510.8,320.6 506.4,325.3 505.8,326.3C505.3,327.3 505.1,328.4 505.3,328.6C505.6,328.9 508.3,328.5 511.4,327.7C514.5,326.8 517.2,326.5 517.5,327.0C517.7,327.4 516.7,329.5 515.1,331.7C513.5,333.9 510.4,337.1 508.1,338.9C505.8,340.7 501.8,343.0 499.2,344.0C496.6,345.0 490.1,346.5 484.7,347.5C476.6,348.8 473.3,348.9 466.2,348.1C461.4,347.5 453.1,345.7 447.8,344.1C442.5,342.5 437.3,340.7 436.2,340.1C435.2,339.6 433.8,338.4 433.1,337.6C432.0,336.3 432.4,336.0 435.2,335.6C437.0,335.4 442.2,334.7 446.7,334.1C451.3,333.6 458.2,332.0 462.1,330.6C466.0,329.3 471.7,326.6 474.7,324.8C477.7,323.0 483.1,318.9 486.6,315.7C490.1,312.5 494.9,306.7 497.4,302.7C499.8,298.7 502.8,292.6 504.1,289.0C505.5,284.7 506.4,279.1 506.7,272.5C507.1,265.4 506.7,260.5 505.6,255.7C504.7,252.0 502.6,246.2 500.9,242.8C499.2,239.5 495.6,234.3 492.8,231.4C490.0,228.5 485.0,224.6 481.1,222.6C477.4,220.7 470.8,218.1 466.5,216.8C460.0,215.0 456.1,214.5 445.5,214.5C434.9,214.5 431.0,215.0 424.3,216.9C419.7,218.2 412.6,220.9 408.5,223.1C404.3,225.2 398.4,228.9 395.2,231.4C392.1,233.8 386.8,238.7 383.4,242.2C380.1,245.6 374.3,252.2 370.6,256.8C366.8,261.3 362.5,265.7 360.9,266.6C358.7,267.7 357.5,267.8 356.0,267.0C354.5,266.2 354.0,264.9 354.0,262.0C354.0,259.9 354.9,256.0 356.0,253.4C357.2,250.8 360.2,245.5 362.7,241.7C365.3,237.8 371.3,230.8 376.1,226.0C380.9,221.2 388.2,215.0 392.3,212.4C396.5,209.7 401.1,206.8 402.7,205.9C404.5,205.0 408.7,199.7 413.1,192.9C417.3,186.6 423.4,177.7 426.8,173.1C430.9,167.5 432.7,164.3 432.0,163.6C431.4,163.0 428.4,163.2 423.4,164.3C419.2,165.2 412.5,167.4 408.6,169.2C404.7,171.0 398.1,175.0 394.0,178.1C389.9,181.1 382.3,187.6 377.1,192.6C371.9,197.5 364.1,205.8 359.7,211.0C353.5,218.4 350.3,223.6 344.9,234.7C340.5,243.7 336.8,249.8 334.9,251.4C333.2,252.8 331.0,254.0 329.9,254.0C328.9,254.0 327.1,253.1 326.0,252.0C324.6,250.6 324.0,248.7 324.0,245.6C324.0,242.4 325.3,238.6 329.5,230.4C332.5,224.4 337.9,214.3 341.5,208.0C345.9,200.4 349.3,192.7 351.6,185.3C353.6,179.1 355.0,173.6 354.8,173.1C354.7,172.5 351.9,173.1 348.7,174.4C345.5,175.7 340.4,178.7 337.4,181.1C334.3,183.5 328.4,189.3 324.2,194.0C320.1,198.7 315.8,202.9 314.8,203.4C313.4,204.1 312.6,204.0 312.0,202.9C311.5,202.2 311.3,200.4 311.7,199.0C312.0,197.6 313.3,194.0 314.5,191.0C315.8,188.0 316.7,185.3 316.5,185.1C316.3,184.9 313.9,186.3 311.3,188.3C308.7,190.2 302.9,195.6 298.4,200.2C294.0,204.7 288.5,211.1 286.1,214.2C283.8,217.4 281.5,220.0 281.0,220.0C280.5,220.0 279.6,218.3 279.1,216.3C278.6,214.2 277.8,210.0 277.5,207.0C277.1,204.0 277.4,196.8 278.0,191.0C278.6,185.2 279.4,177.9 279.7,174.7C280.1,170.5 279.9,169.0 279.0,169.0C278.4,169.0 274.6,172.0 270.8,175.7C266.8,179.6 260.7,187.2 256.5,193.5C252.5,199.6 248.3,205.4 247.1,206.4C245.1,208.3 244.8,208.3 243.2,206.7C242.0,205.5 241.5,203.3 241.5,199.2C241.6,196.1 242.3,191.6 243.2,189.3C244.2,187.0 246.5,182.6 248.5,179.5C250.5,176.4 255.2,170.3 259.1,165.9C266.0,157.8 266.0,157.8 265.4,151.2C265.1,147.5 265.2,141.9 265.8,138.8C266.3,135.3 266.3,133.0 265.8,133.0C265.3,133.0 263.1,134.5 260.8,136.3C258.6,138.0 253.0,143.8 248.3,149.0C243.6,154.2 236.5,163.4 232.5,169.5C228.5,175.6 222.6,185.4 219.4,191.4C216.1,197.4 213.0,202.5 212.3,202.7C211.7,203.0 210.5,201.9 209.7,200.3C208.9,198.8 206.1,191.1 203.4,183.3C200.7,175.4 198.2,169.0 197.8,169.0C197.4,169.0 196.0,171.1 194.6,173.8C193.3,176.4 191.1,181.7 189.7,185.6C188.3,189.4 186.2,197.5 185.0,203.4C183.4,211.0 182.9,216.3 183.2,221.0C183.5,225.2 184.5,229.1 185.7,231.2C186.7,233.0 188.4,234.6 189.3,234.8C190.7,235.1 191.0,234.3 191.0,230.3C191.0,227.7 191.3,224.5 191.6,223.2C192.0,221.9 192.8,221.1 193.4,221.3C194.0,221.5 196.4,225.2 198.7,229.6C201.1,233.9 203.8,240.2 204.9,243.5C205.9,246.8 206.5,250.0 206.3,250.7C206.0,251.4 204.5,252.0 202.8,252.0C201.2,252.0 198.5,251.3 196.7,250.4C194.9,249.4 192.1,247.6 190.4,246.4C188.7,245.1 187.0,244.0 186.7,244.0C186.4,244.0 186.0,245.9 185.8,248.3C185.5,252.2 185.3,252.5 182.5,252.8C180.8,252.9 179.0,252.7 178.4,252.3C177.8,251.8 175.3,248.3 172.7,244.3C170.2,240.4 166.2,235.2 164.0,233.0C161.7,230.7 157.3,227.6 154.1,226.2C150.4,224.5 146.3,223.5 142.0,223.2C136.9,223.0 134.8,223.3 132.4,224.8C130.7,225.9 128.3,228.8 127.1,231.2C125.8,234.0 125.0,237.6 125.0,240.8C125.0,243.6 125.9,248.3 127.0,251.3C128.1,254.2 129.7,257.5 130.5,258.6C131.7,260.3 131.9,259.6 131.7,251.5C131.5,242.5 131.5,242.5 136.0,242.6C139.2,242.6 141.7,243.4 144.7,245.4C147.1,247.0 150.3,250.2 151.9,252.7C154.2,256.2 154.7,257.6 154.0,259.8C153.6,261.3 150.9,267.2 148.2,273.0C145.4,278.8 141.7,288.7 139.9,295.0C138.1,301.3 136.5,308.0 136.2,309.8C135.8,313.1 135.8,313.1 140.6,310.1C143.2,308.4 146.9,306.7 148.7,306.4C150.6,306.0 153.4,306.3 155.1,307.1C156.8,307.8 159.1,309.7 160.1,311.4C161.4,313.5 162.0,316.4 162.0,320.6C162.0,324.4 160.7,331.3 158.5,339.3C156.6,346.3 153.9,354.4 152.6,357.3C151.2,360.2 148.7,363.9 147.0,365.5C144.8,367.6 143.0,368.4 140.2,368.4C138.2,368.5 134.6,368.1 132.3,367.7C128.2,366.9 128.2,366.9 122.5,373.7C119.4,377.4 113.6,384.8 109.7,390.0C105.7,395.2 99.0,403.1 94.8,407.6C90.5,412.1 87.0,416.1 87.0,416.7C87.0,417.2 91.6,418.6 97.2,419.7C102.9,420.8 110.1,422.8 113.3,424.0C116.5,425.2 121.9,428.0 125.3,430.3C129.3,433.0 132.5,436.2 134.5,439.4C136.9,443.4 137.5,445.6 137.9,451.7C138.2,458.6 138.0,459.7 134.6,466.6C132.5,470.7 128.4,476.7 125.2,480.2C121.4,484.3 117.5,487.3 113.5,489.2C110.2,490.7 106.6,492.0 105.5,492.0C104.4,492.0 102.9,492.4 102.1,492.9C101.0,493.6 101.7,494.1 104.6,494.9C106.7,495.4 112.1,496.4 116.5,497.0C120.9,497.6 135.3,498.3 148.5,498.7C163.8,499.1 177.9,498.8 187.5,498.1C195.8,497.4 207.6,496.0 213.8,494.9C220.0,493.9 231.0,491.7 238.3,490.1C245.6,488.4 256.7,485.8 263.0,484.3C274.5,481.5 274.5,481.5 305.0,482.0C321.8,482.2 348.1,482.4 363.5,482.4C384.9,482.4 393.7,482.0 401.0,480.7C407.1,479.6 410.8,479.4 411.4,480.0C412.0,480.6 411.5,481.9 409.9,483.6C408.6,485.0 404.6,487.7 401.0,489.5C397.4,491.3 391.4,493.7 387.5,494.8C383.6,496.0 376.4,497.6 371.5,498.4C366.6,499.2 358.6,500.2 353.8,500.5C349.0,500.9 335.7,500.6 324.3,499.8C312.9,499.1 298.8,498.5 293.0,498.5C284.2,498.5 281.8,498.9 278.5,500.6C276.3,501.8 270.9,504.0 266.5,505.5C262.1,507.0 249.1,510.6 237.5,513.5C216.5,518.7 216.5,518.7 223.5,520.9C227.3,522.0 237.4,523.9 245.9,524.9C261.2,526.8 261.2,526.8 272.4,538.2C278.5,544.4 286.6,551.6 290.5,554.1C294.4,556.7 299.4,559.7 301.7,560.9C304.0,562.0 306.3,563.0 306.9,563.0C307.4,563.0 305.6,558.0 302.9,552.0C300.3,545.9 297.9,539.8 297.8,538.3C297.6,536.9 298.0,535.5 298.6,535.3C299.2,535.1 303.7,537.6 308.6,540.8C313.5,544.0 321.2,549.9 325.8,553.8C330.4,557.9 337.4,562.7 341.8,564.9C346.0,567.0 350.5,569.1 351.8,569.4C353.3,569.9 354.0,569.7 354.0,568.8C354.0,568.1 352.0,564.1 349.6,559.9C347.3,555.7 344.8,550.9 344.2,549.2C343.6,547.4 343.5,545.8 344.0,545.5C344.4,545.2 347.4,546.4 350.7,548.1C353.9,549.8 360.6,554.2 365.5,557.9C370.4,561.6 376.8,566.3 379.5,568.2C382.2,570.2 386.8,572.9 389.7,574.4C392.6,575.8 395.2,577.0 395.5,577.0C395.8,577.0 396.0,576.5 396.0,575.9C396.0,575.3 393.5,570.4 390.5,565.1C387.5,559.7 385.0,554.8 385.0,554.2C385.0,553.5 385.7,553.0 386.5,553.0C387.3,553.0 393.1,555.6 399.4,558.7C405.8,561.8 411.2,564.2 411.5,563.9C411.8,563.6 411.3,561.4 410.5,559.0C409.7,556.7 409.0,554.4 409.0,553.9C409.0,553.4 409.7,553.0 410.6,553.0C411.4,553.0 415.9,556.7 420.6,561.2C425.3,565.8 429.3,569.7 429.5,569.9C429.8,570.1 430.6,569.7 431.5,569.0C432.3,568.3 433.0,566.7 433.0,565.5C433.0,564.3 433.6,562.8 434.3,562.2C435.0,561.6 439.9,560.8 445.2,560.4C450.5,560.1 455.6,560.0 456.5,560.4C457.8,560.9 456.5,562.8 450.0,569.8C445.4,574.6 437.9,583.4 433.1,589.4C428.4,595.4 423.3,601.7 421.9,603.3C419.3,606.3 419.3,606.3 406.8,604.7C399.9,603.8 388.8,603.0 382.2,603.0C375.5,603.0 367.7,603.5 364.8,604.1C361.9,604.7 357.4,606.3 354.9,607.6C352.4,608.8 347.9,612.1 344.9,614.8C341.9,617.6 338.1,622.2 336.3,625.1C334.5,628.1 332.4,633.2 331.5,636.5C330.7,639.7 330.0,644.1 330.0,646.2C330.0,649.0 330.6,650.3 332.2,651.4C333.5,652.1 336.1,653.0 338.1,653.3C340.1,653.6 342.1,653.5 342.7,653.2C343.3,652.8 344.3,650.0 344.9,646.8C345.6,643.7 347.8,637.6 349.9,633.3C352.0,629.0 355.5,623.8 357.6,621.8C359.8,619.8 363.2,617.4 365.2,616.5C367.3,615.7 370.4,615.0 372.2,615.0C374.0,615.0 376.2,615.5 377.0,616.1C378.2,616.9 377.9,617.5 375.0,619.8C373.1,621.2 369.6,624.4 367.2,626.9C364.9,629.3 361.3,634.7 359.2,638.8C356.3,644.7 355.5,647.5 355.5,651.9C355.5,657.3 355.6,657.5 358.5,658.1C360.1,658.5 363.8,658.8 366.6,658.9zM202.2,631.9C207.0,632.0 209.3,631.6 210.4,630.4C211.3,629.6 212.0,627.8 212.0,626.5C212.0,625.3 213.8,620.6 216.0,616.2C218.3,611.7 222.0,606.1 224.4,603.6C226.8,601.2 231.1,598.0 234.0,596.5C236.8,595.1 239.0,593.4 238.7,592.7C238.5,592.1 235.7,590.8 232.5,589.8C229.2,588.9 222.5,587.4 217.6,586.5C212.7,585.7 206.1,585.0 203.0,585.0C199.9,585.0 195.1,585.7 192.2,586.5C188.8,587.6 185.3,589.7 181.6,593.1C177.9,596.4 174.9,600.5 172.6,605.1C170.7,608.9 168.6,614.5 168.0,617.6C167.1,621.6 167.1,623.9 167.9,625.6C168.5,627.0 170.4,628.3 172.7,628.9C174.8,629.5 177.5,630.0 178.7,630.0C179.9,630.0 181.1,629.2 181.3,628.2C181.6,627.3 182.1,624.4 182.5,621.8C182.8,619.2 184.7,613.9 186.6,610.1C188.5,606.3 191.9,601.5 194.4,599.2C197.4,596.5 200.0,595.0 203.0,594.5C205.5,594.1 207.6,594.2 208.2,594.8C208.9,595.5 207.3,598.2 203.1,603.1C199.6,607.3 196.1,612.7 194.9,615.9C193.7,619.0 192.5,623.6 192.3,626.2C191.8,630.1 192.0,630.9 193.6,631.3C194.7,631.6 198.5,631.8 202.2,631.9zM233.0,630.8C239.5,630.5 239.5,630.5 244.6,622.7C247.4,618.3 251.9,612.7 254.5,610.0C258.0,606.5 259.0,604.7 258.6,603.3C258.3,602.2 256.2,600.3 253.9,599.1C251.1,597.5 249.1,597.0 247.3,597.5C245.9,597.8 242.8,599.4 240.5,601.0C238.3,602.5 234.7,605.6 232.7,607.9C230.7,610.1 228.2,613.7 227.0,616.0C225.9,618.2 224.7,622.1 224.3,624.6C223.9,628.0 224.1,629.4 225.1,630.1C225.9,630.6 229.4,630.9 233.0,630.8zM611.0,552.8C618.8,552.9 624.8,552.4 627.1,551.6C629.1,550.9 633.9,548.2 637.9,545.5C641.9,542.8 647.0,539.0 649.3,537.0C653.4,533.3 653.4,533.3 631.6,532.6C609.7,531.9 609.7,531.9 601.1,537.8C596.4,541.0 590.6,544.7 588.2,546.0C585.9,547.3 584.0,548.7 584.0,549.2C584.0,549.7 584.6,550.3 585.2,550.5C585.9,550.8 589.2,551.4 592.5,551.9C595.8,552.4 604.1,552.8 611.0,552.8zM646.6,509.7C654.6,509.4 657.7,508.8 662.1,506.8C665.1,505.5 671.0,501.5 675.2,498.1C679.4,494.7 684.3,490.2 685.9,488.1C687.6,485.9 689.0,483.7 689.0,483.0C689.0,482.1 687.7,481.9 684.0,482.4C680.0,482.9 679.0,482.8 679.0,481.6C679.0,480.8 679.4,479.8 680.0,479.5C680.5,479.2 681.5,478.0 682.1,476.8C683.1,474.9 683.0,474.8 679.8,475.2C678.0,475.5 670.7,476.7 663.7,477.9C656.6,479.1 649.6,480.7 648.2,481.4C646.7,482.2 642.7,485.4 639.2,488.5C635.8,491.6 633.0,494.8 633.0,495.5C633.0,496.4 635.1,497.1 639.8,497.5C643.5,497.9 647.1,498.6 647.9,499.0C648.9,499.5 648.3,500.5 645.5,502.6C643.4,504.2 640.6,506.5 639.1,507.8C636.5,510.1 636.5,510.1 646.6,509.7zM587.5,480.6C604.3,480.4 605.8,480.3 610.5,478.0C613.7,476.5 619.9,471.3 628.0,463.4C634.9,456.6 640.1,450.8 639.7,450.3C639.2,449.9 631.6,449.4 622.7,449.2C608.2,448.9 605.9,449.1 601.0,450.9C597.3,452.3 590.6,457.0 580.0,465.4C571.5,472.3 564.4,478.3 564.2,478.9C564.0,479.4 565.1,480.1 566.7,480.3C568.2,480.6 577.6,480.7 587.5,480.6zM93.6,476.9C96.0,477.0 99.6,476.0 102.7,474.5C105.5,473.0 108.9,470.5 110.3,468.7C111.6,466.9 113.4,464.1 114.4,462.3C115.3,460.5 116.0,457.6 115.9,455.8C115.9,452.5 115.9,452.5 113.7,455.5C112.5,457.1 109.2,460.8 106.3,463.7C102.8,467.2 99.8,469.2 96.9,470.0C93.5,471.0 91.3,470.8 85.4,469.4C81.4,468.5 77.4,468.0 76.6,468.3C75.7,468.7 75.0,469.4 75.0,469.9C75.0,470.5 76.2,471.7 77.6,472.7C79.0,473.6 82.3,474.9 84.8,475.6C87.4,476.3 91.3,476.9 93.6,476.9zM195.9,474.5C194.0,474.8 191.5,474.5 190.2,473.8C189.0,473.2 188.0,471.9 188.0,470.9C188.0,469.9 189.1,468.3 190.4,467.5C192.0,466.4 194.5,466.0 197.7,466.2C201.7,466.4 202.6,466.9 202.8,468.6C203.0,469.7 202.2,471.4 201.2,472.3C200.1,473.3 197.7,474.3 195.9,474.5zM638.9,468.6C640.4,467.8 643.4,465.2 645.5,462.9C647.8,460.4 648.9,458.5 648.2,458.2C647.5,458.0 645.0,459.0 642.5,460.5C640.0,461.9 637.3,464.2 636.4,465.5C635.5,466.8 635.1,468.4 635.5,469.0C635.9,469.6 637.0,469.5 638.9,468.6zM251.4,465.5C249.8,465.7 246.9,465.4 245.0,464.7C242.7,463.9 241.4,462.8 241.2,461.3C240.9,459.5 241.6,458.9 244.7,458.1C246.8,457.5 250.8,457.0 253.5,457.0C256.2,457.0 259.2,457.5 260.0,458.0C261.2,458.7 261.2,459.4 260.4,460.7C259.8,461.7 258.2,463.1 256.8,463.8C255.4,464.4 252.9,465.2 251.4,465.5zM684.0,463.0C696.5,463.0 696.5,463.0 707.2,451.8C713.2,445.6 718.0,440.0 718.0,439.4C718.0,438.8 714.4,437.3 709.9,436.1C705.5,434.9 699.6,433.6 696.9,433.3C694.2,433.0 691.7,432.3 691.4,431.9C691.1,431.4 693.0,427.6 695.5,423.3C698.0,419.0 700.0,415.0 700.0,414.3C700.0,413.6 699.6,413.0 699.2,413.0C698.7,413.0 696.8,414.2 694.8,415.8C692.8,417.3 688.4,421.9 684.9,426.0C681.5,430.1 676.7,435.6 674.4,438.1C672.1,440.6 669.5,444.1 668.6,445.9C666.9,449.1 666.9,449.1 672.9,448.4C677.3,447.9 679.0,448.1 679.0,448.9C679.0,449.6 676.7,452.6 673.8,455.6C669.6,460.0 668.9,461.3 670.0,462.0C670.8,462.6 677.1,463.0 684.0,463.0zM78.7,454.0C78.9,454.0 80.4,452.4 82.1,450.5C84.8,447.5 85.8,447.0 89.7,447.0C92.1,447.0 95.1,447.5 96.3,448.1C97.5,448.7 99.2,450.1 100.1,451.2C101.6,453.2 101.8,453.1 106.4,447.5C108.9,444.4 111.3,440.7 111.6,439.3C112.1,437.5 111.6,436.2 109.4,433.9C107.9,432.3 104.1,430.1 101.1,428.9C97.4,427.5 92.8,426.8 87.5,426.7C80.5,426.5 78.8,426.9 74.0,429.4C71.1,431.0 67.3,433.2 65.7,434.4C64.1,435.5 62.2,437.7 61.4,439.2C60.6,440.7 60.0,442.8 60.0,443.8C60.0,444.9 60.6,446.3 61.4,447.0C62.6,447.9 63.5,447.7 65.8,446.0C67.8,444.5 69.5,444.0 70.9,444.5C72.1,444.8 73.7,446.6 74.6,448.3C75.5,450.1 76.7,452.1 77.2,452.8C77.8,453.4 78.4,454.0 78.7,454.0zM624.2,441.0C629.3,440.9 634.7,440.4 636.2,439.7C637.7,439.0 641.2,435.9 643.9,432.7C646.7,429.6 651.9,422.6 655.6,417.2C659.3,411.9 663.3,406.7 664.4,405.8C665.6,404.8 667.1,404.0 667.9,404.0C668.7,404.0 669.0,404.6 668.6,405.6C668.3,406.5 667.7,408.3 667.4,409.6C666.9,411.5 667.2,412.0 668.8,412.0C669.9,412.0 672.7,411.3 675.1,410.5C677.5,409.6 681.0,407.5 682.8,405.7C684.7,403.9 688.1,399.8 690.4,396.5C692.8,393.2 696.8,386.7 699.4,382.2C702.0,377.6 703.9,373.6 703.6,373.2C703.2,372.9 696.7,373.2 689.0,373.8C680.0,374.6 673.1,375.7 669.6,377.1C666.3,378.3 662.8,380.5 660.8,382.8C659.0,384.8 655.8,389.5 653.7,393.2C651.7,396.8 650.0,400.3 650.0,400.9C650.0,401.5 651.8,402.0 654.0,402.0C656.2,402.0 658.0,402.2 658.0,402.4C658.0,402.6 657.7,403.6 657.4,404.5C657.0,405.4 653.5,407.7 649.6,409.7C645.7,411.7 640.0,415.0 636.9,417.1C633.8,419.2 627.6,424.8 623.2,429.6C618.7,434.4 615.0,438.9 615.0,439.6C615.0,440.7 617.1,441.0 624.2,441.0zM508.3,434.9C505.1,434.8 500.5,434.4 498.1,433.9C495.7,433.4 491.9,431.9 489.8,430.5C487.7,429.1 486.0,427.6 486.0,427.0C486.0,426.5 486.5,425.8 487.1,425.4C487.7,425.1 496.4,425.3 506.3,426.0C516.3,426.7 525.1,427.6 525.9,428.0C526.9,428.6 526.8,429.1 525.0,430.8C523.8,431.9 520.9,433.3 518.5,433.9C516.1,434.5 511.5,435.0 508.3,434.9zM300.0,390.7C290.6,391.0 290.3,391.0 271.6,384.6C261.2,381.1 252.4,377.6 252.0,377.0C251.6,376.4 251.7,373.6 252.2,370.9C252.7,368.1 254.0,362.4 255.0,358.2C256.1,354.0 259.0,346.4 261.5,341.4C265.0,334.2 267.3,331.0 272.4,326.2C276.8,322.1 280.7,319.5 284.7,318.0C289.5,316.2 292.1,315.9 299.5,316.2C306.6,316.5 309.7,317.1 314.1,319.1C317.2,320.6 321.6,323.4 323.9,325.5C326.1,327.5 329.3,332.0 331.0,335.4C332.7,338.7 334.7,344.9 335.6,349.0C336.6,353.6 336.9,358.4 336.5,361.5C336.2,364.2 334.8,368.8 333.4,371.7C332.1,374.5 329.1,378.5 326.8,380.5C324.6,382.6 319.8,385.6 316.1,387.3C310.4,390.0 308.2,390.5 300.0,390.7zM301.0,382.4C303.5,382.1 306.9,381.2 308.6,380.4C310.3,379.6 313.1,377.4 314.9,375.6C316.7,373.8 318.7,370.5 319.5,368.4C320.2,366.2 320.6,364.1 320.3,363.7C320.0,363.2 317.2,365.3 314.1,368.3C311.0,371.4 307.2,374.4 305.7,374.9C304.1,375.5 300.6,376.0 297.9,376.0C295.2,376.0 291.3,375.3 289.3,374.5C287.3,373.6 283.6,371.3 281.2,369.3C276.7,365.6 276.7,365.6 277.4,368.6C277.8,370.2 278.9,372.6 279.9,373.9C280.8,375.3 282.8,377.3 284.2,378.3C285.7,379.4 289.0,380.9 291.7,381.6C294.4,382.4 298.5,382.7 301.0,382.4zM270.3,377.9C270.7,378.0 271.3,377.3 271.6,376.5C271.9,375.7 271.2,372.5 269.9,369.5C268.7,366.5 267.3,364.0 266.8,364.0C266.4,364.0 265.3,365.1 264.4,366.5C263.5,367.8 262.7,370.4 262.6,372.2C262.5,375.1 262.9,375.6 266.0,376.7C267.9,377.3 269.9,377.9 270.3,377.9zM557.6,368.5C562.0,368.1 567.3,367.4 569.5,366.8C571.7,366.3 575.2,364.7 577.3,363.4C579.4,362.0 583.8,357.3 587.1,352.8C590.5,348.3 594.6,341.9 596.2,338.5C597.9,335.2 600.8,329.0 602.6,324.7C604.5,320.4 606.0,316.0 606.0,314.9C606.0,313.9 605.7,313.0 605.4,313.0C605.1,313.0 602.9,314.4 600.4,316.0C596.0,319.1 596.0,319.1 596.0,316.3C596.0,314.8 597.1,311.1 598.5,308.2C599.9,305.2 601.0,302.2 601.0,301.4C601.0,300.6 600.6,300.0 600.1,300.0C599.6,300.0 596.5,301.8 593.3,304.0C590.0,306.2 583.9,311.5 579.9,315.8C575.8,320.0 566.5,331.5 559.2,341.3C551.9,351.0 546.0,359.4 546.0,359.9C546.0,360.5 548.0,360.3 550.7,359.5C553.3,358.7 555.8,358.4 556.3,358.9C556.7,359.3 555.4,361.8 553.4,364.4C549.8,369.2 549.8,369.2 557.6,368.5zM649.2,365.5C651.6,365.2 654.9,364.4 656.5,363.9C658.2,363.4 662.1,360.4 665.1,357.2C668.2,354.1 673.4,348.1 676.7,344.0C680.0,339.9 683.0,335.7 683.3,334.7C683.7,333.7 683.5,332.8 682.7,332.6C682.1,332.4 678.2,331.2 674.2,329.9C670.3,328.6 667.0,327.3 667.0,326.9C667.0,326.6 668.3,324.5 669.8,322.4C671.3,320.3 673.7,316.5 675.2,314.0C676.6,311.5 678.5,307.8 679.3,305.8C680.8,302.2 680.8,302.0 679.0,302.0C678.0,302.0 675.1,304.1 672.5,306.6C670.0,309.2 665.7,314.5 663.0,318.5C658.1,325.7 658.1,325.7 646.8,326.3C639.7,326.6 633.9,327.4 631.5,328.5C629.3,329.4 626.5,331.1 625.2,332.3C623.9,333.5 620.6,337.5 617.9,341.1C615.2,344.8 613.0,348.2 613.0,348.7C613.0,349.2 619.1,349.5 627.8,349.3C638.6,349.0 643.2,349.2 645.0,350.2C646.7,351.1 647.6,352.5 647.8,354.7C648.0,356.4 647.4,359.2 646.6,360.9C645.7,362.5 645.0,364.4 645.0,365.0C645.0,365.8 646.4,366.0 649.2,365.5zM138.0,361.0C139.6,361.0 141.2,360.5 141.5,360.0C141.9,359.4 140.8,357.4 139.2,355.5C137.5,353.7 135.9,350.7 135.5,348.8C135.2,347.0 134.6,344.7 134.3,343.6C133.9,342.1 133.6,342.0 132.9,343.1C132.4,343.9 132.0,347.2 132.0,350.5C132.0,354.4 132.6,357.4 133.6,358.8C134.6,360.2 136.2,361.0 138.0,361.0zM296.9,352.0C297.4,352.0 298.9,351.6 300.2,351.1C301.5,350.6 304.2,348.1 306.3,345.4C308.3,342.8 310.0,339.8 310.0,338.8C310.0,337.8 308.1,335.7 305.8,334.0C303.2,332.1 300.5,331.0 298.3,331.0C296.4,331.0 293.6,331.7 292.1,332.5C290.5,333.3 287.6,335.8 285.6,338.2C282.8,341.4 282.0,343.2 282.0,346.2C282.0,348.8 282.4,350.0 283.4,350.0C284.2,350.0 285.2,349.6 285.5,349.0C285.8,348.4 287.6,348.0 289.3,348.0C291.3,348.0 293.2,348.8 294.3,350.0C295.2,351.1 296.4,352.0 296.9,352.0zM146.5,333.8C148.8,333.6 150.0,332.6 151.8,329.2C153.4,326.4 154.0,324.1 153.6,322.5C153.2,321.1 151.7,319.4 150.2,318.7C148.7,317.9 146.8,317.5 146.0,317.8C145.2,318.0 143.4,319.2 142.2,320.4C140.9,321.5 139.2,323.7 138.4,325.2C137.6,326.7 137.0,328.4 137.0,329.0C137.0,329.6 138.5,330.9 140.2,332.0C142.1,333.2 144.8,333.9 146.5,333.8zM421.4,315.0C420.8,315.0 420.1,314.7 419.7,314.4C419.4,314.0 420.0,312.0 421.1,309.9C422.2,307.7 422.9,306.0 422.7,306.0C422.5,306.0 419.0,307.1 415.0,308.5C411.0,309.9 406.6,311.0 405.3,311.0C403.9,311.0 403.0,310.4 403.0,309.4C403.0,308.5 405.0,305.3 407.4,302.2C409.8,299.0 412.3,295.5 412.9,294.2C413.6,292.8 413.7,292.0 413.1,292.0C412.5,292.0 409.3,293.8 405.9,296.0C402.5,298.2 399.0,300.0 398.2,300.0C397.2,300.0 397.0,299.3 397.5,297.3C397.8,295.9 400.1,291.3 402.5,287.1C404.9,282.9 406.5,279.4 406.0,279.2C405.5,279.0 402.5,280.7 399.4,282.9C396.2,285.2 393.3,287.0 392.8,287.0C392.4,287.0 392.0,286.4 392.0,285.7C392.0,284.9 393.1,282.1 394.5,279.4C395.9,276.7 397.0,274.1 397.0,273.7C397.0,273.3 395.3,274.1 393.3,275.5C391.2,276.9 388.7,278.0 387.8,278.0C386.8,278.0 386.0,277.5 386.0,276.8C386.0,276.2 387.6,272.7 389.6,269.1C391.6,265.5 395.2,259.7 397.7,256.2C400.1,252.8 404.8,247.7 408.1,245.0C411.5,242.2 416.4,238.8 419.2,237.4C422.0,236.0 427.2,234.2 430.9,233.4C434.5,232.7 439.8,232.0 442.5,232.1C445.2,232.1 450.9,232.7 455.2,233.4C459.4,234.2 465.6,236.0 468.9,237.6C473.2,239.4 476.7,242.1 480.4,246.1C483.7,249.6 486.4,253.8 487.4,256.7C488.4,259.3 489.4,264.4 489.7,268.0C490.0,272.3 489.7,276.8 488.6,281.3C487.7,285.0 486.1,289.9 484.9,292.1C483.8,294.4 480.9,298.2 478.5,300.6C476.1,303.0 472.9,305.2 471.5,305.6C470.1,305.9 468.7,306.0 468.4,305.7C468.1,305.4 469.3,302.4 471.0,299.0C472.7,295.6 474.0,292.4 473.8,291.8C473.6,291.2 468.8,294.3 463.2,298.6C457.5,303.0 450.4,308.4 447.3,310.8C444.3,313.1 440.7,315.0 439.4,315.0C437.8,315.0 437.0,314.4 437.0,313.2C437.0,312.3 438.4,309.7 440.0,307.6C441.7,305.4 442.8,303.5 442.6,303.3C442.4,303.0 440.5,303.8 438.3,304.9C436.2,306.0 431.8,308.7 428.5,310.9C425.2,313.2 422.0,315.0 421.4,315.0zM590.8,271.6C591.7,271.4 593.6,270.9 595.0,270.5C596.4,270.2 599.1,269.2 601.0,268.4C603.2,267.4 606.2,264.5 609.0,260.7C611.4,257.3 616.0,250.0 619.2,244.5C622.4,239.0 625.0,234.0 625.0,233.3C625.0,232.6 623.9,232.0 622.5,232.0C621.2,232.0 617.7,232.5 614.8,233.1C611.9,233.7 606.8,235.5 603.5,237.0C600.2,238.5 596.0,240.9 594.2,242.5C592.4,244.0 589.7,247.1 588.1,249.4C586.5,251.6 584.9,254.6 584.5,255.8C583.8,258.1 583.9,258.2 589.4,257.5C593.7,256.9 595.0,257.1 595.0,258.1C595.0,258.8 593.6,261.7 592.0,264.7C590.4,267.6 589.0,270.5 589.0,271.1C589.0,271.6 589.8,271.9 590.8,271.6zM259.8,254.0C258.5,253.9 256.3,253.3 254.9,252.5C253.4,251.7 251.5,249.4 250.5,247.4C249.1,244.3 248.8,241.9 249.3,234.1C249.6,228.8 250.3,223.0 251.0,221.2C251.7,219.5 252.6,218.0 253.1,218.0C253.6,218.0 254.7,220.6 255.5,223.8C256.4,226.9 257.6,231.0 258.2,232.8C258.7,234.5 259.6,236.0 260.1,236.0C260.6,236.0 262.3,233.4 263.9,230.2C265.5,227.1 267.7,223.4 268.8,222.0C270.7,219.7 270.9,219.6 271.6,221.4C272.0,222.4 271.5,227.6 270.5,232.9C269.5,238.2 268.1,244.6 267.3,247.2C266.6,249.8 265.1,252.4 264.0,253.0C263.0,253.5 261.1,254.0 259.8,254.0zM297.7,254.0C295.9,254.0 293.7,253.5 292.8,252.9C291.6,252.2 291.0,250.7 291.0,248.0C291.0,245.8 291.8,241.8 292.8,239.2C293.8,236.5 297.2,230.1 300.2,224.9C303.3,219.7 307.2,214.2 308.9,212.6C312.0,209.6 312.0,209.6 312.0,226.3C312.0,240.2 311.8,243.0 310.5,243.0C309.7,243.0 308.3,244.2 307.3,245.6C306.3,247.0 304.4,249.4 303.2,251.1C301.4,253.2 300.0,254.0 297.7,254.0zM227.0,248.7C225.6,248.8 223.8,248.6 223.0,248.3C222.2,248.0 220.2,246.8 218.6,245.7C217.1,244.6 214.9,241.9 213.9,239.6C212.9,237.3 212.0,233.2 212.0,230.4C212.0,227.5 212.9,222.3 214.0,218.6C215.1,215.0 216.5,211.8 217.1,211.4C217.7,211.0 218.6,211.4 219.1,212.1C219.5,212.8 222.2,220.1 225.0,228.3C227.8,236.5 230.0,244.4 229.8,245.8C229.6,247.9 228.9,248.5 227.0,248.7zM521.5,236.0C522.2,236.0 526.0,232.2 530.0,227.6C533.9,223.0 538.8,216.8 540.7,213.9C542.7,211.0 546.2,204.6 548.6,199.6C550.9,194.6 554.7,185.5 556.9,179.4C559.2,173.3 561.0,168.0 561.0,167.6C561.0,167.3 560.4,167.0 559.8,167.0C559.1,167.0 555.4,168.6 551.5,170.6C547.6,172.6 540.9,176.7 536.5,179.8C532.1,182.8 526.2,187.4 523.3,189.8C520.4,192.3 515.0,197.9 511.2,202.4C507.4,206.9 503.6,211.7 502.6,213.1C500.9,215.8 500.9,215.8 507.8,222.1C511.5,225.6 515.9,230.2 517.4,232.2C519.0,234.3 520.8,236.0 521.5,236.0zM481.0,204.8C481.3,204.9 482.0,204.6 482.6,204.2C483.2,203.8 487.1,198.3 491.2,192.0C495.3,185.7 500.6,177.3 502.9,173.3C505.3,169.3 507.0,165.6 506.8,165.0C506.6,164.4 503.9,165.2 500.5,166.9C497.2,168.5 489.6,173.0 483.6,176.9C477.6,180.8 472.3,184.0 471.8,184.0C471.3,184.0 470.7,183.3 470.3,182.4C470.0,181.6 471.4,177.6 473.4,173.6C475.4,169.5 479.1,163.4 481.6,160.0C484.1,156.6 486.0,153.6 485.8,153.5C485.6,153.3 482.4,154.2 478.6,155.5C474.9,156.8 469.3,159.4 466.3,161.2C463.3,163.0 457.0,168.0 452.4,172.3C446.8,177.5 442.3,183.0 439.0,188.3C436.2,192.8 434.0,196.9 434.0,197.6C434.0,198.3 438.6,198.9 448.2,199.3C458.6,199.7 465.0,200.6 471.5,202.3C476.4,203.6 480.7,204.8 481.0,204.8zM297.2,186.0C298.3,184.6 300.3,181.5 301.5,178.9C302.8,176.4 306.6,170.0 309.9,164.6C313.3,159.3 319.4,149.9 323.6,143.7C327.8,137.6 331.9,131.1 332.6,129.3C333.4,127.5 334.0,123.3 334.0,120.0C334.0,115.6 333.6,114.0 332.6,114.0C331.9,114.0 327.5,116.7 323.0,119.9C318.4,123.2 311.4,128.8 307.3,132.5C303.2,136.2 296.1,143.8 291.4,149.3C286.8,154.9 283.0,159.9 283.0,160.5C283.0,161.1 284.1,162.7 285.5,164.0C287.1,165.5 289.1,169.8 291.0,175.9C292.7,181.2 294.3,186.2 294.6,187.0C295.0,188.2 295.6,188.0 297.2,186.0zM376.2,176.8C385.5,170.5 385.5,170.5 387.8,159.5C389.0,153.4 391.1,142.2 392.5,134.5C393.9,126.8 395.0,119.5 395.0,118.2C395.0,116.0 394.9,116.0 392.1,117.5C390.5,118.3 384.3,123.0 378.3,127.8C372.3,132.7 364.2,140.2 360.3,144.4C356.5,148.6 351.1,155.2 348.5,159.0C345.8,162.9 343.9,166.3 344.3,166.6C344.6,167.0 348.2,166.5 352.2,165.6C356.2,164.6 360.3,163.7 361.3,163.5C362.2,163.3 363.5,164.0 364.0,165.0C364.6,166.0 365.0,169.3 365.0,172.4C365.0,175.4 365.4,179.0 366.0,180.5C367.0,183.1 367.0,183.1 376.2,176.8zM445.2,161.0C445.6,161.0 446.6,160.0 447.4,158.8C448.1,157.5 449.5,154.2 450.3,151.5C451.2,148.8 452.6,142.7 453.5,138.1C454.3,133.5 455.0,128.3 455.0,126.4C455.0,124.2 454.5,123.0 453.6,123.0C452.9,123.0 448.4,125.4 443.6,128.2C437.8,131.7 431.6,136.8 424.9,143.4C419.4,148.9 415.1,153.8 415.3,154.4C415.6,155.1 418.1,155.4 422.1,155.2C425.6,155.0 430.9,155.1 433.8,155.5C437.3,155.9 440.0,157.0 441.8,158.5C443.3,159.9 444.8,161.0 445.2,161.0z" />

</svg>