<?xml version="1.0" encoding="UTF-8" standalone="no"?>
<svg 
  version="1.1" 
  xmlns="http://www.w3.org/2000/svg" 
  xmlns:xlink="http://www.w3.org/1999/xlink" 
  xmlns:svg="http://www.w3.org/2000/svg"
  xmlns:rdf="http://www.w3.org/1999/02/22-rdf-syntax-ns#"
  xmlns:cc="http://creativecommons.org/ns#"
  xmlns:dc="http://purl.org/dc/elements/1.1/"
  viewBox="0 0 768 768"
  width="768"
  height="768"
>
<style>svg {background-color: white; }</style>"
<metadata id="metadata1">
Created by https://svgstud.io and licensed under CC-BY-SA 4.0 license. Please attribute https://svgstud.io
</metadata>
<metadata id="prompt">
legba
</metadata>
<metadata id="version">
7
</metadata>
<metadata id="metadata2">
<rdf:RDF>
<cc:Work
    rdf:about="">
    <cc:license
    rdf:resource="http://creativecommons.org/licenses/by-sa/4.0/" />
    <dc:creator>
        <cc:Agent>
            <dc:title>https://svgstud.io</dc:title>
        </cc:Agent>
    </dc:creator>
</cc:Work>
<cc:License
    rdf:about="http://creativecommons.org/licenses/by-sa/4.0/">
    <cc:permits
    rdf:resource="http://creativecommons.org/ns#Reproduction" />
    <cc:permits
    rdf:resource="http://creativecommons.org/ns#Distribution" />
    <cc:requires
    rdf:resource="http://creativecommons.org/ns#Notice" />
    <cc:requires
    rdf:resource="http://creativecommons.org/ns#Attribution" />
    <cc:permits
    rdf:resource="http://creativecommons.org/ns#DerivativeWorks" />
    <cc:requires
    rdf:resource="http://creativecommons.org/ns#ShareAlike" />
</cc:License>
</rdf:RDF>
</metadata>
<metadata id="uid">
0d12daeddac5238c53d04389394791b609bdf2c4042cabbb8ef579aab5520ca0
</metadata>
<path stroke="none" fill="black" fill-rule="evenodd" d="M398.0,734.9C388.4,734.8 376.3,734.3 371.1,733.9C365.9,733.4 355.8,732.2 348.5,731.1C341.3,730.0 334.2,728.6 332.7,728.1C330.7,727.3 330.0,726.4 330.0,724.3C330.0,722.4 331.0,720.7 333.2,718.8C336.5,716.1 336.5,716.1 324.0,715.9C317.1,715.9 306.1,715.5 299.5,715.0C292.9,714.6 281.6,713.5 274.5,712.6C267.4,711.7 260.1,710.6 258.5,710.2C256.7,709.7 255.0,708.3 254.2,706.7C253.2,704.6 253.2,703.5 254.1,701.9C255.2,699.7 255.1,699.7 250.0,700.3C247.2,700.6 236.7,700.3 226.7,699.5C216.7,698.7 203.3,697.1 197.0,696.0C190.7,694.8 182.8,693.2 179.5,692.4C176.2,691.6 171.8,690.2 169.8,689.3C167.6,688.4 166.0,687.0 166.0,686.0C166.0,685.1 167.8,680.6 170.0,676.1C172.2,671.5 173.9,667.6 173.8,667.5C173.6,667.4 170.6,667.6 167.0,668.0C163.4,668.4 153.7,668.3 145.4,667.9C137.0,667.5 128.5,666.8 126.4,666.5C124.2,666.1 121.7,665.6 120.8,665.3C119.7,665.1 119.0,663.9 119.0,662.5C119.0,661.2 118.6,659.0 118.1,657.7C117.2,655.3 116.9,655.2 106.3,655.2C100.3,655.1 90.8,654.4 85.1,653.6C79.5,652.7 74.4,651.8 73.9,651.5C73.4,651.1 73.0,649.8 73.0,648.5C73.0,647.0 74.6,644.8 77.6,642.2C80.1,639.9 86.1,636.1 90.9,633.6C95.8,631.1 103.4,628.1 108.0,627.1C112.5,626.0 119.2,624.8 123.0,624.4C126.7,624.1 130.4,623.4 131.1,622.9C132.2,622.2 132.3,621.7 131.3,620.1C130.7,619.1 130.4,617.9 130.7,617.6C131.1,617.3 136.5,617.0 142.8,617.0C153.2,617.0 154.1,616.9 152.9,615.4C152.2,614.5 149.1,612.2 146.0,610.3C143.0,608.4 139.0,605.4 137.2,603.7C135.5,602.0 134.0,600.2 134.0,599.7C134.0,599.2 135.5,599.1 137.2,599.5C139.0,599.8 143.4,601.1 147.0,602.2C150.6,603.3 155.2,605.1 157.3,606.2C159.4,607.3 161.8,608.0 162.7,607.8C163.7,607.6 161.4,604.5 155.5,598.2C150.5,592.9 147.5,589.0 148.4,589.0C149.2,589.0 153.0,590.1 156.7,591.5C160.5,592.9 165.4,595.4 167.7,597.0C170.0,598.7 172.3,600.0 172.9,600.0C173.5,600.0 174.0,599.5 174.0,598.9C174.0,598.3 172.4,594.9 170.4,591.4C168.4,587.9 167.2,585.0 167.7,585.0C168.1,585.0 169.8,585.8 171.5,586.8C173.2,587.9 177.1,591.0 180.2,593.9C184.9,598.2 186.0,598.8 186.0,597.2C186.0,596.1 185.3,593.4 184.5,591.1C183.5,588.1 183.4,587.1 184.3,587.6C185.0,588.0 186.7,589.2 188.2,590.2C189.6,591.2 191.1,592.0 191.4,592.0C191.7,592.0 192.0,589.1 192.0,585.6C192.0,581.7 191.5,578.9 190.8,578.3C190.1,577.7 182.5,575.0 174.0,572.2C165.5,569.4 155.1,566.2 151.0,565.2C146.9,564.1 139.9,562.5 135.5,561.6C131.1,560.8 122.5,559.6 116.5,559.0C110.5,558.4 101.8,558.2 97.2,558.6C90.2,559.1 89.0,559.0 89.0,557.7C89.0,556.9 91.1,554.3 93.7,552.0C96.3,549.8 102.1,546.2 106.6,544.0C111.1,541.9 117.5,539.4 120.7,538.6C123.9,537.8 129.2,536.8 132.5,536.5C136.8,536.0 141.4,536.4 149.0,538.0C154.7,539.2 162.6,541.5 166.6,543.1C170.5,544.7 176.3,548.0 179.6,550.5C182.8,552.9 187.0,556.1 188.8,557.6C192.0,560.3 192.0,560.3 192.0,548.4C192.0,536.5 192.0,536.5 186.2,532.8C183.1,530.8 175.1,525.4 168.5,521.0C161.9,516.5 151.6,510.4 145.5,507.3C139.4,504.3 130.8,500.3 126.3,498.4C121.8,496.5 114.9,494.3 111.0,493.5C107.1,492.7 98.5,491.4 91.9,490.6C85.3,489.8 79.7,489.0 79.4,488.7C79.2,488.5 79.2,487.6 79.5,486.8C79.9,485.9 82.2,484.1 84.8,482.7C87.4,481.3 92.9,479.0 97.0,477.4C103.7,474.9 105.8,474.6 117.0,474.6C125.6,474.6 131.8,475.1 137.0,476.4C141.1,477.3 147.8,479.4 151.8,481.0C155.8,482.6 163.2,486.4 168.4,489.4C173.5,492.5 180.9,497.9 184.8,501.6C192.0,508.2 192.0,508.2 192.0,483.2C192.0,458.3 192.0,458.3 188.2,455.8C186.2,454.4 180.9,450.2 176.5,446.4C172.1,442.6 164.9,437.2 160.5,434.4C156.1,431.6 149.3,427.7 145.5,425.8C141.7,423.9 135.8,421.3 132.5,420.0C129.2,418.7 125.9,417.2 125.2,416.7C124.3,416.0 124.3,415.4 125.0,414.5C125.6,413.8 129.3,412.4 133.2,411.5C138.5,410.2 142.6,409.9 149.9,410.3C157.2,410.7 161.6,411.6 168.1,414.0C172.9,415.7 180.1,419.3 184.1,422.0C191.5,426.9 191.5,426.9 191.8,364.2C192.1,301.5 192.1,301.5 188.3,298.5C186.3,296.9 182.5,293.6 179.9,291.2C177.4,288.9 173.8,284.2 171.9,280.8C169.2,275.6 168.6,273.5 168.7,268.5C168.7,264.3 169.4,261.1 170.9,258.1C172.1,255.7 175.1,251.9 177.5,249.5C179.9,247.1 185.5,243.0 190.0,240.4C197.5,236.0 198.1,235.4 197.5,233.1C197.2,231.7 196.2,227.1 195.4,223.0C194.7,218.9 193.6,211.9 193.1,207.5C192.6,203.1 191.6,196.3 191.0,192.5C190.3,188.7 188.0,177.4 185.9,167.5C183.7,157.6 181.4,147.0 180.6,143.9C179.5,139.4 179.5,137.6 180.5,134.7C181.2,132.7 183.7,128.7 186.1,125.8C188.5,122.9 192.0,119.2 193.8,117.6C195.6,116.0 199.0,113.2 201.3,111.5C203.7,109.7 210.2,105.9 215.9,103.0C221.6,100.2 229.7,96.6 233.9,95.0C238.1,93.5 247.6,90.8 255.0,89.2C262.4,87.5 274.1,85.3 281.0,84.4C290.0,83.1 300.1,82.6 317.0,82.7C329.9,82.7 345.7,83.2 352.0,83.9C358.3,84.5 369.6,86.2 377.0,87.6C384.4,89.0 394.9,91.3 400.3,92.7C405.7,94.1 416.5,97.7 424.3,100.7C432.1,103.6 442.6,108.5 447.6,111.5C452.5,114.4 458.8,118.7 461.6,120.9C464.3,123.2 468.8,127.8 471.6,131.1C474.5,134.4 477.0,138.4 477.3,139.8C477.6,141.3 476.3,147.7 474.4,154.4C472.6,160.9 469.7,172.4 468.1,179.9C466.5,187.4 464.2,199.3 463.1,206.5C462.0,213.7 460.9,224.0 460.8,229.4C460.5,239.2 460.6,239.4 463.0,240.6C464.4,241.3 469.0,243.5 473.2,245.4C477.7,247.4 483.0,250.8 485.9,253.5C488.7,256.1 491.4,259.7 492.0,261.6C492.9,264.3 492.8,266.1 491.5,270.6C490.1,275.5 488.7,277.5 481.2,284.9C476.4,289.6 470.5,294.6 468.2,296.0C465.8,297.4 463.0,299.2 461.9,300.0C460.1,301.4 460.0,302.3 460.9,321.0C461.5,331.7 462.4,353.3 463.0,369.0C463.6,384.7 464.5,406.7 465.0,418.0C465.6,429.3 466.5,445.7 467.1,454.5C467.6,463.3 468.7,481.8 469.5,495.5C470.3,509.2 471.4,527.5 472.0,536.0C472.6,544.5 473.5,555.8 474.0,561.0C474.6,566.2 475.3,572.4 475.6,574.8C476.2,579.0 476.2,579.0 482.1,579.0C488.0,579.0 488.0,579.0 488.0,569.5C488.0,564.3 488.4,560.0 488.9,560.0C489.4,560.0 490.5,561.6 491.5,563.6C492.4,565.6 494.0,569.5 494.9,572.4C495.9,575.3 497.3,577.5 498.1,577.5C498.9,577.5 500.2,576.0 501.0,574.1C501.8,572.3 503.6,568.5 505.0,565.7C506.4,562.9 508.0,560.4 508.7,560.2C509.6,560.0 510.0,562.6 510.2,569.7C510.5,579.5 510.5,579.5 518.5,580.7C522.9,581.4 531.8,582.9 538.3,584.1C544.8,585.3 550.3,586.1 550.4,585.9C550.6,585.7 550.4,573.8 549.9,559.5C549.5,545.2 549.1,530.0 549.1,525.8C549.0,520.5 548.6,517.7 547.6,516.7C546.7,515.8 543.9,515.2 540.7,515.1C537.8,515.1 533.1,514.6 530.3,514.1C527.6,513.5 523.5,512.1 521.4,510.9C519.3,509.7 516.2,507.5 514.7,506.1C513.1,504.7 510.7,501.3 509.3,498.6C508.0,496.0 506.2,490.1 505.3,485.6C504.3,480.5 504.0,475.1 504.4,471.1C504.7,467.6 505.6,463.7 506.5,462.4C507.9,460.2 508.7,460.0 517.0,460.0C524.5,460.0 526.3,460.3 527.9,461.9C529.2,463.2 530.0,465.9 530.5,471.1C530.9,475.2 532.0,480.4 533.1,482.6C534.5,485.5 536.4,487.4 539.4,489.1C543.0,491.0 544.3,491.2 547.1,490.4C550.5,489.4 550.5,489.4 550.2,475.5C550.0,467.8 549.2,451.2 548.4,438.6C547.0,415.6 547.0,415.6 551.6,407.1C554.2,402.4 558.0,396.0 560.1,392.8C562.2,389.7 565.1,386.2 566.6,385.1C568.1,383.9 569.6,383.0 570.0,383.0C570.5,383.0 573.5,387.2 576.7,392.2C580.0,397.3 583.8,403.5 585.2,406.0C587.7,410.5 587.7,410.5 588.2,446.3C588.7,478.0 588.9,482.4 590.4,483.8C591.7,485.1 594.0,485.5 600.6,485.5C608.7,485.5 609.3,485.4 611.6,482.7C612.9,481.2 614.7,477.4 615.6,474.4C616.8,470.2 617.1,465.5 616.8,454.2C616.5,439.5 616.5,439.5 623.2,429.5C626.8,424.0 631.4,417.8 633.4,415.7C635.3,413.7 637.6,412.0 638.4,412.0C639.2,412.0 641.6,414.0 643.8,416.5C646.0,419.0 649.7,424.8 651.9,429.3C654.1,433.8 656.5,439.9 657.2,442.8C658.1,446.9 658.1,451.4 657.2,463.0C656.4,473.0 655.3,480.0 653.9,484.2C652.7,487.7 650.9,492.1 649.9,494.0C649.0,495.9 646.5,499.4 644.5,501.7C642.3,504.3 638.2,507.2 634.2,509.2C627.5,512.5 627.5,512.5 611.5,512.5C595.5,512.5 595.5,512.5 595.6,529.5C595.6,538.9 596.2,555.3 596.8,566.0C597.5,576.7 598.3,589.2 598.6,593.7C598.9,598.2 599.7,602.6 600.4,603.6C601.5,605.0 602.0,604.5 604.0,599.1C605.4,595.2 606.6,593.2 607.2,593.8C607.7,594.3 608.4,596.7 608.6,599.1C608.9,601.5 609.3,604.5 609.6,605.8C609.8,607.0 610.4,608.0 610.8,608.0C611.2,608.0 613.0,605.0 614.7,601.2C616.5,597.5 620.0,591.9 622.5,588.8C625.1,585.6 627.6,583.0 628.1,583.0C628.6,583.0 629.0,583.6 629.0,584.3C629.0,585.1 628.1,588.3 626.9,591.6C625.8,594.8 624.8,599.8 624.7,602.5C624.6,605.2 625.0,607.7 625.5,607.9C626.0,608.1 628.1,605.2 630.2,601.4C632.2,597.7 635.4,593.3 637.4,591.7C639.4,590.1 641.0,589.0 641.0,589.3C641.0,589.5 640.3,591.4 639.5,593.3C638.7,595.3 638.0,598.1 638.0,599.5C638.0,600.9 638.3,602.0 638.6,602.0C638.9,602.0 640.9,600.6 643.0,599.0C645.1,597.3 648.5,595.3 650.5,594.4C652.6,593.6 654.4,593.1 654.7,593.3C654.9,593.6 652.9,596.6 650.2,600.2C647.5,603.7 644.5,608.0 643.6,609.7C642.7,611.5 642.0,613.4 642.0,614.0C642.0,614.5 642.4,615.0 642.9,615.0C643.4,615.0 646.4,612.6 649.7,609.7C653.0,606.7 658.4,602.7 661.7,600.7C665.1,598.6 668.0,597.0 668.4,597.0C668.7,597.0 669.0,597.6 669.0,598.4C669.0,599.2 666.7,602.7 663.9,606.2C661.1,609.7 658.2,613.7 657.4,615.2C655.9,618.0 655.9,618.0 660.7,618.0C663.4,618.0 670.9,619.1 677.6,620.4C684.2,621.7 693.4,624.3 698.0,626.1C702.5,627.9 707.7,630.3 709.3,631.5C711.0,632.6 712.8,634.3 713.4,635.2C714.2,636.5 714.0,637.4 712.6,638.9C711.6,640.0 708.8,641.9 706.4,643.1C704.0,644.2 699.2,645.9 695.8,646.7C691.5,647.7 683.8,648.3 671.8,648.4C662.1,648.4 653.9,648.8 653.5,649.2C653.1,649.5 653.6,651.2 654.4,652.9C655.3,654.5 656.0,657.0 656.0,658.3C656.0,660.2 655.1,661.1 652.1,662.3C650.0,663.2 645.6,664.5 642.4,665.3C639.1,666.2 633.8,667.1 630.5,667.5C627.2,667.8 623.1,668.3 621.5,668.5C619.9,668.7 614.7,669.2 610.0,669.5C604.9,669.9 600.1,670.9 598.0,672.0C596.1,673.0 591.8,675.2 588.6,676.9C582.9,679.9 582.4,680.0 568.9,680.0C558.7,680.0 553.0,680.5 546.9,682.0C542.4,683.0 538.6,684.1 538.3,684.3C538.1,684.6 538.5,685.9 539.1,687.3C540.0,689.3 540.0,690.3 539.2,691.3C538.5,692.1 536.3,693.2 534.2,693.8C532.1,694.5 525.0,695.3 518.4,695.6C511.9,696.0 505.9,696.6 505.2,696.9C504.2,697.5 504.6,698.6 506.5,701.4C507.9,703.5 509.0,706.0 508.8,706.9C508.6,707.8 506.4,709.9 503.8,711.7C500.3,713.9 495.6,715.6 486.3,717.8C479.3,719.5 470.1,721.1 466.0,721.5C460.8,722.0 456.2,723.2 450.8,725.5C446.6,727.4 440.7,729.6 437.8,730.5C434.8,731.3 428.6,732.7 424.0,733.5C418.3,734.5 409.6,735.0 398.0,734.9zM412.5,695.6C427.2,695.4 432.2,694.9 439.5,693.1C444.4,691.9 454.4,689.8 461.5,688.4C468.6,687.1 476.6,686.0 479.2,686.0C481.8,686.0 484.2,685.5 484.5,684.9C484.9,684.4 484.4,682.9 483.3,681.8C482.3,680.7 477.9,676.8 473.5,673.3C469.1,669.7 461.2,664.6 455.9,662.0C450.6,659.3 441.8,655.6 436.3,653.6C430.8,651.7 421.8,649.0 416.4,647.6C410.9,646.2 402.4,644.3 397.5,643.4C392.6,642.5 382.6,641.6 375.3,641.3C362.2,640.7 362.2,640.7 353.7,645.4C347.3,648.8 342.3,652.8 333.0,661.7C326.2,668.2 319.0,675.8 316.8,678.7C314.7,681.6 312.5,685.1 312.0,686.5C311.5,687.9 311.3,689.0 311.7,689.0C312.1,689.0 313.4,688.0 314.8,686.8C316.7,684.9 318.2,684.5 322.2,684.7C325.0,684.8 330.7,685.6 334.9,686.4C339.1,687.2 351.5,689.3 362.5,691.0C373.5,692.7 385.2,694.5 388.5,695.0C391.8,695.4 402.6,695.7 412.5,695.6zM274.0,674.6C292.0,674.4 293.9,674.2 298.8,672.0C301.7,670.8 303.9,669.3 303.7,668.7C303.6,668.2 299.4,665.7 294.5,663.1C289.5,660.6 285.3,658.4 285.1,658.3C284.9,658.1 285.2,657.4 285.9,656.7C286.7,655.6 286.6,654.9 285.2,653.7C284.3,652.8 280.1,651.4 276.0,650.5C271.9,649.6 263.6,648.1 257.5,647.0C251.4,645.9 244.0,644.7 241.0,644.2C235.5,643.3 235.5,643.3 239.2,641.7C241.7,640.6 245.6,640.0 250.7,640.0C255.0,640.0 263.2,640.7 269.0,641.5C274.8,642.3 283.8,643.7 289.0,644.5C294.2,645.3 301.4,646.5 305.0,647.1C308.6,647.6 313.5,648.4 315.9,648.7C320.2,649.3 320.3,649.3 319.6,646.6C319.1,644.5 319.3,644.0 320.7,644.0C321.7,644.0 324.3,643.1 326.5,642.1C330.5,640.3 330.5,640.3 325.7,637.4C323.0,635.8 320.1,633.9 319.2,633.2C317.8,632.1 318.7,632.0 324.8,632.5C328.8,632.9 335.3,633.8 339.2,634.6C343.4,635.5 346.7,635.7 347.2,635.2C347.7,634.7 345.8,632.2 342.4,629.1C339.3,626.2 333.3,622.2 329.1,620.1C324.9,618.0 317.8,615.1 313.3,613.7C308.8,612.2 301.3,610.5 296.6,609.8C290.1,608.9 286.1,608.9 280.4,609.7C274.6,610.5 270.2,612.1 261.4,616.5C254.2,620.1 245.1,625.8 237.2,631.8C230.2,637.0 223.1,641.9 221.3,642.7C219.5,643.4 217.0,644.0 215.6,644.0C214.3,644.0 210.4,645.9 206.9,648.2C203.4,650.5 197.7,655.1 194.4,658.5C191.0,661.8 187.3,666.5 186.0,668.9C183.8,673.3 183.8,673.3 186.5,671.1C188.5,669.6 190.7,669.0 194.1,669.0C196.8,669.0 203.4,669.6 208.8,670.4C214.1,671.2 224.8,672.3 232.5,672.9C240.2,673.6 248.3,674.2 250.5,674.4C252.7,674.6 263.3,674.7 274.0,674.6zM501.7,662.6C517.2,662.5 530.2,662.1 530.7,661.7C531.1,661.2 527.7,657.3 523.0,653.0C518.3,648.7 510.2,642.5 505.0,639.2C499.8,636.0 494.6,633.1 493.5,632.7C492.4,632.4 488.2,630.8 484.2,629.1C480.1,627.4 472.5,624.9 467.2,623.4C461.9,622.0 454.4,619.9 450.6,618.8C444.7,617.1 443.9,616.6 445.5,615.7C446.5,615.2 450.8,614.7 454.9,614.8C459.1,614.9 465.8,615.6 469.9,616.5C473.9,617.3 481.4,619.4 486.4,621.2C491.4,622.9 498.9,625.8 503.2,627.7C507.4,629.5 511.3,631.0 511.9,631.0C512.5,631.0 513.0,630.6 513.0,630.2C513.0,629.8 512.5,628.9 511.8,628.2C510.9,627.3 510.9,626.7 511.7,625.9C512.3,625.3 515.2,624.2 518.0,623.6C520.8,623.0 523.2,622.0 523.3,621.5C523.4,620.9 520.0,619.6 515.8,618.5C511.6,617.4 508.2,616.0 508.3,615.5C508.4,614.9 512.4,614.5 518.0,614.6C524.3,614.6 531.6,615.5 539.5,617.2C546.1,618.6 554.4,620.3 558.0,620.9C561.6,621.5 571.3,623.1 579.6,624.5C587.9,625.9 597.3,627.7 600.5,628.5C603.7,629.4 608.1,631.1 610.3,632.3C614.3,634.5 614.3,634.5 608.8,634.8C605.8,635.0 598.6,634.4 592.9,633.5C587.2,632.6 576.4,631.0 569.0,629.9C560.6,628.6 552.1,628.0 546.4,628.2C538.1,628.5 536.6,628.9 529.5,632.4C525.3,634.6 521.6,637.0 521.3,637.8C521.0,638.5 522.2,640.7 524.0,642.5C525.9,644.4 528.9,646.5 530.8,647.1C532.9,647.8 544.0,648.2 560.8,648.3C575.5,648.3 591.3,648.0 596.0,647.6C600.7,647.2 610.1,646.2 617.0,645.4C623.9,644.6 631.2,644.2 633.2,644.5C635.3,644.9 637.0,644.8 637.0,644.4C637.0,644.0 635.9,642.2 634.5,640.4C633.2,638.7 630.1,635.3 627.8,633.1C625.4,630.8 618.2,625.3 611.6,620.9C605.1,616.5 595.6,610.9 590.6,608.5C585.6,606.1 578.6,603.0 575.1,601.6C571.6,600.2 563.9,597.6 558.1,596.0C552.3,594.3 541.0,591.7 533.0,590.3C521.3,588.3 514.0,587.7 495.2,587.3C479.1,586.9 470.0,587.1 465.7,588.0C462.3,588.6 457.0,590.0 453.9,591.0C450.8,592.0 446.9,593.5 445.2,594.4C443.4,595.3 442.0,596.4 442.0,596.9C442.0,597.3 445.3,598.3 449.2,599.0C453.2,599.7 457.5,600.6 458.8,601.1C460.2,601.6 460.8,602.5 460.4,603.1C459.9,604.0 456.5,604.1 448.1,603.4C441.7,603.0 431.5,602.6 425.4,602.5C414.3,602.5 414.3,602.5 403.7,607.8C397.9,610.7 388.7,616.3 383.3,620.4C377.9,624.4 372.4,628.9 371.1,630.4C368.7,633.0 368.7,633.0 375.1,633.0C378.6,633.0 387.7,633.9 395.4,635.0C403.0,636.1 414.2,638.3 420.4,639.9C426.5,641.5 435.3,644.2 440.0,646.0C444.7,647.7 454.1,652.2 461.0,655.9C473.5,662.7 473.5,662.7 501.7,662.6zM139.2,645.4C142.0,642.9 144.0,642.1 149.0,641.6C152.4,641.2 165.0,641.2 176.9,641.7C188.8,642.1 200.1,642.4 202.2,642.3C204.2,642.2 207.7,641.2 210.0,640.0C212.3,638.8 219.2,634.5 225.3,630.4C231.5,626.3 238.3,621.7 240.5,620.2C242.7,618.6 246.0,616.5 247.8,615.5C249.5,614.4 251.0,613.2 251.0,612.8C251.0,612.4 250.2,612.0 249.2,612.0C248.3,612.0 240.8,611.3 232.5,610.5C224.1,609.7 213.8,609.3 209.0,609.6C204.3,609.9 196.4,611.3 191.3,612.6C186.3,613.9 177.7,617.1 172.3,619.9C166.8,622.6 158.3,627.5 153.4,630.9C148.4,634.2 142.7,638.9 140.8,641.2C138.9,643.6 137.0,646.2 136.5,647.0C136.0,647.8 137.2,647.1 139.2,645.4zM358.7,629.0C359.5,629.0 362.7,626.8 365.7,624.0C368.7,621.3 375.5,616.1 380.8,612.6C386.1,609.0 394.5,604.0 399.3,601.5C407.6,597.1 408.0,596.7 406.5,595.0C405.6,594.0 404.4,590.2 403.8,586.5C403.2,582.8 402.1,579.6 401.4,579.3C400.7,579.1 396.9,581.1 392.8,583.8C388.8,586.5 381.0,591.1 375.5,593.9C368.2,597.7 364.0,599.3 359.8,599.7C354.9,600.2 354.0,600.0 354.0,598.6C354.0,597.6 357.0,595.6 362.3,593.0C366.9,590.7 372.9,587.0 375.6,584.6C378.3,582.2 380.2,579.9 379.9,579.6C379.6,579.2 375.8,580.3 371.6,582.0C367.4,583.7 361.6,585.4 358.7,585.7C353.5,586.3 353.5,586.3 361.0,579.2C368.5,572.1 368.5,572.1 364.0,573.7C361.5,574.5 355.7,575.4 351.0,575.7C345.3,576.0 340.0,575.7 335.1,574.6C330.3,573.6 325.3,571.6 321.1,569.1C317.5,566.9 314.4,565.3 314.3,565.4C314.2,565.5 314.5,574.0 315.0,584.3C315.5,594.6 315.7,603.6 315.4,604.3C315.1,605.2 317.3,606.6 322.2,608.5C326.2,610.1 333.1,613.0 337.5,615.0C341.9,617.0 347.8,620.4 350.5,622.5C353.2,624.6 355.9,626.9 356.3,627.7C356.7,628.4 357.8,629.0 358.7,629.0zM257.0,606.9C258.4,606.9 260.2,606.6 261.0,606.0C262.3,605.2 262.3,605.1 261.0,604.7C260.2,604.4 256.5,603.7 252.9,603.1C249.2,602.5 244.6,602.0 242.5,602.0C240.4,602.0 239.0,602.3 239.4,602.8C239.8,603.2 243.4,604.2 247.3,605.1C251.3,606.0 255.6,606.8 257.0,606.9zM205.6,602.6C208.5,602.3 211.5,601.8 212.3,601.4C213.5,601.0 213.9,592.6 214.6,546.7C215.1,516.9 215.4,465.1 215.3,431.5C215.2,397.9 214.6,350.7 214.0,326.5C213.4,302.3 212.7,281.7 212.4,280.7C211.8,279.0 211.7,278.9 209.9,280.6C208.9,281.5 207.7,283.9 207.4,285.9C207.0,287.9 206.4,290.1 206.0,290.8C205.5,291.8 204.9,291.3 204.1,289.1C203.4,287.4 202.2,285.6 201.5,285.0C200.5,284.2 200.1,284.8 199.5,287.7C199.1,289.7 198.9,354.2 199.0,431.0C199.1,507.7 199.4,577.9 199.7,586.9C200.3,603.2 200.3,603.2 205.6,602.6zM302.7,602.9C303.9,603.0 305.2,602.5 305.6,601.9C305.9,601.3 305.7,596.7 305.1,591.7C304.5,586.6 303.1,571.0 302.0,557.0C300.9,543.0 299.5,528.2 298.9,524.3C298.3,520.3 298.1,516.1 298.5,515.0C298.8,513.9 299.5,513.0 300.0,513.0C300.5,513.0 302.1,515.0 303.5,517.5C305.0,519.9 307.3,524.8 308.7,528.4C310.2,532.5 312.4,536.0 314.3,537.6C316.1,539.1 320.2,541.6 323.6,543.2C326.9,544.7 335.3,547.2 342.1,548.6C348.9,550.0 359.9,551.6 366.5,552.1C373.1,552.7 381.6,552.9 385.5,552.6C390.0,552.2 394.4,551.0 397.8,549.4C400.6,548.0 403.5,545.9 404.1,544.8C404.8,543.6 404.9,540.6 404.6,537.1C404.2,534.0 403.3,527.9 402.5,523.5C401.7,519.1 400.6,511.2 400.0,506.0C399.4,500.8 398.4,493.8 397.8,490.5C397.1,487.0 395.9,483.9 394.8,483.0C393.0,481.5 393.0,481.2 395.9,475.6C397.6,472.4 399.0,469.2 399.0,468.4C399.0,467.6 398.8,467.0 398.5,467.0C398.2,467.0 396.3,467.8 394.2,468.9C392.2,469.9 387.6,471.2 384.0,471.7C380.4,472.2 371.6,472.4 364.5,472.0C353.9,471.5 350.6,471.0 346.8,469.2C344.3,467.9 341.9,466.3 341.6,465.5C341.2,464.4 341.8,464.0 343.8,464.0C345.3,464.0 350.3,463.3 355.0,462.5C359.7,461.7 370.4,460.6 378.7,460.2C391.5,459.5 394.2,459.1 396.0,457.5C397.2,456.4 400.5,451.1 403.4,445.5C406.4,440.0 409.6,433.3 410.5,430.7C412.1,426.5 412.1,425.7 410.9,424.5C409.8,423.3 408.7,423.3 405.7,424.1C403.2,424.7 395.7,424.9 384.7,424.5C375.2,424.1 365.5,423.9 363.0,424.0C360.5,424.2 350.2,424.3 340.0,424.4C322.4,424.5 321.2,424.4 314.3,421.9C310.4,420.4 305.2,417.6 302.7,415.6C300.3,413.6 297.7,412.0 297.0,412.0C296.1,412.0 295.9,413.2 296.3,416.5C296.7,419.0 296.6,421.0 296.1,421.0C295.6,421.0 293.8,419.4 292.1,417.5C290.4,415.5 288.7,412.8 288.4,411.5C288.1,410.1 288.1,407.4 288.4,405.6C288.8,403.4 290.4,401.0 292.6,399.1C294.5,397.4 297.8,395.1 300.0,394.0C302.2,392.9 304.6,392.0 305.5,392.0C306.3,392.0 307.0,392.4 307.0,392.8C307.0,393.2 305.9,395.1 304.5,397.0C302.8,399.3 302.3,400.7 303.0,401.6C303.6,402.2 306.0,403.3 308.4,403.9C310.8,404.5 315.8,405.3 319.7,405.6C323.8,406.0 329.6,405.7 334.0,405.0C338.1,404.3 343.9,402.9 347.0,401.8C350.0,400.7 354.0,399.8 355.7,399.8C357.8,399.8 360.5,400.9 363.2,402.9C365.5,404.6 368.4,406.0 369.7,406.0C371.0,406.0 373.0,404.6 374.7,402.5C376.2,400.6 378.0,399.0 378.7,399.0C379.3,399.0 384.5,400.5 390.2,402.4C395.9,404.3 402.5,405.9 405.0,406.0C407.5,406.1 411.2,406.1 413.2,406.1C415.6,406.0 417.8,405.2 419.0,404.0C420.9,402.1 421.0,401.1 420.4,391.2C419.8,381.6 420.0,379.9 421.8,375.7C422.9,373.2 425.2,369.1 426.9,366.6C428.6,364.2 431.6,358.7 433.5,354.4C435.5,350.1 437.5,344.8 438.0,342.6C438.5,340.4 438.6,337.4 438.3,335.9C438.0,334.4 436.6,331.7 435.1,329.9C432.4,326.7 432.4,326.7 428.3,329.4C425.6,331.2 422.3,332.3 418.6,332.7C415.6,333.0 410.2,332.7 406.8,332.1C403.3,331.4 397.2,329.1 393.1,326.9C388.7,324.5 385.3,323.3 384.8,323.8C384.2,324.4 385.0,328.5 386.6,334.1C388.1,339.2 391.3,348.1 393.7,353.8C396.2,359.6 398.4,365.7 398.7,367.5C399.0,369.4 398.6,371.9 397.7,373.7C396.8,375.4 394.5,378.1 392.5,379.8C390.6,381.6 387.1,383.9 384.9,385.0C382.7,386.2 378.7,387.4 376.0,387.7C373.4,388.0 369.5,387.9 367.5,387.6C365.4,387.2 362.1,385.3 359.8,383.2C355.7,379.5 355.7,379.5 346.3,379.5C336.9,379.5 336.9,379.5 332.9,375.3C329.7,371.8 329.0,370.4 329.0,367.0C329.0,364.8 329.9,361.2 331.0,359.0C332.1,356.9 333.4,354.9 333.9,354.5C334.5,354.2 334.5,355.2 333.9,357.2C333.4,359.2 333.4,361.8 334.0,364.1C334.6,366.1 335.7,368.3 336.4,369.0C337.6,369.9 339.2,369.7 344.0,367.9C350.1,365.7 350.2,365.7 358.3,367.5C362.8,368.4 369.9,369.4 374.1,369.7C381.5,370.3 381.7,370.2 385.3,367.0C387.3,365.2 389.0,362.9 389.0,361.9C389.0,360.8 387.7,357.4 386.1,354.2C384.5,351.1 382.1,344.4 380.6,339.3C379.2,334.2 377.3,326.8 376.4,322.8C375.6,318.8 374.0,310.8 373.0,305.0C371.9,299.2 371.0,291.1 371.0,287.0C371.0,281.2 371.5,278.4 373.4,274.5C374.7,271.8 377.0,268.0 378.4,266.1C379.8,264.2 381.0,262.0 381.0,261.2C381.0,260.3 380.3,260.1 378.8,260.6C377.5,260.9 374.7,262.5 372.6,264.1C370.4,265.7 368.0,267.0 367.4,267.0C366.7,267.0 366.0,265.5 365.8,263.8C365.6,261.2 365.1,260.6 363.6,260.8C362.6,261.0 360.0,262.3 357.9,263.7C354.1,266.2 354.0,266.2 351.4,264.4C350.0,263.3 347.4,261.7 345.7,260.8C344.0,259.8 342.4,259.2 342.2,259.5C342.0,259.7 342.5,262.1 343.5,264.9C344.4,267.7 345.0,271.0 344.8,272.2C344.5,274.3 344.0,274.5 339.2,274.4C335.0,274.2 331.8,273.2 324.7,269.6C318.8,266.7 313.0,264.7 308.6,263.9C304.6,263.2 297.7,263.0 292.5,263.3C287.5,263.6 281.7,264.5 279.7,265.4C277.6,266.2 272.7,269.2 268.7,271.9C264.7,274.7 259.8,278.8 257.6,281.0C255.5,283.2 253.3,285.0 252.8,285.0C252.3,285.0 252.2,284.0 252.5,282.8C252.9,281.5 254.3,278.8 255.6,276.7C257.0,274.6 259.7,271.2 261.6,269.1C263.5,266.9 267.5,263.3 270.5,261.0C273.5,258.7 278.5,256.0 281.7,255.0C287.5,253.1 287.5,253.1 282.5,253.1C279.7,253.0 276.6,253.6 275.5,254.4C274.4,255.1 271.2,256.5 268.4,257.4C265.6,258.3 260.6,260.7 257.4,262.6C254.1,264.5 250.1,267.5 248.5,269.1C246.8,270.7 245.1,272.0 244.7,272.0C244.4,272.0 243.6,270.2 243.0,268.0C242.4,265.8 241.5,264.0 240.9,264.0C240.4,264.0 239.2,265.6 238.4,267.5C237.4,270.1 237.0,275.6 237.0,289.7C237.0,300.0 237.7,320.9 238.5,336.0C239.3,351.1 241.1,374.3 242.5,387.5C243.9,400.7 245.4,416.0 246.0,421.5C246.5,427.0 247.9,446.8 248.9,465.5C250.0,484.2 251.4,509.9 252.0,522.5C252.6,535.1 253.5,554.5 253.9,565.5C254.5,578.6 254.5,585.7 253.8,586.1C253.3,586.5 250.1,587.0 246.7,587.4C243.3,587.7 238.2,588.8 235.5,589.8C232.8,590.7 227.9,593.0 224.8,594.8C221.6,596.6 219.0,598.7 219.0,599.6C219.0,600.9 219.8,601.0 223.8,600.4C226.4,600.1 231.2,599.2 234.5,598.4C237.8,597.7 243.9,596.8 248.0,596.4C252.1,596.1 260.4,596.3 266.5,596.9C272.6,597.6 282.7,599.2 289.0,600.5C295.3,601.8 301.5,602.9 302.7,602.9zM635.5,556.6C623.4,556.7 612.0,556.6 610.2,556.3C608.0,556.0 607.0,555.3 607.0,554.1C607.0,553.2 608.7,550.8 610.8,548.8C612.8,546.8 617.0,543.7 620.0,541.8C623.0,539.9 628.0,537.3 631.0,535.9C635.9,533.8 637.9,533.5 648.5,533.6C658.2,533.6 662.4,534.2 670.2,536.3C675.5,537.7 681.5,539.6 683.5,540.4C686.1,541.5 687.1,542.5 686.8,543.7C686.6,544.8 683.8,546.8 680.0,548.7C676.4,550.5 669.9,552.9 665.5,554.1C658.5,556.1 654.7,556.4 635.5,556.6zM161.5,550.8C162.6,550.9 161.6,550.0 159.0,548.9C156.5,547.8 151.1,546.4 147.0,545.8C141.1,544.9 137.3,545.0 130.0,546.0C120.6,547.3 120.6,547.3 126.9,548.6C131.1,549.5 134.0,549.6 135.6,549.0C137.0,548.4 140.7,548.0 143.8,548.0C146.9,548.0 151.8,548.7 154.5,549.4C157.2,550.2 160.4,550.8 161.5,550.8zM160.5,495.9C161.1,495.9 160.4,495.1 159.0,494.0C157.6,492.9 153.8,490.6 150.5,489.0C146.6,487.1 142.2,485.8 138.0,485.4C134.4,485.0 131.7,485.0 132.0,485.3C132.3,485.6 137.5,487.7 143.5,489.8C149.6,492.0 155.6,494.2 157.0,494.8C158.4,495.4 159.9,495.9 160.5,495.9zM368.5,449.9C358.6,449.8 347.8,449.4 344.5,448.9C341.3,448.4 336.4,447.3 333.8,446.4C331.2,445.6 327.3,443.7 325.2,442.2C323.0,440.7 320.0,438.0 318.5,436.2C315.9,433.1 315.9,433.0 317.9,433.0C319.1,433.0 321.5,433.6 323.4,434.4C325.2,435.1 330.9,436.8 336.1,438.1C344.2,440.1 348.1,440.4 364.1,440.5C382.7,440.5 382.7,440.5 386.6,437.8C388.7,436.3 392.5,434.4 394.9,433.5C397.3,432.7 399.6,432.0 400.1,432.0C400.6,432.0 401.0,432.8 401.0,433.8C401.0,434.8 399.3,438.1 397.2,441.0C395.2,443.9 391.9,447.1 390.0,448.2C387.0,449.8 384.3,450.0 368.5,449.9zM631.5,443.6C635.5,443.5 635.5,443.5 635.6,437.8C635.7,434.7 636.5,430.3 637.4,428.0C638.3,425.8 639.0,423.1 639.0,422.0C639.0,421.0 638.5,419.8 637.8,419.4C637.2,419.0 635.8,419.9 634.6,421.6C633.4,423.1 630.4,427.8 627.8,431.9C625.1,436.0 623.0,440.2 623.0,441.1C623.0,442.1 624.0,443.1 625.2,443.3C626.5,443.6 629.3,443.7 631.5,443.6zM170.5,424.9C171.6,424.8 169.7,423.5 166.3,421.9C162.9,420.2 158.4,418.7 156.3,418.4C152.5,417.9 152.5,417.9 156.5,420.1C158.7,421.3 162.3,422.9 164.5,423.6C166.7,424.3 169.4,424.9 170.5,424.9zM559.9,415.8C562.0,415.6 562.6,414.7 563.3,411.5C563.7,409.3 564.0,405.9 563.8,404.0C563.5,400.5 563.5,400.5 560.7,404.6C559.2,406.8 557.6,410.1 557.1,411.8C556.6,413.5 556.5,415.1 556.8,415.5C557.1,415.8 558.5,416.0 559.9,415.8zM575.2,415.9C577.3,416.0 578.0,415.5 578.0,414.0C578.0,413.0 576.6,409.1 574.9,405.5C573.1,401.9 571.3,398.7 570.9,398.4C570.4,398.1 570.0,401.7 570.0,406.4C570.0,412.2 570.4,415.0 571.2,415.3C571.9,415.6 573.7,415.9 575.2,415.9zM297.6,330.9C292.6,330.9 286.0,330.3 283.0,329.6C280.0,328.9 275.2,327.2 272.5,325.8C269.8,324.4 266.7,322.3 265.6,321.1C263.9,319.3 263.9,319.0 265.3,318.4C266.2,318.1 271.0,318.5 276.1,319.4C281.2,320.3 289.9,321.0 295.6,321.0C301.2,321.0 309.3,320.4 313.6,319.6C318.0,318.8 323.6,318.0 326.2,317.7C328.9,317.5 331.0,317.6 331.0,317.9C331.0,318.3 329.8,319.8 328.2,321.2C326.7,322.6 323.7,324.7 321.5,325.8C319.3,326.9 315.1,328.5 312.1,329.4C308.7,330.4 303.2,331.0 297.6,330.9zM415.1,322.5C419.8,322.3 425.3,321.5 427.3,320.7C429.2,319.8 431.3,318.2 432.0,317.1C433.0,315.1 432.8,315.0 429.1,315.0C425.0,315.0 425.0,315.0 426.7,311.4C428.4,308.0 428.4,307.7 426.4,304.3C425.3,302.4 424.0,300.7 423.5,300.6C423.0,300.6 422.2,302.4 421.7,304.8C421.1,307.6 419.6,310.4 417.0,313.2C413.1,317.3 413.1,317.3 406.3,316.7C402.5,316.4 396.1,315.8 391.9,315.4C386.4,314.9 384.1,315.1 383.5,316.0C383.1,316.6 383.3,317.7 383.9,318.3C384.4,318.8 389.8,320.1 395.7,321.1C402.5,322.2 409.7,322.8 415.1,322.5zM297.0,314.9C293.4,314.8 289.7,314.6 288.8,314.3C287.8,314.1 287.0,313.3 287.0,312.6C287.0,311.9 286.1,310.5 285.0,309.5C284.0,308.6 282.3,305.8 281.4,303.4C280.5,301.0 279.5,299.0 279.3,299.0C279.1,299.0 278.0,299.4 277.0,300.0C276.0,300.5 274.7,302.3 274.1,304.0C273.3,306.3 273.4,307.6 274.3,309.1C274.9,310.1 276.3,311.3 277.2,311.6C278.2,311.9 279.0,312.6 279.0,313.1C279.0,313.8 277.7,313.9 275.8,313.5C274.0,313.1 271.6,312.3 270.5,311.7C269.4,311.0 266.5,310.5 264.0,310.4C261.5,310.3 257.5,309.8 255.1,309.3C252.7,308.9 250.5,308.0 250.3,307.4C250.1,306.8 253.3,302.3 257.5,297.4C261.7,292.6 267.3,286.9 269.9,285.0C272.6,283.0 276.7,280.4 279.2,279.3C281.6,278.1 286.4,276.6 289.9,275.9C294.0,275.1 299.9,274.9 306.8,275.3C312.7,275.7 321.3,276.7 326.0,277.5C330.7,278.4 335.9,280.0 337.6,281.1C339.4,282.2 341.1,284.1 341.4,285.3C341.7,286.6 341.5,290.3 341.0,293.5C340.5,296.7 339.3,301.6 338.4,304.4C337.5,307.2 336.4,309.9 335.9,310.4C335.5,310.9 332.0,311.3 328.1,311.4C321.1,311.5 321.1,311.5 323.0,309.5C324.1,308.3 325.0,306.7 325.0,305.8C325.0,305.0 322.9,302.4 320.4,300.1C317.0,296.9 315.6,296.1 314.6,296.9C313.9,297.5 313.3,299.8 313.3,302.0C313.3,304.2 312.5,307.1 311.6,308.5C310.7,309.9 308.5,312.0 306.7,313.0C304.3,314.5 301.8,315.0 297.0,314.9zM395.4,314.0C397.9,314.0 397.9,314.0 394.8,309.2C393.1,306.6 391.5,304.3 391.2,304.0C391.0,303.7 390.2,304.4 389.4,305.4C388.6,306.5 388.0,307.8 388.0,308.2C388.0,308.7 389.1,310.2 390.5,311.5C391.8,312.9 394.0,314.0 395.4,314.0zM411.5,304.0C412.1,304.0 413.5,303.1 414.6,301.9C415.9,300.4 416.2,299.5 415.4,298.3C414.8,297.4 413.7,296.2 412.8,295.6C411.7,295.0 410.2,295.1 408.1,296.0C406.4,296.7 405.0,297.8 405.0,298.5C405.0,299.3 406.2,300.8 407.6,301.9C409.1,303.1 410.8,304.0 411.5,304.0zM301.5,301.0C303.3,301.0 305.3,300.3 306.0,299.5C306.6,298.7 307.0,297.3 306.8,296.3C306.6,295.3 305.3,293.9 303.8,293.2C301.8,292.3 300.5,292.2 299.1,293.0C298.0,293.5 296.8,294.9 296.5,296.0C296.1,297.2 296.4,298.7 297.0,299.5C297.7,300.3 299.7,301.0 301.5,301.0zM436.6,294.0C437.5,294.0 437.6,293.2 437.0,291.1C436.6,289.6 435.7,287.2 435.0,285.9C434.3,284.6 432.1,281.8 430.2,279.7C428.1,277.6 424.3,275.1 421.3,274.0C417.9,272.7 413.5,272.0 409.1,272.0C405.4,272.0 400.4,272.7 397.9,273.5C395.5,274.4 391.4,277.0 388.8,279.4C386.1,281.8 384.0,284.3 384.0,285.0C384.0,285.8 384.8,286.0 386.2,285.6C387.5,285.3 391.4,284.5 394.9,283.9C398.5,283.2 404.8,283.0 409.1,283.3C413.3,283.7 419.1,284.8 421.9,285.9C424.7,286.9 428.8,289.2 431.2,290.9C433.5,292.6 435.9,294.0 436.6,294.0zM290.6,285.4C294.4,285.1 298.6,284.6 300.0,284.3C302.3,283.8 302.4,283.7 300.5,283.0C299.4,282.6 295.6,282.6 292.1,283.0C288.7,283.5 285.3,284.3 284.7,284.9C283.9,285.7 285.6,285.8 290.6,285.4zM182.5,265.2C187.4,260.6 190.7,258.5 198.6,255.3C204.0,253.0 213.9,249.8 220.5,248.2C227.1,246.5 237.4,244.5 243.5,243.6C249.6,242.8 258.8,241.6 264.0,241.0C269.2,240.4 282.1,239.9 292.5,239.9C303.0,240.0 321.2,240.4 333.0,241.0C344.8,241.6 361.9,242.7 371.0,243.5C380.1,244.4 393.1,245.7 400.0,246.6C406.9,247.4 417.4,249.0 423.5,250.1C429.6,251.2 442.3,254.2 451.9,256.6C462.4,259.4 472.2,262.6 476.6,264.8C482.1,267.5 484.3,268.1 485.1,267.3C485.8,266.6 486.0,265.0 485.6,263.5C485.2,262.0 483.6,259.6 481.9,258.1C480.3,256.6 475.1,253.5 470.5,251.2C465.9,248.9 457.0,245.5 450.8,243.6C444.5,241.7 434.0,239.0 427.5,237.7C420.9,236.3 409.0,234.2 401.0,233.1C393.0,232.0 382.4,230.7 377.5,230.1C372.6,229.5 362.0,228.6 354.0,228.0C346.0,227.5 330.5,226.8 319.5,226.4C307.7,226.0 293.1,226.2 284.0,226.9C275.5,227.5 262.4,228.7 255.0,229.5C247.6,230.4 236.8,232.0 231.0,233.1C225.2,234.3 215.6,236.8 209.5,238.7C203.4,240.6 196.0,243.6 193.0,245.2C190.0,246.9 185.6,249.8 183.3,251.7C181.0,253.6 178.2,257.1 177.1,259.4C175.9,261.7 175.0,265.0 175.0,266.6C175.0,268.3 175.3,270.0 175.6,270.3C176.0,270.7 179.1,268.4 182.5,265.2zM204.4,233.0C204.8,233.0 210.4,231.7 216.8,230.1C223.2,228.5 232.6,226.4 237.5,225.6C242.4,224.7 256.6,223.1 269.0,222.0C281.6,220.9 299.6,220.0 309.8,220.0C319.8,220.0 337.4,220.7 348.8,221.5C360.2,222.3 376.5,223.7 385.0,224.6C393.5,225.4 405.7,227.0 412.0,228.2C418.3,229.3 426.2,230.6 429.5,231.1C432.8,231.5 437.4,232.2 439.8,232.6C442.4,233.0 444.0,232.9 444.0,232.3C444.0,231.7 440.3,229.4 435.8,227.2C431.2,224.9 425.3,222.2 422.7,221.1C419.7,219.8 418.1,218.6 418.6,217.9C419.0,217.1 421.8,217.0 427.6,217.5C432.3,217.9 436.0,217.8 436.0,217.3C436.0,216.8 434.8,215.7 433.2,214.8C431.7,213.9 427.0,211.8 422.8,210.0C418.5,208.3 415.0,206.4 415.0,205.9C415.0,205.4 415.8,204.9 416.8,204.9C417.7,204.8 420.8,204.8 423.5,204.9C426.2,205.1 430.9,205.8 433.8,206.7C436.8,207.5 439.4,208.0 439.6,207.7C439.9,207.4 437.5,205.6 434.3,203.7C431.1,201.8 425.4,198.7 421.5,196.9C414.5,193.5 414.5,193.5 420.8,193.2C424.5,193.0 429.4,193.6 432.5,194.5C435.5,195.3 438.7,196.3 439.7,196.7C440.7,197.0 439.9,195.8 438.0,194.1C436.1,192.3 431.8,189.6 428.5,188.1C425.2,186.5 418.9,184.1 414.4,182.7C410.0,181.3 400.9,179.0 394.3,177.6C387.6,176.2 376.6,174.4 369.8,173.6C363.1,172.8 350.1,171.6 341.0,170.9C330.8,170.2 317.6,170.0 306.5,170.5C296.6,170.8 283.4,171.8 277.2,172.6C271.0,173.4 261.1,175.0 255.2,176.1C249.3,177.2 240.3,179.5 235.2,181.1C230.1,182.8 223.0,185.5 219.3,187.1C215.7,188.7 210.5,191.9 207.9,194.1C205.2,196.4 203.0,198.6 203.0,199.0C203.0,199.5 205.7,199.0 208.9,197.9C212.2,196.8 216.1,196.0 217.7,196.2C220.3,196.5 220.1,196.7 213.7,201.8C210.0,204.8 207.0,207.6 207.0,208.0C207.0,208.5 208.9,208.3 211.1,207.5C213.4,206.7 216.5,206.0 218.1,206.0C219.6,206.0 221.1,206.4 221.5,207.0C221.8,207.5 219.7,209.4 216.8,211.3C213.9,213.1 210.9,215.4 210.1,216.3C208.9,217.9 209.3,218.0 215.0,217.7C218.9,217.6 221.4,217.9 221.7,218.6C221.9,219.2 219.0,221.5 215.3,223.8C211.6,226.0 207.4,229.0 206.1,230.4C204.7,231.8 204.0,233.0 204.4,233.0zM197.0,191.0C197.5,191.0 202.8,188.3 208.7,185.1C214.6,181.8 224.4,177.5 230.5,175.5C236.6,173.5 247.1,170.8 254.0,169.5C260.9,168.1 272.6,166.3 280.0,165.3C289.8,164.0 300.1,163.5 318.0,163.5C331.7,163.6 347.4,164.1 353.5,164.9C359.6,165.6 368.8,166.8 374.0,167.6C379.2,168.4 387.1,169.7 391.5,170.6C395.9,171.4 402.4,172.8 406.0,173.7C409.6,174.6 417.9,176.8 424.5,178.6C431.1,180.4 438.1,182.3 440.0,182.9C443.5,183.9 443.5,183.9 439.1,180.0C436.7,177.8 432.9,175.0 430.7,173.8C428.5,172.5 426.5,170.9 426.2,170.2C426.0,169.5 426.7,168.6 427.9,168.3C429.7,167.8 430.0,167.0 430.0,161.6C430.0,158.3 430.9,148.8 432.0,140.5C433.1,132.2 434.0,124.7 434.0,123.6C434.0,122.0 434.5,121.8 437.4,122.3C439.3,122.6 443.7,124.0 447.2,125.5C450.6,127.0 454.3,128.4 455.2,128.7C456.2,129.0 457.0,128.8 457.0,128.3C457.0,127.8 454.3,125.2 450.9,122.6C447.6,120.0 442.1,116.4 438.7,114.5C435.3,112.7 429.6,110.0 426.0,108.7C422.4,107.3 416.6,105.1 413.0,103.7C409.4,102.3 400.9,99.9 394.0,98.2C387.1,96.6 378.6,94.7 375.0,94.1C371.4,93.6 364.4,92.6 359.5,92.0C354.6,91.4 342.6,90.5 333.0,90.1C323.4,89.6 307.9,89.6 298.5,90.1C286.2,90.7 277.5,91.7 267.0,93.9C259.0,95.5 249.1,97.8 244.8,98.9C240.6,100.0 236.3,101.3 235.3,101.9C234.3,102.4 230.6,103.8 227.1,105.1C223.6,106.3 217.3,109.4 213.0,112.0C208.7,114.6 202.5,119.1 199.1,122.0C195.8,124.8 191.4,129.6 189.4,132.5C185.8,137.8 185.8,137.8 188.0,144.4C189.2,148.0 191.5,157.1 193.2,164.7C195.2,173.3 196.3,180.9 196.2,184.8C196.1,188.2 196.5,191.0 197.0,191.0zM211.1,169.0C209.9,169.0 208.7,168.4 208.5,167.8C208.3,167.1 207.1,162.2 206.0,157.0C204.8,151.8 202.7,143.5 201.2,138.6C198.6,129.7 198.6,129.7 202.5,126.3C204.6,124.5 209.7,121.0 213.9,118.5C219.2,115.3 221.7,114.3 222.6,115.1C223.3,115.6 224.1,118.4 224.5,121.3C224.9,124.2 226.2,133.0 227.6,140.9C228.9,148.8 230.0,156.3 230.0,157.4C230.0,159.0 227.9,160.7 221.6,164.2C217.0,166.9 212.3,169.0 211.1,169.0zM397.0,156.7C395.1,156.8 391.5,156.4 389.1,155.9C386.6,155.4 384.3,154.5 383.8,153.8C383.4,153.1 383.0,142.0 383.0,129.1C383.0,105.7 383.0,105.7 389.9,106.3C394.0,106.6 398.6,107.8 401.0,109.0C405.2,111.2 405.2,111.2 404.6,115.8C404.3,118.4 403.6,126.7 403.0,134.3C402.4,141.9 401.6,150.0 401.2,152.3C400.5,156.2 400.2,156.5 397.0,156.7zM287.3,152.0C279.1,152.0 279.1,152.0 278.1,146.8C277.5,143.9 276.6,137.9 276.0,133.5C275.4,129.1 274.3,120.3 273.5,114.0C272.1,103.5 272.1,102.4 273.6,101.3C274.5,100.7 278.2,99.9 281.8,99.5C285.5,99.2 289.9,98.8 291.7,98.5C293.4,98.3 295.5,98.7 296.4,99.3C297.6,100.2 298.3,105.0 299.5,121.0C300.4,132.3 301.0,143.3 300.8,145.5C300.6,148.5 299.9,149.7 298.0,150.7C296.6,151.4 291.9,152.0 287.3,152.0zM355.4,148.8C351.6,149.1 351.2,148.9 350.6,146.3C350.3,144.8 349.6,136.3 349.0,127.5C348.5,118.7 347.8,108.8 347.4,105.6C346.8,99.7 346.8,99.7 352.6,100.4C355.8,100.8 358.5,101.2 358.6,101.3C358.7,101.4 358.9,112.1 359.1,125.0C359.5,148.5 359.5,148.5 355.4,148.8zM241.0,136.0C240.5,136.0 239.2,133.4 238.0,130.3C236.8,127.2 235.2,121.7 234.4,118.2C233.2,113.2 233.2,111.5 234.1,110.4C234.8,109.6 236.5,109.0 237.9,109.2C240.5,109.5 240.5,109.7 241.7,122.0C242.3,128.8 242.6,134.8 242.4,135.2C242.1,135.6 241.5,136.0 241.0,136.0z" />

</svg>