<?xml version="1.0" encoding="UTF-8" standalone="no"?>
<svg 
  version="1.1" 
  xmlns="http://www.w3.org/2000/svg" 
  xmlns:xlink="http://www.w3.org/1999/xlink" 
  xmlns:svg="http://www.w3.org/2000/svg"
  xmlns:rdf="http://www.w3.org/1999/02/22-rdf-syntax-ns#"
  xmlns:cc="http://creativecommons.org/ns#"
  xmlns:dc="http://purl.org/dc/elements/1.1/"
  viewBox="0 0 768 768"
  width="768"
  height="768"
>
<style>svg {background-color: white; }</style>"
<metadata id="metadata1">
Created by https://svgstud.io and licensed under CC-BY-SA 4.0 license. Please attribute https://svgstud.io
</metadata>
<metadata id="prompt">
palm frond
</metadata>
<metadata id="version">
7
</metadata>
<metadata id="metadata2">
<rdf:RDF>
<cc:Work
    rdf:about="">
    <cc:license
    rdf:resource="http://creativecommons.org/licenses/by-sa/4.0/" />
    <dc:creator>
        <cc:Agent>
            <dc:title>https://svgstud.io</dc:title>
        </cc:Agent>
    </dc:creator>
</cc:Work>
<cc:License
    rdf:about="http://creativecommons.org/licenses/by-sa/4.0/">
    <cc:permits
    rdf:resource="http://creativecommons.org/ns#Reproduction" />
    <cc:permits
    rdf:resource="http://creativecommons.org/ns#Distribution" />
    <cc:requires
    rdf:resource="http://creativecommons.org/ns#Notice" />
    <cc:requires
    rdf:resource="http://creativecommons.org/ns#Attribution" />
    <cc:permits
    rdf:resource="http://creativecommons.org/ns#DerivativeWorks" />
    <cc:requires
    rdf:resource="http://creativecommons.org/ns#ShareAlike" />
</cc:License>
</rdf:RDF>
</metadata>
<metadata id="uid">
b70cf4012150c941d82a061e78803c98ab6e8e8a2407c4e32fafca6551997220
</metadata>
<path stroke="none" fill="black" fill-rule="evenodd" d="M320.04,767.65C310.57,768.29 310.57,768.29 313.42,764.90C314.98,763.03 317.89,760.12 319.88,758.42C321.87,756.73 326.33,753.44 329.79,751.11C333.26,748.77 339.78,745.11 344.29,742.96C348.81,740.81 356.55,737.93 361.50,736.55C366.45,735.17 377.70,732.92 386.50,731.55C395.30,730.18 406.96,728.75 412.41,728.37C420.66,727.80 422.63,727.33 424.21,725.59C425.24,724.44 426.80,722.73 427.67,721.80C428.54,720.86 433.13,718.47 437.87,716.48C442.62,714.49 450.29,711.76 454.93,710.41C459.57,709.06 468.62,707.43 475.04,706.79C485.55,705.74 488.54,705.85 504.95,707.88C514.98,709.13 523.35,709.98 523.55,709.79C523.74,709.59 519.76,706.33 514.70,702.54C509.64,698.75 505.05,695.23 504.50,694.72C503.95,694.21 508.00,696.08 513.50,698.88C519.00,701.67 527.76,706.44 532.96,709.48C538.17,712.52 542.78,715.00 543.21,715.00C543.65,715.00 544.00,714.65 544.00,714.22C544.00,713.80 541.08,711.24 537.51,708.55C533.94,705.85 531.18,703.49 531.37,703.30C531.56,703.11 533.69,703.86 536.11,704.97C538.52,706.08 545.29,710.26 551.14,714.25C557.00,718.24 564.18,722.85 567.11,724.50C570.04,726.15 575.15,728.95 578.47,730.71C581.78,732.48 584.92,733.95 585.43,733.96C585.94,733.98 582.79,731.39 578.43,728.21C574.07,725.02 566.00,719.32 560.50,715.53C555.00,711.74 546.90,705.66 542.50,702.03C538.10,698.39 531.80,693.37 528.50,690.86C525.20,688.36 519.58,684.30 516.00,681.84C512.42,679.38 508.15,676.83 506.50,676.18C504.82,675.51 499.10,675.02 493.50,675.06C487.23,675.11 481.45,674.56 478.00,673.58C474.98,672.73 470.94,672.02 469.04,672.01C466.02,672.00 465.76,672.18 467.04,673.42C467.84,674.21 471.20,676.29 474.50,678.06C477.80,679.83 483.11,682.83 486.31,684.74C489.50,686.65 491.93,688.40 491.70,688.63C491.47,688.86 489.24,688.18 486.75,687.11C484.25,686.04 477.97,683.80 472.79,682.14C467.61,680.48 459.35,678.44 454.43,677.60C449.52,676.76 434.83,675.15 421.78,674.02C408.74,672.89 394.22,671.29 389.51,670.47C384.81,669.65 378.15,668.04 374.73,666.88C371.30,665.73 363.97,662.65 358.44,660.05C352.91,657.44 345.71,653.60 342.44,651.52C339.17,649.45 333.73,645.51 330.35,642.78C326.96,640.04 321.89,634.96 319.07,631.49C316.25,628.02 312.38,622.18 310.47,618.51C308.56,614.85 307.00,610.94 307.00,609.83C307.00,607.92 307.28,607.97 312.25,610.75C315.14,612.37 320.20,614.74 323.50,616.00C328.90,618.07 331.03,618.29 344.75,618.16C353.14,618.09 359.98,618.35 359.96,618.76C359.94,619.17 357.03,621.19 353.50,623.25C349.96,625.31 346.27,627.01 345.29,627.02C344.30,627.02 342.89,627.42 342.14,627.89C341.40,628.36 341.17,628.98 341.64,629.26C342.11,629.55 344.98,630.28 348.00,630.90C351.02,631.52 360.93,632.08 370.00,632.13C379.15,632.19 389.39,631.70 392.99,631.03C396.56,630.37 400.89,629.24 402.61,628.52C404.64,627.67 405.97,626.26 406.42,624.47C407.01,622.10 406.57,621.27 403.32,618.61C401.23,616.90 395.30,611.68 390.13,607.02C384.97,602.35 377.65,594.79 373.88,590.22C370.11,585.64 365.92,580.01 364.58,577.70C363.23,575.39 360.25,569.11 357.94,563.75C355.64,558.39 353.42,554.00 353.00,554.00C352.59,554.00 350.15,554.93 347.59,556.07C345.02,557.20 339.22,559.24 334.71,560.60C330.19,561.95 322.90,563.68 318.50,564.45C314.10,565.21 305.10,566.14 298.50,566.52C291.30,566.94 281.10,566.74 273.00,566.02C265.57,565.37 255.90,564.21 251.49,563.45C247.08,562.69 239.66,560.96 234.99,559.60C227.42,557.40 226.26,557.29 224.27,558.57C223.05,559.37 219.58,563.50 216.57,567.76C213.56,572.02 208.84,579.55 206.09,584.50C203.34,589.45 199.32,598.00 197.15,603.50C194.98,609.00 192.28,616.32 191.15,619.76C190.02,623.21 187.29,634.46 185.08,644.76C182.87,655.07 178.59,676.55 175.55,692.50C172.52,708.45 169.16,727.51 168.09,734.85C167.01,742.19 165.87,748.46 165.55,748.78C165.23,749.10 164.55,748.95 164.04,748.43C163.53,747.92 161.50,741.65 159.54,734.50C157.57,727.35 154.43,714.08 152.55,705.00C150.67,695.92 148.63,682.89 148.00,676.04C147.37,669.18 147.14,662.08 147.48,660.25C147.82,658.42 150.11,652.81 152.55,647.78C155.00,642.76 157.00,638.03 157.00,637.28C157.00,636.53 157.89,634.17 158.99,632.03C160.08,629.89 161.33,627.91 161.77,627.64C162.21,627.37 162.14,631.05 161.61,635.82C161.08,640.60 160.61,650.22 160.57,657.20C160.52,666.11 160.87,670.27 161.75,671.15C162.75,672.15 163.00,671.91 163.01,669.95C163.01,668.60 163.68,660.08 164.49,651.00C165.30,641.92 166.64,630.44 167.45,625.47C168.27,620.50 170.11,612.40 171.54,607.47C172.97,602.54 176.16,593.33 178.63,587.00C181.10,580.67 186.65,568.75 190.95,560.50C195.26,552.25 201.37,541.00 204.53,535.50C207.69,530.00 211.38,523.59 212.73,521.25C214.07,518.91 214.94,517.00 214.66,517.00C214.38,517.00 211.13,520.91 207.44,525.69C203.75,530.46 199.28,536.65 197.51,539.44C195.74,542.22 190.91,550.58 186.78,558.00C182.65,565.42 178.13,574.42 176.72,578.00C175.32,581.58 171.65,591.70 168.58,600.50C165.50,609.30 162.15,618.30 161.12,620.50C160.10,622.70 156.88,627.31 153.97,630.75C151.07,634.19 148.31,637.00 147.84,637.00C147.38,637.00 147.00,632.93 147.00,627.96C147.00,618.96 146.99,618.93 144.79,620.11C143.58,620.76 139.96,624.04 136.76,627.40C133.55,630.75 129.43,636.47 127.61,640.09C125.45,644.38 123.84,649.59 122.99,655.04C122.13,660.62 121.46,662.75 120.99,661.45C120.60,660.38 119.98,655.67 119.62,651.00C119.25,646.33 119.43,636.92 120.03,630.09C120.62,623.27 121.99,613.37 123.08,608.09C124.16,602.82 127.09,592.42 129.58,585.00C132.08,577.58 137.91,563.85 142.53,554.50C147.15,545.15 153.58,533.45 156.81,528.50C160.03,523.55 166.37,515.35 170.88,510.27C175.93,504.58 179.74,501.12 180.79,501.26C181.73,501.38 186.28,499.53 190.91,497.15C198.01,493.49 199.68,492.99 201.66,493.89C202.95,494.48 204.00,495.54 204.00,496.25C204.00,496.96 202.60,499.24 200.88,501.32C199.17,503.40 198.04,505.38 198.38,505.71C198.71,506.04 204.05,503.79 210.24,500.70C216.43,497.61 224.31,493.45 227.75,491.45C231.19,489.45 233.99,488.20 233.97,488.66C233.95,489.12 226.83,496.81 218.15,505.75C207.80,516.41 201.65,522.00 200.30,522.00C199.07,522.00 198.02,521.19 197.71,520.00C197.28,518.36 196.35,518.00 192.54,518.00C189.98,518.00 185.83,518.52 183.32,519.15C179.97,519.99 177.01,521.93 172.23,526.40C168.64,529.75 163.14,535.88 159.99,540.01C156.85,544.14 152.84,550.21 151.08,553.51C149.32,556.80 145.88,564.09 143.44,569.69C141.00,575.30 139.00,581.13 139.00,582.65C139.00,585.41 139.00,585.41 142.75,581.89C144.81,579.96 150.54,575.03 155.48,570.94C160.42,566.85 167.58,561.08 171.40,558.13C175.22,555.18 179.28,551.87 180.42,550.78C181.56,549.69 185.03,546.84 188.12,544.44C191.73,541.64 195.37,537.48 198.31,532.79C200.82,528.78 205.30,523.11 208.27,520.20C211.24,517.28 214.13,515.03 214.69,515.20C215.25,515.36 219.48,511.73 224.10,507.11C228.72,502.50 237.10,495.06 242.73,490.58C248.35,486.09 256.50,480.28 260.84,477.66C265.17,475.04 272.84,471.12 277.88,468.94C282.92,466.77 290.20,464.12 294.06,463.05C297.92,461.98 305.68,460.57 311.29,459.91C317.76,459.16 327.73,458.95 338.50,459.33C347.85,459.67 360.22,460.63 366.00,461.48C371.77,462.33 381.06,464.12 386.64,465.46C392.22,466.81 402.57,470.01 409.64,472.57C416.71,475.13 426.37,479.17 431.09,481.55C435.81,483.92 441.07,487.03 442.77,488.46C445.12,490.43 446.62,493.38 449.06,500.78C450.82,506.12 452.74,511.09 453.31,511.81C453.88,512.53 457.53,514.89 461.42,517.05C465.32,519.21 469.06,520.98 469.75,520.99C470.44,520.99 471.00,519.93 471.00,518.62C471.00,517.31 470.32,514.62 469.49,512.63C468.66,510.64 465.26,506.02 461.94,502.36C458.62,498.69 455.44,494.82 454.87,493.75C453.90,491.95 454.07,491.86 457.16,492.52C459.00,492.92 462.30,494.15 464.50,495.25C466.70,496.36 469.77,498.16 471.33,499.26C472.89,500.36 476.60,504.20 479.57,507.80C483.73,512.85 486.01,517.04 489.52,526.05C492.25,533.07 495.39,539.28 497.37,541.57C500.68,545.39 500.68,545.39 501.37,535.55C501.75,530.14 502.43,525.05 502.89,524.24C503.51,523.13 504.55,524.22 507.07,528.63C508.91,531.86 511.78,535.85 513.46,537.51C515.13,539.16 517.04,541.41 517.70,542.51C518.73,544.22 519.04,544.29 519.91,543.00C520.81,541.67 521.08,541.67 522.31,543.00C523.08,543.83 524.70,547.04 525.92,550.14C527.14,553.24 529.12,556.83 530.32,558.12C532.50,560.48 532.50,560.48 532.81,556.80C532.98,554.78 532.45,551.86 531.63,550.31C530.82,548.76 524.74,542.10 518.11,535.50C511.49,528.90 503.15,520.86 499.58,517.63C496.01,514.40 489.64,509.11 485.42,505.88C481.20,502.64 473.42,497.44 468.12,494.33C462.83,491.21 454.03,485.98 448.57,482.71C443.11,479.43 435.69,475.43 432.08,473.81C428.48,472.20 419.19,468.90 411.44,466.50C403.69,464.09 392.74,460.95 387.11,459.53C381.47,458.10 372.51,456.26 367.18,455.45C361.86,454.64 347.34,453.68 334.91,453.33C312.32,452.69 312.32,452.69 303.45,445.60C298.57,441.69 294.66,438.05 294.77,437.50C294.87,436.95 297.87,436.27 301.43,436.00C304.99,435.73 308.47,434.94 309.15,434.25C309.84,433.56 311.46,433.00 312.75,433.00C314.04,433.00 316.51,433.73 318.24,434.62C319.97,435.52 322.59,436.59 324.06,437.02C325.53,437.44 327.30,437.43 328.00,437.00C328.99,436.39 329.02,435.50 328.14,432.96C327.51,431.17 327.00,428.87 327.00,427.86C327.00,426.55 327.65,426.09 329.25,426.26C331.23,426.47 331.50,426.04 331.50,422.75C331.50,420.69 331.71,419.00 331.97,419.00C332.23,419.00 335.32,421.81 338.84,425.25C344.62,430.89 345.19,431.23 344.76,428.75C344.49,427.24 344.81,425.27 345.47,424.37C346.44,423.05 347.06,422.96 348.83,423.91C350.71,424.91 351.00,424.81 351.00,423.13C351.00,422.07 349.02,418.57 346.59,415.35C344.17,412.13 341.08,408.46 339.72,407.19C338.36,405.92 334.15,403.62 330.37,402.09C326.59,400.55 312.48,395.65 299.00,391.19C285.52,386.73 267.52,381.46 259.00,379.47C250.47,377.49 234.95,373.91 224.50,371.53C212.56,368.81 199.18,364.90 188.50,361.01C179.15,357.60 167.96,352.94 163.64,350.66C159.32,348.37 152.91,344.13 149.39,341.23C145.88,338.33 143.00,335.46 143.00,334.86C143.00,334.20 143.90,334.02 145.25,334.40C146.49,334.75 149.59,335.51 152.15,336.08C155.97,336.94 158.37,336.75 165.57,335.04C170.40,333.89 176.78,332.25 179.75,331.39C182.72,330.52 184.89,329.56 184.59,329.25C184.28,328.94 177.56,328.34 169.66,327.91C161.76,327.48 152.45,326.39 148.97,325.49C145.49,324.59 140.56,322.80 138.01,321.51C135.46,320.21 131.39,317.50 128.97,315.47C126.54,313.45 123.51,310.37 122.24,308.64C119.92,305.50 119.92,305.50 122.21,304.95C124.29,304.45 124.08,304.15 119.91,301.70C117.39,300.21 114.90,299.00 114.37,299.00C113.85,299.00 111.57,297.09 109.31,294.75C107.06,292.41 104.28,288.63 103.13,286.35C101.06,282.20 101.06,282.20 108.08,281.49C112.64,281.03 114.97,280.39 114.72,279.64C114.52,279.01 113.22,277.95 111.83,277.27C110.44,276.59 106.06,275.35 102.09,274.52C98.12,273.68 92.40,273.00 89.38,273.00C86.37,273.00 82.63,272.34 81.07,271.54C79.51,270.73 77.01,268.61 75.51,266.82C74.00,265.04 73.23,263.42 73.79,263.24C74.35,263.05 77.54,264.04 80.88,265.45C84.21,266.85 88.53,268.00 90.47,268.00C92.90,268.00 94.00,267.54 94.00,266.54C94.00,265.73 94.87,264.60 95.93,264.04C97.00,263.47 98.77,263.00 99.88,263.00C100.98,263.00 102.15,262.57 102.48,262.04C102.80,261.51 101.14,260.09 98.79,258.89C96.43,257.69 90.82,255.46 86.31,253.94C81.81,252.41 75.31,249.52 71.86,247.50C67.09,244.70 64.91,243.97 62.70,244.41C60.32,244.89 59.25,244.41 56.80,241.79C55.16,240.03 52.56,236.77 51.04,234.54C49.51,232.32 46.83,227.65 45.08,224.17C43.33,220.69 40.37,213.27 38.50,207.67C36.63,202.08 34.35,193.32 33.42,188.22C32.49,183.11 32.05,178.62 32.43,178.23C32.82,177.85 38.03,182.70 44.01,189.02C49.99,195.33 57.50,203.85 60.69,207.95C63.89,212.04 68.75,217.62 71.50,220.34C74.25,223.06 80.91,229.16 86.30,233.89C91.68,238.63 100.31,245.65 105.46,249.50C110.62,253.35 118.13,258.61 122.17,261.20C126.20,263.78 134.01,269.41 139.51,273.70C145.02,277.99 151.99,283.16 155.01,285.19C158.03,287.22 165.00,292.05 170.50,295.91C176.00,299.77 184.32,305.34 189.00,308.28C193.68,311.23 201.32,315.93 206.00,318.72C210.68,321.51 221.70,327.36 230.50,331.72C239.30,336.09 249.43,340.85 253.00,342.30C256.57,343.75 265.00,346.96 271.71,349.43C278.43,351.90 286.31,354.23 289.21,354.60C292.12,354.97 294.23,354.98 293.91,354.63C293.58,354.27 289.31,352.03 284.41,349.64C279.51,347.26 270.55,342.04 264.50,338.05C258.45,334.06 252.67,329.69 251.65,328.33C250.64,326.97 250.00,325.67 250.24,325.43C250.48,325.19 252.06,325.47 253.75,326.06C255.43,326.65 258.55,326.99 260.66,326.82C264.50,326.50 264.50,326.50 264.49,322.00C264.49,319.52 264.14,316.26 263.72,314.75C263.30,313.24 263.35,312.00 263.82,312.00C264.29,312.00 266.79,314.71 269.36,318.03C271.93,321.34 275.49,324.95 277.27,326.05C279.27,327.28 281.40,327.83 282.86,327.47C284.36,327.11 287.03,327.85 290.19,329.50C294.98,332.01 295.65,332.09 309.33,331.73C317.12,331.53 327.77,330.59 333.00,329.64C338.23,328.69 343.29,327.68 344.25,327.39C345.21,327.10 345.98,326.33 345.96,325.68C345.94,325.03 344.42,322.81 342.60,320.74C340.43,318.29 337.41,316.34 333.89,315.12C330.92,314.09 322.55,310.74 315.27,307.67C307.99,304.59 294.66,299.62 285.65,296.62C276.63,293.62 266.95,290.17 264.13,288.96C261.31,287.75 259.00,286.36 259.00,285.88C259.00,285.39 260.15,285.00 261.56,285.00C262.97,285.00 268.95,286.09 274.86,287.43C280.77,288.76 289.34,290.36 293.90,290.99C298.46,291.61 304.62,291.82 307.59,291.45C310.61,291.07 312.98,290.27 312.95,289.63C312.93,289.01 312.34,287.16 311.64,285.51C310.50,282.85 310.58,282.35 312.37,280.90C314.33,279.32 314.30,279.25 310.94,278.19C309.05,277.59 301.20,276.38 293.50,275.51C285.80,274.63 273.88,272.83 267.00,271.51C260.12,270.18 249.32,267.31 243.00,265.13C236.68,262.95 226.63,259.28 220.68,256.98C214.73,254.68 209.61,252.15 209.31,251.36C209.00,250.56 209.06,249.61 209.43,249.24C209.80,248.86 214.92,249.55 220.81,250.76C226.69,251.97 237.12,253.69 244.00,254.59C251.59,255.58 259.64,256.00 264.50,255.67C268.90,255.37 273.59,254.72 274.92,254.23C276.77,253.54 277.02,253.13 275.97,252.48C275.22,252.02 270.53,250.25 265.55,248.55C258.64,246.20 256.53,245.06 256.62,243.74C256.69,242.78 256.81,241.55 256.88,241.00C256.94,240.45 258.97,240.00 261.38,240.00C263.78,240.00 267.16,239.72 268.88,239.38C270.59,239.03 272.00,238.14 272.00,237.39C272.00,236.63 269.64,234.45 266.75,232.53C262.37,229.63 259.62,228.73 250.12,227.11C243.48,225.97 238.09,224.52 237.19,223.62C235.88,222.31 235.86,222.00 237.07,221.62C237.86,221.37 239.79,220.88 241.37,220.53C242.95,220.19 244.05,219.72 243.82,219.49C243.60,219.26 237.36,217.53 229.96,215.63C222.56,213.73 211.78,211.26 206.00,210.15C200.22,209.03 193.70,207.86 191.50,207.55C189.30,207.24 186.90,207.37 186.16,207.85C185.15,208.51 185.68,209.26 188.28,210.86C190.18,212.04 192.02,213.00 192.36,213.00C192.70,213.00 198.84,215.51 206.00,218.58C213.16,221.64 221.04,225.28 223.51,226.66C225.98,228.04 228.00,229.37 228.00,229.62C228.00,229.87 225.78,229.77 223.07,229.42C219.42,228.93 216.32,229.31 211.12,230.89C207.26,232.07 203.81,233.49 203.46,234.06C203.11,234.62 203.43,235.82 204.16,236.71C205.37,238.17 205.07,238.26 201.00,237.63C198.53,237.25 190.43,234.00 183.00,230.41C175.57,226.82 165.92,221.79 161.55,219.23C157.18,216.67 150.20,212.04 146.05,208.93C141.90,205.83 134.45,199.35 129.50,194.54C124.55,189.73 116.31,181.92 111.19,177.19C106.07,172.45 99.46,165.57 96.49,161.90C93.52,158.22 89.04,151.85 86.55,147.74C84.05,143.63 80.92,137.36 79.58,133.82C78.25,130.27 76.41,123.80 75.51,119.44C74.60,115.07 73.77,106.91 73.68,101.30C73.55,94.01 73.88,90.73 74.81,89.80C75.89,88.73 76.32,88.86 77.23,90.50C77.83,91.60 81.93,96.21 86.33,100.74C90.74,105.28 97.64,111.27 101.67,114.05C105.70,116.84 114.06,121.55 120.25,124.52C127.27,127.89 135.94,131.06 143.32,132.96C152.34,135.28 157.31,136.00 164.32,135.98C169.37,135.98 174.14,135.56 174.92,135.07C176.14,134.30 176.12,133.84 174.79,131.84C173.93,130.55 168.74,124.53 163.26,118.45C154.58,108.84 152.45,107.05 146.89,104.67C143.38,103.17 137.12,100.20 133.00,98.08C128.88,95.96 122.05,93.04 117.83,91.61C113.61,90.17 108.09,89.00 105.55,89.00C103.01,89.00 99.27,88.30 97.23,87.45C95.19,86.60 92.47,84.91 91.17,83.70C89.87,82.49 87.74,79.69 86.44,77.48C85.14,75.27 83.37,70.42 82.51,66.70C81.65,62.99 80.49,52.65 79.94,43.73C79.38,34.80 78.53,24.80 78.05,21.50C77.56,18.20 77.13,12.01 77.08,7.75C77.00,0.00 77.00,0.00 88.67,0.00C100.34,0.00 100.34,0.00 105.92,4.82C108.99,7.47 112.96,10.70 114.74,12.00C116.52,13.29 118.25,14.08 118.59,13.74C118.93,13.41 118.42,10.74 117.46,7.81C116.50,4.89 115.49,1.92 115.23,1.21C114.86,0.20 116.61,-0.02 123.10,0.21C131.44,0.50 131.44,0.50 133.71,4.50C134.95,6.70 137.09,11.42 138.45,15.00C139.81,18.58 143.17,29.55 145.91,39.39C149.12,50.87 151.65,58.07 152.99,59.49C154.99,61.62 155.21,61.65 158.46,60.10C161.85,58.50 161.85,58.50 162.05,43.00C162.16,34.47 162.31,24.58 162.38,21.00C162.44,17.42 162.12,11.24 161.65,7.25C160.80,0.00 160.80,0.00 163.27,0.00C165.20,0.00 166.70,1.45 170.23,6.75C172.70,10.46 176.61,16.52 178.92,20.20C181.23,23.89 184.01,29.43 185.09,32.53C186.18,35.62 187.73,42.51 188.53,47.83C189.33,53.15 189.99,59.52 190.00,62.00C190.00,64.47 190.64,70.42 191.42,75.22C192.20,80.01 194.27,88.43 196.02,93.92C197.77,99.41 199.84,104.71 200.60,105.70C201.94,107.41 202.09,107.39 203.91,105.25C204.96,104.01 206.07,103.00 206.38,103.00C206.69,103.00 207.61,105.36 208.43,108.25C209.25,111.14 210.65,117.52 211.55,122.44C212.45,127.35 213.61,132.47 214.12,133.82C214.64,135.17 215.32,136.01 215.65,135.69C215.97,135.36 216.18,130.23 216.11,124.30C215.97,113.50 215.97,113.50 218.27,117.50C219.72,120.02 221.29,121.50 222.53,121.50C223.81,121.50 225.10,122.80 226.25,125.25C227.22,127.31 228.40,129.00 228.87,129.00C229.34,129.00 230.03,125.97 230.41,122.27C230.79,118.57 231.77,114.81 232.58,113.91C233.39,113.01 234.49,109.63 235.02,106.39C235.55,103.15 235.99,96.65 235.99,91.94C236.00,85.97 235.56,82.80 234.54,81.44C233.11,79.55 233.01,79.58 230.75,82.36C228.66,84.92 228.28,85.05 227.09,83.61C226.19,82.53 225.46,76.43 224.84,64.76C224.27,54.26 223.14,44.21 221.94,39.10C220.85,34.48 220.20,30.47 220.48,30.19C220.76,29.91 221.89,30.49 222.99,31.49C224.09,32.48 226.74,35.59 228.89,38.40C231.03,41.20 235.09,47.55 237.92,52.50C240.74,57.45 244.36,64.91 245.97,69.08C247.58,73.24 249.83,81.25 250.97,86.86C252.37,93.70 253.36,104.07 253.98,118.28C254.58,131.79 255.65,143.26 256.93,149.83C258.03,155.52 260.13,163.62 261.58,167.83C263.03,172.05 264.87,176.76 265.67,178.31C266.46,179.86 268.66,182.83 270.55,184.93C272.44,187.02 274.66,190.34 275.48,192.30C276.30,194.26 277.43,196.15 277.99,196.50C278.56,196.85 279.89,195.09 280.97,192.56C282.05,190.05 283.13,188.00 283.38,188.00C283.63,188.00 284.83,189.61 286.05,191.58C287.81,194.43 288.71,195.04 290.51,194.59C292.72,194.03 292.76,194.18 292.83,203.80C292.86,209.18 293.33,215.50 293.86,217.86C294.65,221.40 294.58,222.05 293.41,221.60C292.63,221.31 292.00,221.46 292.00,221.94C292.00,222.43 294.81,226.57 298.25,231.15C301.69,235.72 304.81,239.91 305.20,240.46C305.58,241.00 306.13,241.20 306.42,240.91C306.71,240.62 305.82,238.73 304.45,236.72C303.08,234.70 301.70,231.74 301.38,230.14C301.06,228.55 301.22,226.98 301.73,226.67C302.25,226.35 304.37,227.25 306.45,228.66C309.50,230.73 310.41,230.97 311.10,229.87C311.58,229.12 311.98,227.82 312.00,227.00C312.02,226.18 312.43,224.87 312.91,224.11C313.64,222.96 314.32,223.09 316.80,224.86C318.46,226.04 320.47,227.00 321.27,227.00C322.34,227.00 322.86,225.29 323.25,220.49C323.54,216.91 324.32,213.31 325.00,212.50C325.67,211.69 326.70,211.31 327.27,211.67C327.98,212.11 328.12,210.17 327.69,205.63C327.35,201.96 326.23,197.05 325.20,194.72C324.17,192.40 322.58,189.88 321.66,189.13C320.47,188.14 320.00,186.15 320.00,182.03C320.00,178.88 320.29,172.90 320.64,168.74C321.14,162.82 321.59,161.29 322.68,161.71C323.45,162.00 324.96,163.95 326.02,166.04C327.08,168.12 328.50,172.00 329.17,174.66C330.01,178.02 330.40,191.30 330.44,218.00C330.49,252.70 330.68,256.89 332.28,260.45C333.26,262.62 335.20,265.88 336.58,267.70C337.97,269.51 339.75,271.00 340.55,271.00C341.68,271.00 342.00,269.40 342.00,263.67C342.00,259.63 342.28,256.05 342.63,255.70C342.98,255.35 344.18,255.56 345.30,256.16C346.94,257.04 347.60,256.90 348.67,255.44C349.40,254.44 350.00,252.16 350.00,250.37C350.00,248.58 350.42,246.86 350.93,246.55C351.44,246.23 352.33,248.34 352.91,251.24C353.49,254.13 354.47,259.65 355.10,263.50C355.72,267.35 356.17,273.58 356.10,277.34C356.03,281.11 356.43,285.90 357.00,287.99C357.56,290.08 358.66,292.04 359.43,292.33C360.21,292.63 361.48,291.92 362.27,290.73C363.60,288.72 363.74,289.00 364.42,295.04C364.82,298.59 365.98,303.40 367.01,305.73C368.10,308.22 373.88,315.20 381.08,322.73C387.80,329.75 394.01,335.64 394.90,335.80C395.78,335.97 398.66,338.44 401.31,341.30C406.12,346.50 406.12,346.50 405.42,338.50C405.04,334.10 404.41,329.63 404.02,328.56C403.39,326.83 403.24,326.91 402.64,329.31C402.27,330.79 401.29,332.00 400.47,332.00C399.66,332.00 397.98,330.78 396.74,329.29C395.51,327.80 392.39,324.30 389.81,321.50C387.22,318.71 384.69,315.32 384.18,313.96C383.67,312.61 382.94,303.40 382.56,293.50C382.03,279.79 381.18,272.16 379.02,261.50C377.45,253.80 375.20,245.03 374.01,242.00C372.82,238.97 371.18,235.77 370.37,234.87C369.57,233.97 368.47,231.72 367.95,229.87C367.42,228.02 366.59,225.87 366.10,225.10C365.60,224.34 364.48,223.99 363.60,224.32C362.72,224.66 362.00,225.80 362.00,226.85C362.00,227.90 361.41,229.24 360.70,229.84C359.74,230.63 358.56,230.41 356.25,229.00C354.12,227.71 352.77,225.85 352.07,223.26C351.50,221.16 350.41,218.57 349.63,217.51C348.40,215.83 348.00,215.76 346.53,216.97C345.09,218.17 344.71,218.17 343.88,216.94C343.33,216.12 343.04,209.58 343.22,201.81C343.40,194.29 343.90,187.76 344.35,187.32C344.79,186.88 346.81,188.31 348.84,190.51C350.87,192.70 353.52,195.85 354.73,197.50C356.71,200.20 356.94,200.29 356.97,198.38C356.99,197.21 356.32,194.34 355.50,192.00C354.68,189.66 354.00,186.91 354.00,185.87C354.00,184.84 354.58,184.00 355.29,184.00C356.00,184.00 358.66,186.14 361.20,188.75C363.75,191.36 366.69,195.06 367.73,196.97C368.83,198.96 370.67,200.68 372.07,201.01C373.83,201.42 374.83,202.67 375.71,205.54C376.37,207.72 377.82,212.43 378.92,216.00C380.02,219.57 381.23,224.53 381.60,227.00C381.97,229.47 382.60,232.13 383.01,232.91C383.42,233.69 384.08,228.50 384.48,221.38C385.16,209.05 385.07,208.07 382.56,200.58C381.11,196.26 378.33,190.33 376.39,187.40C374.45,184.48 372.10,181.85 371.17,181.55C370.22,181.25 367.51,176.75 365.06,171.41C362.64,166.12 358.98,159.77 356.92,157.28C354.87,154.80 351.24,151.67 348.85,150.32C346.46,148.98 341.66,145.09 338.18,141.69C334.70,138.29 328.81,131.90 325.07,127.50C321.34,123.10 317.73,118.45 317.06,117.17C316.03,115.19 316.12,114.63 317.67,113.45C318.68,112.69 319.84,112.05 320.25,112.03C320.66,112.01 321.00,111.40 321.00,110.66C321.00,109.93 319.09,106.68 316.75,103.45C314.41,100.21 310.21,93.05 307.40,87.53C303.24,79.34 301.89,77.50 300.05,77.48C298.81,77.46 297.16,76.57 296.37,75.49C295.58,74.42 294.27,71.28 293.45,68.53C292.63,65.77 291.08,58.34 290.00,52.00C288.92,45.66 286.72,36.66 285.10,31.99C283.49,27.32 280.34,18.69 278.09,12.81C275.84,6.94 274.00,1.65 274.00,1.06C274.00,0.48 275.24,0.01 276.75,0.01C278.97,0.02 281.40,2.11 289.26,10.76C294.63,16.67 302.85,26.45 307.53,32.50C312.20,38.55 318.47,46.88 321.45,51.02C326.64,58.22 326.98,59.10 329.63,71.90C331.16,79.28 333.16,86.21 334.11,87.38C335.82,89.49 335.82,89.49 337.07,86.75C337.76,85.24 338.66,84.00 339.08,84.00C339.50,84.00 340.81,85.24 341.98,86.75C343.15,88.26 345.12,91.08 346.34,93.00C347.57,94.92 349.72,97.05 351.11,97.72C353.18,98.72 354.22,100.82 356.80,109.22C358.54,114.87 360.66,123.33 361.51,128.00C362.36,132.68 364.36,141.60 365.94,147.83C367.53,154.06 369.11,159.45 369.47,159.80C369.82,160.15 370.53,159.78 371.04,158.97C371.55,158.16 371.98,155.88 371.98,153.90C371.99,151.92 372.29,146.86 372.65,142.65C373.00,138.44 373.66,135.00 374.10,135.00C374.55,135.00 376.11,137.04 377.58,139.54C379.04,142.04 380.75,143.92 381.37,143.71C381.99,143.50 382.78,142.02 383.13,140.42C383.48,138.81 383.82,135.40 383.88,132.83C383.95,130.26 384.28,127.44 384.61,126.56C385.10,125.31 386.35,126.09 390.49,130.23C393.39,133.13 396.73,137.42 397.91,139.77C399.29,142.51 400.47,147.72 401.21,154.30C402.20,163.17 402.13,165.46 400.68,171.23C399.75,174.91 399.00,181.27 399.00,185.38C399.00,190.46 398.55,193.31 397.60,194.26C396.83,195.03 395.46,198.32 394.57,201.58C393.42,205.77 392.77,213.78 392.36,229.00C392.01,242.11 392.27,257.72 393.03,269.00C393.71,279.18 394.70,288.33 395.22,289.35C396.13,291.11 396.26,291.10 398.13,289.10C399.20,287.94 400.59,287.00 401.21,287.00C401.83,287.00 403.18,287.75 404.19,288.68C405.50,289.86 406.36,290.04 407.11,289.29C407.70,288.70 408.40,284.46 408.67,279.86C408.94,275.26 409.35,270.89 409.59,270.14C409.95,269.02 410.30,269.00 411.59,270.07C412.88,271.14 413.31,271.12 414.06,269.94C414.56,269.15 414.98,265.89 414.98,262.70C415.00,257.76 413.94,254.36 407.87,239.76C400.84,222.86 400.73,222.46 400.23,211.81C399.78,202.44 399.93,201.00 401.29,201.00C402.15,201.00 403.78,199.82 404.91,198.39C406.07,196.91 407.58,196.01 408.38,196.32C409.16,196.61 410.55,199.14 411.48,201.93C412.48,204.96 413.75,207.00 414.63,207.00C415.44,207.00 416.59,205.61 417.18,203.90C417.97,201.64 418.49,201.17 419.10,202.15C419.57,202.89 420.41,205.75 420.99,208.50C421.56,211.25 422.65,221.82 423.42,232.00C424.19,242.18 425.13,251.26 425.50,252.19C425.87,253.12 427.25,254.59 428.58,255.46C429.90,256.33 431.68,258.70 432.53,260.73C433.38,262.76 434.80,265.23 435.69,266.21C436.58,267.20 437.71,268.00 438.21,268.00C438.70,268.00 439.59,266.62 440.18,264.92C440.77,263.23 441.60,262.22 442.03,262.67C442.46,263.13 443.54,266.41 444.44,269.96C445.33,273.52 446.61,276.77 447.28,277.20C447.95,277.62 449.01,277.98 449.62,277.98C450.24,277.99 451.03,276.59 451.38,274.88C451.72,273.16 452.00,270.23 452.00,268.38C452.00,265.70 452.40,265.00 453.94,265.00C455.01,265.00 456.16,265.45 456.50,266.00C456.84,266.55 457.77,267.00 458.56,267.00C459.65,267.00 460.00,265.56 460.00,261.04C460.00,257.45 459.17,252.87 457.93,249.54C456.24,245.02 455.43,244.00 453.55,244.00C451.93,244.00 450.87,243.11 450.00,241.00C449.32,239.35 448.37,238.00 447.89,238.00C447.41,238.00 446.48,238.86 445.83,239.90C445.18,240.95 444.03,241.57 443.28,241.28C442.54,240.99 441.24,239.43 440.40,237.80C439.22,235.52 438.81,230.61 438.61,216.42C438.47,206.29 438.71,198.00 439.15,198.00C439.59,198.00 443.03,200.65 446.79,203.89C450.56,207.13 455.54,211.94 457.85,214.57C460.17,217.20 463.74,222.74 465.78,226.88C469.44,234.28 469.50,234.56 469.33,245.45C469.24,251.53 469.07,266.40 468.94,278.50C468.77,295.37 469.11,302.68 470.38,309.86C471.29,315.00 472.98,321.42 474.14,324.11C475.30,326.80 476.57,329.00 476.97,329.00C477.37,329.00 477.96,322.36 478.28,314.25C478.62,305.61 479.60,296.50 480.63,292.25C481.59,288.26 482.65,285.00 482.98,285.00C483.31,285.00 484.35,288.69 485.30,293.19C486.25,297.70 487.72,302.45 488.57,303.75C489.43,305.06 490.88,305.98 491.81,305.80C493.20,305.53 493.71,303.37 494.66,293.66C495.31,287.16 496.03,281.63 496.28,281.39C496.53,281.14 497.30,282.30 497.99,283.97C498.68,285.64 499.86,287.00 500.62,287.00C501.64,287.00 502.00,285.43 502.00,281.00C502.00,277.70 502.42,275.00 502.92,275.00C503.43,275.00 505.20,276.35 506.85,278.01C508.51,279.66 510.88,283.60 512.13,286.76C514.27,292.19 514.40,294.04 514.62,321.00C514.75,336.68 515.31,352.33 515.88,355.80C516.44,359.26 517.95,363.99 519.22,366.30C520.50,368.61 522.19,370.50 522.98,370.50C523.80,370.50 524.79,368.99 525.28,367.00C525.75,365.07 526.57,361.81 527.11,359.75C527.64,357.69 528.40,356.00 528.80,356.00C529.19,356.00 530.57,358.93 531.85,362.50C533.13,366.07 534.52,369.00 534.94,369.00C535.36,369.00 535.96,363.16 536.28,356.02C536.59,348.89 537.15,342.57 537.50,341.99C537.88,341.39 539.10,342.33 540.37,344.22C541.58,346.02 543.24,347.50 544.04,347.50C545.04,347.50 545.71,345.91 546.16,342.50C546.53,339.75 546.86,334.88 546.91,331.67C546.98,327.48 547.35,325.95 548.25,326.25C548.94,326.47 550.92,328.52 552.67,330.80C554.41,333.07 556.80,337.53 557.99,340.69C559.31,344.22 560.76,352.15 561.75,361.22C562.64,369.35 563.80,376.00 564.34,376.00C564.95,376.00 565.09,370.70 564.71,361.75C564.21,349.67 564.32,347.78 565.46,349.31C566.21,350.31 567.30,354.81 567.89,359.31C568.48,363.82 569.38,373.00 569.87,379.72C570.66,390.37 571.14,392.56 573.57,396.72C575.11,399.35 577.90,403.63 579.76,406.22C582.20,409.62 584.18,411.23 586.82,411.97C588.85,412.53 591.75,412.99 593.28,412.99C594.95,413.00 596.32,412.34 596.70,411.34C597.05,410.43 596.77,406.27 596.07,402.09C595.38,397.92 592.84,385.27 590.44,374.00C588.04,362.73 585.14,349.23 583.99,344.00C582.84,338.77 580.81,329.20 579.48,322.73C578.14,316.25 576.57,310.06 575.98,308.96C575.39,307.85 572.31,305.05 569.14,302.73C565.98,300.40 561.80,296.70 559.86,294.50C557.93,292.30 554.97,288.48 553.29,286.00C551.61,283.52 545.72,276.71 540.20,270.85C534.68,265.00 529.36,258.70 528.39,256.85C527.42,255.01 524.56,248.11 522.04,241.51C517.49,229.59 517.45,229.53 513.82,228.94C511.81,228.61 508.90,227.51 507.34,226.50C505.78,225.48 500.89,220.98 496.47,216.48C491.92,211.85 487.05,205.70 485.23,202.29C483.47,198.98 480.48,191.82 478.60,186.38C476.71,180.95 474.68,173.83 474.09,170.57C473.49,167.30 472.99,158.08 472.98,150.07C472.97,142.05 472.50,126.05 471.94,114.50C471.38,102.95 471.22,84.61 471.60,73.75C471.97,62.89 472.61,54.00 473.03,54.00C473.44,54.00 474.09,55.24 474.47,56.75C474.85,58.26 476.06,60.96 477.16,62.75C478.26,64.54 479.79,66.00 480.56,66.00C481.33,66.00 482.75,64.78 483.73,63.29C485.22,61.01 485.48,58.42 485.40,47.04C485.35,39.59 484.77,29.00 484.10,23.50C483.44,18.00 482.24,11.15 481.43,8.29C480.63,5.42 479.70,2.38 479.38,1.54C478.91,0.33 479.55,0.00 482.31,0.00C485.53,0.00 486.49,0.80 493.55,9.25C497.80,14.34 503.52,21.83 506.27,25.90C509.01,29.97 513.69,38.34 516.65,44.51C519.62,50.68 523.12,59.96 524.43,65.13C525.74,70.30 527.53,80.40 528.41,87.56C529.28,94.72 530.00,106.41 530.00,113.54C530.01,120.67 529.57,134.60 529.04,144.50C528.51,154.40 527.57,178.70 526.95,198.50C525.92,231.39 525.97,235.15 527.53,242.00C528.47,246.12 529.82,250.63 530.52,252.00C531.22,253.38 532.74,255.36 533.90,256.41C535.48,257.84 536.01,257.96 536.05,256.90C536.07,256.13 536.31,253.08 536.56,250.13C536.82,247.18 537.29,244.34 537.61,243.82C537.93,243.30 538.79,243.69 539.53,244.69C540.41,245.89 541.19,246.16 541.83,245.50C542.37,244.95 543.51,241.01 544.38,236.75C545.25,232.48 546.60,227.98 547.39,226.75C548.18,225.51 550.63,217.53 552.84,209.00C555.05,200.47 557.79,188.37 558.92,182.09C560.05,175.82 561.21,170.46 561.49,170.17C561.78,169.89 563.02,170.58 564.25,171.70C565.49,172.83 567.07,173.54 567.77,173.28C568.47,173.03 569.72,171.51 570.55,169.91C571.37,168.31 572.49,167.00 573.03,167.00C573.56,167.00 574.03,169.36 574.07,172.25C574.11,175.14 574.51,178.40 574.97,179.50C575.71,181.30 575.94,181.15 577.30,178.00C578.13,176.07 580.20,168.12 581.90,160.32C583.61,152.52 584.99,144.65 584.97,142.82C584.94,139.96 584.77,139.73 583.72,141.16C583.05,142.08 581.93,143.65 581.24,144.66C580.17,146.21 580.06,145.70 580.56,141.36C580.91,138.38 580.74,135.96 580.17,135.61C579.63,135.27 577.57,137.25 575.60,140.00C573.62,142.75 571.57,145.00 571.05,145.00C570.52,145.00 569.78,143.36 569.41,141.35C569.03,139.34 569.12,129.55 569.61,119.60C570.10,109.64 570.50,96.55 570.50,90.50C570.50,84.45 570.15,73.94 569.72,67.16C569.09,57.29 569.19,54.89 570.22,55.22C570.92,55.45 574.09,59.20 577.26,63.57C580.43,67.93 586.14,77.80 589.95,85.50C593.77,93.20 598.70,105.01 600.92,111.73C603.13,118.46 605.87,127.59 607.00,132.01C608.13,136.44 609.72,144.43 610.52,149.78C611.33,155.13 611.98,165.57 611.97,173.00C611.97,180.43 611.33,191.22 610.56,197.00C609.79,202.78 608.48,210.45 607.64,214.05C606.81,217.65 605.16,223.17 603.98,226.32C602.81,229.46 600.71,233.38 599.33,235.02C597.95,236.66 596.41,237.75 595.91,237.44C595.41,237.13 595.00,235.32 595.00,233.41C595.00,231.30 594.43,229.72 593.55,229.38C592.76,229.08 590.71,229.65 589.01,230.65C586.48,232.15 585.76,232.23 585.08,231.13C584.63,230.39 584.40,226.74 584.59,223.02C584.77,219.30 584.39,214.85 583.74,213.12C583.09,211.39 582.09,210.13 581.53,210.32C580.96,210.50 579.53,212.09 578.34,213.84C577.16,215.59 573.91,224.10 571.13,232.76C568.35,241.42 565.59,250.74 564.99,253.47C564.38,256.20 564.15,259.46 564.47,260.72C564.81,262.10 565.79,263.00 566.96,263.00C568.02,263.00 569.16,262.55 569.50,262.00C569.84,261.45 570.44,261.00 570.84,261.00C571.24,261.00 572.41,262.43 573.44,264.17C575.26,267.24 575.36,267.28 576.91,265.41C577.78,264.35 579.80,262.47 581.38,261.24C583.06,259.94 585.67,259.00 587.61,259.00C590.08,259.00 591.39,258.34 592.61,256.47C593.52,255.08 594.44,254.10 594.64,254.30C594.84,254.51 594.13,257.21 593.07,260.31C592.00,263.41 588.62,270.74 585.56,276.60C580.90,285.53 580.00,288.09 580.00,292.44C580.00,295.29 580.60,298.43 581.33,299.43C582.25,300.69 583.31,301.04 584.81,300.56C586.00,300.18 588.50,297.99 590.38,295.69C592.26,293.38 596.04,288.12 598.78,284.00C601.52,279.88 606.95,273.02 610.85,268.76C614.75,264.50 622.07,254.83 627.11,247.26C632.16,239.69 639.01,229.96 642.35,225.64C647.39,219.11 648.54,218.09 649.14,219.64C649.53,220.66 650.12,222.74 650.45,224.25C650.85,226.13 651.67,227.00 653.02,227.00C654.11,227.00 655.00,227.45 655.00,228.00C655.00,228.55 655.41,229.00 655.92,229.00C656.42,229.00 657.34,226.64 657.96,223.76C658.58,220.87 659.78,206.58 660.64,192.01C661.64,174.99 661.97,159.41 661.58,148.50C661.23,139.15 660.48,127.82 659.89,123.31C659.31,118.81 658.98,114.35 659.16,113.41C659.38,112.29 661.46,114.64 665.18,120.24C668.31,124.94 672.65,132.32 674.82,136.64C676.99,140.96 680.64,150.35 682.93,157.50C685.22,164.65 688.41,177.03 690.02,185.00C691.62,192.97 693.44,205.80 694.06,213.50C694.68,221.20 695.25,241.45 695.33,258.50C695.46,283.65 695.15,291.77 693.71,301.50C692.73,308.10 689.68,325.18 686.94,339.45C684.19,353.73 680.64,370.60 679.04,376.95C677.45,383.30 674.58,392.59 672.67,397.58C670.76,402.58 667.51,410.01 665.46,414.08C663.40,418.16 659.46,424.88 656.68,429.00C653.91,433.12 650.36,438.11 648.79,440.09C647.22,442.06 644.21,444.64 642.11,445.82C640.01,447.00 638.00,447.67 637.65,447.31C637.29,446.96 637.00,445.17 637.00,443.33C637.00,440.87 636.56,440.00 635.31,440.00C634.39,440.00 629.82,443.81 625.17,448.46C616.71,456.91 616.71,456.91 617.35,462.21C617.70,465.12 619.77,474.62 621.94,483.33C624.11,492.04 626.42,499.80 627.07,500.58C627.72,501.36 628.63,502.00 629.11,502.00C629.58,502.00 634.67,497.94 640.42,492.98C646.17,488.01 653.32,481.15 656.30,477.73C659.28,474.30 662.25,470.49 662.90,469.25C663.54,468.01 663.88,467.00 663.64,467.00C663.41,467.00 659.27,469.48 654.45,472.51C649.62,475.53 645.49,477.82 645.26,477.59C645.03,477.36 645.39,476.12 646.07,474.84C646.75,473.55 649.24,469.97 651.61,466.88C653.98,463.79 660.28,454.34 665.60,445.88C670.93,437.42 677.43,426.90 680.05,422.50C682.67,418.10 685.94,410.90 687.31,406.50C688.69,402.10 692.37,390.40 695.50,380.50C698.63,370.60 703.59,356.43 706.51,349.00C709.43,341.57 712.40,332.80 713.11,329.50C713.93,325.65 714.41,315.24 714.45,300.50C714.48,287.85 714.14,271.20 713.69,263.50C712.94,250.53 713.00,249.65 714.50,251.50C715.39,252.60 719.86,260.93 724.44,270.00C729.02,279.07 734.85,291.75 737.41,298.17C739.96,304.58 743.17,313.55 744.53,318.09C745.89,322.63 748.32,332.91 749.94,340.92C751.55,348.94 753.45,360.68 754.15,367.00C754.85,373.32 755.42,389.52 755.41,403.00C755.40,416.94 754.85,431.60 754.13,437.00C753.43,442.23 752.26,457.37 751.52,470.66C750.78,483.94 749.69,495.70 749.11,496.79C748.53,497.87 744.91,501.67 741.07,505.23C737.22,508.79 731.63,513.39 728.65,515.44C725.66,517.50 715.63,522.46 706.36,526.47C697.09,530.48 682.15,536.96 673.17,540.86C664.19,544.76 653.72,550.03 649.90,552.57C645.96,555.19 642.26,558.53 641.35,560.29C640.09,562.72 639.88,565.03 640.37,570.83C640.71,574.91 641.53,580.11 642.17,582.38C642.82,584.64 643.78,587.06 644.30,587.75C644.82,588.44 645.57,589.00 645.97,589.00C646.37,589.00 654.08,584.58 663.10,579.17C672.12,573.77 684.09,566.35 689.69,562.69C695.30,559.03 706.55,551.38 714.69,545.69C722.84,540.00 733.10,532.86 737.50,529.83C741.90,526.80 747.64,522.81 750.26,520.96C754.79,517.77 755.11,517.68 756.76,519.33C758.38,520.95 758.52,526.47 758.84,596.40C759.06,646.42 758.80,675.23 758.07,682.12C757.47,687.83 756.31,700.60 755.48,710.50C754.66,720.40 753.50,730.98 752.90,734.00C752.31,737.02 750.65,741.52 749.23,743.99C747.80,746.45 744.58,750.68 742.07,753.38C739.56,756.09 734.89,760.48 731.70,763.15C725.90,768.00 725.90,768.00 684.92,768.00C643.94,768.00 643.94,768.00 638.76,762.25C635.91,759.09 626.54,749.66 617.95,741.29C609.35,732.93 598.61,721.58 594.06,716.08C589.52,710.57 578.98,699.69 570.65,691.90C562.32,684.10 552.12,675.16 548.00,672.04C543.88,668.91 537.80,664.53 534.50,662.31C531.20,660.09 523.33,655.67 517.00,652.50C510.68,649.32 502.63,645.64 499.12,644.32C495.60,643.00 489.57,641.25 485.72,640.44C481.86,639.63 478.43,639.24 478.10,639.57C477.77,639.90 478.51,640.99 479.75,642.00C480.99,643.00 482.00,644.26 482.00,644.79C482.00,645.32 483.01,646.51 484.25,647.42C486.39,649.01 486.06,649.07 477.30,648.56C472.23,648.27 465.60,647.74 462.55,647.38C458.54,646.91 457.00,647.06 457.00,647.93C457.00,648.59 459.85,650.42 463.32,651.99C466.80,653.57 472.31,655.76 475.57,656.87C478.83,657.97 484.43,660.28 488.00,661.99C491.57,663.71 496.52,666.27 499.00,667.69C501.48,669.11 508.23,673.06 514.00,676.48C519.77,679.89 529.45,685.22 535.50,688.32C541.55,691.42 549.10,696.01 552.28,698.51C555.46,701.02 559.63,705.26 561.54,707.93C563.46,710.60 567.39,714.78 570.27,717.23C573.15,719.67 579.27,724.24 583.88,727.39C588.49,730.53 594.34,734.17 596.88,735.49C599.42,736.80 604.05,739.59 607.17,741.68C610.29,743.78 618.82,750.45 626.13,756.50C639.42,767.50 639.42,767.50 615.20,767.77C594.87,767.99 590.61,767.79 588.66,766.51C587.38,765.67 585.72,763.85 584.98,762.46C583.81,760.29 583.87,759.26 585.40,755.02C586.37,752.31 586.88,749.21 586.54,748.13C586.20,747.04 583.80,744.80 581.21,743.14C578.62,741.48 573.35,738.77 569.50,737.13C565.65,735.49 559.43,732.53 555.68,730.57C551.32,728.29 547.47,727.00 545.03,727.00C542.93,727.00 538.04,728.35 534.16,730.00C530.28,731.65 526.13,733.00 524.93,733.00C523.73,733.00 519.54,731.23 515.62,729.06C511.71,726.89 507.60,724.42 506.50,723.57C504.52,722.04 504.52,722.01 506.95,720.11C509.12,718.41 509.24,717.99 507.97,716.47C506.76,715.01 505.27,714.83 498.02,715.27C493.34,715.55 487.02,716.62 484.00,717.64C479.00,719.33 478.47,719.79 478.19,722.71C477.91,725.56 478.28,726.09 481.44,727.41C483.40,728.23 485.00,729.13 485.00,729.41C485.00,729.69 483.31,730.35 481.25,730.86C479.19,731.38 476.16,732.10 474.51,732.48C472.29,732.98 471.91,733.36 473.01,733.95C473.83,734.38 482.15,736.16 491.50,737.90C500.85,739.65 512.77,742.01 518.00,743.15C523.23,744.30 535.54,747.67 545.36,750.65C555.18,753.63 568.90,758.64 575.86,761.78C588.50,767.50 588.50,767.50 575.78,767.78C563.60,768.05 562.88,767.95 558.98,765.49C556.65,764.01 549.07,761.42 541.21,759.41C533.67,757.48 522.58,754.35 516.56,752.45C510.55,750.54 501.68,748.46 496.86,747.82C489.82,746.88 487.30,746.91 484.09,747.97C481.19,748.93 477.01,749.11 468.80,748.63C462.58,748.27 451.54,747.69 444.25,747.34C436.18,746.96 431.00,747.08 431.00,747.66C431.00,748.18 431.53,749.13 432.18,749.78C432.83,750.43 433.02,751.31 432.59,751.73C432.17,752.15 424.55,752.44 415.66,752.36C406.77,752.29 401.07,752.42 403.00,752.65C404.93,752.88 410.32,753.75 415.00,754.58C419.68,755.41 425.52,756.70 428.00,757.46C430.48,758.22 437.68,760.27 444.00,762.03C450.32,763.78 456.62,765.82 458.00,766.57C460.18,767.75 458.21,767.93 442.50,767.96C430.58,767.99 418.08,767.29 405.50,765.89C389.32,764.09 383.08,763.87 363.50,764.39C350.85,764.73 338.02,765.45 335.00,766.00C331.98,766.56 325.24,767.30 320.04,767.65zM527.50,767.88C506.50,767.85 506.50,767.85 500.00,764.85C493.50,761.85 493.50,761.85 495.83,759.95C497.11,758.90 499.81,757.59 501.83,757.03C503.85,756.47 506.18,756.01 507.01,756.01C507.84,756.00 515.71,758.05 524.51,760.55C533.30,763.05 542.30,765.73 544.50,766.50C548.17,767.79 546.74,767.90 527.50,767.88zM709.43,760.00C710.10,760.00 711.56,758.99 712.66,757.75C713.77,756.51 715.70,754.01 716.95,752.19C718.20,750.37 719.00,748.66 718.73,748.39C718.46,748.13 715.71,749.15 712.62,750.66C709.06,752.41 707.00,754.04 707.00,755.13C707.00,756.07 707.27,757.55 707.61,758.42C707.94,759.29 708.76,760.00 709.43,760.00zM653.74,753.59C654.03,753.30 652.43,750.23 650.17,746.78C647.92,743.33 639.79,734.09 632.12,726.25C624.44,718.41 618.55,712.00 619.02,712.00C619.50,712.00 620.16,712.45 620.50,713.00C620.84,713.55 621.55,714.00 622.08,714.00C622.62,714.00 622.38,712.76 621.57,711.25C620.75,709.74 614.77,703.08 608.29,696.44C601.81,689.81 590.42,678.99 583.00,672.39C575.58,665.80 566.12,657.75 562.00,654.51C557.88,651.28 552.48,646.74 550.00,644.43C547.52,642.12 541.80,637.71 537.27,634.62C532.74,631.54 526.89,627.37 524.27,625.35C521.65,623.33 511.62,617.89 502.00,613.26C492.38,608.63 482.35,603.92 479.72,602.79C477.09,601.65 474.65,601.02 474.29,601.37C473.94,601.73 474.51,602.69 475.57,603.50C476.63,604.31 487.18,609.98 499.00,616.11C510.82,622.23 522.79,628.75 525.58,630.60C528.38,632.46 531.53,634.94 532.58,636.13C534.50,638.29 534.50,638.29 530.23,637.74C527.34,637.36 525.52,637.62 524.61,638.53C523.48,639.66 521.99,639.55 515.38,637.82C511.05,636.69 506.73,635.71 505.79,635.63C504.85,635.56 503.99,635.95 503.87,636.50C503.76,637.05 511.20,642.12 520.41,647.76C529.62,653.40 541.51,661.02 546.83,664.71C552.15,668.39 560.10,674.10 564.50,677.40C568.90,680.70 582.40,691.27 594.50,700.89C608.09,711.69 621.66,723.56 630.00,731.93C637.42,739.38 645.68,747.43 648.35,749.80C651.02,752.18 653.45,753.89 653.74,753.59zM664.53,742.00C665.77,742.00 667.75,741.21 668.94,740.25C670.13,739.29 671.49,736.70 671.97,734.50C672.45,732.30 673.15,727.01 673.54,722.75C674.23,715.00 674.23,715.00 669.86,715.00C667.46,715.00 662.35,714.10 658.50,713.00C654.65,711.90 650.29,711.00 648.79,711.00C646.45,711.00 645.93,711.57 644.94,715.25C644.31,717.59 643.40,720.53 642.90,721.79C642.27,723.39 642.45,724.74 643.47,726.29C644.28,727.51 647.14,730.38 649.83,732.69C652.52,734.99 656.42,738.03 658.50,739.44C660.58,740.85 663.29,742.00 664.53,742.00zM688.88,734.53C690.32,734.19 694.65,732.01 698.50,729.69C705.50,725.48 705.50,725.48 705.78,715.24C706.02,706.90 705.81,705.00 704.64,705.00C703.85,705.00 700.13,705.93 696.36,707.07C692.58,708.20 688.77,709.99 687.87,711.03C686.81,712.26 686.00,715.83 685.55,721.25C685.17,725.83 685.17,730.83 685.56,732.36C686.16,734.77 686.62,735.07 688.88,734.53zM719.37,721.00C720.13,721.00 724.29,718.70 728.62,715.90C732.95,713.09 737.78,709.60 739.34,708.15C740.90,706.69 742.76,704.38 743.47,703.00C744.18,701.62 745.09,697.69 745.48,694.25C746.05,689.31 745.91,688.01 744.85,688.07C744.11,688.11 738.34,690.92 732.03,694.32C724.57,698.34 720.11,701.38 719.29,703.00C718.60,704.38 718.02,708.99 718.01,713.25C718.00,719.16 718.33,721.00 719.37,721.00zM668.50,695.57C670.70,695.40 677.35,693.12 683.28,690.51C689.21,687.90 694.47,684.99 694.98,684.04C695.48,683.10 696.34,677.19 696.88,670.91C697.43,664.64 697.56,659.22 697.19,658.89C696.81,658.55 691.10,659.33 684.50,660.63C677.90,661.92 669.83,663.65 666.56,664.47C663.30,665.29 660.37,665.70 660.06,665.37C659.75,665.05 662.42,662.10 666.00,658.83C672.50,652.87 672.50,652.87 668.00,653.03C665.52,653.11 663.12,653.14 662.65,653.09C662.18,653.04 663.19,651.41 664.90,649.47C666.60,647.52 668.00,645.74 668.00,645.50C668.00,645.26 667.21,645.36 666.25,645.72C665.29,646.09 662.02,647.83 659.00,649.60C655.98,651.37 652.38,654.02 651.00,655.49C648.58,658.08 648.49,658.65 648.16,674.69C647.94,685.61 648.19,691.59 648.90,692.30C649.50,692.90 653.25,693.94 657.24,694.63C661.23,695.32 666.30,695.74 668.50,695.57zM615.87,693.45C616.08,693.25 614.37,686.88 612.08,679.30C609.79,671.71 605.84,659.65 603.29,652.50C600.74,645.35 596.56,634.28 593.99,627.90C591.42,621.52 586.79,612.41 583.68,607.65C580.40,602.61 577.36,599.00 576.41,599.00C575.17,599.00 574.90,599.66 575.28,601.75C575.56,603.26 577.14,607.99 578.79,612.25C580.45,616.51 581.64,620.00 581.46,620.00C581.27,620.00 579.47,619.03 577.46,617.85C574.61,616.16 573.64,615.97 573.01,616.98C572.41,617.96 571.29,617.58 568.37,615.38C564.52,612.50 564.52,612.50 568.76,617.88C571.09,620.84 573.00,623.65 573.00,624.13C573.00,624.61 572.59,625.00 572.09,625.00C571.59,625.00 569.00,623.28 566.34,621.17C563.68,619.07 554.57,609.95 546.09,600.92C537.62,591.89 522.77,576.71 513.09,567.18C503.42,557.66 491.45,546.51 486.50,542.41C481.55,538.31 473.45,532.01 468.50,528.42C463.38,524.71 452.39,518.41 443.00,513.81C433.93,509.36 422.97,504.21 418.66,502.36C414.35,500.51 409.98,499.00 408.95,499.00C407.76,499.00 403.47,503.47 397.19,511.27C391.75,518.01 382.37,528.02 376.35,533.52C370.32,539.01 363.17,545.35 360.45,547.61C356.00,551.31 355.66,551.88 356.95,553.44C357.74,554.39 360.98,556.47 364.15,558.07C367.32,559.68 373.31,562.12 377.46,563.52C381.60,564.91 389.34,566.70 394.65,567.50C399.97,568.30 405.93,569.47 407.91,570.10C409.88,570.74 413.75,572.85 416.50,574.79C419.25,576.74 422.12,579.20 422.88,580.27C423.64,581.34 425.76,582.84 427.60,583.61C429.43,584.37 432.34,585.00 434.05,585.00C436.08,585.00 437.04,584.56 436.79,583.75C436.59,583.06 432.16,579.69 426.96,576.25C421.76,572.81 417.36,569.56 417.18,569.03C417.00,568.51 418.13,567.72 419.68,567.29C421.23,566.85 426.77,566.51 432.00,566.52C440.81,566.53 441.98,566.78 448.00,569.89C451.57,571.73 458.27,575.69 462.88,578.69C467.49,581.68 475.59,587.39 480.88,591.38C486.17,595.37 495.23,601.81 501.00,605.68C506.77,609.56 514.88,614.97 519.00,617.71C523.12,620.46 529.88,624.86 534.00,627.49C538.12,630.12 544.88,634.78 549.00,637.84C553.12,640.90 561.06,647.03 566.63,651.45C572.21,655.88 580.28,662.20 584.58,665.50C588.87,668.80 597.59,676.52 603.94,682.65C610.30,688.78 615.67,693.64 615.87,693.45zM714.54,676.00C715.53,676.00 719.30,674.38 722.92,672.40C726.54,670.41 733.39,665.90 738.15,662.37C742.91,658.83 747.08,655.24 747.40,654.39C747.73,653.54 748.00,644.55 748.00,634.42C748.00,618.51 747.79,616.00 746.46,616.00C745.62,616.00 742.96,618.02 740.56,620.49C738.16,622.96 733.69,628.74 730.63,633.34C727.57,637.94 723.51,644.81 721.60,648.60C719.70,652.40 717.20,658.42 716.04,662.00C714.89,665.58 713.67,670.19 713.34,672.25C712.84,675.41 713.03,676.00 714.54,676.00zM414.50,661.35C417.80,661.03 421.30,660.35 422.28,659.84C423.26,659.32 423.79,658.47 423.47,657.95C423.15,657.43 420.42,657.00 417.41,657.00C414.40,657.00 410.26,657.72 408.22,658.60C404.88,660.04 404.70,660.29 406.50,661.07C407.60,661.54 411.20,661.67 414.50,661.35zM629.40,654.00C630.13,654.00 631.87,653.10 633.27,652.00C634.66,650.91 637.20,647.90 638.90,645.33C642.00,640.66 642.00,640.66 642.00,624.58C642.01,615.59 641.36,604.09 640.53,598.50C639.72,593.00 638.38,583.64 637.54,577.71C636.71,571.77 635.57,566.07 635.02,565.04C634.47,564.01 632.66,562.87 631.01,562.50C629.36,562.14 627.33,560.88 626.50,559.70C625.68,558.52 625.00,556.81 625.00,555.89C625.00,554.79 626.15,554.01 628.40,553.58C630.27,553.23 632.33,552.30 632.99,551.52C633.64,550.73 633.91,549.66 633.58,549.13C633.26,548.61 632.08,543.75 630.98,538.34C629.87,532.93 627.67,525.35 626.10,521.50C624.53,517.65 622.70,511.35 622.05,507.50C621.39,503.65 619.49,494.43 617.83,487.00C616.16,479.57 613.31,470.12 611.48,466.00C609.66,461.88 607.02,454.68 605.62,450.00C604.21,445.32 602.04,437.45 600.78,432.50C598.49,423.50 598.49,423.50 590.91,423.85C584.25,424.16 582.67,423.87 577.91,421.48C574.94,419.98 564.20,413.08 554.05,406.13C536.77,394.30 534.25,392.15 514.34,372.25C502.65,360.56 492.64,351.00 492.10,351.00C491.56,351.00 487.92,347.38 484.02,342.95C480.11,338.52 473.25,331.66 468.76,327.70C464.28,323.74 456.03,316.00 450.44,310.50C444.85,305.00 438.44,297.66 436.20,294.19C433.63,290.22 430.41,282.74 427.48,273.95C424.93,266.29 422.40,259.75 421.85,259.41C421.31,259.07 420.59,259.07 420.26,259.41C419.93,259.74 420.68,265.85 421.92,273.00C424.07,285.31 424.17,288.03 423.85,325.78C423.50,365.57 423.50,365.57 427.27,373.21C429.34,377.41 433.15,383.69 435.74,387.17C438.33,390.65 443.16,396.13 446.47,399.34C449.79,402.55 454.20,406.06 456.28,407.13C458.37,408.20 460.45,408.84 460.92,408.55C461.39,408.26 462.03,406.78 462.36,405.26C462.68,403.74 463.48,399.50 464.13,395.83C465.31,389.16 465.31,389.16 467.40,392.27C468.56,393.98 469.95,395.41 470.50,395.44C471.05,395.47 471.62,393.02 471.78,390.00C471.93,386.98 472.27,383.89 472.54,383.14C472.92,382.07 473.33,382.03 474.47,382.97C475.26,383.63 476.30,383.93 476.78,383.64C477.27,383.33 477.25,379.99 476.73,375.98C476.23,372.06 476.09,368.58 476.42,368.25C476.76,367.91 478.64,369.18 480.61,371.07C482.58,372.96 485.43,376.30 486.95,378.50C488.46,380.70 490.65,385.05 491.81,388.16C492.96,391.28 494.61,399.15 495.48,405.66C496.34,412.17 497.27,418.49 497.53,419.71C497.88,421.29 499.01,422.10 501.52,422.57C503.66,422.97 505.57,422.77 506.42,422.06C507.20,421.42 508.77,418.90 509.92,416.45C511.07,414.00 512.38,412.00 512.84,412.00C513.29,412.00 514.17,413.01 514.79,414.25C515.40,415.49 516.57,418.84 517.39,421.70C518.49,425.57 518.61,427.83 517.87,430.51C517.32,432.49 514.20,439.26 510.94,445.54C507.67,451.82 505.00,457.88 505.00,459.00C505.00,460.11 506.46,462.60 508.25,464.51C510.04,466.43 512.60,468.11 513.95,468.25C516.16,468.48 516.55,467.90 518.07,462.20C518.99,458.74 520.65,454.91 521.76,453.70C522.88,452.49 524.79,449.14 526.01,446.26C527.23,443.38 528.57,441.23 528.98,441.49C529.39,441.74 530.30,444.10 531.00,446.72C531.70,449.35 532.89,452.51 533.66,453.75C534.42,454.99 535.70,456.00 536.51,456.00C537.31,456.00 539.14,453.69 540.57,450.86C542.00,448.04 543.42,443.31 543.73,440.36C544.03,437.41 544.55,435.00 544.89,435.00C545.23,435.00 547.30,438.49 549.50,442.75C551.92,447.45 554.40,450.89 555.80,451.50C557.06,452.05 559.16,454.75 560.47,457.50C561.78,460.25 563.16,464.90 563.53,467.84C564.19,473.02 564.15,473.15 562.15,472.08C560.47,471.18 559.91,471.31 559.18,472.74C558.68,473.71 557.96,477.64 557.58,481.48C557.21,485.31 555.79,491.74 554.44,495.77C553.09,499.79 550.64,505.75 548.99,509.01C547.35,512.28 546.00,515.83 546.00,516.91C546.00,518.00 546.45,519.16 547.01,519.51C547.56,519.85 549.20,519.20 550.64,518.06C552.09,516.93 553.77,516.00 554.38,516.01C555.00,516.01 556.77,514.55 558.32,512.76C559.87,510.97 561.34,509.95 561.59,510.50C561.83,511.05 562.45,512.16 562.96,512.97C563.47,513.78 564.15,514.18 564.47,513.86C564.79,513.54 565.54,510.52 566.13,507.14C566.73,503.76 567.55,501.00 567.95,501.00C568.36,501.00 569.50,501.90 570.50,503.00C571.50,504.10 573.09,505.00 574.05,505.00C575.00,505.00 576.08,504.24 576.44,503.30C576.80,502.37 577.48,497.43 577.97,492.33C578.45,487.23 579.14,482.58 579.50,482.00C579.90,481.35 580.94,481.92 582.15,483.47C583.25,484.86 584.52,486.00 584.97,486.00C585.43,486.00 586.30,484.58 586.90,482.85C587.51,481.12 588.01,478.08 588.02,476.10C588.02,474.12 588.41,471.90 588.88,471.16C589.53,470.14 590.25,470.55 591.91,472.87C593.10,474.55 594.96,478.48 596.04,481.60C597.11,484.73 598.49,492.40 599.10,498.67C599.71,504.93 599.92,511.60 599.57,513.50C599.21,515.39 598.37,517.30 597.70,517.72C597.03,518.15 595.03,521.38 593.24,524.89C590.92,529.46 590.00,532.65 590.00,536.08C590.00,538.72 590.52,541.20 591.16,541.60C591.84,542.02 593.68,540.84 595.58,538.76C597.89,536.24 599.06,533.78 599.57,530.38C600.13,526.63 600.46,526.01 601.05,527.60C601.46,528.72 602.12,532.64 602.52,536.30C602.91,539.98 602.69,549.13 602.02,556.73C601.11,567.19 600.24,571.77 598.44,575.80C597.13,578.72 595.15,582.27 594.03,583.69C592.91,585.11 592.00,587.24 592.00,588.43C592.00,589.63 592.54,591.14 593.20,591.80C593.86,592.46 594.92,593.00 595.56,593.00C596.20,593.00 597.95,591.78 599.45,590.28C600.94,588.79 603.13,587.55 604.32,587.53C605.98,587.51 606.97,586.26 608.66,582.03C609.86,579.01 611.28,576.41 611.80,576.23C612.33,576.06 613.55,578.84 614.51,582.41C615.51,586.09 616.01,590.22 615.66,591.94C615.33,593.62 614.14,596.88 613.03,599.18C611.91,601.49 611.00,604.18 611.00,605.16C611.00,606.14 612.35,607.65 614.00,608.50C616.73,609.91 617.29,609.90 620.25,608.39C622.04,607.47 625.38,605.43 627.68,603.86C629.98,602.29 632.12,601.00 632.43,601.00C632.74,601.00 633.00,602.43 633.00,604.17C633.00,606.62 631.99,608.31 628.56,611.59C625.96,614.08 623.65,617.45 622.97,619.71C622.08,622.67 622.09,624.63 623.00,628.02C623.73,630.71 625.53,633.71 627.60,635.66C629.73,637.67 631.00,639.81 631.00,641.40C631.00,642.88 630.20,644.36 629.07,644.96C628.00,645.53 626.86,646.88 626.51,647.96C626.17,649.04 626.38,650.84 626.98,651.96C627.58,653.08 628.67,654.00 629.40,654.00zM652.03,641.99C653.08,641.42 661.94,635.71 671.72,629.29C681.50,622.87 696.48,612.35 705.00,605.91C713.52,599.47 724.77,590.60 730.00,586.21C735.23,581.82 741.41,576.44 743.75,574.26C747.27,570.99 748.02,569.64 748.12,566.40C748.18,564.26 748.13,561.60 748.02,560.50C747.90,559.40 747.68,558.37 747.54,558.22C747.39,558.06 740.35,562.58 731.89,568.26C723.42,573.94 711.92,582.17 706.32,586.54C700.72,590.92 696.11,594.80 696.07,595.16C696.03,595.52 696.97,595.56 698.16,595.25C699.65,594.86 700.09,595.05 699.59,595.86C699.19,596.51 696.53,598.26 693.68,599.76C688.77,602.33 687.65,602.49 672.25,602.82C663.31,603.01 656.00,602.88 656.00,602.52C656.00,602.16 656.48,600.97 657.06,599.88C657.65,598.78 657.98,597.44 657.80,596.89C657.61,596.33 655.55,597.27 653.21,598.96C648.95,602.05 648.95,602.05 649.07,621.77C649.13,632.62 649.40,641.83 649.65,642.25C649.91,642.66 650.98,642.55 652.03,641.99zM442.25,629.97C447.06,629.99 451.00,629.62 451.00,629.15C451.00,628.69 450.20,627.58 449.21,626.69C448.23,625.80 445.76,624.38 443.72,623.53C441.67,622.67 436.63,621.69 432.50,621.34C426.28,620.81 425.00,620.96 425.00,622.18C425.00,622.99 426.01,624.57 427.25,625.69C428.49,626.81 430.40,628.22 431.50,628.83C432.60,629.44 437.44,629.95 442.25,629.97zM128.31,622.00C129.15,622.00 132.79,619.48 136.40,616.40C140.01,613.32 145.20,607.78 147.93,604.09C150.72,600.33 153.32,595.55 153.85,593.19C154.53,590.16 154.47,589.00 153.64,589.01C153.01,589.02 148.13,593.30 142.78,598.53C137.43,603.76 131.95,609.95 130.60,612.27C129.24,614.60 127.83,617.74 127.46,619.25C126.94,621.35 127.15,622.00 128.31,622.00zM415.62,594.83C416.79,594.93 419.16,594.72 420.88,594.38C422.59,594.03 424.00,593.12 424.00,592.36C424.00,591.60 422.58,590.11 420.85,589.05C419.11,588.00 414.05,586.18 409.60,585.01C405.14,583.84 398.18,581.80 394.12,580.47C390.06,579.14 386.34,578.29 385.87,578.58C385.39,578.88 385.00,579.54 385.00,580.06C385.00,580.57 386.64,582.81 388.65,585.04C390.66,587.26 393.70,590.08 395.40,591.29C397.66,592.90 400.53,593.66 406.00,594.08C410.12,594.41 414.46,594.74 415.62,594.83zM569.08,573.00C569.59,573.00 570.00,572.37 570.00,571.60C570.00,570.83 568.48,567.94 566.61,565.17C564.75,562.40 559.41,555.72 554.75,550.32C550.09,544.92 542.51,536.90 537.89,532.50C533.28,528.09 527.48,522.86 525.00,520.86C522.52,518.86 515.15,513.53 508.61,509.01C502.08,504.50 493.52,498.17 489.59,494.95C485.67,491.72 480.73,488.37 478.63,487.49C475.70,486.27 474.89,486.20 475.21,487.19C475.44,487.91 478.70,490.75 482.47,493.50C486.23,496.25 496.78,505.07 505.91,513.09C515.03,521.11 530.29,535.74 539.82,545.59C549.34,555.44 559.62,565.64 562.65,568.25C565.68,570.86 568.58,573.00 569.08,573.00zM260.75,556.69C265.17,556.30 270.33,554.89 275.70,552.60C280.21,550.68 285.50,548.81 287.45,548.44C290.00,547.97 291.00,548.13 291.00,549.04C291.00,549.74 289.83,551.84 288.41,553.71C285.82,557.10 285.82,557.10 293.66,556.48C297.97,556.14 304.32,555.22 307.77,554.44C311.22,553.66 315.78,552.13 317.91,551.04C320.04,549.96 323.41,547.17 325.40,544.84C327.46,542.44 328.64,540.24 328.15,539.75C327.65,539.25 323.66,539.92 318.89,541.31C314.27,542.65 308.74,544.49 306.60,545.39C304.45,546.29 302.49,546.82 302.23,546.57C301.98,546.31 302.81,544.42 304.08,542.37C305.66,539.81 306.01,538.50 305.20,538.23C304.54,538.01 304.00,537.29 304.00,536.62C304.00,535.95 305.69,533.81 307.75,531.87C309.81,529.93 318.19,523.22 326.36,516.97C334.53,510.72 343.44,503.61 346.15,501.18C348.86,498.74 354.53,492.86 358.75,488.13C364.59,481.56 366.00,479.43 364.69,479.18C363.74,479.00 360.16,479.75 356.73,480.85C353.31,481.96 349.04,483.15 347.25,483.51C344.86,483.99 344.00,483.80 344.00,482.80C344.00,482.06 344.72,480.42 345.60,479.16C346.48,477.90 346.94,476.60 346.61,476.28C346.29,475.95 343.65,477.18 340.76,479.01C337.87,480.84 333.25,483.61 330.50,485.15C327.75,486.70 324.70,487.97 323.72,487.98C322.74,487.99 321.66,487.28 321.33,486.41C320.99,485.53 321.46,483.27 322.36,481.38C323.26,479.48 324.00,477.68 324.00,477.37C324.00,477.06 321.19,477.13 317.75,477.52C314.31,477.91 309.93,479.05 308.00,480.04C306.07,481.03 302.93,483.10 301.00,484.65C299.07,486.20 295.65,489.32 293.39,491.60C291.14,493.87 287.87,498.56 286.14,502.03C284.42,505.49 283.01,509.49 283.02,510.91C283.03,513.22 283.89,512.59 290.83,505.21C296.52,499.16 299.08,497.09 300.30,497.56C301.22,497.92 304.26,497.66 307.04,496.99C309.83,496.32 312.36,496.02 312.66,496.33C312.97,496.64 312.26,498.22 311.10,499.86C309.93,501.50 305.27,505.85 300.74,509.52C296.21,513.20 283.84,524.99 273.25,535.72C262.66,546.46 254.00,555.70 254.00,556.26C254.00,556.92 256.42,557.08 260.75,556.69zM639.76,545.88C640.72,545.13 645.33,541.35 650.00,537.47C654.67,533.58 660.30,529.10 662.50,527.51C664.70,525.91 671.06,520.66 676.63,515.84C682.20,511.02 689.80,503.67 693.51,499.52C697.23,495.37 703.47,487.71 707.39,482.51C711.30,477.31 715.58,471.12 716.90,468.77C718.91,465.19 717.89,465.99 710.61,473.69C705.83,478.75 700.42,483.81 698.59,484.94C696.76,486.07 694.56,487.00 693.70,487.00C692.73,487.00 692.01,485.94 691.82,484.25C691.59,482.28 690.86,481.41 689.25,481.18C687.63,480.95 685.29,482.49 680.90,486.68C676.82,490.57 673.89,494.49 672.06,498.50C670.56,501.80 668.11,505.93 666.63,507.68C665.15,509.43 662.28,511.41 660.27,512.08C657.53,512.98 656.50,513.00 656.21,512.14C656.00,511.51 654.41,511.02 652.67,511.04C650.92,511.05 648.38,511.71 647.00,512.50C645.62,513.29 644.11,513.95 643.64,513.96C643.17,513.98 643.00,513.44 643.26,512.75C643.51,512.06 644.04,510.49 644.43,509.25C644.93,507.65 644.73,507.00 643.73,507.00C642.96,507.00 640.46,508.73 638.17,510.85C634.18,514.52 634.00,514.95 634.00,520.60C634.00,523.84 634.70,530.55 635.57,535.50C636.44,540.45 637.34,545.11 637.59,545.86C637.95,547.01 638.30,547.01 639.76,545.88zM185.69,539.00C185.31,539.00 185.00,538.57 185.00,538.03C185.00,537.50 186.37,535.51 188.03,533.61C189.70,531.71 192.63,529.24 194.53,528.11C196.44,526.99 198.00,526.32 198.00,526.62C198.00,526.93 196.77,528.89 195.27,530.98C193.77,533.07 191.15,535.73 189.46,536.89C187.76,538.05 186.07,539.00 185.69,539.00zM251.25,537.55C253.04,536.81 255.24,534.92 256.15,533.35C257.05,531.78 258.10,529.45 258.49,528.17C259.09,526.15 258.88,525.88 256.89,526.17C255.60,526.35 253.14,528.40 251.29,530.83C249.48,533.21 248.00,536.00 248.00,537.03C248.00,538.75 248.26,538.80 251.25,537.55zM242.68,526.00C243.19,526.00 245.70,524.67 248.26,523.05C250.82,521.42 254.27,518.23 255.92,515.95C257.57,513.67 261.02,508.22 263.59,503.85C268.05,496.25 268.17,495.84 266.37,494.48C265.34,493.70 263.95,493.05 263.27,493.03C262.59,493.01 258.99,495.77 255.27,499.15C251.55,502.53 247.08,505.89 245.34,506.62C243.61,507.35 241.24,509.15 240.09,510.61C238.94,512.07 238.00,513.68 238.00,514.17C238.00,514.67 239.24,514.95 240.75,514.79C242.99,514.55 243.46,514.87 243.27,516.50C243.14,517.60 242.75,520.19 242.39,522.25C242.03,524.36 242.15,526.00 242.68,526.00zM313.35,515.00C312.61,515.00 312.00,514.62 312.00,514.15C312.00,513.68 313.36,511.42 315.03,509.12C316.69,506.82 319.58,504.22 321.44,503.33C323.30,502.44 325.61,502.02 326.57,502.39C328.12,502.98 327.99,503.41 325.41,506.16C323.81,507.86 320.74,510.55 318.60,512.13C316.45,513.71 314.09,515.00 313.35,515.00zM437.75,505.95C438.44,505.98 439.00,505.52 439.00,504.93C439.00,504.35 438.57,503.06 438.04,502.07C437.51,501.09 434.92,499.36 432.29,498.24C429.66,497.12 424.86,495.67 421.64,495.01C417.74,494.21 415.45,494.15 414.79,494.81C414.12,495.48 414.57,496.24 416.14,497.10C417.44,497.80 422.55,500.07 427.50,502.14C432.45,504.21 437.06,505.93 437.75,505.95zM164.50,499.85C161.75,499.78 155.68,499.37 151.00,498.94C146.32,498.51 138.90,497.42 134.50,496.52C130.10,495.61 123.35,493.95 119.50,492.82C115.65,491.69 109.58,489.28 106.00,487.47C102.42,485.66 96.91,481.85 93.75,479.01C90.59,476.16 88.00,473.28 88.00,472.59C88.00,471.90 91.71,470.09 96.25,468.57C100.79,467.05 114.85,461.39 127.50,455.99C140.15,450.59 153.20,445.64 156.50,444.99C159.80,444.33 166.10,442.42 170.50,440.73C174.90,439.04 178.95,437.23 179.50,436.71C180.14,436.10 178.50,435.98 175.00,436.38C171.97,436.73 163.26,437.98 155.63,439.15C142.45,441.18 141.49,441.21 136.52,439.64C133.63,438.73 127.07,435.34 121.93,432.11C116.79,428.89 109.29,423.65 105.27,420.48C101.25,417.32 93.80,410.06 88.73,404.36C83.65,398.65 77.03,389.99 74.00,385.10C70.97,380.21 66.47,372.70 64.00,368.41C61.52,364.12 58.73,359.27 57.79,357.64C56.85,356.01 56.31,354.31 56.59,353.85C56.88,353.39 58.77,353.88 60.80,354.94C62.84,356.00 67.20,358.92 70.50,361.44C73.80,363.95 80.10,367.40 84.50,369.10C88.90,370.80 93.11,372.69 93.85,373.30C94.59,373.91 98.86,376.56 103.34,379.20C107.83,381.84 111.81,384.00 112.19,384.00C112.57,384.00 113.16,383.55 113.50,383.00C113.84,382.45 115.22,382.00 116.57,382.00C117.92,382.00 123.28,383.63 128.48,385.62C133.68,387.61 138.62,388.98 139.45,388.66C140.29,388.34 140.71,387.41 140.40,386.60C140.09,385.79 137.51,383.59 134.67,381.70C131.83,379.81 124.80,375.64 119.06,372.42C108.63,366.58 108.61,366.57 99.06,366.22C91.01,365.93 88.55,365.42 83.50,362.99C80.20,361.40 76.60,359.40 75.50,358.55C73.66,357.11 74.12,357.03 81.50,357.57C85.90,357.90 93.10,358.61 97.50,359.16C101.90,359.70 109.78,360.49 115.00,360.90C120.51,361.33 125.82,362.34 127.64,363.29C129.37,364.20 132.12,366.28 133.76,367.91C135.39,369.54 139.93,375.37 143.86,380.87C147.78,386.36 152.26,391.76 153.81,392.86C155.36,393.97 159.98,396.19 164.07,397.80C168.15,399.41 173.97,401.52 177.00,402.50C180.03,403.48 184.62,405.34 187.22,406.64C189.81,407.94 192.85,409.00 193.97,409.00C195.09,409.00 196.00,408.60 196.00,408.11C196.00,407.63 193.29,402.12 189.98,395.88C186.67,389.64 182.13,382.67 179.89,380.39C177.65,378.11 174.81,375.70 173.57,375.04C171.65,374.01 170.78,374.21 167.52,376.42C165.43,377.84 163.37,379.00 162.95,379.00C162.52,379.00 160.33,376.91 158.08,374.36C155.84,371.81 154.00,369.33 154.00,368.86C154.00,368.39 155.10,368.00 156.43,368.00C157.77,368.00 162.08,368.67 165.99,369.50C169.91,370.32 177.03,371.29 181.81,371.64C186.59,371.99 191.65,372.86 193.06,373.57C194.47,374.28 199.44,379.05 204.10,384.18C208.77,389.30 214.68,396.47 217.23,400.09C219.79,403.72 223.52,408.13 225.53,409.89C227.54,411.66 229.71,412.92 230.34,412.70C231.03,412.46 231.43,410.39 231.34,407.64C231.25,405.09 231.47,403.00 231.84,403.01C232.20,403.02 234.43,404.55 236.78,406.42C240.03,409.01 243.37,410.39 250.64,412.14C260.22,414.45 260.22,414.45 261.97,412.28C263.72,410.12 263.72,410.12 266.69,413.31C268.33,415.06 271.32,418.57 273.33,421.10C275.35,423.63 277.00,426.43 277.00,427.32C277.00,428.20 276.09,429.41 274.99,430.01C273.88,430.60 271.29,430.82 269.24,430.49C267.18,430.15 264.59,429.70 263.48,429.48C262.37,429.26 260.39,428.08 259.08,426.86C257.77,425.64 255.68,424.53 254.44,424.40C252.40,424.18 252.26,424.43 253.02,427.08C253.48,428.69 253.55,430.05 253.18,430.11C252.81,430.16 251.15,430.12 249.50,430.01C247.85,429.91 241.78,428.71 236.02,427.35C230.25,426.00 219.90,424.02 213.02,422.95C206.13,421.89 198.59,421.02 196.25,421.01C193.91,421.00 192.00,421.39 192.00,421.86C192.00,422.33 195.04,423.66 198.75,424.81C202.46,425.96 208.43,427.40 212.00,428.02C215.57,428.63 223.90,430.43 230.50,432.01C237.10,433.60 253.53,438.54 267.00,443.01C281.43,447.79 292.41,451.98 293.72,453.21C294.94,454.35 295.74,455.61 295.49,456.01C295.25,456.41 293.13,457.00 290.77,457.32C287.17,457.82 285.25,457.32 278.50,454.08C274.10,451.97 267.35,448.96 263.50,447.40C257.04,444.77 255.30,444.52 240.88,444.19C225.47,443.83 225.23,443.86 222.84,446.25C221.30,447.79 217.37,449.49 211.96,450.95C207.31,452.20 201.82,453.90 199.76,454.72C197.70,455.54 196.24,456.58 196.52,457.04C196.80,457.49 194.78,459.08 192.03,460.58C189.28,462.08 186.32,464.39 185.44,465.73C183.97,467.98 183.98,468.26 185.60,469.45C187.23,470.64 187.18,470.83 184.92,472.24C183.59,473.07 181.60,474.25 180.50,474.85C178.58,475.90 178.59,475.94 180.84,475.97C182.13,475.99 187.64,474.62 193.08,472.93C198.51,471.24 203.96,470.00 205.17,470.18C207.04,470.45 205.75,472.08 196.66,480.95C190.77,486.69 183.85,492.88 181.29,494.70C178.73,496.52 175.03,498.45 173.07,499.00C171.11,499.54 167.25,499.93 164.50,499.85zM381.00,492.31C382.38,491.99 384.29,491.05 385.25,490.21C386.21,489.37 387.00,487.95 387.00,487.05C387.00,486.14 386.46,484.86 385.80,484.20C385.14,483.54 383.37,483.00 381.87,483.00C380.12,483.00 378.41,483.94 377.07,485.63C375.93,487.08 375.00,488.86 375.00,489.59C375.00,490.31 375.79,491.35 376.75,491.89C377.71,492.44 379.62,492.63 381.00,492.31zM158.25,490.51C160.59,490.15 163.29,489.63 164.25,489.36C165.21,489.09 166.00,488.21 166.00,487.40C166.00,486.60 165.28,485.66 164.39,485.32C163.51,484.98 160.81,485.67 158.39,486.84C155.98,488.01 154.00,489.47 154.00,490.07C154.00,490.81 155.42,490.95 158.25,490.51zM472.85,479.44C473.04,479.27 471.78,477.37 470.05,475.21C468.32,473.05 463.05,467.96 458.35,463.89C453.29,459.52 448.61,454.46 446.91,451.50C445.32,448.75 444.01,445.94 444.01,445.25C444.00,444.39 445.85,444.00 449.94,444.00C453.21,444.00 456.15,443.56 456.48,443.03C456.81,442.50 456.41,440.81 455.58,439.28C454.76,437.75 451.71,434.02 448.79,431.00C445.88,427.98 440.57,422.86 437.00,419.62C433.43,416.39 428.31,412.63 425.64,411.27C421.34,409.07 419.12,408.72 406.39,408.24C398.48,407.95 392.00,407.99 392.00,408.34C392.00,408.69 395.12,410.54 398.93,412.46C402.73,414.38 406.14,416.41 406.48,416.98C406.88,417.61 405.63,418.00 403.21,418.00C400.61,418.00 398.72,418.65 397.54,419.95C396.27,421.36 394.19,421.99 390.14,422.20C385.06,422.47 384.47,422.74 384.16,424.89C383.98,426.21 384.77,428.55 385.94,430.14C387.11,431.71 387.82,433.00 387.52,433.00C387.23,433.00 385.11,431.65 382.83,429.99C380.55,428.34 378.41,427.26 378.09,427.59C377.77,427.93 379.52,429.99 382.00,432.18C384.48,434.36 390.25,439.38 394.84,443.33C399.42,447.27 405.20,451.96 407.67,453.73C410.15,455.51 413.98,457.46 416.19,458.05C418.40,458.65 420.45,458.88 420.75,458.58C421.06,458.27 418.06,454.43 414.09,450.03C410.11,445.63 407.15,441.57 407.49,441.01C407.84,440.46 409.01,440.00 410.11,440.00C411.20,440.00 413.45,440.70 415.10,441.55C416.76,442.41 419.00,442.82 420.13,442.46C421.71,441.96 423.49,443.20 428.33,448.17C431.72,451.67 436.81,457.24 439.63,460.56C443.06,464.59 446.87,467.72 451.13,469.99C454.63,471.86 460.88,474.82 465.00,476.57C469.12,478.32 472.66,479.62 472.85,479.44zM254.51,475.47C246.51,479.11 246.51,479.11 250.76,475.48C253.09,473.48 255.00,471.18 255.00,470.37C255.00,469.56 253.65,468.43 252.00,467.85C250.35,467.27 249.00,466.40 249.00,465.90C249.00,465.41 246.19,465.00 242.75,465.00C236.50,464.99 236.50,464.99 239.50,462.52C241.15,461.16 244.86,459.15 247.75,458.04C250.63,456.94 255.06,455.51 257.60,454.87C261.69,453.84 263.29,454.02 272.10,456.48C277.54,458.00 282.00,459.59 282.00,460.02C282.00,460.44 277.61,463.27 272.25,466.31C266.89,469.34 258.90,473.46 254.51,475.47zM115.00,476.97C115.83,476.99 119.26,475.69 122.63,474.10C126.00,472.50 129.08,470.68 129.47,470.04C129.87,469.41 129.91,467.79 129.58,466.44C129.20,464.95 128.24,464.00 127.10,464.00C126.08,464.00 120.80,465.36 115.37,467.01C109.94,468.67 104.26,470.52 102.75,471.13C101.24,471.74 100.00,472.60 100.00,473.03C100.00,473.46 102.36,474.13 105.25,474.52C108.14,474.91 111.17,475.61 112.00,476.08C112.83,476.55 114.17,476.95 115.00,476.97zM612.45,449.00C613.13,449.00 614.36,448.21 615.18,447.25C615.99,446.29 617.45,443.37 618.40,440.78C619.36,438.18 622.62,432.67 625.64,428.53C628.66,424.40 632.05,418.29 633.17,414.95C634.30,411.62 634.95,408.62 634.63,408.29C634.30,407.96 631.51,409.37 628.42,411.42C625.34,413.47 622.63,414.96 622.40,414.73C622.17,414.51 623.16,412.11 624.59,409.41C626.02,406.71 628.67,402.70 630.47,400.50C632.27,398.30 638.53,391.48 644.38,385.35C650.58,378.83 656.25,371.82 658.00,368.50C659.65,365.37 660.75,362.40 660.44,361.90C660.13,361.41 659.56,361.00 659.16,361.00C658.77,361.00 656.05,362.80 653.12,365.00C650.19,367.20 647.39,369.00 646.90,369.00C646.40,369.00 646.00,368.10 646.00,367.00C646.00,365.90 645.66,365.01 645.25,365.02C644.84,365.03 642.48,366.41 640.00,368.09C636.55,370.43 635.43,370.80 635.20,369.68C635.03,368.88 636.04,365.39 637.45,361.94C638.85,358.48 640.00,355.06 640.00,354.33C640.00,353.60 639.66,353.00 639.25,353.00C638.84,353.00 635.85,354.80 632.62,357.00C629.38,359.20 626.12,361.00 625.37,361.00C624.61,361.00 624.00,360.63 624.00,360.18C624.00,359.73 624.71,356.99 625.57,354.08C626.43,351.18 626.96,348.63 626.75,348.42C626.54,348.20 623.85,350.27 620.77,353.02C617.70,355.76 614.96,358.00 614.69,358.00C614.41,358.00 615.05,355.75 616.10,352.99C617.14,350.23 618.00,346.72 618.00,345.19C618.00,343.66 617.48,341.88 616.85,341.25C616.02,340.42 615.13,340.39 613.74,341.14C612.35,341.88 611.46,341.86 610.64,341.04C609.96,340.36 609.36,335.11 609.14,327.95C608.91,320.16 608.41,316.00 607.69,316.00C607.09,316.00 605.12,317.43 603.32,319.17C600.19,322.21 599.96,322.27 598.14,320.63C596.83,319.44 595.42,319.11 593.62,319.56C591.61,320.06 591.00,319.84 591.00,318.62C591.00,317.74 591.86,314.77 592.90,312.01C593.95,309.25 594.39,307.00 593.88,307.00C593.38,307.00 591.11,308.17 588.84,309.60C584.72,312.20 584.72,312.20 585.36,321.35C585.72,326.38 586.72,334.32 587.59,339.00C588.46,343.68 590.03,351.96 591.09,357.40C592.14,362.85 593.47,367.86 594.03,368.54C594.60,369.22 596.19,369.99 597.57,370.26C598.96,370.52 601.68,369.93 603.63,368.94C606.19,367.63 607.02,367.50 606.65,368.47C606.37,369.21 606.93,370.53 607.90,371.41C608.86,372.28 610.18,373.00 610.83,373.00C611.47,373.00 612.00,373.49 612.00,374.09C612.00,374.68 609.30,377.98 606.00,381.42C600.74,386.90 600.00,388.15 600.01,391.58C600.02,393.74 601.11,402.97 602.45,412.10C603.78,421.24 605.60,431.54 606.50,434.99C607.39,438.45 608.82,443.01 609.67,445.14C610.52,447.26 611.77,449.00 612.45,449.00zM484.68,445.00C484.81,445.00 483.51,442.64 481.80,439.75C480.08,436.86 477.06,432.04 475.09,429.04C473.12,426.04 469.15,421.09 466.29,418.04C461.98,413.46 461.07,412.87 461.04,414.64C461.02,415.82 463.51,420.32 466.59,424.64C469.66,428.97 474.94,435.31 478.31,438.75C481.68,442.19 484.55,445.00 484.68,445.00zM127.23,425.49C130.38,425.24 134.66,424.24 136.73,423.26C139.12,422.14 140.61,420.70 140.81,419.31C141.02,417.88 140.36,416.73 138.89,415.94C137.44,415.17 134.54,414.97 130.58,415.38C127.24,415.73 120.57,416.52 115.77,417.14C110.97,417.75 107.29,418.66 107.59,419.14C107.89,419.63 110.02,420.99 112.32,422.17C114.62,423.34 117.62,424.67 119.00,425.12C120.38,425.58 124.08,425.74 127.23,425.49zM112.50,408.98C115.80,408.98 120.91,408.34 123.85,407.55C126.80,406.77 129.50,405.83 129.85,405.48C130.21,405.12 129.49,404.00 128.24,403.00C127.00,401.99 122.95,400.04 119.24,398.65C115.54,397.26 110.03,395.41 107.00,394.54C102.53,393.26 100.51,393.17 96.19,394.06C93.24,394.68 90.62,395.83 90.30,396.65C89.96,397.56 91.05,399.30 93.12,401.12C94.98,402.76 98.75,405.20 101.50,406.54C105.11,408.30 108.17,408.98 112.50,408.98zM416.25,398.86C419.41,398.94 422.00,398.61 422.00,398.12C422.00,397.64 418.51,394.18 414.25,390.43C409.99,386.69 401.29,378.55 394.93,372.34C388.57,366.13 381.82,360.41 379.93,359.63C378.04,358.85 373.91,357.69 370.75,357.04C367.59,356.39 365.00,355.47 365.00,354.99C365.00,354.51 366.65,353.98 368.67,353.81C370.69,353.64 372.51,352.99 372.72,352.37C372.92,351.75 371.61,349.76 369.80,347.96C368.00,346.15 364.66,343.85 362.39,342.85C359.58,341.61 353.80,340.70 344.38,340.02C336.74,339.47 328.36,339.30 325.75,339.64C322.81,340.02 321.00,340.76 321.00,341.57C321.00,342.30 322.37,343.70 324.04,344.68C326.35,346.05 327.02,347.09 326.79,348.99C326.54,351.13 325.84,351.60 322.00,352.18C319.52,352.55 315.02,352.89 312.00,352.94C308.98,352.99 305.92,353.40 305.20,353.85C304.14,354.53 304.14,354.87 305.20,355.72C305.92,356.30 309.80,357.95 313.83,359.39C317.86,360.83 322.03,362.48 323.09,363.05C324.16,363.62 330.57,365.15 337.35,366.45C344.13,367.75 352.28,369.87 355.46,371.16C358.63,372.45 361.30,373.95 361.37,374.49C361.44,375.03 360.15,375.77 358.50,376.12C356.85,376.47 351.90,376.82 347.50,376.90C343.10,376.97 338.85,377.44 338.06,377.94C336.94,378.65 337.42,379.32 340.31,381.02C342.34,382.22 344.00,383.57 344.00,384.03C344.00,384.49 343.21,385.08 342.25,385.34C341.29,385.60 339.16,386.12 337.51,386.49C335.28,386.99 334.90,387.36 336.01,387.96C336.83,388.40 341.77,389.71 347.00,390.87C352.23,392.02 362.80,393.87 370.50,394.97C378.20,396.06 390.35,397.36 397.50,397.84C404.65,398.32 413.09,398.78 416.25,398.86zM446.85,392.83C446.50,395.16 446.50,395.16 443.80,392.33C442.32,390.77 439.51,386.43 437.55,382.68C434.65,377.10 434.00,374.77 434.00,369.93C434.00,366.67 434.27,364.00 434.61,364.00C434.94,364.00 436.13,365.16 437.24,366.58C438.81,368.58 439.47,368.86 440.12,367.83C440.59,367.10 440.98,364.84 440.98,362.81C440.99,360.78 441.43,358.85 441.96,358.53C442.48,358.20 443.71,359.16 444.69,360.65C446.12,362.83 446.54,366.05 446.84,376.93C447.04,384.39 447.05,391.55 446.85,392.83zM83.31,375.94C84.30,375.97 84.84,375.54 84.49,374.99C84.15,374.43 81.98,372.97 79.68,371.75C77.38,370.52 74.65,369.17 73.61,368.74C71.95,368.05 71.89,368.16 73.09,369.61C73.85,370.52 76.05,372.30 77.98,373.57C79.92,374.84 82.31,375.91 83.31,375.94zM292.75,375.91C293.44,375.96 294.00,375.61 294.00,375.12C294.00,374.64 291.78,373.29 289.06,372.12C286.35,370.96 282.64,370.03 280.81,370.07C278.99,370.11 276.60,370.51 275.50,370.96C273.71,371.70 273.67,371.86 275.20,372.48C276.13,372.86 280.18,373.77 284.20,374.50C288.21,375.22 292.06,375.86 292.75,375.91zM250.66,368.96C253.18,368.99 257.41,367.83 261.41,366.04C265.03,364.41 268.00,362.63 268.00,362.08C268.00,361.52 267.21,360.65 266.25,360.14C265.29,359.63 259.32,357.74 253.00,355.94C241.50,352.67 241.50,352.67 228.00,353.85C220.57,354.50 213.66,355.03 212.64,355.02C211.17,355.00 210.91,354.49 211.40,352.56C211.73,351.22 211.65,349.90 211.21,349.63C210.77,349.36 204.69,348.21 197.69,347.07C190.68,345.93 183.17,345.00 180.98,345.00C178.79,345.00 177.00,345.37 177.00,345.83C177.00,346.29 179.81,348.15 183.25,349.96C186.69,351.78 190.76,353.92 192.30,354.73C193.84,355.54 198.79,356.43 203.30,356.72C207.81,357.00 216.22,358.50 222.00,360.05C227.78,361.60 235.65,364.23 239.50,365.90C243.46,367.61 248.30,368.94 250.66,368.96zM242.25,329.95C241.29,329.92 237.27,327.98 233.33,325.63C229.38,323.28 224.50,320.09 222.48,318.55C220.11,316.74 217.82,313.55 216.03,309.56C214.50,306.15 212.48,300.70 211.54,297.43C210.61,294.17 208.75,289.53 207.42,287.12C206.09,284.72 205.00,282.58 205.00,282.37C205.00,282.17 205.70,282.00 206.55,282.00C207.40,282.00 209.38,282.66 210.95,283.47C212.52,284.29 216.18,288.22 219.08,292.22C221.98,296.23 225.06,300.05 225.93,300.72C226.79,301.39 227.83,301.95 228.23,301.97C228.62,301.99 228.50,300.81 227.95,299.36C227.40,297.91 227.13,296.53 227.37,296.30C227.60,296.07 231.44,302.62 235.89,310.86C240.35,319.11 244.00,326.78 244.00,327.92C244.00,329.25 243.37,329.98 242.25,329.95zM189.81,301.43C189.56,302.51 189.01,302.47 187.00,301.20C185.62,300.33 183.43,298.69 182.12,297.56C180.81,296.43 177.82,292.54 175.49,288.93C173.15,285.32 168.94,277.85 166.12,272.33C163.30,266.82 161.00,262.01 161.00,261.65C161.00,261.29 161.58,261.00 162.28,261.00C162.98,261.00 166.54,263.84 170.18,267.30C174.42,271.34 177.84,275.74 179.72,279.55C181.32,282.82 184.32,288.78 186.38,292.80C188.44,296.81 189.99,300.70 189.81,301.43zM343.76,287.00C344.02,287.00 343.43,285.76 342.46,284.25C341.49,282.74 337.89,277.90 334.46,273.50C331.02,269.10 326.82,264.18 325.11,262.56C322.96,260.54 322.00,260.09 322.00,261.14C322.00,261.97 323.54,264.81 325.41,267.45C327.29,270.09 332.08,275.56 336.05,279.62C340.03,283.68 343.50,287.00 343.76,287.00zM155.80,282.53C155.58,282.76 153.02,280.86 150.12,278.32C146.24,274.93 143.79,271.56 140.88,265.60C138.02,259.76 134.84,255.34 129.46,249.75C125.36,245.49 122.26,242.00 122.57,242.00C122.89,242.00 125.25,243.20 127.82,244.66C130.39,246.12 134.92,249.60 137.87,252.41C140.83,255.21 145.40,260.77 148.05,264.76C150.69,268.75 153.60,274.30 154.53,277.08C155.45,279.86 156.02,282.31 155.80,282.53zM113.67,251.00C113.49,251.00 111.24,249.60 108.66,247.90C106.09,246.19 102.63,243.16 100.97,241.15C99.32,239.15 98.42,237.36 98.96,237.18C99.50,237.00 100.97,237.57 102.22,238.44C103.48,239.32 106.64,242.11 109.25,244.64C111.86,247.18 114.00,249.65 114.00,250.13C114.00,250.61 113.85,251.00 113.67,251.00zM70.78,227.55C71.00,227.33 70.92,226.33 70.60,225.33C70.28,224.32 68.10,221.52 65.76,219.10C63.42,216.67 59.25,213.64 56.50,212.36C53.75,211.07 50.94,210.02 50.25,210.01C49.56,210.00 49.00,210.70 49.00,211.55C49.00,212.40 50.24,214.25 51.75,215.66C53.26,217.07 56.30,219.46 58.50,220.98C60.70,222.50 64.27,224.69 66.44,225.85C68.61,227.00 70.56,227.77 70.78,227.55zM262.72,215.62C263.01,215.32 262.32,213.52 261.19,211.60C260.06,209.68 253.51,201.68 246.65,193.81C239.78,185.94 219.74,164.99 202.11,147.25C184.49,129.51 169.55,115.00 168.92,115.00C168.28,115.00 169.04,116.69 170.60,118.75C172.17,120.81 175.85,125.65 178.80,129.50C181.74,133.35 192.71,145.78 203.16,157.13C213.62,168.47 231.18,186.39 242.18,196.95C253.19,207.51 262.43,215.91 262.72,215.62zM208.00,204.77C211.57,204.81 218.52,204.32 223.42,203.67C228.49,203.01 232.51,201.99 232.74,201.31C232.96,200.62 229.38,198.32 224.31,195.90C219.47,193.58 216.06,191.49 216.75,191.26C217.44,191.02 218.00,190.21 218.00,189.44C218.00,188.67 216.92,187.34 215.59,186.47C214.27,185.60 208.08,183.31 201.84,181.39C195.60,179.46 188.36,177.62 185.75,177.30C183.14,176.98 181.00,177.00 181.00,177.35C181.00,177.69 184.12,179.54 187.93,181.46C191.73,183.38 195.14,185.41 195.48,185.98C195.90,186.64 193.55,187.00 188.81,186.99C184.79,186.99 174.75,185.89 166.50,184.54C158.25,183.20 149.03,181.83 146.00,181.51C141.31,181.02 140.78,181.12 142.41,182.22C143.47,182.92 147.29,185.50 150.91,187.94C154.54,190.38 160.52,193.62 164.21,195.13C167.90,196.65 176.45,199.23 183.21,200.87C189.97,202.51 196.85,204.05 198.50,204.28C200.15,204.51 204.43,204.73 208.00,204.77zM498.28,186.74C498.90,186.53 499.94,183.47 500.59,179.93C501.25,176.39 502.11,169.56 502.51,164.75C502.98,159.12 502.88,156.00 502.24,156.00C501.69,156.00 500.68,156.68 500.00,157.50C499.32,158.32 498.38,159.00 497.92,159.00C497.45,159.00 496.59,157.20 496.00,155.00C495.41,152.80 494.56,151.00 494.12,151.00C493.67,151.00 492.62,151.79 491.79,152.75C490.95,153.71 489.08,157.50 487.63,161.17C486.04,165.20 485.00,169.80 485.00,172.80C485.00,175.56 485.55,178.20 486.25,178.75C486.96,179.32 488.36,179.41 489.50,178.95C490.60,178.50 491.86,178.11 492.31,178.07C492.75,178.03 494.02,180.05 495.13,182.56C496.24,185.07 497.65,186.95 498.28,186.74zM160.14,167.94C161.71,167.98 163.04,167.33 163.41,166.37C163.97,164.92 165.47,164.81 176.29,165.43C184.28,165.88 189.52,165.75 191.36,165.05C192.92,164.46 195.95,163.91 198.09,163.83C200.24,163.74 201.99,163.18 201.98,162.59C201.98,161.99 201.59,160.90 201.12,160.16C200.65,159.42 194.73,157.72 187.88,156.36C181.07,155.01 168.80,153.01 160.62,151.92C152.44,150.82 145.49,150.17 145.19,150.47C144.89,150.77 145.96,152.39 147.57,154.07C150.49,157.12 150.49,157.12 148.10,158.92C146.61,160.05 146.00,161.20 146.49,161.98C146.91,162.66 149.56,164.28 152.38,165.56C155.20,166.84 158.69,167.91 160.14,167.94zM293.19,167.00C292.64,167.00 291.06,165.07 289.68,162.71C288.30,160.35 286.65,155.52 286.03,151.96C285.41,148.41 284.66,144.71 284.38,143.75C284.10,142.79 283.21,142.00 282.40,142.00C281.60,142.00 280.68,142.67 280.36,143.49C280.05,144.32 279.39,144.74 278.90,144.44C278.40,144.13 278.00,138.09 278.00,131.01C278.00,123.92 278.49,116.86 279.09,115.32C280.18,112.50 280.18,112.50 284.11,117.00C286.28,119.47 289.28,123.97 290.78,127.00C293.37,132.23 293.52,133.34 293.85,149.75C294.07,160.86 293.84,167.00 293.19,167.00zM478.96,152.00C479.40,152.00 480.04,150.99 480.37,149.75C480.70,148.51 480.98,143.81 480.99,139.31C480.99,134.80 480.62,130.88 480.15,130.59C479.68,130.30 478.79,131.16 478.19,132.49C477.58,133.83 476.79,137.14 476.43,139.85C476.03,142.80 476.25,146.23 476.96,148.39C477.62,150.38 478.52,152.00 478.96,152.00zM427.00,123.66C426.18,123.78 422.82,121.99 419.54,119.69C416.26,117.38 409.68,111.63 404.92,106.90C398.34,100.36 395.36,96.49 392.55,90.79C390.23,86.11 388.96,82.24 389.17,80.49C389.50,77.69 389.50,77.69 392.65,80.35C394.39,81.82 397.89,87.05 400.44,91.99C402.99,96.93 405.91,101.42 406.93,101.97C408.30,102.69 409.12,102.56 410.03,101.47C411.01,100.28 411.01,98.70 409.99,93.74C409.29,90.31 408.13,86.04 407.41,84.25C406.69,82.46 405.66,81.00 405.11,81.00C404.54,81.00 404.37,82.51 404.72,84.63C405.16,87.34 404.98,88.16 404.02,87.84C403.31,87.60 401.87,85.18 400.82,82.45C399.77,79.73 397.38,74.35 395.52,70.50C393.65,66.65 391.83,62.28 391.46,60.79C391.10,59.30 390.16,57.55 389.38,56.90C388.59,56.25 387.72,55.94 387.45,56.22C387.17,56.50 386.58,58.70 386.14,61.11C385.34,65.50 385.34,65.50 383.62,60.00C382.68,56.98 381.26,47.98 380.47,40.00C379.69,32.02 379.03,19.76 379.02,12.75C379.00,0.00 379.00,0.00 381.87,-0.00C384.55,-0.00 384.93,0.52 387.47,7.69C388.97,11.91 390.88,16.41 391.71,17.69C392.55,18.96 393.86,20.00 394.64,20.00C395.42,20.00 396.49,18.85 397.02,17.43C397.56,16.02 398.00,11.52 398.00,7.43C398.00,0.00 398.00,0.00 402.49,0.00C406.97,0.00 406.97,0.00 410.04,6.08C411.73,9.43 414.40,16.11 415.98,20.94C417.56,25.76 419.99,35.28 421.40,42.10C422.80,48.92 424.40,59.90 424.96,66.50C425.52,73.10 426.50,86.83 427.14,97.00C427.78,107.17 428.35,117.29 428.40,119.48C428.47,122.31 428.07,123.52 427.00,123.66zM155.83,84.00C156.06,84.00 155.82,83.44 155.30,82.75C154.79,82.06 147.80,73.17 139.78,63.00C131.76,52.83 123.04,42.70 120.41,40.50C117.77,38.30 114.69,35.84 113.56,35.03C111.50,33.55 111.50,33.55 113.42,36.53C114.47,38.16 117.95,42.94 121.14,47.16C124.33,51.37 131.95,60.14 138.06,66.66C144.17,73.17 150.58,79.74 152.30,81.25C154.02,82.76 155.61,84.00 155.83,84.00zM182.82,81.00C183.08,81.00 183.01,77.60 182.66,73.45C182.30,69.30 181.55,65.02 180.97,63.95C180.40,62.88 179.06,62.00 178.00,62.00C176.60,62.00 175.78,60.91 175.00,58.00C174.25,55.21 173.38,54.00 172.12,54.00C171.13,54.00 169.81,52.88 169.18,51.50C168.56,50.12 167.64,49.00 167.14,49.00C166.65,49.00 165.63,49.75 164.87,50.66C163.91,51.82 163.55,54.93 163.66,61.12C163.75,65.96 164.34,71.51 164.99,73.46C165.77,75.84 166.77,77.00 168.03,77.00C169.06,77.00 171.10,77.54 172.56,78.21C174.81,79.23 175.41,79.16 176.45,77.73C177.59,76.18 177.88,76.24 180.02,78.52C181.30,79.88 182.56,81.00 182.82,81.00zM310.20,80.00C310.64,80.00 311.00,78.84 311.00,77.42C311.00,76.00 310.11,71.35 309.03,67.10C307.94,62.85 306.29,57.60 305.35,55.43C303.65,51.50 303.65,51.50 302.84,56.00C302.39,58.47 301.57,60.64 301.01,60.83C300.45,61.02 300.00,62.19 300.00,63.43C300.00,64.68 300.51,67.23 301.13,69.10C301.76,70.97 303.87,74.19 305.84,76.25C307.80,78.31 309.76,80.00 310.20,80.00zM94.37,30.90C94.85,30.49 94.26,28.77 93.05,27.08C91.85,25.38 90.05,23.56 89.06,23.03C88.07,22.50 86.98,22.35 86.63,22.70C86.28,23.05 86.00,24.31 86.00,25.51C86.00,26.71 86.79,28.39 87.75,29.24C88.71,30.10 90.40,30.99 91.50,31.22C92.60,31.46 93.89,31.32 94.37,30.90z" />

</svg>