<?xml version="1.0" encoding="UTF-8" standalone="no"?>
<svg 
  version="1.1" 
  xmlns="http://www.w3.org/2000/svg" 
  xmlns:xlink="http://www.w3.org/1999/xlink" 
  xmlns:svg="http://www.w3.org/2000/svg"
  xmlns:rdf="http://www.w3.org/1999/02/22-rdf-syntax-ns#"
  xmlns:cc="http://creativecommons.org/ns#"
  xmlns:dc="http://purl.org/dc/elements/1.1/"
  viewBox="0 0 768 768"
  width="768"
  height="768"
>
<style>svg {background-color: white; }</style>"
<metadata id="metadata1">
Created by https://svgstud.io and licensed under CC-BY-SA 4.0 license. Please attribute https://svgstud.io
</metadata>
<metadata id="prompt">
palm frond
</metadata>
<metadata id="version">
7
</metadata>
<metadata id="metadata2">
<rdf:RDF>
<cc:Work
    rdf:about="">
    <cc:license
    rdf:resource="http://creativecommons.org/licenses/by-sa/4.0/" />
    <dc:creator>
        <cc:Agent>
            <dc:title>https://svgstud.io</dc:title>
        </cc:Agent>
    </dc:creator>
</cc:Work>
<cc:License
    rdf:about="http://creativecommons.org/licenses/by-sa/4.0/">
    <cc:permits
    rdf:resource="http://creativecommons.org/ns#Reproduction" />
    <cc:permits
    rdf:resource="http://creativecommons.org/ns#Distribution" />
    <cc:requires
    rdf:resource="http://creativecommons.org/ns#Notice" />
    <cc:requires
    rdf:resource="http://creativecommons.org/ns#Attribution" />
    <cc:permits
    rdf:resource="http://creativecommons.org/ns#DerivativeWorks" />
    <cc:requires
    rdf:resource="http://creativecommons.org/ns#ShareAlike" />
</cc:License>
</rdf:RDF>
</metadata>
<metadata id="uid">
88d917f0a44893a1d4aa216ab728d41bb2fd748636d40c9799f0d9c5f708ace5
</metadata>
<path stroke="none" fill="black" fill-rule="evenodd" d="M270.74,768.00C262.29,768.00 262.29,768.00 261.60,760.25C261.22,755.99 260.51,740.54 260.02,725.92C259.52,711.29 258.67,693.74 258.11,686.92C257.56,680.09 256.75,646.83 256.33,613.00C255.90,579.17 255.54,542.95 255.52,532.50C255.51,522.05 255.67,510.80 255.88,507.50C256.08,504.20 255.74,499.25 255.11,496.50C254.45,493.62 254.24,489.03 254.62,485.69C255.00,482.28 255.64,480.24 256.16,480.76C256.65,481.25 257.65,484.55 258.37,488.08C259.52,493.69 259.80,494.18 260.55,492.00C261.03,490.62 261.34,484.95 261.24,479.40C261.14,473.84 260.59,468.05 260.01,466.53C259.16,464.30 258.48,463.87 256.46,464.25C255.08,464.52 253.71,464.34 253.42,463.87C253.13,463.40 253.37,454.80 253.95,444.76C254.54,434.72 255.53,422.56 256.15,417.75C256.77,412.94 257.62,409.00 258.03,409.00C258.43,409.00 259.05,410.01 259.40,411.25C260.00,413.39 260.10,413.41 261.43,411.68C262.19,410.68 263.28,407.08 263.86,403.68C264.43,400.28 265.19,391.65 265.56,384.50C265.92,377.35 267.07,365.20 268.10,357.50C269.14,349.80 270.42,340.57 270.95,337.00C271.49,333.43 272.38,320.82 272.93,309.00C273.52,296.67 274.56,285.25 275.39,282.23C276.18,279.33 278.17,274.11 279.80,270.61C281.44,267.12 285.50,260.21 288.83,255.25C292.16,250.30 298.43,241.80 302.77,236.37C307.10,230.94 313.43,223.94 316.83,220.80C320.22,217.67 328.29,211.06 334.75,206.13C341.21,201.19 352.57,191.84 360.00,185.35C367.43,178.86 382.50,164.74 393.50,153.97C404.50,143.20 422.27,126.75 433.00,117.40C443.73,108.06 458.80,95.27 466.50,88.97C474.20,82.68 484.55,73.71 489.50,69.03C494.45,64.36 503.68,55.57 510.00,49.51C516.33,43.44 527.10,33.79 533.94,28.06C540.79,22.33 552.13,13.66 559.14,8.79C571.89,-0.06 571.89,-0.06 583.83,0.22C595.76,0.50 595.76,0.50 585.35,14.39C579.62,22.03 573.30,31.26 571.30,34.89C569.30,38.53 564.66,46.00 560.99,51.50C557.32,57.00 552.25,65.14 549.73,69.58C547.21,74.03 541.34,83.51 536.69,90.65C531.44,98.71 525.63,106.17 521.38,110.29C517.62,113.94 511.89,118.41 508.66,120.22C505.43,122.02 499.16,125.87 494.71,128.77C490.27,131.67 486.23,133.91 485.74,133.75C485.24,133.58 487.36,130.38 490.43,126.62C493.51,122.87 500.57,114.92 506.13,108.96C511.69,102.99 516.94,97.07 517.81,95.81C518.68,94.54 517.08,95.53 514.26,98.00C511.44,100.47 504.49,106.54 498.81,111.48C493.14,116.42 479.11,129.69 467.63,140.98C456.15,152.26 441.79,167.49 435.73,174.82C429.66,182.14 422.67,189.68 420.19,191.58C417.71,193.47 415.45,194.79 415.17,194.50C414.88,194.22 417.75,189.37 421.54,183.74C426.33,176.63 433.96,167.79 446.47,154.86C456.39,144.60 473.42,126.96 484.32,115.65C495.21,104.34 507.66,90.81 511.98,85.59C516.29,80.37 520.17,75.51 520.60,74.80C521.20,73.80 521.05,73.76 519.94,74.60C519.15,75.20 516.10,77.56 513.16,79.85C510.22,82.13 507.46,84.00 507.03,84.00C506.59,84.00 505.99,83.05 505.68,81.89C505.38,80.74 504.65,79.95 504.05,80.15C503.46,80.35 499.06,83.88 494.28,88.01C489.51,92.13 479.89,100.81 472.91,107.30C465.94,113.79 458.02,120.76 455.31,122.80C452.61,124.83 448.18,128.30 445.46,130.50C442.74,132.70 433.54,141.25 425.01,149.51C416.48,157.76 402.52,170.99 394.00,178.91C385.48,186.84 371.41,200.78 362.74,209.91C354.07,219.03 343.90,229.43 340.13,233.00C336.36,236.57 329.72,243.56 325.39,248.52C321.05,253.48 314.78,260.68 311.45,264.52C308.12,268.36 302.85,274.65 299.75,278.50C296.65,282.35 292.60,287.19 290.76,289.26C288.91,291.32 285.91,295.92 284.09,299.47C281.73,304.07 280.63,307.78 280.26,312.33C279.93,316.42 280.14,318.97 280.84,319.40C281.45,319.78 283.28,319.39 284.92,318.54C286.56,317.69 288.15,317.00 288.45,317.00C288.75,317.00 289.00,317.68 289.00,318.51C289.00,319.35 287.74,322.61 286.19,325.76C284.65,328.92 282.29,333.52 280.95,336.00C279.12,339.38 278.42,342.42 278.15,348.26C277.95,352.53 278.07,357.14 278.41,358.51C278.76,359.88 279.41,361.00 279.86,361.00C280.31,361.00 281.96,358.64 283.51,355.75C285.07,352.86 288.46,347.35 291.05,343.50C293.63,339.65 298.53,333.86 301.93,330.63C305.32,327.41 308.32,324.99 308.59,325.26C308.86,325.53 308.31,327.38 307.36,329.36C306.42,331.35 306.00,333.32 306.44,333.74C306.88,334.16 313.30,328.20 320.71,320.50C328.12,312.80 338.71,301.41 344.25,295.19C349.78,288.97 361.79,277.21 370.94,269.05C380.08,260.90 391.63,249.79 396.60,244.37C401.57,238.94 408.64,230.74 412.32,226.15C415.99,221.56 419.00,217.38 419.00,216.86C419.00,216.35 417.99,216.46 416.75,217.11C415.51,217.76 412.93,219.51 411.00,220.99C409.07,222.48 406.15,224.55 404.50,225.59C401.50,227.48 401.50,227.48 404.45,223.49C406.07,221.30 411.76,214.78 417.08,209.00C422.40,203.22 430.20,194.35 434.43,189.28C438.65,184.22 443.96,178.48 446.24,176.53C449.11,174.07 450.60,173.35 451.11,174.18C451.61,174.98 454.00,173.35 458.42,169.22C462.04,165.84 465.96,162.56 467.15,161.92C469.16,160.84 469.26,160.96 468.71,163.70C468.39,165.31 467.98,167.05 467.81,167.56C467.64,168.08 467.93,168.70 468.45,168.95C468.97,169.20 477.52,161.55 487.45,151.95C497.38,142.35 508.31,131.12 511.74,127.00C515.17,122.88 521.56,115.53 525.94,110.68C530.32,105.83 537.00,97.51 540.79,92.18C544.57,86.86 550.25,78.16 553.40,72.84C556.55,67.53 560.00,62.40 561.07,61.44C562.91,59.77 563.00,59.77 563.00,61.53C563.00,62.54 562.05,66.78 560.88,70.94C559.72,75.10 557.08,82.40 555.03,87.16C552.98,91.92 548.24,100.92 544.50,107.16C540.76,113.40 533.53,124.35 528.45,131.50C523.36,138.65 515.44,148.58 510.85,153.56C506.26,158.55 496.65,169.17 489.50,177.16C482.35,185.16 471.91,197.05 466.30,203.60C460.69,210.14 452.20,220.00 447.42,225.50C442.64,231.00 435.47,239.55 431.50,244.50C427.53,249.45 420.72,257.11 416.39,261.52C412.05,265.93 404.88,272.91 400.46,277.02C396.04,281.13 382.54,294.85 370.46,307.50C358.38,320.15 345.12,333.80 341.00,337.82C336.88,341.85 328.73,349.30 322.89,354.38C317.06,359.45 308.34,366.51 303.53,370.05C298.71,373.60 292.91,377.87 290.65,379.54C288.38,381.22 285.49,384.11 284.23,385.98C282.98,387.85 281.26,391.73 280.42,394.62C279.59,397.50 278.01,400.99 276.92,402.38C275.83,403.76 274.28,407.06 273.48,409.70C272.68,412.34 272.02,417.99 272.01,422.25C272.00,428.21 272.32,430.00 273.39,430.00C274.16,430.00 275.11,429.21 275.50,428.25C276.16,426.64 276.28,426.66 277.06,428.50C277.52,429.60 277.66,436.12 277.36,443.00C277.07,449.88 276.00,459.10 274.99,463.50C273.97,467.90 272.64,474.20 272.03,477.50C271.41,480.80 270.85,488.45 270.77,494.50C270.68,500.55 270.94,516.75 271.33,530.50C271.80,547.16 272.50,557.00 273.43,560.00C274.20,562.48 275.10,565.74 275.43,567.25C275.76,568.76 276.44,570.00 276.93,570.00C277.42,570.00 278.07,566.29 278.38,561.75C278.68,557.21 279.19,540.00 279.51,523.50C279.82,507.00 280.49,489.68 280.98,485.00C281.47,480.32 282.60,469.75 283.47,461.50C284.35,453.25 285.55,444.72 286.13,442.55C286.93,439.56 289.14,436.78 295.26,431.05C299.70,426.90 311.25,414.37 320.92,403.21C330.59,392.05 341.16,379.56 344.41,375.45C347.66,371.35 350.08,367.75 349.80,367.46C349.51,367.18 346.41,369.09 342.91,371.72C339.41,374.35 330.51,382.35 323.13,389.50C315.76,396.65 307.02,406.10 303.72,410.50C300.41,414.90 295.43,420.86 292.64,423.75C289.85,426.64 286.99,429.00 286.28,429.00C285.34,429.00 285.00,426.73 285.00,420.37C285.00,411.74 285.00,411.74 288.75,408.19C290.81,406.25 295.65,402.31 299.50,399.44C303.35,396.58 309.75,391.37 313.72,387.87C317.69,384.37 326.74,376.32 333.82,370.00C340.90,363.68 352.50,353.31 359.60,346.98C366.69,340.64 375.56,333.05 379.29,330.10C383.03,327.16 386.28,324.94 386.51,325.18C386.74,325.41 385.08,328.26 382.83,331.51C380.57,334.76 376.53,340.05 373.86,343.26C371.19,346.48 369.00,349.31 369.00,349.55C369.00,349.80 369.58,350.00 370.30,350.00C371.01,350.00 377.87,345.34 385.55,339.65C393.22,333.95 402.88,325.72 407.00,321.37C411.12,317.01 420.80,306.29 428.50,297.55C436.20,288.81 445.18,278.70 448.45,275.08C451.72,271.46 463.47,258.82 474.55,247.00C485.64,235.18 496.21,223.70 498.04,221.50C499.87,219.30 504.38,214.35 508.06,210.50C511.74,206.65 520.26,197.20 526.99,189.50C533.71,181.80 539.90,174.47 540.74,173.22C541.58,171.96 542.04,170.70 541.75,170.42C541.46,170.13 537.47,173.05 532.86,176.91C528.26,180.77 518.39,190.35 510.91,198.21C503.44,206.07 494.90,215.43 491.93,219.00C488.95,222.57 477.52,234.52 466.51,245.55C455.51,256.57 444.33,267.08 441.68,268.89C439.03,270.71 436.61,271.95 436.32,271.65C436.02,271.35 436.66,269.98 437.74,268.61C438.82,267.24 443.93,261.50 449.10,255.86C454.27,250.23 465.84,238.22 474.81,229.18C483.78,220.14 494.20,209.09 497.97,204.62C501.74,200.15 508.85,192.81 513.78,188.30C518.70,183.79 530.08,173.05 539.07,164.43C548.05,155.82 560.60,144.59 566.95,139.47C573.30,134.36 581.29,128.00 584.70,125.34C588.11,122.68 596.43,116.19 603.20,110.93C609.96,105.67 621.35,97.61 628.50,93.02C635.65,88.43 647.58,80.93 655.00,76.34C662.42,71.76 668.65,68.45 668.83,68.99C669.01,69.53 668.13,71.44 666.87,73.24C665.61,75.03 660.00,82.12 654.41,89.00C648.82,95.88 641.60,104.00 638.37,107.06C635.14,110.11 629.80,114.58 626.50,117.00C623.20,119.41 609.02,132.77 595.00,146.69C580.98,160.62 567.09,173.81 564.15,176.00C561.21,178.20 558.39,180.00 557.89,180.00C557.38,180.00 558.17,178.19 559.63,175.98C561.10,173.77 562.03,171.70 561.72,171.38C561.40,171.07 551.86,179.74 540.53,190.65C529.19,201.57 515.05,215.90 509.12,222.50C503.18,229.10 494.53,238.74 489.91,243.93C485.28,249.11 478.58,256.75 475.02,260.91C471.46,265.06 455.69,281.30 439.98,296.98C424.27,312.67 406.30,330.21 400.05,335.97C393.80,341.73 385.72,348.65 382.09,351.34C378.47,354.04 368.13,363.72 359.11,372.86C350.10,382.00 341.23,391.71 339.39,394.44C337.56,397.16 336.27,399.60 336.52,399.86C336.78,400.11 339.19,399.13 341.88,397.66C344.57,396.20 347.08,395.00 347.45,395.00C347.83,395.00 347.83,396.01 347.46,397.25C347.09,398.49 345.43,401.65 343.76,404.29C342.10,406.92 340.98,409.31 341.27,409.61C341.56,409.90 344.08,408.98 346.87,407.57C349.65,406.16 352.19,405.00 352.50,405.00C352.81,405.00 351.47,407.48 349.53,410.52C347.59,413.56 346.00,416.48 346.00,417.02C346.00,417.56 346.59,418.00 347.31,418.00C348.03,418.00 349.49,417.34 350.56,416.53C351.63,415.72 353.43,415.05 354.57,415.03C355.86,415.01 361.57,410.16 369.61,402.25C376.74,395.24 385.26,385.91 388.54,381.53C391.82,377.14 400.68,366.50 408.24,357.87C415.80,349.23 422.42,342.02 422.96,341.84C423.50,341.65 428.45,337.31 433.96,332.19C440.32,326.28 445.26,320.68 447.52,316.83C449.47,313.50 454.29,307.22 458.23,302.89C462.16,298.55 467.91,291.29 471.00,286.75C474.09,282.21 479.62,274.23 483.29,269.00C486.97,263.77 492.56,256.51 495.73,252.86C498.91,249.21 507.76,240.89 515.40,234.36C523.05,227.84 533.85,217.98 539.40,212.46C544.96,206.93 552.77,199.62 556.78,196.21C560.78,192.79 564.52,190.00 565.08,190.00C565.65,190.00 565.81,190.50 565.44,191.10C565.06,191.71 562.58,195.42 559.91,199.35C557.25,203.28 552.69,209.28 549.78,212.68C546.88,216.08 543.06,219.58 541.30,220.45C539.54,221.33 536.73,223.20 535.06,224.60C533.39,226.01 531.04,228.54 529.83,230.24C527.63,233.32 527.63,233.32 530.82,232.69C532.57,232.34 534.00,232.38 534.00,232.77C534.00,233.17 532.17,237.67 529.93,242.78C527.69,247.89 526.03,252.59 526.24,253.22C526.45,253.86 529.33,250.80 532.64,246.44C535.95,242.07 541.97,233.55 546.00,227.50C550.04,221.45 557.01,212.00 561.49,206.50C565.97,201.00 572.50,192.68 576.00,188.00C579.50,183.32 585.02,176.35 588.27,172.50C591.52,168.65 599.36,160.68 605.70,154.78C612.04,148.88 620.32,141.94 624.11,139.36C627.89,136.77 631.25,134.92 631.57,135.23C631.89,135.55 631.38,137.32 630.43,139.16C629.49,141.00 624.21,148.57 618.70,156.00C612.87,163.85 602.36,176.00 593.59,185.03C585.29,193.57 575.70,204.15 572.28,208.53C568.86,212.91 560.34,224.15 553.36,233.50C546.37,242.85 539.27,252.12 537.58,254.09C535.89,256.07 526.42,266.42 516.54,277.09C506.66,287.77 486.18,309.10 471.04,324.50C455.89,339.90 438.50,357.68 432.38,364.00C426.27,370.33 409.14,387.43 394.32,402.00C379.50,416.57 362.19,433.96 355.86,440.62C349.52,447.29 341.05,455.62 337.03,459.12C333.01,462.63 327.65,467.21 325.11,469.31C322.57,471.40 316.23,476.25 311.00,480.09C305.77,483.93 299.25,488.85 296.50,491.03C293.75,493.21 291.15,494.99 290.73,494.99C290.30,495.00 289.52,493.88 289.00,492.50C288.48,491.13 287.42,490.00 286.66,490.00C285.84,490.00 285.03,491.44 284.69,493.49C284.38,495.41 284.33,507.90 284.57,521.24C284.82,534.58 285.31,564.85 285.67,588.50C286.03,612.15 286.37,644.55 286.44,660.50C286.52,677.06 287.12,694.00 287.85,700.00C288.55,705.77 289.58,712.52 290.13,715.00C290.68,717.48 291.77,725.12 292.55,732.00C293.33,738.88 293.97,744.81 293.98,745.18C293.99,745.55 293.29,746.56 292.43,747.43C291.56,748.29 290.45,749.00 289.96,749.00C289.46,749.00 288.39,746.64 287.58,743.75C286.76,740.86 285.55,734.80 284.88,730.29C284.21,725.77 283.34,721.54 282.93,720.89C282.53,720.24 281.52,719.97 280.69,720.29C279.66,720.69 278.93,723.05 278.41,727.69C277.99,731.43 277.61,737.20 277.57,740.50C277.53,743.80 277.88,751.34 278.35,757.25C279.19,768.00 279.19,768.00 270.74,768.00zM316.39,768.00C309.96,768.00 309.96,768.00 310.62,765.25C310.98,763.74 311.85,761.36 312.55,759.97C313.25,758.58 318.79,751.18 324.86,743.54C334.29,731.67 336.70,727.84 341.41,717.30C344.45,710.51 348.91,701.93 351.34,698.23C353.76,694.53 359.17,687.53 363.36,682.68C367.55,677.83 373.74,669.83 377.12,664.91C380.66,659.73 387.11,652.31 392.38,647.35C397.39,642.62 404.65,636.18 408.50,633.04C412.35,629.90 421.08,623.60 427.90,619.05C434.71,614.49 447.31,607.28 455.90,603.01C464.48,598.75 482.52,589.75 496.00,583.03C509.48,576.30 526.35,568.18 533.50,564.99C540.65,561.79 551.12,556.88 556.76,554.06C562.40,551.25 568.13,548.52 569.51,548.00C570.88,547.48 572.00,547.26 572.00,547.51C572.00,547.77 567.61,550.14 562.25,552.79C556.89,555.43 544.74,562.71 535.26,568.97C525.78,575.23 518.17,580.50 518.35,580.69C518.54,580.87 522.02,579.16 526.09,576.88C530.17,574.60 540.92,568.81 550.00,564.02C559.08,559.22 573.25,552.41 581.50,548.90C590.70,544.97 595.68,542.38 594.38,542.20C593.21,542.03 588.71,542.77 584.38,543.85C580.04,544.93 576.43,545.74 576.34,545.65C576.25,545.57 579.02,543.54 582.50,541.15C585.98,538.75 595.73,533.95 604.16,530.49C612.60,527.02 624.58,521.91 630.79,519.12C637.01,516.33 649.61,511.58 658.79,508.56C667.98,505.54 684.33,500.35 695.12,497.03C705.92,493.72 715.05,491.00 715.43,491.00C715.81,491.00 715.30,492.39 714.31,494.10C713.31,495.80 708.21,501.31 702.98,506.35C697.65,511.47 687.52,519.56 679.98,524.71C672.56,529.78 662.23,537.61 657.00,542.11C651.77,546.62 644.12,553.01 640.00,556.33C635.88,559.64 626.20,566.48 618.50,571.53C610.80,576.58 597.75,584.52 589.50,589.17C581.25,593.83 566.17,601.49 556.00,606.20C545.83,610.91 532.55,616.90 526.50,619.51C520.45,622.12 508.75,627.52 500.50,631.51C490.27,636.47 482.24,641.22 475.25,646.48C469.62,650.72 461.60,657.36 457.44,661.25C453.28,665.13 447.89,670.90 445.46,674.06C443.03,677.21 438.32,684.85 434.99,691.02C431.66,697.19 426.85,705.22 424.30,708.87C421.75,712.52 416.99,717.92 413.71,720.87C409.71,724.48 407.52,725.85 407.03,725.05C406.55,724.27 404.67,725.68 401.52,729.19C398.89,732.11 395.61,735.96 394.25,737.75C392.88,739.54 388.71,746.96 384.98,754.25C378.21,767.50 378.21,767.50 362.58,767.78C346.95,768.05 346.95,768.05 350.11,761.79C351.85,758.34 357.28,749.22 362.19,741.51C367.10,733.81 373.46,724.00 376.31,719.73C379.16,715.46 383.28,709.16 385.44,705.73C387.61,702.30 391.86,696.12 394.88,692.00C397.91,687.88 403.54,681.12 407.41,677.00C411.28,672.88 415.09,669.10 415.88,668.61C416.68,668.12 415.88,670.14 414.10,673.11C412.32,676.07 409.73,680.89 408.33,683.81C406.94,686.74 406.02,689.36 406.30,689.64C406.58,689.92 408.21,689.43 409.91,688.55C411.61,687.67 416.47,682.80 420.72,677.73C424.96,672.65 430.50,666.44 433.03,663.93C435.55,661.42 442.31,655.80 448.06,651.45C453.80,647.10 464.35,639.98 471.50,635.63C478.65,631.28 488.55,625.48 493.50,622.75C498.45,620.03 504.62,616.24 507.20,614.34C509.79,612.45 513.10,609.46 514.56,607.70C516.01,605.94 519.07,602.98 521.35,601.13C524.66,598.44 524.99,597.91 523.00,598.51C521.62,598.92 519.38,600.05 518.00,601.01C516.62,601.96 512.23,603.93 508.22,605.36C504.22,606.80 499.50,608.72 497.72,609.64C495.95,610.55 491.32,613.47 487.44,616.11C483.56,618.75 477.95,622.04 474.98,623.42C472.01,624.79 469.41,625.74 469.19,625.52C468.97,625.31 470.06,623.47 471.61,621.44C473.16,619.41 478.89,614.10 484.34,609.63C489.80,605.16 495.22,600.72 496.38,599.77C498.45,598.08 498.45,598.04 496.50,598.04C495.40,598.04 492.70,598.87 490.50,599.87C488.30,600.88 478.13,607.31 467.91,614.17C457.68,621.03 443.96,631.09 437.41,636.53C430.86,641.98 421.96,650.04 417.63,654.46C413.30,658.88 406.35,666.77 402.19,672.00C398.03,677.23 388.23,688.30 380.41,696.61C371.45,706.14 363.82,715.37 359.76,721.61C356.22,727.05 351.79,734.05 349.91,737.17C348.04,740.29 341.17,748.51 334.66,755.42C322.82,768.00 322.82,768.00 316.39,768.00zM300.14,717.00C299.63,717.00 298.93,716.27 298.59,715.37C298.25,714.48 297.69,709.16 297.34,703.56C296.93,696.84 297.12,692.17 297.89,689.83C298.62,687.61 301.79,683.69 306.34,679.39C310.34,675.60 315.95,670.56 318.81,668.19C324.00,663.89 324.00,663.89 324.00,666.60C324.00,669.29 324.01,669.30 326.13,667.40C327.30,666.36 332.20,659.65 337.01,652.50C341.81,645.35 347.72,637.00 350.12,633.94C352.53,630.87 359.23,622.78 365.00,615.95C370.77,609.12 379.10,599.75 383.50,595.13C387.90,590.51 396.45,582.48 402.50,577.29C408.55,572.10 418.68,564.35 425.00,560.06C431.32,555.78 441.45,549.45 447.50,546.01C453.55,542.56 463.90,536.58 470.50,532.72C477.10,528.85 486.55,523.21 491.50,520.18C496.45,517.14 510.85,507.84 523.50,499.51C536.15,491.17 550.87,481.79 556.20,478.67C561.54,475.55 569.96,470.12 574.90,466.62C579.85,463.12 588.31,457.64 593.70,454.45C599.09,451.26 606.20,446.76 609.50,444.45C612.80,442.14 616.94,439.52 618.70,438.63C620.46,437.73 622.94,437.00 624.20,436.99C625.47,436.99 630.49,434.63 635.37,431.74C640.25,428.86 645.88,425.06 647.87,423.29C649.89,421.51 650.87,420.06 650.09,420.04C649.31,420.02 645.26,421.86 641.09,424.14C636.91,426.41 632.24,429.16 630.69,430.25C629.15,431.33 627.67,432.01 627.42,431.75C627.16,431.49 628.87,429.39 631.22,427.07C633.58,424.75 641.12,418.92 648.00,414.12C654.88,409.31 664.23,403.17 668.79,400.47C673.36,397.77 680.33,392.93 684.29,389.71C688.26,386.49 697.35,378.39 704.50,371.71C711.65,365.03 721.49,355.62 726.36,350.78C731.24,345.95 735.47,342.00 735.76,342.00C736.05,342.00 736.00,345.09 735.65,348.87C735.30,352.65 733.86,359.71 732.45,364.56C730.98,369.65 727.52,377.64 724.28,383.44C721.19,388.97 715.67,397.56 712.00,402.52C708.34,407.48 699.45,418.28 692.26,426.52C684.82,435.03 672.33,447.66 663.34,455.76C654.63,463.60 643.23,473.01 638.00,476.67C632.77,480.33 625.58,485.41 622.00,487.96C618.42,490.50 611.45,495.02 606.50,497.99C601.55,500.97 587.15,510.13 574.50,518.36C561.85,526.58 547.67,535.64 543.00,538.48C538.33,541.32 529.33,546.51 523.00,550.00C516.67,553.50 508.57,557.80 505.00,559.56C501.43,561.33 492.20,565.55 484.50,568.95C476.80,572.35 462.18,579.41 452.00,584.65C441.82,589.88 432.15,595.18 430.50,596.42C428.85,597.65 425.25,599.95 422.50,601.51C419.75,603.07 414.35,606.83 410.50,609.87C406.65,612.91 400.42,618.35 396.65,621.95C392.89,625.55 386.65,632.21 382.80,636.74C378.95,641.27 373.10,647.01 369.80,649.49C366.50,651.97 363.13,654.00 362.31,654.00C361.48,654.00 359.52,654.91 357.96,656.03C356.04,657.40 354.29,657.86 352.64,657.44C351.18,657.08 348.71,657.52 346.61,658.52C344.42,659.55 341.95,662.00 340.22,664.85C338.67,667.41 336.35,671.98 335.08,675.00C333.80,678.02 331.41,683.20 329.77,686.50C328.12,689.80 325.71,693.92 324.41,695.66C323.10,697.40 317.32,702.91 311.55,707.91C305.78,712.91 300.65,717.00 300.14,717.00zM276.07,674.00C276.53,674.00 277.20,672.46 277.55,670.57C277.91,668.69 278.03,657.10 277.83,644.82C277.57,628.71 277.10,621.84 276.14,620.14C275.29,618.63 274.47,618.13 273.85,618.75C273.32,619.28 272.45,622.81 271.91,626.60C271.26,631.18 271.28,638.22 271.97,647.50C272.54,655.20 273.51,664.31 274.12,667.75C274.73,671.19 275.61,674.00 276.07,674.00zM299.99,658.00C299.01,658.00 297.94,657.29 297.61,656.42C297.27,655.55 297.00,648.91 297.01,641.67C297.01,634.43 297.45,624.72 297.98,620.09C298.73,613.61 299.47,611.12 301.22,609.21C302.48,607.84 306.49,604.43 310.15,601.61C313.80,598.80 320.69,593.13 325.47,589.00C330.24,584.88 340.17,574.46 347.54,565.84C354.91,557.23 364.18,547.33 368.13,543.84C372.08,540.35 380.91,532.43 387.75,526.23C394.60,520.04 404.09,511.69 408.85,507.68C413.61,503.67 422.68,496.50 429.00,491.75C435.32,486.99 445.00,479.45 450.50,474.98C456.00,470.51 464.55,463.63 469.50,459.68C474.45,455.72 481.20,450.51 484.50,448.08C487.80,445.65 495.38,438.90 501.35,433.08C507.31,427.26 513.44,420.70 514.96,418.50C516.49,416.30 519.45,410.45 521.54,405.50C523.63,400.55 526.51,394.71 527.94,392.53C529.37,390.34 533.21,386.41 536.47,383.78C539.73,381.15 547.82,375.23 554.45,370.62C561.08,366.01 571.67,357.47 578.00,351.64C584.33,345.81 593.33,338.26 598.00,334.86C602.67,331.46 611.67,324.57 618.00,319.54C624.33,314.51 634.90,306.54 641.50,301.81C648.10,297.09 658.90,290.21 665.50,286.52C672.10,282.84 682.90,276.18 689.50,271.73C696.10,267.29 703.98,261.77 707.00,259.48C710.02,257.18 713.51,254.77 714.75,254.12C716.59,253.15 717.00,253.19 717.00,254.36C717.00,255.15 714.00,260.01 710.33,265.15C706.66,270.29 700.00,279.00 695.54,284.50C691.07,290.00 683.87,299.23 679.53,305.00C675.18,310.77 665.69,322.93 658.42,332.00C651.16,341.07 642.32,351.30 638.78,354.73C635.24,358.16 629.69,364.68 626.45,369.23C623.20,373.78 614.27,385.82 606.59,396.00C598.92,406.18 590.81,416.69 588.57,419.36C586.33,422.04 581.80,426.37 578.50,428.99C575.20,431.62 562.15,439.95 549.50,447.51C536.85,455.07 523.58,463.54 520.00,466.33C516.42,469.12 509.45,474.63 504.50,478.58C499.55,482.53 492.52,488.41 488.88,491.64C485.23,494.87 473.98,503.18 463.88,510.11C453.77,517.03 440.55,525.75 434.50,529.48C428.45,533.20 419.68,538.96 415.00,542.28C410.32,545.60 404.32,550.38 401.66,552.91C398.99,555.43 389.98,564.92 381.64,574.00C373.30,583.08 363.78,593.81 360.48,597.87C357.19,601.92 351.90,608.44 348.73,612.37C345.56,616.29 341.74,620.54 340.23,621.81C338.73,623.08 334.53,625.64 330.90,627.49C327.28,629.35 322.91,632.05 321.19,633.49C319.48,634.93 315.93,639.35 313.30,643.31C310.68,647.26 307.01,652.19 305.15,654.25C303.29,656.31 300.97,658.00 299.99,658.00zM417.90,640.02C420.02,639.63 423.38,638.31 425.36,637.08C427.35,635.86 431.22,632.32 433.98,629.23C436.74,626.13 439.00,623.24 439.00,622.80C439.00,622.36 438.06,622.00 436.90,622.00C435.75,622.00 433.34,622.69 431.55,623.54C429.77,624.39 425.88,627.26 422.90,629.93C419.93,632.59 416.72,636.11 415.78,637.75C414.05,640.72 414.05,640.72 417.90,640.02zM237.33,634.95C236.88,634.92 235.02,633.05 233.22,630.80C231.41,628.54 228.33,623.36 226.36,619.28C224.40,615.21 223.00,611.67 223.25,611.42C223.50,611.17 227.26,613.52 231.60,616.65C235.95,619.77 240.51,623.24 241.75,624.34C242.99,625.44 244.00,627.18 244.00,628.19C244.00,629.65 243.48,629.91 241.58,629.43C239.83,628.99 238.90,629.33 238.22,630.66C237.70,631.67 237.47,633.06 237.72,633.75C237.96,634.44 237.79,634.98 237.33,634.95zM307.36,629.00C307.55,629.00 310.59,625.52 314.11,621.27C317.62,617.03 322.11,611.43 324.07,608.83C326.04,606.24 328.47,602.29 329.48,600.05C330.49,597.81 331.01,595.68 330.65,595.31C330.28,594.95 328.59,595.96 326.90,597.57C325.20,599.18 321.14,604.04 317.86,608.37C314.59,612.70 310.81,618.42 309.46,621.09C308.11,623.75 307.00,626.62 307.00,627.47C307.00,628.31 307.16,629.00 307.36,629.00zM375.41,621.00C375.86,621.00 379.21,618.89 382.86,616.32C386.51,613.74 392.92,609.25 397.11,606.35C401.29,603.44 405.87,599.54 407.30,597.68C409.88,594.29 409.88,594.29 407.39,594.56C406.01,594.71 399.66,599.08 393.20,604.33C386.76,609.55 379.95,615.43 378.05,617.41C376.16,619.38 374.97,621.00 375.41,621.00zM534.80,602.97C535.51,602.99 537.54,602.27 539.30,601.37C541.06,600.48 546.55,597.26 551.50,594.22C556.45,591.18 563.88,586.12 568.02,582.98C572.15,579.83 576.20,576.46 577.01,575.49C578.37,573.85 578.29,573.77 575.99,574.47C574.62,574.89 571.92,576.16 570.00,577.30C568.08,578.44 560.65,583.34 553.50,588.19C546.35,593.03 538.92,598.34 537.00,599.97C535.08,601.61 534.08,602.96 534.80,602.97zM200.83,586.96C200.65,586.93 194.65,581.20 187.50,574.20C180.35,567.21 171.27,557.65 167.31,552.95C163.36,548.25 157.06,541.67 153.31,538.32C149.57,534.98 136.13,521.95 123.46,509.37C110.78,496.79 95.03,480.69 88.46,473.59C81.88,466.49 72.88,456.35 68.46,451.06C64.04,445.78 58.70,438.62 56.60,435.17C54.50,431.71 52.96,428.70 53.18,428.49C53.40,428.27 56.93,431.02 61.04,434.59C65.14,438.17 71.80,443.32 75.83,446.05C79.87,448.77 83.57,451.00 84.05,451.00C84.54,451.00 84.70,450.39 84.42,449.65C84.14,448.91 78.63,443.35 72.19,437.30C65.75,431.25 59.60,424.67 58.53,422.69C57.46,420.70 56.86,418.81 57.19,418.47C57.52,418.14 59.97,419.22 62.62,420.87C65.28,422.53 67.61,423.72 67.80,423.53C67.99,423.34 67.03,419.66 65.67,415.34C64.31,411.03 61.81,400.75 60.11,392.50C58.42,384.25 56.77,374.12 56.45,370.00C55.87,362.50 55.87,362.50 58.81,365.81C60.43,367.63 63.01,371.46 64.55,374.31C66.09,377.17 70.36,384.00 74.04,389.50C77.73,395.00 82.49,401.39 84.62,403.70C86.75,406.01 93.16,411.97 98.86,416.94C104.55,421.91 116.25,431.10 124.86,437.37C133.46,443.64 143.30,450.16 146.72,451.88C150.14,453.60 154.05,455.00 155.39,455.00C157.26,455.00 157.97,455.65 158.39,457.75C158.69,459.26 159.43,463.39 160.04,466.93C160.65,470.47 162.27,476.32 163.64,479.93C165.01,483.54 167.00,490.71 168.06,495.85C169.12,500.99 169.75,505.59 169.46,506.07C169.16,506.54 164.78,504.72 159.71,502.02C154.65,499.32 145.18,495.03 138.68,492.50C132.17,489.96 126.35,488.05 125.74,488.25C125.14,488.45 126.18,489.78 128.07,491.20C129.96,492.62 136.90,496.59 143.50,500.03C150.10,503.46 158.75,508.35 162.73,510.89C166.70,513.42 170.25,516.17 170.60,517.00C170.96,517.83 171.84,521.20 172.56,524.50C173.28,527.80 173.50,530.88 173.05,531.34C172.60,531.79 170.94,531.51 169.36,530.71C167.79,529.91 165.49,528.94 164.25,528.56C162.62,528.06 162.00,528.27 162.00,529.35C162.00,530.16 164.20,532.45 166.90,534.42C169.59,536.40 172.08,538.75 172.42,539.65C172.76,540.55 172.92,541.36 172.77,541.45C172.62,541.53 171.38,542.08 170.00,542.66C167.50,543.71 167.50,543.71 171.00,547.00C174.31,550.11 174.52,550.17 174.82,548.14C175.00,546.96 175.51,546.00 175.96,546.00C176.41,546.00 177.72,546.79 178.86,547.75C180.01,548.71 183.70,555.12 187.07,561.98C190.44,568.85 193.97,575.60 194.92,576.98C195.87,578.37 197.66,581.19 198.91,583.25C200.15,585.31 201.01,586.98 200.83,586.96zM243.76,584.00C242.93,584.00 241.78,583.43 241.20,582.74C240.63,582.05 232.83,577.89 223.88,573.49C214.34,568.81 206.09,564.05 203.97,562.00C201.98,560.08 198.23,554.58 195.64,549.79C193.06,545.00 189.42,536.23 187.56,530.29C185.69,524.36 182.60,513.88 180.69,507.00C178.77,500.12 176.89,492.93 176.51,491.00C176.12,489.07 174.74,483.68 173.43,479.00C172.13,474.32 169.49,462.62 167.57,453.00C165.65,443.38 163.56,431.23 162.91,426.00C162.13,419.60 161.95,407.86 162.38,390.00C162.72,375.43 163.63,359.68 164.39,355.00C165.15,350.32 166.50,345.15 167.38,343.50C168.27,341.85 168.99,339.31 168.99,337.86C169.00,336.40 169.87,332.35 170.93,328.86C171.99,325.36 173.57,317.88 174.45,312.22C175.33,306.57 176.97,299.60 178.10,296.72C179.23,293.85 183.24,285.20 187.01,277.50C190.79,269.80 196.72,259.09 200.19,253.70C203.66,248.31 212.12,235.73 219.00,225.74C225.88,215.75 237.42,199.69 244.66,190.04C252.95,179.00 263.98,166.02 274.46,155.00C283.61,145.38 291.57,136.66 292.15,135.63C292.98,134.15 292.92,133.92 291.85,134.55C291.11,134.98 288.62,136.61 286.32,138.17C284.02,139.73 281.87,141.00 281.54,141.00C281.22,141.00 281.70,139.54 282.63,137.75C283.55,135.96 286.12,132.03 288.33,129.00C290.54,125.97 313.31,102.55 338.93,76.94C364.54,51.33 389.10,27.45 393.50,23.87C397.90,20.29 403.30,16.31 405.50,15.01C407.70,13.72 414.09,9.81 419.70,6.33C427.95,1.21 430.68,0.00 434.05,0.00C438.20,0.00 438.20,0.00 426.44,12.25C419.97,18.99 412.05,27.79 408.84,31.82C405.63,35.84 403.00,39.33 403.00,39.57C403.00,39.80 403.52,40.00 404.16,40.00C404.79,40.00 414.13,31.00 424.91,20.00C444.50,-0.00 444.50,-0.00 451.74,-0.00C458.98,-0.00 458.98,-0.00 455.64,5.25C453.80,8.14 448.68,17.25 444.25,25.50C439.83,33.75 433.33,46.35 429.82,53.50C426.30,60.65 419.21,73.03 414.05,81.00C408.90,88.97 401.54,100.45 397.69,106.50C393.85,112.55 388.20,120.59 385.15,124.36C382.09,128.14 377.30,133.09 374.51,135.36C371.71,137.64 361.29,144.38 351.34,150.35C341.40,156.32 329.84,163.97 325.66,167.35C321.47,170.73 315.73,176.65 312.89,180.50C310.05,184.35 305.88,189.75 303.61,192.50C301.35,195.25 295.17,202.07 289.88,207.67C284.59,213.26 277.12,222.03 273.28,227.17C269.45,232.30 262.04,243.25 256.83,251.50C251.62,259.75 245.99,268.98 244.31,272.00C242.64,275.02 240.45,279.84 239.46,282.70C238.46,285.56 237.29,287.68 236.86,287.41C236.43,287.15 235.16,288.73 234.04,290.92C232.92,293.12 232.02,295.28 232.05,295.71C232.07,296.14 233.17,294.48 234.50,292.00C236.12,288.97 236.92,288.15 236.95,289.50C236.97,290.60 235.59,296.68 233.87,303.00C232.16,309.32 230.54,315.73 230.27,317.23C229.89,319.36 230.67,321.02 233.85,324.82C236.20,327.63 240.40,331.00 243.83,332.83C247.08,334.56 250.27,336.63 250.93,337.42C251.80,338.46 252.01,343.65 251.71,356.18C251.47,365.71 250.83,375.43 250.27,377.79C249.71,380.15 249.01,382.33 248.70,382.63C248.40,382.93 247.43,382.78 246.55,382.29C245.66,381.79 239.44,376.47 232.72,370.46C226.00,364.44 217.93,356.91 214.78,353.71C209.44,348.28 208.91,347.99 206.73,349.20C205.44,349.92 201.17,352.52 197.24,354.99C193.31,357.47 189.61,360.57 189.01,361.88C188.09,363.89 188.35,364.94 190.61,368.39C192.09,370.65 194.61,374.18 196.22,376.23C197.82,378.28 204.58,384.32 211.23,389.64C217.88,394.97 227.30,401.77 232.16,404.76C237.02,407.75 241.00,410.57 241.00,411.03C241.00,411.48 240.23,412.00 239.28,412.18C237.74,412.48 237.59,413.86 237.87,425.34C238.17,437.54 238.09,438.12 236.34,437.18C235.33,436.64 228.43,431.42 221.00,425.59C213.57,419.75 202.44,411.12 196.26,406.40C190.08,401.68 183.91,396.49 182.54,394.87C181.11,393.16 179.54,389.41 178.83,385.96C178.15,382.68 177.25,380.00 176.82,380.00C176.40,380.00 175.38,381.02 174.56,382.26C173.75,383.51 172.30,387.45 171.34,391.01C170.07,395.75 169.59,401.54 169.55,412.50C169.52,422.13 170.00,429.47 170.89,433.00C171.65,436.02 172.96,440.26 173.81,442.42C175.12,445.75 175.47,446.05 176.11,444.42C176.52,443.36 176.89,439.94 176.93,436.81C176.97,433.68 177.43,430.85 177.96,430.53C178.48,430.20 179.64,431.05 180.54,432.42C181.43,433.78 183.68,439.95 185.54,446.12C187.39,452.29 189.66,458.05 190.57,458.92C192.12,460.39 192.19,459.89 191.56,451.75C191.20,446.94 191.18,443.00 191.54,443.00C191.89,443.00 196.97,447.54 202.84,453.09C208.70,458.64 217.10,465.76 221.50,468.90C225.90,472.05 231.57,475.84 234.10,477.32C236.63,478.80 239.39,480.80 240.22,481.76C241.39,483.09 241.94,487.83 242.60,502.00C243.07,512.17 243.38,523.38 243.29,526.91C243.18,530.82 242.57,533.85 241.73,534.70C240.67,535.76 239.70,535.84 237.61,535.04C236.10,534.47 234.11,534.00 233.18,534.00C231.95,534.01 232.30,534.68 234.50,536.52C236.15,537.90 238.72,539.70 240.20,540.52C241.92,541.46 243.29,543.37 243.95,545.75C244.52,547.81 244.99,552.46 244.99,556.08C245.00,559.70 244.75,562.92 244.45,563.22C244.14,563.52 241.78,563.14 239.20,562.36C236.62,561.58 233.83,561.10 233.00,561.29C232.09,561.49 233.41,562.78 236.34,564.56C239.00,566.18 241.87,567.98 242.71,568.58C243.75,569.30 244.41,571.98 244.76,576.83C245.18,582.79 245.01,584.00 243.76,584.00zM297.44,582.00C296.69,582.00 295.50,580.99 294.81,579.75C294.00,578.32 293.54,573.44 293.52,566.31C293.50,555.12 293.50,555.12 296.69,551.81C298.44,549.99 301.73,544.46 304.00,539.52C306.26,534.59 310.59,526.83 313.61,522.29C316.64,517.74 320.58,512.47 322.38,510.56C324.80,507.99 326.21,507.24 327.82,507.66C329.02,507.98 330.00,508.74 329.99,509.37C329.98,509.99 329.31,512.71 328.49,515.41C327.67,518.11 327.00,520.70 327.00,521.16C327.00,521.62 327.44,522.00 327.97,522.00C328.50,522.00 331.89,518.06 335.49,513.25C339.09,508.44 343.65,501.30 345.61,497.38C347.57,493.47 349.02,489.22 348.84,487.95C348.54,485.94 347.75,486.57 342.71,492.82C339.03,497.38 336.19,500.00 334.93,500.00C333.83,500.00 332.70,499.39 332.42,498.64C332.13,497.90 332.90,495.54 334.12,493.39C335.35,491.25 337.93,487.48 339.86,485.00C341.80,482.52 345.21,478.45 347.44,475.95C349.67,473.45 353.98,468.33 357.00,464.57C360.02,460.82 367.45,453.62 373.50,448.57C379.55,443.53 385.96,438.33 387.74,437.02C389.52,435.71 391.22,434.89 391.53,435.20C391.83,435.50 390.51,438.44 388.58,441.72C386.66,445.00 380.57,452.22 375.04,457.76C367.51,465.32 365.00,468.48 365.00,470.42C365.00,471.84 365.35,473.00 365.79,473.00C366.22,473.00 368.63,470.86 371.14,468.25C373.65,465.64 380.89,457.43 387.22,450.00C393.55,442.57 401.61,433.76 405.12,430.41C408.63,427.07 412.58,423.75 413.90,423.05C415.92,421.97 416.22,421.99 415.76,423.18C415.47,423.95 415.78,425.35 416.47,426.29C417.59,427.82 418.21,427.47 422.66,422.75C425.37,419.86 429.11,415.25 430.95,412.50C432.80,409.75 436.54,404.46 439.26,400.74C441.98,397.02 447.53,391.28 451.60,387.98C455.67,384.68 459.00,382.56 459.00,383.26C459.00,383.96 457.88,386.19 456.50,388.21C455.13,390.24 454.00,392.30 454.00,392.79C454.00,393.28 451.71,396.94 448.92,400.93C446.12,404.91 444.02,408.36 444.25,408.59C444.49,408.82 451.12,401.98 459.00,393.39C467.16,384.50 477.47,374.50 482.92,370.19C488.19,366.03 501.50,355.12 512.50,345.97C525.19,335.41 536.15,325.27 542.50,318.25C548.00,312.15 553.35,305.72 554.39,303.94C555.67,301.76 555.83,300.97 554.89,301.53C554.13,301.99 550.35,304.66 546.50,307.47C542.65,310.28 537.81,313.61 535.75,314.87C533.69,316.13 532.00,316.87 532.00,316.51C532.00,316.15 533.22,313.75 534.70,311.18C536.19,308.61 538.90,304.30 540.72,301.61C542.55,298.91 543.83,296.50 543.57,296.24C543.32,295.98 541.56,296.73 539.66,297.90C537.77,299.07 532.30,302.95 527.52,306.52C522.73,310.08 518.48,312.80 518.07,312.54C517.66,312.29 513.67,315.00 509.20,318.58C504.74,322.15 497.81,328.75 493.79,333.24C489.78,337.73 476.38,351.56 464.00,363.97C451.62,376.38 439.70,387.87 437.50,389.50C435.30,391.13 427.31,398.44 419.73,405.73C412.16,413.03 405.53,419.00 404.98,419.00C404.44,419.00 404.00,418.66 404.01,418.25C404.01,417.84 405.31,415.25 406.90,412.50C408.48,409.75 413.54,403.28 418.14,398.11C422.74,392.95 437.30,377.82 450.50,364.49C463.70,351.17 485.98,329.05 500.00,315.35C517.75,298.02 528.94,287.96 536.81,282.27C543.02,277.77 553.37,271.08 559.81,267.40C566.24,263.71 576.23,257.99 582.00,254.68C587.77,251.37 595.88,246.09 600.00,242.96C604.12,239.82 608.40,236.24 609.50,235.00C610.60,233.75 615.79,229.25 621.04,224.99C626.28,220.73 636.81,212.89 644.42,207.57C652.03,202.26 662.37,194.63 667.38,190.64C672.40,186.64 677.92,182.39 679.65,181.18C681.39,179.98 683.31,179.00 683.93,179.00C684.67,179.00 684.55,179.97 683.56,181.89C682.74,183.47 676.66,192.36 670.04,201.64C663.43,210.91 653.27,225.47 647.47,234.00C641.66,242.53 634.61,253.10 631.79,257.50C628.97,261.90 625.24,268.90 623.50,273.06C621.76,277.21 618.39,283.51 616.00,287.06C613.62,290.60 609.85,295.75 607.64,298.50C605.42,301.25 600.91,306.43 597.62,310.00C594.33,313.57 589.03,319.28 585.84,322.68C582.65,326.08 575.64,332.67 570.27,337.33C564.90,341.99 557.80,348.59 554.50,352.00C551.20,355.41 541.98,363.67 534.00,370.35C526.02,377.03 516.81,384.52 513.52,387.00C510.23,389.47 501.62,395.77 494.39,401.00C487.16,406.23 471.18,418.11 458.87,427.41C444.97,437.92 430.82,449.69 421.50,458.52C413.25,466.33 401.77,476.96 396.00,482.14C390.23,487.32 380.92,496.04 375.33,501.53C369.43,507.31 362.69,515.19 359.28,520.28C356.05,525.11 348.29,534.68 342.03,541.55C335.77,548.43 328.60,555.72 326.09,557.77C323.58,559.82 316.41,566.11 310.16,571.75C303.92,577.39 298.19,582.00 297.44,582.00zM482.41,555.53C486.77,555.18 494.64,553.52 499.91,551.85C505.19,550.18 513.55,546.69 518.50,544.10C523.45,541.51 533.58,535.50 541.00,530.73C548.42,525.97 558.39,518.79 563.15,514.78C567.91,510.78 576.77,504.67 582.83,501.22C588.90,497.77 596.70,492.86 600.18,490.32C603.66,487.78 610.33,481.83 615.02,477.10C619.71,472.37 627.29,465.35 631.87,461.50C636.45,457.65 643.19,451.15 646.85,447.05C650.51,442.95 652.83,439.99 652.00,440.46C651.17,440.94 646.90,444.36 642.50,448.06C638.10,451.77 632.25,457.16 629.50,460.05C626.75,462.93 623.15,466.61 621.50,468.22C619.85,469.82 615.58,472.86 612.00,474.97C608.42,477.07 601.45,481.84 596.50,485.56C591.55,489.28 585.48,494.10 583.00,496.27C580.52,498.44 573.77,502.45 568.00,505.19C562.23,507.93 555.27,511.24 552.54,512.54C549.81,513.84 547.43,514.76 547.25,514.58C547.07,514.41 549.76,511.49 553.21,508.11C559.50,501.96 559.50,501.96 550.00,507.59C544.77,510.69 538.36,514.79 535.75,516.70C533.14,518.61 531.00,520.57 531.00,521.07C531.00,521.56 532.12,522.24 533.50,522.59C534.88,522.93 536.00,523.75 536.00,524.39C536.00,525.04 533.64,527.35 530.75,529.52C527.86,531.70 520.43,536.07 514.23,539.24C508.03,542.41 502.19,545.00 501.26,545.00C500.32,545.00 503.77,541.90 508.93,538.10C514.09,534.31 518.71,530.49 519.20,529.60C519.87,528.42 519.67,528.00 518.45,528.00C517.54,528.00 513.58,529.67 509.65,531.71C505.45,533.89 500.16,537.80 496.83,541.16C493.71,544.31 488.87,548.05 486.06,549.47C483.25,550.89 479.50,552.98 477.73,554.12C474.50,556.18 474.50,556.18 482.41,555.53zM394.21,547.00C394.69,547.00 396.92,546.06 399.16,544.92C401.41,543.77 405.97,540.18 409.31,536.94C412.64,533.69 415.13,530.80 414.84,530.51C414.55,530.21 412.68,530.65 410.69,531.49C408.69,532.32 406.13,533.00 405.00,533.00C403.26,533.00 403.10,532.69 403.96,531.07C404.53,530.00 405.00,528.88 405.00,528.57C405.00,528.25 404.41,528.00 403.69,528.00C402.96,528.00 399.25,529.86 395.44,532.13C391.62,534.40 387.45,537.22 386.16,538.38C384.87,539.55 383.37,541.33 382.82,542.35C381.89,544.07 382.15,544.16 386.16,543.53C388.55,543.16 391.33,542.62 392.34,542.33C393.89,541.89 394.01,542.11 393.12,543.77C392.54,544.85 392.35,546.02 392.70,546.37C393.05,546.72 393.73,547.00 394.21,547.00zM295.48,541.37C294.80,541.63 293.74,541.34 293.12,540.72C292.50,540.10 292.00,537.67 292.00,535.30C292.00,531.76 292.64,530.29 295.67,526.94C297.70,524.70 300.58,522.23 302.08,521.46C304.81,520.05 304.81,520.05 301.92,528.27C300.33,532.80 298.51,537.49 297.87,538.70C297.24,539.91 296.16,541.11 295.48,541.37zM222.87,540.93C224.80,540.99 225.13,540.61 224.67,538.86C224.30,537.42 224.80,536.17 226.24,535.01C228.35,533.30 228.34,533.28 223.77,530.60C221.25,529.13 215.32,526.36 210.61,524.46C205.89,522.56 200.78,521.02 199.26,521.04C196.50,521.07 196.50,521.07 199.38,523.43C200.96,524.72 206.28,527.90 211.19,530.49C216.11,533.08 219.88,535.46 219.57,535.76C219.26,536.07 215.86,535.73 212.00,535.00C208.14,534.27 204.73,533.94 204.41,534.26C204.09,534.58 204.88,535.41 206.16,536.11C207.45,536.81 211.20,538.16 214.50,539.12C217.80,540.08 221.56,540.89 222.87,540.93zM210.25,496.92C211.21,496.96 211.99,496.66 211.97,496.25C211.96,495.84 209.16,493.52 205.76,491.10C202.36,488.68 198.78,486.49 197.79,486.24C196.50,485.90 196.00,486.34 196.00,487.82C196.00,488.94 197.24,490.75 198.77,491.83C200.29,492.92 203.10,494.49 205.02,495.32C206.93,496.15 209.29,496.87 210.25,496.92zM478.25,482.89C479.49,482.24 485.23,478.33 491.00,474.21C496.77,470.08 502.75,465.66 504.27,464.40C505.79,463.13 511.09,459.59 516.03,456.53C520.98,453.47 528.49,449.59 532.70,447.92C536.92,446.24 544.90,442.16 550.44,438.84C555.97,435.52 563.20,430.96 566.50,428.69C569.80,426.43 575.04,422.06 578.13,418.99C581.23,415.91 584.97,411.03 586.43,408.14C589.10,402.88 589.10,402.88 586.80,404.08C585.53,404.74 582.33,407.29 579.68,409.74C577.04,412.19 574.64,413.97 574.35,413.69C574.07,413.40 574.37,412.18 575.02,410.96C575.98,409.16 575.95,408.90 574.85,409.55C574.11,409.98 571.59,411.64 569.25,413.22C566.91,414.80 565.00,415.83 565.00,415.51C565.00,415.18 565.94,413.08 567.08,410.84C568.23,408.59 570.51,404.90 572.14,402.65C573.91,400.21 574.66,398.39 574.00,398.17C573.38,397.96 570.17,399.46 566.87,401.50C563.57,403.54 560.63,404.97 560.35,404.68C560.06,404.39 560.86,402.66 562.14,400.83C563.41,399.00 566.10,395.70 568.11,393.50C570.12,391.30 573.39,387.33 575.38,384.67C577.37,382.02 579.00,379.42 579.00,378.90C579.00,378.38 577.70,378.62 576.12,379.44C574.54,380.26 568.68,384.32 563.11,388.46C557.54,392.61 552.57,396.00 552.05,396.00C551.53,396.00 545.71,400.07 539.10,405.05C529.27,412.45 526.24,415.38 522.37,421.20C519.77,425.11 515.17,431.28 512.16,434.91C509.14,438.53 504.85,443.41 502.63,445.75C500.40,448.09 499.10,450.00 499.73,450.00C500.37,450.00 506.20,446.16 512.69,441.47C519.19,436.78 526.96,431.17 529.96,429.01C532.96,426.85 535.58,425.25 535.79,425.46C536.00,425.67 533.18,429.81 529.52,434.67C525.87,439.53 517.37,448.68 510.64,455.00C503.91,461.32 493.37,470.26 487.20,474.85C481.04,479.45 476.00,483.40 476.00,483.64C476.00,483.88 477.01,483.54 478.25,482.89zM137.25,480.99C138.21,480.99 139.00,480.41 139.00,479.68C139.00,478.96 132.81,474.29 125.25,469.32C117.69,464.34 110.71,460.00 109.75,459.67C108.70,459.31 108.01,459.55 108.04,460.28C108.06,460.95 109.07,462.65 110.29,464.06C111.50,465.47 114.32,468.02 116.55,469.73C118.78,471.45 123.95,474.68 128.05,476.91C132.15,479.14 136.29,480.98 137.25,480.99zM213.86,481.00C214.49,481.00 215.00,480.60 215.00,480.11C215.00,479.62 212.93,476.92 210.41,474.11C207.88,471.30 205.18,469.00 204.41,469.00C203.63,469.00 203.00,469.51 203.00,470.14C203.00,470.77 205.19,473.47 207.86,476.14C210.53,478.81 213.23,481.00 213.86,481.00zM152.24,474.00C153.77,474.00 153.89,473.67 152.98,471.96C152.37,470.83 149.55,468.25 146.69,466.21C143.84,464.18 137.68,459.62 133.00,456.09C128.32,452.56 120.49,446.25 115.59,442.08C110.68,437.91 103.78,431.91 100.24,428.75C96.70,425.59 92.94,423.00 91.90,423.00C90.85,423.00 90.00,423.64 90.00,424.42C90.00,425.21 91.16,427.23 92.58,428.91C94.00,430.60 99.51,435.22 104.83,439.17C110.15,443.12 117.20,448.88 120.50,451.96C123.80,455.04 128.53,459.20 131.00,461.19C133.47,463.19 138.85,466.88 142.95,469.41C147.05,471.93 151.23,474.00 152.24,474.00zM296.55,461.00C296.86,461.00 299.69,459.25 302.85,457.11C306.00,454.96 309.18,452.49 309.91,451.61C310.86,450.47 310.90,450.00 310.07,450.00C309.43,450.00 307.46,450.73 305.70,451.61C303.94,452.50 301.04,454.61 299.25,456.31C297.46,458.00 296.00,459.75 296.00,460.20C296.00,460.64 296.25,461.00 296.55,461.00zM44.89,417.00C44.42,417.00 42.68,414.64 41.01,411.75C39.34,408.86 37.07,403.59 35.95,400.03C34.65,395.86 33.40,387.12 32.46,375.55C31.66,365.65 31.00,354.65 31.00,351.10C31.00,347.56 31.54,341.70 32.20,338.08C33.40,331.50 33.40,331.50 34.15,337.84C34.56,341.33 35.88,347.18 37.08,350.84C38.28,354.50 41.00,362.12 43.13,367.76C45.26,373.40 47.00,379.67 47.00,381.68C47.00,385.35 47.00,385.35 44.59,383.09C43.27,381.84 40.78,378.18 39.05,374.95C37.33,371.71 35.46,368.78 34.89,368.43C34.33,368.09 33.64,368.02 33.37,368.30C33.10,368.57 33.37,372.55 33.98,377.15C34.62,382.00 37.32,392.09 40.41,401.25C43.34,409.91 45.36,417.00 44.89,417.00zM151.63,412.97C151.01,412.96 145.32,410.25 139.00,406.95C132.68,403.65 123.22,397.80 118.00,393.96C112.78,390.12 105.58,384.98 102.00,382.54C98.42,380.10 93.25,377.35 90.50,376.43C87.75,375.51 83.17,373.22 80.33,371.34C77.48,369.45 72.18,364.76 68.55,360.90C64.91,357.05 60.55,352.01 58.85,349.70C57.15,347.39 54.04,341.97 51.93,337.66C49.83,333.35 47.59,327.27 46.96,324.16C46.33,321.05 44.68,314.74 43.28,310.14C41.24,303.38 40.85,300.41 41.25,294.64C41.52,290.71 43.42,281.88 45.45,275.00C47.49,268.12 51.53,257.55 54.43,251.50C57.33,245.45 64.48,232.95 70.32,223.71C76.16,214.48 82.93,204.36 85.36,201.21C87.79,198.07 93.31,191.88 97.64,187.45C101.96,183.02 110.67,174.47 117.00,168.45C123.33,162.43 131.72,153.67 135.65,149.00C139.58,144.32 145.66,137.73 149.15,134.35C152.64,130.96 158.61,125.90 162.41,123.09C166.21,120.28 169.52,118.19 169.77,118.44C170.03,118.70 164.00,126.01 156.37,134.69C148.74,143.37 138.89,154.30 134.47,158.98C130.06,163.67 123.49,171.32 119.88,176.00C116.27,180.68 111.04,187.88 108.25,192.00C105.47,196.12 100.42,202.20 97.03,205.50C93.64,208.80 88.66,214.46 85.97,218.08C83.28,221.69 79.93,227.09 78.54,230.08C76.32,234.86 76.02,236.83 76.01,246.75C76.00,253.22 75.59,258.00 75.05,258.00C74.52,258.00 73.83,256.54 73.51,254.75C73.19,252.96 72.61,248.84 72.22,245.58C71.82,242.33 70.96,239.48 70.30,239.26C69.62,239.04 67.45,242.05 65.33,246.18C63.26,250.21 60.51,255.97 59.23,259.00C57.94,262.02 56.46,266.74 55.93,269.47C55.02,274.15 55.19,274.87 58.68,281.67C60.73,285.64 64.90,291.83 67.95,295.43C71.00,299.03 76.20,304.00 79.50,306.48C82.80,308.95 85.89,310.98 86.36,310.99C86.83,311.00 87.00,310.44 86.74,309.75C86.48,309.06 85.68,305.24 84.97,301.25C83.78,294.55 83.82,293.86 85.54,291.95C87.19,290.13 87.25,289.53 86.09,286.70C85.37,284.94 84.05,281.61 83.17,279.31C82.28,277.00 81.84,274.82 82.19,274.47C82.54,274.12 83.78,274.35 84.94,274.97C86.09,275.59 87.48,275.82 88.02,275.49C88.56,275.15 89.00,272.88 89.00,270.43C89.00,267.54 90.35,262.74 92.84,256.74C94.95,251.66 98.65,242.78 101.05,237.02C103.53,231.06 108.71,221.56 113.04,215.02C117.24,208.68 126.47,196.97 133.57,189.00C140.66,181.03 152.32,168.42 159.48,160.99C166.64,153.56 177.57,141.58 183.77,134.36C189.97,127.15 199.38,115.68 204.68,108.87C209.98,102.07 218.77,91.44 224.21,85.27C229.64,79.09 237.56,70.99 241.80,67.26C246.03,63.54 252.88,57.76 257.00,54.41C261.12,51.06 269.99,44.48 276.69,39.78C283.40,35.08 292.70,29.28 297.38,26.89C302.05,24.50 306.23,22.89 306.66,23.33C307.10,23.76 305.66,25.68 303.48,27.58C301.29,29.48 295.23,33.91 290.00,37.42C284.77,40.93 273.52,49.45 265.00,56.34C256.48,63.23 246.80,71.50 243.50,74.72C240.20,77.94 234.57,83.91 231.00,87.98C227.43,92.06 221.66,99.02 218.19,103.45C214.71,107.88 210.17,113.75 208.09,116.50C206.01,119.25 200.34,127.35 195.49,134.50C190.64,141.65 183.07,152.60 178.67,158.83C173.92,165.55 167.78,172.75 163.58,176.50C159.69,179.99 154.00,184.79 150.94,187.17C147.89,189.55 143.61,193.53 141.45,196.00C139.28,198.47 134.09,204.32 129.90,209.00C125.71,213.68 120.23,220.31 117.72,223.75C115.21,227.19 112.86,231.38 112.49,233.06C111.97,235.43 112.41,237.02 114.45,240.10C115.89,242.29 118.92,245.75 121.16,247.79C123.41,249.83 125.64,251.65 126.12,251.83C126.60,252.02 127.00,250.90 127.00,249.35C127.00,247.80 127.87,244.28 128.92,241.52C129.98,238.76 131.60,234.34 132.52,231.71C133.44,229.08 135.32,225.59 136.69,223.96C138.06,222.33 139.53,221.00 139.95,221.00C140.37,221.00 140.99,223.29 141.33,226.10C141.66,228.90 142.73,232.80 143.71,234.76C144.70,236.72 145.91,238.28 146.41,238.23C146.92,238.18 148.29,235.85 149.47,233.06C150.65,230.27 152.56,226.75 153.71,225.24C155.31,223.15 155.92,222.86 156.28,224.00C156.54,224.82 157.25,229.25 157.85,233.82C158.45,238.40 159.94,244.88 161.16,248.22C163.37,254.29 163.37,254.29 161.61,282.89C160.64,298.63 158.76,323.20 157.42,337.50C156.08,351.80 154.70,369.57 154.36,377.00C154.01,384.43 153.34,391.26 152.86,392.18C152.16,393.55 151.41,393.69 148.76,392.93C146.97,392.42 145.17,392.00 144.76,392.00C144.34,392.00 144.00,392.44 144.00,392.98C144.00,393.52 145.91,394.93 148.25,396.11C150.59,397.30 152.83,398.77 153.23,399.38C153.64,400.00 153.97,402.30 153.97,404.50C153.97,406.70 153.70,409.51 153.37,410.75C153.04,411.99 152.26,412.99 151.63,412.97zM113.42,373.98C113.93,373.99 113.26,372.82 111.92,371.39C110.59,369.95 106.95,366.80 103.83,364.39C100.71,361.97 97.44,360.00 96.58,360.00C95.71,360.00 95.00,360.39 95.00,360.87C95.00,361.35 97.05,363.64 99.56,365.95C102.07,368.26 106.01,371.01 108.31,372.05C110.61,373.10 112.92,373.97 113.42,373.98zM177.96,370.00C178.49,370.00 179.86,366.96 181.01,363.25C182.16,359.54 183.27,352.90 183.48,348.50C183.69,344.10 185.02,335.02 186.43,328.31C187.84,321.61 189.00,315.21 189.00,314.09C189.00,312.97 190.36,308.63 192.02,304.44C193.69,300.26 196.59,294.43 198.47,291.48C200.35,288.54 204.82,283.07 208.41,279.32C214.21,273.26 214.93,272.78 214.92,275.00C214.92,276.38 214.28,279.30 213.51,281.50C212.11,285.50 212.11,285.50 214.31,282.78C215.51,281.28 218.70,276.33 221.39,271.78C224.08,267.23 228.31,260.12 230.79,256.00C233.28,251.88 238.16,243.40 241.64,237.16C245.12,230.92 252.42,219.90 257.87,212.66C263.32,205.42 272.65,193.70 278.59,186.60C284.54,179.51 292.29,171.33 295.82,168.41C299.36,165.50 305.45,161.45 309.37,159.41C313.29,157.38 318.52,154.25 321.00,152.47C323.48,150.69 331.57,145.77 339.00,141.53C346.43,137.30 354.96,131.99 357.96,129.73C360.96,127.47 368.11,120.89 373.85,115.12C379.59,109.35 386.94,101.05 390.18,96.68C393.42,92.31 395.84,88.51 395.56,88.23C395.28,87.95 392.56,89.60 389.51,91.91C386.45,94.21 381.70,98.10 378.95,100.55C376.19,103.00 373.47,105.00 372.91,105.00C372.34,105.00 372.09,104.66 372.35,104.25C372.61,103.84 374.89,100.43 377.41,96.67C379.94,92.92 382.00,89.16 382.00,88.33C382.00,87.31 380.45,88.09 377.25,90.71C374.64,92.85 368.45,97.46 363.50,100.96C358.55,104.45 350.00,110.94 344.50,115.37C339.00,119.80 328.43,129.33 321.00,136.55C313.57,143.77 305.52,151.10 303.09,152.84C300.66,154.59 298.50,155.83 298.28,155.61C298.05,155.39 299.48,152.01 301.45,148.10C303.42,144.20 304.64,141.00 304.17,141.00C303.71,141.00 298.38,145.84 292.34,151.75C286.30,157.66 276.89,167.90 271.43,174.51C265.97,181.11 257.68,191.39 253.00,197.35C248.32,203.31 240.09,213.88 234.71,220.84C229.32,227.81 221.86,237.55 218.12,242.50C214.39,247.45 209.40,254.88 207.05,259.00C204.69,263.12 201.02,269.23 198.89,272.56C196.76,275.89 193.94,281.29 192.62,284.56C191.30,287.83 189.45,293.88 188.51,298.00C187.57,302.12 184.99,311.80 182.78,319.50C180.57,327.20 178.41,335.07 177.97,337.00C177.53,338.93 177.06,344.10 176.93,348.50C176.79,352.90 176.75,359.54 176.84,363.25C176.93,366.96 177.43,370.00 177.96,370.00zM525.60,366.00C525.99,366.00 528.70,364.16 531.61,361.92C534.52,359.67 539.31,355.06 542.25,351.67C545.20,348.27 551.18,341.07 555.55,335.65C559.92,330.22 565.45,323.25 567.83,320.15C570.21,317.04 576.69,307.75 582.24,299.50C587.79,291.25 594.60,281.57 597.37,278.00C600.15,274.43 605.40,268.08 609.05,263.90C612.70,259.72 621.60,250.23 628.83,242.82C636.06,235.42 643.63,227.24 645.64,224.66C647.65,222.08 649.02,219.69 648.68,219.35C648.34,219.01 645.01,221.45 641.28,224.76C637.55,228.07 627.74,237.70 619.48,246.14C611.22,254.59 601.42,265.32 597.70,270.00C593.98,274.68 587.27,283.90 582.78,290.50C578.29,297.10 572.06,305.88 568.95,310.00C565.83,314.12 558.64,323.80 552.96,331.50C547.28,339.20 538.97,349.55 534.50,354.50C530.02,359.45 526.03,364.06 525.62,364.75C525.21,365.44 525.20,366.00 525.60,366.00zM118.75,360.00C119.44,360.00 120.00,359.61 120.00,359.14C120.00,358.66 117.86,356.29 115.25,353.86C112.64,351.43 106.67,346.79 102.00,343.54C97.33,340.29 91.47,336.01 89.00,334.04C86.53,332.06 83.62,329.78 82.54,328.97C80.76,327.64 80.78,327.79 82.75,330.60C83.95,332.31 86.63,334.98 88.71,336.54C90.80,338.11 96.55,343.07 101.50,347.57C106.45,352.07 112.08,356.71 114.00,357.87C115.92,359.04 118.06,359.99 118.75,360.00zM144.17,357.00C144.68,357.00 145.81,355.31 146.68,353.25C147.55,351.19 148.87,345.45 149.62,340.50C150.37,335.55 150.99,329.64 150.99,327.36C151.00,323.22 151.00,323.22 139.96,317.11C133.88,313.75 128.48,311.00 127.96,311.00C127.43,311.00 127.00,312.80 127.00,315.00C127.00,317.85 126.58,319.00 125.54,319.00C124.73,319.00 123.60,319.87 123.04,320.93C122.47,322.00 122.00,324.18 122.00,325.79C122.00,327.39 121.59,330.01 121.09,331.60C120.58,333.20 119.91,336.03 119.58,337.90C119.06,340.91 119.44,341.73 122.95,345.06C125.12,347.13 130.58,350.67 135.07,352.91C139.56,355.16 143.65,357.00 144.17,357.00zM236.15,347.00C236.62,347.00 237.00,346.30 237.00,345.44C237.00,344.58 234.68,341.43 231.85,338.44C229.03,335.45 226.10,333.00 225.35,333.00C224.61,333.00 224.00,333.80 224.00,334.78C224.00,335.76 224.72,337.59 225.61,338.85C226.49,340.11 229.03,342.46 231.26,344.07C233.48,345.68 235.68,347.00 236.15,347.00zM612.00,333.01C613.38,332.30 616.91,329.65 619.85,327.11C622.80,324.58 626.85,321.00 628.85,319.18C630.86,317.35 631.83,316.19 631.00,316.61C630.17,317.02 625.90,320.15 621.50,323.57C617.10,326.99 612.60,330.80 611.50,332.04C609.50,334.29 609.50,334.29 612.00,333.01zM105.25,321.99C105.66,322.00 106.00,321.32 106.00,320.48C106.00,319.34 106.65,319.13 108.61,319.62C111.09,320.24 111.16,320.16 109.95,317.89C109.26,316.57 106.79,313.02 104.46,310.00C102.13,306.98 99.05,303.41 97.61,302.08C95.20,299.84 95.00,299.80 95.00,301.58C95.00,302.64 95.43,305.02 95.96,306.87C96.49,308.71 98.63,312.87 100.71,316.10C102.80,319.34 104.84,321.99 105.25,321.99zM458.57,321.00C458.88,321.00 460.11,320.48 461.32,319.84C462.52,319.21 465.35,317.18 467.60,315.35C469.86,313.51 477.73,305.38 485.10,297.29C492.47,289.19 501.16,279.74 504.41,276.29C507.66,272.83 509.97,270.00 509.54,270.00C509.11,270.00 506.00,271.97 502.63,274.38C499.26,276.79 494.42,280.50 491.88,282.63C489.34,284.76 482.80,291.45 477.33,297.50C471.87,303.55 465.29,311.11 462.70,314.29C460.12,317.47 458.00,320.29 458.00,320.54C458.00,320.79 458.25,321.00 458.57,321.00zM145.65,306.00C146.44,306.00 147.00,304.92 147.00,303.41C147.00,301.64 145.30,299.06 141.64,295.25C137.90,291.36 135.79,289.87 134.64,290.31C133.74,290.65 133.00,291.98 133.00,293.25C133.00,294.52 133.72,296.59 134.61,297.85C135.49,299.11 138.03,301.46 140.26,303.07C142.48,304.68 144.91,306.00 145.65,306.00zM171.98,290.00C171.51,290.00 170.81,288.99 170.41,287.75C170.01,286.51 169.74,279.94 169.80,273.15C169.87,266.36 170.42,257.14 171.02,252.65C171.62,248.17 173.03,241.35 174.14,237.50C175.25,233.65 177.20,227.57 178.48,224.00C179.75,220.43 182.60,213.45 184.80,208.50C186.99,203.55 191.75,193.65 195.36,186.50C198.98,179.35 203.52,169.22 205.46,164.00C207.40,158.78 208.99,153.93 209.00,153.23C209.00,152.53 210.71,149.16 212.80,145.73C214.88,142.30 219.11,136.12 222.19,132.00C225.27,127.88 230.42,121.48 233.64,117.80C236.86,114.11 244.90,105.33 251.50,98.28C258.10,91.24 269.05,80.53 275.82,74.49C282.60,68.44 294.75,57.07 302.82,49.21C310.90,41.36 320.48,32.47 324.11,29.46C327.75,26.46 331.22,24.00 331.83,24.00C332.45,24.00 332.67,24.77 332.33,25.75C331.99,26.71 329.17,31.32 326.06,36.00C322.94,40.67 315.74,51.25 310.06,59.50C304.38,67.75 295.17,80.35 289.60,87.50C284.03,94.65 276.55,104.07 272.99,108.43C269.42,112.79 260.88,123.18 254.00,131.52C247.12,139.85 237.95,150.69 233.60,155.59C229.26,160.49 223.27,167.78 220.29,171.78C217.31,175.79 212.50,183.49 209.61,188.89C206.71,194.30 202.86,202.50 201.05,207.11C199.23,211.72 195.75,219.87 193.31,225.21C190.53,231.28 188.65,237.00 188.29,240.46C187.80,245.24 187.95,246.00 189.43,246.00C190.36,246.00 192.00,245.53 193.07,244.96C194.41,244.24 195.00,244.25 195.00,244.99C195.00,245.58 193.44,249.22 191.52,253.09C189.61,256.96 187.11,261.44 185.96,263.05C184.82,264.66 182.29,269.47 180.35,273.74C178.41,278.01 175.92,283.41 174.82,285.75C173.72,288.09 172.44,290.00 171.98,290.00zM152.14,266.00C152.61,266.00 153.00,265.37 153.00,264.59C153.00,263.82 150.70,261.12 147.89,258.59C145.08,256.07 142.16,254.00 141.39,254.00C140.63,254.00 140.00,254.25 140.00,254.57C140.00,254.88 140.46,255.99 141.02,257.03C141.58,258.08 144.12,260.53 146.66,262.47C149.21,264.41 151.67,266.00 152.14,266.00zM241.27,251.50C242.07,250.40 244.23,246.80 246.07,243.50C248.18,239.71 248.76,238.02 247.65,238.92C246.68,239.70 244.83,242.18 243.55,244.42C242.26,246.66 240.89,249.62 240.51,251.00C239.84,253.40 239.87,253.42 241.27,251.50zM347.82,252.00C347.28,252.00 347.90,250.09 349.21,247.75C350.52,245.41 356.13,238.10 361.68,231.50C367.24,224.90 374.53,216.35 377.89,212.50C381.25,208.65 385.92,203.03 388.26,200.00C390.60,196.97 397.53,187.97 403.66,180.00C409.79,172.03 416.08,164.32 417.65,162.88C419.22,161.44 423.84,157.73 427.92,154.63C432.01,151.53 435.72,149.00 436.17,149.00C436.63,149.00 437.00,149.34 437.00,149.75C437.00,150.16 435.37,153.20 433.38,156.50C431.40,159.80 425.88,167.65 421.13,173.96C416.39,180.26 408.88,189.26 404.46,193.96C400.04,198.65 392.17,207.45 386.97,213.50C381.77,219.55 373.24,228.95 368.01,234.39C362.78,239.83 356.32,246.02 353.66,248.14C351.00,250.26 348.37,252.00 347.82,252.00zM168.94,229.54C168.42,229.86 168.01,228.42 168.02,226.31C168.03,223.68 169.83,218.94 173.84,211.00C177.04,204.68 182.66,193.97 186.35,187.22C190.03,180.47 194.67,172.68 196.65,169.93C198.63,167.17 200.46,165.12 200.71,165.37C200.96,165.63 197.52,172.55 193.07,180.76C188.61,188.97 182.78,200.59 180.11,206.59C177.44,212.59 174.05,220.08 172.56,223.23C171.08,226.38 169.45,229.22 168.94,229.54zM163.74,217.54C162.85,218.32 161.83,218.33 160.15,217.57C158.04,216.61 157.86,216.02 158.34,211.83C158.64,209.27 160.32,204.32 162.08,200.84C163.84,197.35 165.95,193.47 166.78,192.22C168.19,190.06 168.38,190.03 170.14,191.62C171.20,192.59 171.99,194.64 171.98,196.40C171.97,198.11 170.39,203.31 168.47,207.97C166.56,212.63 164.43,216.94 163.74,217.54zM224.93,150.00C225.44,150.00 227.25,148.31 228.96,146.25C230.67,144.19 232.33,141.47 232.65,140.20C232.98,138.94 232.96,137.63 232.63,137.29C232.29,136.96 231.14,137.47 230.07,138.44C229.00,139.40 227.20,142.17 226.06,144.59C224.93,147.00 224.00,149.21 224.00,149.49C224.00,149.77 224.42,150.00 224.93,150.00zM433.67,126.00C434.13,125.99 436.33,124.76 438.57,123.25C440.82,121.74 451.45,113.63 462.21,105.24C473.70,96.28 484.20,87.19 487.64,83.24C493.15,76.90 493.26,76.68 489.50,79.47C487.30,81.10 482.80,84.70 479.50,87.47C476.20,90.25 465.40,98.69 455.50,106.24C445.60,113.79 436.45,121.32 435.17,122.98C433.89,124.64 433.22,126.00 433.67,126.00z" />

</svg>