<?xml version="1.0" encoding="UTF-8" standalone="no"?>
<svg 
  version="1.1" 
  xmlns="http://www.w3.org/2000/svg" 
  xmlns:xlink="http://www.w3.org/1999/xlink" 
  xmlns:svg="http://www.w3.org/2000/svg"
  xmlns:rdf="http://www.w3.org/1999/02/22-rdf-syntax-ns#"
  xmlns:cc="http://creativecommons.org/ns#"
  xmlns:dc="http://purl.org/dc/elements/1.1/"
  viewBox="0 0 768 768"
  width="768"
  height="768"
>
<style>svg {background-color: white; }</style>"
<metadata id="metadata1">
Created by https://svgstud.io and licensed under CC-BY-SA 4.0 license. Please attribute https://svgstud.io
</metadata>
<metadata id="prompt">
riverbed from above
</metadata>
<metadata id="version">
7
</metadata>
<metadata id="metadata2">
<rdf:RDF>
<cc:Work
    rdf:about="">
    <cc:license
    rdf:resource="http://creativecommons.org/licenses/by-sa/4.0/" />
    <dc:creator>
        <cc:Agent>
            <dc:title>https://svgstud.io</dc:title>
        </cc:Agent>
    </dc:creator>
</cc:Work>
<cc:License
    rdf:about="http://creativecommons.org/licenses/by-sa/4.0/">
    <cc:permits
    rdf:resource="http://creativecommons.org/ns#Reproduction" />
    <cc:permits
    rdf:resource="http://creativecommons.org/ns#Distribution" />
    <cc:requires
    rdf:resource="http://creativecommons.org/ns#Notice" />
    <cc:requires
    rdf:resource="http://creativecommons.org/ns#Attribution" />
    <cc:permits
    rdf:resource="http://creativecommons.org/ns#DerivativeWorks" />
    <cc:requires
    rdf:resource="http://creativecommons.org/ns#ShareAlike" />
</cc:License>
</rdf:RDF>
</metadata>
<metadata id="uid">
198f31bc3255b2f0cf86f48913aff2c176948df65312ef88f02e2a0d96432766
</metadata>
<path stroke="none" fill="black" fill-rule="evenodd" d="M108.73,768.00C53.46,768.00 53.46,768.00 49.48,765.36C47.29,763.90 42.80,760.43 39.50,757.63C36.20,754.83 31.54,750.51 29.13,748.02C26.73,745.53 21.90,739.84 18.39,735.37C14.89,730.90 10.20,723.70 7.98,719.37C5.77,715.04 3.29,709.28 2.47,706.57C1.66,703.86 1.00,699.74 1.00,697.43C1.00,693.84 1.35,693.13 3.36,692.62C4.66,692.30 11.75,692.27 19.11,692.56C26.47,692.86 40.04,694.19 49.25,695.52C58.47,696.85 71.74,699.12 78.75,700.56C85.76,702.00 95.78,704.54 101.00,706.21C106.22,707.87 114.10,711.01 118.50,713.18C122.90,715.36 130.49,719.83 135.37,723.11C140.25,726.40 143.98,728.39 143.65,727.54C143.33,726.69 143.43,726.00 143.88,726.00C144.32,726.00 147.35,728.33 150.59,731.17C154.97,734.99 156.58,735.92 156.81,734.74C156.98,733.87 156.21,731.37 155.10,729.19C153.98,727.01 150.44,721.91 147.21,717.86C143.69,713.43 137.68,707.71 132.14,703.50C124.06,697.36 123.24,696.46 125.44,696.19C126.82,696.01 130.77,696.59 134.23,697.47C137.68,698.34 143.88,701.10 148.00,703.59C152.12,706.08 158.82,711.25 162.87,715.06C166.93,718.88 170.43,722.00 170.66,722.00C170.88,722.00 170.65,721.21 170.13,720.25C169.61,719.29 166.91,715.38 164.12,711.56C161.33,707.74 159.22,704.44 159.43,704.23C159.64,704.03 161.54,704.33 163.66,704.92C165.77,705.51 168.25,705.99 169.16,705.99C170.34,706.00 170.66,705.41 170.27,703.93C169.74,701.91 169.82,701.90 173.47,703.42C175.53,704.28 179.36,706.56 181.98,708.48C184.59,710.40 187.30,712.66 187.99,713.49C188.68,714.32 189.82,715.00 190.53,715.00C191.57,715.00 191.55,713.97 190.42,709.75C189.65,706.86 189.02,703.96 189.01,703.30C189.00,702.43 190.02,702.52 192.75,703.63C194.81,704.48 199.09,707.15 202.25,709.58C205.41,712.01 208.00,713.56 208.00,713.03C208.00,712.49 206.90,709.57 205.56,706.53C204.21,703.49 203.25,701.00 203.42,701.00C203.59,701.00 206.07,701.45 208.94,701.99C211.81,702.53 215.43,703.88 216.99,704.99C218.54,706.10 220.08,707.00 220.40,707.00C220.73,707.00 221.00,706.35 221.00,705.57C221.00,704.78 218.72,701.29 215.93,697.82C213.14,694.34 204.93,686.15 197.68,679.62C190.43,673.08 181.12,665.02 177.00,661.70C172.88,658.39 165.10,652.82 159.73,649.34C154.35,645.85 146.76,641.40 142.87,639.43C138.97,637.47 131.78,634.10 126.89,631.95C122.00,629.80 111.14,626.25 102.75,624.07C94.36,621.88 80.75,618.76 72.50,617.12C64.25,615.49 52.78,613.43 47.00,612.53C41.22,611.64 29.30,610.14 20.50,609.21C4.50,607.50 4.50,607.50 4.24,573.69C3.97,539.87 3.97,539.87 8.74,540.53C11.36,540.90 16.88,542.04 21.00,543.08C25.12,544.11 30.92,545.89 33.87,547.02C36.83,548.16 41.11,550.03 43.37,551.18C45.64,552.33 49.19,554.59 51.25,556.22C53.31,557.84 55.00,558.86 55.00,558.49C55.00,558.12 53.19,555.23 50.97,552.08C48.76,548.92 45.61,545.35 43.97,544.14C42.34,542.93 41.00,541.50 41.00,540.97C41.00,540.44 42.24,540.00 43.75,540.01C45.26,540.01 50.91,541.54 56.30,543.39C61.68,545.25 68.80,548.44 72.11,550.49C75.42,552.53 78.32,554.01 78.55,553.78C78.79,553.55 77.65,551.27 76.03,548.71C73.09,544.07 73.09,544.07 76.29,544.69C78.06,545.03 81.19,545.90 83.26,546.61C85.33,547.33 89.06,549.32 91.55,551.03C94.03,552.74 96.56,553.98 97.17,553.78C97.78,553.57 96.27,550.95 93.83,547.95C91.38,544.95 86.44,540.25 82.84,537.50C79.24,534.75 74.99,531.49 73.40,530.25C70.50,528.00 70.50,528.00 74.00,528.47C75.92,528.72 80.69,529.45 84.60,530.10C88.50,530.74 92.33,531.05 93.10,530.80C93.95,530.51 91.03,527.81 85.68,523.91C76.86,517.50 76.86,517.50 82.86,517.20C86.16,517.04 91.66,517.64 95.11,518.53C98.54,519.42 103.41,521.22 105.93,522.53C108.44,523.85 111.96,525.88 113.75,527.06C115.55,528.25 117.00,528.70 117.00,528.07C117.00,527.35 118.16,527.54 120.25,528.61C122.04,529.53 125.19,531.60 127.25,533.22C129.31,534.84 131.00,535.79 130.99,535.33C130.99,534.88 129.66,532.20 128.05,529.40C126.44,526.59 122.23,521.64 118.69,518.40C115.15,515.15 108.80,510.48 104.59,508.00C96.93,503.50 96.93,503.50 100.09,502.57C102.14,501.97 105.54,502.03 109.71,502.74C113.27,503.35 118.64,505.06 121.65,506.53C124.66,508.00 127.34,509.00 127.60,508.74C127.86,508.48 126.33,506.07 124.21,503.38C122.08,500.70 117.81,496.48 114.72,494.00C111.63,491.52 109.07,489.16 109.05,488.75C109.02,488.34 111.14,488.01 113.75,488.03C116.36,488.05 120.75,488.85 123.50,489.81C126.25,490.76 131.81,493.70 135.86,496.33C139.91,498.96 143.48,500.85 143.79,500.54C144.10,500.23 143.60,498.39 142.68,496.45C141.76,494.52 141.00,492.72 141.00,492.47C141.00,492.21 142.06,492.00 143.37,492.00C144.67,492.00 148.97,493.62 152.93,495.60C156.89,497.58 160.33,499.00 160.57,498.76C160.82,498.52 159.68,496.47 158.04,494.22C156.41,491.97 152.70,488.35 149.79,486.18C146.88,484.01 138.95,479.02 132.16,475.09C125.37,471.16 116.37,465.36 112.16,462.20C107.95,459.04 102.68,455.28 100.45,453.84C98.22,452.41 94.17,450.12 91.45,448.75C88.73,447.39 82.40,444.66 77.39,442.69C72.38,440.72 63.83,437.99 58.39,436.63C52.95,435.27 44.00,433.47 38.50,432.64C33.00,431.81 23.32,430.60 17.00,429.96C10.68,429.32 5.16,428.59 4.75,428.34C4.34,428.09 4.00,419.06 4.00,408.29C4.00,388.69 4.00,388.69 14.75,389.37C20.66,389.75 28.42,390.63 32.00,391.33C38.50,392.61 38.50,392.61 31.50,393.84C27.65,394.52 23.00,395.34 21.18,395.66C19.35,395.99 18.22,396.61 18.68,397.05C19.13,397.49 28.50,399.70 39.50,401.97C50.50,404.24 63.59,406.99 68.60,408.09C73.60,409.19 80.57,411.45 84.10,413.12C90.50,416.14 90.50,416.14 87.00,412.47C85.08,410.46 81.65,407.52 79.38,405.95C77.11,404.37 71.94,401.77 67.88,400.17C63.82,398.57 57.24,396.42 53.25,395.41C49.26,394.39 46.00,393.26 46.00,392.90C46.00,392.54 47.41,391.97 49.12,391.62C50.84,391.28 56.42,391.00 61.51,391.00C66.61,391.00 74.42,391.69 78.88,392.54C83.33,393.38 90.83,395.69 95.56,397.67C100.28,399.64 109.35,404.59 115.71,408.66C122.07,412.72 127.42,415.92 127.58,415.75C127.75,415.59 126.49,413.21 124.80,410.48C123.11,407.74 119.04,402.46 115.76,398.75C109.79,392.00 109.79,392.00 113.21,392.00C115.09,392.00 120.20,392.93 124.56,394.07C128.93,395.21 135.43,397.16 139.00,398.41C142.57,399.65 146.37,401.05 147.42,401.51C149.00,402.20 149.23,402.03 148.67,400.59C148.30,399.62 148.34,399.00 148.75,399.21C149.16,399.42 152.20,400.89 155.50,402.46C158.80,404.04 164.09,407.35 167.26,409.82C170.43,412.29 173.32,414.02 173.68,413.65C174.04,413.29 173.70,411.79 172.92,410.32C172.14,408.84 167.95,403.88 163.62,399.29C159.25,394.67 152.11,388.56 147.62,385.58C143.15,382.63 135.90,378.43 131.50,376.24C127.10,374.06 118.21,370.31 111.75,367.90C105.29,365.50 100.00,363.19 100.00,362.77C100.00,362.34 102.59,362.01 105.75,362.02C108.91,362.03 116.00,362.69 121.50,363.49C127.00,364.28 132.85,364.93 134.50,364.93C137.50,364.92 137.50,364.92 134.33,362.21C132.59,360.72 127.34,357.02 122.65,354.00C117.96,350.98 114.10,348.13 114.06,347.69C114.03,347.24 116.14,347.17 118.75,347.54C121.36,347.90 126.95,349.05 131.18,350.10C135.40,351.15 142.55,353.56 147.06,355.46C151.57,357.37 156.04,359.63 156.99,360.49C157.94,361.35 159.53,363.85 160.51,366.03C161.50,368.21 162.63,370.00 163.03,370.00C163.42,370.00 164.02,368.64 164.35,366.98C164.69,365.32 164.67,361.84 164.31,359.23C163.72,354.90 163.81,354.62 165.33,355.87C166.85,357.12 167.00,356.82 167.00,352.62C167.00,350.08 167.39,348.00 167.87,348.00C168.35,348.00 169.49,350.70 170.42,354.00C171.35,357.30 172.67,360.00 173.35,360.00C174.04,360.00 175.54,358.09 176.69,355.75C178.77,351.50 178.77,351.50 178.63,359.00C178.50,366.50 178.50,366.50 181.72,367.00C183.49,367.27 187.02,369.25 189.57,371.38C192.11,373.52 194.61,376.45 195.11,377.89C195.62,379.34 197.60,381.77 199.51,383.30C201.62,384.99 203.00,385.57 203.00,384.78C203.00,384.07 201.87,382.27 200.50,380.78C199.12,379.30 198.00,377.84 198.00,377.54C198.00,377.24 198.56,377.00 199.25,377.01C199.94,377.02 202.97,378.17 206.00,379.57C209.03,380.98 212.78,383.34 214.34,384.81C215.90,386.29 217.81,388.72 218.59,390.20C219.37,391.69 220.00,394.16 220.00,395.70C219.99,397.24 219.12,399.93 218.06,401.67C217.00,403.41 213.71,406.66 210.76,408.89C207.80,411.12 201.58,414.73 196.94,416.91C192.29,419.09 184.61,421.99 179.86,423.37C175.12,424.74 165.89,426.83 159.37,428.00C152.84,429.17 144.35,431.03 140.50,432.14C136.65,433.25 129.89,435.89 125.48,438.00C121.06,440.11 115.32,443.82 112.73,446.24C109.98,448.79 108.00,451.52 108.00,452.74C108.00,454.51 109.95,455.59 120.25,459.52C126.99,462.09 135.65,465.70 139.50,467.54C143.35,469.38 149.60,473.44 153.39,476.58C157.80,480.23 163.44,483.62 169.09,486.04C173.93,488.11 179.88,491.23 182.30,492.96C184.72,494.70 187.67,497.85 188.85,499.95C190.03,502.05 191.00,504.86 191.00,506.19C191.00,507.52 189.69,510.68 188.08,513.21C186.07,516.38 183.23,518.94 178.91,521.47C175.47,523.49 167.22,526.87 160.58,528.99C153.93,531.10 147.52,533.12 146.33,533.46C145.14,533.80 143.00,535.00 141.58,536.11C140.05,537.32 139.00,539.15 139.00,540.62C139.00,541.98 138.35,544.36 137.55,545.90C136.75,547.44 134.52,550.09 132.59,551.79C130.66,553.48 127.15,555.99 124.79,557.35C122.43,558.72 116.45,561.38 111.50,563.26C106.55,565.15 99.35,567.63 95.50,568.79C91.65,569.94 84.00,571.82 78.50,572.97C73.00,574.12 61.98,576.35 54.00,577.93C46.02,579.51 37.36,581.10 34.75,581.46C32.14,581.82 30.00,582.56 30.00,583.09C30.00,583.63 30.56,584.23 31.25,584.43C31.94,584.64 41.05,587.51 51.50,590.81C64.62,594.95 75.30,597.60 86.00,599.36C94.53,600.76 106.90,602.58 113.50,603.40C120.10,604.23 130.45,605.37 136.50,605.93C142.55,606.50 156.72,607.42 168.00,607.98C179.28,608.53 191.65,609.24 195.50,609.55C199.35,609.85 211.72,611.24 223.00,612.64C234.28,614.03 248.55,616.26 254.73,617.59C260.91,618.91 266.93,620.00 268.11,620.00C269.99,620.00 270.08,619.80 268.87,618.33C268.12,617.41 262.10,614.11 255.50,611.00C248.90,607.88 237.32,602.90 229.76,599.92C222.20,596.94 216.01,594.23 216.01,593.90C216.00,593.57 220.82,592.98 226.71,592.60C232.60,592.22 237.67,591.67 237.96,591.37C238.26,591.08 237.64,590.21 236.60,589.45C235.56,588.69 231.29,586.93 227.11,585.55C222.92,584.16 213.88,582.10 207.00,580.95C200.12,579.81 193.20,578.12 191.61,577.19C190.01,576.26 188.23,574.73 187.64,573.79C186.79,572.45 187.09,571.53 189.03,569.45C190.39,568.00 192.32,566.37 193.33,565.83C194.72,565.08 195.48,565.27 196.46,566.62C197.61,568.19 198.22,568.25 201.90,567.15C204.18,566.47 206.59,565.03 207.26,563.95C208.08,562.64 209.59,562.00 211.87,562.00C214.59,562.00 216.09,562.88 219.38,566.39C221.65,568.80 224.40,571.96 225.50,573.40C226.82,575.14 229.37,576.53 233.00,577.51C236.03,578.32 243.22,580.10 249.00,581.46C254.78,582.82 264.76,585.09 271.18,586.50C277.60,587.91 286.60,589.73 291.18,590.53C295.76,591.34 300.74,592.00 302.25,592.00C303.76,592.00 305.00,591.56 305.00,591.01C305.00,590.47 301.29,588.14 296.75,585.84C289.80,582.31 288.87,581.56 290.82,581.07C292.10,580.75 298.27,580.80 304.54,581.17C310.80,581.53 318.53,582.58 321.71,583.50C324.90,584.41 329.38,586.25 331.68,587.58C333.98,588.91 336.34,590.00 336.93,590.00C337.52,590.00 338.00,589.51 338.00,588.90C338.00,588.30 335.00,584.70 331.34,580.90C324.67,574.00 324.67,574.00 328.37,574.00C330.40,574.00 334.84,574.94 338.24,576.08C341.64,577.23 346.28,579.25 348.55,580.58C350.82,581.91 352.96,583.00 353.31,583.00C353.65,583.00 353.65,582.21 353.29,581.25C352.94,580.29 351.39,577.95 349.86,576.06C348.32,574.17 344.06,570.23 340.39,567.30C336.71,564.38 331.30,560.60 328.35,558.92C325.41,557.23 323.00,555.60 323.00,555.30C323.00,554.99 327.10,555.06 332.11,555.45C338.19,555.93 341.01,555.83 340.60,555.15C340.25,554.60 334.30,551.38 327.36,548.01C320.43,544.64 311.32,540.49 307.13,538.79C302.93,537.09 293.65,533.74 286.50,531.34C273.50,526.98 273.50,526.98 285.00,527.44C291.35,527.69 302.52,529.08 309.95,530.53C317.34,531.97 328.82,534.92 335.45,537.09C342.08,539.26 352.90,543.67 359.51,546.91C366.11,550.14 374.30,554.88 377.71,557.44C381.11,560.00 385.89,564.31 388.32,567.01C390.75,569.71 394.61,575.52 396.90,579.92C399.18,584.32 402.22,589.29 403.64,590.98C405.06,592.67 410.18,597.41 415.01,601.51C421.40,606.93 424.52,610.40 426.40,614.18C428.17,617.73 429.00,621.00 429.00,624.45C428.99,627.80 428.29,630.65 426.91,632.92C425.76,634.80 422.75,638.74 420.21,641.69C417.67,644.63 412.42,649.22 408.54,651.89C404.67,654.56 398.35,658.31 394.50,660.22C390.65,662.14 384.35,664.88 380.50,666.33C376.65,667.77 369.18,670.28 363.90,671.89C358.62,673.51 349.17,675.98 342.90,677.38C336.63,678.77 321.82,681.29 310.00,682.97C298.18,684.65 283.27,687.32 276.89,688.90C270.50,690.48 261.50,693.56 256.89,695.74C252.27,697.93 246.14,701.61 243.25,703.94C240.36,706.27 237.74,709.20 237.42,710.46C237.11,711.72 237.56,715.13 238.42,718.05C239.29,720.97 240.00,724.37 240.00,725.60C240.00,726.84 238.85,729.21 237.45,730.87C236.05,732.54 232.42,735.07 229.39,736.51C226.35,737.95 216.72,740.91 207.99,743.09C199.26,745.28 188.95,748.37 185.09,749.96C181.22,751.56 176.08,754.23 173.65,755.90C171.22,757.57 168.05,760.34 166.62,762.05C165.18,763.75 164.00,765.79 164.00,766.58C164.00,767.79 155.87,768.00 108.73,768.00zM89.58,732.00C89.78,732.00 89.69,731.35 89.39,730.57C89.08,729.78 86.40,727.45 83.42,725.40C80.44,723.35 77.73,721.94 77.40,722.26C77.07,722.59 79.60,724.92 83.01,727.43C86.43,729.94 89.38,732.00 89.58,732.00zM763.25,702.95C762.84,702.93 756.65,700.69 749.50,697.97C742.35,695.26 732.90,692.15 728.50,691.07C724.10,689.99 713.67,687.97 705.33,686.58C696.99,685.20 687.09,683.36 683.33,682.51C679.57,681.65 672.67,679.05 668.00,676.73C660.95,673.22 659.19,671.86 657.66,668.73C656.16,665.67 656.02,664.38 656.89,661.87C657.49,660.17 660.23,655.74 662.99,652.02C665.74,648.30 668.00,644.76 668.00,644.16C668.00,643.56 667.13,642.60 666.06,642.03C664.99,641.46 656.72,639.22 647.69,637.05C638.66,634.88 628.71,631.89 625.58,630.41C621.32,628.39 619.42,626.79 618.01,624.01C616.12,620.31 616.12,620.31 602.31,617.56C594.71,616.05 584.45,613.52 579.50,611.93C574.55,610.34 568.27,607.57 565.53,605.77C562.05,603.48 560.29,601.53 559.64,599.25C558.87,596.56 559.16,595.14 561.36,590.91C562.81,588.11 564.00,585.17 564.00,584.38C564.00,583.60 562.89,582.53 561.52,582.01C560.16,581.49 552.85,579.90 545.27,578.46C537.70,577.03 527.90,574.96 523.50,573.85C519.10,572.74 512.45,570.24 508.72,568.28C504.99,566.32 500.83,563.40 499.47,561.78C497.96,559.99 497.01,557.62 497.02,555.67C497.04,553.93 498.16,549.80 499.52,546.50C500.88,543.20 501.99,539.50 502.00,538.27C502.00,536.79 500.33,534.73 497.01,532.10C494.27,529.93 489.65,526.82 486.76,525.18C483.87,523.55 477.23,520.62 472.00,518.69C466.77,516.75 454.85,513.53 445.50,511.52C436.15,509.52 424.97,506.99 420.65,505.90C416.34,504.80 409.25,502.61 404.91,501.03C400.56,499.44 395.77,497.27 394.26,496.20C392.74,495.13 389.70,493.36 387.50,492.26C385.30,491.15 379.45,489.31 374.50,488.17C369.55,487.02 353.96,484.27 339.86,482.04C325.76,479.82 309.78,477.10 304.36,475.99C298.94,474.89 288.88,472.36 282.00,470.39C275.12,468.41 265.68,465.01 261.00,462.84C256.33,460.67 251.20,457.68 249.62,456.20C248.04,454.71 245.89,451.62 244.85,449.32C243.12,445.48 243.09,444.77 244.42,440.82C245.28,438.30 247.47,435.09 249.69,433.13C251.79,431.27 257.53,427.44 262.45,424.60C270.41,420.02 271.79,418.79 274.88,413.50C276.79,410.23 280.55,405.44 283.24,402.87C285.92,400.29 291.13,396.61 294.81,394.69C298.49,392.77 303.94,390.48 306.92,389.60C309.90,388.72 312.48,388.15 312.66,388.32C312.83,388.50 310.00,391.09 306.37,394.07C302.74,397.06 297.78,401.92 295.35,404.88C292.92,407.84 291.11,410.45 291.33,410.66C291.55,410.88 295.05,409.30 299.11,407.14C303.18,404.98 308.18,402.69 310.23,402.04C312.29,401.39 314.99,401.01 316.23,401.20C318.23,401.51 317.44,402.66 309.40,411.03C304.40,416.24 298.84,422.67 297.06,425.31C295.28,427.96 292.57,432.91 291.03,436.31C289.50,439.72 287.94,443.51 287.56,444.75C287.15,446.06 287.29,447.00 287.88,447.00C288.44,447.00 292.08,443.19 295.97,438.54C299.86,433.88 305.90,428.03 309.40,425.54C312.90,423.04 317.67,420.32 320.01,419.50C322.34,418.67 325.04,418.00 326.01,418.00C327.08,418.00 327.72,418.69 327.64,419.75C327.52,421.24 328.54,421.54 334.50,421.77C338.35,421.92 342.09,422.26 342.82,422.52C343.64,422.81 341.38,425.69 336.73,430.24C332.66,434.24 327.52,440.20 325.31,443.50C323.10,446.80 320.60,450.85 319.76,452.50C318.93,454.15 317.90,457.07 317.49,459.00C316.80,462.24 317.66,461.57 329.12,449.92C335.93,443.01 344.32,435.50 347.76,433.24C351.21,430.98 356.45,428.23 359.42,427.12C362.38,426.01 368.33,424.78 372.63,424.39C380.45,423.68 380.45,423.68 375.98,428.91C373.51,431.79 370.05,436.22 368.28,438.76C366.50,441.31 365.22,443.56 365.43,443.77C365.64,443.97 368.26,442.52 371.25,440.54C374.23,438.55 378.95,436.07 381.72,435.02C384.49,433.96 389.06,432.80 391.88,432.42C394.69,432.05 397.00,431.97 397.00,432.26C397.00,432.54 391.71,436.84 385.25,441.82C378.79,446.81 371.39,453.04 368.81,455.69C366.23,458.34 362.52,463.17 360.56,466.44C358.60,469.71 357.00,472.75 357.00,473.19C357.00,473.64 357.34,474.00 357.75,473.99C358.16,473.99 362.32,470.57 367.00,466.39C371.68,462.21 376.80,458.12 378.38,457.30C381.20,455.85 381.25,455.87 380.68,458.16C380.36,459.45 379.80,462.52 379.44,465.00C378.78,469.50 378.78,469.50 382.04,465.50C383.84,463.30 388.75,458.12 392.96,454.00C399.62,447.48 402.49,445.56 415.06,439.26C424.02,434.77 435.00,430.27 444.00,427.41C451.98,424.86 459.78,422.31 461.34,421.73C463.47,420.95 463.83,420.48 462.77,419.89C461.99,419.46 457.35,418.60 452.46,417.99C447.56,417.39 443.42,416.75 443.25,416.58C443.07,416.41 445.54,415.33 448.72,414.17C451.90,413.02 456.30,411.63 458.50,411.08C460.70,410.53 471.49,408.27 482.47,406.04C493.45,403.82 503.47,402.00 504.72,402.00C505.97,402.00 507.00,402.28 507.00,402.62C507.00,402.95 505.43,405.37 503.50,407.99C501.58,410.61 498.60,415.77 496.87,419.46C495.15,423.14 493.51,428.15 493.24,430.58C492.84,434.12 493.05,435.00 494.29,435.00C495.15,435.00 496.79,433.76 497.95,432.25C499.10,430.74 502.79,425.98 506.15,421.69C509.51,417.39 515.46,411.18 519.37,407.89C523.28,404.60 529.86,399.93 533.99,397.51C538.12,395.09 548.68,390.12 557.45,386.47C566.22,382.82 577.69,377.38 582.95,374.38C588.20,371.38 596.33,366.17 601.00,362.80C605.67,359.44 612.77,354.48 616.77,351.78C620.76,349.08 626.51,345.78 629.54,344.44C632.58,343.10 635.72,342.00 636.53,342.00C637.60,342.00 636.78,344.30 633.59,350.25C631.16,354.79 628.05,362.10 626.68,366.50C625.31,370.90 623.87,376.64 623.48,379.25C623.08,381.98 623.16,384.00 623.69,384.00C624.19,384.00 629.06,378.04 634.50,370.75C639.94,363.46 648.92,352.96 654.45,347.42C659.98,341.88 667.94,335.13 672.16,332.42C676.37,329.71 680.64,326.99 681.66,326.37C682.67,325.74 683.27,325.02 683.00,324.76C682.73,324.50 672.60,324.85 660.50,325.55C648.40,326.25 627.55,327.06 614.16,327.35C600.78,327.65 581.88,327.46 572.16,326.94C562.45,326.42 549.10,325.29 542.50,324.43C535.90,323.56 522.85,321.56 513.50,319.97C504.15,318.38 487.51,315.68 476.51,313.96C465.52,312.23 451.57,309.56 445.51,308.02C439.46,306.48 432.02,304.27 429.00,303.13C425.98,301.98 421.81,299.65 419.75,297.95C417.36,295.97 416.00,294.00 416.00,292.50C416.00,291.21 417.14,288.80 418.53,287.15C419.92,285.50 420.64,283.89 420.13,283.58C419.62,283.27 415.25,283.70 410.40,284.54C403.93,285.67 399.69,287.14 394.38,290.07C390.41,292.26 384.95,296.04 382.25,298.46C379.55,300.89 375.92,305.55 374.17,308.83C372.43,312.10 371.00,315.78 371.00,317.01C371.00,319.08 371.28,318.98 375.00,315.62C377.20,313.63 379.50,312.00 380.10,312.00C380.83,312.00 380.96,313.64 380.50,317.00C380.04,320.37 380.17,322.00 380.91,322.00C381.51,322.00 382.00,321.58 382.00,321.07C382.00,320.56 383.52,318.54 385.37,316.57C387.22,314.61 389.58,313.02 390.62,313.04C391.65,313.06 393.83,314.16 395.46,315.49C398.43,317.92 398.43,317.92 395.03,324.94C393.16,328.80 391.87,332.20 392.16,332.50C392.46,332.79 393.85,332.12 395.27,331.01C396.68,329.89 400.24,327.87 403.17,326.50C406.10,325.14 409.29,324.02 410.25,324.01C411.21,324.00 412.00,324.62 412.00,325.38C412.00,326.14 411.33,328.37 410.51,330.33C409.01,333.91 409.01,333.91 413.89,330.88C416.58,329.21 420.63,327.59 422.89,327.29C425.32,326.96 427.00,327.14 427.00,327.73C427.00,328.28 426.05,329.94 424.89,331.42C423.72,332.90 423.02,334.36 423.33,334.66C423.64,334.97 426.76,334.72 430.28,334.11C433.79,333.50 438.65,333.02 441.08,333.05C443.51,333.07 446.85,333.67 448.50,334.38C451.50,335.68 451.50,335.68 447.50,337.71C445.30,338.83 437.88,342.00 431.00,344.74C424.12,347.49 414.00,351.21 408.50,353.01C403.00,354.80 394.23,358.28 389.00,360.72C383.77,363.16 376.35,366.42 372.50,367.97C368.65,369.51 363.14,371.48 360.25,372.33C357.36,373.19 355.00,373.71 355.00,373.48C355.00,373.26 357.62,371.29 360.82,369.12C364.03,366.94 368.07,363.54 369.81,361.56C371.55,359.58 373.25,356.85 373.59,355.48C373.94,354.12 373.94,351.90 373.60,350.55C373.26,349.20 371.98,346.97 370.74,345.59C369.51,344.22 364.68,340.78 360.00,337.95C355.32,335.13 350.65,332.07 349.61,331.16C348.57,330.25 347.10,328.03 346.35,326.24C345.57,324.40 345.24,321.79 345.60,320.24C345.95,318.73 347.27,315.68 348.53,313.47C349.80,311.25 353.04,307.36 355.74,304.84C358.44,302.31 362.53,299.06 364.82,297.62C367.11,296.17 372.25,293.69 376.24,292.11C380.23,290.53 386.88,288.49 391.00,287.57C395.12,286.66 403.90,284.38 410.50,282.51C417.10,280.64 426.97,277.93 432.43,276.48C437.89,275.03 443.97,273.17 445.93,272.35C447.97,271.50 451.65,268.28 454.50,264.85C457.25,261.54 462.12,257.03 465.32,254.83C468.52,252.63 473.96,249.51 477.40,247.90C480.84,246.29 488.12,243.84 493.57,242.46C499.02,241.08 504.16,240.08 504.99,240.26C505.82,240.43 503.79,242.02 500.47,243.80C497.16,245.58 491.33,249.39 487.51,252.27C482.74,255.86 478.97,259.86 475.45,265.05C472.63,269.20 468.89,276.37 467.13,280.98C465.37,285.58 463.54,291.10 463.06,293.23C462.46,295.92 462.52,296.99 463.27,296.74C463.87,296.54 466.56,292.83 469.26,288.48C471.95,284.14 475.98,278.41 478.20,275.76C480.43,273.10 484.19,269.59 486.55,267.96C488.92,266.33 491.37,265.00 491.98,265.00C492.60,265.00 494.76,266.12 496.79,267.50C498.81,268.87 501.26,270.00 502.23,270.00C503.20,270.00 504.00,270.18 504.00,270.40C504.00,270.62 502.88,273.21 501.51,276.15C500.14,279.09 499.02,282.31 499.01,283.30C499.00,284.81 499.59,284.63 502.75,282.11C504.81,280.47 508.88,278.20 511.79,277.06C514.69,275.93 518.24,275.00 519.67,275.00C522.26,275.00 522.26,275.00 519.64,278.25C518.20,280.04 515.21,284.15 512.99,287.40C510.77,290.64 509.18,293.51 509.45,293.78C509.72,294.05 512.59,291.82 515.83,288.81C519.08,285.81 523.48,282.51 525.61,281.48C527.89,280.39 531.78,279.59 535.00,279.55C538.02,279.52 541.37,279.86 542.43,280.29C544.15,280.99 543.62,281.84 537.74,287.79C534.09,291.48 529.51,297.17 527.56,300.44C525.60,303.71 524.00,307.65 524.00,309.19C524.00,311.20 524.50,312.00 525.75,312.00C526.71,311.99 529.99,309.40 533.04,306.23C536.09,303.06 541.08,298.82 544.13,296.79C547.18,294.77 551.79,292.58 554.37,291.93C556.96,291.28 559.37,291.03 559.72,291.39C560.08,291.74 559.37,293.26 558.16,294.77C556.94,296.27 554.61,300.36 552.97,303.87C551.32,307.37 549.71,311.30 549.38,312.62C548.87,314.65 549.15,315.00 551.28,315.00C553.19,315.00 555.52,312.96 561.09,306.39C565.11,301.66 570.82,295.82 573.77,293.41C576.80,290.94 581.36,288.38 584.25,287.52C587.06,286.68 591.27,286.00 593.60,286.00C595.93,286.00 598.54,286.27 599.40,286.60C600.69,287.09 600.37,287.94 597.63,291.35C595.79,293.63 593.10,297.56 591.65,300.08C590.20,302.60 588.11,307.28 587.00,310.49C585.90,313.69 585.00,316.47 585.00,316.66C585.00,316.85 585.47,317.00 586.04,317.00C586.61,317.00 591.80,312.51 597.57,307.02C603.34,301.54 610.12,295.84 612.64,294.37C616.10,292.34 618.94,291.58 624.36,291.25C628.29,291.02 632.51,291.21 633.75,291.68C635.98,292.54 635.96,292.61 631.87,298.02C629.60,301.04 626.88,305.49 625.83,307.93C624.78,310.36 624.05,313.00 624.21,313.80C624.38,314.67 627.03,312.39 630.87,308.08C634.37,304.13 639.54,299.58 642.37,297.96C645.19,296.34 648.46,295.01 649.63,295.01C651.68,295.00 651.62,295.28 648.31,301.52C646.40,305.10 645.00,308.50 645.19,309.07C645.38,309.63 648.22,308.00 651.52,305.44C654.81,302.89 660.42,299.06 664.00,296.95C667.58,294.83 674.77,291.68 680.00,289.94C685.23,288.21 695.90,283.95 703.72,280.47C711.54,277.00 723.47,270.87 730.22,266.84C736.97,262.82 745.42,258.52 749.00,257.29C752.58,256.06 757.41,255.04 759.75,255.03C764.01,255.00 764.01,255.00 763.75,382.75C763.50,510.50 763.50,510.50 750.50,511.24C743.35,511.65 728.28,512.67 717.02,513.51C705.75,514.35 691.80,515.73 686.02,516.58C680.23,517.43 669.88,519.50 663.00,521.16C656.12,522.83 647.80,525.12 644.50,526.25C641.20,527.37 634.67,529.97 630.00,532.02C625.33,534.07 617.57,538.06 612.77,540.90C607.97,543.73 601.33,548.31 598.02,551.06C594.71,553.82 589.70,559.32 586.88,563.29C584.06,567.25 580.26,573.65 578.43,577.50C576.59,581.35 574.81,585.85 574.46,587.50C573.89,590.19 574.54,589.74 580.66,583.25C584.50,579.18 589.12,575.34 591.20,574.51C593.23,573.69 595.11,573.37 595.38,573.81C595.65,574.24 594.71,577.85 593.29,581.82C591.88,585.80 590.91,589.24 591.14,589.47C591.37,589.70 595.37,586.27 600.03,581.85C604.69,577.43 609.48,573.15 610.68,572.34C612.26,571.27 614.13,571.05 617.43,571.54C620.08,571.94 622.00,572.76 622.00,573.49C622.00,574.18 620.94,577.17 619.65,580.13C618.36,583.08 616.98,586.82 616.58,588.44C615.87,591.38 615.87,591.38 620.32,587.27C622.77,585.02 626.21,582.42 627.98,581.51C629.74,580.60 631.36,580.03 631.57,580.24C631.78,580.45 631.09,582.90 630.03,585.69C628.97,588.48 628.34,591.01 628.64,591.31C628.95,591.61 631.33,590.32 633.95,588.44C636.57,586.56 640.34,584.34 642.33,583.51C644.31,582.68 647.90,582.00 650.30,582.00C652.70,582.00 654.96,582.29 655.32,582.65C655.67,583.01 651.59,587.85 646.23,593.42C640.35,599.53 635.21,605.96 633.25,609.66C631.46,613.02 630.00,616.74 630.00,617.92C630.00,619.66 631.33,618.75 636.99,613.15C641.11,609.07 646.62,604.86 650.43,602.89C653.97,601.05 657.16,599.83 657.51,600.17C657.85,600.52 656.98,603.08 655.57,605.87C654.16,608.65 653.00,612.13 653.00,613.59C653.00,616.09 653.38,615.89 659.78,609.87C663.51,606.37 668.80,602.31 671.53,600.85C674.26,599.39 679.14,597.66 682.36,597.01C685.75,596.32 688.59,596.19 689.10,596.70C689.61,597.21 688.24,599.88 685.85,603.04C683.57,606.04 680.63,610.92 679.32,613.87C678.00,616.83 677.14,619.47 677.41,619.75C677.69,620.02 680.71,617.91 684.12,615.06C687.53,612.21 692.15,608.94 694.38,607.80C696.62,606.67 699.69,605.37 701.22,604.94C702.75,604.50 704.00,604.45 704.00,604.84C704.00,605.22 702.90,607.16 701.55,609.14C700.20,611.12 698.81,613.93 698.44,615.37C698.08,616.82 698.19,618.00 698.69,618.00C699.19,618.00 702.50,615.65 706.05,612.79C709.60,609.92 716.65,604.79 721.72,601.39C726.80,597.99 734.38,593.78 738.57,592.03C742.76,590.29 749.47,588.15 753.48,587.28C757.49,586.41 761.51,585.98 762.42,586.33C763.84,586.87 764.03,588.48 763.78,597.73C763.50,608.50 763.50,608.50 757.50,609.24C754.20,609.65 747.92,610.89 743.54,612.00C739.16,613.11 732.68,615.37 729.14,617.02C725.61,618.68 719.76,622.14 716.14,624.72C712.53,627.30 707.08,631.64 704.04,634.37C700.99,637.11 696.10,642.08 693.16,645.42C690.22,648.76 686.73,653.62 685.41,656.22C684.08,658.81 683.00,662.07 683.00,663.47C683.00,664.87 683.58,666.00 684.29,666.00C685.00,666.00 690.18,660.83 695.81,654.52C701.44,648.20 708.85,640.70 712.26,637.86C715.68,635.02 721.16,631.42 724.43,629.87C727.71,628.32 730.57,627.24 730.80,627.47C731.03,627.70 729.77,630.41 728.00,633.50C726.23,636.59 724.99,639.32 725.24,639.57C725.49,639.83 731.38,636.23 738.33,631.59C745.28,626.95 753.48,622.22 756.56,621.07C759.63,619.91 762.56,619.23 763.07,619.55C763.62,619.88 764.00,637.21 764.00,661.56C764.00,684.35 763.66,702.98 763.25,702.95zM30.21,671.67C24.32,671.78 17.79,671.52 15.70,671.09C13.61,670.65 11.44,669.84 10.87,669.27C10.17,668.57 10.90,667.25 13.17,665.11C15.00,663.38 18.30,661.45 20.50,660.81C22.70,660.17 25.21,659.06 26.08,658.33C26.95,657.60 28.40,657.00 29.30,657.00C30.21,657.00 33.77,659.67 37.22,662.92C42.36,667.78 43.27,669.09 42.21,670.16C41.34,671.05 37.50,671.54 30.21,671.67zM236.70,667.00C237.41,667.00 238.00,666.27 238.00,665.38C238.00,664.26 238.61,663.93 240.00,664.29C241.10,664.58 242.00,664.49 242.00,664.10C242.00,663.71 240.60,661.48 238.88,659.15C237.16,656.82 236.01,654.65 236.33,654.34C236.64,654.03 240.18,654.76 244.20,655.97C248.21,657.17 253.53,659.32 256.00,660.75C258.48,662.17 261.51,663.98 262.75,664.78C264.34,665.81 265.00,665.88 265.00,665.04C265.00,664.39 262.43,661.16 259.29,657.86C256.14,654.57 250.51,649.54 246.75,646.69C240.73,642.11 240.22,641.46 242.36,641.19C243.69,641.03 247.62,641.62 251.08,642.52C254.55,643.42 260.28,645.47 263.81,647.07C267.34,648.67 272.32,651.47 274.87,653.29C277.42,655.11 280.13,656.98 280.89,657.45C281.83,658.02 281.67,657.23 280.39,655.04C279.35,653.25 276.14,649.62 273.25,646.97C270.36,644.32 265.59,640.97 262.64,639.52C259.69,638.08 253.07,636.04 247.92,634.98C242.78,633.93 231.36,632.32 222.54,631.41C210.37,630.15 200.79,629.87 182.88,630.25C169.89,630.53 158.47,631.20 157.50,631.74C156.36,632.38 156.13,632.96 156.84,633.40C157.44,633.77 163.46,635.60 170.21,637.46C176.97,639.33 187.18,642.49 192.90,644.49C198.63,646.50 207.63,650.32 212.90,652.99C218.18,655.66 225.40,659.90 228.95,662.42C232.49,664.94 235.98,667.00 236.70,667.00zM106.56,655.00C102.47,655.00 98.88,654.61 98.59,654.14C98.30,653.67 99.82,651.87 101.97,650.14C104.12,648.41 106.27,647.00 106.75,647.00C107.23,647.00 109.06,648.40 110.81,650.12C112.56,651.83 114.00,653.63 114.00,654.12C114.00,654.60 110.65,655.00 106.56,655.00zM334.31,621.97C334.96,621.95 332.78,619.34 329.46,616.18C325.98,612.88 320.03,608.70 315.46,606.34C311.08,604.09 305.25,601.56 302.50,600.71C299.75,599.87 295.55,598.90 293.16,598.56C290.09,598.13 288.93,598.29 289.20,599.10C289.41,599.74 291.14,601.10 293.04,602.12C294.94,603.15 304.50,607.66 314.27,612.13C324.05,616.61 332.29,620.66 332.58,621.14C332.88,621.61 333.65,621.98 334.31,621.97zM166.67,582.84C165.48,582.75 162.93,582.49 161.00,582.27C159.07,582.04 157.08,581.45 156.56,580.94C155.99,580.38 156.53,579.06 157.99,577.51C159.33,576.09 161.46,575.00 162.92,575.00C164.34,575.01 166.96,575.90 168.75,576.99C170.54,578.08 172.00,579.60 172.00,580.38C172.00,581.15 171.29,582.06 170.42,582.39C169.55,582.73 167.86,582.93 166.67,582.84zM695.70,576.66C687.89,576.75 680.38,576.61 679.00,576.35C677.62,576.10 675.04,575.43 673.25,574.87C671.46,574.30 670.00,573.46 670.00,573.00C670.00,572.53 671.69,570.74 673.75,569.03C677.16,566.20 677.93,565.97 682.28,566.55C685.92,567.04 687.70,566.78 689.78,565.46C691.27,564.51 693.45,562.58 694.60,561.18C696.56,558.81 696.92,558.73 699.84,559.93C701.57,560.65 704.58,563.01 706.54,565.17C708.49,567.34 710.60,570.22 711.22,571.58C712.07,573.46 712.05,574.35 711.12,575.28C710.29,576.11 705.37,576.55 695.70,576.66zM261.33,567.57C255.38,567.76 248.54,567.50 246.14,566.99C243.75,566.48 241.16,565.55 240.39,564.91C239.63,564.28 239.00,563.39 239.00,562.93C239.00,562.48 240.07,560.87 241.37,559.35C243.67,556.68 243.87,556.64 247.78,557.93C250.00,558.66 252.88,559.00 254.17,558.67C255.46,558.35 257.33,556.71 258.32,555.04C259.50,553.04 260.91,552.00 262.44,552.00C263.89,552.00 266.15,553.53 268.43,556.05C270.44,558.28 272.60,561.22 273.22,562.58C274.03,564.36 274.04,565.36 273.26,566.14C272.65,566.75 267.34,567.38 261.33,567.57zM528.93,553.00C529.39,553.00 531.66,550.53 533.98,547.52C536.31,544.51 539.92,540.50 542.02,538.60C544.11,536.71 546.69,534.70 547.74,534.14C549.57,533.16 549.56,533.49 547.33,541.81C546.05,546.59 545.01,550.87 545.00,551.31C545.00,551.76 549.39,547.66 554.75,542.20C560.36,536.49 569.18,528.98 575.50,524.54C581.55,520.28 588.63,515.72 591.23,514.39C593.84,513.07 598.54,511.31 601.69,510.49C604.84,509.67 608.68,509.00 610.21,509.00C611.74,509.00 613.00,509.52 613.00,510.15C613.00,510.78 609.71,515.17 605.70,519.90C601.68,524.63 597.38,529.96 596.13,531.75C594.88,533.54 594.14,535.00 594.47,535.00C594.81,535.00 597.31,533.50 600.04,531.66C602.77,529.82 610.52,522.99 617.25,516.49C623.99,509.98 632.75,502.53 636.71,499.94C640.68,497.34 647.88,493.79 652.71,492.05C657.55,490.31 664.52,487.11 668.20,484.93C671.89,482.75 675.16,480.55 675.48,480.04C675.80,479.52 674.42,478.79 672.43,478.42C670.43,478.05 664.46,478.05 659.15,478.43C653.84,478.82 642.75,480.02 634.50,481.11C626.25,482.21 615.23,484.03 610.01,485.16C604.79,486.29 597.59,488.11 594.01,489.20C590.43,490.30 577.83,495.03 566.00,499.72C554.17,504.40 541.41,510.03 537.63,512.23C533.86,514.43 528.19,518.84 525.05,522.03C521.91,525.22 517.74,530.91 515.80,534.67C513.85,538.43 511.97,542.74 511.61,544.25C511.25,545.76 511.31,546.96 511.73,546.92C512.15,546.88 515.11,543.73 518.30,539.91C521.49,536.10 526.44,531.41 529.29,529.49C532.16,527.56 535.73,526.00 537.29,526.00C540.10,526.00 540.10,526.00 535.64,534.25C533.18,538.79 530.48,544.86 529.64,547.75C528.80,550.64 528.48,553.00 528.93,553.00zM688.98,497.00C689.51,497.00 690.69,495.88 691.59,494.50C692.49,493.13 696.22,490.01 699.88,487.58C703.54,485.14 707.76,482.85 709.26,482.47C711.28,481.97 712.14,482.20 712.60,483.39C712.94,484.28 713.91,485.00 714.77,485.00C715.62,485.00 719.83,482.94 724.12,480.43C728.40,477.92 733.53,475.42 735.52,474.87C737.54,474.31 738.95,473.35 738.74,472.69C738.53,472.03 736.81,470.75 734.93,469.84C731.54,468.21 731.53,468.18 734.00,467.61C735.38,467.29 738.30,466.89 740.50,466.72C744.50,466.41 744.50,466.41 740.50,464.55C738.30,463.53 734.09,462.47 731.13,462.21C728.18,461.95 723.23,462.29 720.13,462.97C717.04,463.65 712.26,465.40 709.51,466.85C706.77,468.31 701.79,472.22 698.45,475.54C695.11,478.86 691.39,483.62 690.19,486.11C688.99,488.60 688.00,492.06 688.00,493.82C688.00,495.57 688.44,497.00 688.98,497.00zM551.98,495.00C552.52,495.00 553.84,493.28 554.91,491.18C555.98,489.08 557.63,486.72 558.57,485.93C559.52,485.14 561.46,484.01 562.90,483.41C564.77,482.63 565.99,482.63 567.26,483.41C568.63,484.25 569.79,484.05 572.36,482.50C574.20,481.40 578.02,478.97 580.85,477.10C583.68,475.23 586.00,473.30 586.00,472.80C586.00,472.30 584.44,471.25 582.53,470.45C580.62,469.65 576.78,469.00 573.98,469.00C571.19,469.00 567.65,469.65 566.13,470.44C564.60,471.22 561.65,473.75 559.58,476.05C557.50,478.34 554.73,482.53 553.41,485.36C552.10,488.19 551.02,491.51 551.01,492.75C551.00,493.99 551.44,495.00 551.98,495.00zM69.20,492.69C63.87,492.80 58.41,492.56 57.07,492.17C55.74,491.77 54.48,490.95 54.28,490.35C54.08,489.75 55.09,487.86 56.52,486.15C58.92,483.31 59.49,483.11 63.58,483.67C67.07,484.14 68.47,483.88 70.03,482.47C71.77,480.90 72.33,480.84 74.54,482.02C75.93,482.77 78.01,484.90 79.16,486.76C80.76,489.35 80.98,490.42 80.08,491.32C79.37,492.03 75.06,492.58 69.20,492.69zM499.25,486.32C502.69,483.64 508.65,479.21 512.50,476.47C518.20,472.43 519.10,471.44 517.33,471.19C516.13,471.02 513.43,471.77 511.33,472.85C509.22,473.93 505.59,476.21 503.25,477.91C500.92,479.61 497.66,482.87 496.00,485.15C494.35,487.43 493.00,489.72 493.00,490.24C493.00,490.76 495.81,488.99 499.25,486.32zM434.63,479.96C438.96,475.81 444.75,471.00 447.50,469.28C450.25,467.55 454.61,465.61 457.19,464.96C459.77,464.32 462.35,463.95 462.93,464.15C463.52,464.34 462.53,466.93 460.68,470.00C458.86,473.02 456.83,477.04 456.18,478.91C455.53,480.79 455.14,482.47 455.32,482.66C455.51,482.84 458.46,480.56 461.89,477.59C465.90,474.12 472.91,469.81 481.56,465.49C488.95,461.80 495.00,458.34 495.00,457.79C495.00,457.20 492.95,457.06 489.75,457.45C486.86,457.80 482.70,458.34 480.50,458.66C476.50,459.24 476.50,459.24 478.50,457.00C479.60,455.77 483.39,452.70 486.92,450.17C493.34,445.58 493.34,445.58 490.42,444.34C488.81,443.65 485.21,443.07 482.41,443.05C479.61,443.02 474.76,443.88 471.63,444.95C468.51,446.03 463.33,448.31 460.12,450.02C456.91,451.73 451.34,455.60 447.74,458.63C444.14,461.66 439.21,466.69 436.78,469.82C434.36,472.94 431.44,477.07 430.30,479.00C429.16,480.93 427.90,483.62 427.49,485.00C426.93,486.90 428.65,485.68 434.63,479.96zM604.11,471.43C604.60,471.13 605.00,469.99 605.00,468.90C605.00,467.81 605.91,465.14 607.02,462.96C608.89,459.30 609.36,459.00 613.27,458.98C615.92,458.96 618.43,458.23 620.00,457.00C621.38,455.92 622.81,455.03 623.18,455.02C623.55,455.01 624.00,456.01 624.18,457.24C624.36,458.47 625.28,459.63 626.24,459.81C627.26,460.01 630.23,458.00 633.49,454.93C636.54,452.03 639.00,448.83 639.00,447.74C639.00,446.22 638.49,445.88 636.75,446.25C635.51,446.52 633.71,447.07 632.75,447.48C631.72,447.91 631.00,447.78 631.00,447.15C631.00,446.57 634.86,444.26 639.57,442.02C644.54,439.66 647.98,437.44 647.75,436.75C647.53,436.09 646.26,435.25 644.93,434.88C643.59,434.50 639.48,434.15 635.79,434.10C631.24,434.03 627.29,434.67 623.54,436.07C620.30,437.28 615.81,440.15 612.71,442.98C609.80,445.64 606.16,450.12 604.63,452.93C603.02,455.90 601.61,460.34 601.29,463.50C600.91,467.16 601.14,469.46 601.98,470.47C602.66,471.30 603.63,471.73 604.11,471.43zM656.11,458.80C656.71,458.60 658.64,454.17 660.40,448.97C662.16,443.76 664.25,438.30 665.05,436.83C665.85,435.36 668.30,432.73 670.50,430.98C674.50,427.80 674.50,427.80 674.82,430.40C674.99,431.83 675.48,433.00 675.91,433.00C676.34,433.00 680.41,430.51 684.96,427.47C689.51,424.42 694.41,421.33 695.86,420.60C697.31,419.87 700.19,418.96 702.25,418.59C704.31,418.21 706.00,417.53 706.00,417.08C706.00,416.62 705.33,415.68 704.50,415.00C703.67,414.32 703.00,413.15 703.00,412.40C703.00,411.66 704.33,410.36 705.95,409.53C707.57,408.69 709.72,408.00 710.73,408.00C711.73,408.00 713.58,408.72 714.83,409.59C716.24,410.58 718.05,410.95 719.56,410.57C721.00,410.21 723.29,410.62 725.10,411.55C726.80,412.43 728.41,412.92 728.69,412.64C728.97,412.37 727.17,410.12 724.69,407.64C721.25,404.20 718.62,402.65 713.49,401.07C709.34,399.79 704.05,399.00 699.59,399.00C694.88,399.00 690.20,399.74 686.07,401.14C682.50,402.34 677.53,405.07 674.67,407.40C671.88,409.68 667.69,414.39 665.36,417.87C663.03,421.35 659.23,427.84 656.91,432.28C653.22,439.39 652.71,441.16 652.71,446.93C652.71,450.54 653.23,454.77 653.86,456.33C654.50,457.89 655.50,459.00 656.11,458.80zM700.50,454.57C703.52,454.57 706.00,454.25 706.00,453.85C706.00,453.46 709.94,451.14 714.75,448.71C719.56,446.28 724.77,443.98 726.32,443.61C727.89,443.23 728.96,442.39 728.74,441.71C728.52,441.05 727.25,439.92 725.92,439.21C724.39,438.40 720.73,438.03 716.00,438.21C709.44,438.47 708.01,438.88 704.58,441.50C702.42,443.15 699.38,446.26 697.83,448.40C696.27,450.55 695.00,452.81 695.00,453.44C695.00,454.15 697.06,454.57 700.50,454.57zM691.30,435.00C692.02,435.00 694.49,433.61 696.80,431.91C699.11,430.22 701.00,428.42 701.00,427.91C701.00,427.41 699.84,427.00 698.42,427.00C696.91,427.00 694.64,428.20 692.92,429.92C691.32,431.53 690.00,433.33 690.00,433.92C690.00,434.52 690.59,435.00 691.30,435.00zM732.12,435.00C732.62,435.00 735.51,433.60 738.53,431.90C742.35,429.74 744.77,428.98 746.45,429.40C747.85,429.75 749.18,429.51 749.60,428.84C750.02,428.16 749.00,426.50 747.14,424.84C745.23,423.13 742.84,422.00 741.12,422.00C739.55,422.00 737.15,422.88 735.78,423.96C734.41,425.04 732.59,427.36 731.74,429.12C730.89,430.88 730.42,432.93 730.70,433.66C730.98,434.40 731.62,435.00 732.12,435.00zM380.48,408.32C376.64,408.59 372.15,408.60 370.50,408.36C368.85,408.12 366.26,407.43 364.75,406.84C363.14,406.20 362.00,405.00 362.00,403.91C362.00,402.90 362.87,401.60 363.93,401.04C365.00,400.47 366.73,400.00 367.78,400.00C368.83,400.00 370.50,399.10 371.50,398.00C372.50,396.90 374.30,396.00 375.51,396.00C376.72,396.00 379.79,397.59 382.34,399.53C384.88,401.47 387.42,403.92 387.98,404.97C388.55,406.02 388.66,407.09 388.23,407.36C387.81,407.62 384.32,408.05 380.48,408.32zM535.00,382.82C532.52,382.75 529.15,382.53 527.50,382.31C525.85,382.10 522.15,381.46 519.27,380.90C516.39,380.33 513.80,379.48 513.50,379.01C513.21,378.54 513.52,376.96 514.18,375.50C514.85,374.04 516.60,372.23 518.07,371.46C520.49,370.21 520.94,370.27 522.53,372.04C523.51,373.12 524.89,374.00 525.60,374.00C526.31,374.00 528.14,372.85 529.65,371.45C531.98,369.29 533.01,368.99 536.24,369.54C539.00,370.01 540.78,369.72 542.63,368.50C545.13,366.87 545.29,366.91 548.17,369.66C549.80,371.22 552.07,374.00 553.20,375.82C554.58,378.06 554.92,379.48 554.24,380.16C553.69,380.71 550.14,381.56 546.37,382.05C542.59,382.54 537.48,382.88 535.00,382.82zM25.63,368.00C23.15,368.00 20.81,367.50 20.44,366.90C20.06,366.29 20.72,364.83 21.90,363.66C23.90,361.66 24.23,361.62 26.76,363.04C28.26,363.88 29.63,365.34 29.82,366.28C30.09,367.70 29.36,368.00 25.63,368.00zM499.97,364.00C494.71,364.00 492.80,363.63 492.37,362.53C492.04,361.67 492.99,360.03 494.66,358.56C496.22,357.19 498.09,356.05 498.82,356.03C499.54,356.01 501.68,357.18 503.57,358.62C505.46,360.06 507.00,361.86 507.00,362.62C507.00,363.66 505.28,364.00 499.97,364.00zM439.06,360.00C436.34,360.00 433.82,359.52 433.46,358.94C433.10,358.35 433.59,357.00 434.56,355.94C435.52,354.87 437.06,354.00 437.98,354.00C438.90,354.00 440.63,355.04 441.83,356.31C443.02,357.59 444.00,358.94 444.00,359.31C444.00,359.69 441.78,360.00 439.06,360.00zM463.47,353.00C458.31,353.00 456.80,352.65 456.30,351.34C455.90,350.28 456.49,349.02 457.94,347.84C459.20,346.83 460.74,346.00 461.38,346.00C462.02,346.00 464.22,347.14 466.27,348.54C468.32,349.93 470.00,351.51 470.00,352.04C470.00,352.57 467.06,353.00 463.47,353.00zM247.50,341.52C237.72,341.80 229.68,341.48 224.40,340.62C219.94,339.88 213.17,338.33 209.34,337.17C205.51,336.01 200.83,334.02 198.94,332.75C197.05,331.47 195.35,329.42 195.18,328.19C194.96,326.69 195.90,324.96 197.98,323.02C199.70,321.41 203.68,318.90 206.81,317.44C209.94,315.97 213.74,313.62 215.25,312.20C216.76,310.79 218.00,309.95 218.00,310.35C218.00,310.74 217.32,312.68 216.50,314.65C215.68,316.63 215.00,319.06 215.00,320.06C215.00,321.06 215.39,322.12 215.86,322.41C216.33,322.71 218.47,321.62 220.61,320.00C222.75,318.38 225.24,317.04 226.13,317.03C227.03,317.01 228.00,317.90 228.29,319.00C228.59,320.15 229.65,321.00 230.80,321.00C231.89,321.00 236.72,317.62 241.53,313.50C246.35,309.38 250.88,306.00 251.60,306.00C252.32,306.00 253.72,307.18 254.70,308.61C255.69,310.05 258.24,313.20 260.38,315.61C262.51,318.03 264.65,320.00 265.13,320.00C265.61,320.00 266.00,318.49 266.00,316.65C266.00,314.81 265.50,311.86 264.88,310.10C264.27,308.34 264.00,306.66 264.29,306.38C264.58,306.09 266.32,306.62 268.16,307.56C270.00,308.50 274.97,312.78 279.21,317.07C283.46,321.35 287.22,326.02 287.58,327.44C287.96,328.99 287.71,330.65 286.93,331.59C286.22,332.44 283.88,334.04 281.74,335.13C279.59,336.23 274.39,338.01 270.17,339.10C264.80,340.49 257.99,341.21 247.50,341.52zM686.75,319.98C688.26,319.96 691.99,318.93 695.02,317.68C698.06,316.43 704.38,313.09 709.07,310.26C713.75,307.43 720.62,302.34 724.33,298.93C728.04,295.53 730.90,292.57 730.69,292.35C730.47,292.14 726.49,293.55 721.84,295.50C717.18,297.45 709.92,301.02 705.68,303.43C701.45,305.84 694.84,310.21 690.99,313.15C687.15,316.08 684.00,318.82 684.00,319.24C684.00,319.66 685.24,319.99 686.75,319.98zM81.18,316.86C80.25,316.78 73.42,316.33 66.00,315.87C58.58,315.41 42.60,314.12 30.50,313.00C18.40,311.88 7.49,310.74 6.25,310.46C4.00,309.96 4.00,309.96 4.00,282.34C4.00,254.72 4.00,254.72 9.25,255.35C12.14,255.70 20.80,257.78 28.50,259.98C36.20,262.17 45.78,265.59 49.78,267.56C53.79,269.53 60.09,273.42 63.78,276.20C67.48,278.99 73.66,284.36 77.52,288.13C81.39,291.91 84.93,295.00 85.39,295.00C85.85,295.00 86.00,294.10 85.71,293.00C85.42,291.90 85.52,291.00 85.92,291.00C86.32,291.00 89.54,294.00 93.07,297.66C98.61,303.41 99.54,304.03 99.82,302.18C100.00,300.92 97.76,296.00 94.42,290.32C90.76,284.11 86.14,278.05 81.60,273.52C77.70,269.62 71.80,264.80 68.50,262.80C65.20,260.80 60.14,258.23 57.25,257.10C54.37,255.96 44.47,253.49 35.25,251.61C26.04,249.73 16.02,247.89 13.00,247.52C9.97,247.16 6.71,246.63 5.75,246.36C4.20,245.92 4.00,244.41 4.00,233.28C4.00,220.70 4.00,220.70 12.25,221.37C16.79,221.74 32.65,222.47 47.50,223.00C62.35,223.52 79.22,224.43 85.00,225.02C90.78,225.62 100.00,226.76 105.50,227.57C111.00,228.38 119.33,229.98 124.00,231.13C128.84,232.32 136.59,235.32 142.00,238.12C147.22,240.81 155.10,245.93 159.50,249.50C163.90,253.06 168.06,255.98 168.75,255.99C169.44,255.99 170.00,255.56 170.00,255.02C170.00,254.42 170.88,254.38 172.32,254.93C173.59,255.41 176.83,257.20 179.51,258.91C182.20,260.61 184.98,262.00 185.70,262.00C186.41,262.00 187.00,261.10 187.00,260.00C187.00,258.89 184.86,255.83 182.25,253.19C179.64,250.55 175.98,247.16 174.12,245.65C172.27,244.15 171.03,242.64 171.37,242.30C171.71,241.96 175.56,242.39 179.94,243.25C184.31,244.11 190.73,246.25 194.19,248.00C197.66,249.75 203.76,253.35 207.75,256.00C211.74,258.64 215.00,260.50 215.00,260.12C215.00,259.75 214.24,258.33 213.31,256.97C212.38,255.61 209.13,251.63 206.07,248.12C200.63,241.85 200.58,241.75 203.51,242.32C205.16,242.63 208.86,243.19 211.75,243.54C215.12,243.96 217.00,243.82 217.00,243.15C217.00,242.58 216.54,241.84 215.98,241.49C215.42,241.14 215.21,240.47 215.50,239.99C215.80,239.51 218.46,239.96 221.42,240.97C224.38,241.99 227.86,243.38 229.15,244.07C230.44,244.75 233.07,246.59 234.98,248.15C236.89,249.72 238.80,251.00 239.23,251.00C239.65,251.00 240.00,250.17 240.00,249.15C240.00,248.13 238.60,245.37 236.89,243.00C233.77,238.71 233.77,238.71 238.01,239.27C240.33,239.59 244.99,241.21 248.37,242.88C251.74,244.55 257.54,248.67 261.25,252.04C264.96,255.40 268.00,257.52 268.00,256.73C268.00,255.95 266.27,252.65 264.16,249.41C262.05,246.16 258.20,241.55 255.59,239.16C252.99,236.78 248.04,233.51 244.60,231.90C241.16,230.29 233.43,227.86 227.42,226.49C221.42,225.12 202.32,221.97 185.00,219.47C167.68,216.98 145.72,213.58 136.22,211.93C126.71,210.27 116.13,208.05 112.70,206.99C109.28,205.93 105.59,204.42 104.52,203.64C102.83,202.40 102.76,202.00 103.96,200.54C104.73,199.62 106.59,198.23 108.11,197.44C109.71,196.62 112.08,196.27 113.79,196.61C116.35,197.12 117.00,196.74 118.93,193.61C120.15,191.64 122.30,189.13 123.71,188.02C125.12,186.91 126.67,186.00 127.16,186.00C127.65,186.00 127.36,187.33 126.53,188.95C125.69,190.57 125.00,192.57 125.00,193.39C125.00,194.21 125.46,195.16 126.02,195.51C126.58,195.86 130.51,194.50 134.77,192.49C139.02,190.48 143.85,187.58 145.50,186.03C147.15,184.49 149.94,182.50 151.69,181.62C153.94,180.48 155.58,180.27 157.23,180.90C158.52,181.39 161.23,183.62 163.25,185.86C165.28,188.10 168.07,192.18 169.46,194.93C170.86,197.68 172.00,200.61 172.00,201.45C172.00,202.29 173.21,203.21 174.75,203.53C176.26,203.85 180.65,204.97 184.50,206.03C188.35,207.09 195.55,208.63 200.50,209.45C205.45,210.27 217.15,211.64 226.50,212.49C235.85,213.33 245.53,214.29 248.00,214.61C250.47,214.94 256.77,216.10 262.00,217.21C267.23,218.31 274.28,220.47 277.69,222.02C281.09,223.56 285.92,226.23 288.42,227.95C290.92,229.67 295.55,233.34 298.71,236.10C301.87,238.87 304.59,240.72 304.76,240.22C304.93,239.72 304.14,237.15 303.01,234.51C301.88,231.88 301.14,229.53 301.37,229.29C301.60,229.06 305.10,230.53 309.15,232.55C313.19,234.58 319.28,238.20 322.67,240.61C326.07,243.02 329.99,245.43 331.39,245.96C332.84,246.51 334.16,246.54 334.48,246.04C334.78,245.55 332.39,241.84 329.17,237.79C325.95,233.74 321.33,228.72 318.91,226.64C316.48,224.56 311.94,221.14 308.82,219.05C305.69,216.96 299.62,213.78 295.32,211.99C291.02,210.19 278.95,206.52 268.50,203.83C258.05,201.13 244.78,197.78 239.00,196.38C233.22,194.97 224.45,192.72 219.50,191.36C214.55,190.00 209.49,188.23 208.25,187.42C207.01,186.61 206.00,185.52 206.00,184.99C206.00,184.46 207.69,182.96 209.75,181.66C211.81,180.36 216.91,178.11 221.09,176.67C227.00,174.63 229.78,174.19 233.67,174.65C238.22,175.19 238.85,175.00 240.73,172.62C241.86,171.18 243.28,170.00 243.89,170.00C244.50,170.00 246.80,171.63 249.00,173.62C251.20,175.61 253.00,178.05 253.00,179.04C253.00,180.50 251.88,181.00 247.36,181.56C244.25,181.95 237.28,181.96 231.86,181.59C225.10,181.12 222.00,181.24 222.00,181.98C222.00,182.57 223.03,183.44 224.28,183.92C225.53,184.39 231.49,185.51 237.53,186.39C243.56,187.27 255.93,188.93 265.00,190.07C274.07,191.22 288.70,193.02 297.50,194.09C306.30,195.15 319.57,196.29 327.00,196.63C336.23,197.04 345.88,196.72 357.53,195.60C372.50,194.16 375.15,194.14 379.34,195.40C381.96,196.19 386.90,198.66 390.31,200.88C393.71,203.11 398.52,206.89 401.00,209.29C403.48,211.68 407.95,216.49 410.95,219.97C413.95,223.45 416.58,225.77 416.79,225.12C417.01,224.48 416.70,222.58 416.12,220.90C415.53,219.22 412.95,214.68 410.38,210.82C407.82,206.96 401.90,199.80 397.25,194.90C389.19,186.44 388.91,186.00 391.64,186.03C393.21,186.05 396.75,186.88 399.50,187.88C402.25,188.88 405.33,190.05 406.35,190.49C408.13,191.26 408.13,191.16 406.52,188.03C405.59,186.24 403.01,182.80 400.79,180.39C398.49,177.89 397.35,176.00 398.14,176.00C398.91,176.00 402.85,176.92 406.90,178.04C410.94,179.16 414.50,179.83 414.81,179.52C415.11,179.22 413.82,177.38 411.94,175.44C410.06,173.50 406.64,170.81 404.35,169.47C402.06,168.12 397.10,165.92 393.34,164.58C389.58,163.23 382.45,161.00 377.50,159.62C372.55,158.24 360.40,155.51 350.50,153.56C340.60,151.60 331.15,149.61 329.50,149.14C326.71,148.34 326.91,148.23 332.27,147.52C335.45,147.10 342.87,147.07 348.77,147.44C354.67,147.81 364.95,148.76 371.61,149.55C378.26,150.34 388.01,151.87 393.26,152.95C398.51,154.03 407.01,156.09 412.15,157.53C417.29,158.98 425.10,161.85 429.50,163.92C433.90,165.99 439.34,169.48 441.58,171.68C443.83,173.88 447.13,178.23 448.92,181.36C451.29,185.50 454.14,188.50 459.37,192.37C463.32,195.30 467.78,199.14 469.28,200.92C471.21,203.21 472.00,205.27 472.00,207.99C472.00,211.29 471.36,212.39 467.45,215.83C464.07,218.81 459.73,221.00 450.46,224.42C443.27,227.07 436.13,230.44 433.54,232.41C431.08,234.29 426.47,236.81 423.28,238.01C420.10,239.21 412.10,241.24 405.50,242.54C398.90,243.83 385.85,245.60 376.50,246.47C367.15,247.34 357.93,248.33 356.00,248.68C354.07,249.02 351.15,250.31 349.50,251.54C347.85,252.77 343.71,255.18 340.29,256.88C336.88,258.59 330.73,261.11 326.62,262.49C322.51,263.87 314.73,265.87 309.32,266.93C303.92,267.99 289.38,269.57 277.00,270.44C264.62,271.31 251.68,272.48 248.23,273.05C243.79,273.77 240.19,275.21 235.84,278.02C232.47,280.20 228.09,282.44 226.11,282.99C224.12,283.54 218.90,284.45 214.50,285.00C210.10,285.55 200.20,286.71 192.50,287.57C184.80,288.43 176.93,289.54 175.00,290.05C173.07,290.55 168.42,292.76 164.66,294.97C160.90,297.17 154.82,299.90 151.16,301.04C147.50,302.17 138.00,304.23 130.06,305.62C122.12,307.01 114.02,308.96 112.06,309.94C110.10,310.92 106.25,312.44 103.50,313.32C100.75,314.19 94.98,315.38 90.68,315.95C86.38,316.53 82.10,316.93 81.18,316.86zM163.12,288.00C163.54,288.00 164.18,287.52 164.54,286.94C164.90,286.36 163.91,284.03 162.35,281.77C160.78,279.51 157.53,275.47 155.12,272.79C152.71,270.11 147.95,265.92 144.54,263.49C141.13,261.06 132.30,256.13 124.92,252.53C117.54,248.94 106.10,244.24 99.50,242.09C92.90,239.95 81.62,237.25 74.44,236.10C66.57,234.83 56.74,234.00 49.69,234.00C43.26,234.00 38.00,234.35 38.00,234.79C38.00,235.22 45.09,237.44 53.75,239.72C62.41,242.00 73.47,245.53 78.32,247.56C83.17,249.60 90.47,253.43 94.54,256.09C98.61,258.74 105.56,264.38 109.99,268.61C114.41,272.84 118.27,276.06 118.56,275.77C118.85,275.48 117.94,272.66 116.54,269.50C115.14,266.34 114.00,263.15 114.00,262.42C114.00,261.31 114.65,261.32 117.82,262.44C119.92,263.18 123.87,264.91 126.59,266.29C129.31,267.67 138.47,273.12 146.94,278.40C155.42,283.68 162.69,288.00 163.12,288.00zM623.00,268.91C619.42,268.87 616.05,268.69 615.50,268.51C614.95,268.33 613.26,267.90 611.75,267.57C610.24,267.23 609.00,266.54 609.00,266.02C609.00,265.50 610.01,264.11 611.25,262.93C612.49,261.76 614.42,260.17 615.55,259.41C617.19,258.31 618.32,258.26 621.05,259.16C622.95,259.79 625.40,260.71 626.50,261.21C627.60,261.71 629.35,263.27 630.38,264.67C631.93,266.78 632.02,267.37 630.88,268.10C630.12,268.58 626.58,268.94 623.00,268.91zM600.62,250.84C600.01,250.75 598.04,250.50 596.25,250.28C594.22,250.03 593.00,249.31 593.00,248.39C593.00,247.57 594.19,245.80 595.65,244.45C597.10,243.10 599.27,242.00 600.46,242.00C601.65,242.00 603.84,243.26 605.31,244.80C606.79,246.35 608.00,248.09 608.00,248.68C608.00,249.27 606.59,250.03 604.88,250.38C603.16,250.72 601.24,250.93 600.62,250.84zM709.75,239.98C706.86,239.98 703.92,239.60 703.22,239.16C702.23,238.53 702.42,237.74 704.04,235.67C705.21,234.19 707.15,233.00 708.40,233.00C709.64,233.00 711.63,234.04 712.83,235.31C714.02,236.59 715.00,238.16 715.00,238.81C715.00,239.58 713.14,239.99 709.75,239.98zM563.29,221.95C562.86,221.92 564.30,220.47 566.50,218.72C568.70,216.97 573.21,212.83 576.53,209.52C579.85,206.21 583.40,201.73 584.41,199.58C585.43,197.42 586.45,192.92 586.69,189.58C587.04,184.69 586.73,182.87 585.10,180.29C583.99,178.52 581.33,175.92 579.20,174.51C577.06,173.10 571.53,170.66 566.91,169.09C562.28,167.53 550.70,164.82 541.16,163.08C531.62,161.33 520.27,158.79 515.95,157.42C511.62,156.06 506.67,153.75 504.95,152.30C502.38,150.15 501.90,149.11 502.28,146.59C502.54,144.89 503.37,142.00 504.12,140.17C505.37,137.15 505.33,136.71 503.62,135.46C502.58,134.71 499.43,133.62 496.62,133.05C493.80,132.48 485.38,131.35 477.90,130.54C470.42,129.72 456.47,127.90 446.90,126.49C437.33,125.08 425.00,122.80 419.50,121.41C414.00,120.03 407.48,117.91 405.00,116.70C400.73,114.61 400.48,114.26 400.20,109.89C399.95,106.09 399.46,105.08 397.40,104.14C396.03,103.51 389.87,102.06 383.70,100.90C377.54,99.75 365.98,97.26 358.00,95.37C350.02,93.48 341.70,90.92 339.50,89.69C335.97,87.71 335.44,86.93 335.00,83.07C334.50,78.70 334.47,78.67 327.67,75.92C323.91,74.40 319.97,72.38 318.92,71.42C317.86,70.47 317.00,69.05 317.00,68.28C317.00,67.50 318.34,64.91 319.98,62.53C321.62,60.15 324.65,56.86 326.73,55.23C328.80,53.60 333.20,50.90 336.50,49.25C339.80,47.59 346.32,45.01 351.00,43.52C356.34,41.82 362.66,40.63 368.00,40.34C375.16,39.95 376.23,40.08 374.78,41.19C373.83,41.91 370.26,44.08 366.84,46.00C363.42,47.92 358.12,51.81 355.06,54.63C352.00,57.45 347.81,62.62 345.75,66.11C343.69,69.60 342.00,72.99 342.00,73.63C342.00,74.28 344.81,72.01 348.25,68.57C351.69,65.14 355.80,62.01 357.39,61.61C358.99,61.21 360.72,61.32 361.25,61.85C361.87,62.47 361.25,65.21 359.55,69.48C358.08,73.14 357.02,77.26 357.19,78.62C357.47,80.83 358.08,80.33 362.77,74.04C365.67,70.16 369.92,65.62 372.21,63.96C374.50,62.30 377.44,60.68 378.74,60.35C380.03,60.03 381.36,60.03 381.68,60.35C382.01,60.67 381.31,63.17 380.14,65.90C378.96,68.64 378.00,71.81 378.00,72.97C378.00,75.06 378.00,75.06 381.93,72.80C384.10,71.55 386.10,70.77 386.40,71.06C386.69,71.35 386.27,73.78 385.46,76.46C384.66,79.14 384.15,81.48 384.34,81.67C384.52,81.86 386.63,79.70 389.01,76.88C391.39,74.05 395.37,70.45 397.86,68.87C400.35,67.29 403.68,66.00 405.25,66.00C408.10,66.00 408.10,66.00 405.70,69.25C404.38,71.04 403.04,73.24 402.72,74.14C402.28,75.40 403.53,75.07 408.07,72.72C412.78,70.29 415.58,69.59 421.75,69.26C426.01,69.03 431.27,69.23 433.43,69.70C437.37,70.56 437.37,70.56 432.24,74.32C429.42,76.39 425.28,80.27 423.05,82.94C420.81,85.62 417.89,90.21 416.55,93.15C415.22,96.09 413.84,99.85 413.49,101.50C412.95,104.09 413.04,104.28 414.18,102.87C414.91,101.97 416.95,99.15 418.73,96.61C420.51,94.07 423.43,91.08 425.23,89.98C427.03,88.87 429.53,87.69 430.80,87.36C432.06,87.03 433.31,86.98 433.57,87.24C433.84,87.50 432.46,90.52 430.53,93.95C428.59,97.39 427.00,100.37 427.00,100.60C427.00,100.82 427.39,101.00 427.87,101.00C428.35,101.00 432.06,98.36 436.12,95.14C440.18,91.91 444.85,88.59 446.50,87.76C448.94,86.53 452.93,86.33 468.00,86.65C478.18,86.86 487.32,87.03 488.33,87.02C489.72,87.00 488.98,88.33 485.22,92.54C482.51,95.59 479.06,100.58 477.56,103.64C476.07,106.69 474.60,110.84 474.31,112.85C473.78,116.45 473.90,116.37 483.64,106.31C491.45,98.25 494.86,95.49 500.05,93.06C503.65,91.38 510.63,89.15 515.55,88.11C520.47,87.06 527.65,85.95 531.50,85.63C538.36,85.05 538.45,85.08 536.00,86.77C534.62,87.72 531.58,90.25 529.23,92.40C526.88,94.54 525.14,96.47 525.36,96.70C525.58,96.92 530.21,95.11 535.63,92.67C541.06,90.24 549.85,86.85 555.17,85.15C560.48,83.45 569.03,81.55 574.17,80.92C579.61,80.25 587.40,80.06 592.84,80.46C597.98,80.83 603.16,81.51 604.34,81.96C606.41,82.76 606.37,82.85 603.50,84.00C601.85,84.66 596.67,86.29 592.00,87.61C587.33,88.92 577.10,91.35 569.27,92.99C561.44,94.63 551.77,97.12 547.78,98.51C543.79,99.90 538.10,102.50 535.15,104.27C532.19,106.05 528.27,109.32 526.44,111.53C524.61,113.75 521.78,118.25 520.16,121.53C518.53,124.82 516.26,130.39 515.10,133.92C513.95,137.44 513.00,141.21 513.00,142.29C513.00,143.83 513.29,144.00 514.36,143.11C515.11,142.49 517.81,138.45 520.36,134.14C522.90,129.82 526.83,124.20 529.08,121.65C532.41,117.87 533.79,117.00 536.50,117.00C538.34,117.00 540.53,117.27 541.38,117.59C542.67,118.09 542.46,118.99 540.02,123.34C538.43,126.18 536.27,130.75 535.21,133.50C534.15,136.25 532.99,139.74 532.62,141.25C532.25,142.79 532.38,144.00 532.91,144.00C533.44,144.00 536.56,140.26 539.86,135.69C543.16,131.12 547.97,125.44 550.56,123.05C555.26,118.72 555.26,118.72 563.88,119.32C568.62,119.65 577.67,120.43 583.98,121.04C590.29,121.66 596.04,122.49 596.76,122.89C597.67,123.39 596.67,124.61 593.50,126.89C590.99,128.70 587.17,132.51 585.01,135.37C582.85,138.23 579.99,143.02 578.66,146.03C577.32,149.04 575.96,152.96 575.64,154.75C575.31,156.54 575.44,158.00 575.91,158.00C576.38,158.00 578.92,155.06 581.56,151.47C584.19,147.88 587.79,144.06 589.54,142.97C591.30,141.89 593.47,141.00 594.37,141.00C595.27,141.00 596.00,141.37 596.00,141.83C596.00,142.28 594.85,145.48 593.45,148.94C592.04,152.40 591.12,155.46 591.41,155.74C591.69,156.02 594.27,154.14 597.15,151.56C600.02,148.97 603.75,146.10 605.44,145.18C607.89,143.83 610.87,143.54 620.50,143.70C627.10,143.81 633.83,144.29 635.45,144.76C638.37,145.61 638.30,145.68 629.55,150.97C624.67,153.91 617.91,159.06 614.51,162.41C611.11,165.76 606.70,171.44 604.71,175.02C602.71,178.61 599.94,184.59 598.54,188.30C597.14,192.01 596.00,195.49 596.00,196.02C596.00,196.56 596.35,197.00 596.78,197.00C597.21,197.00 600.92,194.29 605.03,190.98C609.14,187.67 616.38,182.99 621.13,180.59C626.42,177.91 633.38,175.40 639.13,174.11C644.28,172.94 655.11,170.31 663.19,168.27C671.27,166.22 678.14,164.81 678.45,165.12C678.77,165.44 677.88,168.29 676.47,171.47C675.07,174.65 674.10,177.43 674.32,177.65C674.54,177.87 675.86,176.56 677.26,174.72C678.66,172.89 681.98,169.14 684.65,166.39C687.32,163.64 691.54,160.00 694.02,158.31C696.51,156.61 700.30,154.48 702.46,153.58C704.61,152.68 709.77,151.09 713.93,150.04C718.09,148.99 727.86,147.20 735.63,146.07C743.40,144.93 752.23,144.00 755.26,144.00C759.09,144.00 761.16,144.49 762.09,145.61C763.22,146.97 763.16,147.41 761.73,148.45C760.75,149.17 755.08,149.95 748.27,150.31C741.80,150.65 733.80,151.64 730.50,152.51C727.20,153.38 722.02,155.48 719.00,157.17C715.98,158.86 711.53,161.84 709.12,163.79C706.71,165.75 702.73,170.08 700.27,173.42C697.80,176.77 694.91,181.22 693.84,183.33C692.76,185.43 692.02,187.87 692.19,188.75C692.42,189.92 694.41,188.65 699.50,184.11C703.35,180.67 708.43,176.71 710.80,175.30C713.16,173.90 715.38,173.04 715.72,173.39C716.07,173.74 715.57,176.53 714.60,179.60C713.63,182.67 713.09,185.43 713.40,185.73C713.70,186.04 714.24,185.55 714.58,184.65C714.93,183.74 720.45,178.66 726.86,173.34C733.26,168.03 740.52,162.78 742.99,161.69C745.47,160.59 749.74,159.09 752.49,158.36C755.25,157.62 758.74,157.02 760.25,157.01C762.73,157.00 763.00,157.35 763.00,160.50C763.00,162.63 762.51,164.00 761.75,164.01C761.06,164.02 758.25,165.07 755.50,166.35C752.75,167.63 747.93,171.03 744.79,173.90C741.39,177.01 738.01,181.33 736.41,184.59C734.94,187.60 733.98,190.31 734.28,190.61C734.57,190.91 738.57,188.29 743.16,184.80C747.75,181.30 753.69,177.41 756.37,176.16C759.05,174.90 761.86,174.12 762.62,174.41C763.73,174.83 764.00,178.99 764.00,195.90C764.00,215.01 763.85,216.91 762.25,217.35C761.29,217.62 754.99,218.14 748.25,218.51C741.51,218.87 736.00,218.85 736.00,218.45C736.00,218.05 736.79,217.10 737.75,216.33C738.71,215.57 741.98,213.67 745.00,212.11C748.02,210.55 752.19,208.73 754.25,208.06C756.31,207.39 758.00,206.43 758.00,205.92C758.00,205.40 750.95,205.00 741.62,205.00C732.61,205.00 713.59,204.32 699.37,203.48C685.14,202.65 669.00,201.49 663.50,200.90C657.59,200.27 645.93,200.10 635.00,200.47C624.83,200.82 612.45,201.54 607.50,202.08C602.55,202.61 596.22,203.70 593.44,204.50C590.49,205.34 584.87,208.49 579.94,212.06C575.30,215.43 569.83,219.04 567.79,220.09C565.75,221.14 563.72,221.98 563.29,221.95zM651.50,210.00C649.09,210.00 646.82,209.52 646.46,208.94C646.10,208.35 646.59,207.00 647.56,205.94C648.52,204.87 650.14,204.00 651.15,204.00C652.17,204.00 653.92,204.92 655.04,206.04C656.16,207.16 656.80,208.51 656.48,209.04C656.15,209.57 653.91,210.00 651.50,210.00zM727.56,129.00C724.57,129.00 721.88,128.62 721.59,128.15C721.31,127.68 721.97,126.33 723.07,125.15C724.18,123.97 726.12,123.00 727.38,123.00C728.65,123.00 730.43,123.82 731.35,124.83C732.26,125.83 733.00,127.18 733.00,127.83C733.00,128.58 731.05,129.00 727.56,129.00zM279.50,126.32C274.55,126.54 266.45,126.39 261.50,125.96C256.55,125.54 248.45,124.44 243.50,123.51C238.55,122.58 231.86,120.94 228.64,119.86C225.42,118.79 221.66,117.17 220.27,116.26C217.76,114.61 217.76,114.61 219.98,112.82C221.20,111.83 223.96,110.49 226.11,109.85C229.18,108.93 230.54,108.95 232.38,109.94C233.68,110.63 235.55,111.04 236.54,110.85C237.60,110.64 238.88,108.86 239.68,106.46C240.42,104.24 242.40,100.75 244.09,98.71C245.77,96.67 247.53,95.00 248.01,95.00C248.49,95.00 248.61,96.64 248.28,98.64C247.69,102.28 247.69,102.28 251.39,101.59C253.42,101.21 258.33,100.53 262.29,100.08C266.26,99.64 271.85,98.26 274.73,97.02C278.04,95.60 280.87,95.00 282.45,95.40C283.83,95.74 286.76,95.46 288.97,94.77C291.19,94.08 293.00,93.04 293.00,92.46C293.00,91.88 292.46,90.86 291.80,90.20C290.87,89.27 291.23,89.00 293.43,89.00C295.45,89.00 297.44,90.22 300.38,93.26C302.65,95.60 305.44,98.67 306.60,100.09C308.69,102.66 308.69,102.66 305.85,105.85C304.28,107.60 303.00,109.47 303.00,110.02C303.00,110.56 304.74,111.00 306.88,111.00C309.01,111.00 311.24,110.41 311.84,109.70C312.43,108.98 312.64,107.34 312.30,106.04C311.72,103.84 311.90,103.73 314.96,104.34C316.76,104.70 320.99,106.64 324.37,108.64C327.74,110.65 331.03,112.94 331.68,113.74C332.33,114.54 332.61,115.84 332.31,116.63C332.01,117.43 330.48,118.73 328.92,119.54C327.36,120.35 323.25,121.66 319.79,122.45C316.33,123.25 307.88,124.35 301.00,124.90C294.12,125.45 284.45,126.09 279.50,126.32zM271.31,109.00C272.58,109.00 274.71,107.99 276.05,106.75C278.47,104.50 278.47,104.50 276.18,104.17C274.92,103.99 272.79,104.57 271.44,105.45C270.10,106.33 269.00,107.49 269.00,108.02C269.00,108.56 270.04,109.00 271.31,109.00zM692.00,103.32C687.88,103.57 679.55,103.43 673.50,103.01C667.45,102.60 661.38,102.19 660.00,102.11C658.62,102.03 656.85,101.56 656.06,101.06C654.82,100.27 654.82,99.93 656.06,98.42C656.85,97.47 658.82,96.14 660.43,95.46C662.85,94.45 664.11,94.51 667.63,95.81C671.68,97.31 672.02,97.29 674.06,95.45C675.70,93.96 677.67,93.50 682.36,93.50C688.50,93.50 688.50,93.50 688.81,90.34C689.04,87.90 689.70,87.04 691.73,86.53C693.70,86.04 696.89,87.11 704.67,90.90C710.35,93.66 715.00,96.38 715.00,96.93C715.00,97.49 713.76,98.58 712.25,99.35C710.74,100.12 707.25,101.23 704.50,101.81C701.75,102.40 696.12,103.07 692.00,103.32zM199.00,85.91C192.12,85.87 183.90,85.27 180.73,84.59C177.55,83.91 174.40,82.79 173.73,82.09C172.75,81.09 173.21,80.24 175.97,77.91C178.76,75.56 180.05,75.11 182.61,75.59C184.46,75.93 186.78,75.64 188.14,74.89C189.44,74.17 191.40,73.73 192.50,73.89C193.60,74.06 195.04,74.64 195.69,75.17C196.35,75.71 197.93,76.01 199.19,75.83C200.64,75.62 202.06,74.30 203.00,72.27C203.82,70.50 204.92,69.03 205.44,69.02C205.95,69.01 207.37,68.06 208.59,66.91C210.37,65.24 211.21,65.04 212.82,65.90C213.92,66.49 216.94,69.46 219.53,72.49C222.75,76.25 224.98,78.00 226.57,78.00C227.86,78.00 230.05,78.52 231.45,79.16C232.85,79.80 234.00,80.71 234.00,81.19C234.00,81.66 232.96,82.44 231.70,82.92C230.43,83.41 225.37,84.29 220.45,84.90C215.53,85.50 205.88,85.96 199.00,85.91zM566.00,68.85C556.92,68.79 547.92,68.42 546.00,68.04C542.50,67.33 542.50,67.33 546.04,65.74C547.98,64.87 553.16,63.24 557.54,62.13C561.92,61.01 569.52,59.61 574.43,59.00C579.34,58.40 583.71,57.68 584.15,57.41C584.59,57.13 589.72,57.62 595.56,58.49C601.39,59.35 607.59,60.64 609.33,61.35C612.50,62.65 612.50,62.65 604.50,64.80C600.10,65.98 593.35,67.40 589.50,67.96C585.65,68.51 575.08,68.91 566.00,68.85zM576.69,51.86C572.74,51.79 568.49,51.53 567.25,51.29C566.01,51.06 565.00,50.51 565.00,50.09C565.00,49.66 565.79,48.62 566.75,47.78C567.71,46.94 569.56,45.71 570.87,45.03C572.74,44.06 574.16,44.06 577.66,45.04C580.09,45.73 582.72,47.19 583.50,48.30C584.28,49.42 584.68,50.70 584.40,51.16C584.11,51.62 580.65,51.94 576.69,51.86z" />

</svg>