<?xml version="1.0" encoding="UTF-8" standalone="no"?>
<svg 
  version="1.1" 
  xmlns="http://www.w3.org/2000/svg" 
  xmlns:xlink="http://www.w3.org/1999/xlink" 
  xmlns:svg="http://www.w3.org/2000/svg"
  xmlns:rdf="http://www.w3.org/1999/02/22-rdf-syntax-ns#"
  xmlns:cc="http://creativecommons.org/ns#"
  xmlns:dc="http://purl.org/dc/elements/1.1/"
  viewBox="0 0 768 768"
  width="768"
  height="768"
>
<style>svg {background-color: white; }</style>"
<metadata id="metadata1">
Created by https://svgstud.io and licensed under CC-BY-SA 4.0 license. Please attribute https://svgstud.io
</metadata>
<metadata id="prompt">
river winding through valley
</metadata>
<metadata id="version">
7
</metadata>
<metadata id="metadata2">
<rdf:RDF>
<cc:Work
    rdf:about="">
    <cc:license
    rdf:resource="http://creativecommons.org/licenses/by-sa/4.0/" />
    <dc:creator>
        <cc:Agent>
            <dc:title>https://svgstud.io</dc:title>
        </cc:Agent>
    </dc:creator>
</cc:Work>
<cc:License
    rdf:about="http://creativecommons.org/licenses/by-sa/4.0/">
    <cc:permits
    rdf:resource="http://creativecommons.org/ns#Reproduction" />
    <cc:permits
    rdf:resource="http://creativecommons.org/ns#Distribution" />
    <cc:requires
    rdf:resource="http://creativecommons.org/ns#Notice" />
    <cc:requires
    rdf:resource="http://creativecommons.org/ns#Attribution" />
    <cc:permits
    rdf:resource="http://creativecommons.org/ns#DerivativeWorks" />
    <cc:requires
    rdf:resource="http://creativecommons.org/ns#ShareAlike" />
</cc:License>
</rdf:RDF>
</metadata>
<metadata id="uid">
2dc330ebc6108216004db8d946e33fc40bf6833c7e74a0ff3623fbf940f6da1d
</metadata>
<path stroke="none" fill="black" fill-rule="evenodd" d="M634.7,768.0C561.3,768.0 501.1,767.8 500.9,767.6C500.7,767.4 420.9,767.0 323.5,766.6C226.1,766.2 136.6,765.7 124.5,765.4C112.4,765.2 97.8,764.5 92.0,764.0C86.2,763.5 79.2,762.3 76.5,761.4C73.8,760.5 69.1,758.1 66.2,756.2C63.3,754.3 59.2,750.8 57.2,748.4C55.2,746.0 52.1,743.5 50.2,742.9C47.9,742.2 47.1,741.5 47.8,740.8C48.4,740.2 67.1,739.6 97.9,739.2C131.4,738.9 147.5,738.3 148.4,737.6C149.1,737.0 151.4,731.6 153.4,725.7C155.4,719.7 159.1,710.8 161.5,705.9C164.0,701.0 167.9,694.0 170.1,690.3C172.4,686.5 176.3,680.8 178.8,677.5C181.3,674.2 188.6,665.4 194.9,658.0C201.2,650.6 213.9,637.1 223.0,628.0C233.6,617.3 251.1,601.8 272.2,584.2C290.1,569.3 310.0,552.3 316.3,546.6C322.6,540.9 329.8,533.8 332.2,530.8C334.7,527.9 339.2,521.8 342.2,517.3C345.6,512.4 348.8,505.9 350.5,500.8C352.7,494.0 353.2,490.7 353.2,482.5C353.3,475.6 352.6,469.9 351.1,464.0C350.0,459.3 348.3,453.0 347.5,450.0C346.7,447.0 346.0,441.6 346.0,438.0C346.0,433.5 346.8,429.7 348.4,425.8C349.7,422.7 352.2,418.3 354.0,416.0C355.8,413.8 359.9,410.1 363.2,407.9C366.5,405.6 371.5,402.8 374.4,401.5C377.2,400.2 384.3,398.0 390.0,396.6C395.8,395.2 409.4,392.4 420.4,390.5C431.3,388.6 441.7,387.0 443.4,387.1C446.5,387.2 446.5,387.2 442.5,389.0C440.3,390.0 427.2,393.2 413.5,396.0C399.8,398.9 385.1,402.5 380.9,404.1C376.7,405.7 370.1,409.2 366.4,411.9C362.6,414.6 358.5,418.1 357.4,419.7C356.2,421.3 354.2,424.6 353.0,427.0C351.2,430.4 350.7,433.2 350.7,438.5C350.6,443.4 351.6,448.8 353.8,456.5C355.5,462.6 357.4,470.6 358.0,474.5C358.6,478.4 359.5,481.8 359.9,482.3C360.3,482.7 362.2,482.4 364.1,481.6C366.1,480.8 372.1,479.0 377.6,477.6C383.0,476.2 390.0,474.2 393.2,473.1C396.3,472.0 404.5,467.8 411.5,463.7C418.4,459.5 427.5,454.7 431.6,453.0C435.7,451.3 443.9,448.6 449.8,447.1C455.7,445.6 465.7,443.5 472.0,442.6C478.3,441.7 485.1,440.6 487.0,440.2C489.8,439.6 490.4,439.1 490.2,437.5C490.0,436.4 487.8,432.1 485.3,428.0C482.8,423.9 477.5,416.2 473.6,411.0C469.7,405.8 462.7,397.5 458.0,392.5C453.3,387.6 444.6,378.5 438.5,372.5C432.5,366.4 423.6,358.4 418.7,354.7C413.9,351.0 405.4,344.9 399.7,341.1C394.1,337.3 378.5,327.9 365.0,320.2C351.5,312.6 336.0,303.9 330.5,301.0C321.9,296.5 320.0,295.9 316.5,296.3C314.3,296.7 303.9,298.0 293.5,299.4C282.6,300.9 269.6,302.0 263.0,302.0C256.7,302.0 250.5,301.7 249.3,301.4C248.0,301.0 247.3,300.4 247.6,299.9C247.9,299.4 252.5,299.0 257.8,299.0C263.1,299.0 272.7,298.5 279.0,298.0C285.3,297.4 296.0,296.6 302.8,296.1C309.5,295.6 315.4,295.0 315.7,294.6C316.1,294.2 315.7,293.3 314.9,292.6C314.1,291.8 305.2,286.6 295.0,281.0C284.8,275.3 274.6,269.4 272.3,267.9C270.0,266.3 267.2,263.8 266.1,262.4C265.0,261.0 263.8,258.3 263.4,256.4C263.1,254.5 263.1,251.3 263.5,249.2C264.0,246.5 265.7,244.0 269.8,240.0C273.0,236.9 276.6,233.7 278.0,232.8C280.5,231.1 280.5,231.1 277.3,231.1C275.6,231.0 267.7,232.2 259.8,233.6C252.0,235.1 240.1,237.8 233.5,239.7C226.9,241.5 218.4,244.6 214.5,246.5C210.6,248.3 205.7,251.3 203.5,253.0C201.3,254.7 198.8,257.3 197.8,258.8C196.8,260.3 196.0,263.0 196.0,264.8C196.0,266.7 196.8,269.8 197.7,271.7C198.6,273.7 201.8,277.9 204.8,281.2C207.8,284.4 218.7,294.9 228.9,304.4C239.2,314.0 251.4,326.2 256.0,331.5C260.7,336.9 266.6,344.1 269.1,347.5C271.6,351.0 275.5,357.4 277.8,361.7C280.0,366.0 282.9,372.9 284.2,377.0C286.3,383.7 286.5,386.4 286.5,403.0C286.5,416.6 286.0,423.8 284.7,430.2C283.7,435.1 281.6,443.2 279.9,448.2C278.2,453.3 274.4,462.4 271.5,468.5C268.6,474.6 263.3,484.2 259.8,490.0C256.3,495.8 249.7,505.4 245.2,511.5C240.7,517.5 231.2,528.8 224.2,536.4C217.2,544.0 202.9,558.0 192.5,567.4C182.1,576.9 162.5,594.1 149.0,605.7C135.5,617.3 116.7,634.3 107.1,643.6C97.5,652.9 85.5,665.1 80.5,670.7C75.4,676.3 67.7,685.5 63.3,691.2C58.9,696.9 51.1,707.6 45.9,715.1C40.7,722.6 35.7,730.2 34.8,731.9C33.9,733.6 32.4,735.0 31.7,735.0C30.9,735.0 30.0,734.4 29.7,733.8C29.5,733.1 29.6,721.0 30.1,707.0C30.5,693.0 30.9,671.3 30.9,658.8C31.0,646.3 31.4,635.1 31.9,633.8C32.4,632.4 40.6,626.2 53.4,617.5C64.7,609.8 86.0,595.2 100.8,585.0C115.5,574.8 132.5,562.9 138.5,558.6C144.6,554.2 152.9,547.9 157.0,544.6C161.1,541.3 169.4,534.2 175.5,528.9C181.6,523.5 191.5,514.0 197.7,507.8C203.8,501.6 212.3,492.4 216.5,487.5C220.7,482.6 227.5,473.6 231.5,467.5C235.6,461.4 241.1,452.0 243.8,446.5C246.6,441.0 250.2,432.5 251.9,427.7C253.6,422.8 255.9,414.3 257.1,408.7C258.5,401.8 259.3,394.6 259.3,386.5C259.4,377.9 258.9,372.7 257.6,368.0C256.6,364.4 254.3,358.4 252.3,354.5C250.4,350.6 246.2,343.9 243.1,339.6C240.0,335.2 236.1,330.2 234.4,328.3C232.2,326.0 230.4,325.0 228.3,325.0C226.6,325.0 218.6,328.4 209.4,333.0C200.7,337.4 189.7,342.3 185.0,343.9C180.3,345.5 173.1,347.6 168.9,348.4C164.6,349.3 149.3,351.5 134.9,353.4C118.5,355.6 97.7,359.1 80.0,362.9C64.3,366.2 47.3,369.6 42.2,370.5C37.1,371.4 32.5,371.8 32.0,371.5C31.4,371.1 31.0,361.3 31.0,347.0C31.0,331.9 31.4,322.9 32.0,322.5C32.6,322.1 39.0,323.9 46.4,326.4C53.7,328.9 60.2,331.0 60.9,331.0C61.5,331.0 62.3,329.6 62.7,328.0C63.0,326.3 63.6,324.7 64.1,324.4C64.6,324.1 65.9,325.5 67.1,327.4C68.3,329.4 69.6,331.0 70.1,331.0C70.6,331.0 71.2,329.8 71.6,328.2C71.9,326.7 72.6,323.9 73.1,322.0C73.6,320.0 74.6,317.6 75.4,316.5C76.2,315.4 77.1,314.8 77.5,315.2C77.9,315.5 78.7,319.4 79.2,323.7C79.8,328.0 80.9,332.1 81.6,332.9C82.6,334.0 83.4,333.2 86.0,327.9C89.2,321.6 89.2,321.6 91.1,323.9C92.5,325.6 93.0,327.8 93.0,332.1C93.0,337.5 93.2,338.1 95.5,339.0C96.8,339.5 102.8,340.6 108.7,341.5C115.8,342.5 124.6,343.0 134.5,342.8C149.5,342.5 149.5,342.5 149.8,334.4C150.0,328.0 149.7,326.0 148.5,325.0C147.2,323.9 145.9,323.9 142.0,324.8C138.5,325.6 135.5,325.7 131.8,325.0C128.9,324.4 125.7,323.1 124.7,322.1C123.1,320.6 123.0,319.9 124.0,318.1C124.6,316.8 124.9,314.2 124.5,311.7C124.0,308.4 124.3,306.9 125.8,305.0C126.8,303.6 128.3,300.2 128.9,297.3C129.6,294.5 130.7,291.4 131.4,290.4C132.1,289.5 133.2,289.0 133.8,289.4C134.4,289.7 136.0,293.2 137.5,297.0C139.0,300.8 140.6,304.2 141.1,304.6C141.6,304.9 141.8,306.1 141.5,307.3C141.2,308.5 141.4,310.2 142.0,311.0C142.9,312.3 143.2,312.3 144.5,310.6C145.4,309.4 145.6,308.2 145.1,307.2C144.5,306.1 144.9,304.6 146.5,302.6C147.8,300.9 150.0,296.8 151.4,293.6C152.9,290.3 154.5,287.0 155.2,286.3C156.0,285.3 156.6,285.2 157.7,286.2C158.5,286.9 161.0,291.2 163.1,295.8C165.2,300.5 167.0,305.4 167.0,306.9C167.0,308.5 168.0,310.2 169.7,311.6C172.2,313.6 172.3,314.1 171.5,317.6C170.7,320.6 169.7,321.9 167.0,323.2C165.0,324.2 161.2,325.0 158.2,325.0C153.0,325.0 153.0,325.0 153.0,332.8C153.0,337.0 153.4,341.1 153.9,341.8C154.5,342.8 156.2,342.9 160.1,342.5C163.1,342.1 169.1,341.2 173.5,340.3C177.9,339.5 184.7,337.6 188.5,336.3C192.3,334.9 198.4,332.3 202.0,330.5C205.6,328.7 212.2,325.8 216.8,324.0C221.3,322.2 225.0,320.2 225.0,319.5C225.0,318.8 222.7,316.2 220.0,313.6C216.7,310.5 214.4,309.1 213.2,309.4C212.3,309.7 207.8,310.9 203.3,312.0C198.8,313.2 193.1,314.0 190.8,313.8C186.5,313.4 186.5,313.4 189.4,312.2C191.0,311.5 196.4,310.0 201.4,308.9C206.4,307.8 210.7,306.7 211.0,306.4C211.3,306.1 204.4,298.9 195.7,290.5C185.1,280.1 179.3,273.7 178.0,270.8C176.9,268.4 176.0,264.8 176.0,262.6C176.0,259.2 176.7,258.1 182.8,252.0C187.5,247.3 191.9,244.1 197.5,241.2C201.9,239.0 209.8,235.9 215.1,234.2C220.4,232.5 229.2,230.2 234.7,229.1C240.2,227.9 252.1,226.1 261.1,225.0C270.1,223.9 284.2,222.1 292.5,221.0C300.8,219.8 311.3,218.2 316.0,217.4C320.7,216.5 325.0,215.4 325.7,214.8C326.4,214.2 327.0,213.0 327.0,212.0C327.0,210.8 325.2,209.6 321.1,208.1C317.9,207.0 310.2,203.5 304.0,200.5C296.8,196.9 286.7,193.2 275.9,190.0C266.7,187.3 256.3,183.9 252.7,182.6C249.2,181.3 244.4,179.2 241.9,178.0C239.5,176.7 235.8,174.4 233.7,172.8C231.6,171.1 227.1,166.1 223.5,161.6C220.0,157.1 215.1,151.5 212.7,149.3C210.3,147.1 202.3,141.7 194.8,137.2C187.3,132.8 177.0,127.0 171.9,124.4C166.7,121.8 158.7,118.3 154.0,116.5C149.3,114.7 141.0,112.2 135.5,111.1C130.0,109.9 116.1,107.8 104.5,106.5C92.9,105.1 78.1,103.7 71.5,103.4C60.2,102.9 59.6,103.0 61.5,104.5C62.6,105.4 69.3,109.1 76.3,112.6C83.4,116.2 95.4,123.3 103.1,128.6C110.9,133.8 119.5,139.2 122.3,140.7C125.2,142.1 132.2,145.1 138.0,147.2C143.8,149.4 152.8,153.0 158.0,155.2C163.2,157.4 171.1,161.0 175.5,163.2C179.9,165.4 186.0,169.0 189.0,171.3C192.0,173.6 198.1,178.8 202.5,182.9C206.8,187.0 213.1,192.0 216.4,194.2C219.6,196.3 226.4,199.3 231.4,200.9C236.4,202.5 245.9,204.7 252.5,205.9C259.1,207.1 268.4,208.8 273.3,209.6C278.1,210.5 282.3,211.7 282.6,212.2C283.0,212.8 275.9,213.0 262.9,212.5C251.7,212.2 235.0,211.5 225.9,211.0C216.7,210.4 204.0,209.1 197.6,208.0C191.2,206.9 182.5,204.9 178.3,203.5C174.2,202.1 168.9,199.7 166.6,198.1C164.4,196.5 157.5,190.3 151.5,184.2C142.0,174.9 139.2,172.7 132.0,169.2C127.3,166.9 119.5,163.9 114.5,162.5C109.5,161.1 95.6,158.1 83.5,156.0C71.4,153.8 57.5,151.6 52.5,151.1C47.5,150.5 40.5,149.8 36.9,149.5C30.3,148.9 30.3,148.9 29.7,136.2C29.3,129.2 29.0,117.1 29.0,109.3C29.0,96.7 29.2,95.0 30.8,94.1C31.7,93.6 36.4,92.6 41.0,91.8C46.3,91.0 58.1,90.5 72.0,90.5C85.8,90.5 97.8,91.0 103.0,91.8C107.7,92.6 116.0,94.1 121.5,95.2C127.0,96.2 142.5,99.9 156.0,103.3C180.5,109.5 180.5,109.5 218.1,109.2C239.0,109.0 261.2,109.4 268.1,110.0C274.9,110.5 290.6,111.5 303.0,112.0C315.4,112.5 329.8,113.4 335.0,114.1C340.2,114.7 350.6,116.1 358.0,117.1C365.4,118.2 379.1,120.2 388.5,121.5C397.9,122.8 419.7,124.9 437.0,126.0C454.3,127.1 475.7,128.8 484.5,129.6C494.4,130.6 504.5,131.0 511.0,130.7C517.5,130.3 525.1,129.1 531.0,127.5C536.2,126.1 544.0,123.8 548.4,122.4C553.8,120.6 555.8,119.5 554.9,118.9C554.1,118.4 549.2,118.0 544.0,118.0C538.8,118.0 526.9,119.2 517.5,120.6C508.1,121.9 496.0,123.3 490.5,123.6C484.1,123.9 481.0,123.8 482.0,123.2C482.8,122.7 486.9,121.5 491.0,120.6C495.2,119.7 500.2,118.5 502.3,117.9C504.4,117.4 505.8,116.5 505.6,116.1C505.3,115.6 502.2,114.7 498.8,113.9C495.2,113.1 486.9,112.5 479.6,112.5C472.5,112.5 467.5,112.3 468.6,112.2C469.6,112.0 470.9,111.5 471.3,111.0C471.8,110.6 470.2,110.0 467.8,109.7C465.4,109.3 460.8,108.8 457.5,108.4C453.5,108.0 444.5,108.8 430.5,110.6C417.5,112.3 404.4,113.3 396.0,113.4C382.8,113.5 382.2,113.4 371.9,109.8C366.1,107.7 359.8,106.0 357.9,106.0C356.0,106.0 350.9,106.6 346.5,107.4C342.1,108.2 335.6,109.1 332.0,109.5C327.4,110.0 325.8,109.9 326.5,109.1C327.1,108.5 332.0,106.9 337.5,105.5C343.0,104.0 350.9,102.6 355.2,102.3C362.3,101.8 363.6,102.0 374.8,105.9C385.0,109.4 388.1,110.0 394.9,110.0C399.4,110.0 410.6,108.6 420.7,106.8C435.1,104.3 441.1,103.7 452.0,103.7C459.4,103.8 470.4,104.5 476.5,105.4C482.6,106.4 493.1,108.5 500.0,110.1C512.3,113.1 512.7,113.2 522.8,111.9C530.1,111.1 540.6,110.9 558.8,111.4C584.5,112.1 584.5,112.1 595.0,108.5C600.8,106.5 613.5,102.9 623.3,100.4C633.0,98.0 644.7,95.5 649.3,94.9C654.0,94.3 662.8,94.1 670.0,94.4C676.9,94.8 688.8,96.0 696.5,97.1C706.2,98.6 713.5,99.1 720.2,98.8C726.0,98.5 730.5,97.8 731.5,97.0C732.6,96.1 733.0,93.8 733.1,88.6C733.1,84.7 733.4,79.7 733.9,77.5C734.6,73.5 734.6,73.5 735.3,79.0C735.7,82.0 736.0,86.4 736.0,88.8C736.0,91.1 736.7,94.5 737.5,96.3C738.3,98.1 739.5,100.3 740.2,101.4C740.9,102.4 743.6,105.4 746.1,107.9C748.6,110.5 750.9,113.8 751.2,115.2C751.5,116.7 751.3,138.7 750.9,164.2C750.5,189.6 749.7,217.5 749.1,226.0C748.5,234.5 747.4,258.8 746.5,280.0C745.7,301.2 744.8,320.2 744.5,322.3C744.2,324.4 743.3,339.7 742.5,356.2C741.4,377.0 741.2,398.2 741.5,425.4C741.8,446.9 742.4,474.6 743.0,487.0C743.5,499.4 744.2,518.0 744.5,528.5C744.9,539.0 745.3,548.6 745.5,550.0C745.7,551.4 746.2,556.1 746.5,560.5C746.8,564.9 747.5,571.0 748.0,574.0C748.5,577.0 749.1,582.6 749.5,586.5C749.9,590.4 751.0,599.1 752.0,606.0C753.0,612.9 754.8,621.1 755.9,624.2C757.1,627.4 758.9,632.4 759.9,635.2C761.0,638.1 763.1,643.6 764.7,647.5C767.5,654.5 767.5,654.5 767.7,711.2C768.0,768.0 768.0,768.0 634.7,768.0zM681.1,740.6C722.6,740.5 724.9,740.4 726.9,738.6C728.9,736.8 729.0,735.8 728.9,717.6C728.9,707.1 728.5,697.6 728.1,696.5C727.4,694.8 724.9,694.2 710.9,691.9C701.9,690.4 686.2,687.8 676.0,686.0C665.8,684.3 653.2,682.0 648.0,680.9C642.8,679.7 633.6,677.5 627.6,675.9C621.7,674.3 612.4,671.3 607.1,669.3C601.8,667.4 594.8,664.4 591.5,662.8C588.2,661.1 582.6,657.8 579.0,655.5C575.4,653.1 569.7,648.3 566.4,644.8C563.0,641.3 558.9,635.7 557.2,632.5C555.6,629.2 553.7,624.1 553.1,621.2C552.5,618.3 552.0,611.6 552.0,606.4C552.0,601.2 552.7,593.5 553.6,589.4C554.4,585.3 555.5,581.0 555.9,579.8C556.3,578.6 556.6,585.3 556.6,594.6C556.6,609.8 556.8,612.1 558.8,617.1C560.1,620.3 563.0,624.9 565.3,627.5C567.6,630.2 571.2,633.6 573.4,635.2C575.5,636.7 578.1,638.0 579.1,638.0C580.4,638.0 581.0,636.9 581.6,633.5C581.9,631.0 582.6,629.0 583.1,629.0C583.6,629.0 584.0,631.4 584.0,634.4C584.0,639.2 584.3,640.1 586.8,641.8C588.3,642.8 593.8,645.5 599.0,647.7C604.2,650.0 612.8,653.4 618.1,655.4C623.4,657.3 632.6,660.3 638.6,662.0C644.6,663.7 656.9,666.6 666.0,668.5C675.1,670.4 691.8,673.9 703.3,676.4C714.7,679.0 725.2,681.0 726.5,681.0C729.0,681.0 729.0,681.0 729.0,652.0C729.0,623.0 729.0,623.0 726.8,622.6C725.5,622.3 720.5,621.8 715.5,621.5C710.5,621.2 702.2,620.3 697.0,619.5C691.7,618.7 682.5,616.9 676.5,615.5C670.4,614.1 661.3,611.5 656.2,609.9C651.0,608.2 643.6,605.3 639.7,603.6C635.7,601.8 628.8,598.5 624.4,596.3C619.9,594.0 610.9,588.5 604.4,584.1C597.8,579.8 589.0,573.0 584.8,569.1C580.6,565.1 575.1,558.9 572.7,555.2C570.2,551.5 567.5,546.7 566.5,544.5C565.6,542.3 564.2,537.8 563.5,534.5C562.7,531.2 561.6,523.5 561.0,517.5C560.5,511.4 559.3,503.2 558.4,499.3C557.6,495.3 555.7,489.2 554.3,485.8C552.9,482.3 549.4,474.8 546.6,469.0C543.7,463.2 536.9,451.5 531.6,443.0C526.2,434.5 521.2,426.2 520.3,424.7C519.5,423.1 519.0,421.4 519.2,420.8C519.4,420.2 528.2,430.5 538.7,443.8C549.3,457.0 560.0,470.8 562.5,474.6C565.1,478.3 568.7,484.3 570.5,488.0C572.3,491.6 574.5,497.1 575.4,500.1C576.2,503.1 577.6,509.8 578.5,515.0C579.4,520.2 581.2,526.9 582.5,529.8C583.8,532.7 587.3,537.4 590.2,540.3C593.1,543.2 597.6,547.1 600.3,548.9C602.9,550.6 607.7,553.4 611.0,555.1C614.2,556.7 617.6,558.0 618.4,558.0C619.4,558.0 620.2,556.6 620.6,554.2C621.0,552.2 621.9,549.2 622.7,547.6C623.8,545.5 624.5,545.1 625.3,545.9C625.9,546.5 626.9,550.2 627.5,554.2C628.5,561.0 628.7,561.5 631.1,561.8C633.2,562.1 634.0,561.5 635.0,558.8C635.7,557.0 637.0,554.7 637.9,553.6C639.4,551.9 639.6,552.2 640.5,558.1C641.5,564.5 641.5,564.5 647.0,565.3C650.0,565.7 653.4,565.9 654.4,565.8C655.8,565.6 656.7,564.0 657.6,560.2C658.4,557.2 659.8,552.9 660.8,550.7C662.6,546.5 662.6,546.5 664.4,549.2C665.4,550.8 666.6,555.3 667.1,559.6C667.5,563.8 668.2,567.5 668.5,567.8C668.8,568.1 674.0,568.6 680.1,568.8C688.9,569.2 691.4,569.0 692.1,567.9C692.6,567.1 693.0,561.2 693.0,554.8C693.0,543.0 693.0,543.0 689.1,541.1C687.0,540.0 683.8,537.9 682.1,536.4C680.4,535.0 678.3,532.5 677.5,530.9C676.7,529.4 676.0,527.4 676.0,526.5C676.0,525.5 676.9,525.0 678.8,525.0C680.3,525.0 682.9,525.9 684.5,527.0C686.1,528.1 687.8,529.0 688.2,529.0C688.7,529.0 689.0,527.9 689.0,526.6C689.0,525.3 687.8,521.9 686.4,519.1C684.2,515.0 683.9,513.3 684.4,509.6C684.8,507.2 685.7,504.6 686.5,504.0C687.3,503.3 688.7,503.0 689.5,503.4C690.3,503.7 691.8,505.5 692.7,507.5C693.6,509.4 694.7,511.0 695.1,511.0C695.5,511.0 697.0,509.0 698.4,506.5C699.9,504.0 701.7,502.0 702.5,502.0C703.3,502.0 704.2,502.5 704.6,503.2C705.0,503.8 705.3,505.8 705.2,507.6C705.1,509.5 703.9,512.7 702.5,514.8C701.1,517.0 699.7,520.4 699.3,522.4C699.0,524.5 699.1,526.0 699.7,526.0C700.3,526.0 701.3,525.3 702.0,524.4C702.8,523.6 705.3,521.7 707.7,520.3C711.2,518.3 712.3,518.0 713.5,519.0C714.3,519.7 715.0,520.8 715.0,521.6C715.0,522.3 713.6,524.3 711.9,526.1C709.7,528.3 709.1,529.5 709.9,530.3C710.5,530.9 711.0,531.9 711.0,532.6C711.0,533.3 708.9,535.0 706.4,536.5C703.9,538.0 700.9,540.1 699.9,541.1C698.2,542.8 698.0,544.5 698.0,555.2C698.0,562.0 698.5,568.2 699.0,569.0C699.7,570.2 702.8,570.6 713.3,570.8C723.7,571.1 726.8,570.9 727.8,569.8C728.6,568.8 729.0,534.9 729.2,439.7C729.4,341.3 729.2,311.0 728.3,311.0C727.7,311.0 722.9,313.0 717.8,315.3C712.7,317.7 703.1,323.0 696.5,327.0C689.9,331.1 680.7,336.3 676.1,338.7C671.4,341.0 663.7,343.8 658.8,345.0C653.9,346.1 642.8,348.0 634.2,349.1C625.6,350.2 613.4,352.0 607.2,353.0C601.0,354.1 592.2,355.9 587.7,357.1C583.2,358.2 575.5,360.7 570.5,362.7C565.5,364.7 559.5,367.4 557.0,368.8C554.5,370.2 549.4,373.7 545.5,376.5C541.6,379.3 536.2,384.1 533.4,387.2C530.7,390.2 526.6,395.5 524.4,398.9C522.3,402.2 519.7,405.3 518.8,405.6C517.8,405.9 515.5,405.4 513.5,404.4C511.6,403.5 503.9,397.0 496.5,390.0C489.1,382.9 479.4,374.4 474.9,371.1C470.4,367.7 464.7,363.9 462.1,362.6C459.6,361.3 454.6,359.3 451.0,358.2C447.4,357.0 442.7,355.8 440.5,355.5C436.5,354.9 436.5,354.9 444.5,362.2C448.9,366.2 459.5,376.4 468.0,385.0C476.6,393.5 486.5,404.1 490.0,408.5C493.5,412.9 499.0,420.6 502.3,425.5C505.5,430.4 510.8,439.7 514.0,446.1C517.2,452.4 521.6,463.0 523.9,469.6C526.1,476.1 528.9,486.2 530.2,492.0C532.1,501.2 532.4,505.5 532.5,525.5C532.5,543.5 532.1,550.7 530.7,558.5C529.7,564.0 527.6,573.7 526.0,580.0C524.4,586.3 521.3,596.7 519.2,603.1C517.0,609.5 513.1,620.1 510.5,626.6C507.9,633.2 499.3,652.7 491.5,670.0C483.6,687.3 475.4,705.8 473.2,711.0C471.0,716.2 468.0,723.6 466.6,727.4C465.2,731.1 464.0,735.1 464.0,736.1C464.0,737.2 464.9,738.2 466.2,738.4C467.5,738.7 506.5,739.3 553.0,739.8C599.5,740.3 657.1,740.6 681.1,740.6zM232.4,738.0C269.4,738.0 301.0,737.7 302.6,737.4C304.6,737.0 306.5,735.3 308.7,732.2C310.5,729.6 315.0,723.8 318.7,719.4C322.4,714.9 329.8,706.1 335.1,699.9C340.3,693.6 346.0,686.5 347.7,684.0C349.4,681.5 351.9,677.2 353.2,674.5C354.6,671.8 356.7,666.6 357.8,663.0C359.0,659.4 360.2,654.0 360.5,651.0C360.8,648.0 361.5,639.5 362.0,632.2C362.5,624.9 363.7,616.2 364.6,612.7C365.4,609.3 367.8,603.4 369.8,599.5C372.2,594.8 376.1,589.8 381.5,584.4C385.9,579.9 392.6,574.2 396.5,571.8C400.4,569.3 406.2,565.9 409.5,564.2C412.8,562.6 419.6,559.8 424.5,558.1C429.4,556.3 442.1,552.7 452.5,550.0C463.0,547.3 477.4,544.2 484.5,543.0C491.7,541.9 498.5,540.7 499.7,540.4C500.9,540.2 502.4,539.1 503.0,538.0C503.6,536.8 504.8,531.1 505.5,525.2C506.3,519.3 507.0,509.8 507.0,504.0C507.0,498.2 506.3,489.1 505.5,483.7C504.7,478.3 503.3,471.2 502.5,467.9C501.6,464.6 499.5,458.1 497.9,453.5C495.8,447.8 494.2,444.9 492.9,444.5C491.9,444.2 485.3,444.8 478.3,446.0C471.2,447.2 461.1,449.2 455.8,450.6C450.4,451.9 442.8,454.2 438.8,455.6C434.8,457.1 428.4,459.8 424.5,461.7C420.7,463.7 414.8,467.0 411.5,469.1C408.1,471.2 402.9,474.0 399.9,475.4C397.0,476.7 387.5,479.5 379.0,481.5C370.5,483.5 362.8,485.5 362.0,485.9C361.2,486.4 360.1,488.7 359.7,491.1C359.2,493.5 358.2,498.2 357.3,501.5C356.5,504.8 354.2,510.6 352.3,514.5C350.4,518.4 347.0,524.0 344.7,527.0C342.4,530.0 336.7,536.5 332.0,541.4C327.3,546.3 317.0,556.0 309.0,562.9C301.0,569.9 285.7,583.1 275.0,592.2C264.3,601.3 249.4,614.5 242.0,621.4C234.6,628.4 224.3,638.7 219.2,644.3C214.1,649.9 206.2,659.0 201.8,664.5C197.3,670.0 190.3,679.7 186.1,686.0C182.0,692.3 176.7,701.8 174.4,707.0C172.1,712.2 169.1,720.0 167.6,724.4C166.2,728.7 165.0,733.5 165.0,735.1C165.0,738.0 165.0,738.0 232.4,738.0zM355.3,738.0C376.4,738.0 397.2,737.7 401.4,737.3C409.1,736.7 409.1,736.7 413.7,727.6C416.2,722.6 423.1,710.2 429.0,700.0C434.8,689.8 443.7,674.3 448.7,665.5C453.7,656.7 461.8,641.9 466.8,632.5C471.8,623.1 478.3,610.0 481.4,603.4C484.4,596.7 488.7,586.8 490.8,581.4C493.0,575.9 496.1,567.2 497.8,562.0C499.5,556.7 501.0,551.1 501.2,549.5C501.5,546.7 501.3,546.5 498.5,546.8C496.9,547.0 490.8,548.0 485.0,549.1C479.2,550.2 466.4,553.1 456.5,555.6C446.6,558.1 435.1,561.3 431.0,562.7C426.9,564.1 419.2,567.4 414.0,570.0C408.8,572.6 401.8,576.8 398.4,579.2C395.1,581.7 390.0,586.1 387.0,589.1C384.1,592.0 380.0,597.0 377.9,600.3C375.8,603.5 373.4,608.2 372.6,610.8C371.8,613.4 370.7,618.2 370.1,621.5C369.6,624.8 368.9,633.7 368.5,641.3C368.1,649.6 367.1,658.1 366.0,662.6C364.9,666.7 363.1,672.2 362.0,674.7C360.9,677.3 357.0,683.7 353.5,689.0C350.0,694.2 342.5,703.9 337.0,710.5C331.4,717.1 324.6,725.6 321.9,729.4C319.2,733.2 317.0,736.7 317.0,737.2C317.0,737.6 334.3,738.0 355.3,738.0zM33.0,558.0C32.5,558.0 32.0,557.0 31.8,555.8C31.6,554.5 31.6,548.2 31.8,541.8C32.0,533.0 32.4,530.0 33.4,530.0C34.1,530.0 35.5,530.9 36.5,532.0C37.8,533.4 39.6,534.0 42.6,534.0C45.0,534.0 47.2,533.4 47.7,532.8C48.1,532.1 48.7,528.9 49.1,525.6C49.5,522.4 50.3,519.3 50.8,518.8C51.5,518.1 52.4,519.6 53.6,523.4C54.6,526.7 55.9,529.0 56.8,529.0C57.5,529.0 59.4,527.8 60.9,526.2C63.0,524.2 64.0,521.8 64.8,517.0C65.5,513.5 66.4,510.2 66.9,509.7C67.6,509.0 68.4,510.3 69.2,513.5C69.9,516.1 71.1,518.5 71.8,518.8C72.5,519.0 74.3,518.6 75.7,517.9C77.1,517.1 79.3,514.9 80.6,513.0C81.9,511.1 83.4,506.5 84.0,502.8C84.7,499.0 85.6,496.0 86.0,496.0C86.4,496.0 87.1,498.7 87.5,502.0C87.9,505.3 88.6,508.3 89.1,508.6C89.6,508.9 94.3,506.8 99.5,504.0C104.8,501.1 109.7,497.8 110.6,496.5C111.6,494.9 112.0,492.3 111.8,487.8C111.5,481.5 111.5,481.5 103.2,480.2C98.6,479.5 93.2,478.1 91.2,477.1C89.2,476.0 86.4,474.1 85.1,472.7C83.7,471.1 82.6,468.5 82.3,465.8C82.0,463.4 82.5,459.7 83.2,457.5C84.5,453.7 84.7,453.5 88.4,453.7C92.2,454.0 92.2,454.0 91.5,448.4C91.0,444.2 91.2,442.3 92.4,440.4C93.4,439.0 95.0,438.0 96.5,438.0C97.9,438.0 99.1,437.3 99.5,436.1C99.8,435.1 99.8,433.5 99.4,432.6C99.1,431.7 97.7,431.0 96.1,431.0C94.7,431.0 90.1,431.9 86.0,433.0C81.9,434.2 75.3,436.3 71.5,437.7C67.7,439.1 57.2,443.8 48.3,448.2C39.4,452.5 31.9,456.0 31.6,456.0C31.3,456.0 31.0,452.2 31.0,447.5C31.0,440.4 31.3,438.9 32.8,438.1C33.8,437.6 38.3,436.2 42.8,435.0C47.4,433.9 59.3,431.4 69.3,429.6C79.3,427.7 90.2,425.9 93.5,425.5C96.8,425.1 100.0,424.3 100.6,423.8C101.3,423.3 102.8,420.3 104.0,417.1C105.2,413.9 107.4,409.8 108.9,407.9C110.8,405.7 112.2,404.9 113.3,405.3C114.3,405.7 116.2,408.0 117.8,410.6C119.3,413.1 121.0,415.8 121.5,416.6C122.4,417.9 124.0,417.7 133.0,415.6C138.8,414.3 150.0,411.7 157.9,410.0C165.8,408.3 176.2,405.5 180.9,403.8C185.6,402.2 193.4,398.8 198.3,396.3C203.1,393.8 212.5,388.0 219.3,383.3C226.0,378.6 233.2,373.2 235.2,371.2C237.3,369.3 239.3,367.9 239.6,368.3C240.0,368.6 239.7,370.3 239.0,372.0C238.3,373.6 234.9,377.6 231.5,380.9C228.0,384.1 220.4,390.0 214.5,393.9C208.7,397.8 200.2,402.8 195.7,404.9C191.2,407.1 183.4,410.2 178.5,411.9C173.6,413.5 160.1,416.7 148.5,419.0C136.9,421.3 126.7,423.7 125.6,424.2C124.2,425.0 123.9,425.9 124.3,428.8C124.7,430.7 126.0,433.5 127.4,434.9C128.7,436.3 130.2,438.9 130.6,440.5C131.0,442.1 131.7,444.3 132.1,445.2C132.9,446.7 133.3,446.8 136.6,445.4C138.5,444.6 140.6,444.2 141.1,444.6C141.8,445.0 141.9,447.3 141.5,451.0C140.9,456.2 141.0,456.8 142.9,457.3C144.0,457.6 145.5,458.9 146.1,460.3C147.1,462.4 146.9,463.6 145.0,467.5C143.7,470.2 141.2,473.1 139.1,474.5C137.1,475.8 132.1,477.6 128.0,478.5C123.6,479.4 120.0,480.7 119.2,481.8C118.4,482.9 117.9,485.9 118.0,490.0C118.1,493.6 118.2,497.3 118.1,498.2C118.0,499.3 115.7,501.1 112.2,502.9C109.1,504.5 102.8,508.0 98.4,510.7C94.0,513.3 82.8,521.0 73.5,527.7C64.1,534.5 51.4,544.0 45.2,549.0C39.0,553.9 33.5,558.0 33.0,558.0zM211.1,458.5C210.3,460.5 210.3,460.5 209.7,458.5C209.3,457.4 208.6,452.9 208.0,448.6C207.3,443.3 207.3,438.6 208.0,434.5C208.5,431.1 209.6,426.5 210.4,424.3C211.2,422.1 212.7,418.5 213.8,416.4C214.9,414.2 219.0,408.3 222.9,403.2C226.9,398.1 230.3,394.0 230.5,394.0C230.8,394.0 231.0,394.6 231.0,395.4C231.0,396.2 228.3,400.9 225.0,405.9C221.7,410.9 218.1,416.8 217.0,419.0C215.9,421.1 214.3,425.8 213.5,429.2C212.7,432.7 212.0,440.2 211.9,446.0C211.9,451.8 211.5,457.4 211.1,458.5zM316.5,373.6C306.7,373.9 298.9,373.7 298.2,373.2C297.1,372.5 297.2,372.2 298.5,371.6C299.4,371.3 304.5,371.0 309.8,371.0C315.1,371.0 323.6,370.5 328.5,369.9C333.4,369.3 346.2,366.6 356.9,363.9C367.6,361.1 381.5,358.0 387.8,357.0C394.1,355.9 401.7,355.0 404.7,355.0C407.8,355.0 409.9,355.4 409.5,355.9C409.2,356.5 406.8,357.2 404.2,357.5C401.6,357.9 393.9,359.3 387.0,360.7C380.1,362.0 368.7,364.7 361.7,366.7C354.6,368.6 345.4,370.8 341.2,371.6C337.0,372.4 325.9,373.3 316.5,373.6zM486.5,358.9C488.7,358.9 491.0,358.6 491.6,358.2C492.2,357.8 492.9,354.9 493.2,351.7C493.5,348.5 494.2,345.4 494.8,344.8C495.6,344.0 496.3,343.9 497.0,344.6C497.5,345.1 498.4,348.0 499.0,351.0C499.6,354.0 500.5,356.9 501.0,357.4C501.7,358.1 502.4,358.0 503.1,357.3C503.6,356.8 504.7,353.3 505.5,349.7C506.3,346.1 507.4,342.1 508.1,340.9C509.2,338.8 509.4,338.8 510.5,340.4C511.2,341.3 512.1,344.6 512.5,347.7C512.9,350.8 513.4,353.9 513.7,354.7C514.0,355.4 515.0,356.0 515.9,356.0C517.2,356.0 518.5,353.9 520.4,349.0C522.4,343.9 523.7,342.0 525.0,342.0C526.1,342.0 527.2,343.2 527.9,345.1C528.5,346.9 529.0,349.4 529.0,350.7C529.0,352.0 529.6,353.3 530.4,353.6C531.2,353.9 534.6,353.6 538.1,353.0C541.6,352.4 546.8,351.5 549.7,350.9C554.7,349.9 555.0,349.7 555.6,346.2C556.0,344.2 556.9,341.2 557.7,339.7C558.5,338.1 559.7,337.0 560.3,337.3C561.0,337.5 561.9,340.0 562.4,342.8C563.0,345.9 563.9,348.0 564.7,348.0C565.4,348.0 580.9,345.5 599.2,342.5C617.5,339.5 635.7,336.2 639.7,335.2C643.6,334.3 647.2,333.1 647.7,332.7C648.1,332.2 649.2,329.8 650.0,327.2C651.1,323.7 652.0,322.5 653.5,322.5C654.8,322.5 656.1,321.3 657.2,318.8C658.1,316.7 659.6,315.0 660.4,315.0C661.3,315.0 662.4,316.6 663.1,319.2C663.7,321.6 664.6,324.5 665.1,325.8C665.8,327.6 666.5,328.0 668.3,327.5C669.5,327.1 675.9,324.1 682.5,320.9C689.1,317.7 699.9,312.2 706.5,308.7C713.1,305.3 721.0,301.3 724.0,300.0C729.5,297.5 729.5,297.5 729.8,286.2C730.1,275.1 730.0,275.0 727.8,275.0C726.5,275.0 715.1,277.9 702.5,281.4C689.9,284.9 669.4,290.7 657.0,294.3C644.6,297.9 629.3,301.8 623.0,303.1C612.9,305.1 611.2,305.7 609.0,308.3C607.6,309.9 604.3,313.7 601.5,316.7C596.8,321.9 596.6,322.4 596.2,328.8C596.0,332.5 595.6,336.2 595.4,337.0C595.0,338.3 594.8,338.3 594.0,337.0C593.4,336.2 593.0,332.3 593.0,328.3C593.0,321.3 593.0,321.2 589.6,319.2C587.7,318.1 585.4,315.8 584.6,314.1C583.0,311.1 583.0,311.1 555.8,311.1C539.6,311.2 519.9,310.5 507.5,309.6C495.9,308.7 481.6,307.5 475.5,306.9C469.4,306.4 457.5,305.0 449.0,303.9C440.5,302.9 427.5,300.8 420.2,299.5C412.9,298.1 401.4,295.3 394.7,293.4C388.0,291.5 372.8,286.7 361.0,282.8C349.2,278.9 336.8,274.5 333.5,273.0C330.2,271.5 326.3,269.1 324.8,267.7C323.2,266.3 322.0,264.3 322.0,263.3C322.0,262.3 322.9,260.1 324.0,258.3C325.0,256.5 328.3,253.7 331.2,252.0C334.1,250.4 341.2,247.5 347.0,245.6C352.8,243.7 370.8,239.2 387.0,235.6C403.2,232.0 421.4,227.8 427.5,226.4C433.6,224.9 440.0,223.1 441.9,222.4C443.9,221.6 450.5,215.6 457.7,208.1C464.5,200.9 475.1,190.9 481.3,185.7C487.5,180.6 494.0,175.3 495.8,174.1C497.5,172.9 499.0,172.3 499.0,172.8C499.0,173.2 489.9,183.2 478.8,195.0C467.6,206.7 458.3,216.7 458.1,217.3C457.9,217.9 459.5,218.0 462.6,217.5C465.3,217.1 471.1,215.7 475.5,214.3C479.9,212.9 486.6,210.3 490.5,208.6C494.4,206.8 499.0,204.0 500.9,202.4C502.8,200.8 507.0,196.1 510.3,192.0C513.5,187.9 518.7,181.9 521.8,178.6C525.0,175.4 530.2,170.7 533.5,168.2C536.7,165.6 544.2,161.0 550.0,157.8C558.6,153.0 560.0,152.0 557.5,152.0C555.9,152.0 550.7,152.9 546.0,154.0C541.3,155.2 533.1,157.4 527.7,159.1C522.3,160.8 514.4,163.6 510.1,165.5C505.8,167.3 498.9,169.7 494.7,170.9C490.6,172.0 484.8,174.0 481.8,175.3C478.9,176.6 469.7,182.2 461.4,187.8C450.3,195.2 443.3,200.8 435.5,208.5C429.7,214.3 423.2,219.9 421.2,220.9C419.2,221.9 416.1,223.0 414.3,223.3C412.5,223.7 410.8,223.5 410.5,222.9C410.1,222.4 413.8,218.2 418.7,213.6C423.5,209.0 430.0,203.1 433.0,200.6C436.0,198.0 441.6,193.9 445.5,191.6C449.4,189.2 456.4,185.2 461.2,182.6C466.0,180.0 470.2,177.5 470.5,176.9C470.9,176.3 470.3,176.1 468.8,176.4C467.6,176.7 463.4,177.4 459.5,178.0C455.6,178.6 448.4,180.2 443.5,181.5C438.6,182.8 430.6,185.5 425.9,187.5C421.1,189.5 414.8,192.6 411.9,194.5C408.9,196.4 406.1,197.5 405.7,197.0C405.2,196.6 405.1,195.3 405.5,194.1C405.8,193.0 407.4,191.2 408.9,190.1C410.4,189.0 414.1,187.1 417.1,185.9C420.1,184.7 428.1,182.0 435.0,179.8C441.9,177.7 453.7,174.3 461.2,172.4C468.8,170.5 483.2,166.3 493.3,163.0C503.3,159.8 519.4,155.1 529.0,152.5C538.6,150.0 548.0,147.2 549.9,146.3C553.5,144.7 553.5,144.7 550.0,143.9C548.1,143.5 541.3,142.7 535.0,142.1C528.7,141.5 509.1,139.2 491.5,137.0C473.9,134.9 450.5,132.1 439.5,131.0C428.5,129.8 417.7,129.0 415.5,129.2C411.5,129.5 411.5,129.5 419.5,133.7C423.9,135.9 429.4,138.3 431.8,138.9C434.1,139.6 443.6,141.4 452.8,143.0C462.0,144.6 471.4,146.6 473.5,147.3C475.6,148.1 477.8,149.4 478.4,150.2C478.9,151.0 479.1,152.4 478.7,153.3C478.4,154.1 475.3,155.7 471.8,156.9C468.3,158.0 448.6,162.6 428.0,167.0C407.4,171.4 388.0,175.8 385.0,176.6C382.0,177.5 378.0,179.1 376.2,180.2C374.5,181.3 373.0,182.6 373.0,183.1C373.0,183.6 376.5,185.7 380.8,187.9C385.1,190.1 390.1,193.5 391.8,195.5C394.1,198.1 395.0,200.1 395.0,202.6C395.0,205.3 394.2,206.9 392.0,209.0C390.3,210.6 385.4,213.3 381.0,214.9C376.7,216.6 366.9,219.1 359.3,220.4C351.7,221.8 339.5,223.8 332.1,225.0C324.8,226.2 314.9,228.2 310.1,229.6C305.4,231.0 298.1,233.7 294.0,235.6C289.9,237.5 285.0,240.3 283.2,241.7C281.3,243.1 279.0,245.6 277.9,247.4C276.9,249.1 276.0,252.0 276.0,253.8C276.0,255.6 276.6,258.3 277.4,259.8C278.2,261.3 280.8,263.9 283.2,265.6C285.5,267.3 292.9,271.7 299.4,275.4C305.9,279.1 321.0,287.4 332.9,293.7C344.8,300.1 361.2,308.9 369.5,313.3C377.8,317.6 388.8,323.6 394.0,326.5C399.2,329.4 409.8,335.0 417.5,338.8C427.7,344.0 435.9,347.2 448.0,350.8C457.1,353.5 467.9,356.3 472.0,357.0C476.1,357.6 480.2,358.3 481.0,358.5C481.8,358.6 484.3,358.8 486.5,358.9zM291.8,334.7C279.5,335.1 274.0,335.0 274.0,334.2C274.0,333.6 276.8,332.9 280.2,332.6C283.7,332.3 292.1,331.8 299.0,331.5C305.9,331.1 314.9,330.2 319.0,329.5C323.1,328.7 332.4,327.3 339.5,326.4C347.9,325.3 354.3,325.0 357.5,325.5C361.3,326.1 362.0,326.4 360.5,327.0C359.4,327.4 354.4,328.1 349.5,328.5C344.6,328.9 333.5,330.3 325.0,331.7C315.0,333.3 303.2,334.3 291.8,334.7zM543.8,303.8C555.6,303.9 563.9,303.6 565.1,303.0C566.1,302.4 567.0,301.0 567.0,299.9C567.0,298.8 567.7,296.5 568.6,294.9C569.4,293.2 570.7,292.0 571.3,292.3C572.0,292.5 572.9,295.0 573.4,297.8C574.4,303.0 574.4,303.0 579.1,303.0C582.7,303.0 584.2,302.5 584.8,301.2C585.3,300.3 586.0,297.8 586.3,295.7C586.6,293.5 587.5,291.1 588.2,290.3C589.3,288.9 589.8,289.4 591.6,293.6C593.8,298.5 593.8,298.5 596.4,292.7C598.3,288.3 599.4,286.9 600.7,287.2C601.9,287.4 602.8,289.0 603.5,291.8C604.4,296.2 604.4,296.2 609.0,295.5C611.5,295.1 620.2,292.9 628.5,290.5C636.8,288.1 647.6,284.4 652.6,282.3C657.7,280.1 665.3,276.2 669.6,273.7C674.0,271.1 680.2,266.9 683.6,264.3C687.0,261.6 694.6,255.5 700.6,250.7C706.6,245.8 714.9,239.7 719.0,237.0C723.1,234.4 727.5,231.3 728.8,230.1C730.9,228.2 731.0,227.3 731.0,215.5C731.0,208.6 730.6,203.0 730.1,203.0C729.6,203.0 725.0,206.7 719.8,211.1C714.7,215.6 708.0,220.9 705.0,223.0C702.0,225.0 696.4,228.3 692.5,230.2C688.6,232.2 682.5,234.7 678.8,235.8C675.1,237.0 668.4,238.6 663.8,239.5C659.2,240.4 646.1,241.5 634.6,242.0C623.1,242.6 609.2,243.7 603.6,244.6C598.1,245.5 589.5,247.5 584.6,249.1C579.7,250.7 571.7,254.0 566.8,256.5C562.0,258.9 553.3,264.1 547.6,268.0C541.9,271.9 531.9,279.9 525.3,285.9C518.8,291.8 512.7,297.9 511.7,299.3C510.0,301.9 510.0,302.0 512.2,302.5C513.5,302.7 516.8,303.1 519.5,303.3C522.2,303.5 533.2,303.7 543.8,303.8zM483.3,299.9C492.1,300.0 492.1,300.0 503.6,289.5C510.0,283.8 518.2,276.7 521.8,273.7C525.5,270.7 532.3,265.7 537.0,262.6C541.6,259.5 550.0,254.7 555.5,252.0C561.0,249.4 570.2,245.6 576.0,243.7C581.8,241.8 590.8,239.5 596.1,238.6C601.3,237.7 616.1,236.5 628.9,236.0C641.8,235.4 655.5,234.3 659.8,233.4C664.0,232.6 669.8,230.8 672.7,229.5C675.5,228.2 679.9,225.3 682.4,223.0C684.9,220.7 691.8,212.4 697.7,204.7C703.7,196.9 713.6,185.4 719.8,179.1C731.0,167.6 731.0,167.6 731.0,152.2C731.0,136.8 731.0,136.8 728.4,137.4C726.9,137.8 721.0,140.2 715.1,142.9C709.2,145.5 700.6,150.2 695.8,153.3C691.0,156.5 683.6,162.5 679.3,166.8C675.0,171.0 667.2,179.2 662.0,184.9C656.8,190.7 648.7,198.2 644.0,201.7C639.3,205.2 631.5,210.0 626.5,212.4C621.5,214.8 613.9,217.9 609.5,219.3C605.1,220.7 597.1,223.0 591.7,224.5C586.3,225.9 575.4,229.3 567.5,232.1C559.5,234.8 548.4,239.0 542.8,241.4C537.1,243.8 527.4,248.1 521.2,250.9C515.1,253.6 506.0,258.0 501.1,260.5C496.2,263.0 489.5,267.0 486.2,269.3C482.9,271.6 477.3,276.3 473.8,279.6C470.3,283.0 465.3,288.0 462.5,290.9C459.2,294.3 457.9,296.3 458.6,297.0C459.2,297.6 463.0,298.4 467.1,298.9C471.2,299.4 478.5,299.8 483.3,299.9zM120.8,295.9C119.0,295.9 114.6,295.2 111.0,294.5C107.4,293.8 98.9,291.7 92.0,290.0C82.2,287.6 75.8,286.7 62.5,285.9C53.1,285.3 42.4,284.6 38.5,284.2C31.5,283.5 31.5,283.5 30.9,269.0C30.6,261.0 30.7,254.1 31.2,253.5C31.7,252.9 37.7,255.4 46.8,259.9C54.9,264.0 67.1,270.3 74.0,274.1C81.5,278.1 92.9,283.1 102.4,286.5C111.1,289.6 119.6,292.8 121.1,293.6C122.7,294.4 124.0,295.3 124.0,295.5C124.0,295.8 122.5,296.0 120.8,295.9zM437.7,291.9C443.9,292.0 443.9,292.0 453.9,282.1C459.3,276.7 467.6,269.7 472.3,266.6C476.9,263.5 484.7,259.1 489.6,256.9C494.5,254.6 501.8,251.5 505.8,249.9C509.8,248.3 515.4,245.8 518.2,244.4C522.4,242.3 523.1,241.6 521.7,240.9C520.7,240.3 516.1,240.3 509.8,241.0C504.1,241.6 490.0,243.8 478.3,246.0C466.7,248.1 447.8,251.3 436.3,253.0C424.9,254.7 411.4,257.2 406.3,258.5C401.2,259.8 394.4,262.3 391.2,263.9C387.9,265.6 384.1,268.3 382.6,270.0C381.2,271.7 380.0,273.5 380.0,273.9C380.0,274.4 380.9,275.9 382.1,277.4C383.2,278.8 385.4,280.6 386.8,281.4C388.3,282.1 392.4,283.5 396.0,284.5C399.6,285.5 409.0,287.5 417.0,289.0C425.0,290.6 434.3,291.9 437.7,291.9zM362.9,275.8C363.7,275.6 364.6,274.8 365.0,274.0C365.4,273.2 366.4,271.2 367.1,269.7C367.8,268.1 370.6,265.3 373.3,263.3C376.0,261.3 381.1,258.6 384.5,257.4C388.0,256.1 396.8,253.9 404.2,252.6C411.5,251.2 425.1,248.9 434.5,247.6C443.9,246.2 462.3,243.3 475.5,241.0C488.7,238.8 504.7,236.1 511.0,235.0C517.3,233.9 525.2,232.3 528.5,231.5C531.8,230.7 538.1,228.2 542.5,226.1C547.6,223.6 553.6,219.3 559.0,214.6C563.7,210.5 573.6,202.4 581.1,196.6C588.5,190.8 596.9,183.6 599.7,180.7C602.5,177.8 605.7,173.6 606.8,171.4C607.8,169.3 609.7,164.3 611.0,160.5C612.2,156.7 613.9,152.2 614.8,150.5C615.6,148.8 618.0,145.6 620.1,143.3C622.3,140.9 624.0,138.6 624.0,138.2C624.0,137.7 621.6,137.8 618.8,138.5C615.9,139.2 610.0,140.7 605.7,141.9C601.3,143.2 594.2,145.7 589.7,147.6C585.3,149.5 578.9,152.7 575.6,154.7C572.2,156.7 567.0,160.3 564.0,162.6C561.0,164.9 553.4,172.0 547.2,178.4C541.0,184.8 532.2,192.8 527.8,196.1C523.3,199.4 514.6,204.6 508.6,207.5C502.5,210.5 493.8,214.3 489.2,215.9C484.7,217.6 468.7,222.1 453.7,225.9C438.8,229.7 415.5,235.2 402.0,238.0C388.5,240.8 372.3,244.4 366.0,246.1C359.7,247.8 350.8,250.9 346.3,253.1C341.8,255.3 337.6,257.9 337.0,259.1C336.4,260.2 336.0,262.0 336.2,263.2C336.4,264.4 337.7,266.2 339.1,267.2C340.5,268.3 346.1,270.7 351.6,272.6C357.0,274.5 362.1,275.9 362.9,275.8zM237.2,268.6C229.5,268.9 222.9,268.7 222.2,268.2C221.1,267.5 221.2,267.2 222.5,266.6C223.4,266.3 231.0,266.0 239.3,266.0C250.2,266.1 254.0,266.4 252.7,267.1C251.8,267.6 244.8,268.3 237.2,268.6zM302.0,266.0C301.5,266.0 300.3,264.8 299.4,263.4C298.4,262.0 297.7,258.9 297.7,256.6C297.7,253.8 298.4,251.2 299.8,249.2C301.0,247.6 304.2,244.8 307.0,243.0C309.8,241.2 315.5,238.7 319.7,237.3C324.0,236.0 338.3,232.9 351.5,230.5C364.7,228.2 377.5,225.9 380.0,225.5C382.5,225.1 384.2,225.1 383.9,225.4C383.5,225.8 370.7,228.9 355.4,232.4C340.0,235.9 325.0,239.8 321.9,240.9C318.7,242.1 313.5,244.8 310.2,246.9C305.6,249.9 303.9,251.7 303.0,254.5C302.3,256.6 302.1,259.9 302.4,262.1C302.8,264.4 302.6,266.0 302.0,266.0zM168.8,259.9C166.4,259.9 158.8,258.8 151.8,257.4C144.9,256.1 136.8,254.1 133.8,253.0C130.7,251.8 124.4,247.6 118.6,243.0C113.1,238.6 105.0,233.3 100.6,231.1C96.1,228.9 88.7,226.2 84.0,225.0C79.3,223.9 67.9,222.3 58.5,221.5C49.2,220.6 39.2,219.6 36.5,219.2C31.5,218.5 31.5,218.5 30.7,207.5C30.3,201.4 30.1,194.5 30.2,192.0C30.5,188.0 30.7,187.5 32.7,187.7C34.0,187.9 38.0,189.9 41.7,192.2C45.5,194.5 51.2,197.8 54.6,199.6C58.4,201.7 65.4,204.1 73.6,206.0C80.7,207.7 90.8,210.4 96.0,212.0C101.2,213.6 109.3,215.8 114.0,217.0C118.7,218.1 134.0,220.1 148.0,221.5C162.0,222.9 177.8,224.7 183.0,225.6C188.2,226.5 193.2,227.7 194.0,228.2C195.0,228.8 183.3,228.9 162.2,228.5C143.0,228.2 129.0,228.3 129.0,228.8C129.0,229.3 130.9,231.0 133.2,232.5C135.6,234.1 140.9,237.9 145.0,241.1C149.1,244.2 156.3,248.7 161.0,251.0C165.7,253.3 170.3,255.9 171.2,256.8C172.2,257.6 173.0,258.7 173.0,259.2C173.0,259.6 171.1,260.0 168.8,259.9zM100.5,249.9C97.7,249.8 92.1,249.4 88.0,248.9C83.9,248.4 79.0,247.5 77.1,246.9C74.2,245.9 73.9,245.6 75.5,244.8C76.5,244.2 80.2,244.1 84.6,244.5C88.6,244.9 94.5,245.8 97.6,246.5C100.6,247.2 103.7,248.3 104.3,248.9C105.1,249.7 104.1,250.0 100.5,249.9zM349.5,215.6C352.8,215.3 358.5,214.2 362.1,213.0C365.8,211.9 369.9,210.1 371.4,208.9C373.1,207.6 374.0,205.9 374.0,204.0C374.0,202.5 373.2,200.3 372.2,199.1C371.3,197.9 366.7,194.6 362.0,191.7C357.1,188.6 353.4,185.7 353.2,184.6C352.9,183.3 354.1,181.6 356.6,179.5C360.4,176.3 360.4,176.3 348.9,175.7C342.6,175.4 334.3,174.4 330.3,173.6C326.3,172.7 321.1,171.1 318.6,169.9C316.2,168.8 312.0,165.5 309.3,162.6C306.7,159.8 302.3,154.8 299.7,151.7C297.0,148.6 292.1,144.1 288.8,141.9C285.5,139.6 279.5,136.2 275.4,134.4C271.4,132.5 265.1,130.3 261.3,129.4C257.6,128.5 250.4,127.7 245.5,127.5C240.6,127.4 226.2,125.8 213.7,124.1C201.1,122.4 189.7,121.0 188.4,121.0C187.1,121.0 186.0,121.5 186.0,122.1C186.0,122.7 190.8,125.4 196.8,128.2C202.7,130.9 212.0,135.4 217.5,138.0C223.1,140.7 229.9,144.6 232.7,146.8C235.5,149.1 241.2,155.6 245.4,161.3C249.6,167.1 254.5,172.9 256.3,174.2C258.0,175.6 261.3,177.7 263.6,178.8C265.9,180.0 272.2,182.2 277.7,183.9C283.2,185.5 293.5,187.8 300.6,189.0C307.7,190.1 317.9,192.3 323.3,193.7C328.6,195.1 335.8,197.7 339.2,199.4C343.2,201.4 346.1,203.6 347.3,205.7C348.8,208.4 348.9,209.3 347.9,211.2C347.2,212.5 346.0,214.1 345.1,214.8C343.7,215.9 344.4,216.1 349.5,215.6zM133.2,203.0C132.3,202.9 129.1,202.1 126.1,201.0C123.2,199.9 118.7,197.7 116.1,196.1C113.6,194.4 105.9,187.4 99.0,180.4C90.4,171.7 87.3,168.0 89.0,168.5C90.4,168.9 93.8,171.0 96.5,173.1C99.2,175.2 105.5,180.6 110.5,185.1C115.5,189.5 123.0,195.2 127.2,197.7C131.5,200.2 135.0,202.4 135.0,202.6C135.0,202.8 134.2,203.0 133.2,203.0zM85.1,191.0C84.7,191.0 81.1,187.4 77.1,183.1C73.2,178.7 67.2,173.1 63.8,170.5C60.5,168.0 54.5,164.4 50.6,162.6C46.7,160.7 41.2,158.7 38.3,158.0C35.4,157.4 32.6,156.2 31.9,155.4C31.0,154.3 31.1,154.0 32.7,154.0C33.8,154.0 37.1,154.7 40.1,155.6C43.1,156.5 48.2,158.3 51.5,159.7C54.8,161.1 60.4,164.1 64.0,166.5C67.6,168.8 72.2,172.1 74.2,173.9C76.3,175.7 79.7,179.9 82.0,183.2C84.2,186.5 86.0,189.6 86.0,190.1C86.0,190.6 85.6,191.0 85.1,191.0zM365.5,171.5C369.4,171.2 379.7,169.7 388.4,168.0C397.2,166.3 405.9,164.2 407.7,163.5C409.5,162.7 411.0,161.9 411.0,161.5C411.0,161.2 407.1,159.2 402.4,157.0C397.6,154.8 389.4,149.9 384.1,146.1C378.8,142.3 370.3,137.1 365.1,134.5C360.0,132.0 351.2,128.3 345.6,126.5C340.1,124.6 331.3,122.4 326.3,121.5C321.2,120.6 314.2,120.0 310.8,120.2C304.5,120.5 304.5,120.5 318.5,127.7C326.2,131.6 334.8,136.3 337.6,138.2C340.5,140.0 346.5,145.0 351.0,149.3C355.5,153.6 359.0,157.3 358.7,157.6C358.5,157.9 357.1,157.8 355.6,157.4C354.2,157.1 349.7,153.8 345.8,150.2C341.8,146.7 336.7,142.4 334.5,140.7C332.3,139.1 326.0,135.6 320.6,132.9C315.2,130.2 304.6,126.0 297.1,123.6C289.6,121.1 280.0,118.7 275.7,118.1C271.4,117.5 265.5,117.0 262.7,117.1C259.8,117.1 256.6,117.5 255.5,118.0C253.9,118.6 253.8,118.9 255.0,119.4C255.8,119.7 261.9,121.6 268.5,123.6C275.1,125.5 286.4,129.2 293.5,131.7C300.6,134.2 308.6,137.3 311.2,138.8C313.9,140.2 318.4,143.9 321.2,147.0C324.1,150.1 329.2,155.7 332.4,159.5C336.2,163.8 340.0,167.0 342.7,168.2C345.0,169.2 349.5,170.5 352.7,171.0C355.9,171.5 361.6,171.7 365.5,171.5zM291.2,170.9C290.8,170.9 288.6,170.2 286.4,169.4C284.1,168.6 280.3,166.3 278.0,164.3C275.7,162.3 270.7,156.5 267.0,151.5C263.3,146.5 258.5,141.0 256.4,139.3C254.2,137.6 249.8,134.6 246.5,132.6C242.0,129.9 241.1,129.0 242.8,129.0C244.0,129.0 247.0,130.0 249.3,131.1C251.6,132.3 255.8,134.8 258.7,136.7C261.7,138.7 267.2,144.2 271.9,149.9C276.3,155.3 282.2,161.8 285.1,164.4C287.9,166.9 290.6,169.0 291.1,169.0C291.6,169.0 292.0,169.4 292.0,170.0C292.0,170.6 291.7,171.0 291.2,170.9zM440.5,154.5C446.0,154.3 451.5,153.8 452.8,153.4C454.0,153.1 455.0,152.4 455.0,152.0C455.0,151.6 453.8,150.8 452.2,150.2C450.7,149.6 445.7,148.1 441.0,147.0C436.3,145.8 430.2,144.2 427.5,143.4C424.8,142.5 417.3,139.4 411.0,136.5C404.7,133.6 396.7,130.3 393.4,129.2C390.0,128.1 383.0,126.5 377.9,125.7C372.7,124.8 365.7,123.9 362.2,123.6C358.8,123.3 356.0,123.4 356.0,123.9C356.0,124.4 358.3,125.7 361.0,126.9C363.8,128.1 369.9,130.4 374.8,132.1C379.6,133.8 385.7,136.3 388.3,137.6C390.9,139.0 395.6,141.7 398.7,143.7C401.7,145.6 406.6,148.3 409.4,149.6C412.2,150.9 418.1,152.6 422.5,153.5C427.8,154.4 433.9,154.8 440.5,154.5zM155.6,146.0C154.9,146.0 153.0,145.0 151.4,143.8C149.8,142.7 144.3,137.6 139.2,132.6C134.2,127.6 130.0,123.1 130.0,122.7C130.0,122.2 131.8,122.9 134.0,124.1C136.1,125.4 142.2,130.5 147.5,135.3C152.7,140.2 157.0,144.6 157.0,145.1C157.0,145.6 156.4,146.0 155.6,146.0zM571.5,137.8C573.1,137.9 579.8,137.5 586.2,137.0C592.6,136.5 604.9,134.7 613.4,133.0C622.0,131.3 632.0,128.8 635.7,127.5C639.5,126.2 647.9,122.9 654.5,120.2C661.1,117.5 672.4,113.4 679.5,111.0C686.6,108.7 692.7,106.6 692.9,106.4C693.1,106.2 693.1,105.8 692.9,105.6C692.7,105.3 684.8,104.4 675.5,103.5C666.1,102.6 656.0,102.1 653.0,102.4C650.0,102.8 645.2,103.8 642.5,104.7C639.8,105.6 635.2,107.8 632.5,109.6C629.8,111.4 623.7,116.3 619.1,120.5C614.5,124.6 610.1,128.0 609.3,128.0C608.2,128.0 608.2,127.6 609.4,125.2C610.2,123.7 612.6,120.9 614.7,118.9C616.8,116.9 620.9,113.4 623.8,111.1C629.2,107.0 629.2,107.0 626.0,107.0C624.3,107.0 619.2,107.9 614.8,109.0C610.4,110.2 599.1,113.8 589.6,117.2C580.2,120.5 565.8,125.4 557.5,128.1C549.2,130.8 541.8,133.4 541.0,133.9C540.2,134.5 539.9,135.2 540.3,135.6C540.7,136.0 547.2,136.6 554.7,137.0C562.3,137.4 569.9,137.7 571.5,137.8z" />

</svg>