<?xml version="1.0" encoding="UTF-8" standalone="no"?>
<svg 
  version="1.1" 
  xmlns="http://www.w3.org/2000/svg" 
  xmlns:xlink="http://www.w3.org/1999/xlink" 
  xmlns:svg="http://www.w3.org/2000/svg"
  xmlns:rdf="http://www.w3.org/1999/02/22-rdf-syntax-ns#"
  xmlns:cc="http://creativecommons.org/ns#"
  xmlns:dc="http://purl.org/dc/elements/1.1/"
  viewBox="0 0 768 768"
  width="768"
  height="768"
>
<style>svg {background-color: white; }</style>"
<metadata id="metadata1">
Created by https://svgstud.io and licensed under CC-BY-SA 4.0 license. Please attribute https://svgstud.io
</metadata>
<metadata id="prompt">
river delta with meandering channels
</metadata>
<metadata id="version">
7
</metadata>
<metadata id="metadata2">
<rdf:RDF>
<cc:Work
    rdf:about="">
    <cc:license
    rdf:resource="http://creativecommons.org/licenses/by-sa/4.0/" />
    <dc:creator>
        <cc:Agent>
            <dc:title>https://svgstud.io</dc:title>
        </cc:Agent>
    </dc:creator>
</cc:Work>
<cc:License
    rdf:about="http://creativecommons.org/licenses/by-sa/4.0/">
    <cc:permits
    rdf:resource="http://creativecommons.org/ns#Reproduction" />
    <cc:permits
    rdf:resource="http://creativecommons.org/ns#Distribution" />
    <cc:requires
    rdf:resource="http://creativecommons.org/ns#Notice" />
    <cc:requires
    rdf:resource="http://creativecommons.org/ns#Attribution" />
    <cc:permits
    rdf:resource="http://creativecommons.org/ns#DerivativeWorks" />
    <cc:requires
    rdf:resource="http://creativecommons.org/ns#ShareAlike" />
</cc:License>
</rdf:RDF>
</metadata>
<metadata id="uid">
1d7e52a18a3af60c4a220d4d41598171d2ac1afe4ebe174ba62bacae4f6a94f8
</metadata>
<path stroke="none" fill="black" fill-rule="evenodd" d="M384.0,768.0C0.0,768.0 0.0,768.0 0.0,740.8C0.0,720.1 0.4,712.2 1.5,708.0C2.3,705.0 4.5,699.4 6.4,695.5C8.3,691.6 12.8,684.9 16.3,680.5C19.9,676.1 28.3,667.3 35.1,660.9C41.9,654.6 55.4,642.2 65.0,633.4C74.6,624.7 91.3,609.6 102.0,599.9C112.7,590.2 128.9,574.7 138.0,565.4C147.1,556.1 158.5,543.5 163.3,537.5C168.2,531.5 175.4,521.3 179.4,515.0C183.5,508.6 188.9,499.3 191.4,494.2C193.9,489.1 197.3,481.7 198.9,477.7C200.5,473.8 202.5,466.9 203.4,462.5C204.2,458.1 205.7,449.1 206.6,442.5C207.4,436.0 209.2,426.5 210.5,421.4C211.8,416.4 214.4,408.8 216.3,404.7C218.3,400.5 222.7,392.9 226.2,387.8C229.8,382.5 237.5,373.5 244.0,367.0C250.3,360.6 261.4,350.9 268.5,345.4C275.6,339.9 297.2,324.2 316.5,310.5C335.8,296.8 356.2,282.3 362.0,278.2C367.8,274.1 376.3,267.7 381.0,264.0C385.7,260.2 392.5,254.1 396.1,250.4C399.7,246.6 403.7,241.6 404.9,239.2C406.1,236.9 408.4,231.5 410.0,227.4C411.6,223.3 414.3,217.7 416.0,215.1C417.6,212.4 421.7,207.8 424.9,204.7C428.1,201.7 434.5,196.7 439.1,193.7C443.7,190.7 453.8,185.1 461.5,181.2C469.2,177.4 488.6,168.7 504.5,162.0C520.5,155.3 539.6,146.7 547.0,142.8C554.4,138.9 563.0,134.1 566.0,132.2C569.0,130.3 574.0,126.7 577.0,124.3C580.0,121.9 586.9,115.5 592.3,110.2C598.2,104.3 604.9,96.3 609.2,90.0C613.1,84.2 619.5,76.5 623.3,72.8C627.1,69.1 634.6,63.2 639.9,59.6C645.2,56.1 657.5,48.7 667.2,43.1C676.9,37.6 692.6,29.2 702.0,24.5C711.4,19.8 722.4,14.7 726.3,13.1C730.3,11.6 739.1,8.6 746.0,6.5C752.9,4.4 760.3,2.6 762.5,2.6C766.5,2.5 766.5,2.5 766.8,7.2C767.1,11.8 767.0,11.9 761.7,15.9C758.7,18.1 755.3,21.1 754.1,22.6C753.0,24.1 751.5,27.0 750.9,29.1C749.9,32.3 750.0,33.7 751.4,37.2C752.3,39.6 756.1,45.7 760.0,50.8C764.1,56.3 767.2,61.5 767.6,63.6C768.0,65.6 768.0,71.3 767.8,76.4C767.5,81.4 766.6,87.2 765.7,89.2C764.8,91.3 762.0,95.3 759.3,98.1C756.7,100.9 750.7,105.8 746.0,108.9C741.3,112.1 734.8,116.2 731.5,118.2C728.2,120.2 714.9,127.6 702.0,134.7C689.1,141.9 674.3,150.3 669.1,153.4C663.9,156.6 656.3,161.7 652.1,164.9C647.9,168.1 641.3,174.1 637.4,178.2C633.5,182.3 629.0,187.6 627.3,190.1C625.6,192.5 623.1,196.8 621.7,199.5C620.4,202.2 618.2,207.7 617.0,211.5C615.4,216.6 614.8,221.0 614.7,227.5C614.7,235.7 615.2,238.0 619.9,252.5C623.0,262.0 625.4,271.1 625.7,275.0C626.0,278.6 625.7,284.2 625.1,287.5C624.5,290.8 622.5,296.6 620.6,300.5C618.8,304.4 615.2,310.2 612.7,313.5C610.2,316.8 604.4,323.3 599.8,327.9C595.3,332.5 582.3,344.0 571.0,353.4C559.7,362.8 547.4,373.4 543.6,377.0C539.8,380.6 535.1,386.0 533.0,389.0C531.0,392.0 528.5,396.8 527.4,399.5C526.0,403.1 525.5,406.8 525.6,412.5C525.7,417.1 526.5,422.4 527.4,424.9C528.3,427.3 531.1,432.7 533.6,436.9C536.2,441.1 544.2,452.4 551.5,462.1C558.8,471.8 566.6,482.8 568.9,486.6C571.1,490.4 574.1,496.9 575.5,500.9C577.0,505.0 578.4,512.1 578.9,516.7C579.3,521.2 579.2,529.1 578.8,534.2C578.2,540.2 576.8,546.9 574.5,553.8C572.5,559.6 569.2,567.9 567.2,572.4C565.1,576.9 558.4,589.0 552.3,599.5C546.2,610.0 535.9,627.5 529.3,638.5C522.7,649.5 513.0,666.1 507.8,675.5C502.5,684.9 496.1,696.3 493.5,701.0C491.0,705.7 486.8,713.6 484.3,718.7C480.8,725.8 479.7,729.4 479.3,734.3C478.8,740.2 478.9,740.8 481.1,742.4C483.2,743.9 493.3,744.0 598.0,744.0C673.7,744.0 713.8,743.6 716.2,743.0C718.3,742.4 721.3,740.8 723.0,739.3C724.7,737.9 726.8,735.4 727.8,733.6C729.3,730.8 729.5,727.2 729.3,700.5C729.2,684.0 728.7,596.7 728.1,506.5C727.5,416.3 726.8,341.4 726.6,340.0C726.4,338.6 726.2,334.0 726.1,329.8C726.0,322.0 726.0,322.0 723.2,322.0C721.7,322.0 712.9,323.1 703.5,324.6C694.1,326.0 680.0,328.3 672.0,329.6C664.0,331.0 651.6,333.4 644.5,335.0C637.4,336.6 625.6,339.7 618.5,341.8C611.4,344.0 603.4,346.0 600.8,346.4C597.7,346.9 596.0,346.8 596.0,346.1C596.0,345.5 597.9,344.6 600.2,343.9C602.6,343.3 612.1,340.6 621.5,338.0C630.9,335.4 643.7,332.1 650.0,330.7C656.3,329.3 663.5,327.9 665.9,327.5C668.3,327.1 671.0,326.0 672.0,325.0C672.9,324.1 674.0,321.2 674.4,318.6C674.8,315.9 676.2,312.7 677.7,311.0C679.1,309.3 682.1,307.0 684.3,305.9C686.5,304.7 693.9,301.8 700.7,299.4C707.5,297.0 713.7,295.0 714.3,295.0C715.0,295.1 714.5,295.9 713.2,297.0C712.0,298.0 706.6,300.5 701.2,302.6C695.9,304.6 689.1,307.3 686.2,308.6C681.7,310.6 680.6,311.6 678.9,315.5C677.8,318.0 677.0,321.1 677.2,322.3C677.4,323.8 678.2,324.5 679.5,324.4C680.6,324.4 690.7,323.1 702.0,321.6C713.3,320.1 723.2,318.5 724.0,318.1C725.3,317.4 725.5,311.8 725.7,278.2C725.9,256.7 725.6,238.9 725.1,238.6C724.7,238.3 719.7,239.4 714.2,241.0C708.6,242.5 700.7,244.4 696.7,245.0C692.7,245.7 688.5,246.0 687.4,245.8C686.1,245.5 686.7,245.0 689.5,244.3C691.7,243.7 700.2,241.8 708.5,240.0C716.8,238.2 724.0,236.3 724.7,235.6C725.6,234.8 726.1,225.9 726.5,204.5C726.9,188.0 727.6,171.8 728.1,168.5C728.6,165.2 730.5,159.6 732.2,156.0C734.3,151.7 737.7,147.2 742.4,142.5C746.3,138.7 752.9,133.1 757.2,130.3C761.4,127.4 765.5,124.7 766.4,124.4C767.8,123.9 768.0,125.1 768.0,134.3C768.0,144.8 768.0,144.8 761.8,152.1C758.5,156.2 754.7,161.5 753.6,164.0C751.7,168.2 751.5,170.6 751.2,197.5C751.0,213.4 751.3,240.9 751.9,258.6C752.6,276.2 753.9,301.4 755.0,314.6C756.0,327.7 758.3,355.4 759.9,376.0C761.6,396.6 763.6,424.5 764.4,438.0C765.3,451.5 766.4,470.8 767.0,481.0C767.6,492.0 768.0,554.0 768.0,633.8C768.0,768.0 768.0,768.0 384.0,768.0zM339.7,744.2C355.5,744.1 370.8,743.5 373.6,742.9C376.4,742.4 380.8,740.6 383.3,739.0C385.7,737.5 389.1,734.2 390.7,731.8C392.3,729.5 396.5,722.3 400.0,716.0C403.5,709.7 409.9,698.4 414.3,691.0C418.7,683.6 425.9,672.1 430.3,665.5C434.7,658.9 444.2,645.5 451.4,635.6C458.6,625.8 467.4,613.9 470.8,609.1C474.3,604.4 480.8,595.1 485.2,588.5C489.6,581.9 494.8,573.4 496.8,569.5C498.7,565.6 501.3,559.8 502.5,556.5C503.7,553.2 505.0,549.3 505.4,547.8C506.0,545.2 505.8,545.0 503.0,545.0C501.4,545.0 494.3,546.6 487.5,548.5C480.6,550.5 463.8,554.8 450.3,558.1C436.7,561.4 421.9,565.6 417.2,567.5C412.6,569.3 405.5,573.0 401.4,575.5C397.3,578.1 391.1,583.0 387.6,586.5C384.0,590.0 380.2,594.6 379.1,596.8C378.0,599.0 376.6,603.0 375.9,605.7C375.3,608.3 374.5,619.0 374.0,629.5C373.4,642.3 372.6,650.3 371.5,654.0C370.6,657.0 368.0,663.1 365.8,667.4C363.6,671.8 359.5,679.0 356.7,683.4C353.8,687.9 348.1,695.8 343.9,701.0C339.7,706.2 331.7,715.9 326.1,722.5C320.4,729.1 314.5,736.4 312.9,738.8C311.2,741.1 310.1,743.4 310.3,743.8C310.6,744.2 323.8,744.4 339.7,744.2zM104.0,743.7C137.3,743.5 139.8,743.4 142.5,741.6C144.2,740.5 146.1,738.9 146.7,738.1C147.4,737.2 149.4,732.0 151.1,726.5C152.9,721.0 156.1,712.9 158.3,708.5C160.5,704.1 164.4,697.4 167.0,693.5C169.6,689.7 175.1,682.9 179.1,678.4C183.2,674.0 198.2,659.2 212.5,645.5C226.8,631.8 249.1,610.0 262.0,597.1C275.1,584.0 290.0,568.0 295.4,561.1C300.9,554.3 309.5,543.2 314.6,536.4C319.7,529.6 326.3,520.3 329.3,515.8C332.3,511.2 336.1,504.8 337.8,501.5C339.4,498.1 341.8,492.5 343.1,489.0C345.0,483.2 345.3,480.2 345.6,461.7C345.8,446.9 346.4,439.0 347.5,434.7C348.4,431.3 350.7,425.3 352.6,421.3C354.6,417.4 359.7,409.9 364.0,404.8C368.2,399.7 379.2,387.7 388.4,378.2C397.5,368.7 405.0,360.5 405.0,360.0C405.0,359.4 403.5,359.0 401.6,359.0C399.8,359.0 392.9,359.9 386.4,361.1C379.8,362.2 365.0,365.6 353.3,368.6C341.6,371.6 331.5,374.0 330.8,374.0C330.1,374.0 330.0,373.7 330.6,373.1C331.1,372.6 334.6,371.1 338.5,369.7C342.4,368.4 350.7,365.9 357.0,364.2C363.3,362.5 374.1,360.0 381.0,358.6C387.9,357.2 397.5,355.6 402.4,355.1C407.3,354.5 412.3,353.4 413.6,352.6C414.8,351.7 420.0,345.6 425.0,339.0C430.1,332.4 436.3,325.1 438.8,322.9C441.4,320.6 447.1,317.0 451.5,314.9C455.9,312.8 464.9,309.5 471.5,307.5C478.1,305.6 486.4,302.8 490.0,301.4C493.6,300.0 498.5,297.7 501.0,296.3C503.5,294.9 508.4,291.3 512.0,288.4C515.6,285.5 520.1,280.7 522.0,277.6C523.9,274.5 525.9,272.0 526.3,272.0C526.8,272.0 526.8,273.0 526.4,274.2C526.1,275.5 525.1,277.8 524.2,279.4C523.4,281.1 520.4,284.8 517.6,287.8C514.8,290.9 509.3,295.4 505.4,298.0C499.9,301.6 493.7,304.2 478.2,309.4C467.1,313.1 455.5,317.7 452.3,319.7C449.1,321.6 445.2,324.3 443.7,325.8C442.1,327.3 437.8,333.0 434.0,338.5C430.2,344.0 424.5,351.7 421.3,355.6C418.1,359.5 409.9,369.6 403.1,378.0C396.2,386.5 388.3,397.1 385.4,401.7C382.5,406.3 378.8,413.4 377.0,417.6C375.3,421.8 373.2,428.2 372.4,431.9C371.6,435.5 370.7,447.4 370.3,458.2C369.7,478.0 369.7,478.0 372.3,478.0C373.8,478.0 379.4,476.6 384.7,474.9C390.1,473.2 402.8,467.5 413.0,462.3C423.9,456.8 435.8,451.6 442.1,449.6C447.9,447.7 456.1,445.4 460.3,444.5C466.2,443.2 468.0,442.4 468.0,441.1C468.0,440.2 466.6,435.6 464.9,430.9C462.2,423.9 461.6,420.6 461.2,411.4C460.9,402.8 461.1,399.0 462.5,394.4C463.4,391.2 465.6,385.9 467.3,382.7C469.0,379.5 473.3,373.7 476.8,369.9C480.4,366.0 486.5,360.2 490.5,357.0C494.5,353.7 507.6,344.4 519.6,336.3C531.7,328.3 544.9,319.1 549.1,315.9C553.2,312.8 558.9,307.7 561.7,304.6C564.5,301.6 567.8,297.0 569.0,294.5C570.2,292.0 571.7,287.1 572.3,283.6C573.2,278.4 573.1,275.8 571.7,269.4C570.8,265.0 569.1,258.1 567.9,254.0C566.6,249.3 565.6,242.4 565.3,235.3C564.9,227.0 565.2,222.3 566.4,216.6C567.4,212.4 569.1,206.6 570.3,203.8C571.5,200.9 574.1,195.6 576.0,192.0C578.2,187.9 582.8,182.2 588.5,176.4C593.5,171.5 601.3,164.9 606.0,161.9C610.7,158.8 623.0,151.8 633.5,146.3C644.0,140.8 666.7,129.2 684.1,120.7C701.4,112.1 719.8,102.4 724.9,99.0C729.9,95.7 736.1,90.9 738.5,88.5C740.9,86.0 743.6,82.0 744.6,79.5C745.8,76.2 746.1,73.4 745.7,69.4C745.4,66.3 744.0,61.6 742.7,59.1C741.4,56.6 738.4,51.0 736.2,46.7C733.0,40.7 732.0,37.8 732.0,34.2C732.0,31.6 732.9,27.5 734.0,25.1C735.1,22.7 736.0,20.6 736.0,20.4C736.0,20.2 735.3,20.0 734.5,20.0C733.6,20.0 730.8,21.1 728.2,22.4C725.6,23.7 718.3,27.9 712.0,31.7C705.7,35.5 693.8,43.0 685.5,48.3C677.2,53.6 668.0,60.0 664.8,62.7C661.7,65.3 657.3,69.8 655.0,72.7C652.8,75.6 648.6,82.8 645.8,88.7C643.0,94.6 638.8,102.3 636.4,105.6C634.0,109.0 628.8,114.7 624.8,118.2C620.8,121.8 613.7,127.5 609.0,131.0C604.4,134.4 594.2,140.9 586.5,145.5C578.8,150.0 568.9,155.6 564.5,157.8C560.1,160.0 545.6,166.8 532.2,172.9C518.8,179.0 502.8,186.6 496.7,189.6C490.5,192.7 482.1,197.5 478.0,200.2C473.9,203.0 468.1,207.5 465.2,210.4C462.2,213.2 457.9,218.2 455.5,221.5C453.1,224.8 448.9,232.3 446.2,238.2C443.4,244.1 438.8,252.3 435.9,256.5C433.1,260.6 426.6,268.0 421.5,272.9C416.4,277.7 405.8,286.9 397.9,293.2C390.0,299.5 379.9,307.3 375.5,310.5C371.1,313.7 358.9,323.2 348.4,331.6C337.8,340.1 324.3,351.3 318.4,356.7C312.4,362.1 303.8,370.2 299.3,374.7C294.9,379.2 289.1,386.1 286.6,389.9C284.0,393.7 280.9,399.2 279.6,402.2C278.3,405.1 276.5,410.9 275.6,415.0C274.7,419.1 273.3,429.5 272.5,438.0C271.8,446.6 270.6,455.8 270.0,458.5C269.4,461.3 268.2,465.8 267.3,468.5C266.4,471.2 263.5,478.4 260.8,484.4C258.1,490.4 253.1,500.1 249.6,505.9C246.0,511.7 240.8,519.6 237.9,523.5C235.1,527.4 228.0,535.9 222.2,542.5C216.4,549.1 190.7,575.4 165.1,601.0C139.5,626.6 109.5,656.3 98.6,667.0C87.6,677.7 75.3,690.3 71.3,694.9C66.4,700.5 62.4,706.4 59.4,712.4C56.8,717.8 54.7,723.5 54.4,726.5C54.0,729.9 54.3,732.7 55.3,735.2C56.1,737.2 58.0,739.6 59.4,740.6C60.9,741.5 63.5,742.6 65.3,743.1C67.0,743.5 84.5,743.8 104.0,743.7zM266.2,743.9C299.9,744.0 299.9,744.0 304.2,738.3C306.6,735.1 315.2,724.9 323.3,715.6C331.5,706.3 340.0,696.3 342.2,693.3C346.2,688.0 346.2,688.0 344.1,677.6C342.8,670.9 342.0,663.3 342.0,656.7C342.0,649.6 342.6,643.9 344.0,638.6C345.1,634.4 347.9,627.2 350.2,622.7C352.5,618.3 357.1,611.0 360.4,606.5C363.7,602.1 371.1,593.7 376.9,587.9C382.7,582.1 390.6,575.3 394.5,572.8C398.4,570.3 403.8,567.1 406.7,565.6C409.5,564.2 415.3,561.9 419.4,560.5C423.5,559.1 436.3,555.8 447.7,553.1C459.1,550.3 476.4,545.9 486.1,543.3C495.9,540.6 504.6,537.8 505.5,537.0C507.0,535.7 507.2,534.1 506.7,524.5C506.4,517.1 505.6,511.7 504.2,508.0C503.2,505.0 501.2,500.2 499.9,497.5C498.7,494.8 493.1,484.9 487.5,475.5C481.9,466.1 476.1,456.1 474.5,453.2C472.1,448.7 471.3,448.0 468.7,448.0C467.1,448.0 463.0,448.7 459.6,449.5C456.3,450.4 449.3,452.5 444.3,454.1C439.2,455.8 425.9,461.7 414.8,467.4C399.7,474.9 391.5,478.4 382.8,480.9C376.3,482.8 370.4,485.0 369.7,485.9C368.9,486.8 366.1,491.8 363.4,497.0C360.6,502.2 353.0,514.8 346.3,525.0C339.7,535.2 332.8,546.3 331.1,549.8C329.4,553.2 325.9,561.3 323.4,567.8C320.9,574.2 317.1,583.1 314.8,587.5C312.6,591.9 308.1,599.3 304.9,604.0C301.7,608.7 295.4,617.1 290.8,622.6C286.2,628.2 278.5,637.4 273.5,643.1C268.6,648.8 260.2,658.2 254.9,664.0C249.7,669.8 241.4,679.2 236.6,685.0C231.8,690.8 225.8,698.9 223.4,703.0C220.9,707.1 218.1,713.4 217.0,716.9C215.9,720.4 215.0,725.0 215.0,727.1C215.0,729.3 215.6,732.6 216.4,734.5C217.2,736.3 219.0,738.6 220.5,739.6C222.0,740.6 225.3,741.9 227.8,742.6C231.1,743.5 242.5,743.9 266.2,743.9zM438.9,727.5C439.5,727.2 446.0,714.6 453.4,699.5C460.8,684.3 470.1,666.5 474.1,659.7C478.1,653.0 483.6,644.1 486.3,640.0C489.1,635.9 497.9,623.7 506.0,613.0C514.0,602.3 523.0,590.0 525.9,585.7C528.8,581.4 532.9,574.2 535.1,569.7C537.2,565.2 540.0,557.7 541.1,553.0C543.0,545.7 543.2,542.7 542.7,531.5C542.4,524.4 541.4,516.1 540.6,513.1C539.8,510.1 538.7,507.3 538.2,506.8C537.6,506.2 537.4,512.8 537.7,524.7C538.2,541.7 538.1,544.3 536.1,552.0C535.0,556.7 532.2,564.2 530.1,568.7C527.9,573.2 523.8,580.4 520.9,584.7C518.0,589.0 508.9,601.5 500.6,612.5C492.3,623.5 482.7,636.8 479.2,642.0C475.7,647.2 470.3,656.0 467.2,661.5C464.2,666.9 457.3,680.4 451.9,691.5C446.6,702.5 441.3,714.1 440.1,717.3C439.0,720.5 438.0,724.2 438.0,725.6C438.0,727.0 438.4,727.9 438.9,727.5zM625.4,712.0C623.6,712.0 621.9,711.6 621.5,711.1C621.2,710.5 621.5,706.1 622.1,701.2C623.2,692.9 623.2,692.0 621.4,688.9C620.1,686.6 616.5,683.8 610.9,680.5C606.1,677.6 599.5,672.5 595.5,668.5C590.7,663.7 587.3,659.1 584.7,654.0C582.2,649.1 580.7,644.5 580.3,640.7C579.8,635.7 579.9,635.0 581.5,635.0C582.4,635.0 586.9,637.1 591.3,639.8C595.7,642.4 602.3,647.2 605.8,650.5C609.4,653.8 614.5,659.6 617.1,663.3C619.7,667.1 622.7,672.5 623.7,675.3C625.5,680.5 625.5,680.5 625.8,672.5C626.0,668.1 625.4,659.5 624.5,653.4C623.7,647.3 621.9,637.8 620.5,632.4C619.2,626.9 617.5,618.7 616.6,614.1C615.7,609.5 615.0,603.8 615.0,601.4C615.0,599.0 615.4,597.0 615.8,597.0C616.3,597.0 618.5,598.3 620.8,600.0C623.1,601.6 627.4,606.0 630.5,609.7C633.6,613.5 637.7,619.3 639.7,622.8C641.7,626.3 644.1,631.9 645.2,635.2C646.2,638.6 647.3,645.2 647.6,649.9C648.0,655.8 647.7,661.5 646.6,668.0C645.7,673.2 644.0,680.4 642.9,684.0C641.7,687.6 638.7,694.5 636.3,699.5C633.8,704.5 631.1,709.3 630.2,710.2C629.4,711.2 627.3,712.0 625.4,712.0zM1.5,574.0C0.3,574.0 0.0,572.5 0.0,566.5C0.0,559.0 0.0,559.0 4.2,556.4C6.6,555.0 15.8,549.5 24.8,544.2C33.8,538.9 46.8,530.5 53.8,525.5C60.7,520.5 70.6,512.5 75.7,507.5C82.9,500.4 85.6,497.0 88.2,491.5C91.5,484.5 91.5,484.5 92.0,464.5C92.5,444.5 92.5,444.5 95.7,438.0C97.5,434.4 102.0,428.0 105.7,423.8C109.4,419.5 114.5,414.3 117.0,412.2C119.5,410.1 125.8,405.1 131.0,401.1C136.2,397.2 141.5,393.7 142.8,393.4C144.1,393.0 145.4,393.0 145.7,393.4C146.0,393.7 144.6,396.6 142.5,399.7C140.4,402.9 136.4,409.1 133.7,413.5C131.0,417.9 127.5,424.0 126.0,427.1C124.4,430.1 122.4,436.1 121.6,440.3C120.7,444.5 120.0,450.1 120.0,452.7C120.0,455.3 120.5,459.1 121.0,461.2C121.6,463.2 122.6,465.0 123.3,465.3C124.0,465.6 126.1,465.2 128.0,464.5C129.9,463.8 138.2,460.1 146.5,456.2C154.8,452.4 162.5,448.9 163.8,448.5C165.0,448.2 166.0,448.2 166.0,448.7C166.0,449.1 161.1,452.7 155.2,456.6C149.3,460.6 140.1,466.5 134.8,469.9C129.5,473.4 123.6,477.8 121.8,479.9C120.0,482.0 115.1,488.3 111.0,493.9C107.0,499.6 99.4,508.2 94.2,513.1C89.1,517.9 79.6,525.9 73.2,530.8C66.8,535.7 58.1,541.8 54.0,544.5C49.9,547.1 41.3,552.5 35.0,556.3C28.7,560.1 18.9,565.7 13.3,568.6C7.6,571.6 2.3,574.0 1.5,574.0zM692.6,539.0C691.2,539.0 689.6,538.2 689.1,537.2C688.6,536.3 687.9,533.8 687.5,531.7C687.1,529.6 684.9,525.1 682.6,521.7C680.3,518.3 677.4,513.2 676.3,510.5C675.1,507.8 673.7,502.8 673.1,499.6C672.5,496.3 672.0,491.5 672.0,488.8C672.0,486.2 672.3,484.0 672.8,484.0C673.2,484.0 675.0,484.9 676.7,486.0C678.5,487.1 682.6,490.7 685.9,494.0C689.2,497.3 693.0,502.4 694.4,505.3C695.8,508.1 697.4,512.9 698.0,515.9C698.7,519.5 698.7,523.3 698.0,527.6C697.4,531.1 696.5,535.1 696.0,536.5C695.3,538.2 694.3,539.0 692.6,539.0zM199.1,527.7C200.3,526.8 203.3,523.7 205.7,520.8C208.2,517.9 212.8,511.7 216.0,507.0C219.1,502.3 223.3,495.3 225.2,491.5C227.2,487.6 229.9,481.3 231.3,477.3C232.8,473.4 234.6,466.4 235.4,461.8C236.3,457.2 237.7,447.4 238.5,440.0C239.4,432.6 241.0,423.2 242.1,419.1C243.2,415.1 245.4,408.6 247.1,404.7C248.7,400.8 252.6,393.8 255.7,389.1C258.8,384.5 265.9,376.0 271.4,370.2C277.0,364.4 286.0,356.0 291.5,351.5C297.0,347.0 307.1,339.1 314.0,333.9C320.9,328.7 334.4,318.9 344.0,312.2C353.6,305.4 368.0,295.1 376.0,289.2C384.0,283.3 394.4,275.5 399.1,271.9C403.8,268.2 410.5,262.3 414.1,258.9C417.7,255.4 422.3,250.0 424.3,247.0C426.3,244.0 429.6,237.4 431.6,232.5C433.6,227.6 437.4,220.3 440.2,216.3C443.1,212.2 448.1,206.8 451.9,203.7C455.5,200.7 461.0,196.5 464.0,194.4C467.0,192.2 471.5,189.2 474.0,187.8C476.5,186.4 483.1,182.9 488.8,180.1C494.4,177.2 499.0,174.7 499.0,174.4C499.0,174.2 496.8,174.9 494.0,176.0C491.3,177.1 487.5,178.6 485.5,179.4C483.5,180.3 477.3,183.5 471.7,186.6C466.1,189.8 458.6,194.4 455.0,196.9C451.4,199.4 445.6,204.4 442.0,208.0C437.4,212.5 434.3,216.8 431.8,222.0C429.8,226.1 426.3,233.6 423.9,238.5C420.4,246.2 418.4,248.8 411.1,256.0C406.4,260.7 395.3,269.9 386.5,276.6C377.7,283.2 366.4,291.5 361.5,295.0C356.6,298.5 345.1,306.5 336.0,312.8C326.9,319.2 312.1,330.0 303.0,336.9C293.9,343.8 280.5,355.4 273.1,362.5C265.8,369.6 256.9,379.3 253.4,384.0C249.9,388.6 245.5,395.7 243.5,399.6C241.6,403.5 238.9,410.7 237.5,415.6C236.0,420.5 234.0,430.8 232.9,438.5C231.9,446.2 230.3,456.3 229.4,461.0C228.6,465.7 226.7,472.9 225.3,477.0C223.9,481.1 220.9,488.1 218.7,492.5C216.5,496.9 211.4,505.6 207.4,511.8C203.3,518.0 199.3,524.5 198.4,526.2C196.8,529.2 196.8,529.2 199.1,527.7zM2.5,462.0C0.0,462.0 0.0,462.0 0.0,413.7C0.0,376.6 0.3,365.0 1.3,363.7C1.9,362.8 14.0,356.6 28.0,349.9C42.0,343.2 62.7,333.7 74.0,328.8C85.3,323.8 99.5,317.6 105.5,315.0C111.5,312.3 128.2,305.0 142.5,298.7C156.8,292.4 178.8,282.7 191.5,277.0C204.2,271.4 220.0,264.1 226.8,260.8C233.6,257.5 243.1,252.2 248.0,248.9C252.8,245.7 258.2,241.4 259.9,239.5C261.6,237.5 263.9,234.2 264.9,232.1C266.0,230.0 267.6,225.2 268.5,221.4C269.4,217.6 271.0,212.6 272.1,210.4C273.2,208.1 276.4,204.0 279.3,201.3C282.2,198.6 289.8,193.1 296.2,189.2C302.7,185.2 308.8,180.7 310.0,179.3C311.1,177.9 312.0,176.1 312.0,175.4C312.0,174.7 310.8,170.6 309.4,166.3C307.1,159.4 307.0,157.9 307.9,154.2C308.5,152.0 310.2,148.8 311.5,147.1C312.9,145.5 316.2,142.8 318.8,141.1C321.4,139.4 326.9,136.7 331.0,135.0C335.0,133.3 338.8,132.1 339.3,132.3C339.9,132.5 336.6,135.2 332.1,138.4C327.2,141.8 323.5,145.2 322.9,146.8C322.0,148.9 322.3,151.1 324.0,157.0C325.3,161.1 326.7,166.1 327.3,168.0C328.1,170.9 327.9,172.3 326.5,175.4C325.2,178.2 321.4,181.6 311.9,188.7C303.5,194.9 298.0,199.7 296.1,202.7C294.4,205.2 292.6,209.5 292.1,212.3C291.5,215.2 290.6,220.8 290.0,224.8C289.4,228.9 288.0,234.0 286.9,236.2C285.8,238.4 283.0,242.2 280.8,244.6C278.6,247.0 274.0,251.0 270.6,253.4C267.3,255.7 260.2,260.0 255.0,262.8C249.8,265.6 234.2,272.9 220.5,279.0C206.8,285.1 186.9,294.2 176.5,299.2C166.1,304.2 146.9,312.9 134.0,318.7C121.1,324.5 106.2,331.5 101.0,334.3C95.8,337.1 85.4,342.9 78.0,347.3C70.6,351.7 60.9,357.8 56.5,360.8C52.1,363.9 44.0,370.9 38.4,376.5C31.7,383.1 27.1,388.7 24.7,393.0C22.6,396.8 20.5,402.7 19.6,407.2C18.7,411.4 18.0,417.6 18.0,420.9C18.0,424.2 18.5,429.2 19.1,432.0C19.8,435.2 20.9,437.4 22.1,438.1C23.3,438.7 26.0,438.8 28.8,438.4C31.4,438.1 40.1,435.1 48.3,431.8C56.4,428.5 63.5,426.0 64.1,426.2C64.7,426.4 63.7,427.7 61.9,429.1C60.0,430.5 52.0,435.6 44.0,440.5C36.0,445.3 24.0,452.2 17.3,455.7C10.6,459.1 3.9,462.0 2.5,462.0zM598.1,457.0C597.1,457.0 596.0,456.7 595.7,456.3C595.3,456.0 595.0,453.9 595.0,451.7C595.0,448.0 594.4,447.1 587.2,440.1C581.8,434.9 578.5,430.7 576.7,426.8C575.2,423.7 574.0,420.2 574.0,419.0C574.0,417.3 574.4,417.0 576.2,417.5C577.5,417.9 580.9,419.3 583.7,420.6C586.6,422.0 590.5,424.9 592.3,427.1C594.2,429.2 596.2,432.7 596.8,434.9C597.5,437.0 598.0,439.5 598.0,440.5C598.0,441.5 598.2,442.1 598.5,441.8C598.8,441.5 599.7,436.8 600.5,431.4C601.4,425.9 602.7,419.2 603.6,416.5C604.5,413.8 606.6,409.1 608.3,406.2C610.0,403.4 611.8,401.0 612.2,401.0C612.6,401.0 613.3,402.2 613.7,403.8C614.2,405.3 614.5,412.4 614.5,419.5C614.5,432.5 614.5,432.5 610.4,441.1C608.1,445.8 604.8,451.3 603.0,453.3C601.3,455.3 599.0,457.0 598.1,457.0zM496.7,424.7C497.0,423.7 496.7,420.0 496.1,416.6C495.5,413.1 495.0,408.6 495.0,406.4C495.0,404.2 495.6,400.1 496.3,397.3C497.1,394.5 499.2,389.6 501.1,386.4C503.0,383.3 507.9,377.3 512.2,373.1C516.4,368.9 523.1,362.9 527.2,359.7C531.2,356.6 538.5,351.0 543.5,347.4C548.5,343.7 557.7,336.5 564.1,331.4C570.5,326.3 579.0,318.5 583.1,314.3C587.2,310.0 592.0,304.0 593.7,301.0C595.4,298.0 597.6,292.8 598.5,289.5C599.9,284.9 600.1,281.4 599.7,273.5C599.4,267.8 598.0,259.0 596.5,253.0C595.0,247.2 593.6,238.4 593.3,233.5C593.0,227.3 593.3,222.5 594.4,217.9C595.2,214.2 597.1,208.7 598.5,205.5C599.9,202.3 603.0,197.0 605.4,193.6C607.8,190.3 614.5,182.7 620.3,176.7C626.0,170.8 630.6,166.0 630.3,166.0C630.1,166.0 628.2,167.1 626.0,168.5C623.9,169.9 618.9,173.7 615.0,177.1C611.1,180.4 605.5,186.4 602.6,190.3C599.6,194.3 596.1,199.8 594.7,202.5C593.4,205.2 591.4,210.2 590.4,213.5C589.1,217.8 588.6,222.5 588.6,230.5C588.7,238.0 589.4,244.7 590.9,251.5C592.1,257.0 593.5,265.0 594.1,269.2C594.7,274.4 594.7,279.1 594.0,283.7C593.4,287.6 591.5,293.6 589.4,297.8C587.3,302.2 583.4,307.7 579.7,311.7C576.3,315.3 567.9,322.8 561.0,328.4C554.1,334.0 541.3,343.9 532.5,350.4C523.7,357.0 512.4,366.4 507.3,371.5C499.9,378.8 497.3,382.2 494.5,388.2C492.4,392.6 490.6,398.0 490.3,401.2C490.0,404.2 490.3,409.0 490.9,412.0C491.5,414.9 493.0,419.4 494.2,421.9C495.7,425.3 496.4,426.0 496.7,424.7zM148.0,374.0C147.5,374.0 146.3,372.9 145.5,371.6C144.6,370.3 143.5,366.5 142.9,363.1C142.2,358.8 142.3,355.0 143.0,350.9C143.6,347.6 144.9,343.0 145.9,340.7C146.9,338.4 149.7,334.3 152.0,331.7C155.1,328.3 156.6,327.2 157.4,328.0C158.0,328.6 158.6,334.6 158.8,342.0C159.1,349.4 158.8,356.1 158.2,357.7C157.7,359.2 156.4,362.2 155.5,364.4C153.9,368.3 153.9,368.3 158.7,365.5C161.3,363.9 166.0,361.0 169.0,358.9C172.0,356.9 180.3,349.8 187.5,343.1C196.0,335.2 202.7,329.8 207.0,327.6C210.6,325.7 216.9,323.0 221.0,321.5C225.1,320.0 235.8,316.9 244.6,314.5C256.8,311.3 263.0,309.0 270.1,305.2C275.3,302.5 283.1,299.1 287.5,297.7C291.9,296.3 301.7,293.3 309.3,291.1C316.8,288.8 323.4,287.0 323.8,287.0C324.2,287.0 323.8,287.5 322.9,288.0C322.0,288.5 318.2,290.0 314.4,291.4C310.6,292.7 301.6,295.6 294.5,297.9C286.1,300.5 278.0,303.9 271.5,307.5C266.0,310.6 257.9,314.1 253.5,315.5C249.1,316.8 239.9,319.5 233.0,321.4C226.1,323.4 216.4,327.0 211.4,329.5C203.3,333.4 200.7,335.4 190.0,346.0C183.4,352.6 175.2,359.9 171.8,362.1C168.5,364.4 162.0,368.0 157.4,370.1C152.7,372.3 148.5,374.0 148.0,374.0zM647.2,369.0C646.7,369.0 645.9,368.3 645.6,367.4C645.3,366.5 645.0,364.6 645.0,363.0C645.0,361.5 645.8,357.9 646.7,355.0C647.9,351.4 650.1,347.8 653.9,343.8C656.9,340.5 660.7,337.2 662.3,336.3C665.1,334.9 665.5,334.9 666.7,336.6C667.4,337.6 668.0,340.8 668.0,343.7C668.0,346.7 667.3,350.7 666.5,352.7C665.6,354.7 663.9,357.8 662.6,359.5C661.3,361.2 657.5,364.1 654.2,365.8C650.9,367.6 647.8,369.0 647.2,369.0zM2.2,353.0C0.2,353.0 0.0,352.5 0.0,347.2C0.0,344.1 0.5,338.6 1.0,335.1C1.6,331.6 3.1,326.7 4.5,324.1C5.8,321.6 9.8,316.1 13.4,312.0C17.0,307.9 23.6,301.4 28.1,297.5C32.7,293.6 38.0,289.0 39.9,287.2C41.9,285.3 43.0,283.6 42.4,283.4C41.8,283.1 39.2,281.6 36.7,280.1C33.0,277.7 31.9,276.2 30.5,272.0C29.3,268.3 28.9,264.9 29.3,260.6C29.5,257.3 30.3,253.3 31.0,251.8C31.7,250.2 32.9,249.0 33.6,249.0C34.2,249.0 36.1,250.5 37.6,252.3C39.2,254.1 41.9,257.8 43.6,260.5C45.4,263.3 47.5,267.9 48.5,270.8C49.4,273.6 50.7,276.0 51.3,276.0C52.0,275.9 54.8,274.2 57.7,272.2C60.5,270.2 67.7,265.0 73.7,260.8C79.6,256.5 92.2,247.7 101.7,241.2C111.2,234.7 122.3,226.6 126.5,223.1C131.2,219.3 138.3,211.6 145.4,202.7C151.6,194.9 161.2,184.2 166.6,178.9C172.1,173.7 186.2,161.8 198.0,152.5C209.8,143.2 230.6,126.7 244.1,115.8C257.7,105.0 271.0,93.6 273.8,90.5C276.6,87.4 279.4,83.3 280.0,81.2C280.5,79.2 281.0,76.4 281.0,75.0C281.0,73.6 279.9,70.2 278.6,67.5C277.4,64.8 274.0,59.7 271.1,56.3C268.3,53.0 265.1,48.2 264.0,45.8C262.9,43.5 262.0,39.8 262.0,37.7C262.0,35.6 262.7,32.3 263.5,30.2C264.4,28.2 267.0,24.5 269.3,22.2C271.6,19.8 276.6,15.7 280.5,13.0C284.4,10.4 289.9,7.1 292.9,5.5C295.9,4.0 300.4,2.2 302.9,1.4C305.4,0.6 309.5,0.0 311.9,0.0C316.4,-0.0 316.4,-0.0 312.2,3.6C309.9,5.5 304.0,10.2 299.1,14.1C293.5,18.4 289.1,22.6 287.5,25.3C285.9,28.2 285.0,31.2 285.0,34.1C285.0,36.6 285.7,39.6 286.7,41.0C287.6,42.4 291.6,47.0 295.6,51.2C299.6,55.4 303.8,60.7 305.0,63.0C306.2,65.3 307.4,69.4 307.7,72.1C308.2,76.3 307.8,77.9 305.2,83.3C303.2,87.4 299.4,92.4 294.6,97.2C290.6,101.4 271.3,117.7 251.9,133.6C232.4,149.5 212.0,166.5 206.5,171.4C201.0,176.3 194.0,183.2 190.9,186.7C187.8,190.3 182.1,198.9 178.1,205.9C174.2,212.8 168.4,221.4 165.3,224.8C162.3,228.3 156.2,233.8 152.0,237.0C147.7,240.3 133.4,250.2 120.3,259.1C107.2,268.0 92.7,278.2 88.0,281.8C83.3,285.4 74.9,292.4 69.3,297.3C63.6,302.2 56.3,309.4 53.0,313.4C49.6,317.3 45.1,324.1 42.9,328.4C40.7,332.8 38.2,336.9 37.2,337.5C36.3,338.2 28.5,341.9 20.0,345.8C11.4,349.8 3.4,353.0 2.2,353.0zM199.2,318.6C196.1,319.2 196.0,319.1 196.0,316.0C196.0,314.2 196.5,310.9 197.2,308.6C198.0,305.9 200.4,302.5 204.0,298.9C207.0,295.8 212.0,291.9 215.0,290.2C218.0,288.4 221.3,287.0 222.2,287.0C223.4,287.0 224.0,287.8 224.0,289.3C224.0,290.6 223.3,294.0 222.4,296.9C221.4,300.5 219.4,303.8 216.3,307.1C213.8,309.7 209.7,313.3 207.1,314.9C204.5,316.6 200.9,318.3 199.2,318.6zM414.0,307.5C411.6,308.0 410.8,307.9 411.5,307.2C412.1,306.6 418.1,304.5 425.0,302.5C431.9,300.5 441.8,297.6 447.1,296.0C452.3,294.3 458.5,291.7 460.8,290.0C463.1,288.4 465.9,285.2 467.0,283.1C468.1,280.9 469.9,276.7 471.0,273.8C472.1,270.9 474.4,266.8 476.1,264.7C477.8,262.6 481.4,259.8 484.2,258.4C486.9,257.0 495.8,254.1 504.0,252.0C512.3,249.8 521.4,246.9 524.4,245.5C527.3,244.1 531.8,241.1 534.4,238.9C536.9,236.7 539.0,235.3 539.0,235.8C539.0,236.4 537.8,238.2 536.4,240.0C534.9,241.7 531.8,244.4 529.4,246.1C526.9,247.8 522.4,250.0 519.2,251.1C516.1,252.2 508.6,254.3 502.5,255.7C496.4,257.1 489.9,259.1 488.0,260.0C486.1,261.0 483.3,263.1 481.8,264.7C480.3,266.2 477.2,271.8 474.7,277.0C471.6,283.8 469.1,287.6 466.0,290.4C463.7,292.5 459.4,295.3 456.5,296.6C453.6,297.9 443.7,300.8 434.4,302.9C425.1,305.1 415.9,307.2 414.0,307.5zM324.2,271.2C322.6,271.7 321.5,271.2 320.5,269.7C319.7,268.5 318.6,265.0 317.9,262.0C317.2,258.8 317.0,253.6 317.4,249.0C317.7,244.9 318.3,240.5 318.6,239.2C319.0,238.0 319.8,237.0 320.5,237.0C321.2,237.0 322.5,238.1 323.4,239.5C324.3,240.8 325.8,244.4 326.7,247.5C327.6,250.5 328.8,253.0 329.3,253.0C329.8,253.0 331.8,251.7 333.7,250.0C335.5,248.3 337.7,247.0 338.5,247.0C339.4,247.0 340.0,247.9 340.0,249.2C340.0,250.5 339.5,253.2 338.9,255.3C338.3,257.7 335.8,261.2 332.2,264.9C329.1,268.0 325.5,270.9 324.2,271.2zM479.3,242.9C477.8,242.9 476.9,242.7 477.5,242.4C478.1,242.2 484.7,240.5 492.2,238.6C499.8,236.6 507.4,234.3 509.2,233.4C511.0,232.5 514.9,230.1 517.9,228.2C522.7,225.0 523.7,223.7 527.5,215.6C529.8,210.6 532.8,205.5 534.1,204.4C535.4,203.2 538.0,201.5 539.8,200.5C541.7,199.6 543.4,199.1 543.6,199.3C543.9,199.6 542.1,200.9 539.7,202.3C537.1,203.9 534.6,206.3 533.7,208.2C532.9,210.0 531.5,213.8 530.5,216.7C529.3,220.6 527.6,223.1 523.8,226.5C521.0,229.0 515.1,232.8 510.6,235.0C505.3,237.6 499.0,239.7 492.3,241.0C486.8,242.1 480.9,243.0 479.3,242.9zM698.5,232.0C697.1,232.0 695.6,231.2 695.0,230.1C694.5,229.0 694.0,226.7 694.0,225.0C694.0,223.2 695.1,219.6 696.5,216.9C697.8,214.2 700.4,210.2 702.1,208.0C703.9,205.8 705.9,204.0 706.6,204.0C707.2,204.0 708.1,204.7 708.4,205.6C708.7,206.5 709.0,209.3 709.0,212.0C709.0,214.6 708.3,218.7 707.5,221.1C706.6,223.4 704.8,226.9 703.4,228.7C701.8,230.8 700.0,232.0 698.5,232.0zM57.8,227.0C56.4,227.0 55.0,226.3 54.6,225.5C54.3,224.7 54.3,222.5 54.7,220.7C55.0,219.0 56.1,215.9 57.0,214.0C58.0,212.0 61.0,208.4 63.8,205.8C66.5,203.3 70.5,200.3 72.7,199.1C74.9,198.0 77.0,197.4 77.4,197.7C77.7,198.1 78.0,199.5 78.0,200.9C78.0,202.3 76.9,205.9 75.5,208.8C74.2,211.6 70.2,216.9 66.8,220.5C62.2,225.2 59.7,227.0 57.8,227.0zM364.7,226.0C363.9,226.0 363.0,225.7 362.7,225.3C362.3,225.0 362.0,222.1 362.0,219.0C362.0,214.9 362.7,211.9 364.7,208.0C366.2,205.0 370.6,199.4 374.5,195.5C378.3,191.5 386.0,185.2 391.5,181.3C397.1,177.4 402.2,173.4 403.0,172.5C404.4,170.9 404.2,170.8 401.0,171.5C399.1,171.9 393.6,173.5 388.8,175.1C383.9,176.8 372.0,181.7 362.3,186.2C352.5,190.6 340.9,195.8 336.5,197.6C332.1,199.5 327.8,201.0 327.0,201.0C326.2,200.9 332.9,197.3 342.0,192.9C351.1,188.4 368.0,180.4 379.7,175.0C391.3,169.7 406.6,161.8 413.7,157.6C420.7,153.4 430.4,147.1 435.2,143.7C440.0,140.3 446.4,135.3 449.6,132.6C452.7,129.9 456.6,125.6 458.1,123.1C460.1,120.0 461.0,117.3 461.0,114.4C461.0,111.3 459.7,107.6 456.0,100.4C451.9,92.4 451.0,89.7 451.0,85.5C451.0,81.4 451.6,79.4 453.9,76.0C455.5,73.6 459.7,69.4 463.2,66.7C467.1,63.6 479.3,57.0 495.5,49.0C510.5,41.6 523.3,34.7 525.7,32.6C528.3,30.3 530.3,27.5 530.9,25.3C531.6,22.7 531.6,20.9 530.6,18.6C529.9,16.8 526.7,12.6 523.5,9.2C519.9,5.3 518.0,2.4 518.4,1.5C518.7,0.5 520.3,-0.0 522.8,-0.0C525.3,-0.0 528.3,1.0 531.6,3.1C534.3,4.8 538.4,8.1 540.8,10.3C543.2,12.6 545.8,15.7 546.6,17.2C547.4,18.7 548.0,21.5 548.0,23.5C548.0,25.5 547.3,28.4 546.5,30.0C545.7,31.5 543.1,34.4 540.8,36.3C538.4,38.2 534.7,40.9 532.4,42.3C530.2,43.7 519.7,49.2 509.2,54.5C498.6,59.8 487.3,66.1 484.1,68.5C480.9,70.9 476.9,74.5 475.4,76.6C473.3,79.3 472.5,81.5 472.5,84.5C472.5,87.6 473.5,90.1 476.9,95.3C479.3,99.0 481.9,103.9 482.7,106.2C483.6,108.8 483.9,111.8 483.5,114.2C483.1,116.2 481.2,120.5 479.1,123.7C477.0,126.9 472.2,132.4 468.4,135.9C464.6,139.4 455.4,146.6 447.9,151.9C440.4,157.2 428.9,165.2 422.4,169.7C415.8,174.2 406.1,181.5 400.7,186.0C395.3,190.4 389.0,196.7 386.7,199.9C384.3,203.1 381.4,208.4 380.2,211.7C379.0,215.0 376.8,219.0 375.2,220.5C373.7,222.0 371.1,223.9 369.3,224.6C367.5,225.4 365.4,226.0 364.7,226.0zM537.5,187.5C534.2,187.9 533.9,187.9 535.9,187.0C537.2,186.4 543.2,184.8 549.2,183.4C555.3,182.0 561.0,181.1 561.9,181.3C562.8,181.5 558.5,182.8 552.5,184.3C546.5,185.7 539.7,187.1 537.5,187.5zM3.3,183.0C2.7,183.0 1.8,182.5 1.5,182.0C1.1,181.4 1.2,176.4 1.6,170.8C2.2,161.2 2.4,160.5 5.7,157.0C7.5,154.9 13.2,149.9 18.3,145.8C23.3,141.7 32.9,134.1 39.5,128.8C46.1,123.6 58.2,114.2 66.5,108.1C74.8,101.9 83.4,94.9 85.8,92.7C88.2,90.4 91.0,87.3 92.1,85.8C93.1,84.4 94.9,78.8 96.0,73.3C97.4,66.6 99.1,61.8 101.3,58.2C103.1,55.2 107.7,49.8 111.6,46.1C115.5,42.4 124.9,34.9 132.6,29.5C140.2,24.0 151.0,16.3 156.5,12.3C162.0,8.3 168.4,4.1 170.7,2.9C173.6,1.5 176.4,1.0 179.7,1.2C184.5,1.5 184.5,1.5 180.0,6.0C177.5,8.5 166.2,18.2 154.9,27.6C143.6,37.0 132.5,46.9 130.2,49.5C128.0,52.1 125.1,56.2 123.9,58.6C122.7,61.3 121.3,67.0 120.6,72.8C119.9,79.1 118.7,84.1 117.2,86.9C115.9,89.3 113.5,93.0 111.7,95.2C109.9,97.3 99.7,106.1 89.0,114.7C78.3,123.3 64.3,134.7 58.0,139.9C51.7,145.2 42.9,152.6 38.5,156.3C34.1,160.1 26.5,166.5 21.5,170.4C16.5,174.4 10.7,178.9 8.5,180.3C6.3,181.8 4.0,183.0 3.3,183.0zM79.0,171.5C76.7,171.9 76.0,171.8 77.0,171.2C77.8,170.7 83.2,169.0 88.8,167.6C94.5,166.1 99.4,165.0 99.6,165.3C99.8,165.5 96.1,166.9 91.3,168.3C86.4,169.7 80.9,171.2 79.0,171.5zM138.2,146.3C134.5,146.8 135.0,146.5 140.7,145.0C144.7,144.0 150.3,142.9 153.2,142.6C157.8,142.1 157.4,142.3 150.7,143.9C146.4,145.0 140.7,146.0 138.2,146.3zM591.4,131.8C593.2,130.5 596.9,127.7 599.5,125.5C602.2,123.3 607.6,118.4 611.6,114.6C615.6,110.9 621.0,104.7 623.5,100.9C626.0,97.1 629.0,92.0 630.1,89.4C631.2,86.9 632.0,84.7 631.8,84.4C631.6,84.2 628.2,88.9 624.3,94.8C620.4,100.7 613.3,109.6 608.4,114.6C603.5,119.6 596.9,125.6 593.8,128.0C590.6,130.3 588.0,132.7 588.0,133.2C588.0,133.7 589.5,133.0 591.4,131.8zM343.7,126.0C343.5,126.0 342.9,125.5 342.2,124.8C341.5,124.1 341.0,121.9 341.0,119.8C341.0,117.7 341.9,114.0 343.1,111.5C344.2,109.1 347.1,105.5 349.6,103.5C352.0,101.5 355.9,98.8 358.2,97.5C360.6,96.1 363.1,95.0 363.9,95.0C365.0,95.0 365.2,96.3 364.7,100.8C364.5,104.0 363.3,108.4 362.2,110.6C361.1,112.8 358.1,116.5 355.5,118.9C353.0,121.2 349.3,123.8 347.5,124.6C345.6,125.4 343.9,126.0 343.7,126.0zM524.0,120.6C522.2,120.9 521.9,120.8 523.0,120.1C523.8,119.6 528.0,118.5 532.2,117.5C536.5,116.6 540.5,116.0 541.2,116.3C541.9,116.5 538.9,117.5 534.5,118.4C530.1,119.3 525.4,120.3 524.0,120.6zM37.9,89.0C37.0,89.0 35.7,88.3 35.0,87.5C34.3,86.7 34.1,85.1 34.5,83.8C34.9,82.5 36.4,80.2 37.9,78.6C39.3,77.0 42.5,74.4 44.9,72.9C47.4,71.3 50.2,70.0 51.2,70.0C52.6,70.0 53.0,70.8 53.0,73.2C53.0,74.9 52.0,77.8 50.8,79.6C49.6,81.3 46.6,84.1 44.1,85.9C41.5,87.6 38.7,89.0 37.9,89.0zM382.1,86.0C381.1,86.0 380.0,85.7 379.7,85.3C379.3,85.0 379.0,82.9 379.0,80.7C379.0,78.6 379.7,75.3 380.6,73.4C381.5,71.5 384.3,68.1 386.9,65.8C389.4,63.6 395.1,59.4 399.5,56.5C403.9,53.6 409.5,50.2 412.0,49.0C415.4,47.3 416.1,47.1 415.1,48.4C414.4,49.3 409.6,52.5 404.6,55.5C399.5,58.5 394.3,62.1 393.1,63.4C391.3,65.3 390.9,66.7 391.2,69.1C391.5,70.8 391.3,74.2 390.8,76.6C390.2,79.5 388.8,81.8 386.8,83.5C385.2,84.9 383.1,86.0 382.1,86.0zM535.3,86.0C534.0,86.0 532.9,85.2 532.5,83.9C532.1,82.8 532.1,80.2 532.5,78.3C532.9,76.3 534.8,73.0 537.1,70.5C539.3,68.1 543.3,64.7 545.9,63.1C548.5,61.4 551.4,60.0 552.3,60.0C553.4,60.0 554.0,60.8 554.0,62.3C554.0,63.6 553.3,66.9 552.5,69.6C551.5,73.0 549.7,75.8 546.8,78.6C544.4,80.9 541.4,83.4 540.0,84.4C538.7,85.3 536.6,86.0 535.3,86.0zM55.2,50.0C53.5,50.0 53.0,49.4 53.0,47.5C53.0,46.1 54.2,44.0 55.8,42.5C57.3,41.1 60.7,38.8 63.4,37.5C66.2,36.1 69.4,35.0 70.7,35.0C72.0,35.0 73.0,35.4 73.0,36.0C73.0,36.5 71.6,38.5 70.0,40.4C68.3,42.3 64.8,45.2 62.1,46.9C59.5,48.6 56.4,50.0 55.2,50.0zM2.7,44.0C2.5,44.0 2.0,43.7 1.7,43.3C1.3,43.0 1.0,41.7 1.0,40.5C1.0,39.3 2.0,37.4 3.2,36.3C4.5,35.1 14.3,28.9 25.0,22.5C35.7,16.0 47.2,9.4 50.5,7.9C53.8,6.3 57.5,5.0 58.8,5.0C60.0,5.0 61.0,5.6 61.0,6.4C61.0,7.2 58.2,9.9 54.8,12.3C51.3,14.8 39.7,22.2 29.0,28.7C18.3,35.3 8.1,41.5 6.3,42.4C4.5,43.3 2.9,44.0 2.7,44.0zM458.3,34.0C457.1,34.0 456.0,33.5 456.0,33.0C456.0,32.4 456.6,30.5 457.4,28.7C458.1,26.9 460.6,23.8 462.8,21.9C465.0,20.0 468.4,17.7 470.4,16.6C472.3,15.6 474.6,15.0 475.4,15.3C476.3,15.7 477.0,16.7 477.0,17.7C477.0,18.6 476.1,21.3 474.9,23.6C473.3,27.1 471.7,28.5 466.8,31.0C463.4,32.6 459.6,34.0 458.3,34.0zM82.3,29.0C79.9,29.0 79.9,28.8 80.5,24.8C80.9,22.4 81.8,19.3 82.6,17.8C83.3,16.4 85.2,14.2 86.6,13.1C88.1,11.9 89.9,11.0 90.6,11.0C91.4,11.0 92.0,12.1 92.0,13.5C92.0,14.9 92.3,16.0 92.7,16.0C93.0,16.0 94.1,15.3 95.1,14.4C96.1,13.5 97.6,13.0 98.5,13.4C99.8,13.9 99.9,14.4 98.7,17.2C97.8,19.3 95.2,22.0 91.1,24.7C87.7,27.1 83.7,29.0 82.3,29.0zM355.2,21.0C354.7,21.0 353.6,20.3 352.9,19.4C351.8,18.1 351.9,17.2 353.5,14.2C354.6,12.2 357.7,9.1 360.5,7.3C363.2,5.5 366.3,4.0 367.2,4.0C368.2,4.0 369.1,4.8 369.1,5.8C369.2,6.7 369.1,8.4 369.0,9.4C368.9,10.5 368.2,12.3 367.4,13.5C366.6,14.7 363.8,16.9 361.1,18.4C358.4,19.8 355.8,21.0 355.2,21.0z" />

</svg>