<?xml version="1.0" encoding="UTF-8" standalone="no"?>
<svg 
  version="1.1" 
  xmlns="http://www.w3.org/2000/svg" 
  xmlns:xlink="http://www.w3.org/1999/xlink" 
  xmlns:svg="http://www.w3.org/2000/svg"
  xmlns:rdf="http://www.w3.org/1999/02/22-rdf-syntax-ns#"
  xmlns:cc="http://creativecommons.org/ns#"
  xmlns:dc="http://purl.org/dc/elements/1.1/"
  viewBox="0 0 768 768"
  width="768"
  height="768"
>
<style>svg {background-color: white; }</style>"
<metadata id="metadata1">
Created by https://svgstud.io and licensed under CC-BY-SA 4.0 license. Please attribute https://svgstud.io
</metadata>
<metadata id="prompt">
riverbed
</metadata>
<metadata id="version">
7
</metadata>
<metadata id="metadata2">
<rdf:RDF>
<cc:Work
    rdf:about="">
    <cc:license
    rdf:resource="http://creativecommons.org/licenses/by-sa/4.0/" />
    <dc:creator>
        <cc:Agent>
            <dc:title>https://svgstud.io</dc:title>
        </cc:Agent>
    </dc:creator>
</cc:Work>
<cc:License
    rdf:about="http://creativecommons.org/licenses/by-sa/4.0/">
    <cc:permits
    rdf:resource="http://creativecommons.org/ns#Reproduction" />
    <cc:permits
    rdf:resource="http://creativecommons.org/ns#Distribution" />
    <cc:requires
    rdf:resource="http://creativecommons.org/ns#Notice" />
    <cc:requires
    rdf:resource="http://creativecommons.org/ns#Attribution" />
    <cc:permits
    rdf:resource="http://creativecommons.org/ns#DerivativeWorks" />
    <cc:requires
    rdf:resource="http://creativecommons.org/ns#ShareAlike" />
</cc:License>
</rdf:RDF>
</metadata>
<metadata id="uid">
63ec41aad2a2056794ef152293170ece876e3779ec5a8757e1404dee66a01453
</metadata>
<path stroke="none" fill="black" fill-rule="evenodd" d="M112.45,767.96C54.39,768.00 54.39,768.00 46.41,762.54C42.02,759.54 35.64,754.55 32.23,751.47C28.81,748.38 23.06,742.17 19.44,737.68C15.82,733.18 10.90,725.45 8.51,720.50C6.12,715.55 3.68,709.12 3.08,706.20C2.49,703.29 2.00,699.09 2.00,696.89C2.00,694.68 2.41,692.11 2.91,691.18C3.70,689.68 5.10,689.56 14.82,690.12C22.85,690.58 28.48,691.56 35.66,693.77C41.07,695.44 48.55,697.05 52.27,697.36C56.00,697.67 62.21,698.87 66.08,700.02C69.96,701.18 73.37,702.81 73.70,703.66C74.03,704.51 73.70,705.57 72.98,706.01C72.26,706.46 69.61,707.16 67.08,707.58C62.50,708.33 62.50,708.33 66.50,709.15C68.70,709.60 77.94,709.70 87.02,709.37C98.15,708.96 105.41,709.15 109.26,709.95C112.91,710.71 117.06,712.58 120.74,715.13C123.91,717.33 128.04,720.23 129.93,721.59C131.82,722.94 133.84,723.88 134.43,723.67C135.02,723.46 135.38,722.14 135.23,720.73C134.95,718.17 134.95,718.17 141.23,720.08C144.68,721.13 148.08,721.99 148.79,721.99C149.80,722.00 149.82,721.54 148.88,719.78C148.23,718.55 145.46,715.19 142.73,712.30C140.00,709.42 133.77,704.32 128.88,700.97C124.00,697.63 120.00,694.46 120.00,693.95C120.00,693.43 120.79,693.00 121.75,693.01C122.71,693.01 126.42,693.49 130.00,694.06C133.57,694.63 138.91,696.20 141.86,697.55C145.16,699.05 150.18,702.87 154.93,707.49C159.17,711.62 162.94,715.00 163.30,715.00C163.66,715.00 163.51,713.85 162.98,712.43C162.44,711.02 162.00,709.79 162.00,709.68C162.00,709.58 163.91,709.50 166.25,709.50C170.07,709.50 170.49,709.26 170.41,707.15C170.33,705.03 170.65,704.84 173.62,705.33C175.43,705.62 180.00,707.69 183.77,709.93C187.53,712.17 191.43,714.00 192.42,714.00C193.93,714.00 194.12,713.45 193.58,710.56C192.93,707.12 192.93,707.12 196.07,708.02C197.80,708.52 201.62,710.74 204.56,712.96C207.51,715.18 210.77,717.00 211.82,717.00C212.87,717.00 214.81,716.15 216.13,715.11C217.46,714.07 220.44,712.65 222.77,711.95C225.58,711.11 227.00,710.11 227.00,708.99C227.00,708.06 225.73,705.54 224.17,703.40C222.62,701.25 218.30,696.71 214.58,693.30C210.87,689.89 202.35,683.23 195.66,678.50C188.97,673.77 180.19,667.05 176.14,663.57C172.09,660.09 165.11,655.06 160.64,652.38C156.16,649.70 141.11,641.80 127.19,634.81C113.26,627.82 99.31,621.35 96.19,620.44C93.06,619.52 86.45,617.95 81.50,616.94C76.55,615.94 63.95,614.19 53.50,613.06C43.05,611.93 27.79,610.34 19.60,609.52C11.40,608.70 4.43,607.76 4.10,607.43C3.77,607.10 3.36,595.29 3.20,581.17C3.03,567.05 3.18,551.79 3.54,547.25C4.11,539.91 4.40,539.00 6.16,539.00C7.25,539.00 11.96,539.94 16.62,541.09C21.28,542.23 28.90,544.66 33.54,546.49C38.19,548.31 44.13,551.33 46.74,553.20C49.36,555.07 52.11,556.97 52.85,557.42C53.94,558.08 53.98,557.84 53.08,556.14C52.46,554.99 49.73,551.11 47.02,547.52C42.25,541.23 42.17,541.00 44.57,541.00C45.94,541.00 51.80,542.54 57.59,544.42C64.77,546.74 70.65,549.48 76.01,553.01C80.35,555.85 84.35,557.90 84.91,557.56C85.59,557.14 85.59,556.06 84.93,554.33C84.39,552.89 84.16,551.51 84.42,551.24C84.69,550.98 87.81,552.13 91.37,553.79C94.93,555.46 98.08,556.59 98.36,556.31C98.64,556.03 98.43,554.64 97.90,553.23C97.36,551.81 95.43,548.60 93.62,546.08C91.80,543.56 89.96,540.89 89.53,540.14C88.90,539.04 89.58,538.92 93.12,539.49C95.53,539.88 99.30,540.98 101.50,541.93C103.70,542.89 108.42,546.15 112.00,549.17C115.58,552.20 119.55,555.24 120.84,555.92C122.12,556.60 123.45,556.88 123.79,556.54C124.13,556.20 123.58,554.38 122.56,552.49C121.55,550.60 117.97,546.36 114.61,543.05C111.25,539.75 106.70,535.73 104.50,534.13C102.30,532.52 95.10,528.06 88.50,524.21C81.90,520.36 70.65,514.71 63.50,511.65C56.35,508.60 46.45,504.94 41.50,503.51C36.55,502.08 26.88,499.79 20.00,498.41C13.12,497.04 6.71,495.68 5.75,495.39C4.27,494.95 4.00,493.61 4.00,486.78C4.00,478.69 4.00,478.69 20.25,479.31C29.19,479.65 43.47,480.64 52.00,481.51C60.53,482.38 69.85,483.50 72.72,484.00C75.60,484.51 80.21,485.90 82.97,487.08C85.74,488.27 88.00,489.61 88.00,490.06C88.00,490.51 85.86,491.19 83.25,491.56C80.64,491.94 76.94,492.88 75.03,493.66C71.56,495.08 71.56,495.08 77.64,498.46C80.99,500.31 85.37,502.28 87.37,502.84C89.80,503.51 92.20,503.51 94.66,502.83C96.67,502.27 100.27,502.11 102.66,502.47C106.32,503.02 107.00,502.86 107.00,501.43C107.00,500.04 107.65,499.85 110.75,500.37C112.81,500.72 115.51,501.28 116.75,501.62C117.99,501.96 119.00,501.81 119.00,501.30C119.00,500.78 115.84,496.61 111.97,492.04C108.11,487.46 105.14,483.52 105.39,483.28C105.63,483.04 108.55,483.54 111.89,484.39C115.22,485.25 120.55,487.28 123.72,488.92C126.90,490.55 132.20,493.71 135.50,495.94C138.80,498.17 142.52,500.00 143.77,500.00C145.69,500.00 145.94,499.62 145.41,497.50C144.97,495.75 145.19,495.00 146.14,495.00C146.89,495.00 150.76,496.43 154.74,498.17C158.72,499.92 162.25,501.09 162.57,500.76C162.90,500.44 162.61,499.13 161.93,497.86C161.25,496.59 158.40,493.12 155.60,490.15C152.79,487.18 147.27,482.56 143.33,479.90C139.39,477.23 132.61,473.31 128.28,471.19C123.94,469.07 117.89,465.31 114.84,462.82C111.79,460.34 105.07,455.68 99.90,452.48C94.73,449.28 86.90,445.20 82.50,443.43C78.10,441.65 70.22,439.05 65.00,437.64C59.77,436.24 51.45,434.41 46.50,433.58C41.55,432.76 30.11,431.39 21.09,430.54C12.06,429.70 4.52,428.85 4.32,428.66C4.13,428.47 3.87,419.51 3.74,408.74C3.61,397.98 3.77,388.91 4.09,388.58C4.42,388.25 9.08,388.89 14.45,389.99C19.82,391.10 24.42,392.00 24.67,392.00C24.92,392.00 24.84,392.45 24.50,393.00C24.16,393.55 23.04,394.00 22.01,394.00C20.98,394.00 19.41,394.74 18.51,395.64C17.61,396.54 17.24,397.64 17.69,398.09C18.15,398.55 21.21,399.61 24.51,400.45C27.80,401.30 37.02,402.89 44.98,404.00C52.94,405.11 63.73,407.17 68.95,408.60C74.16,410.02 80.02,411.99 81.97,412.99C83.91,413.98 87.59,416.64 90.15,418.90C92.71,421.15 95.08,423.00 95.40,423.00C95.73,423.00 96.00,422.43 96.00,421.74C96.00,421.04 94.43,418.14 92.51,415.29C90.59,412.44 86.88,408.62 84.26,406.81C81.58,404.95 73.59,401.48 66.00,398.89C57.38,395.94 52.50,393.77 52.50,392.89C52.50,391.78 54.90,391.51 64.50,391.57C74.83,391.64 77.62,392.03 84.50,394.37C88.90,395.88 97.67,400.18 104.00,403.94C110.33,407.70 118.30,411.95 121.72,413.39C125.14,414.83 128.18,416.00 128.47,416.00C128.76,416.00 128.99,415.44 128.99,414.75C128.98,414.06 125.34,409.30 120.90,404.17C116.46,399.03 112.98,394.69 113.17,394.51C113.35,394.33 117.06,394.81 121.42,395.57C125.77,396.33 131.77,397.66 134.75,398.53C137.73,399.40 142.72,401.43 145.84,403.05C148.95,404.67 152.92,406.27 154.66,406.60C157.20,407.09 157.89,406.85 158.24,405.36C158.59,403.85 159.90,404.74 165.22,410.09C168.83,413.71 172.53,418.13 173.45,419.91C174.84,422.59 174.90,423.41 173.83,424.71C173.11,425.57 170.50,427.21 168.01,428.35C163.50,430.42 163.50,430.42 168.77,430.96C174.04,431.50 174.04,431.50 169.16,434.23C166.48,435.73 161.40,437.64 157.89,438.46C154.38,439.29 149.14,439.98 146.25,439.99C143.36,439.99 141.00,440.43 141.00,440.95C141.00,441.47 141.79,442.36 142.75,442.92C144.25,443.79 144.11,443.94 141.77,443.97C140.27,443.99 136.07,442.88 132.44,441.51C128.81,440.15 122.16,438.25 117.67,437.31C112.26,436.17 104.76,435.57 95.50,435.54C87.80,435.52 80.26,435.85 78.75,436.27C77.24,436.69 76.00,437.39 76.00,437.81C76.00,438.24 79.94,439.86 84.75,441.42C89.56,442.98 95.30,445.16 97.50,446.27C99.70,447.38 104.10,450.04 107.27,452.19C110.45,454.34 115.18,457.18 117.78,458.48C120.39,459.79 126.57,462.33 131.51,464.11C137.62,466.32 143.97,469.73 151.33,474.73C157.28,478.78 164.37,482.96 167.08,484.03C169.78,485.10 174.59,487.28 177.76,488.88C180.94,490.48 185.61,494.02 188.16,496.74C190.70,499.46 193.54,503.15 194.47,504.93C196.02,507.95 196.03,508.31 194.50,510.00C193.60,511.00 190.61,512.78 187.86,513.97C185.11,515.15 176.23,517.63 168.12,519.47C160.02,521.32 146.90,523.78 138.97,524.93C131.05,526.09 124.15,527.45 123.65,527.95C123.11,528.49 124.50,529.31 127.12,529.98C129.53,530.61 134.65,531.96 138.50,532.99C142.35,534.02 148.57,536.24 152.33,537.92C156.08,539.61 161.03,542.29 163.33,543.89C166.47,546.07 171.06,547.58 182.00,550.03C189.97,551.81 201.64,555.03 207.92,557.19C214.20,559.36 220.59,561.77 222.12,562.56C223.65,563.35 225.65,564.00 226.56,564.00C227.81,564.00 228.07,563.41 227.61,561.59C227.28,560.27 226.73,558.47 226.40,557.59C225.92,556.36 226.45,556.00 228.74,556.00C230.37,556.00 233.14,556.50 234.90,557.12C236.66,557.73 238.38,557.95 238.72,557.61C239.06,557.28 238.85,555.40 238.25,553.46C237.29,550.33 237.36,549.97 238.83,550.40C239.75,550.66 245.67,551.40 251.99,552.05C258.31,552.69 266.64,554.02 270.49,555.00C274.35,555.99 277.69,556.62 277.91,556.40C278.14,556.19 277.70,554.77 276.94,553.25C276.19,551.74 275.40,550.16 275.20,549.75C275.00,549.34 276.02,549.00 277.47,549.00C278.93,549.00 283.96,550.59 288.66,552.54C293.36,554.49 300.11,556.75 303.65,557.57C307.19,558.39 310.56,558.77 311.14,558.42C311.75,558.03 310.39,555.91 307.84,553.26C303.50,548.75 303.50,548.75 310.72,549.38C314.70,549.73 320.23,550.91 323.01,552.00C325.80,553.10 328.52,554.00 329.06,554.00C329.60,554.00 329.26,552.80 328.30,551.33C327.34,549.87 323.97,546.99 320.80,544.95C317.64,542.91 312.01,540.46 308.28,539.51C304.55,538.56 298.57,536.87 295.00,535.75C291.43,534.63 285.36,532.15 281.53,530.24C277.70,528.32 271.72,524.96 268.24,522.76C264.76,520.56 262.09,518.26 262.31,517.63C262.52,517.01 263.56,516.56 264.60,516.64C265.65,516.71 270.10,517.31 274.50,517.97C279.87,518.77 285.29,520.47 291.00,523.16C295.68,525.35 304.13,528.90 309.80,531.04C315.46,533.18 322.89,536.40 326.30,538.18C329.82,540.03 335.31,544.26 339.00,548.00C342.57,551.61 346.47,556.52 347.66,558.92C348.85,561.32 349.64,563.78 349.40,564.40C349.17,565.01 346.73,567.04 343.99,568.91C341.24,570.78 339.00,572.67 339.00,573.10C339.00,573.53 342.05,573.63 345.77,573.32C352.10,572.79 352.76,572.93 355.79,575.48C357.59,576.99 359.69,577.95 360.51,577.63C361.33,577.32 362.00,576.60 362.00,576.03C362.00,575.46 363.01,575.02 364.25,575.04C365.49,575.05 367.62,575.71 369.00,576.50C370.38,577.29 372.04,577.95 372.71,577.96C373.60,577.99 373.54,576.95 372.45,573.87C371.00,569.74 371.00,569.74 375.00,570.38C378.06,570.87 379.00,570.70 379.00,569.63C379.00,568.87 375.58,564.33 371.40,559.55C367.22,554.77 364.03,550.63 364.31,550.36C364.59,550.08 367.44,551.09 370.66,552.59C374.55,554.42 379.01,557.86 384.02,562.92C388.42,567.35 392.68,572.79 394.27,576.01C395.77,579.05 397.00,583.13 397.00,585.09C397.00,587.51 396.28,589.32 394.75,590.72C393.51,591.85 390.02,594.00 387.00,595.50C383.98,597.00 380.15,599.23 378.50,600.47C376.85,601.70 373.48,603.76 371.00,605.04C368.52,606.32 360.22,608.80 352.54,610.54C339.00,613.61 338.55,613.80 337.82,616.60C337.32,618.53 335.62,620.36 332.78,622.07C330.43,623.48 325.35,625.84 321.50,627.31C317.65,628.77 312.06,630.69 309.08,631.58C306.10,632.46 302.64,633.85 301.39,634.66C300.15,635.48 295.77,636.40 291.65,636.71C287.54,637.02 283.62,637.61 282.95,638.03C282.06,638.58 282.42,639.69 284.27,642.14C285.67,643.99 287.53,647.96 288.41,650.96C289.29,653.96 290.30,661.45 290.65,667.60C291.24,677.86 291.12,679.02 289.24,681.67C288.11,683.26 284.16,686.32 280.47,688.48C274.39,692.03 273.95,692.50 275.88,693.36C277.04,693.88 278.00,694.88 278.00,695.58C278.00,696.28 277.23,697.63 276.29,698.57C275.35,699.51 273.21,700.84 271.54,701.53C269.87,702.22 265.80,703.30 262.50,703.93C259.20,704.56 255.43,705.31 254.13,705.59C251.90,706.07 251.87,706.18 253.56,707.42C255.27,708.67 255.24,708.80 253.09,709.95C251.85,710.62 248.35,711.42 245.32,711.73C240.05,712.27 239.84,712.41 240.28,714.90C240.54,716.33 241.59,720.54 242.61,724.26C244.00,729.30 244.20,731.47 243.39,732.76C242.80,733.72 238.53,735.93 233.91,737.68C229.28,739.43 224.62,741.10 223.54,741.39C222.47,741.68 221.80,742.14 222.07,742.40C222.33,742.67 226.14,742.52 230.52,742.08C234.91,741.65 238.86,741.49 239.30,741.73C239.74,741.98 239.52,742.87 238.81,743.73C238.11,744.58 235.72,746.05 233.51,746.99C231.31,747.94 226.57,749.44 223.00,750.33C219.43,751.22 213.17,752.42 209.11,752.99C205.04,753.57 200.09,754.91 198.11,755.98C196.12,757.05 192.61,758.40 190.29,758.99C187.98,759.57 185.82,760.48 185.50,761.00C185.18,761.52 185.95,762.18 187.21,762.47C188.47,762.76 192.88,763.11 197.00,763.25C204.50,763.50 204.50,763.50 200.00,764.86C197.53,765.60 189.88,766.60 183.00,767.07C176.12,767.54 144.38,767.94 112.45,767.96zM98.75,737.98C103.01,737.98 107.09,737.59 107.82,737.13C108.63,736.62 106.55,736.06 102.32,735.67C98.57,735.33 94.49,735.31 93.25,735.64C92.01,735.97 91.00,736.63 91.00,737.12C91.00,737.60 94.49,737.99 98.75,737.98zM690.00,699.90C683.67,699.86 676.45,699.26 673.95,698.57C671.45,697.87 668.22,696.54 666.79,695.59C665.35,694.65 663.93,693.25 663.63,692.48C663.33,691.69 664.23,690.18 665.68,689.04C667.10,687.92 669.67,687.01 671.38,687.01C673.10,687.02 675.54,687.30 676.80,687.64C679.10,688.26 679.10,688.26 676.90,690.60C674.96,692.67 674.89,693.02 676.34,693.58C677.24,693.92 679.44,693.67 681.24,693.01C683.03,692.36 685.71,691.45 687.18,691.00C689.14,690.40 690.99,690.74 694.07,692.26C697.88,694.15 698.81,694.23 704.03,693.16C708.78,692.17 710.79,692.23 715.60,693.48C718.80,694.32 722.23,695.00 723.21,695.00C724.19,695.00 725.00,695.41 725.00,695.92C725.00,696.43 723.76,697.10 722.25,697.41C720.74,697.73 715.45,698.43 710.50,698.98C705.55,699.53 696.33,699.95 690.00,699.90zM735.83,691.35C735.10,691.53 733.15,691.52 731.50,691.31C729.85,691.10 724.00,690.07 718.50,689.02C713.00,687.97 704.67,686.60 700.00,685.98C695.33,685.36 689.25,684.05 686.50,683.07C683.75,682.10 677.56,679.87 672.74,678.12C667.92,676.37 661.95,673.71 659.49,672.22C655.95,670.09 655.00,668.94 655.00,666.82C655.00,665.33 655.47,663.83 656.04,663.47C656.62,663.12 657.63,663.28 658.29,663.82C658.96,664.37 661.25,665.15 663.38,665.55C666.42,666.11 667.16,665.98 666.81,664.92C666.56,664.17 664.49,663.10 662.21,662.53C659.93,661.96 657.45,660.64 656.68,659.59C655.92,658.54 652.87,656.87 649.90,655.87C644.50,654.05 644.50,654.05 649.50,654.47C653.98,654.85 654.13,654.80 651.00,654.00C649.08,653.50 643.58,652.59 638.80,651.95C630.96,650.92 629.32,650.31 622.41,645.82C614.74,640.83 614.74,640.83 615.25,634.42C615.77,628.01 615.77,628.01 612.13,627.09C610.14,626.57 605.12,625.39 601.00,624.46C596.88,623.53 592.15,622.41 590.50,621.97C588.53,621.45 591.73,621.15 599.81,621.09C607.02,621.04 611.88,620.62 611.55,620.08C611.24,619.57 606.60,618.18 601.24,616.99C595.88,615.79 588.12,613.86 584.00,612.70C579.88,611.54 576.05,610.05 575.50,609.38C574.95,608.72 571.06,606.77 566.86,605.04C562.66,603.32 558.44,601.04 557.48,599.97C556.04,598.39 555.82,596.78 556.23,591.00C556.51,587.12 556.45,583.78 556.11,583.57C555.76,583.35 550.08,582.44 543.49,581.53C536.90,580.63 530.43,579.63 529.13,579.31C527.57,578.92 526.12,577.27 524.87,574.43C523.36,571.04 522.20,569.89 519.24,568.93C517.18,568.27 512.49,566.39 508.80,564.75C505.12,563.12 501.97,561.06 501.80,560.18C501.57,559.01 499.40,558.26 493.73,557.38C489.47,556.72 484.30,555.31 482.24,554.25C480.18,553.18 477.66,550.87 476.63,549.11C475.60,547.35 474.97,545.69 475.23,545.43C475.49,545.17 478.58,545.62 482.10,546.42C485.62,547.22 492.21,548.18 496.75,548.57C502.38,549.04 505.00,548.92 505.00,548.19C505.00,547.60 504.62,546.88 504.16,546.60C503.69,546.31 498.86,545.11 493.41,543.94C487.96,542.76 481.98,541.17 480.11,540.39C476.76,539.00 476.73,538.94 477.32,533.92C477.65,531.14 478.84,527.38 479.96,525.56C481.08,523.75 482.00,521.75 482.00,521.13C482.00,520.51 480.90,520.00 479.55,520.00C478.20,520.00 474.80,519.51 471.98,518.90C469.17,518.30 467.13,517.53 467.46,517.20C467.79,516.87 470.19,516.70 472.78,516.82C476.24,516.98 477.07,516.78 475.90,516.05C475.01,515.51 470.96,514.57 466.90,513.96C462.76,513.35 458.30,512.01 456.79,510.93C454.79,509.50 452.40,509.00 447.65,509.00C444.11,509.00 437.58,508.31 433.14,507.47C428.69,506.62 422.91,504.83 420.28,503.49C417.54,502.08 411.47,500.40 406.07,499.54C397.80,498.22 396.21,497.63 393.22,494.77C391.34,492.97 389.41,490.49 388.93,489.25C388.33,487.71 387.17,486.97 385.27,486.90C382.56,486.80 382.55,486.79 384.92,486.12C386.85,485.58 385.84,485.10 379.92,483.71C375.84,482.76 370.83,481.98 368.78,481.99C366.74,481.99 359.99,481.32 353.78,480.48C347.58,479.65 339.80,478.02 336.50,476.86C333.20,475.71 329.71,474.07 328.75,473.23C327.79,472.38 327.00,470.82 327.00,469.77C327.00,468.20 327.52,467.94 329.75,468.38C331.26,468.67 335.88,469.37 340.00,469.93C344.12,470.48 350.50,471.06 354.17,471.21C357.84,471.36 361.18,471.15 361.59,470.74C362.00,470.33 361.70,470.00 360.92,470.00C360.14,470.00 352.07,468.90 342.99,467.56C333.92,466.22 325.70,464.82 324.74,464.46C323.78,464.09 323.00,462.98 323.00,462.00C323.00,461.02 323.67,459.95 324.50,459.64C325.32,459.32 326.00,458.37 326.00,457.53C326.00,456.24 324.12,456.00 314.25,455.98C307.79,455.96 300.85,455.57 298.83,455.10C296.81,454.63 293.09,452.86 290.58,451.16C287.38,449.00 286.00,448.50 286.00,449.50C286.00,450.29 285.18,451.37 284.17,451.91C283.17,452.44 275.41,453.02 266.92,453.19C253.65,453.46 251.05,453.25 248.25,451.72C246.42,450.73 245.00,449.15 245.00,448.13C245.00,447.13 245.82,445.57 246.83,444.65C247.83,443.74 249.49,443.00 250.52,443.00C251.54,443.00 255.03,443.55 258.28,444.22C263.46,445.29 264.54,445.23 267.17,443.72C269.30,442.50 272.42,442.00 277.98,442.00C282.28,442.00 290.92,442.88 297.18,443.95C303.44,445.01 313.64,446.42 319.85,447.07C328.47,447.98 331.42,447.98 332.31,447.09C333.21,446.19 333.16,445.72 332.12,445.07C331.37,444.61 328.00,443.93 324.63,443.56C321.26,443.20 309.27,441.33 298.00,439.42C286.73,437.51 273.90,435.25 269.50,434.41C265.10,433.56 260.04,432.42 258.25,431.86C255.62,431.04 255.00,430.32 255.00,428.09C255.00,426.58 256.32,423.34 257.94,420.90C259.56,418.45 262.07,415.35 263.51,413.99C266.13,411.53 266.13,411.53 265.06,414.35C264.47,415.90 264.24,417.58 264.55,418.08C264.86,418.59 265.82,419.00 266.67,419.00C267.53,419.00 271.67,415.66 275.86,411.57C280.06,407.48 284.80,403.65 286.39,403.04C287.98,402.44 289.47,402.14 289.71,402.38C289.95,402.62 288.83,404.64 287.21,406.87C285.60,409.10 283.70,412.30 283.00,413.99C282.30,415.68 281.97,417.31 282.27,417.60C282.56,417.90 284.99,416.57 287.65,414.66C290.32,412.75 299.48,407.58 308.00,403.17C316.52,398.77 326.37,394.20 329.88,393.03C333.39,391.85 337.66,391.03 339.38,391.20C342.14,391.46 340.87,392.37 328.52,399.00C317.25,405.05 313.18,407.86 307.49,413.50C303.61,417.35 299.44,422.52 298.22,425.00C296.80,427.87 296.40,429.63 297.10,429.87C297.70,430.07 299.48,429.28 301.06,428.12C302.63,426.95 304.57,426.00 305.36,426.00C306.15,426.00 309.21,424.88 312.15,423.51C315.19,422.10 319.34,421.02 321.75,421.01C324.10,421.00 326.00,421.48 326.00,422.07C326.00,422.65 325.50,424.06 324.89,425.20C323.94,426.98 324.26,426.90 327.29,424.59C330.23,422.35 332.16,421.82 339.25,421.32C345.25,420.90 347.92,421.07 348.44,421.90C348.86,422.58 347.72,424.87 345.74,427.29C343.85,429.61 341.75,432.55 341.07,433.84C340.39,435.12 340.13,436.46 340.48,436.82C340.84,437.17 342.56,436.61 344.31,435.57C346.07,434.53 349.07,432.86 351.00,431.85C352.93,430.84 357.20,428.94 360.50,427.61C363.80,426.29 371.43,423.12 377.46,420.56C383.48,418.01 388.62,415.72 388.87,415.46C389.13,415.21 389.13,414.80 388.88,414.55C388.64,414.30 378.77,413.38 366.97,412.50C355.16,411.63 343.70,410.58 341.50,410.17C339.16,409.74 337.50,408.87 337.50,408.08C337.50,407.33 338.18,406.37 339.00,405.95C339.82,405.53 346.35,403.34 353.50,401.08C360.65,398.83 370.50,396.31 375.38,395.49C380.27,394.67 386.36,394.00 388.92,394.00C391.53,394.00 395.10,393.19 397.04,392.15C398.94,391.14 402.52,389.15 405.00,387.72C407.48,386.30 414.68,383.57 421.00,381.64C427.32,379.72 436.70,376.84 441.84,375.24C446.97,373.64 451.47,371.88 451.84,371.32C452.20,370.76 453.80,369.99 455.38,369.60C456.97,369.21 463.60,368.52 470.11,368.07C480.79,367.33 482.70,366.89 489.72,363.55C494.00,361.52 499.64,359.60 502.25,359.29C505.35,358.92 507.00,359.10 507.00,359.81C507.00,360.41 505.54,362.01 503.75,363.37C501.96,364.72 496.23,367.49 491.00,369.51C485.77,371.53 476.57,374.96 470.55,377.14C464.52,379.32 456.63,382.66 453.02,384.56C449.39,386.46 443.37,391.00 439.60,394.66C434.55,399.56 431.90,403.16 429.47,408.40C427.66,412.31 425.90,417.14 425.56,419.15C424.95,422.80 424.95,422.80 430.10,423.51C432.93,423.90 439.92,423.90 445.62,423.51C451.33,423.13 456.00,422.46 456.00,422.03C456.00,421.60 452.61,420.74 448.46,420.12C444.31,419.50 440.04,419.00 438.96,419.00C437.88,419.00 437.00,418.61 437.00,418.14C437.00,417.67 440.94,415.66 445.75,413.67C450.56,411.68 457.16,409.14 460.41,408.02C463.66,406.91 467.20,406.00 468.28,406.00C469.94,406.00 470.15,406.48 469.65,409.00C469.30,410.74 469.47,412.00 470.06,412.00C470.61,412.00 473.63,410.92 476.78,409.61C479.93,408.29 485.50,406.29 489.16,405.16C492.83,404.04 498.56,402.81 501.91,402.43C505.27,402.05 508.00,402.14 508.00,402.62C507.99,403.10 505.40,406.49 502.24,410.15C499.08,413.80 495.03,419.72 493.24,423.31C491.46,426.90 490.00,430.32 490.00,430.91C490.00,431.51 490.70,432.00 491.57,432.00C492.43,432.00 494.11,431.48 495.32,430.85C496.52,430.22 498.85,428.57 500.50,427.20C502.15,425.82 505.75,423.64 508.50,422.35C511.25,421.07 514.34,420.02 515.37,420.01C516.93,420.00 516.64,420.73 513.62,424.42C511.63,426.85 510.00,429.10 510.00,429.42C510.00,429.74 510.71,430.00 511.58,430.00C512.44,430.00 517.73,428.22 523.33,426.04C528.92,423.87 539.58,420.29 547.00,418.08C554.42,415.88 565.62,412.28 571.88,410.08C578.14,407.88 583.46,405.87 583.71,405.62C583.97,405.37 583.31,404.70 582.27,404.14C581.22,403.58 576.79,401.70 572.43,399.96C568.07,398.22 558.29,394.79 550.70,392.34C543.10,389.89 532.98,387.05 528.20,386.02C523.41,384.99 513.54,383.38 506.25,382.43C498.96,381.48 493.00,380.38 493.00,379.97C493.00,379.57 496.71,378.08 501.25,376.66C505.79,375.25 512.20,373.62 515.50,373.04C518.80,372.46 528.82,371.08 537.77,369.99C546.72,368.90 555.60,368.00 557.52,368.00C559.43,368.00 561.00,368.36 561.00,368.80C561.00,369.25 559.42,371.13 557.50,373.00C555.58,374.87 554.00,377.04 554.00,377.83C554.00,379.01 555.42,379.14 562.25,378.54C566.79,378.15 572.98,376.91 576.00,375.79C579.02,374.67 584.20,373.15 587.50,372.40C590.80,371.65 594.08,371.24 594.79,371.50C595.75,371.85 595.82,372.47 595.04,373.92C594.47,375.00 594.36,376.10 594.80,376.37C595.24,376.65 599.06,376.17 603.29,375.32C607.52,374.47 612.45,374.06 614.24,374.40C616.03,374.75 618.17,375.45 618.99,375.97C620.18,376.72 620.23,377.17 619.24,378.16C618.56,378.84 618.00,379.76 618.00,380.20C618.00,380.64 618.63,381.00 619.39,381.00C620.16,381.00 625.22,379.23 630.64,377.07C636.42,374.77 643.74,372.69 648.32,372.07C652.62,371.48 657.49,371.00 659.13,371.00C660.84,371.00 661.86,371.42 661.51,371.98C661.17,372.53 657.66,374.86 653.70,377.17C649.74,379.48 644.56,382.91 642.20,384.79C639.83,386.68 638.10,388.43 638.35,388.68C638.61,388.94 642.46,387.99 646.92,386.58C651.38,385.18 657.61,383.61 660.77,383.11C663.92,382.61 666.68,382.37 666.89,382.58C667.11,382.78 666.75,383.60 666.09,384.39C665.26,385.39 665.23,386.02 665.97,386.48C666.56,386.85 669.17,387.07 671.77,386.98C674.37,386.90 677.54,386.86 678.82,386.91C680.74,386.98 681.02,387.38 680.44,389.20C679.74,391.40 679.74,391.40 682.62,389.48C684.20,388.43 689.10,385.38 693.50,382.70C697.90,380.03 701.40,377.46 701.27,376.99C701.15,376.51 703.62,375.19 706.77,374.04C709.92,372.89 714.22,371.21 716.32,370.29C718.43,369.38 720.68,367.86 721.34,366.93C721.99,365.99 724.32,364.73 726.52,364.12C728.71,363.52 737.81,362.72 746.75,362.36C763.00,361.69 763.00,361.69 762.98,383.59C762.98,396.01 762.55,406.15 762.00,407.00C761.40,407.92 761.02,408.04 761.02,407.30C761.01,406.64 759.31,405.61 757.25,405.03C755.19,404.44 744.73,403.48 734.00,402.89C723.27,402.31 709.77,402.11 704.00,402.47C698.23,402.82 690.61,403.55 687.08,404.10C683.55,404.65 677.93,406.00 674.58,407.12C671.24,408.23 663.87,411.34 658.21,414.03C652.56,416.71 645.13,421.05 641.71,423.66C638.30,426.27 632.63,430.59 629.13,433.26C625.63,435.92 617.08,440.91 610.13,444.34C603.18,447.77 591.25,454.51 583.62,459.32C575.98,464.13 567.92,469.63 565.70,471.53C563.48,473.43 560.13,477.12 558.25,479.74C556.37,482.36 553.75,486.62 552.42,489.22C551.09,491.81 550.00,495.07 550.00,496.47C550.00,497.86 550.27,499.00 550.60,499.00C550.92,499.00 552.39,498.18 553.85,497.18C555.31,496.18 558.46,494.80 560.84,494.11C564.26,493.13 567.85,490.30 577.57,480.93C585.08,473.70 590.75,469.00 591.98,469.00C593.11,469.00 594.00,469.66 594.00,470.50C594.00,471.32 594.65,472.00 595.43,472.00C596.22,472.00 598.12,471.52 599.66,470.94C601.89,470.09 602.67,470.19 603.58,471.44C604.21,472.30 605.45,473.00 606.34,473.00C607.23,473.00 613.03,470.36 619.23,467.12C625.43,463.89 633.42,460.21 637.00,458.94C640.58,457.66 644.40,456.07 645.50,455.39C646.60,454.70 652.23,452.23 658.00,449.90C668.50,445.65 668.50,445.65 683.71,445.62C692.08,445.60 699.24,445.91 699.63,446.30C700.02,446.69 699.46,448.02 698.37,449.25C697.29,450.49 695.75,452.36 694.95,453.41C693.56,455.25 693.68,455.30 697.88,454.63C700.28,454.25 707.48,451.53 713.88,448.58C720.27,445.64 726.96,442.91 728.75,442.53C730.54,442.15 732.00,441.46 732.00,440.99C732.00,440.52 728.51,439.40 724.25,438.49C719.99,437.59 713.80,436.07 710.50,435.12C704.50,433.39 704.50,433.39 711.50,431.76C715.35,430.86 725.23,429.85 733.46,429.52C741.69,429.19 748.66,428.67 748.96,428.37C749.26,428.07 748.48,427.00 747.23,425.99C745.99,424.98 741.94,423.14 738.23,421.90C731.68,419.72 731.58,419.63 734.50,418.77C736.15,418.28 742.45,417.63 748.50,417.31C754.55,417.00 760.02,416.33 760.66,415.82C761.38,415.26 762.06,415.29 762.44,415.90C762.78,416.45 763.05,438.38 763.03,464.62C763.01,490.86 762.79,512.54 762.53,512.80C762.27,513.06 751.36,512.74 738.28,512.08C725.20,511.43 706.40,510.63 696.50,510.31C681.78,509.84 677.36,510.03 672.22,511.35C668.77,512.24 663.54,514.51 660.60,516.39C657.66,518.27 647.66,523.65 638.38,528.34C629.09,533.03 616.74,540.01 610.93,543.85C605.12,547.69 597.37,553.72 593.72,557.25C588.92,561.89 586.11,565.69 583.58,570.98C581.65,575.01 580.31,578.70 580.61,579.18C580.91,579.66 582.56,578.86 584.29,577.41C586.02,575.95 587.58,575.25 587.78,575.85C587.99,576.46 589.34,576.68 590.95,576.36C592.52,576.05 594.06,576.28 594.44,576.90C594.81,577.50 596.59,578.00 598.38,578.00C600.18,578.00 603.70,577.30 606.20,576.45C608.90,575.53 613.16,575.02 616.63,575.20C622.04,575.48 622.53,575.70 622.99,578.10C623.50,580.70 623.56,580.67 635.65,572.60C642.33,568.15 650.66,562.06 654.15,559.08C657.64,556.10 662.98,552.53 666.00,551.14C670.11,549.25 673.66,548.50 680.05,548.19C684.75,547.96 689.45,547.94 690.50,548.14C691.88,548.41 689.91,550.22 683.24,554.78C678.20,558.23 671.70,563.33 668.79,566.11C665.88,568.89 664.40,570.83 665.50,570.43C666.60,570.02 671.64,568.21 676.70,566.39C681.76,564.58 691.66,561.95 698.70,560.56C705.74,559.16 715.55,557.56 720.50,557.01C725.45,556.47 737.06,556.01 746.29,556.01C763.08,556.00 763.08,556.00 762.79,564.64C762.50,573.27 762.50,573.27 752.50,573.11C747.00,573.03 735.98,573.40 728.00,573.94C720.02,574.48 708.55,575.40 702.50,575.98C696.45,576.57 687.23,577.76 682.00,578.63C676.77,579.50 669.68,581.35 666.23,582.73C662.77,584.10 657.15,587.04 653.73,589.24C650.30,591.45 644.58,596.31 641.00,600.03C637.42,603.76 632.99,609.32 631.14,612.39C629.29,615.46 627.19,619.66 626.48,621.73C625.76,623.81 625.35,625.67 625.55,625.88C625.76,626.09 630.33,621.77 635.71,616.29C641.46,610.43 646.84,605.86 648.75,605.21C651.60,604.24 652.00,604.32 652.00,605.85C652.00,606.81 650.45,610.05 648.55,613.05C645.88,617.26 645.44,618.57 646.58,618.83C647.40,619.01 650.92,617.82 654.40,616.19C659.42,613.84 660.72,613.55 660.62,614.77C660.55,615.64 661.65,616.63 663.13,617.04C664.57,617.43 669.75,617.14 674.63,616.38C679.51,615.62 684.45,614.78 685.62,614.52C686.78,614.25 689.94,612.51 692.64,610.65C695.34,608.80 698.55,606.96 699.77,606.57C701.40,606.06 702.00,606.27 702.00,607.37C702.00,608.19 701.57,610.01 701.04,611.40C700.44,612.98 700.43,614.15 701.02,614.51C701.54,614.83 702.98,614.55 704.23,613.88C705.48,613.22 711.45,609.20 717.50,604.94C723.55,600.69 732.33,595.30 737.00,592.96C741.67,590.63 749.25,587.49 753.84,586.01C761.14,583.64 762.25,583.50 762.78,584.87C763.11,585.73 763.41,591.85 763.44,598.47C763.50,610.50 763.50,610.50 752.87,611.21C746.40,611.64 740.25,612.67 737.17,613.84C734.39,614.90 729.27,617.38 725.81,619.35C722.34,621.32 716.50,625.54 712.83,628.72C709.16,631.90 700.73,639.39 694.08,645.37C687.44,651.35 682.00,656.68 682.00,657.23C682.00,657.78 683.08,657.94 684.44,657.60C685.78,657.27 687.16,657.44 687.50,658.00C687.84,658.55 689.24,659.00 690.61,659.00C692.39,659.00 693.58,658.09 694.80,655.79C695.73,654.02 698.98,649.91 702.00,646.64C705.02,643.37 709.50,639.42 711.95,637.85C714.39,636.28 717.35,635.00 718.53,635.00C720.09,635.00 720.64,635.59 720.58,637.25C720.51,639.09 720.95,639.44 723.00,639.15C724.38,638.95 726.80,638.12 728.38,637.30C729.97,636.48 734.24,635.39 737.88,634.87C741.86,634.31 745.75,633.05 747.63,631.72C749.35,630.50 753.11,627.59 755.97,625.25C758.84,622.91 761.56,621.00 762.03,621.00C762.50,621.00 763.18,623.01 763.55,625.47C763.92,627.93 764.04,636.60 763.82,644.72C763.45,658.47 763.22,659.95 760.52,665.88C758.92,669.39 755.71,674.71 753.38,677.71C751.05,680.71 746.78,684.92 743.89,687.08C741.00,689.24 738.31,691.00 737.90,691.00C737.50,691.00 736.56,691.16 735.83,691.35zM5.25,687.05C3.00,687.96 3.00,687.96 3.02,673.23C3.02,665.13 3.43,657.87 3.91,657.11C4.58,656.05 6.07,655.88 10.15,656.41C13.09,656.80 24.27,659.11 35.00,661.56C45.73,664.01 57.34,666.96 60.82,668.11C64.30,669.27 67.39,670.86 67.70,671.65C68.00,672.44 68.07,673.27 67.84,673.49C67.62,673.71 64.31,674.38 60.47,674.98C56.64,675.59 46.30,677.65 37.50,679.56C28.70,681.48 18.35,683.74 14.50,684.59C10.65,685.44 6.49,686.55 5.25,687.05zM425.14,681.85C420.39,681.77 415.15,681.52 413.50,681.30C411.85,681.08 406.33,679.54 401.24,677.87C395.51,675.99 391.60,674.12 390.99,672.98C390.45,671.96 390.00,670.20 390.00,669.07C390.00,667.18 389.41,667.00 383.13,667.00C379.35,667.00 372.29,666.31 367.44,665.46C362.58,664.61 356.71,663.08 354.39,662.06C352.07,661.03 349.68,659.28 349.09,658.16C348.49,657.04 348.00,655.20 348.00,654.07C348.00,652.69 348.65,652.00 349.93,652.00C351.00,652.00 354.95,652.65 358.71,653.44C362.47,654.23 370.04,655.18 375.52,655.55C382.23,656.01 386.96,655.84 389.96,655.02C393.07,654.18 393.97,653.58 392.96,653.03C392.16,652.61 385.88,651.99 379.00,651.67C372.12,651.35 363.12,650.26 359.00,649.25C351.70,647.46 351.51,647.33 351.81,644.55C351.98,642.97 353.27,639.40 354.66,636.59C356.06,633.79 359.29,629.33 361.85,626.67C364.41,624.02 367.74,621.19 369.25,620.40C370.76,619.60 372.00,619.34 372.00,619.82C372.00,620.30 371.09,621.51 369.98,622.52C368.87,623.52 366.62,626.37 364.98,628.85C363.34,631.32 362.00,634.39 362.00,635.67C362.00,637.46 362.55,638.00 364.39,638.00C365.70,638.00 369.51,636.17 372.85,633.94C376.19,631.71 380.45,629.64 382.31,629.34C385.05,628.89 386.19,629.28 388.30,631.39C389.80,632.89 392.04,634.00 393.55,634.00C395.00,634.00 397.50,633.07 399.10,631.93C401.09,630.51 401.99,629.02 401.97,627.18C401.95,625.71 401.39,623.81 400.72,622.96C400.05,622.12 398.06,620.41 396.29,619.18C394.53,617.94 391.38,616.30 389.29,615.53C385.50,614.14 385.50,614.14 388.59,614.07C390.29,614.03 394.44,615.38 397.81,617.06C401.84,619.07 405.92,622.29 409.72,626.44C412.90,629.91 416.52,634.57 417.76,636.78C420.02,640.81 420.02,640.81 415.15,643.81C412.48,645.46 407.86,648.95 404.89,651.58C401.93,654.20 398.49,657.71 397.25,659.37C396.01,661.03 395.00,663.09 395.00,663.94C395.00,665.24 396.48,665.49 403.75,665.46C411.93,665.41 413.08,665.13 421.50,661.14C426.49,658.78 431.39,657.08 432.50,657.34C433.60,657.59 436.00,658.41 437.83,659.15C440.83,660.37 441.30,660.32 442.52,658.64C443.70,657.03 443.55,656.03 441.42,651.21C440.06,648.15 439.09,645.24 439.25,644.75C439.41,644.26 441.34,645.21 443.52,646.86C445.71,648.51 448.89,651.00 450.59,652.39C452.29,653.78 455.10,657.58 456.84,660.85C458.58,664.11 460.00,668.11 460.00,669.73C460.00,671.36 459.21,673.38 458.25,674.22C457.29,675.07 455.13,676.45 453.45,677.30C451.77,678.15 446.65,679.56 442.09,680.42C437.52,681.29 429.89,681.93 425.14,681.85zM723.17,672.89C726.84,672.95 730.55,672.73 731.42,672.39C732.29,672.06 733.00,671.45 733.00,671.03C733.00,670.61 727.26,669.73 720.25,669.07C713.24,668.41 704.12,667.42 700.00,666.86C695.88,666.31 690.70,665.40 688.50,664.84C686.30,664.28 683.00,663.11 681.16,662.25C678.30,660.91 677.68,660.89 676.92,662.09C676.43,662.87 676.02,663.86 676.02,664.30C676.01,664.74 677.57,665.76 679.49,666.56C681.40,667.36 685.33,668.52 688.22,669.14C691.11,669.76 698.65,670.83 704.98,671.52C711.32,672.21 719.50,672.82 723.17,672.89zM231.50,670.57C234.25,670.32 243.52,668.08 252.11,665.58C260.69,663.09 269.69,659.92 272.11,658.54C274.52,657.15 277.51,656.02 278.75,656.01C279.99,656.01 281.00,655.39 281.00,654.65C281.00,653.91 279.72,651.55 278.15,649.40C276.59,647.26 272.98,643.25 270.13,640.50C267.28,637.75 262.37,633.80 259.22,631.73C256.08,629.66 251.03,627.02 248.00,625.88C244.97,624.73 239.12,623.18 235.00,622.43C230.88,621.68 224.00,621.05 219.73,621.03C215.08,621.01 207.27,622.01 200.23,623.52C193.78,624.90 182.99,627.87 176.25,630.10C169.51,632.34 164.00,634.52 164.00,634.96C164.00,635.39 165.91,636.04 168.25,636.40C170.59,636.76 176.55,638.39 181.50,640.02C189.14,642.53 192.38,643.03 203.00,643.30C211.88,643.53 216.61,644.11 219.32,645.29C221.42,646.21 222.89,647.36 222.59,647.86C222.28,648.35 220.03,649.26 217.58,649.88C215.12,650.49 212.86,651.42 212.54,651.93C212.23,652.44 212.81,653.12 213.84,653.45C214.86,653.77 222.46,654.66 230.71,655.41C238.96,656.16 246.68,657.29 247.86,657.92C249.04,658.55 250.00,659.46 250.00,659.94C250.00,660.42 246.51,662.25 242.25,664.01C237.99,665.77 232.70,668.06 230.50,669.11C226.50,671.01 226.50,671.01 231.50,670.57zM641.49,668.73C639.30,668.86 635.76,668.33 633.62,667.55C631.49,666.78 629.27,665.67 628.67,665.07C628.00,664.40 627.95,663.65 628.55,663.05C629.15,662.45 630.97,662.49 633.50,663.16C635.70,663.74 639.44,664.44 641.80,664.72C645.11,665.10 646.03,665.59 645.79,666.85C645.58,668.01 644.28,668.57 641.49,668.73zM413.16,658.46C409.74,658.87 408.04,658.74 408.44,658.10C408.77,657.56 412.11,655.55 415.84,653.65C422.35,650.33 422.69,650.27 423.82,652.08C424.47,653.12 425.00,654.39 425.00,654.91C425.00,655.42 423.54,656.29 421.75,656.84C419.96,657.38 416.10,658.11 413.16,658.46zM673.45,645.92C676.54,645.97 678.04,645.65 677.45,645.06C676.93,644.54 668.62,642.51 659.00,640.54C649.38,638.58 638.25,636.01 634.28,634.85C630.31,633.68 626.30,631.89 625.38,630.86C624.45,629.84 623.11,629.00 622.40,629.00C621.70,629.00 620.84,629.45 620.49,630.01C620.15,630.56 620.15,631.88 620.48,632.94C620.89,634.23 623.27,635.59 627.61,637.04C631.19,638.23 641.86,640.70 651.31,642.53C660.77,644.35 670.73,645.88 673.45,645.92zM140.25,613.97C140.66,613.99 141.00,613.60 141.00,613.11C141.00,612.62 139.37,609.81 137.38,606.86C135.39,603.91 131.79,599.46 129.38,596.97C126.97,594.47 125.00,592.11 125.00,591.72C125.00,591.32 125.79,591.00 126.75,591.01C127.71,591.01 133.31,592.11 139.18,593.44C145.06,594.77 151.81,596.74 154.18,597.81C158.50,599.75 158.50,599.75 154.00,601.73C149.50,603.71 149.50,603.71 152.50,604.34C154.15,604.68 158.43,605.41 162.00,605.96C165.57,606.50 175.93,607.42 185.00,608.01C194.07,608.59 205.32,609.55 210.00,610.13C214.68,610.72 221.09,611.52 224.25,611.92C227.41,612.31 230.00,612.34 230.00,611.97C230.00,611.61 229.10,610.50 228.00,609.50C226.90,608.50 226.00,606.86 226.00,605.85C226.00,604.83 226.61,604.00 227.37,604.00C228.12,604.00 231.97,605.62 235.93,607.60C239.89,609.58 243.37,610.97 243.66,610.68C243.95,610.39 243.77,609.42 243.27,608.52C242.77,607.62 239.69,604.14 236.43,600.79C233.17,597.44 227.06,592.13 222.86,588.99C218.65,585.85 206.17,578.47 195.11,572.59C184.06,566.70 171.75,560.77 167.76,559.41C163.77,558.05 154.75,555.38 147.72,553.47C140.69,551.56 133.86,550.00 132.53,550.00C131.20,550.00 129.89,550.38 129.60,550.84C129.32,551.30 130.43,554.51 132.07,557.98C133.71,561.45 134.82,564.51 134.55,564.78C134.27,565.06 128.75,566.56 122.27,568.12C114.86,569.91 103.84,571.54 92.50,572.54C82.60,573.41 63.86,575.66 50.86,577.55C37.86,579.44 26.17,581.37 24.88,581.85C22.67,582.67 22.65,582.75 24.52,583.29C25.61,583.61 30.32,584.62 35.00,585.53C39.67,586.45 47.33,588.95 52.00,591.08C56.67,593.21 64.78,595.88 70.00,597.00C75.22,598.13 85.73,599.71 93.34,600.52C100.95,601.33 110.17,602.87 113.84,603.94C117.50,605.00 122.97,606.57 126.00,607.42C129.03,608.27 133.30,610.08 135.50,611.45C137.70,612.82 139.84,613.95 140.25,613.97zM286.67,600.00C287.40,600.00 288.00,599.53 288.00,598.95C288.00,598.37 286.99,596.15 285.77,594.02C284.54,591.88 283.88,589.79 284.30,589.37C284.72,588.94 288.19,589.68 292.00,591.00C295.81,592.32 299.22,593.12 299.57,592.77C299.92,592.42 298.33,589.51 296.03,586.32C292.61,581.54 292.17,580.44 293.55,580.15C294.48,579.96 297.19,580.10 299.59,580.46C302.17,580.85 306.38,582.74 309.93,585.11C313.22,587.31 317.08,590.49 318.50,592.18C319.92,593.87 321.30,595.04 321.56,594.78C321.82,594.52 320.87,592.23 319.45,589.69C318.03,587.15 314.92,582.90 312.53,580.25C310.15,577.59 305.98,574.22 303.26,572.74C300.55,571.26 295.44,569.37 291.91,568.54C288.39,567.71 282.35,567.02 278.50,567.01C274.65,567.01 265.88,567.91 259.00,569.02C252.12,570.13 244.34,571.75 241.70,572.62C239.03,573.50 237.07,574.71 237.28,575.35C237.49,575.98 239.42,577.72 241.58,579.22C243.74,580.71 245.84,581.95 246.25,581.97C246.66,581.99 247.00,581.04 247.00,579.87C247.00,577.98 247.41,577.80 250.65,578.33C252.66,578.66 257.50,580.45 261.40,582.32C265.31,584.18 271.20,587.76 274.50,590.26C277.80,592.77 281.59,595.98 282.92,597.41C284.26,598.83 285.95,600.00 286.67,600.00zM590.25,598.92C591.21,598.96 592.00,598.83 592.00,598.62C592.00,598.41 588.06,597.01 583.25,595.52C578.44,594.03 572.36,591.90 569.75,590.78C567.14,589.67 565.00,588.12 565.00,587.34C565.00,586.57 567.48,582.40 570.50,578.09C573.52,573.77 576.00,569.96 576.00,569.62C576.00,569.28 575.09,569.00 573.97,569.00C572.86,569.00 570.04,570.91 567.70,573.25C564.89,576.06 562.87,579.33 561.72,582.91C560.13,587.81 560.12,588.47 561.54,590.04C562.39,590.99 565.02,592.50 567.37,593.40C569.72,594.29 575.43,595.88 580.07,596.93C584.71,597.98 589.29,598.87 590.25,598.92zM169.25,582.96C167.74,582.94 164.93,582.05 163.00,581.00C159.50,579.08 159.50,579.08 163.18,579.04C165.21,579.02 168.02,579.44 169.43,579.98C170.85,580.51 172.00,581.41 172.00,581.98C172.00,582.54 170.76,582.98 169.25,582.96zM551.50,571.83C554.80,571.84 557.05,571.67 556.50,571.46C555.95,571.26 548.60,569.90 540.17,568.46C531.74,567.01 524.62,566.05 524.35,566.31C524.08,566.58 525.52,567.35 527.54,568.01C529.57,568.68 534.43,569.81 538.36,570.52C542.29,571.24 548.20,571.82 551.50,571.83zM521.75,535.06C525.46,531.70 530.33,528.06 532.57,526.98C534.80,525.89 537.84,525.00 539.32,525.00C540.79,525.00 542.00,525.36 542.00,525.79C542.00,526.23 539.98,528.57 537.50,531.00C535.02,533.43 533.00,535.83 533.00,536.34C533.00,536.89 535.53,536.94 539.25,536.46C542.69,536.02 549.35,535.61 554.06,535.54C560.72,535.45 563.39,534.96 566.07,533.38C567.97,532.27 573.32,528.31 577.95,524.60C582.59,520.88 588.04,517.00 590.06,515.97C592.08,514.94 595.83,513.57 598.40,512.92C600.97,512.27 603.34,512.00 603.66,512.32C603.98,512.64 602.45,515.75 600.25,519.22C598.06,522.69 594.86,528.32 593.13,531.74C591.41,535.15 590.00,538.16 590.00,538.43C590.00,538.69 594.66,535.82 600.36,532.05C606.05,528.27 613.01,523.46 615.81,521.34C618.61,519.23 628.10,513.90 636.89,509.50C650.52,502.67 652.80,501.21 652.43,499.50C652.10,498.00 653.17,496.69 656.74,494.26C659.36,492.47 663.30,489.47 665.50,487.58C668.44,485.06 669.21,483.86 668.40,483.02C667.73,482.34 659.73,481.45 648.40,480.80C632.46,479.88 627.62,479.96 617.50,481.28C609.44,482.33 603.20,483.79 598.50,485.73C594.65,487.31 587.19,491.61 581.92,495.27C576.65,498.93 571.07,502.40 569.52,502.99C567.97,503.58 561.60,505.15 555.36,506.47C548.07,508.01 541.84,510.04 537.89,512.14C534.51,513.94 529.77,517.39 527.37,519.79C524.96,522.20 521.19,527.19 518.99,530.89C516.80,534.59 515.00,538.41 515.00,539.39C515.00,540.66 516.92,539.42 521.75,535.06zM489.76,531.13C490.73,530.61 492.37,529.24 493.42,528.09C494.75,526.62 496.52,526.00 499.41,526.00C502.82,526.00 504.44,525.23 509.01,521.40C512.03,518.87 517.50,514.82 521.16,512.41C524.82,509.99 529.01,507.56 530.47,507.01C531.93,506.46 532.87,505.59 532.56,505.09C532.25,504.59 528.73,503.66 524.75,503.03C520.76,502.40 508.05,500.34 496.50,498.45C484.95,496.56 467.85,493.86 458.50,492.44C449.15,491.03 436.33,488.76 430.01,487.40C420.46,485.35 418.01,484.43 415.46,481.96C412.68,479.27 412.21,479.13 410.45,480.44C408.91,481.58 408.72,482.26 409.57,483.69C410.16,484.69 412.25,486.30 414.21,487.28C416.17,488.26 422.67,490.16 428.64,491.50C434.61,492.84 449.85,495.52 462.50,497.45C475.15,499.38 489.77,501.92 495.00,503.10C500.23,504.27 504.68,505.39 504.89,505.59C505.10,505.78 502.52,508.90 499.14,512.51C495.76,516.13 491.87,521.30 490.50,524.01C489.12,526.72 488.00,529.64 488.00,530.50C488.00,531.69 488.43,531.84 489.76,531.13zM257.75,501.94C257.06,501.90 247.59,499.43 236.71,496.44C225.82,493.44 215.24,490.07 213.21,488.95C211.17,487.82 208.05,485.91 206.29,484.70C204.52,483.49 203.06,482.13 203.04,481.68C203.02,481.23 203.79,481.09 204.75,481.37C205.71,481.65 209.65,482.18 213.50,482.55C217.35,482.92 225.36,484.52 231.30,486.12C237.24,487.71 244.22,490.11 246.80,491.45C249.39,492.79 253.19,495.52 255.25,497.51C257.31,499.50 259.00,501.32 259.00,501.56C259.00,501.80 258.44,501.97 257.75,501.94zM687.75,493.00C688.16,492.99 690.52,491.62 693.00,489.94C695.48,488.26 699.52,485.84 702.00,484.56C704.48,483.28 707.62,482.30 709.00,482.37C710.99,482.48 711.44,482.97 711.19,484.76C711.00,486.11 711.40,486.99 712.19,486.98C712.91,486.97 715.52,486.04 718.00,484.92C720.48,483.79 723.40,482.07 724.50,481.09C725.60,480.10 728.98,477.95 732.00,476.30C735.02,474.65 740.54,471.57 744.26,469.46C749.02,466.76 750.70,465.30 749.96,464.56C749.31,463.91 743.34,463.50 734.62,463.50C720.35,463.50 720.35,463.50 711.85,467.71C706.48,470.37 701.39,473.85 698.02,477.17C695.09,480.05 691.41,484.43 689.85,486.90C688.28,489.37 687.00,491.75 687.00,492.20C687.00,492.64 687.34,493.00 687.75,493.00zM495.92,487.00C496.43,487.00 498.12,485.94 499.67,484.64C501.23,483.34 504.37,481.32 506.66,480.16C508.94,479.01 513.89,477.67 517.66,477.21C523.80,476.45 525.32,475.77 532.50,470.57C536.90,467.39 542.08,464.00 544.00,463.04C545.92,462.07 551.55,460.29 556.50,459.07C561.45,457.86 567.08,456.01 569.00,454.97C571.69,453.52 572.04,453.06 570.50,452.99C569.40,452.94 571.20,451.89 574.50,450.65C577.80,449.42 581.35,447.93 582.38,447.34C583.45,446.73 583.82,446.01 583.25,445.66C582.70,445.31 567.68,444.77 549.87,444.46C532.07,444.14 507.38,443.12 495.00,442.20C482.62,441.28 469.35,440.53 465.50,440.53C461.07,440.53 456.67,441.22 453.50,442.42C450.75,443.46 446.16,445.80 443.31,447.61C440.45,449.42 436.24,452.60 433.95,454.67C431.66,456.73 428.10,460.92 426.03,463.96C423.97,467.01 421.96,470.51 421.57,471.75C421.11,473.21 421.28,474.00 422.04,474.00C422.69,474.00 425.98,471.81 429.36,469.14C432.74,466.47 436.48,463.77 437.68,463.14C438.89,462.51 440.13,462.00 440.45,462.00C440.78,462.00 440.13,463.78 439.02,465.96C437.91,468.14 437.00,470.84 437.00,471.96C437.00,473.08 437.50,474.00 438.12,474.00C438.73,474.00 441.92,472.37 445.20,470.38C448.48,468.38 453.23,466.13 455.75,465.38C458.27,464.62 460.54,464.21 460.80,464.47C461.07,464.73 460.51,467.70 459.56,471.06C458.62,474.43 458.07,477.41 458.35,477.69C458.63,477.97 461.36,477.26 464.42,476.12C467.48,474.97 473.02,472.51 476.74,470.63C480.46,468.76 486.58,466.28 490.36,465.12C494.13,463.95 499.41,463.00 502.11,463.00C504.80,463.00 507.00,463.36 507.00,463.80C507.00,464.25 505.59,466.83 503.86,469.55C502.13,472.27 499.43,477.03 497.86,480.12C496.29,483.22 495.00,486.03 495.00,486.37C495.00,486.72 495.42,487.00 495.92,487.00zM205.68,472.89C203.93,472.83 200.68,472.42 198.45,471.98C196.23,471.54 192.67,470.15 190.54,468.89C186.67,466.61 186.67,466.61 189.47,465.68C191.30,465.07 195.33,465.19 201.21,466.03C206.66,466.81 211.02,468.01 212.33,469.08C214.50,470.84 214.50,470.84 211.68,471.92C210.14,472.52 207.44,472.95 205.68,472.89zM371.25,457.98C371.94,457.97 374.43,456.66 376.79,455.06C380.04,452.85 382.69,452.00 387.79,451.54C391.60,451.19 397.96,449.57 402.50,447.79C406.90,446.07 412.99,443.43 416.04,441.92C419.09,440.42 424.49,438.63 428.04,437.95C431.59,437.27 435.14,436.38 435.93,435.97C436.97,435.42 436.29,434.68 433.43,433.22C431.27,432.12 424.77,430.27 419.00,429.10C413.23,427.94 405.10,426.03 400.95,424.86C393.73,422.84 393.15,422.81 387.83,424.36C384.76,425.25 379.50,427.82 376.14,430.07C372.78,432.31 368.00,436.47 365.52,439.30C363.04,442.13 360.31,445.94 359.44,447.76C358.58,449.59 358.01,451.78 358.18,452.63C358.41,453.75 360.10,452.77 364.33,449.07C367.54,446.25 371.91,443.07 374.04,441.98C376.18,440.89 378.20,440.00 378.55,440.00C378.90,440.00 377.12,443.82 374.59,448.49C372.07,453.16 370.00,457.21 370.00,457.49C370.00,457.77 370.56,457.99 371.25,457.98zM335.31,457.00C335.97,457.00 338.72,455.43 341.43,453.50C344.14,451.57 346.88,450.00 347.53,450.00C348.18,450.00 349.90,448.90 351.35,447.55C352.81,446.20 354.00,444.62 354.00,444.05C354.00,443.47 352.76,443.00 351.25,443.00C349.74,443.00 345.72,444.32 342.31,445.93C338.00,447.97 335.64,449.79 334.52,451.96C333.64,453.66 333.19,455.50 333.52,456.03C333.85,456.56 334.66,457.00 335.31,457.00zM406.81,420.57C408.29,419.79 413.44,415.48 418.25,410.99C423.06,406.51 427.00,402.37 427.00,401.81C427.00,401.16 425.61,401.04 423.25,401.47C421.19,401.86 418.05,403.06 416.28,404.15C414.51,405.24 411.20,408.24 408.92,410.81C406.64,413.39 404.38,416.55 403.88,417.83C403.39,419.12 403.24,420.58 403.55,421.08C403.87,421.59 405.29,421.37 406.81,420.57zM190.31,418.92C182.12,420.76 182.12,420.76 180.20,418.63C179.15,417.46 176.48,413.80 174.26,410.50C172.05,407.20 167.60,402.00 164.37,398.94C161.14,395.88 155.70,391.49 152.29,389.18C148.87,386.87 141.22,382.54 135.29,379.56C129.35,376.58 120.67,372.82 116.00,371.20C111.33,369.57 103.67,367.30 99.00,366.14C94.33,364.98 84.42,362.90 77.00,361.51C69.58,360.13 50.45,357.81 34.50,356.37C16.97,354.78 5.21,353.30 4.77,352.62C4.36,352.01 4.02,349.14 4.02,346.25C4.00,341.00 4.00,341.00 8.76,341.00C11.37,341.00 19.36,341.68 26.51,342.52C33.65,343.36 46.47,345.17 55.00,346.55C63.53,347.94 79.72,350.43 90.98,352.09C103.65,353.96 112.07,355.66 113.06,356.56C113.94,357.35 115.90,358.00 117.42,358.00C118.95,358.00 122.70,357.27 125.77,356.38C129.37,355.33 133.34,354.93 136.93,355.26C139.99,355.54 144.41,356.77 146.75,357.98C149.09,359.20 151.00,360.62 151.00,361.13C151.00,361.65 149.84,364.36 148.42,367.15C147.00,369.95 146.22,372.59 146.67,373.02C147.13,373.45 151.55,374.32 156.50,374.96C161.45,375.61 168.77,377.23 172.77,378.57C176.77,379.90 180.71,381.00 181.52,381.00C182.33,381.00 183.00,380.24 183.00,379.32C183.00,378.39 180.75,375.46 178.00,372.81C175.25,370.16 173.00,367.51 173.00,366.93C173.00,366.34 173.79,366.07 174.75,366.33C175.71,366.58 178.75,367.36 181.50,368.06C185.80,369.16 187.91,370.74 196.50,379.27C202.95,385.66 206.61,388.65 206.81,387.68C206.98,386.85 205.48,382.94 203.49,378.98C201.50,375.03 200.07,371.60 200.30,371.36C200.54,371.13 202.97,372.70 205.69,374.85C208.42,377.01 212.02,380.51 213.69,382.63C215.36,384.76 217.69,388.39 218.87,390.71C220.04,393.03 221.00,396.23 221.00,397.84C221.00,399.44 220.44,401.18 219.75,401.71C219.06,402.23 216.29,403.47 213.60,404.47C208.69,406.28 208.69,406.28 211.35,407.67C212.81,408.44 214.00,409.48 214.00,410.00C214.00,410.51 213.06,411.43 211.90,412.05C210.75,412.67 207.26,414.05 204.15,415.13C201.04,416.21 194.81,417.91 190.31,418.92zM367.65,385.62C364.71,386.12 364.99,385.69 372.00,379.11C376.12,375.24 379.84,372.05 380.25,372.03C380.66,372.02 381.00,371.59 381.00,371.10C381.00,370.60 378.19,369.88 374.75,369.48C371.31,369.09 367.60,368.30 366.50,367.74C365.40,367.17 364.22,366.27 363.87,365.74C363.52,365.21 355.87,363.48 346.87,361.91C337.87,360.33 327.57,358.54 324.00,357.92C320.43,357.30 310.75,355.46 302.50,353.85C294.25,352.23 283.72,349.77 279.11,348.38C274.49,346.99 266.62,345.44 261.61,344.95C256.60,344.45 249.57,343.53 246.00,342.90C242.43,342.27 236.57,340.40 233.00,338.74C229.03,336.90 220.86,334.59 212.01,332.82C204.03,331.22 196.50,329.25 195.26,328.43C194.02,327.62 193.00,326.36 193.00,325.63C193.00,324.90 193.79,323.59 194.76,322.72C195.73,321.84 200.63,319.74 205.66,318.06C210.68,316.38 215.52,315.00 216.40,315.00C217.28,315.00 218.00,315.31 218.00,315.69C218.00,316.06 217.04,317.39 215.87,318.63C214.67,319.92 214.01,321.57 214.34,322.45C214.67,323.30 215.56,324.00 216.33,324.00C217.09,324.00 220.58,321.30 224.08,318.00C227.58,314.70 231.02,312.00 231.72,312.00C232.43,312.00 233.00,312.25 233.00,312.55C233.00,312.85 232.31,314.43 231.47,316.05C230.05,318.81 230.07,319.00 231.81,319.00C232.84,319.00 236.11,317.26 239.09,315.14C242.06,313.01 246.30,310.36 248.50,309.25C250.70,308.13 256.37,306.01 261.10,304.54C266.11,302.98 271.32,301.99 273.60,302.18C277.50,302.50 277.50,302.50 271.67,305.80C268.46,307.62 263.85,310.94 261.42,313.18C258.99,315.42 257.00,317.87 257.00,318.63C257.00,319.38 257.24,320.00 257.53,320.00C257.82,320.00 260.86,318.81 264.28,317.36C268.03,315.76 272.29,314.73 275.00,314.75C277.48,314.77 282.94,313.74 287.14,312.45C291.34,311.16 298.26,309.79 302.52,309.40C307.80,308.92 310.14,309.04 309.88,309.75C309.67,310.33 306.36,313.22 302.52,316.18C298.68,319.13 294.50,323.11 293.22,325.01C291.94,326.91 291.34,328.61 291.90,328.80C292.46,328.99 294.88,327.98 297.29,326.57C299.70,325.16 301.97,324.00 302.34,324.00C302.70,324.00 303.00,324.85 303.00,325.89C303.00,326.93 303.70,328.05 304.55,328.38C305.40,328.71 309.24,327.39 313.08,325.46C316.92,323.52 322.64,321.31 325.78,320.54C328.93,319.77 334.88,318.84 339.00,318.47C346.50,317.81 346.50,317.81 339.72,324.71C335.99,328.50 333.26,331.92 333.64,332.30C334.02,332.69 335.10,333.00 336.03,333.00C336.96,333.00 340.76,331.62 344.47,329.94C348.18,328.26 351.47,327.13 351.77,327.44C352.08,327.74 351.78,329.19 351.11,330.65C350.36,332.31 350.26,333.66 350.84,334.24C351.43,334.83 352.67,334.72 354.14,333.94C355.44,333.26 358.98,330.76 362.00,328.40C365.02,326.04 369.17,323.40 371.22,322.55C373.26,321.70 376.19,321.00 377.72,320.99C379.25,320.98 382.71,320.31 385.41,319.49C388.11,318.67 392.27,318.00 394.66,318.00C397.05,318.00 398.99,318.34 398.98,318.75C398.97,319.16 396.27,322.86 392.98,326.97C389.69,331.08 387.00,335.02 387.00,335.73C387.00,336.50 388.67,335.80 391.15,334.00C393.44,332.35 396.99,330.54 399.05,329.99C401.11,329.43 407.88,328.31 414.08,327.49C420.29,326.67 426.06,326.00 426.90,326.00C427.85,326.00 426.74,327.79 423.94,330.75C421.47,333.36 418.37,336.74 417.06,338.25C415.74,339.76 414.90,341.23 415.20,341.53C415.49,341.82 419.79,340.02 424.75,337.52C431.48,334.13 435.62,332.73 441.13,332.02C445.18,331.49 451.31,331.05 454.75,331.03C458.19,331.01 461.00,331.40 461.00,331.90C461.00,332.39 458.70,334.27 455.88,336.08C453.06,337.88 449.01,341.57 446.88,344.27C444.75,346.97 443.00,349.59 443.00,350.09C443.00,350.59 444.16,351.00 445.57,351.00C446.98,351.00 450.02,349.71 452.32,348.14C454.62,346.56 458.47,344.27 460.89,343.05C464.04,341.44 465.47,341.15 465.99,341.98C466.48,342.78 471.49,340.57 481.85,334.98C490.18,330.49 497.00,326.40 497.00,325.91C497.00,325.41 493.06,324.99 488.25,324.97C482.85,324.95 480.07,324.61 481.00,324.08C481.82,323.60 484.98,322.73 488.00,322.13C491.02,321.53 502.73,320.13 514.00,319.02C525.27,317.91 538.98,316.32 544.46,315.50C549.93,314.67 554.81,313.59 555.30,313.10C555.81,312.59 550.16,311.96 541.84,311.61C533.95,311.27 509.50,310.31 487.50,309.47C465.50,308.64 444.57,307.46 441.00,306.85C437.43,306.25 433.82,305.38 433.00,304.91C431.67,304.16 431.67,304.05 433.00,304.01C433.82,303.98 440.28,303.10 447.35,302.05C454.41,301.00 460.41,299.92 460.67,299.66C460.93,299.40 459.87,298.93 458.32,298.62C456.77,298.30 444.02,297.35 430.00,296.50C415.98,295.66 397.75,294.52 389.50,293.98C381.25,293.43 371.46,292.47 367.75,291.83C364.04,291.20 361.00,290.38 361.00,290.01C361.00,289.64 364.49,288.61 368.75,287.71C373.01,286.82 380.55,285.35 385.50,284.44C390.45,283.54 396.04,282.16 397.93,281.38C400.31,280.39 401.04,279.64 400.31,278.91C399.73,278.33 394.38,277.41 388.41,276.85C382.44,276.30 376.96,275.52 376.24,275.12C375.31,274.60 376.02,273.66 378.65,271.94C380.69,270.60 382.55,268.94 382.77,268.26C382.98,267.57 381.97,266.56 380.50,266.00C379.04,265.44 365.16,264.72 349.67,264.39C323.96,263.84 320.28,263.97 307.50,265.95C299.80,267.14 288.55,268.74 282.50,269.52C276.45,270.29 260.70,271.62 247.50,272.46C234.30,273.31 219.09,274.29 213.71,274.63C207.18,275.05 204.04,275.64 204.29,276.38C204.49,277.00 206.65,277.61 209.08,277.74C211.51,277.87 216.77,278.25 220.76,278.57C225.08,278.93 227.77,279.57 227.41,280.15C227.08,280.68 225.78,281.51 224.53,281.99C223.28,282.46 216.46,284.03 209.38,285.46C202.30,286.89 195.26,288.56 193.75,289.15C192.24,289.75 191.00,290.64 191.00,291.12C191.00,291.60 191.75,292.00 192.67,292.00C193.58,292.00 194.03,292.31 193.65,292.68C193.28,293.05 189.27,293.45 184.74,293.55C178.36,293.70 174.47,294.46 167.50,296.93C162.55,298.69 155.57,300.54 152.00,301.05C148.43,301.55 137.40,302.87 127.50,303.97C117.60,305.07 106.17,306.42 102.09,306.97C98.02,307.53 94.50,308.17 94.28,308.39C94.06,308.61 95.82,309.46 98.19,310.28C102.50,311.76 102.50,311.76 99.50,312.97C97.38,313.83 92.67,314.00 83.50,313.56C76.35,313.22 66.45,312.92 61.50,312.90C56.55,312.88 41.59,313.19 28.25,313.59C4.00,314.32 4.00,314.32 3.75,258.91C3.61,228.43 3.52,198.68 3.53,192.80C3.55,186.91 3.89,181.77 4.29,181.38C4.68,180.98 7.49,180.76 10.52,180.88C14.71,181.05 16.16,180.74 16.62,179.55C16.95,178.70 17.76,178.00 18.43,178.00C19.09,178.00 21.36,179.53 23.47,181.41C25.58,183.29 27.89,184.59 28.61,184.32C29.33,184.04 30.20,182.96 30.53,181.91C30.86,180.86 31.72,180.00 32.43,180.00C33.15,180.00 34.93,180.95 36.40,182.10C37.88,183.26 41.32,187.54 44.07,191.60C46.81,195.67 49.71,199.00 50.50,199.00C51.28,199.00 52.44,197.99 53.07,196.75C53.69,195.51 56.23,192.59 58.70,190.27C63.20,186.03 63.20,186.03 69.84,186.77C76.10,187.46 76.62,187.72 78.91,191.25C80.24,193.31 81.88,195.00 82.55,195.00C83.21,195.00 84.32,194.32 85.00,193.50C85.68,192.68 86.61,192.00 87.06,192.00C87.51,192.00 88.88,193.80 90.12,196.00C91.36,198.20 92.95,200.00 93.66,200.00C94.38,200.00 95.86,198.23 96.97,196.07C98.07,193.90 99.95,191.45 101.14,190.62C102.99,189.32 103.67,189.30 105.95,190.47C107.40,191.23 109.76,194.02 111.17,196.67C112.59,199.33 114.04,202.76 114.40,204.29C114.76,205.83 115.73,207.34 116.54,207.66C117.50,208.02 120.02,206.05 123.68,202.06C127.69,197.70 129.94,195.99 131.42,196.20C132.89,196.41 134.47,198.54 136.84,203.50C138.68,207.35 140.69,210.81 141.31,211.19C141.93,211.57 143.01,211.41 143.72,210.82C144.42,210.23 145.00,208.69 145.00,207.38C145.00,206.06 146.60,203.23 148.62,201.00C150.61,198.80 153.00,197.00 153.94,197.00C154.88,197.00 156.57,198.01 157.70,199.25C158.83,200.49 160.26,202.48 160.88,203.68C161.49,204.89 162.00,207.02 162.00,208.43C162.00,210.63 162.44,211.00 165.07,211.00C167.28,211.00 169.06,210.02 171.44,207.50C173.74,205.06 175.61,204.00 177.62,204.01C179.20,204.02 181.51,204.30 182.74,204.63C183.97,204.96 185.93,206.76 187.09,208.64C188.24,210.51 190.55,212.75 192.20,213.60C194.36,214.72 196.66,214.99 200.35,214.54C203.18,214.20 207.39,213.44 209.70,212.85C213.36,211.91 214.32,212.04 217.31,213.89C219.20,215.05 221.67,216.00 222.81,216.00C223.95,216.00 225.19,215.50 225.57,214.88C226.04,214.12 228.71,213.96 233.88,214.38C238.07,214.73 244.49,215.28 248.15,215.61C254.31,216.18 254.84,216.07 255.47,214.10C255.84,212.93 257.44,211.31 259.02,210.49C260.60,209.67 263.01,209.00 264.37,209.00C266.05,209.00 267.85,210.28 270.04,213.05C272.29,215.90 273.89,217.02 275.38,216.80C276.79,216.60 277.82,215.41 278.46,213.25C278.98,211.46 279.96,210.00 280.62,210.00C281.29,210.00 282.74,211.24 283.86,212.75C285.53,215.02 286.20,215.31 287.69,214.39C288.69,213.78 289.73,211.98 290.00,210.39C290.36,208.34 291.51,206.99 294.00,205.75C295.93,204.79 298.76,204.00 300.30,204.00C302.55,204.00 303.39,204.68 304.55,207.47C305.35,209.38 306.00,211.85 306.00,212.97C306.00,214.09 306.90,215.90 308.00,217.00C309.10,218.10 310.69,219.00 311.53,219.00C312.37,219.00 313.31,218.21 313.61,217.25C313.91,216.29 316.15,211.34 318.58,206.25C321.21,200.74 323.60,197.00 324.49,197.00C325.30,197.00 327.05,199.14 328.36,201.75C329.68,204.36 331.34,209.11 332.05,212.30C332.76,215.48 333.73,218.33 334.21,218.63C334.69,218.93 335.69,218.67 336.42,218.07C337.15,217.46 338.05,215.08 338.42,212.79C338.79,210.49 340.25,206.48 341.66,203.88C343.08,201.27 345.96,197.76 348.07,196.07C351.49,193.32 352.17,193.12 354.52,194.19C356.58,195.13 357.58,195.12 359.13,194.15C360.88,193.06 361.65,193.48 366.01,198.01C370.28,202.44 371.19,202.97 372.96,202.02C374.08,201.42 375.00,200.51 375.00,200.00C375.00,199.49 376.40,197.48 378.10,195.53C379.81,193.59 381.54,192.00 381.96,192.00C382.37,192.00 384.18,195.26 385.99,199.25C387.80,203.24 390.42,207.74 391.83,209.25C393.23,210.76 394.76,212.00 395.23,212.00C395.70,212.00 395.80,210.45 395.44,208.55C394.79,205.09 394.79,205.09 398.29,205.66C401.78,206.23 401.78,206.23 402.49,200.11C402.88,196.75 403.54,194.00 403.96,194.00C404.39,194.00 405.89,194.91 407.31,196.03C409.07,197.41 410.08,199.40 410.49,202.28C410.82,204.60 411.45,211.56 411.88,217.75C412.31,223.94 412.90,229.24 413.19,229.52C413.48,229.81 414.52,229.74 415.50,229.36C417.13,228.73 417.23,227.60 416.65,216.09C416.29,209.16 415.72,198.78 415.37,193.00C415.02,187.22 414.34,182.00 413.86,181.39C413.38,180.77 410.43,179.97 407.32,179.61C404.21,179.24 399.60,178.03 397.09,176.92C394.58,175.81 391.46,173.91 390.17,172.70C388.87,171.49 387.20,169.32 386.45,167.88C385.70,166.45 384.80,163.97 384.46,162.38C384.11,160.80 383.59,157.03 383.30,154.00C382.78,148.50 382.78,148.50 387.18,152.75C389.60,155.09 392.32,157.00 393.23,157.00C394.14,157.00 395.16,156.55 395.50,156.00C395.84,155.45 397.33,155.01 398.81,155.03C400.29,155.05 402.37,155.72 403.44,156.53C404.51,157.34 405.75,158.00 406.19,158.00C406.64,158.00 407.00,157.29 407.00,156.42C407.00,155.22 407.84,154.92 410.46,155.17C412.37,155.35 413.92,155.05 413.91,154.50C413.90,153.95 409.60,151.25 404.36,148.50C398.58,145.46 394.29,142.52 393.45,141.00C392.69,139.62 392.05,136.31 392.04,133.63C392.00,128.77 392.00,128.77 396.07,132.44C398.72,134.84 400.90,136.00 402.32,135.79C403.52,135.60 404.39,134.90 404.25,134.23C404.11,133.55 404.63,133.00 405.39,133.00C406.16,133.00 407.03,132.36 407.33,131.58C407.63,130.80 408.88,130.01 410.11,129.83C411.34,129.65 412.49,129.05 412.67,128.50C412.85,127.95 411.32,126.60 409.27,125.50C407.22,124.40 404.98,122.38 404.29,121.00C403.60,119.62 403.02,115.95 403.01,112.83C403.01,109.71 403.27,106.45 403.61,105.58C403.94,104.71 404.58,104.00 405.03,104.00C405.47,104.00 406.81,105.57 408.00,107.50C409.19,109.43 410.98,111.00 411.97,111.00C413.13,111.00 414.33,109.65 415.29,107.25C416.58,104.02 416.59,103.13 415.39,100.80C414.63,99.31 414.00,96.51 414.00,94.58C414.00,92.64 415.37,87.61 417.04,83.40C418.71,79.19 420.79,74.37 421.65,72.70C423.06,69.98 423.33,69.85 424.22,71.43C424.77,72.40 427.65,80.47 430.63,89.35C433.61,98.23 436.73,108.10 437.56,111.28C438.99,116.74 438.96,117.31 437.02,121.69C435.74,124.57 435.24,127.11 435.68,128.41C436.06,129.56 436.26,131.32 436.12,132.31C435.87,134.02 436.03,134.03 438.93,132.54C440.62,131.66 443.19,129.16 444.63,126.99C446.07,124.81 447.64,123.28 448.12,123.58C448.60,123.87 449.00,127.05 449.00,130.62C449.00,134.20 448.49,138.11 447.87,139.32C447.26,140.52 445.46,142.71 443.88,144.19C441.91,146.03 441.22,147.44 441.66,148.69C442.01,149.68 442.96,151.27 443.77,152.21C444.68,153.27 445.00,154.86 444.61,156.40C444.27,157.76 444.40,159.13 444.90,159.44C445.39,159.74 447.22,158.37 448.96,156.39C450.70,154.41 453.32,150.36 454.77,147.39C456.23,144.43 457.74,142.00 458.14,142.00C458.53,142.00 459.79,144.49 460.93,147.54C462.07,150.58 463.00,155.24 463.00,157.89C463.00,160.54 462.47,164.21 461.83,166.05C461.19,167.90 458.66,172.80 456.21,176.94C453.76,181.09 451.75,185.52 451.75,186.78C451.75,188.05 452.00,189.34 452.31,189.65C452.62,189.96 454.82,189.56 457.19,188.77C460.70,187.60 461.60,186.79 462.03,184.42C462.48,181.97 462.99,181.54 465.21,181.78C467.07,181.97 468.03,181.50 468.45,180.16C468.78,179.12 469.98,177.42 471.12,176.39C473.15,174.55 473.23,174.56 475.10,176.87C476.14,178.16 477.00,180.06 477.00,181.08C477.00,182.10 477.88,183.40 478.95,183.98C480.37,184.73 481.95,184.64 484.70,183.65C486.79,182.89 489.29,181.94 490.25,181.53C491.21,181.12 492.00,181.18 492.00,181.67C492.00,182.15 490.38,183.42 488.40,184.49C486.41,185.55 481.92,189.53 478.40,193.33C474.89,197.12 470.63,203.04 468.94,206.47C466.58,211.27 465.67,214.86 464.97,222.10C464.18,230.35 464.27,231.65 465.73,232.75C466.64,233.44 468.76,233.97 470.44,233.94C472.12,233.90 475.98,233.34 479.00,232.68C482.02,232.03 485.07,231.13 485.77,230.68C486.46,230.23 486.77,229.44 486.46,228.93C486.14,228.42 483.88,227.50 481.44,226.88C479.00,226.27 477.00,225.19 477.00,224.50C477.00,223.80 478.01,222.96 479.25,222.63C480.49,222.30 483.10,222.02 485.06,222.01C487.80,222.00 489.10,222.64 490.66,224.75C491.90,226.44 494.35,227.95 496.96,228.64C500.72,229.65 501.44,229.56 503.11,227.89C504.15,226.85 505.93,226.00 507.06,226.00C508.19,226.00 508.85,225.56 508.52,225.03C508.19,224.49 506.13,223.52 503.94,222.86C500.30,221.77 499.78,221.86 497.93,223.84C496.34,225.55 495.50,225.80 494.01,225.00C492.96,224.45 491.85,223.56 491.53,223.04C491.21,222.53 491.86,221.61 492.97,221.01C494.09,220.42 495.00,219.30 495.00,218.54C495.00,217.77 495.68,216.47 496.50,215.64C497.33,214.82 500.47,213.63 503.48,213.00C506.50,212.38 509.22,211.45 509.54,210.93C509.86,210.42 513.69,210.00 518.06,210.00C524.14,210.00 526.00,209.68 526.00,208.62C526.00,207.86 525.34,206.70 524.54,206.03C523.74,205.37 520.03,204.42 516.29,203.92C512.56,203.42 507.37,202.76 504.76,202.45C500.03,201.88 500.03,201.88 502.26,199.48C503.49,198.16 506.47,196.39 508.88,195.54C511.28,194.69 514.29,194.00 515.57,194.00C516.84,194.00 518.60,192.99 519.46,191.75C520.90,189.70 521.90,189.49 530.77,189.34C539.72,189.19 540.58,189.00 541.50,186.99C542.39,185.05 543.05,184.87 547.35,185.37C551.59,185.86 552.27,185.68 552.72,183.97C553.12,182.45 553.81,182.15 555.86,182.60C557.31,182.92 559.29,183.40 560.25,183.66C561.21,183.92 562.90,183.85 564.00,183.50C565.10,183.15 566.00,182.42 566.00,181.87C566.00,181.32 562.17,179.10 557.50,176.94C549.04,173.04 549.00,173.00 548.99,169.26C548.99,167.19 548.09,164.15 547.00,162.50C545.81,160.71 545.01,157.81 545.01,155.31C545.00,151.11 545.00,151.11 550.68,151.31C555.98,151.49 556.41,151.33 557.03,149.00C557.39,147.62 557.31,145.75 556.85,144.83C556.39,143.91 554.44,142.64 552.52,142.01C550.60,141.37 548.12,139.70 547.02,138.29C545.62,136.52 545.00,134.23 545.00,130.87C545.00,127.62 545.42,126.01 546.25,126.03C546.94,126.05 548.37,126.72 549.44,127.53C550.51,128.34 553.11,129.00 555.22,129.00C557.70,129.00 559.27,128.47 559.63,127.51C559.95,126.70 559.03,124.64 557.60,122.94C556.17,121.24 555.00,119.25 555.00,118.53C555.00,117.81 555.67,116.95 556.50,116.64C557.33,116.32 558.00,114.91 558.00,113.49C558.00,112.08 557.10,109.16 556.00,107.00C554.90,104.84 554.00,101.94 554.00,100.54C554.00,98.31 554.42,98.00 557.44,98.00C559.33,98.00 561.16,97.55 561.50,96.99C561.85,96.44 561.20,94.68 560.06,93.09C558.93,91.50 558.00,89.23 558.00,88.05C558.00,86.87 558.62,84.69 559.38,83.20C560.13,81.72 562.61,74.28 564.89,66.68C567.17,59.08 569.73,51.20 570.58,49.18C571.77,46.35 572.32,45.85 572.95,47.00C573.41,47.83 575.81,55.25 578.29,63.50C580.76,71.75 583.68,80.75 584.77,83.50C586.08,86.82 586.48,89.22 585.95,90.65C585.50,91.83 584.66,93.09 584.07,93.46C583.48,93.82 583.00,94.99 583.00,96.06C583.00,97.32 583.69,98.00 584.96,98.00C586.05,98.00 587.40,98.87 587.96,99.93C588.53,101.00 588.98,104.49 588.96,107.68C588.95,110.88 588.29,114.62 587.50,116.00C586.71,117.38 586.05,119.35 586.04,120.39C586.00,122.05 586.53,122.20 590.50,121.66C593.09,121.30 595.00,121.44 595.00,121.98C595.00,122.50 594.10,125.21 593.00,128.00C591.90,130.79 591.02,134.29 591.04,135.79C591.05,137.28 591.66,139.56 592.38,140.86C593.43,142.76 593.45,143.92 592.45,146.82C591.39,149.91 591.47,150.88 593.01,153.75C593.99,155.59 595.85,158.00 597.14,159.12C599.37,161.06 599.52,161.07 600.01,159.33C600.30,158.32 601.70,155.25 603.12,152.50C604.54,149.75 607.33,144.80 609.33,141.50C611.32,138.20 613.34,134.83 613.83,134.01C614.53,132.82 615.01,133.12 616.23,135.51C617.06,137.16 618.77,141.55 620.02,145.28C621.27,149.01 622.79,152.39 623.40,152.78C624.00,153.18 625.78,153.95 627.35,154.50C628.91,155.05 630.22,155.95 630.25,156.50C630.28,157.05 627.17,158.66 623.35,160.07C619.52,161.48 614.38,164.02 611.92,165.71C609.46,167.40 605.51,170.89 603.14,173.46C600.77,176.04 597.53,180.92 595.95,184.32C594.36,187.72 592.77,193.20 592.41,196.50C592.06,199.80 591.14,203.50 590.38,204.71C589.62,205.93 589.00,207.85 589.00,208.98C589.00,210.11 589.56,212.82 590.24,215.02C590.93,217.21 591.77,219.00 592.12,219.00C592.47,219.00 593.32,218.32 594.00,217.50C594.68,216.68 596.40,216.00 597.82,216.00C599.23,216.00 602.10,214.81 604.20,213.36C606.29,211.91 608.00,210.34 608.00,209.86C608.00,209.39 609.46,209.00 611.25,208.99C613.04,208.98 616.96,207.83 619.97,206.43C624.17,204.48 625.10,203.67 623.97,202.96C623.16,202.45 621.60,202.02 620.50,202.01C619.40,202.00 616.81,201.52 614.75,200.95C612.24,200.25 610.52,198.96 609.53,197.05C608.22,194.53 608.23,194.06 609.57,192.94C610.45,192.21 613.66,191.70 617.13,191.74C622.92,191.79 623.22,191.67 624.19,188.90C625.07,186.37 625.69,186.00 629.10,186.00C631.46,186.00 633.00,185.53 633.00,184.80C633.00,184.15 631.77,182.33 630.27,180.76C627.98,178.37 627.77,177.75 629.02,176.97C629.83,176.45 631.64,176.02 633.03,176.02C634.42,176.01 636.56,175.30 637.78,174.44C639.00,173.59 640.00,172.26 640.00,171.50C640.00,170.74 639.13,169.51 638.07,168.76C637.01,168.02 636.04,166.31 635.91,164.95C635.79,163.60 635.76,161.47 635.84,160.20C635.98,158.15 636.36,157.98 639.46,158.56C642.92,159.21 642.92,159.21 641.96,155.86C641.43,154.02 641.00,151.01 641.00,149.17C641.00,145.82 641.00,145.82 645.00,146.50C647.99,147.00 649.03,146.84 649.12,145.84C649.18,145.10 649.14,143.82 649.03,143.00C648.92,142.18 647.51,139.51 645.91,137.08C644.31,134.65 643.00,131.83 643.00,130.83C643.00,129.42 643.77,129.00 646.39,129.00C648.36,129.00 650.01,128.42 650.32,127.62C650.61,126.86 650.19,124.33 649.39,122.01C648.59,119.68 648.20,116.93 648.53,115.89C648.86,114.85 649.74,114.00 650.49,114.00C651.24,114.00 652.31,112.54 652.87,110.75C653.44,108.96 654.61,104.67 655.49,101.22C656.36,97.77 657.58,93.83 658.20,92.47C658.81,91.11 659.65,90.00 660.05,90.00C660.46,90.00 661.10,90.79 661.49,91.75C661.87,92.71 663.72,98.67 665.59,104.98C667.62,111.82 669.00,118.64 669.00,121.84C669.00,127.22 669.00,127.22 672.50,126.57C675.45,126.01 676.00,126.19 675.99,127.70C675.99,128.69 674.88,131.30 673.53,133.50C672.17,135.70 671.05,138.72 671.03,140.21C671.01,141.70 671.62,143.50 672.37,144.20C673.52,145.28 673.50,145.83 672.26,147.73C671.25,149.27 670.99,151.13 671.44,153.54C671.89,155.93 672.89,157.45 674.49,158.18C676.42,159.06 677.68,158.85 681.06,157.09C683.36,155.89 685.32,155.04 685.42,155.20C685.52,155.37 686.13,156.74 686.78,158.25C687.46,159.84 688.74,161.00 689.82,161.00C690.84,161.00 692.19,162.12 692.82,163.50C693.44,164.88 694.54,166.00 695.25,166.00C695.97,166.00 698.46,163.37 700.80,160.16C703.14,156.95 706.42,153.02 708.11,151.41C711.16,148.50 711.16,148.50 713.58,151.50C714.90,153.15 715.99,155.11 716.00,155.86C716.00,156.61 712.84,160.15 708.97,163.73C705.11,167.31 700.79,172.21 699.37,174.63C697.96,177.04 696.24,180.93 695.55,183.26C694.52,186.75 694.55,188.09 695.69,190.84C696.74,193.37 697.50,194.02 698.79,193.51C699.73,193.13 701.97,192.58 703.77,192.28C705.58,191.98 707.28,191.35 707.57,190.89C707.85,190.43 706.83,189.76 705.29,189.39C703.76,189.02 702.13,188.51 701.67,188.26C701.22,188.00 701.81,186.89 702.99,185.80C704.16,184.70 705.55,182.68 706.08,181.30C706.72,179.61 707.53,178.99 708.59,179.39C709.44,179.72 711.05,179.51 712.16,178.92C713.27,178.32 715.30,176.86 716.67,175.67C718.05,174.48 720.33,171.14 721.74,168.26C723.15,165.39 725.19,162.24 726.26,161.26C728.15,159.56 728.31,159.62 731.09,162.94C732.67,164.84 734.71,168.66 735.61,171.44C736.51,174.22 738.03,177.40 738.99,178.50C740.23,179.92 740.60,181.59 740.26,184.25C739.84,187.53 740.04,188.00 741.86,188.00C743.00,188.00 745.47,186.65 747.35,185.00C749.23,183.34 752.38,181.32 754.35,180.50C756.32,179.67 759.03,179.00 760.36,179.00C761.69,179.00 763.03,179.63 763.32,180.40C763.62,181.18 763.60,214.20 763.27,253.78C762.68,325.75 762.68,325.75 739.09,326.45C726.12,326.83 697.50,327.10 675.50,327.04C653.50,326.99 613.23,326.45 586.00,325.84C558.77,325.24 532.63,324.99 527.90,325.29C522.58,325.64 516.28,326.86 511.40,328.50C507.05,329.95 499.66,333.16 494.97,335.63C490.28,338.10 483.30,342.82 479.47,346.11C475.64,349.40 470.86,352.96 468.86,354.01C466.86,355.06 462.36,356.37 458.86,356.92C455.36,357.47 445.07,358.85 436.00,359.99C426.93,361.13 416.13,362.98 412.02,364.09C407.90,365.21 400.82,367.86 396.28,369.99C391.74,372.12 384.14,376.39 379.41,379.48C374.67,382.56 369.37,385.33 367.65,385.62zM237.99,384.72C232.66,384.87 228.05,384.43 225.60,383.54C223.45,382.77 221.33,381.54 220.89,380.82C220.41,380.04 220.61,378.96 221.37,378.20C222.40,377.17 224.66,377.10 232.09,377.87C237.26,378.40 242.77,379.33 244.32,379.92C246.20,380.64 247.03,381.59 246.81,382.75C246.53,384.23 245.17,384.53 237.99,384.72zM34.19,380.87C31.61,380.79 27.38,380.44 24.79,380.08C22.20,379.71 19.78,379.12 19.42,378.75C19.05,378.39 19.04,377.33 19.40,376.41C19.94,375.00 21.06,374.81 26.27,375.24C29.70,375.52 34.22,376.47 36.32,377.35C38.42,378.24 39.86,379.42 39.51,379.98C39.17,380.54 36.77,380.94 34.19,380.87zM399.08,356.36C401.05,356.10 404.42,355.25 406.58,354.48C408.74,353.72 409.94,353.07 409.26,353.04C408.58,353.02 397.10,351.43 383.76,349.52C370.42,347.60 349.82,344.88 338.00,343.48C326.18,342.07 309.07,339.81 300.00,338.46C290.93,337.11 281.25,336.05 278.50,336.11C273.50,336.22 273.50,336.22 280.77,338.02C284.76,339.02 300.51,341.89 315.77,344.40C331.02,346.91 351.82,350.17 362.00,351.63C372.18,353.10 383.88,354.86 388.00,355.56C392.12,356.26 397.11,356.62 399.08,356.36zM760.67,342.00C759.38,342.00 758.14,341.81 757.91,341.58C757.68,341.34 753.49,340.45 748.60,339.60C743.72,338.75 739.48,337.81 739.19,337.53C738.90,337.24 738.86,336.80 739.10,336.56C739.34,336.32 743.80,335.43 749.02,334.57C754.23,333.71 759.51,332.73 760.75,332.39C762.87,331.80 763.00,332.06 763.00,336.88C763.00,341.58 762.81,342.00 760.67,342.00zM710.25,317.84C711.21,317.93 712.00,317.79 712.00,317.53C712.00,317.26 710.67,316.36 709.05,315.53C707.43,314.69 704.05,314.00 701.55,314.00C699.05,314.00 697.00,314.44 697.00,314.98C697.00,315.52 698.01,316.19 699.25,316.46C700.49,316.74 703.08,317.12 705.00,317.32C706.92,317.52 709.29,317.75 710.25,317.84zM597.25,304.67C599.59,304.37 603.08,303.85 605.00,303.51C606.92,303.17 609.52,302.68 610.76,302.42C612.93,301.98 612.87,301.83 609.44,298.81C606.54,296.27 606.14,295.50 607.35,294.83C608.17,294.36 612.37,293.32 616.67,292.51C620.98,291.70 629.90,290.83 636.50,290.58C643.10,290.33 648.70,290.10 648.95,290.06C649.20,290.03 648.91,289.51 648.30,288.90C647.70,288.30 644.35,287.38 640.85,286.87C637.36,286.36 631.69,285.67 628.25,285.35C624.81,285.03 622.00,284.55 622.00,284.29C622.00,284.03 622.90,282.67 624.00,281.27C625.10,279.87 626.00,278.15 626.00,277.44C626.00,276.74 627.24,275.93 628.75,275.64C630.26,275.36 634.54,274.83 638.25,274.48C641.96,274.13 645.00,273.54 645.00,273.17C644.99,272.80 644.07,270.99 642.94,269.14C641.81,267.29 641.09,265.58 641.33,265.34C641.57,265.10 644.82,265.61 648.56,266.48C653.92,267.72 655.51,267.79 656.12,266.81C656.73,265.81 657.64,265.83 660.55,266.88C662.95,267.75 666.04,267.98 669.54,267.54C674.02,266.98 674.93,266.52 675.19,264.69C675.46,262.81 676.29,262.43 681.00,262.00C686.50,261.50 686.50,261.50 682.85,259.75C680.84,258.79 678.69,258.00 678.06,258.00C677.44,258.00 675.80,258.74 674.41,259.65C672.03,261.21 671.74,261.18 668.99,259.15C667.39,257.97 664.95,257.00 663.57,257.00C662.18,257.00 658.90,256.00 656.28,254.77C653.65,253.54 651.27,252.38 651.00,252.18C650.73,251.98 651.85,250.73 653.50,249.40C655.15,248.07 658.30,246.48 660.50,245.88C662.70,245.28 664.81,244.30 665.18,243.70C665.56,243.10 668.20,242.50 671.07,242.37C673.93,242.24 677.58,241.59 679.17,240.93C681.54,239.95 682.75,240.02 685.79,241.29C687.83,242.15 693.69,243.11 698.80,243.42C704.78,243.78 707.89,243.63 707.50,243.00C707.17,242.47 705.01,240.92 702.70,239.58C700.39,238.23 696.02,236.25 693.00,235.17C689.98,234.08 686.20,232.90 684.61,232.54C682.50,232.07 682.01,231.59 682.81,230.79C683.58,230.02 683.60,229.11 682.88,227.77C682.31,226.71 682.11,225.16 682.43,224.33C682.89,223.12 684.02,222.95 688.01,223.50C692.72,224.15 693.19,224.01 695.91,221.10C698.03,218.82 699.69,218.00 702.15,218.01C703.99,218.01 706.85,218.90 708.50,219.99C710.15,221.08 712.20,221.75 713.05,221.48C713.90,221.21 716.76,222.37 719.41,224.05C722.06,225.73 724.44,226.89 724.70,226.64C724.95,226.38 724.66,225.24 724.05,224.10C723.44,222.95 719.24,219.25 714.72,215.87C710.20,212.49 704.66,208.90 702.40,207.88C700.15,206.87 695.20,205.31 691.40,204.42C687.03,203.40 682.12,202.98 678.00,203.28C674.42,203.55 668.92,204.75 665.76,205.95C662.61,207.15 657.36,209.92 654.10,212.09C650.84,214.27 645.74,218.40 642.78,221.28C639.82,224.15 635.46,229.36 633.09,232.86C630.71,236.36 627.47,242.09 625.89,245.59C624.28,249.12 623.00,253.69 623.00,255.86C623.00,258.93 623.43,259.88 625.00,260.29C626.10,260.58 627.00,261.51 627.00,262.36C627.00,263.27 623.77,265.58 619.09,268.01C613.82,270.76 609.30,274.10 605.53,278.05C601.94,281.82 598.66,286.62 596.54,291.24C594.70,295.23 593.10,299.62 592.98,301.00C592.87,302.38 592.83,303.88 592.89,304.35C592.95,304.82 594.91,304.96 597.25,304.67zM94.25,296.91C94.66,296.96 95.00,296.37 95.00,295.61C95.00,294.84 93.19,293.49 90.98,292.61C88.77,291.72 85.20,291.00 83.04,291.00C80.88,291.00 78.86,291.42 78.54,291.93C78.23,292.44 78.43,293.15 78.99,293.50C79.56,293.84 83.05,294.73 86.76,295.47C90.47,296.21 93.84,296.85 94.25,296.91zM539.29,290.68C543.02,290.45 546.36,289.98 546.70,289.63C547.05,289.28 547.06,288.73 546.73,288.40C546.40,288.07 545.09,287.80 543.81,287.80C542.54,287.80 538.88,288.14 535.68,288.55C531.74,289.05 530.28,289.59 531.18,290.20C531.91,290.70 535.55,290.91 539.29,290.68zM164.82,284.94C165.00,284.46 163.78,282.09 162.11,279.67C160.45,277.24 157.38,273.89 155.29,272.22C153.21,270.54 151.76,268.91 152.07,268.60C152.38,268.28 157.33,268.92 163.05,270.01C168.78,271.10 175.50,272.67 177.98,273.51C180.47,274.34 184.48,276.59 186.89,278.51C189.31,280.43 191.89,282.00 192.64,282.00C193.39,282.00 194.00,281.59 194.00,281.09C194.00,280.58 191.64,278.29 188.75,275.98C185.86,273.68 181.46,270.75 178.96,269.48C176.46,268.22 171.96,266.47 168.96,265.61C165.96,264.75 156.53,262.67 148.00,261.00C137.28,258.89 130.34,256.93 125.48,254.64C121.63,252.81 114.69,248.77 110.06,245.66C105.44,242.55 102.22,240.00 102.91,240.00C103.60,240.00 107.84,240.92 112.33,242.04C116.83,243.17 123.42,245.02 127.00,246.16C130.57,247.30 138.00,249.97 143.50,252.09C149.00,254.20 159.35,257.57 166.50,259.57C177.30,262.59 181.70,263.29 192.50,263.75C199.65,264.05 220.57,263.77 239.00,263.12C257.43,262.47 278.46,261.68 285.75,261.37C293.03,261.05 298.75,260.41 298.46,259.94C298.17,259.46 296.48,258.86 294.71,258.59C292.95,258.33 286.49,257.36 280.37,256.44C274.25,255.52 268.63,254.37 267.87,253.88C266.79,253.19 266.76,252.83 267.76,252.19C268.45,251.74 273.85,250.35 279.76,249.09C285.66,247.84 293.88,245.34 298.00,243.54C302.12,241.73 307.07,239.78 309.00,239.20C310.93,238.62 314.52,237.86 317.00,237.52C321.14,236.96 321.35,237.03 319.60,238.42C318.56,239.26 314.06,241.33 309.60,243.04C305.15,244.74 300.15,246.36 298.50,246.64C296.85,246.91 294.49,247.34 293.25,247.58C292.01,247.83 291.00,248.65 291.00,249.40C291.00,250.15 292.01,251.04 293.25,251.37C294.49,251.70 301.21,251.98 308.18,251.99C320.51,252.00 321.00,251.92 325.68,249.03C328.33,247.40 333.54,244.92 337.25,243.54C340.96,242.15 344.00,241.46 344.00,242.01C344.00,242.55 344.52,243.00 345.15,243.00C345.78,243.00 350.26,240.65 355.11,237.77C359.97,234.89 363.61,232.23 363.22,231.87C362.82,231.50 353.50,230.95 342.50,230.65C331.50,230.35 308.55,229.66 291.50,229.12C274.45,228.57 256.45,227.66 251.50,227.09C246.55,226.52 233.28,225.61 222.00,225.08C210.72,224.55 188.90,223.84 173.50,223.51C158.10,223.17 138.75,222.45 130.50,221.91C122.25,221.36 105.51,219.82 93.29,218.48C81.08,217.15 61.50,215.33 49.79,214.44C38.08,213.56 24.68,212.53 20.00,212.17C15.32,211.80 10.24,211.64 8.69,211.82C7.14,212.00 6.05,212.65 6.26,213.29C6.47,213.91 11.04,216.15 16.41,218.26C21.79,220.37 28.64,222.56 31.65,223.11C34.66,223.67 37.88,223.96 38.81,223.76C40.08,223.48 39.62,222.84 37.00,221.20C33.71,219.14 33.65,219.01 35.99,219.00C37.35,219.00 43.20,219.64 48.99,220.42C54.77,221.20 64.00,222.35 69.50,222.98C75.00,223.61 82.88,225.05 87.00,226.18C91.12,227.30 95.74,228.86 97.25,229.64C98.76,230.42 100.00,231.44 100.00,231.90C100.00,232.37 98.60,233.34 96.90,234.04C94.30,235.12 92.07,235.05 83.31,233.63C77.54,232.70 68.68,231.66 63.61,231.33C58.15,230.97 51.58,231.20 47.45,231.91C43.63,232.56 39.63,233.35 38.57,233.67C36.79,234.21 36.83,234.36 39.15,235.57C40.54,236.30 46.00,237.59 51.28,238.44C56.56,239.29 63.05,240.70 65.69,241.58C68.34,242.46 72.30,244.23 74.50,245.51C76.70,246.79 80.15,249.56 82.16,251.67C84.17,253.78 85.97,256.40 86.16,257.50C86.40,258.92 89.57,261.01 97.00,264.68C102.78,267.54 109.39,270.35 111.69,270.93C114.00,271.52 116.36,272.00 116.94,272.00C117.52,272.00 118.00,271.13 118.00,270.06C118.00,268.99 117.55,267.84 117.00,267.50C116.45,267.16 116.00,266.49 116.00,266.00C116.00,265.52 117.93,265.78 120.29,266.58C122.66,267.39 126.89,270.06 129.71,272.52C133.93,276.22 135.52,277.00 138.81,277.00C141.00,277.00 145.65,277.91 149.14,279.03C152.64,280.14 157.53,282.13 160.00,283.44C162.47,284.75 164.64,285.42 164.82,284.94zM520.00,285.09C521.38,284.87 524.17,283.58 526.21,282.24C528.47,280.75 532.17,279.53 535.71,279.11C538.89,278.73 542.06,278.08 542.75,277.65C543.44,277.23 544.00,276.46 544.00,275.94C544.00,275.42 543.10,275.00 542.00,275.00C540.90,275.00 540.00,274.50 540.00,273.88C540.00,273.16 540.80,273.04 542.25,273.54C543.49,273.97 549.18,274.40 554.90,274.51C560.62,274.61 567.11,274.17 569.32,273.51C571.53,272.86 572.92,272.08 572.42,271.77C571.91,271.47 568.76,270.46 565.41,269.52C562.05,268.59 558.16,266.85 556.74,265.66C555.33,264.47 553.89,262.51 553.54,261.30C552.97,259.35 553.49,258.93 558.13,257.55C561.01,256.70 566.49,256.00 570.30,256.00C576.65,256.00 577.13,255.86 575.87,254.34C575.12,253.43 572.25,251.63 569.50,250.35C566.75,249.07 563.15,248.00 561.50,247.98C558.98,247.94 559.39,247.62 564.00,246.00C567.02,244.94 571.21,244.05 573.31,244.03C575.40,244.01 579.00,244.47 581.31,245.06C584.89,245.96 586.20,245.80 590.31,243.98C594.27,242.23 594.91,241.60 593.94,240.43C593.12,239.44 590.61,239.00 585.88,239.00C582.02,239.00 579.00,238.57 579.00,238.01C579.00,237.47 580.86,235.78 583.14,234.26C585.42,232.74 588.23,230.93 589.39,230.22C590.55,229.52 593.75,229.01 596.50,229.10C599.25,229.18 602.51,229.19 603.75,229.12C604.99,229.06 606.00,228.64 606.00,228.20C606.00,227.75 602.74,225.72 598.75,223.68C592.14,220.30 590.79,219.97 583.50,220.00C579.10,220.02 572.52,220.67 568.87,221.44C565.22,222.21 559.88,224.04 556.99,225.51C554.10,226.97 549.53,230.38 546.82,233.08C544.12,235.78 540.82,240.34 539.49,243.21C537.49,247.55 536.22,248.86 531.99,251.00C529.20,252.42 524.28,256.18 521.06,259.36C517.84,262.54 513.82,267.73 512.14,270.88C510.46,274.04 508.79,278.48 508.42,280.75C507.76,284.88 507.76,284.88 512.63,285.19C515.31,285.36 518.62,285.32 520.00,285.09zM420.50,272.75C428.75,272.81 436.39,272.51 437.48,272.08C439.22,271.41 439.03,271.17 435.98,270.18C434.07,269.57 430.60,268.76 428.27,268.40C425.94,268.05 423.24,267.15 422.27,266.41C420.66,265.18 420.75,265.06 423.35,265.03C424.91,265.01 427.56,264.03 429.22,262.84C431.05,261.54 434.29,260.52 437.38,260.27C440.19,260.04 443.11,259.65 443.86,259.41C445.01,259.04 445.01,258.72 443.86,257.33C442.62,255.82 442.97,255.72 448.04,256.24C451.09,256.56 454.35,256.38 455.29,255.86C456.23,255.33 457.00,253.97 457.00,252.84C457.00,251.01 457.41,250.85 460.75,251.44C462.81,251.81 465.18,252.30 466.00,252.53C466.82,252.76 468.15,252.55 468.94,252.05C469.97,251.40 470.11,250.61 469.44,249.23C468.92,248.17 465.42,244.55 461.66,241.17C456.81,236.81 453.35,234.59 449.73,233.51C446.93,232.68 441.91,232.01 438.57,232.02C434.59,232.04 430.60,232.83 427.00,234.31C423.98,235.56 418.80,238.44 415.50,240.72C412.20,243.00 407.22,247.03 404.43,249.68C401.64,252.33 397.29,257.43 394.77,261.00C392.25,264.57 390.04,268.40 389.85,269.50C389.53,271.33 390.20,271.55 397.50,272.07C401.90,272.38 412.25,272.68 420.50,272.75zM78.17,270.00C79.17,270.00 80.00,269.39 80.00,268.65C80.00,267.92 79.20,266.58 78.21,265.69C77.23,264.80 74.78,263.39 72.78,262.55C70.77,261.71 66.00,260.74 62.18,260.38C58.36,260.02 53.54,260.05 51.48,260.44C49.42,260.82 48.14,261.49 48.62,261.93C49.10,262.36 51.85,263.46 54.72,264.37C57.60,265.28 63.40,266.68 67.62,267.49C71.84,268.30 75.53,269.19 75.81,269.48C76.10,269.77 77.16,270.00 78.17,270.00zM353.50,209.00C356.79,209.00 358.00,208.60 358.00,207.54C358.00,206.73 357.04,205.56 355.87,204.93C354.33,204.11 353.10,204.09 351.37,204.88C350.07,205.47 349.00,206.64 349.00,207.48C349.00,208.62 350.14,209.00 353.50,209.00zM433.58,203.61C434.28,203.34 436.44,202.82 438.37,202.46C441.89,201.80 441.89,201.80 442.19,189.65C442.36,182.97 442.25,177.16 441.95,176.75C441.65,176.34 439.06,177.21 436.20,178.68C431.08,181.32 431.00,181.43 431.01,185.93C431.01,188.44 431.30,193.56 431.66,197.30C432.12,202.23 432.65,203.96 433.58,203.61zM496.74,179.00C495.70,179.00 494.71,177.76 494.14,175.75C493.29,172.76 493.51,172.24 496.83,169.31C500.44,166.13 500.44,166.13 498.72,161.31C497.77,158.67 496.99,155.68 497.00,154.67C497.00,153.16 497.52,152.96 500.00,153.50C502.07,153.95 503.16,153.75 503.50,152.83C503.78,152.10 502.88,149.29 501.50,146.58C500.13,143.87 499.00,140.82 499.00,139.79C499.00,138.18 499.51,138.01 502.49,138.56C505.16,139.06 506.12,138.85 506.58,137.65C506.91,136.79 506.00,133.57 504.55,130.51C503.10,127.45 502.19,124.51 502.52,123.97C502.85,123.44 503.75,123.00 504.52,123.00C505.30,123.00 506.32,122.21 506.80,121.25C507.29,120.29 509.17,114.20 510.99,107.72C512.81,101.24 514.76,96.09 515.32,96.27C515.89,96.46 517.09,98.84 518.00,101.56C518.91,104.28 520.95,111.53 522.53,117.68C525.04,127.42 525.24,129.18 524.09,131.33C523.36,132.70 523.07,134.30 523.44,134.90C523.81,135.51 525.11,136.00 526.33,136.00C528.39,136.00 528.55,136.48 528.69,143.25C528.77,147.24 529.02,153.14 529.25,156.37C529.58,161.12 530.12,162.58 532.07,164.05C533.39,165.05 534.22,166.11 533.91,166.42C533.61,166.72 529.57,167.68 524.93,168.55C519.41,169.59 513.38,171.66 507.46,174.57C502.49,177.01 497.67,179.00 496.74,179.00z" />

</svg>