<?xml version="1.0" encoding="UTF-8" standalone="no"?>
<svg 
  version="1.1" 
  xmlns="http://www.w3.org/2000/svg" 
  xmlns:xlink="http://www.w3.org/1999/xlink" 
  xmlns:svg="http://www.w3.org/2000/svg"
  xmlns:rdf="http://www.w3.org/1999/02/22-rdf-syntax-ns#"
  xmlns:cc="http://creativecommons.org/ns#"
  xmlns:dc="http://purl.org/dc/elements/1.1/"
  viewBox="0 0 768 768"
  width="768"
  height="768"
>
<style>svg {background-color: white; }</style>"
<metadata id="metadata1">
Created by https://svgstud.io and licensed under CC-BY-SA 4.0 license. Please attribute https://svgstud.io
</metadata>
<metadata id="prompt">
riverbed from above
</metadata>
<metadata id="version">
7
</metadata>
<metadata id="metadata2">
<rdf:RDF>
<cc:Work
    rdf:about="">
    <cc:license
    rdf:resource="http://creativecommons.org/licenses/by-sa/4.0/" />
    <dc:creator>
        <cc:Agent>
            <dc:title>https://svgstud.io</dc:title>
        </cc:Agent>
    </dc:creator>
</cc:Work>
<cc:License
    rdf:about="http://creativecommons.org/licenses/by-sa/4.0/">
    <cc:permits
    rdf:resource="http://creativecommons.org/ns#Reproduction" />
    <cc:permits
    rdf:resource="http://creativecommons.org/ns#Distribution" />
    <cc:requires
    rdf:resource="http://creativecommons.org/ns#Notice" />
    <cc:requires
    rdf:resource="http://creativecommons.org/ns#Attribution" />
    <cc:permits
    rdf:resource="http://creativecommons.org/ns#DerivativeWorks" />
    <cc:requires
    rdf:resource="http://creativecommons.org/ns#ShareAlike" />
</cc:License>
</rdf:RDF>
</metadata>
<metadata id="uid">
19c24a40979ce66caab45952df1fcf5b477e4a8ec9cd02d33c5002e749ce1138
</metadata>
<path stroke="none" fill="black" fill-rule="evenodd" d="M164.63,767.96C108.00,767.93 98.00,767.71 95.03,766.42C93.12,765.59 86.29,761.76 79.84,757.91C73.40,754.05 64.39,747.60 59.81,743.56C55.24,739.53 49.25,734.02 46.50,731.33C43.75,728.63 39.34,723.86 36.70,720.73C34.07,717.60 29.09,710.79 25.64,705.60C22.19,700.40 18.76,694.30 18.01,692.04C16.66,687.93 16.66,687.93 21.08,683.37C23.51,680.86 29.77,675.19 35.00,670.77C40.23,666.35 49.22,659.60 55.00,655.75C60.78,651.91 71.35,645.94 78.50,642.48C85.65,639.02 95.55,634.63 100.50,632.71C105.45,630.79 114.45,627.85 120.50,626.16C126.55,624.48 137.57,621.75 145.00,620.10C152.43,618.45 164.12,616.15 171.00,614.99C177.88,613.83 187.55,611.99 192.50,610.90C197.45,609.81 204.43,608.00 208.00,606.88C211.57,605.75 217.65,603.69 221.50,602.28C225.35,600.88 232.78,597.95 238.00,595.77C243.22,593.60 251.78,589.55 257.00,586.77C262.23,584.00 270.32,579.26 275.00,576.24C279.68,573.22 286.43,568.45 290.00,565.65C293.57,562.85 299.81,557.62 303.86,554.03C307.90,550.44 314.36,543.90 318.22,539.50C322.07,535.10 327.45,528.21 330.18,524.19C332.91,520.17 336.45,514.11 338.05,510.73C339.65,507.35 341.70,501.24 342.61,497.15C343.77,491.94 344.10,487.29 343.71,481.61C343.40,477.15 342.17,470.66 340.96,467.19C339.76,463.72 336.20,456.97 333.05,452.19C329.90,447.41 324.52,440.35 321.09,436.50C317.67,432.65 312.08,426.86 308.68,423.64C305.28,420.41 298.68,414.56 294.00,410.63C289.32,406.70 281.90,400.95 277.50,397.86C273.10,394.76 265.45,389.69 260.50,386.58C255.55,383.48 250.19,380.16 248.59,379.22C246.99,378.27 241.29,374.23 235.91,370.24C230.54,366.24 222.04,358.59 217.03,353.24C210.65,346.42 206.78,341.24 204.11,335.94C200.96,329.68 200.19,326.93 199.63,319.94C199.13,313.69 199.36,309.96 200.52,305.56C201.37,302.29 203.06,298.01 204.27,296.06C205.47,294.10 208.77,289.77 211.59,286.44C214.41,283.11 217.18,279.51 217.74,278.44C218.34,277.30 218.42,275.59 217.93,274.29C217.47,273.08 214.94,270.99 212.30,269.66C209.66,268.34 204.25,266.08 200.28,264.66C196.31,263.23 190.91,260.94 188.28,259.57C185.65,258.19 182.52,256.27 181.32,255.29C180.12,254.30 177.91,250.35 176.42,246.50C174.92,242.65 172.75,238.44 171.60,237.14C170.44,235.84 166.88,232.99 163.68,230.80C160.47,228.62 154.85,225.59 151.18,224.08C147.50,222.57 139.78,219.87 134.00,218.07C128.22,216.28 120.21,213.72 116.19,212.39C112.17,211.06 106.65,208.84 103.91,207.45C101.09,206.03 98.09,203.55 96.99,201.75C95.93,200.00 94.78,196.70 94.43,194.41C93.81,190.26 93.81,190.26 85.66,188.05C81.17,186.83 74.89,184.68 71.71,183.26C68.52,181.85 64.81,179.37 63.46,177.77C61.18,175.06 61.00,174.06 61.00,164.00C61.00,153.65 61.12,153.01 63.73,149.91C65.23,148.12 68.40,145.44 70.76,143.94C73.12,142.44 76.63,139.15 78.55,136.63C80.48,134.12 83.99,130.92 86.36,129.53C88.73,128.14 90.87,127.00 91.11,127.00C91.36,127.00 91.38,128.80 91.17,131.00C90.90,133.84 91.17,135.00 92.11,135.00C92.84,135.00 95.37,134.26 97.74,133.36C100.11,132.45 102.32,131.98 102.65,132.32C102.98,132.65 101.89,135.08 100.22,137.71C98.55,140.35 96.49,144.19 95.64,146.25C94.79,148.31 94.42,149.99 94.80,149.98C95.19,149.97 96.62,149.08 98.00,148.00C99.38,146.92 101.62,146.05 103.00,146.06C104.38,146.06 106.40,146.84 107.50,147.78C108.60,148.73 110.30,150.74 111.27,152.25C112.25,153.76 113.84,155.00 114.82,155.00C115.79,155.00 119.25,152.75 122.50,150.00C125.75,147.25 128.95,145.00 129.60,145.00C130.25,145.00 131.06,145.71 131.39,146.58C131.73,147.45 132.00,149.00 132.00,150.02C132.00,151.05 132.43,152.15 132.96,152.48C133.49,152.80 134.84,151.27 135.96,149.08C137.08,146.88 138.00,144.09 138.00,142.88C138.00,140.74 138.05,140.73 140.04,142.54C141.16,143.55 143.41,147.17 145.04,150.58C146.67,154.00 148.00,157.56 148.00,158.51C148.00,159.46 149.63,161.73 151.63,163.56C153.87,165.61 155.04,167.45 154.69,168.38C154.37,169.20 150.82,171.44 146.81,173.36C142.79,175.28 136.03,177.56 131.79,178.43C127.55,179.29 122.83,180.01 121.29,180.02C119.76,180.02 117.92,180.40 117.21,180.85C116.40,181.36 119.01,182.30 124.21,183.36C128.77,184.30 134.70,185.45 137.39,185.93C140.50,186.48 143.38,186.42 145.28,185.75C147.11,185.11 152.33,184.96 158.80,185.36C165.13,185.74 173.28,187.06 179.19,188.65C184.61,190.10 189.32,191.01 189.66,190.67C190.00,190.33 189.73,189.38 189.06,188.57C188.38,187.76 185.75,185.87 183.20,184.38C179.16,182.01 178.83,181.57 180.54,180.89C181.62,180.46 187.34,179.82 193.25,179.46C199.16,179.10 204.00,178.44 204.00,177.98C204.00,177.53 201.86,175.28 199.25,172.98C194.50,168.80 194.50,168.80 199.82,169.36C202.74,169.67 206.69,170.88 208.58,172.05C210.47,173.22 213.14,176.09 214.51,178.42C215.88,180.76 217.00,184.04 217.00,185.70C217.00,187.37 216.07,189.92 214.93,191.37C213.79,192.82 210.93,195.13 208.57,196.51C206.22,197.89 201.00,200.14 196.99,201.50C192.97,202.87 185.82,204.49 181.09,205.10C176.37,205.71 170.96,206.73 169.08,207.37C167.20,208.00 165.50,209.00 165.31,209.58C165.11,210.17 167.26,211.18 170.08,211.83C172.89,212.48 181.79,215.43 189.85,218.38C197.91,221.33 209.78,225.42 216.24,227.48C222.69,229.53 230.02,232.57 232.53,234.23C235.10,235.93 237.94,238.92 239.04,241.08C240.12,243.19 241.00,246.65 241.00,248.76C241.00,250.90 239.84,254.93 238.40,257.83C236.97,260.70 231.82,267.27 226.96,272.43C222.10,277.59 216.89,284.22 215.38,287.16C213.48,290.85 212.63,294.05 212.61,297.50C212.59,301.16 213.37,303.97 215.54,308.00C217.17,311.02 221.89,316.88 226.05,321.00C230.20,325.12 237.50,331.10 242.26,334.29C247.02,337.47 256.45,342.73 263.21,345.98C271.99,350.20 279.92,353.07 291.00,356.02C299.52,358.29 310.10,361.29 314.50,362.69C318.90,364.08 327.00,367.41 332.50,370.08C338.00,372.76 345.64,377.32 349.47,380.22C353.65,383.39 357.65,387.47 359.47,390.43C362.50,395.35 362.50,395.35 362.50,415.44C362.50,435.53 362.50,435.53 365.92,442.51C368.87,448.56 371.87,452.00 388.08,468.00C399.53,479.30 408.40,488.96 410.85,492.81C413.07,496.28 415.89,502.13 417.13,505.81C418.69,510.43 419.36,514.67 419.30,519.50C419.24,523.86 418.41,528.74 417.09,532.43C415.93,535.70 413.36,541.32 411.37,544.93C409.39,548.55 404.95,555.10 401.50,559.50C398.06,563.90 392.15,570.45 388.37,574.05C384.59,577.65 377.68,583.53 373.00,587.13C368.32,590.72 360.45,596.38 355.50,599.71C350.55,603.05 342.84,608.05 338.36,610.82C333.88,613.60 325.11,618.58 318.86,621.88C312.61,625.18 303.68,629.53 299.00,631.53C294.32,633.53 280.15,638.69 267.50,643.00C254.85,647.30 239.31,652.83 232.97,655.29C226.63,657.74 218.30,661.33 214.47,663.25C210.64,665.17 200.97,669.11 193.00,672.01C185.03,674.91 175.07,678.73 170.88,680.50C166.69,682.26 158.43,686.30 152.53,689.46C146.63,692.63 137.43,698.50 132.10,702.52C126.77,706.53 119.37,713.04 115.66,716.98C111.95,720.91 107.94,726.12 106.77,728.55C105.59,730.97 104.93,733.27 105.32,733.65C105.70,734.03 107.02,733.41 108.25,732.28C109.49,731.14 112.08,729.26 114.00,728.11C115.92,726.95 118.32,726.01 119.32,726.00C120.95,726.00 121.07,726.59 120.46,731.50C119.88,736.12 120.02,737.00 121.34,737.00C122.20,737.00 125.61,733.45 128.91,729.11C132.22,724.78 136.73,719.67 138.95,717.77C141.17,715.87 144.73,713.80 146.86,713.16C148.99,712.52 151.69,712.00 152.87,712.00C154.04,712.00 155.00,712.31 155.00,712.69C155.00,713.06 153.28,715.43 151.17,717.94C149.06,720.45 146.53,723.75 145.54,725.28C144.54,726.81 144.04,728.38 144.43,728.76C144.81,729.15 147.69,728.53 150.81,727.39C155.00,725.87 157.21,725.56 159.18,726.22C161.44,726.98 162.70,726.55 167.03,723.57C169.87,721.62 173.84,719.53 175.85,718.93C177.86,718.33 180.99,717.98 182.82,718.17C186.14,718.50 186.14,718.50 182.71,722.50C180.83,724.70 177.82,729.11 176.02,732.30C174.23,735.48 172.99,738.33 173.28,738.61C173.56,738.90 176.24,737.75 179.23,736.07C182.22,734.38 184.97,733.00 185.34,733.00C185.72,733.00 184.42,736.20 182.45,740.10C180.48,744.01 179.03,747.36 179.22,747.56C179.42,747.75 182.71,745.39 186.54,742.31C190.37,739.23 197.09,734.03 201.48,730.75C205.86,727.48 213.46,722.78 218.35,720.32C223.24,717.87 230.68,714.52 234.87,712.90C239.07,711.27 247.45,708.58 253.50,706.91C260.78,704.90 267.97,703.68 274.76,703.30C285.02,702.71 285.02,702.71 288.36,698.06C290.20,695.50 294.13,691.34 297.10,688.82C300.07,686.30 305.43,682.35 309.00,680.05C312.57,677.75 318.80,674.30 322.82,672.38C326.85,670.47 339.23,665.31 350.32,660.92C361.42,656.53 377.25,650.19 385.50,646.83C393.75,643.47 406.57,637.65 414.00,633.91C421.43,630.16 434.48,622.89 443.00,617.75C451.52,612.60 463.19,605.04 468.92,600.95C474.65,596.85 484.27,588.79 490.29,583.02C496.32,577.26 503.38,569.39 505.98,565.52C508.59,561.66 511.87,556.22 513.29,553.43C514.70,550.64 516.61,545.46 517.53,541.93C518.70,537.44 519.07,532.94 518.78,527.00C518.47,520.92 517.62,516.71 515.78,512.22C514.37,508.77 511.70,503.45 509.85,500.39C508.01,497.34 503.45,491.53 499.73,487.49C496.00,483.44 489.25,477.24 484.73,473.71C480.20,470.17 471.55,464.08 465.50,460.15C459.45,456.23 452.48,451.80 450.00,450.32C447.52,448.83 442.12,445.12 438.00,442.07C433.88,439.02 426.36,432.45 421.29,427.47C414.76,421.05 411.34,416.80 409.53,412.86C407.87,409.23 406.47,403.38 405.50,395.99C404.37,387.41 403.37,383.60 401.36,380.18C399.91,377.70 395.81,372.79 392.24,369.28C388.44,365.54 377.96,357.73 366.87,350.39C356.48,343.50 346.36,336.21 344.38,334.19C342.41,332.16 339.94,328.83 338.90,326.79C337.85,324.75 337.00,321.35 337.00,319.24C337.00,316.66 338.03,313.75 340.10,310.45C341.81,307.73 344.10,304.53 345.20,303.33C347.19,301.17 347.19,301.17 344.76,299.58C343.42,298.70 335.16,296.36 326.41,294.38C317.66,292.39 308.14,289.89 305.26,288.82C302.38,287.74 297.88,285.40 295.26,283.62C292.64,281.83 289.71,278.82 288.75,276.93C287.79,275.05 287.00,271.56 287.00,269.19C287.00,266.82 287.49,262.93 288.09,260.54C288.70,258.15 290.44,254.99 291.97,253.53C294.75,250.87 294.75,250.87 295.36,253.31C295.72,254.72 297.13,256.19 298.74,256.81C300.26,257.40 305.87,258.04 311.21,258.23C316.55,258.43 321.25,258.92 321.65,259.32C322.05,259.72 320.41,262.05 318.00,264.50C315.59,266.95 313.92,269.26 314.29,269.62C314.65,269.99 319.80,269.54 325.73,268.64C331.65,267.73 338.79,266.99 341.58,266.99C344.38,267.00 346.98,267.31 347.36,267.69C347.73,268.07 346.15,270.31 343.83,272.67C341.52,275.03 339.84,277.18 340.11,277.45C340.38,277.71 346.65,277.48 354.05,276.93C361.45,276.38 370.43,275.61 374.00,275.20C380.50,274.47 380.50,274.47 373.25,270.61C369.26,268.49 366.00,266.39 366.00,265.94C366.00,265.50 366.79,264.91 367.75,264.64C368.71,264.37 372.43,263.86 376.00,263.52C379.57,263.18 385.88,262.27 390.00,261.50C394.12,260.73 399.98,259.73 403.00,259.28C408.50,258.47 408.50,258.47 404.00,255.84C401.52,254.40 397.78,252.68 395.67,252.01C392.20,250.91 391.64,250.99 389.52,252.98C388.24,254.18 385.46,255.57 383.35,256.06C381.23,256.55 377.74,256.96 375.58,256.98C373.43,256.99 368.81,256.50 365.31,255.89C361.82,255.29 357.99,254.00 356.80,253.04C354.64,251.29 354.64,251.29 358.07,248.13C360.56,245.83 362.25,245.06 364.25,245.31C366.10,245.54 367.00,245.20 367.00,244.26C367.00,243.50 366.53,241.99 365.96,240.92C365.12,239.36 365.28,238.84 366.71,238.31C367.69,237.94 368.83,237.16 369.23,236.57C369.64,235.98 369.98,234.26 369.98,232.75C369.99,231.00 370.54,230.00 371.48,230.00C372.29,230.00 373.69,228.88 374.59,227.50C375.49,226.12 376.65,225.00 377.17,225.00C377.69,225.00 379.24,227.47 380.63,230.50C382.01,233.52 383.69,236.00 384.35,236.00C385.01,236.00 386.60,235.27 387.88,234.37C390.21,232.74 390.21,232.74 389.70,237.62C389.42,240.30 388.87,243.74 388.48,245.25C387.87,247.59 388.07,248.00 389.82,248.00C390.96,248.00 392.16,247.55 392.50,247.00C392.87,246.40 399.32,246.00 408.50,246.00C416.96,246.00 424.13,245.60 424.43,245.11C424.73,244.62 422.85,242.79 420.24,241.04C415.50,237.85 415.50,237.85 427.25,238.29C435.49,238.60 439.00,238.40 439.00,237.62C439.00,237.01 436.75,234.44 434.00,231.91C431.25,229.38 429.00,226.79 429.00,226.16C429.00,225.52 430.27,225.00 431.82,225.00C433.37,225.00 436.97,225.69 439.82,226.54C442.98,227.48 446.51,229.52 448.90,231.79C451.69,234.45 453.27,237.13 454.47,241.26C455.83,245.91 455.93,247.69 455.01,250.48C454.37,252.40 451.69,255.89 448.97,258.33C445.93,261.07 436.59,266.61 424.29,272.99C413.41,278.64 402.09,284.66 399.14,286.38C396.19,288.09 391.86,291.17 389.52,293.22C387.18,295.26 384.71,298.27 384.04,299.91C383.36,301.56 382.96,303.39 383.16,303.98C383.37,304.61 384.97,304.00 386.96,302.53C388.84,301.14 391.21,300.00 392.21,300.00C393.21,300.00 394.91,300.55 395.99,301.23C397.47,302.15 398.65,302.18 400.73,301.35C402.25,300.74 404.24,299.93 405.16,299.55C406.43,299.02 406.97,299.57 407.48,301.93C408.08,304.65 408.37,304.86 409.96,303.74C410.95,303.05 413.83,299.94 416.36,296.83C418.89,293.72 424.08,289.11 427.89,286.58C431.69,284.05 437.44,280.81 440.65,279.38C443.87,277.95 453.45,274.12 461.95,270.87C470.44,267.62 480.67,262.92 484.68,260.42C488.69,257.92 493.46,253.99 495.29,251.69C497.12,249.39 499.37,246.29 500.29,244.82C501.21,243.34 502.38,240.25 502.90,237.95C503.58,234.93 503.46,232.51 502.46,229.19C501.70,226.66 501.20,224.47 501.36,224.31C501.51,224.15 507.24,225.18 514.07,226.58C520.91,227.99 529.11,230.31 532.31,231.73C535.50,233.16 538.76,235.25 539.56,236.38C540.35,237.52 541.00,239.47 541.00,240.72C541.00,242.02 539.38,244.62 537.23,246.77C535.16,248.84 529.86,252.41 525.45,254.70C521.05,257.00 508.23,262.01 496.97,265.84C485.71,269.68 473.00,274.21 468.73,275.91C464.45,277.61 457.70,280.63 453.73,282.63C449.75,284.63 443.95,288.00 440.83,290.12C437.72,292.23 432.99,295.83 430.33,298.12C427.67,300.41 423.11,305.03 420.18,308.39C417.26,311.75 413.21,317.85 411.18,321.95C407.65,329.11 407.50,329.80 407.59,339.45C407.67,347.50 408.24,351.20 410.43,358.00C411.94,362.68 414.49,368.87 416.10,371.76C417.71,374.65 420.79,379.56 422.95,382.67C425.10,385.78 430.32,392.09 434.53,396.69C438.74,401.29 445.86,408.14 450.34,411.90C454.83,415.67 461.88,420.93 466.00,423.59C470.12,426.25 483.20,433.23 495.05,439.09C506.91,444.95 521.31,452.81 527.05,456.57C533.78,460.96 541.10,466.97 547.60,473.44C553.15,478.97 559.41,486.20 561.51,489.50C563.60,492.80 566.58,498.20 568.12,501.50C569.66,504.80 571.62,510.18 572.46,513.46C573.31,516.74 574.00,523.30 574.00,528.05C574.00,533.31 573.23,539.77 572.03,544.59C570.94,548.94 567.57,557.45 564.54,563.50C561.50,569.55 555.50,579.23 551.19,585.00C546.88,590.77 538.70,600.16 533.02,605.86C527.34,611.55 518.81,619.44 514.06,623.40C509.31,627.35 500.50,633.99 494.46,638.16C488.43,642.34 477.20,649.27 469.51,653.56C461.81,657.86 449.66,664.17 442.51,667.58C435.35,671.00 424.77,675.80 419.00,678.26C413.23,680.72 400.85,685.26 391.50,688.33C382.15,691.41 370.53,695.07 365.67,696.46C360.81,697.85 345.06,701.47 330.67,704.51C316.28,707.55 300.90,711.14 296.50,712.48C292.10,713.83 284.45,717.02 279.50,719.57C274.55,722.11 267.57,726.27 264.00,728.79C260.43,731.31 254.17,736.56 250.11,740.44C246.04,744.32 240.61,750.69 238.04,754.59C235.47,758.49 232.78,763.11 232.07,764.84C230.76,768.00 230.76,768.00 164.63,767.96zM576.09,768.00C476.14,768.00 476.14,768.00 475.81,765.75C475.63,764.51 475.78,760.91 476.14,757.74C476.52,754.37 478.22,748.99 480.25,744.74C482.16,740.76 485.62,735.36 487.95,732.75C490.27,730.14 492.56,728.00 493.03,728.00C493.50,728.00 493.01,730.56 491.94,733.69C490.86,736.82 490.32,739.70 490.74,740.09C491.16,740.48 498.38,741.73 506.80,742.87C515.21,744.01 523.31,745.62 524.80,746.46C526.28,747.29 530.20,748.32 533.50,748.75C539.48,749.54 539.50,749.55 539.20,752.68C539.03,754.41 539.34,756.09 539.88,756.43C540.43,756.76 542.00,755.90 543.39,754.52C544.78,753.13 546.50,752.00 547.21,752.00C547.93,752.00 550.09,752.46 552.01,753.03C553.93,753.59 558.88,754.32 563.00,754.64C567.12,754.96 573.09,755.81 576.25,756.52C579.41,757.24 582.00,757.43 582.00,756.96C582.00,756.48 580.03,754.74 577.63,753.09C575.23,751.44 569.71,748.67 565.38,746.94C560.74,745.09 550.91,742.58 541.50,740.83C532.70,739.19 522.12,736.94 518.00,735.83C513.88,734.71 510.07,733.39 509.55,732.90C508.98,732.36 512.66,732.00 518.63,732.00C524.15,732.00 528.96,731.71 529.32,731.35C529.68,730.99 528.18,729.37 525.99,727.76C522.98,725.55 522.00,724.14 522.00,722.02C522.00,720.45 522.66,718.96 523.50,718.64C524.33,718.32 525.56,718.27 526.25,718.52C526.94,718.77 528.00,718.65 528.62,718.24C529.23,717.83 530.71,715.57 531.91,713.20C533.11,710.84 534.82,708.62 535.71,708.28C536.76,707.88 538.09,708.63 539.55,710.46C540.77,711.99 542.70,715.33 543.82,717.88C544.95,720.42 546.13,723.72 546.44,725.21C546.96,727.65 547.99,728.22 556.76,730.91C562.12,732.56 575.45,736.21 586.40,739.04C597.34,741.86 606.90,744.41 607.65,744.69C608.39,744.98 609.00,744.78 609.00,744.24C609.00,743.71 607.31,742.13 605.25,740.74C603.19,739.35 599.48,736.94 597.00,735.38C592.50,732.55 592.50,732.55 596.00,732.00C599.50,731.45 599.50,731.45 595.76,728.98C593.71,727.61 592.02,726.16 592.01,725.75C592.01,725.34 593.75,725.00 595.89,725.00C598.03,725.00 603.39,725.69 607.81,726.52C612.23,727.36 622.00,730.06 629.52,732.52C637.04,734.99 643.90,737.00 644.77,737.00C645.99,737.00 645.80,736.41 643.92,734.40C642.59,732.98 636.10,729.11 629.50,725.82C617.50,719.82 617.50,719.82 640.00,720.34C652.38,720.63 663.58,721.19 664.91,721.59C666.63,722.11 667.11,721.98 666.59,721.14C666.19,720.50 664.10,719.07 661.95,717.98C659.80,716.88 655.11,715.30 651.53,714.47C647.95,713.64 636.36,712.29 625.76,711.47C615.17,710.65 602.45,709.29 597.50,708.45C592.55,707.61 584.94,706.01 580.59,704.90C576.24,703.78 570.61,701.80 568.09,700.48C563.50,698.09 563.50,698.09 573.00,698.06C578.23,698.04 584.88,698.66 587.80,699.43C590.71,700.21 597.91,701.32 603.80,701.90C609.68,702.49 623.73,703.45 635.00,704.04C646.27,704.63 662.40,705.77 670.82,706.57C679.25,707.36 690.24,708.91 695.25,710.00C700.25,711.09 704.54,711.80 704.77,711.57C705.00,711.34 703.23,709.72 700.84,707.97C698.45,706.22 694.70,703.95 692.50,702.92C690.30,701.89 685.12,700.05 681.00,698.82C673.50,696.59 673.50,696.59 677.50,696.04C681.50,695.49 681.50,695.49 679.00,693.80C677.62,692.87 674.36,691.16 671.75,690.01C669.14,688.85 667.00,687.68 667.00,687.40C667.00,687.12 674.31,686.99 683.25,687.10C692.19,687.22 702.50,687.83 706.18,688.45C709.85,689.07 712.63,689.21 712.36,688.77C712.09,688.33 710.13,687.09 708.00,686.00C705.88,684.92 700.40,682.95 695.82,681.62C691.25,680.30 681.20,678.22 673.50,677.01C665.80,675.79 658.84,674.44 658.04,673.99C657.05,673.45 658.18,672.91 661.54,672.34C664.27,671.88 681.80,671.64 700.50,671.81C726.12,672.04 734.22,671.83 733.36,670.96C732.73,670.33 726.23,668.28 718.93,666.41C711.62,664.53 705.49,663.00 705.32,663.00C705.14,663.00 705.00,662.60 705.00,662.11C705.00,661.62 708.04,660.50 711.75,659.62C715.46,658.74 722.77,657.36 728.00,656.55C733.23,655.74 739.30,654.44 741.50,653.66C745.50,652.25 745.50,652.25 741.00,651.01C737.87,650.15 732.70,649.96 724.00,650.41C717.12,650.76 709.36,651.31 706.74,651.63C704.12,651.94 701.19,651.88 700.24,651.49C698.85,650.93 699.21,650.53 702.04,649.52C703.98,648.82 708.93,647.71 713.04,647.05C717.14,646.39 721.29,645.63 722.25,645.36C723.21,645.09 724.00,644.46 724.00,643.96C724.00,643.46 721.64,642.36 718.75,641.51C715.86,640.66 712.83,639.55 712.02,639.03C710.85,638.29 711.35,637.75 714.38,636.49C717.35,635.24 721.59,634.89 733.11,634.94C742.63,634.98 748.00,634.63 748.00,633.98C748.00,633.42 746.99,632.53 745.75,632.01C744.51,631.49 741.59,630.59 739.25,630.00C736.91,629.41 735.00,628.53 735.00,628.06C735.00,627.58 736.39,626.71 738.08,626.12C739.78,625.53 743.49,624.76 746.33,624.41C749.17,624.06 752.49,623.15 753.70,622.39C755.08,621.53 756.13,619.61 756.49,617.26C756.82,615.19 757.52,611.86 758.05,609.85C758.58,607.85 759.77,605.92 760.69,605.57C761.60,605.21 763.00,605.57 763.79,606.37C764.59,607.16 765.61,609.76 766.07,612.15C766.53,614.54 766.93,622.44 766.96,629.71C766.98,636.98 766.50,647.55 765.89,653.21C765.28,658.87 763.67,667.33 762.32,672.00C760.97,676.67 757.21,685.90 753.97,692.50C750.73,699.10 745.05,708.55 741.36,713.50C737.67,718.45 728.99,728.16 722.07,735.07C714.60,742.55 705.65,750.30 700.00,754.19C694.77,757.79 687.25,762.37 683.27,764.37C676.05,768.00 676.05,768.00 576.09,768.00zM608.00,696.90C604.42,696.84 599.74,696.39 597.59,695.88C595.44,695.38 592.18,694.04 590.34,692.90C588.50,691.77 587.00,690.20 587.00,689.42C587.00,688.46 588.14,688.00 590.50,688.00C593.63,688.00 594.01,687.71 594.07,685.25C594.11,683.74 594.45,681.83 594.82,681.00C595.19,680.17 596.17,679.50 596.98,679.50C597.79,679.50 599.52,677.59 600.81,675.25C602.09,672.91 603.74,671.00 604.45,671.00C605.17,671.00 607.42,674.17 609.45,678.04C612.45,683.75 613.69,685.19 616.02,685.65C617.60,685.97 619.64,687.04 620.54,688.04C621.44,689.04 622.02,690.67 621.83,691.68C621.65,692.68 619.92,694.29 618.00,695.25C615.65,696.42 612.36,696.96 608.00,696.90zM15.26,574.78C5.49,575.15 2.94,574.96 2.57,573.87C2.32,573.12 1.92,493.78 1.69,397.57C1.44,297.53 1.64,221.26 2.15,219.43C2.64,217.66 3.68,215.68 4.47,215.03C5.26,214.37 6.77,214.11 7.83,214.44C9.23,214.89 9.88,216.27 10.26,219.63C10.67,223.21 11.57,224.98 14.39,227.73C17.39,230.63 18.27,231.02 19.50,230.00C20.33,229.31 21.00,227.69 21.00,226.38C21.00,225.07 21.59,224.00 22.32,224.00C23.05,224.00 25.41,225.34 27.57,226.97C29.73,228.61 32.30,229.96 33.28,229.97C34.28,229.99 35.98,228.46 37.13,226.50C38.33,224.48 39.99,223.00 41.07,223.00C42.17,223.00 43.67,224.36 44.69,226.25C45.64,228.04 47.63,232.43 49.10,236.00C51.14,240.95 51.51,242.83 50.65,243.89C50.03,244.65 47.54,246.13 45.10,247.17C42.44,248.31 41.04,249.43 41.59,249.98C42.09,250.47 45.84,251.69 49.92,252.69C54.01,253.69 57.53,255.06 57.76,255.74C57.98,256.43 56.97,257.44 55.52,257.99C54.06,258.55 46.82,259.00 39.43,259.00C32.05,259.00 26.00,259.36 26.00,259.80C26.00,260.23 29.60,261.90 34.00,263.50C38.40,265.10 42.00,266.72 42.00,267.10C42.00,267.48 41.33,268.04 40.51,268.36C39.69,268.67 36.76,269.23 33.99,269.60C31.22,269.96 28.74,270.61 28.48,271.03C28.22,271.45 28.67,272.04 29.46,272.35C30.26,272.65 34.65,273.79 39.21,274.88C43.77,275.96 49.71,277.80 52.41,278.96C55.33,280.21 56.96,281.43 56.41,281.96C55.91,282.45 50.78,283.37 45.00,284.00C39.22,284.63 33.04,285.60 31.25,286.15C29.46,286.70 28.00,287.55 28.00,288.03C28.00,288.51 29.46,289.15 31.25,289.45C33.04,289.74 41.70,290.94 50.50,292.11C59.30,293.28 71.00,294.59 76.50,295.02C82.00,295.45 86.66,295.64 86.86,295.45C87.06,295.27 85.15,293.66 82.63,291.88C80.10,290.09 78.24,288.43 78.50,288.17C78.76,287.91 84.32,288.26 90.87,288.95C99.56,289.86 103.33,289.90 104.82,289.10C105.95,288.49 108.92,288.00 111.43,288.00C115.23,288.00 116.00,287.69 116.00,286.12C116.00,285.09 115.30,283.67 114.45,282.96C113.22,281.94 113.17,281.51 114.20,280.85C114.92,280.40 117.88,280.02 120.78,280.02C124.75,280.00 126.22,279.59 126.69,278.35C127.04,277.45 126.84,275.42 126.25,273.85C125.66,272.28 125.52,271.00 125.94,271.00C126.36,271.00 128.23,272.03 130.09,273.28C131.95,274.53 134.48,277.35 135.70,279.53C136.93,281.71 138.24,285.46 138.60,287.85C138.97,290.31 138.76,293.87 138.11,296.03C137.33,298.64 135.07,301.57 131.06,305.18C127.82,308.11 117.97,314.90 109.17,320.27C100.37,325.64 90.77,331.09 87.84,332.39C84.90,333.68 75.75,336.87 67.50,339.46C59.25,342.05 49.90,345.33 46.72,346.74C40.95,349.30 40.95,349.30 33.45,347.65C29.32,346.74 22.83,346.00 19.03,346.00C15.23,346.00 11.85,346.43 11.53,346.95C11.20,347.48 12.87,348.40 15.22,349.00C17.57,349.60 22.64,351.01 26.47,352.14C30.31,353.27 35.57,355.27 38.15,356.58C40.74,357.89 43.15,359.44 43.52,360.03C43.97,360.76 39.51,361.00 28.93,360.79C19.40,360.61 13.57,360.87 13.35,361.50C13.17,362.05 16.72,363.58 21.26,364.90C25.79,366.23 31.64,368.19 34.25,369.28C36.86,370.36 39.00,371.58 39.00,371.99C39.00,372.39 35.14,373.04 30.43,373.42C25.72,373.80 21.22,374.36 20.43,374.66C19.64,374.97 19.00,375.60 19.00,376.07C19.00,376.54 20.69,377.37 22.75,377.92C24.81,378.47 31.45,380.31 37.50,382.01C43.55,383.72 50.20,386.23 52.29,387.60C54.37,388.96 55.83,390.46 55.54,390.93C55.25,391.40 49.95,392.08 43.76,392.45C37.57,392.81 28.92,393.57 24.54,394.13C20.17,394.69 15.44,395.75 14.04,396.49C11.50,397.83 11.50,397.83 14.00,398.40C15.38,398.71 21.95,399.83 28.61,400.88C35.27,401.93 42.92,403.75 45.60,404.94C49.41,406.63 50.14,407.30 48.98,408.06C48.17,408.58 43.67,410.19 39.00,411.63C34.33,413.06 30.10,414.47 29.62,414.76C29.14,415.04 29.38,415.63 30.15,416.07C30.93,416.50 37.18,417.36 44.03,417.97C50.89,418.59 60.63,419.74 65.67,420.53C70.72,421.33 76.98,422.77 79.59,423.74C82.20,424.71 84.50,426.01 84.71,426.63C84.92,427.25 83.60,428.03 81.79,428.37C79.98,428.70 70.62,429.42 61.00,429.98C51.38,430.54 41.81,431.28 39.75,431.63C37.69,431.98 36.00,432.56 36.00,432.91C36.00,433.27 41.74,434.38 48.75,435.37C55.76,436.37 63.49,438.05 65.93,439.11C68.52,440.25 69.97,441.40 69.43,441.91C68.92,442.39 65.58,443.47 62.00,444.33C58.42,445.18 52.80,446.19 49.50,446.56C46.20,446.94 42.84,447.60 42.04,448.03C40.98,448.60 42.15,449.59 46.29,451.62C50.12,453.49 51.57,454.66 50.68,455.16C49.95,455.57 44.76,456.59 39.15,457.43C33.54,458.27 28.03,459.45 26.89,460.06C25.76,460.67 25.03,461.36 25.27,461.61C25.52,461.85 30.85,462.29 37.11,462.57C43.37,462.86 52.30,463.55 56.95,464.11C61.60,464.67 66.04,465.48 66.81,465.92C67.98,466.57 67.93,466.81 66.57,467.33C65.67,467.68 59.50,468.89 52.86,470.02C46.22,471.16 37.91,473.03 34.39,474.18C30.88,475.34 28.00,476.56 28.00,476.90C28.00,477.25 34.64,477.36 42.75,477.17C57.50,476.81 57.50,476.81 54.07,480.39C52.18,482.36 50.90,484.23 51.22,484.55C51.54,484.88 53.99,484.23 56.65,483.12C59.32,482.01 66.71,479.06 73.09,476.58C79.46,474.09 87.32,471.37 90.55,470.53C93.78,469.69 98.80,469.00 101.71,469.00C104.62,469.00 107.00,469.40 107.00,469.88C107.00,470.37 105.43,471.96 103.50,473.43C101.58,474.90 100.00,476.53 100.00,477.05C100.00,477.57 102.64,478.00 105.88,478.00C109.11,478.00 113.16,478.28 114.88,478.62C116.59,478.97 118.00,479.57 118.00,479.97C118.00,480.37 113.92,481.91 108.94,483.41C103.95,484.91 95.23,488.08 89.55,490.46C83.86,492.84 76.13,496.60 72.36,498.82C68.59,501.04 63.92,504.20 62.00,505.83C60.08,507.47 58.84,509.15 59.25,509.56C59.66,509.98 61.23,509.75 62.75,509.06C64.26,508.36 72.70,505.40 81.50,502.48C90.30,499.56 100.42,496.43 104.00,495.54C107.58,494.65 116.80,490.77 124.50,486.93C136.43,480.97 139.72,479.77 146.79,478.81C152.97,477.96 157.74,477.97 165.56,478.82C171.78,479.50 179.81,481.21 185.29,483.03C193.94,485.90 194.76,486.01 197.99,484.65C201.44,483.19 201.44,483.19 196.04,479.85C190.64,476.50 190.64,476.50 194.95,476.19C197.32,476.01 202.92,476.64 207.38,477.57C211.85,478.50 216.52,479.49 217.76,479.75C219.40,480.10 219.88,479.86 219.50,478.86C219.21,478.10 216.39,475.88 213.23,473.93C210.08,471.98 206.04,469.79 204.25,469.07C202.46,468.35 201.00,467.42 201.00,467.01C201.00,466.60 202.69,465.98 204.75,465.64C206.81,465.30 210.05,465.02 211.95,465.01C214.71,465.00 215.15,464.75 214.16,463.75C213.47,463.06 208.37,460.88 202.81,458.90C196.48,456.64 193.18,455.01 193.98,454.51C194.67,454.08 200.03,453.75 205.87,453.78C211.72,453.81 219.88,454.54 224.00,455.41C228.12,456.29 232.13,457.00 232.90,457.00C233.95,457.00 233.83,456.47 232.40,454.89C231.36,453.74 228.83,451.94 226.80,450.90C224.76,449.86 220.48,448.05 217.30,446.88C214.11,445.71 211.05,444.31 210.50,443.77C209.84,443.12 214.12,442.95 223.00,443.28C233.12,443.65 237.94,444.29 242.25,445.84C245.41,446.97 248.00,447.52 248.00,447.06C248.00,446.61 246.22,444.62 244.05,442.66C241.87,440.69 238.30,438.17 236.11,437.06C233.93,435.94 231.81,434.50 231.41,433.86C230.87,432.98 233.58,432.83 242.34,433.26C253.31,433.80 254.00,433.72 254.00,431.94C254.00,430.89 252.77,429.42 251.22,428.61C249.69,427.82 245.76,426.46 242.47,425.59C239.19,424.72 228.88,423.06 219.57,421.92C210.26,420.77 201.06,419.31 199.14,418.66C197.22,418.02 195.49,416.99 195.29,416.38C195.08,415.76 195.95,414.98 197.21,414.64C198.47,414.30 207.01,414.02 216.19,414.01C225.37,414.01 233.11,413.64 233.38,413.19C233.66,412.74 230.53,410.72 226.44,408.70C222.35,406.67 219.00,404.62 219.00,404.13C219.00,403.65 220.41,402.97 222.13,402.62C223.84,402.28 227.01,402.00 229.16,402.00C231.61,402.00 233.27,401.47 233.61,400.58C233.91,399.80 233.65,398.22 233.04,397.08C232.43,395.94 232.33,395.00 232.81,395.00C233.29,395.00 236.35,396.72 239.59,398.83C242.84,400.93 248.02,405.38 251.09,408.71C254.16,412.04 258.56,417.58 260.85,421.01C263.14,424.45 266.00,430.46 267.20,434.38C269.09,440.58 269.38,443.95 269.44,460.50C269.50,478.72 269.40,479.70 267.05,484.45C265.70,487.17 261.76,492.40 258.29,496.08C254.82,499.75 248.72,505.00 244.74,507.74C240.76,510.48 234.12,514.55 230.00,516.78C225.88,519.01 219.75,521.97 216.39,523.37C213.02,524.77 204.92,527.53 198.39,529.51C191.85,531.50 181.32,534.03 175.00,535.14C166.90,536.57 155.95,537.41 138.00,537.99C120.16,538.56 110.30,539.32 105.17,540.50C101.14,541.43 94.06,543.68 89.42,545.50C84.79,547.32 72.56,553.33 62.25,558.85C51.94,564.37 39.90,570.11 35.50,571.60C29.04,573.80 25.14,574.42 15.26,574.78zM764.91,497.78C764.04,497.95 758.42,495.60 752.41,492.58C746.41,489.55 737.00,484.23 731.50,480.76C726.00,477.29 717.00,471.11 711.50,467.01C706.00,462.91 699.61,457.83 697.31,455.71C695.00,453.58 691.75,449.73 690.09,447.14C688.43,444.56 686.58,440.13 685.97,437.31C685.16,433.52 685.17,431.05 686.03,427.84C686.66,425.45 688.29,422.04 689.64,420.25C691.00,418.46 692.45,417.00 692.88,417.00C693.31,417.00 693.46,419.47 693.21,422.48C692.85,426.87 693.08,428.09 694.35,428.58C695.23,428.92 697.48,428.25 699.34,427.10C701.21,425.94 703.23,425.00 703.84,425.00C704.51,425.00 704.75,426.10 704.45,427.75C704.17,429.26 704.38,431.16 704.92,431.97C705.76,433.25 706.50,433.22 710.69,431.71C713.34,430.77 716.74,429.99 718.25,430.00C719.76,430.00 720.99,430.34 720.98,430.75C720.97,431.16 720.08,432.62 719.00,434.00C717.92,435.38 717.03,437.06 717.02,437.75C717.01,438.44 717.46,439.00 718.02,439.00C718.59,439.00 722.28,437.37 726.22,435.39C731.03,432.97 735.32,431.60 739.20,431.25C744.14,430.80 745.00,430.97 745.00,432.37C745.00,433.89 745.31,433.90 748.67,432.49C750.69,431.65 752.98,430.43 753.75,429.80C754.91,428.83 754.76,428.44 752.82,427.45C751.55,426.79 747.12,425.53 743.00,424.65C738.88,423.76 731.33,422.37 726.23,421.56C721.13,420.75 716.49,419.80 715.92,419.45C715.28,419.06 715.58,418.28 716.69,417.44C718.04,416.41 722.80,416.03 735.50,415.93C744.85,415.86 753.54,415.51 754.81,415.15C756.08,414.79 757.14,414.05 757.16,413.50C757.19,412.95 756.15,411.72 754.86,410.77C753.56,409.82 749.19,408.35 745.15,407.51C741.10,406.67 737.05,405.57 736.15,405.06C734.74,404.28 734.91,403.98 737.28,403.08C738.80,402.50 744.09,401.49 749.01,400.84C757.92,399.65 757.98,399.62 758.56,396.53C758.88,394.81 759.00,391.63 758.82,389.46C758.50,385.50 758.50,385.50 751.00,385.20C746.88,385.04 739.00,385.36 733.50,385.91C728.00,386.46 719.45,388.09 714.50,389.52C709.55,390.95 701.90,393.90 697.50,396.06C693.10,398.23 686.58,401.58 683.00,403.50C679.42,405.42 673.58,407.92 670.00,409.05C666.38,410.18 658.41,411.47 652.03,411.95C645.43,412.44 636.52,412.43 631.03,411.91C625.79,411.41 617.77,410.07 613.20,408.92C608.64,407.78 601.79,405.56 597.98,403.99C594.18,402.42 588.91,399.66 586.29,397.86C583.66,396.05 578.95,392.21 575.82,389.33C572.68,386.45 567.88,382.96 565.15,381.58C562.41,380.19 551.92,376.52 541.84,373.42C531.75,370.32 520.11,366.03 515.96,363.89C511.74,361.71 506.28,357.82 503.55,355.05C498.68,350.10 498.67,350.10 498.22,342.17C497.89,336.45 498.22,332.87 499.41,329.28C500.31,326.56 502.43,323.01 504.11,321.41C507.17,318.50 507.17,318.50 506.50,322.10C506.01,324.77 506.26,326.12 507.49,327.35C508.40,328.26 509.78,329.00 510.55,329.00C511.33,329.00 513.66,328.36 515.73,327.59C517.80,326.81 520.71,325.91 522.19,325.58C523.67,325.26 525.14,325.42 525.46,325.94C525.78,326.46 525.16,328.34 524.07,330.12C522.99,331.90 522.31,333.69 522.56,334.09C522.81,334.49 527.37,334.61 532.70,334.35C538.04,334.08 542.65,333.84 542.95,333.82C543.25,333.79 544.04,333.82 544.71,333.88C545.62,333.97 545.57,334.97 544.51,337.97C543.74,340.16 543.45,342.16 543.86,342.41C544.27,342.67 548.41,341.76 553.06,340.39C557.70,339.02 565.45,337.63 570.27,337.30C579.03,336.70 579.03,336.70 575.48,342.60C573.52,345.85 571.66,349.53 571.34,350.80C571.02,352.06 571.03,353.36 571.35,353.69C571.68,354.01 573.73,352.67 575.91,350.70C578.10,348.73 581.14,346.47 582.69,345.68C584.24,344.90 588.74,343.43 592.71,342.42C596.67,341.41 600.20,340.87 600.55,341.22C600.90,341.57 598.89,344.63 596.07,348.01C593.26,351.39 589.84,356.36 588.48,359.05C587.11,361.73 586.00,365.07 586.00,366.47C586.00,367.86 586.28,369.00 586.62,369.00C586.95,369.00 590.29,366.97 594.02,364.48C597.76,362.00 602.77,359.12 605.16,358.09C607.55,357.05 611.02,355.88 612.88,355.49C615.58,354.93 616.08,355.06 615.41,356.14C614.94,356.89 613.09,359.95 611.28,362.94C609.48,365.93 608.00,369.20 608.00,370.19C608.00,371.19 608.21,372.00 608.47,372.00C608.73,372.00 612.64,370.11 617.17,367.79C625.30,363.64 625.55,363.58 635.46,363.67C640.98,363.73 648.88,364.49 653.00,365.38C657.12,366.27 660.95,366.98 661.50,366.96C662.05,366.94 660.71,365.33 658.52,363.40C656.33,361.47 652.42,358.92 649.84,357.73C647.26,356.55 645.36,355.22 645.63,354.79C645.90,354.35 648.68,354.00 651.81,354.00C654.94,354.01 661.77,354.70 667.00,355.55C672.23,356.40 677.58,357.36 678.90,357.69C680.68,358.14 681.10,357.97 680.51,357.02C680.08,356.32 676.52,354.26 672.61,352.46C668.70,350.65 660.10,347.72 653.50,345.94C646.90,344.15 640.26,342.49 638.75,342.24C637.24,341.98 636.00,341.43 636.00,341.00C636.00,340.58 637.01,339.89 638.25,339.48C639.49,339.06 650.40,338.61 662.50,338.47C678.49,338.28 686.22,338.59 690.81,339.60C694.28,340.37 698.33,340.98 699.81,340.96C702.40,340.91 702.32,340.75 697.56,336.48C694.84,334.05 692.81,331.86 693.06,331.62C693.30,331.38 697.10,331.56 701.50,332.01C705.90,332.47 711.98,333.13 715.00,333.49C720.50,334.13 720.50,334.13 718.21,332.12C716.95,331.02 713.51,329.21 710.56,328.11C707.61,327.00 698.18,324.62 689.60,322.80C681.02,320.99 674.00,319.23 674.00,318.89C674.00,318.56 676.77,318.00 680.15,317.64C683.53,317.29 689.04,317.01 692.40,317.02C695.75,317.03 705.02,317.90 713.00,318.95C720.98,320.00 729.93,321.18 732.90,321.58C736.92,322.11 738.12,322.00 737.58,321.13C737.18,320.49 734.33,318.68 731.24,317.12C725.62,314.28 725.62,314.28 731.54,313.54C737.16,312.84 737.33,312.73 734.98,311.51C733.62,310.80 726.20,309.23 718.50,308.02C710.80,306.81 699.59,304.98 693.59,303.96C687.58,302.94 682.02,301.45 681.23,300.66C679.98,299.41 680.23,299.09 683.15,298.17C684.99,297.58 689.20,296.63 692.50,296.04C695.80,295.46 706.75,294.57 716.83,294.07C726.92,293.58 735.45,292.88 735.80,292.53C736.15,292.18 735.85,291.52 735.12,291.07C734.39,290.62 728.10,289.04 721.15,287.55C714.19,286.06 707.38,284.12 706.01,283.24C703.52,281.64 703.52,281.64 706.51,280.77C708.15,280.30 716.70,279.50 725.50,279.00C734.30,278.49 743.98,277.70 747.00,277.22C752.50,276.35 752.50,276.35 748.72,274.65C746.64,273.71 739.12,272.05 732.01,270.96C724.90,269.87 717.92,268.54 716.48,267.99C715.05,267.45 714.12,266.62 714.41,266.14C714.71,265.67 717.60,264.54 720.83,263.63C724.07,262.72 731.10,261.56 736.46,261.05C741.82,260.55 746.39,259.94 746.63,259.70C746.87,259.47 744.58,258.20 741.55,256.89C738.51,255.57 736.03,254.21 736.02,253.86C736.01,253.51 737.81,252.49 740.02,251.61C742.23,250.72 746.25,250.00 748.95,250.00C752.08,250.00 754.43,249.43 755.43,248.43C756.29,247.56 757.00,245.31 757.00,243.43C757.00,240.22 757.21,240.00 760.25,240.02C762.04,240.02 764.00,240.36 764.62,240.77C765.23,241.17 766.00,242.40 766.32,243.50C766.64,244.60 767.10,294.10 767.34,353.50C767.58,412.90 767.49,469.59 767.14,479.49C766.60,494.79 766.26,497.52 764.91,497.78zM122.06,407.61C118.45,407.78 113.82,407.49 111.77,406.98C109.72,406.46 104.43,404.65 100.02,402.95C95.57,401.23 92.00,399.26 92.00,398.53C92.00,397.79 93.36,396.72 95.01,396.15C96.67,395.57 98.29,394.40 98.62,393.54C98.95,392.68 98.46,390.82 97.53,389.41C96.60,387.99 96.02,386.65 96.24,386.43C96.45,386.21 98.05,386.57 99.78,387.22C101.51,387.88 103.23,388.11 103.59,387.74C103.96,387.37 103.55,384.25 102.69,380.81C101.82,377.37 101.30,374.37 101.53,374.14C101.76,373.90 104.40,375.80 107.39,378.36C110.37,380.91 113.02,383.00 113.27,383.00C113.52,383.00 114.27,379.62 114.94,375.50C115.60,371.38 116.33,368.00 116.56,368.00C116.79,368.00 118.14,369.84 119.56,372.09C122.05,376.04 122.21,376.12 124.07,374.44C125.95,372.73 126.00,372.81 126.00,377.35C126.00,379.99 126.46,382.00 127.07,382.00C127.66,382.00 130.36,380.13 133.08,377.84C135.79,375.55 138.32,373.99 138.70,374.37C139.09,374.75 138.89,376.96 138.27,379.28C137.64,381.60 136.83,384.29 136.46,385.25C135.91,386.69 136.34,387.00 138.89,387.00C140.96,387.00 142.00,387.49 142.00,388.47C142.00,389.29 143.35,390.65 145.00,391.50C146.65,392.35 148.00,393.40 148.00,393.83C148.00,394.26 146.54,396.01 144.75,397.71C142.96,399.42 139.93,401.55 138.00,402.45C136.07,403.34 133.18,404.80 131.56,405.68C129.94,406.57 125.66,407.43 122.06,407.61zM613.34,320.56C608.48,320.74 601.92,320.48 598.78,319.98C595.63,319.48 591.69,318.37 590.03,317.51C588.36,316.65 587.00,315.51 587.00,314.97C587.00,314.44 587.61,314.00 588.35,314.00C589.08,314.00 590.43,313.18 591.35,312.17C592.26,311.17 593.00,309.59 593.00,308.67C593.00,307.67 593.80,307.00 594.98,307.00C596.36,307.00 597.75,305.45 599.56,301.88C601.16,298.73 602.51,297.11 603.08,297.68C603.60,298.20 605.25,301.06 606.76,304.04C608.33,307.15 610.29,309.63 611.36,309.83C612.38,310.03 615.91,311.77 619.21,313.70C624.56,316.84 625.05,317.38 623.70,318.73C622.64,319.79 619.56,320.34 613.34,320.56zM90.05,279.88C88.65,279.81 84.92,279.38 81.78,278.92C78.63,278.46 74.69,277.37 73.03,276.51C71.36,275.65 70.00,274.51 70.00,273.97C70.00,273.41 73.95,273.00 79.35,273.00C84.49,273.00 90.12,273.49 91.85,274.10C93.58,274.70 95.00,275.74 95.00,276.40C95.00,277.06 94.46,278.14 93.80,278.80C93.14,279.46 91.45,279.95 90.05,279.88zM87.50,267.95C83.65,267.95 79.71,267.48 78.75,266.92C77.79,266.36 77.00,265.05 77.00,264.02C77.00,262.98 79.27,259.80 82.05,256.94C87.11,251.76 87.11,251.76 91.53,256.37C93.97,258.92 96.26,262.17 96.62,263.60C97.05,265.33 96.80,266.51 95.89,267.09C95.12,267.57 91.35,267.96 87.50,267.95zM642.00,264.93C638.42,264.89 633.32,264.28 630.66,263.56C628.00,262.85 624.86,261.31 623.70,260.14C622.13,258.58 621.87,257.73 622.70,256.90C623.31,256.29 625.32,255.48 627.16,255.11C630.04,254.53 630.71,253.80 632.00,249.87C632.83,247.36 634.27,244.22 635.21,242.90C636.92,240.50 636.92,240.50 638.97,243.00C640.10,244.38 642.01,247.59 643.21,250.15C645.08,254.12 645.93,254.90 648.95,255.41C650.90,255.74 653.58,256.85 654.91,257.88C656.40,259.03 657.08,260.34 656.71,261.31C656.38,262.17 654.40,263.35 652.31,263.93C650.21,264.51 645.58,264.96 642.00,264.93zM66.82,235.88C66.64,235.82 64.03,235.37 61.00,234.89C57.98,234.41 54.54,233.79 53.38,233.52C52.21,233.25 50.69,231.66 49.99,229.98C49.30,228.31 48.96,226.71 49.23,226.44C49.50,226.16 52.05,225.66 54.89,225.33C58.75,224.87 61.06,225.17 64.09,226.54C66.33,227.55 68.78,229.61 69.57,231.14C70.89,233.69 70.85,234.01 69.07,234.96C68.00,235.53 66.99,235.95 66.82,235.88zM540.62,218.51C536.10,218.80 529.85,218.29 523.50,217.13C518.00,216.12 509.70,214.30 505.05,213.08C500.40,211.87 494.48,209.97 491.90,208.86C489.31,207.75 486.15,205.72 484.87,204.36C483.18,202.57 482.57,200.79 482.64,197.93C482.70,195.48 483.74,192.48 485.37,190.02C486.81,187.84 489.34,185.36 491.00,184.50C493.95,182.98 494.00,182.99 494.00,185.45C494.00,186.96 494.89,188.52 496.25,189.37C497.49,190.15 503.83,191.36 510.35,192.07C518.30,192.93 522.36,193.78 522.70,194.67C522.98,195.40 523.82,196.00 524.55,196.00C525.28,196.00 527.50,195.05 529.47,193.89C532.64,192.02 534.24,191.82 543.52,192.16C549.29,192.38 554.00,192.22 554.00,191.82C554.00,191.41 552.77,189.94 551.26,188.54C548.52,186.00 548.52,186.00 561.01,185.76C567.88,185.63 576.42,185.53 580.00,185.54C583.94,185.55 587.02,185.05 587.82,184.28C588.55,183.57 591.70,182.93 594.82,182.84C597.94,182.76 601.56,182.78 602.85,182.90C604.39,183.04 605.05,182.66 604.77,181.81C604.53,181.10 602.95,179.71 601.26,178.72C599.56,177.73 593.30,176.06 587.34,175.02C581.38,173.98 574.14,172.40 571.25,171.52C568.08,170.56 566.00,169.35 566.00,168.48C566.00,167.69 567.19,166.74 568.64,166.38C570.08,166.01 576.71,166.02 583.36,166.40C590.00,166.77 600.84,167.78 607.44,168.64C614.04,169.49 622.67,171.02 626.63,172.03C630.58,173.04 636.13,175.05 638.98,176.49C642.84,178.45 644.53,180.02 645.65,182.71C647.05,186.05 647.02,186.50 645.24,188.91C644.18,190.33 641.48,192.91 639.25,194.62C637.01,196.34 631.20,199.19 626.34,200.96C620.82,202.96 604.38,206.78 582.62,211.11C563.43,214.92 544.53,218.25 540.62,218.51zM326.00,196.53C315.82,196.69 306.15,196.62 304.50,196.38C302.85,196.13 296.55,195.02 290.50,193.90C284.45,192.79 275.57,190.56 270.78,188.96C265.98,187.36 259.33,184.68 256.00,183.00C252.67,181.32 248.17,178.34 246.00,176.38C243.55,174.17 241.83,171.59 241.45,169.57C241.11,167.78 241.37,164.33 242.01,161.91C242.66,159.48 244.32,156.00 245.71,154.16C247.10,152.33 249.64,149.97 251.37,148.92C253.09,147.87 254.85,147.01 255.29,147.00C255.72,147.00 255.58,147.92 254.98,149.04C254.38,150.16 254.17,151.96 254.51,153.04C254.85,154.12 255.70,155.00 256.38,155.00C257.07,155.00 258.93,153.64 260.52,151.97C262.12,150.31 264.04,149.18 264.78,149.47C265.53,149.76 266.90,149.59 267.82,149.09C268.75,148.60 270.61,145.68 271.96,142.60C273.31,139.52 274.76,137.00 275.17,137.00C275.58,137.00 277.08,135.76 278.49,134.25C281.07,131.50 281.07,131.50 282.99,134.00C284.05,135.38 285.45,137.50 286.10,138.71C287.14,140.62 286.91,141.41 284.40,144.51C282.80,146.49 280.49,149.50 279.25,151.20C278.01,152.90 277.00,154.86 277.00,155.54C277.00,156.23 277.64,157.03 278.42,157.33C279.19,157.63 281.11,157.54 282.67,157.14C284.84,156.58 286.13,155.09 288.24,150.71C289.75,147.57 291.43,145.00 291.98,145.00C292.53,145.00 294.38,147.47 296.09,150.50C298.15,154.15 299.83,156.00 301.10,156.00C302.31,156.00 303.00,156.70 303.00,157.94C303.00,159.01 302.55,160.16 302.00,160.50C301.45,160.84 301.00,161.52 301.00,162.02C301.00,162.52 303.21,162.83 305.92,162.71C308.62,162.59 311.15,162.81 311.53,163.20C311.92,163.58 311.73,165.34 311.11,167.11C310.50,168.88 310.15,170.48 310.33,170.67C310.52,170.85 312.11,170.51 313.87,169.90C315.85,169.21 319.99,169.03 324.78,169.43C329.03,169.78 337.00,170.29 342.50,170.56C352.50,171.04 352.50,171.04 347.16,166.11C341.81,161.17 341.81,161.17 358.66,160.80C370.40,160.54 376.35,160.01 378.29,159.04C379.82,158.27 380.95,156.99 380.79,156.20C380.63,155.40 378.02,153.43 375.00,151.81C369.69,148.96 369.19,148.89 360.35,149.54C354.28,149.99 350.01,149.83 347.65,149.05C345.70,148.40 343.82,147.01 343.48,145.95C343.15,144.89 343.17,143.54 343.53,142.95C343.90,142.36 345.24,141.48 346.53,140.99C347.81,140.50 349.59,138.55 350.50,136.65C351.40,134.75 353.03,132.96 354.12,132.68C355.73,132.26 356.58,133.17 358.63,137.49C360.02,140.43 361.91,143.49 362.83,144.29C363.75,145.10 367.40,145.97 371.00,146.24C374.58,146.51 379.88,147.75 382.79,149.01C385.82,150.31 389.50,152.93 391.38,155.13C393.20,157.25 395.20,160.73 395.84,162.86C396.48,164.99 397.00,168.42 397.00,170.48C397.00,173.53 396.30,174.88 393.25,177.70C391.19,179.61 387.02,182.43 384.00,183.96C380.98,185.50 375.12,187.96 371.00,189.45C366.88,190.93 359.23,193.07 354.00,194.20C346.78,195.76 340.07,196.32 326.00,196.53zM494.54,170.87C492.32,170.80 485.10,169.90 478.50,168.86C471.90,167.82 460.90,165.61 454.05,163.95C446.50,162.13 437.97,159.22 432.34,156.55C425.33,153.23 422.57,151.35 421.04,148.83C419.85,146.88 419.01,143.75 419.00,141.30C419.00,138.99 419.49,134.81 420.09,132.02C420.69,129.23 422.27,125.65 423.60,124.07C424.93,122.48 427.35,120.73 428.97,120.16C431.85,119.16 431.91,119.20 431.36,121.96C430.92,124.16 431.21,124.93 432.65,125.36C433.67,125.67 436.75,126.43 439.50,127.05C442.25,127.66 448.86,128.32 454.19,128.50C459.52,128.68 464.82,129.12 465.96,129.49C467.69,130.04 467.06,130.63 462.10,133.11C458.84,134.74 454.52,137.90 452.51,140.13C450.49,142.35 449.02,144.36 449.24,144.57C449.46,144.79 452.98,144.26 457.07,143.40C462.45,142.27 467.12,142.01 474.00,142.46C479.23,142.81 484.74,143.33 486.25,143.62C487.76,143.92 489.00,144.55 489.00,145.02C489.00,145.49 486.75,147.10 484.00,148.60C481.25,150.09 479.00,151.74 479.00,152.25C479.00,152.78 480.79,152.88 483.25,152.47C485.59,152.08 491.77,150.44 497.00,148.83C502.23,147.22 509.88,145.01 514.00,143.92C518.12,142.83 523.24,141.47 525.38,140.90C528.35,140.10 528.98,139.58 528.08,138.68C527.35,137.94 521.58,137.30 512.70,136.96C500.91,136.51 497.66,136.03 493.56,134.18C488.91,132.08 488.72,131.85 490.33,130.25C491.26,129.31 493.89,128.08 496.17,127.52C499.96,126.59 500.42,126.11 501.63,121.92C502.36,119.41 503.88,116.51 505.00,115.50C506.56,114.09 507.32,113.92 508.22,114.82C508.86,115.46 510.76,118.58 512.44,121.74C515.18,126.90 515.87,127.53 519.00,127.81C520.92,127.98 526.66,129.24 531.75,130.62C536.84,131.99 541.41,132.86 541.91,132.56C542.41,132.25 542.57,131.09 542.28,129.98C541.78,128.07 542.09,127.99 547.63,128.54C553.50,129.13 553.50,129.13 550.75,126.78C549.24,125.48 548.00,124.10 548.00,123.71C548.00,123.32 556.55,123.00 567.00,123.00C579.67,123.00 586.00,122.65 586.00,121.94C586.00,121.36 584.09,120.04 581.75,119.01C579.41,117.98 574.12,116.38 570.00,115.45C565.88,114.52 561.83,113.35 561.00,112.83C560.05,112.24 565.18,112.07 575.00,112.36C584.12,112.63 592.71,113.42 595.86,114.29C599.09,115.18 602.43,116.97 604.24,118.78C606.07,120.60 607.25,122.83 607.25,124.43C607.25,125.88 606.49,127.90 605.57,128.92C604.65,129.94 601.31,131.94 598.14,133.36C594.98,134.78 586.56,137.56 579.45,139.54C572.33,141.52 562.82,144.27 558.32,145.66C553.82,147.05 547.07,149.99 543.32,152.19C539.57,154.39 533.80,157.57 530.50,159.24C527.20,160.92 518.67,164.25 511.54,166.65C503.80,169.25 496.96,170.95 494.54,170.87zM760.50,135.66C759.40,135.75 753.77,135.24 748.00,134.53C742.23,133.82 733.67,132.46 729.00,131.51C724.33,130.56 718.02,128.77 715.00,127.52C711.98,126.28 704.55,123.65 698.50,121.69C692.45,119.72 683.67,116.97 679.00,115.58C674.33,114.18 662.48,111.66 652.68,109.97C642.88,108.28 632.16,106.06 628.85,105.03C625.54,104.00 621.97,102.38 620.92,101.42C619.86,100.47 619.00,98.88 619.00,97.90C619.00,96.92 621.54,94.04 624.64,91.51C627.75,88.99 632.27,85.75 634.69,84.33C638.53,82.09 639.03,81.41 638.54,79.12C638.14,77.24 638.92,74.96 641.31,71.00C644.52,65.69 644.79,65.50 648.97,65.50C652.98,65.50 653.38,65.25 654.43,62.18C655.56,58.86 655.56,58.86 658.32,61.03C659.83,62.23 662.41,65.52 664.03,68.35C665.65,71.18 666.99,74.06 666.99,74.75C667.00,75.50 665.69,76.00 663.75,76.00C661.96,76.00 657.80,77.29 654.50,78.87C651.20,80.45 647.53,82.81 646.35,84.12C645.18,85.43 643.26,88.08 642.11,90.00C640.95,91.92 640.01,94.12 640.00,94.88C640.00,95.84 640.81,96.09 642.75,95.70C644.26,95.39 649.20,93.10 653.73,90.59C660.31,86.95 662.43,86.21 664.27,86.91C665.78,87.49 667.64,87.35 669.59,86.53C671.25,85.83 673.79,83.86 675.24,82.13C676.68,80.41 678.78,79.00 679.89,79.00C681.00,79.00 683.05,79.52 684.44,80.15C686.97,81.31 686.97,81.31 682.92,88.65C680.68,92.69 679.27,96.00 679.77,96.00C680.27,96.00 682.78,95.37 685.34,94.60C687.90,93.83 690.05,93.49 690.12,93.85C690.18,94.21 690.15,95.29 690.05,96.25C689.95,97.22 690.55,98.00 691.39,98.00C692.22,98.00 697.08,96.19 702.20,93.97C707.31,91.75 713.21,88.80 715.30,87.42C718.09,85.57 718.95,84.42 718.52,83.07C718.07,81.64 718.83,80.89 721.99,79.62C724.22,78.73 727.34,78.00 728.94,78.00C730.53,78.00 732.02,77.44 732.26,76.75C732.57,75.80 733.59,75.93 736.42,77.27C738.49,78.25 742.55,81.30 745.46,84.05C748.64,87.05 751.97,91.55 753.78,95.28C755.45,98.70 757.50,103.58 758.35,106.11C759.19,108.65 760.61,114.33 761.51,118.73C762.40,123.14 762.99,128.71 762.81,131.12C762.56,134.66 762.12,135.53 760.50,135.66zM416.25,115.88C414.74,115.81 411.25,115.13 408.50,114.36C405.75,113.60 394.95,111.20 384.50,109.04C374.05,106.88 362.35,104.14 358.50,102.94C354.65,101.75 349.87,99.94 347.87,98.93C345.88,97.92 343.97,96.35 343.62,95.46C343.28,94.57 343.00,93.38 343.00,92.83C343.00,92.28 345.36,89.46 348.25,86.56C351.14,83.67 355.33,79.21 357.56,76.65C359.79,74.09 362.15,72.00 362.81,72.00C363.48,72.00 364.00,73.37 364.00,75.12C364.00,78.01 364.21,78.20 366.75,77.65C368.26,77.32 370.50,76.76 371.72,76.41C373.47,75.92 374.20,76.34 375.13,78.39C375.79,79.83 376.89,81.00 377.59,81.00C378.29,81.00 379.84,79.63 381.03,77.95C382.23,76.28 383.44,73.13 383.73,70.95C384.02,68.78 384.75,67.00 385.34,67.00C385.94,67.00 388.81,69.52 391.71,72.59C394.62,75.67 397.00,79.08 397.00,80.19C397.00,81.29 396.02,83.57 394.82,85.26C392.63,88.32 392.63,88.32 396.07,87.55C397.96,87.13 401.48,86.44 403.91,86.02C406.33,85.61 409.14,85.49 410.16,85.75C411.17,86.02 412.00,86.71 412.00,87.30C412.00,87.89 411.02,89.41 409.83,90.68C408.64,91.95 407.88,93.21 408.15,93.48C408.42,93.75 411.76,93.31 415.57,92.50C419.38,91.70 425.51,91.03 429.19,91.02C433.14,91.01 436.17,90.53 436.59,89.85C437.00,89.19 436.21,87.90 434.73,86.82C433.31,85.79 431.11,84.09 429.83,83.05C427.60,81.23 427.58,81.12 429.42,80.40C430.48,79.99 435.98,80.44 441.64,81.41C447.30,82.37 452.36,82.90 452.87,82.58C453.39,82.26 453.58,81.10 453.29,80.00C452.87,78.40 453.26,78.00 455.24,78.00C456.61,78.00 462.40,78.95 468.11,80.11C473.82,81.27 479.29,82.64 480.25,83.15C481.21,83.65 482.00,84.95 482.00,86.02C482.00,87.46 479.96,89.00 474.25,91.84C469.99,93.96 460.47,97.60 453.11,99.92C445.74,102.25 437.24,105.25 434.22,106.58C431.19,107.92 426.53,110.59 423.86,112.51C420.86,114.66 417.94,115.95 416.25,115.88zM218.50,107.54C208.60,107.71 197.39,107.43 193.58,106.91C189.77,106.39 182.52,105.13 177.47,104.09C172.41,103.06 166.19,101.29 163.64,100.16C160.37,98.72 159.00,97.53 159.00,96.13C159.00,94.97 161.25,92.23 164.45,89.50C169.89,84.85 169.89,84.85 169.31,76.61C168.74,68.56 168.79,68.30 171.69,64.94C173.32,63.05 176.32,58.95 178.36,55.84C180.41,52.73 183.59,49.02 185.44,47.61C187.29,46.20 189.98,44.51 191.41,43.86C192.84,43.21 194.26,42.93 194.58,43.24C194.89,43.56 194.44,45.18 193.57,46.86C192.71,48.53 192.00,50.98 192.00,52.29C192.00,54.58 192.28,54.68 198.25,54.51C202.07,54.40 206.25,53.53 209.00,52.28C211.47,51.16 214.74,49.95 216.25,49.60C218.16,49.16 219.00,49.36 219.00,50.25C219.00,50.96 214.47,56.03 208.93,61.52C203.40,67.01 198.41,72.32 197.86,73.33C196.97,74.93 197.09,75.02 198.83,74.09C199.93,73.50 203.16,72.84 206.01,72.62C210.48,72.27 211.79,71.64 215.36,68.14C217.64,65.90 220.99,63.55 222.80,62.92C224.62,62.29 226.36,62.03 226.68,62.35C227.00,62.66 226.74,64.99 226.10,67.51C225.47,70.04 225.23,72.57 225.59,73.14C225.96,73.75 227.85,72.60 230.13,70.37C232.27,68.28 235.21,64.86 236.65,62.78C238.09,60.70 239.76,59.00 240.35,59.00C240.94,59.00 243.81,61.52 246.71,64.59C249.62,67.67 252.00,69.91 252.00,69.57C252.00,69.23 248.85,63.55 245.00,56.93C241.15,50.32 238.00,44.71 238.00,44.48C238.00,44.24 239.20,44.51 240.66,45.06C242.13,45.62 246.20,48.08 249.71,50.54C253.22,52.99 256.71,55.00 257.45,55.00C258.32,55.00 258.62,54.28 258.29,53.00C257.85,51.31 258.26,51.00 260.97,51.00C263.61,51.00 264.37,50.47 265.31,48.00C265.93,46.35 266.69,45.00 266.99,45.00C267.30,45.00 269.16,46.33 271.14,47.97C273.25,49.71 276.52,54.36 279.03,59.22C281.39,63.77 285.05,69.48 287.16,71.89C289.64,74.73 291.00,77.27 291.00,79.06C291.00,81.07 289.91,82.77 287.05,85.17C284.88,87.00 276.22,91.75 267.80,95.72C259.39,99.70 248.90,103.91 244.50,105.09C238.05,106.81 233.01,107.29 218.50,107.54zM606.50,92.90C605.40,92.86 601.31,92.24 597.41,91.53C593.52,90.83 589.35,89.72 588.16,89.09C586.97,88.45 586.00,87.29 586.00,86.51C586.00,85.73 587.95,83.75 590.33,82.11C592.72,80.47 595.41,78.09 596.31,76.82C597.85,74.64 598.03,74.61 599.33,76.25C600.10,77.21 601.23,78.00 601.85,78.00C602.48,78.00 604.34,76.13 605.99,73.85C607.65,71.57 609.00,68.87 609.00,67.85C609.00,66.56 609.73,66.00 611.40,66.00C612.90,66.00 614.80,67.22 616.45,69.25C617.91,71.04 620.66,74.91 622.55,77.85C624.45,80.79 626.00,83.56 626.00,84.00C626.00,84.43 623.86,86.15 621.25,87.81C618.64,89.46 614.70,91.31 612.50,91.90C610.30,92.50 607.60,92.95 606.50,92.90zM456.29,73.90C454.75,73.85 451.48,73.17 449.00,72.39C446.52,71.61 440.48,70.28 435.57,69.43C430.66,68.57 425.14,67.25 423.31,66.48C421.47,65.72 419.71,64.42 419.40,63.60C419.04,62.65 420.96,59.94 424.66,56.18C427.87,52.91 431.48,49.74 432.68,49.12C433.89,48.51 435.12,48.00 435.43,48.00C435.75,48.00 436.00,49.37 436.00,51.05C436.00,54.01 436.09,54.07 439.75,53.43C441.81,53.07 444.40,52.15 445.50,51.39C446.60,50.63 448.71,49.04 450.18,47.86C452.86,45.72 452.86,45.72 456.48,47.86C458.48,49.04 460.36,50.00 460.65,50.00C460.95,50.00 460.96,47.86 460.67,45.25C460.38,42.64 459.83,39.04 459.46,37.25C459.00,35.05 459.15,34.00 459.94,34.00C460.58,34.00 462.39,34.67 463.97,35.48C465.54,36.30 469.66,40.38 473.11,44.55C476.56,48.72 480.16,52.55 481.12,53.07C482.08,53.58 486.50,54.00 490.93,54.00C497.44,54.00 499.00,53.71 499.00,52.50C499.00,51.40 500.13,51.01 503.25,51.02C505.59,51.03 510.63,51.49 514.45,52.04C518.27,52.60 522.22,53.79 523.23,54.71C524.78,56.11 524.85,56.58 523.70,57.73C522.95,58.48 518.10,59.91 512.92,60.91C507.74,61.91 499.45,63.26 494.50,63.91C489.30,64.59 479.92,66.97 472.29,69.54C465.02,71.99 457.82,73.96 456.29,73.90z" />

</svg>