<?xml version="1.0" encoding="UTF-8" standalone="no"?>
<svg 
  version="1.1" 
  xmlns="http://www.w3.org/2000/svg" 
  xmlns:xlink="http://www.w3.org/1999/xlink" 
  xmlns:svg="http://www.w3.org/2000/svg"
  xmlns:rdf="http://www.w3.org/1999/02/22-rdf-syntax-ns#"
  xmlns:cc="http://creativecommons.org/ns#"
  xmlns:dc="http://purl.org/dc/elements/1.1/"
  viewBox="0 0 768 768"
  width="768"
  height="768"
>
<style>svg {background-color: white; }</style>"
<metadata id="metadata1">
Created by https://svgstud.io and licensed under CC-BY-SA 4.0 license. Please attribute https://svgstud.io
</metadata>
<metadata id="prompt">
rosemary
</metadata>
<metadata id="version">
7
</metadata>
<metadata id="metadata2">
<rdf:RDF>
<cc:Work
    rdf:about="">
    <cc:license
    rdf:resource="http://creativecommons.org/licenses/by-sa/4.0/" />
    <dc:creator>
        <cc:Agent>
            <dc:title>https://svgstud.io</dc:title>
        </cc:Agent>
    </dc:creator>
</cc:Work>
<cc:License
    rdf:about="http://creativecommons.org/licenses/by-sa/4.0/">
    <cc:permits
    rdf:resource="http://creativecommons.org/ns#Reproduction" />
    <cc:permits
    rdf:resource="http://creativecommons.org/ns#Distribution" />
    <cc:requires
    rdf:resource="http://creativecommons.org/ns#Notice" />
    <cc:requires
    rdf:resource="http://creativecommons.org/ns#Attribution" />
    <cc:permits
    rdf:resource="http://creativecommons.org/ns#DerivativeWorks" />
    <cc:requires
    rdf:resource="http://creativecommons.org/ns#ShareAlike" />
</cc:License>
</rdf:RDF>
</metadata>
<metadata id="uid">
d04e9efbd19132c00216a8a6d1fdba365f95a835901c6f1e3bf47a961212c07a
</metadata>
<path stroke="none" fill="black" fill-rule="evenodd" d="M401.5,711.8C396.6,711.8 386.9,711.4 380.0,711.0C373.1,710.6 364.1,709.7 360.0,709.1C355.9,708.4 347.6,706.7 341.5,705.4C334.3,703.7 330.0,702.3 329.0,701.1C327.8,699.5 325.6,699.1 317.0,698.8C309.8,698.5 305.5,697.8 303.2,696.6C301.3,695.6 300.0,694.2 300.0,693.1C300.0,692.0 300.5,688.9 301.2,686.1C301.8,683.3 302.1,680.8 301.8,680.5C301.5,680.2 298.1,680.6 294.1,681.5C289.3,682.5 281.3,683.0 270.2,683.0C258.9,683.0 252.7,682.6 251.1,681.7C249.8,681.1 248.7,680.1 248.6,679.6C248.6,679.1 251.3,676.4 254.7,673.6C258.1,670.8 260.9,668.1 260.9,667.6C261.0,667.1 253.4,667.0 243.0,667.4C233.0,667.8 217.9,667.8 209.4,667.4C196.2,666.8 194.0,666.5 194.2,665.2C194.4,664.3 196.3,662.2 198.5,660.5C202.5,657.5 202.5,657.5 183.6,657.3C172.5,657.2 164.3,656.7 163.7,656.1C163.0,655.4 163.2,654.0 164.1,651.8C164.8,650.0 167.9,644.0 170.8,638.5C173.8,633.0 179.1,624.2 182.6,618.9C186.1,613.6 189.0,609.0 189.0,608.7C189.0,608.3 186.4,608.0 183.2,608.0C180.0,608.0 172.4,607.5 166.4,606.9C160.4,606.3 151.2,605.1 146.0,604.2C137.8,602.7 136.5,602.2 136.2,600.4C136.0,599.1 138.1,595.4 141.8,590.4C145.1,586.1 151.3,578.9 155.6,574.5C160.7,569.4 167.0,564.4 173.0,560.7C178.8,557.2 185.7,553.9 190.7,552.4C195.2,551.0 201.5,549.5 204.7,549.0C207.9,548.4 212.4,548.0 214.8,548.0C217.1,548.0 220.7,548.7 222.6,549.5C224.6,550.3 226.0,551.5 225.8,552.2C225.5,553.0 222.0,554.0 217.5,554.7C213.2,555.4 205.1,557.1 199.6,558.6C194.1,560.0 187.4,562.1 184.7,563.1C182.0,564.2 177.3,566.7 174.2,568.6C171.1,570.6 165.8,574.6 162.6,577.4C159.3,580.2 155.4,584.5 153.8,586.9C152.3,589.4 151.2,591.5 151.4,591.7C151.6,591.9 156.0,591.4 161.1,590.5C166.3,589.6 179.9,587.1 191.3,584.9C202.7,582.8 214.0,581.0 216.4,581.0C219.8,581.0 224.0,579.4 235.6,573.6C243.8,569.5 253.2,565.5 256.5,564.6C259.8,563.8 265.4,562.9 268.9,562.5C272.3,562.1 282.0,562.3 290.4,563.0C298.7,563.6 308.4,565.0 312.0,566.0C315.6,567.0 319.7,568.1 321.2,568.4C322.8,568.8 324.0,568.7 324.0,568.4C324.0,568.0 322.2,565.3 320.0,562.5C317.8,559.6 313.4,554.8 310.2,551.8C307.1,548.8 301.4,544.5 297.5,542.2C293.6,539.9 286.2,536.5 281.0,534.6C275.8,532.6 268.2,530.4 264.2,529.5C260.0,528.7 251.8,528.0 245.0,528.0C236.7,528.0 230.5,528.6 224.6,530.0C220.0,531.1 210.6,534.2 203.7,536.9C196.8,539.7 186.9,544.2 181.6,547.0C172.0,552.0 172.0,552.0 167.0,549.5C164.2,548.1 162.0,546.6 162.0,546.1C162.0,545.6 162.6,544.8 163.2,544.2C163.9,543.7 172.2,540.7 181.5,537.6C190.8,534.6 200.4,531.6 202.8,531.0C205.1,530.4 207.0,529.6 207.0,529.2C207.0,528.7 205.3,526.8 203.2,524.8C201.2,522.9 197.5,520.5 195.0,519.6C192.5,518.6 189.0,517.1 187.2,516.3C185.5,515.5 184.0,514.4 184.0,514.0C184.0,513.5 185.5,512.7 187.3,512.1C189.2,511.4 194.7,510.9 199.6,510.9C204.5,510.9 211.2,511.6 214.5,512.5C217.8,513.4 222.8,515.6 225.6,517.6C230.5,520.9 231.2,521.1 239.6,521.1C244.5,521.2 249.1,521.2 249.8,521.1C250.4,521.0 251.0,520.3 251.0,519.4C251.0,518.6 248.8,515.5 246.1,512.7C243.4,509.8 238.8,504.2 235.7,500.3C232.7,496.3 227.9,488.5 224.9,482.9C221.9,477.4 216.9,468.7 213.8,463.5C210.6,458.4 208.0,453.4 208.0,452.4C208.0,450.9 209.0,450.8 219.6,451.4C225.9,451.8 233.7,452.5 236.8,453.1C239.9,453.6 246.1,455.0 250.6,456.0C255.1,457.1 262.8,459.3 267.8,460.9C272.7,462.5 280.1,465.5 284.1,467.5C288.1,469.5 295.4,473.7 300.4,476.8C306.7,480.7 313.5,486.3 322.3,494.9C329.3,501.7 335.2,507.1 335.4,506.9C335.6,506.7 336.4,504.9 337.2,503.0C338.0,501.1 339.9,498.0 341.4,496.2C342.9,494.5 344.9,493.0 345.7,493.0C346.9,493.0 347.1,493.8 346.7,496.2C346.4,498.0 345.8,503.0 345.4,507.2C344.8,515.0 344.8,515.0 351.1,511.7C354.6,509.8 358.6,508.1 359.9,507.7C362.1,507.2 362.2,506.7 361.8,502.3C361.5,499.7 360.7,496.4 360.1,495.0C359.5,493.6 356.1,488.7 352.7,484.1C349.3,479.5 345.3,474.9 344.0,473.9C342.6,472.8 338.2,471.6 334.1,471.0C330.0,470.4 324.6,469.0 322.2,467.7C319.7,466.5 315.9,463.9 313.6,461.9C311.3,459.9 308.5,456.4 307.2,454.1C305.8,451.6 305.3,450.0 306.1,450.0C306.7,450.0 309.8,451.5 312.9,453.4C316.0,455.2 320.5,457.8 322.9,459.0C325.3,460.2 331.1,461.8 335.7,462.6C340.3,463.3 344.5,464.2 345.0,464.5C345.6,464.9 347.8,467.8 350.1,471.1C352.3,474.4 357.0,480.2 360.4,483.8C363.9,487.5 367.0,491.4 367.4,492.5C367.8,493.6 369.0,511.8 370.1,533.0C371.1,554.2 372.3,573.5 372.6,575.9C373.0,578.3 374.1,581.1 375.2,582.2C376.3,583.3 377.7,583.9 378.3,583.7C379.0,583.5 380.1,581.6 380.8,579.4C381.7,577.0 382.1,571.0 382.1,563.5C382.0,556.9 381.3,540.5 380.5,527.0C379.7,513.5 378.3,489.0 377.5,472.5C376.7,456.0 375.5,437.8 375.0,432.0C374.4,426.2 373.3,416.8 372.5,411.0C371.7,405.2 370.6,395.1 370.0,388.5C369.5,381.9 368.1,364.6 367.0,350.0C365.8,334.2 364.3,321.4 363.3,318.3C361.9,313.4 361.9,312.9 363.4,310.8C364.3,309.5 367.5,304.9 370.4,300.5C373.4,296.1 378.6,289.4 381.9,285.6C385.3,281.8 388.0,277.9 388.0,277.0C388.0,276.1 387.5,274.9 386.9,274.3C386.1,273.5 386.2,271.9 387.4,268.3C388.3,265.7 391.1,260.3 393.7,256.5C396.3,252.6 400.9,247.0 403.9,244.0C407.0,240.9 412.4,236.3 416.0,233.8C419.6,231.3 426.1,227.4 430.5,225.2C434.9,223.0 441.4,220.3 445.0,219.2C448.6,218.0 453.4,216.7 455.6,216.2C457.9,215.7 460.3,215.6 460.9,215.9C461.6,216.4 460.0,219.3 456.4,224.1C453.3,228.2 447.9,237.3 444.4,244.5C441.0,251.7 436.1,260.2 433.6,263.5C431.1,266.9 426.6,271.5 423.4,273.8C420.2,276.2 414.9,278.9 411.3,280.0C407.7,281.1 402.8,282.0 400.5,282.0C398.1,282.0 395.4,282.3 394.5,282.6C393.6,283.0 390.2,286.8 386.8,291.2C383.5,295.6 378.8,302.4 376.4,306.3C372.4,312.8 372.0,314.0 372.0,320.0C372.0,323.6 372.4,330.3 372.9,335.0C373.5,339.7 374.6,355.6 375.5,370.5C376.4,385.4 377.5,400.0 377.9,403.0C378.5,408.5 378.5,408.5 382.4,402.0C384.6,398.4 388.7,392.1 391.5,388.0C394.4,383.9 397.0,379.7 397.3,378.8C397.7,377.8 397.5,377.0 396.9,377.0C396.4,377.0 394.5,377.7 392.8,378.6C389.7,380.2 389.7,380.2 390.2,371.8C390.5,365.7 391.3,362.0 393.2,358.0C394.6,355.0 398.2,349.1 401.4,345.0C404.7,340.5 410.0,335.1 414.5,331.6C418.7,328.4 424.8,324.7 428.1,323.4C431.4,322.0 438.5,320.3 443.8,319.5C449.1,318.7 455.0,318.3 456.8,318.6C458.5,319.0 460.0,319.6 460.0,320.0C460.0,320.4 457.3,323.8 454.0,327.6C450.8,331.4 446.1,338.3 443.7,343.0C441.3,347.7 437.2,354.8 434.6,358.7C431.9,362.9 427.4,367.9 424.2,370.5C421.1,373.0 415.5,376.1 411.9,377.5C408.1,379.0 404.1,381.4 402.3,383.3C400.7,385.0 395.8,392.8 391.4,400.5C387.1,408.2 382.9,415.8 382.2,417.5C381.2,419.6 381.0,422.7 381.4,428.0C381.8,432.1 382.7,449.0 383.5,465.5C384.3,482.0 385.4,501.4 386.0,508.5C386.5,515.6 387.2,523.7 387.6,526.3C388.0,529.3 388.6,531.0 389.4,530.7C390.0,530.5 391.3,528.3 392.2,525.9C393.3,523.2 393.9,518.5 394.0,513.5C394.0,509.1 393.5,500.0 392.8,493.2C391.9,483.7 391.9,480.7 392.8,479.8C393.7,478.9 395.1,479.7 399.1,483.5C401.9,486.3 405.3,490.2 406.7,492.3C408.0,494.4 409.6,496.0 410.2,495.8C410.8,495.6 413.5,491.6 416.2,486.9C418.8,482.3 421.5,477.5 422.2,476.2C423.2,474.3 422.9,473.4 420.4,470.1C418.8,468.0 415.5,463.7 413.2,460.5C410.8,457.4 407.8,452.5 406.5,449.7C405.2,446.8 403.6,441.3 403.0,437.4C402.0,432.1 402.0,428.1 402.8,421.3C403.4,416.3 404.6,410.6 405.4,408.6C406.2,406.6 407.3,405.0 407.9,405.0C408.4,405.0 411.8,408.2 415.4,412.1C419.0,416.0 423.3,421.2 425.0,423.8C426.7,426.3 429.4,432.6 431.1,437.8C432.7,443.0 434.3,449.1 434.7,451.5C435.1,454.5 434.7,457.0 433.2,460.3C432.1,462.8 428.9,468.2 426.2,472.4C423.4,476.6 417.9,486.7 413.9,494.8C409.9,502.9 404.1,514.0 401.0,519.5C397.9,525.0 394.2,532.8 392.7,536.8C391.0,541.3 390.0,546.1 390.0,549.3C390.1,554.5 390.1,554.5 393.0,551.0C394.7,549.1 400.7,538.0 406.5,526.5C412.3,515.0 419.0,501.9 421.4,497.5C423.7,493.1 429.2,483.0 433.5,475.0C437.8,467.0 445.3,453.1 450.2,444.0C455.1,434.9 459.6,426.6 460.3,425.5C460.9,424.4 465.2,417.0 469.8,409.0C474.5,401.0 480.3,391.7 482.7,388.3C487.2,382.0 487.2,382.0 483.7,378.7C481.6,376.8 479.7,373.7 478.9,371.0C478.2,368.5 477.7,362.4 477.6,357.5C477.6,351.7 478.3,346.4 479.4,342.5C480.4,339.3 482.2,334.5 483.5,332.0C484.8,329.5 487.1,326.1 488.6,324.5C491.5,321.5 491.5,321.5 491.8,323.8C492.0,325.1 491.1,329.9 489.9,334.3C488.3,340.0 487.7,345.2 487.7,351.5C487.7,356.4 488.2,362.9 488.9,365.8C489.6,368.6 490.6,371.0 491.1,371.0C491.5,371.0 492.4,369.1 493.0,366.8C493.6,364.4 495.6,357.3 497.6,351.0C499.6,344.7 503.2,335.7 505.7,331.1C508.9,325.1 510.0,321.9 509.7,320.1C509.4,318.7 508.6,315.3 508.0,312.6C507.0,308.8 507.0,306.0 507.9,300.6C508.6,296.8 509.9,291.7 510.9,289.5C511.9,287.2 514.9,282.0 517.6,277.9C520.2,273.8 526.9,265.9 532.4,260.4C538.0,254.8 545.7,248.2 549.6,245.7C553.8,243.0 559.7,240.3 563.9,239.1C567.9,238.0 571.8,237.4 572.5,237.7C573.3,238.0 574.0,238.4 574.0,238.7C574.0,238.9 573.5,240.1 572.9,241.3C572.3,242.5 569.4,247.6 566.5,252.5C563.7,257.4 558.2,267.1 554.5,274.0C550.7,280.9 545.7,289.5 543.2,293.3C540.7,297.0 539.0,300.3 539.3,300.6C539.6,301.0 541.4,300.3 543.3,299.1C545.2,297.9 549.3,296.1 552.4,295.0C555.4,294.0 561.0,292.8 564.8,292.4C569.0,292.0 572.0,292.2 572.3,292.7C572.7,293.3 570.7,296.5 568.0,299.9C565.3,303.3 560.1,310.2 556.6,315.3C553.0,320.4 547.9,326.9 545.1,329.7C542.3,332.6 537.8,336.5 534.9,338.3C530.6,341.0 528.9,343.1 524.6,350.8C521.8,355.8 517.5,362.4 515.0,365.3C512.5,368.3 508.1,372.5 505.1,374.6C502.2,376.7 497.8,380.8 495.5,383.5C493.1,386.2 486.7,396.0 481.2,405.1C475.6,414.2 469.2,425.5 466.9,430.1C464.6,434.7 459.5,443.8 455.7,450.3C451.9,456.7 449.0,462.3 449.3,462.6C449.6,463.0 452.4,462.9 455.4,462.6C458.4,462.2 461.3,461.3 461.8,460.7C462.4,460.0 463.0,458.4 463.2,457.0C463.4,455.3 466.2,452.4 472.4,447.4C477.4,443.5 484.7,438.6 488.7,436.5C496.1,432.7 496.1,432.7 507.8,433.3C516.2,433.7 521.6,434.5 527.0,436.2C531.2,437.6 537.7,440.5 541.5,442.8C545.4,445.1 550.5,448.7 552.9,450.9C555.6,453.3 557.1,455.4 556.7,456.3C556.4,457.2 554.1,458.0 550.5,458.4C547.4,458.7 538.0,460.4 529.7,462.2C515.2,465.1 513.3,465.3 489.5,465.4C464.5,465.5 464.5,465.5 456.1,468.9C451.5,470.7 446.5,473.4 444.9,474.9C443.4,476.3 441.9,478.1 441.8,478.9C441.6,480.0 443.6,480.2 453.0,480.1C459.4,480.0 465.8,480.2 467.3,480.5C468.8,480.9 470.0,481.6 470.0,482.1C470.0,482.5 466.7,485.4 462.7,488.4C458.6,491.3 453.0,496.1 450.2,498.9C447.3,501.8 444.3,505.5 443.4,507.1C441.9,510.0 441.9,510.1 443.9,509.1C445.0,508.5 446.2,507.5 446.6,506.9C446.9,506.3 450.0,504.0 453.3,501.9C456.6,499.8 460.1,498.0 461.2,498.0C462.2,498.0 463.0,498.3 463.0,498.6C463.0,499.0 462.0,500.8 460.9,502.7C459.7,504.6 459.0,506.3 459.3,506.6C459.6,506.9 461.3,506.4 463.0,505.5C464.8,504.6 470.6,502.7 475.9,501.3C483.9,499.2 488.5,498.7 503.8,498.3C518.8,497.8 522.0,498.0 522.0,499.1C522.0,499.9 520.6,502.1 518.9,504.0C517.3,505.9 514.0,510.0 511.5,513.1C509.1,516.1 505.5,521.6 503.6,525.2C501.6,528.7 500.0,532.3 500.0,533.1C500.0,533.9 502.9,531.5 506.4,527.8C510.0,524.1 514.6,520.0 516.8,518.6C518.9,517.3 522.6,515.5 525.0,514.7C527.5,513.9 530.0,513.4 530.7,513.7C531.5,514.0 528.8,517.2 524.0,521.9C519.6,526.1 516.0,530.1 516.0,530.8C516.0,531.7 516.7,531.6 518.5,530.4C519.9,529.5 521.3,528.9 521.5,529.2C521.8,529.5 520.7,531.4 519.0,533.5C517.4,535.6 516.0,538.1 516.0,539.0C516.0,540.0 516.7,541.1 517.6,541.4C518.5,541.7 520.2,542.0 521.4,542.0C522.6,542.0 524.7,540.8 526.1,539.4C527.4,538.0 531.0,534.9 534.0,532.5C537.0,530.2 541.4,527.3 543.8,526.1C546.4,524.8 551.7,523.5 557.1,522.8C562.0,522.3 567.6,522.1 569.5,522.4C571.4,522.8 573.0,523.5 573.0,524.0C573.0,524.4 567.4,529.0 560.6,534.0C553.7,539.1 547.8,543.9 547.5,544.8C547.2,545.6 547.3,546.6 547.7,547.0C548.1,547.4 551.3,548.8 554.7,550.3C558.1,551.7 562.6,554.0 564.8,555.4C567.1,556.8 571.8,560.7 575.3,564.0C578.9,567.3 584.5,574.0 587.8,578.8C591.1,583.6 595.2,590.4 596.9,593.8C598.7,597.3 600.0,600.9 599.8,601.8C599.6,603.1 598.0,603.7 593.5,604.1C590.2,604.5 584.7,604.8 581.3,604.9C577.8,605.0 571.1,606.2 566.3,607.6C561.4,609.0 553.3,610.6 548.2,611.2C543.2,611.8 539.0,612.7 539.0,613.2C539.0,613.7 541.4,618.0 544.3,622.8C547.1,627.6 551.4,636.7 553.7,643.0C556.0,649.3 558.8,657.6 560.0,661.4C562.0,667.5 562.0,668.4 560.7,669.7C559.5,670.9 556.2,671.2 543.8,671.2C535.4,671.1 525.2,670.8 521.2,670.4C516.4,670.0 514.0,670.1 514.0,670.8C514.0,671.4 514.9,673.5 516.1,675.4C517.2,677.3 517.9,679.4 517.5,680.0C517.1,680.6 511.8,681.0 503.9,681.0C496.8,681.0 491.0,681.2 491.0,681.4C491.0,681.6 491.7,683.4 492.5,685.5C493.4,687.5 493.8,690.0 493.5,691.0C493.2,692.0 491.5,693.4 489.7,694.1C487.5,695.1 482.4,695.5 473.0,695.4C464.7,695.3 454.8,694.4 447.5,693.2C440.9,692.1 433.6,690.9 431.2,690.6C428.9,690.2 427.0,690.3 427.0,690.7C427.0,691.2 427.7,693.4 428.5,695.8C429.8,699.5 429.8,700.4 428.6,702.9C427.8,704.4 426.0,706.4 424.6,707.4C423.2,708.3 419.5,709.7 416.3,710.5C413.0,711.4 406.8,711.9 401.5,711.8zM385.6,694.0C386.3,694.0 388.5,691.2 390.5,687.8C392.6,684.3 395.3,680.0 396.7,678.2C398.0,676.4 401.3,670.3 404.0,664.7C406.7,659.1 409.6,651.0 410.5,646.8C411.9,640.5 412.0,638.2 411.0,633.6C410.4,630.6 408.6,626.4 407.0,624.2C405.4,622.0 402.1,618.8 399.6,617.1C397.2,615.4 394.5,614.0 393.8,614.0C392.8,614.0 392.5,617.3 392.5,629.2C392.5,637.6 392.1,645.4 391.7,646.5C391.0,648.1 390.5,647.4 388.9,642.2C387.7,638.5 386.4,636.0 385.5,636.0C384.7,636.0 382.0,639.8 379.4,644.6C376.9,649.3 373.7,654.4 372.3,656.1C369.9,658.9 369.9,659.4 370.9,663.6C371.6,666.2 373.6,671.2 375.4,674.9C377.2,678.5 379.5,683.8 380.5,686.5C381.5,689.2 382.8,692.1 383.3,692.8C383.8,693.4 384.8,694.0 385.6,694.0zM315.2,688.9C316.5,688.2 320.4,685.2 324.0,682.2C327.6,679.1 334.3,673.0 338.8,668.6C343.4,664.1 350.2,656.9 353.9,652.5C357.6,648.1 363.6,639.8 367.3,634.0C370.9,628.2 375.8,620.9 378.2,617.6C380.6,614.4 385.3,609.3 388.8,606.2C394.7,601.0 395.6,600.6 401.1,600.2C404.4,600.0 407.2,599.4 407.5,599.0C407.7,598.6 403.2,598.0 397.4,597.7C387.4,597.1 386.6,597.2 382.9,599.5C380.8,600.9 377.2,602.4 374.8,603.0C372.4,603.5 369.9,604.0 369.2,604.0C368.5,604.0 368.1,603.6 368.5,603.1C368.8,602.6 368.2,601.9 367.2,601.6C366.2,601.3 363.2,601.6 360.4,602.3C357.6,603.0 353.3,604.8 350.9,606.2C348.5,607.6 340.4,614.2 333.0,620.7C325.6,627.3 318.3,634.4 316.8,636.6C315.3,638.7 313.3,642.3 312.4,644.5C311.4,646.9 310.8,651.2 310.8,655.5C310.8,659.4 311.3,664.3 312.0,666.5C312.6,668.7 313.8,671.4 314.6,672.4C315.9,674.2 316.1,674.2 317.8,672.7C318.8,671.8 320.6,668.9 321.8,666.2C322.9,663.6 326.0,656.8 328.6,651.0C331.1,645.2 334.6,638.6 336.2,636.2C337.8,633.9 340.8,630.2 342.9,628.0C345.0,625.8 347.2,624.0 347.7,624.0C348.5,624.0 348.4,625.4 347.5,628.3C346.8,630.7 344.6,635.8 342.7,639.6C340.8,643.4 336.7,650.0 333.6,654.3C330.5,658.6 327.6,662.9 327.0,664.0C326.4,665.0 324.2,667.9 322.1,670.4C319.9,672.9 317.6,676.6 317.0,678.7C316.3,680.8 315.1,683.4 314.4,684.5C313.6,685.6 313.0,687.3 313.0,688.3C313.0,689.8 313.3,689.9 315.2,688.9zM466.8,678.9C468.0,678.9 469.0,678.8 469.0,678.5C469.0,678.3 467.4,674.5 465.4,670.3C463.4,666.0 460.7,660.2 459.5,657.5C458.2,654.8 455.5,649.2 453.5,645.1C451.5,641.0 448.0,634.7 445.6,631.1C443.2,627.5 439.2,622.1 436.6,619.3C433.4,615.7 429.5,612.9 424.6,610.5C418.9,607.7 415.7,606.7 409.8,606.3C405.0,605.9 402.0,606.1 401.6,606.8C401.3,607.4 403.6,610.5 406.8,613.7C410.8,617.7 414.4,622.9 418.5,630.5C421.7,636.5 425.8,643.8 427.5,646.5C429.3,649.2 431.3,652.6 431.9,653.8C433.1,656.0 433.0,656.1 430.8,655.5C429.6,655.1 425.9,653.3 422.7,651.4C419.5,649.5 416.6,648.0 416.3,648.0C416.0,648.0 416.0,649.4 416.4,651.0C416.7,652.7 418.3,656.0 420.0,658.4C421.6,660.8 424.4,664.0 426.1,665.4C427.9,666.9 431.5,669.3 434.3,670.7C437.1,672.1 445.0,674.4 451.9,676.0C458.8,677.5 465.5,678.8 466.8,678.9zM536.9,653.9C541.3,654.0 541.3,654.0 534.3,646.7C530.5,642.7 525.2,637.4 522.5,634.9C519.8,632.5 516.6,629.7 515.5,628.6C514.4,627.6 510.4,624.4 506.5,621.5C502.6,618.6 496.8,614.7 493.5,612.7C490.2,610.7 483.9,607.7 479.5,606.1C475.1,604.4 466.8,601.9 461.0,600.5C455.2,599.1 444.9,597.5 438.0,596.9C431.1,596.4 422.0,596.3 417.7,596.6C413.5,597.0 409.7,597.6 409.5,598.1C409.2,598.5 411.5,599.3 414.5,599.9C417.5,600.5 422.6,601.5 425.8,602.1C428.9,602.7 434.0,603.9 437.0,604.7C440.0,605.6 445.2,607.5 448.5,609.0C451.8,610.4 455.1,612.4 455.9,613.4C457.3,615.0 457.1,615.1 453.4,614.5C451.3,614.2 448.0,613.7 446.2,613.4C444.4,613.1 443.0,613.3 443.0,613.9C443.0,614.4 443.5,615.2 444.1,615.5C444.6,615.9 448.9,621.3 453.5,627.6C459.4,635.5 463.1,639.5 465.7,640.9C467.8,641.9 473.3,643.9 478.0,645.3C482.7,646.7 492.1,648.6 499.0,649.5C505.9,650.3 516.2,651.7 522.0,652.4C527.8,653.1 534.5,653.8 536.9,653.9zM258.1,651.8C259.8,651.2 265.7,648.3 271.2,645.3C276.7,642.3 290.5,633.5 301.9,625.7C313.2,617.9 326.1,609.6 330.5,607.2C334.9,604.9 342.3,601.1 346.9,598.8C353.0,595.9 357.0,594.6 361.5,594.2C364.9,594.0 370.8,594.3 374.6,594.9C378.4,595.6 382.6,596.4 384.0,596.7C385.7,597.1 386.2,596.9 385.5,596.2C384.9,595.7 378.0,593.6 370.0,591.7C362.0,589.7 352.8,587.6 349.6,587.1C346.3,586.5 339.8,586.0 335.1,586.0C328.5,586.0 324.7,586.6 318.8,588.6C314.5,590.0 307.7,593.3 303.8,595.9C299.8,598.5 292.6,604.3 287.9,608.8C283.1,613.3 276.7,620.1 273.7,623.8C270.6,627.5 265.0,635.2 261.1,640.9C257.2,646.6 254.3,651.7 254.6,652.1C254.8,652.5 256.4,652.4 258.1,651.8zM176.0,648.0C176.5,648.0 179.5,646.8 182.7,645.4C185.9,644.0 193.9,641.1 200.5,639.0C207.1,636.8 216.6,634.1 221.5,633.0C226.4,631.9 236.8,629.0 244.5,626.6C252.2,624.1 260.5,621.6 263.0,621.0C266.7,620.0 269.0,618.2 276.5,610.3C281.4,605.0 288.0,598.8 291.0,596.5C294.0,594.2 299.2,590.8 302.5,588.9C305.8,587.0 312.0,583.9 316.3,582.1C320.6,580.2 323.7,578.3 323.3,577.9C322.9,577.5 318.9,576.2 314.5,575.1C310.1,574.0 303.0,572.7 298.7,572.1C294.4,571.5 286.6,571.0 281.4,571.0C276.2,571.0 268.6,571.5 264.7,572.1C260.7,572.6 254.1,574.2 249.9,575.6C245.7,577.0 237.3,580.9 231.2,584.4C225.2,587.8 216.2,593.8 211.3,597.7C206.5,601.6 200.2,607.4 197.4,610.7C194.5,613.9 189.8,620.4 186.7,625.0C183.7,629.7 179.8,636.3 178.1,639.7C176.4,643.1 175.0,646.4 175.0,647.0C175.0,647.5 175.4,648.0 176.0,648.0zM545.8,646.6C545.9,646.4 545.1,643.4 543.9,639.9C542.7,636.4 540.9,631.7 539.8,629.5C538.7,627.3 535.6,622.5 532.9,618.9C530.3,615.3 525.0,609.6 521.3,606.3C517.5,603.0 511.8,598.9 508.5,597.2C505.2,595.6 498.1,592.8 492.7,591.2C487.3,589.5 479.3,587.6 475.0,586.9C470.6,586.3 463.6,585.9 459.3,586.1C453.8,586.4 450.6,587.1 448.6,588.3C447.1,589.3 446.1,590.4 446.4,590.7C446.7,591.0 451.3,592.1 456.7,593.2C462.1,594.3 469.7,596.2 473.7,597.6C477.7,599.0 486.6,602.6 493.6,605.6C501.3,608.9 509.5,613.3 514.3,616.8C518.7,619.9 527.5,628.0 533.9,634.7C540.3,641.3 545.6,646.7 545.8,646.6zM509.2,640.9C507.7,640.8 504.7,640.4 502.6,639.9C500.4,639.4 497.3,638.1 495.6,637.1C493.9,636.0 491.1,632.6 489.3,629.6C486.7,625.1 486.4,624.0 487.7,624.0C488.6,624.0 492.3,625.6 495.9,627.6C499.5,629.6 504.9,633.0 507.8,635.2C510.7,637.3 512.8,639.5 512.5,640.1C512.1,640.6 510.7,641.0 509.2,640.9zM211.2,623.4C209.5,624.3 208.0,624.8 208.0,624.5C208.0,624.1 209.3,621.9 211.0,619.5C212.6,617.2 217.4,612.3 221.7,608.8C226.0,605.2 232.7,600.3 236.5,597.8C240.3,595.3 244.8,592.6 246.5,591.8C248.2,590.9 253.1,589.1 257.5,587.7C262.0,586.3 268.8,584.8 272.7,584.5C276.7,584.1 281.1,584.1 282.5,584.4C284.0,584.8 285.0,585.5 284.8,586.1C284.6,586.7 276.6,590.0 267.0,593.4C257.4,596.9 247.0,600.9 244.0,602.5C241.0,604.0 233.1,608.9 226.5,613.5C219.9,618.0 213.0,622.5 211.2,623.4zM586.8,595.9C589.2,596.0 589.9,595.7 589.4,594.8C589.0,594.1 584.9,588.5 580.3,582.4C575.8,576.3 569.0,568.7 565.3,565.5C561.5,562.3 555.2,558.1 551.2,556.3C547.2,554.4 540.4,552.0 536.2,550.8C530.3,549.3 525.2,548.7 514.5,548.6C501.0,548.5 500.3,548.6 494.2,551.4C489.9,553.4 486.4,555.9 483.4,559.4C481.0,562.2 479.0,565.1 479.0,565.8C479.0,566.8 479.7,567.0 481.2,566.7C482.5,566.3 486.6,565.2 490.5,564.1C495.8,562.6 500.7,562.1 510.6,562.1C517.8,562.0 526.3,562.5 529.6,563.1C532.8,563.7 536.6,564.8 537.9,565.7C539.8,566.9 540.0,567.4 538.9,568.1C538.1,568.6 532.3,569.0 526.0,569.0C519.7,569.0 510.9,569.6 506.4,570.4C502.0,571.2 495.7,572.6 492.4,573.6C489.2,574.5 485.0,576.0 483.2,576.8C481.5,577.7 480.0,578.6 480.0,578.9C480.0,579.2 488.7,582.3 499.3,585.8C518.5,592.1 518.5,592.1 544.5,593.1C558.8,593.6 573.4,594.4 577.0,594.9C580.6,595.4 585.0,595.8 586.8,595.9zM388.7,591.8C389.5,590.9 392.3,586.4 394.9,581.6C397.4,576.9 402.3,569.6 405.7,565.3C409.1,560.9 414.7,555.1 418.2,552.3C421.7,549.6 426.0,546.5 427.8,545.6C429.7,544.6 431.4,544.0 431.6,544.2C431.8,544.4 427.0,551.5 421.0,559.9C414.9,568.3 410.0,575.6 410.0,576.1C410.0,576.6 410.4,577.0 410.8,577.0C411.3,577.0 414.2,574.4 417.2,571.2C420.2,568.1 426.3,560.7 430.9,554.7C435.5,548.8 441.4,541.6 444.0,538.6C446.7,535.7 451.6,531.9 455.0,530.1C458.3,528.3 461.9,527.0 463.1,527.2C464.7,527.4 462.4,530.2 451.3,541.5C443.7,549.2 434.6,559.1 431.1,563.5C427.5,567.9 422.5,574.8 419.8,578.9C417.1,583.0 414.7,587.4 414.4,588.7C414.0,590.0 414.0,591.3 414.3,591.6C414.6,591.9 416.4,591.4 418.4,590.6C420.3,589.8 424.3,587.0 427.1,584.3C429.9,581.7 436.0,575.0 440.5,569.5C445.0,564.0 450.9,557.7 453.5,555.6C457.8,552.0 458.2,551.9 457.5,554.1C457.1,555.4 455.0,559.9 453.0,564.0C450.9,568.1 448.0,573.2 446.5,575.4C445.1,577.5 444.1,579.5 444.4,579.7C444.7,580.0 446.6,579.2 448.7,577.9C450.8,576.7 456.7,571.6 461.9,566.6C467.0,561.6 473.9,554.0 477.2,549.7C480.5,545.4 486.9,536.1 491.5,529.0C496.0,521.9 501.4,513.8 503.5,511.0C505.6,508.2 507.0,505.6 506.6,505.3C506.3,505.0 500.5,505.2 493.8,505.8C487.0,506.4 477.9,507.8 473.5,509.0C469.1,510.1 462.6,512.0 459.0,513.2C455.4,514.3 448.9,517.0 444.5,519.1C440.1,521.3 434.1,524.5 431.1,526.3C428.2,528.1 422.1,533.1 417.5,537.3C413.0,541.5 406.1,549.1 402.2,554.2C398.3,559.3 393.4,566.9 391.2,571.2C389.0,575.4 386.8,580.9 386.5,583.4C386.1,585.9 386.1,589.2 386.4,590.6C387.1,593.1 387.3,593.2 388.7,591.8zM362.8,583.0C363.5,583.0 364.0,582.5 364.0,581.9C364.0,581.3 362.6,576.8 361.0,571.8C359.3,566.9 356.0,557.9 353.5,551.9C351.1,545.9 347.3,537.9 345.1,534.1C342.9,530.3 338.7,523.8 335.7,519.8C332.7,515.8 326.0,508.2 320.9,503.0C315.7,497.8 308.4,491.1 304.5,488.3C300.6,485.4 293.4,480.8 288.5,478.0C283.5,475.3 276.3,471.7 272.5,470.1C268.6,468.5 260.3,465.8 254.0,464.1C247.7,462.5 237.6,460.4 231.7,459.5C225.7,458.5 220.7,458.0 220.5,458.2C220.3,458.4 223.3,464.2 227.2,471.0C231.1,477.9 235.4,485.5 236.8,488.0C238.2,490.5 241.5,495.3 244.2,498.6C246.8,502.0 251.6,507.2 254.8,510.1C258.0,513.1 262.2,516.4 264.3,517.5C266.3,518.5 268.2,519.1 268.5,518.8C268.9,518.5 267.6,515.8 265.7,512.8C263.8,509.9 259.3,502.5 255.7,496.4C252.0,490.3 247.9,482.7 246.5,479.5C245.1,476.3 244.1,473.6 244.3,473.4C244.5,473.2 246.5,474.6 248.8,476.6C251.1,478.5 255.7,483.4 258.9,487.4C262.2,491.4 267.6,499.1 271.1,504.6C274.5,510.0 279.3,517.3 281.9,520.7C285.8,526.1 287.6,527.5 294.5,530.9C298.9,533.0 302.7,534.6 302.9,534.4C303.1,534.2 301.9,532.4 300.3,530.3C298.7,528.2 296.0,524.2 294.3,521.5C292.5,518.8 289.6,513.8 287.8,510.5C285.9,507.2 283.0,501.5 281.3,497.8C279.5,494.0 278.4,491.0 278.8,491.0C279.2,491.0 282.2,493.6 285.5,496.8C288.7,499.9 293.8,505.9 296.9,510.0C301.8,516.7 302.5,517.2 303.0,515.1C303.5,512.9 303.6,512.9 305.1,514.7C306.0,515.7 309.3,521.1 312.5,526.8C315.6,532.4 318.7,537.0 319.2,537.0C319.9,537.0 320.1,533.9 319.8,528.5C319.4,521.4 319.6,520.2 320.7,521.2C321.5,521.8 323.2,524.2 324.5,526.4C325.8,528.7 328.4,535.9 330.3,542.5C333.8,554.5 333.8,554.5 347.7,568.8C355.4,576.6 362.2,583.0 362.8,583.0zM275.8,553.9C274.0,553.8 269.8,553.2 266.5,552.5C263.2,551.8 256.9,550.4 252.6,549.5C248.2,548.6 242.6,546.9 240.1,545.8C235.6,543.8 235.6,543.8 238.0,542.8C239.4,542.2 245.4,542.0 252.0,542.3C258.9,542.6 264.9,543.4 267.0,544.3C268.9,545.2 272.4,547.2 274.8,548.9C277.1,550.6 279.0,552.5 279.0,553.0C279.0,553.6 277.5,553.9 275.8,553.9zM364.3,551.3C364.8,551.0 364.9,544.1 364.5,535.1C364.2,526.5 363.6,518.7 363.4,517.8C363.1,516.8 362.3,516.0 361.5,516.0C360.8,516.0 357.2,517.3 353.6,519.0C350.0,520.6 347.0,522.5 347.0,523.2C347.0,523.9 348.9,527.5 351.3,531.2C353.6,534.9 357.3,541.0 359.5,544.9C361.7,548.7 363.8,551.6 364.3,551.3zM418.2,527.6C420.0,526.2 423.8,523.2 426.7,521.0C430.3,518.3 432.2,515.9 433.0,513.3C433.7,511.2 435.1,508.0 436.2,506.2C437.3,504.4 440.9,499.7 444.1,495.7C447.3,491.7 450.0,488.2 450.0,487.8C450.0,487.4 447.2,487.3 443.8,487.6C440.3,488.0 436.5,488.9 435.2,489.7C433.7,490.6 429.5,497.9 423.9,509.3C419.0,519.2 415.0,528.0 415.0,528.8C415.0,529.8 416.0,529.5 418.2,527.6zM367.1,482.0C366.7,482.0 365.4,481.0 364.3,479.8C363.2,478.5 361.0,475.5 359.5,473.0C358.0,470.5 355.1,466.8 353.1,464.7C351.1,462.6 348.1,460.1 346.5,459.1C344.9,458.1 341.5,457.0 339.1,456.6C336.7,456.2 330.4,454.3 325.1,452.4C319.8,450.4 310.1,445.9 303.5,442.5C296.9,439.0 288.1,435.2 284.0,434.0C279.9,432.9 272.3,431.3 267.1,430.5C262.0,429.8 257.5,428.9 257.2,428.5C256.9,428.2 258.2,426.4 260.1,424.4C262.0,422.5 265.8,419.4 268.5,417.5C271.2,415.7 275.9,413.5 278.9,412.6C282.0,411.7 287.9,411.0 292.6,411.0C298.4,411.0 303.4,411.7 309.6,413.6C314.5,415.0 320.9,417.5 323.9,419.3C326.8,421.1 331.2,424.2 333.6,426.3C336.0,428.4 340.2,433.3 342.9,437.2C345.7,441.1 349.1,447.5 350.6,451.4C352.1,455.3 354.4,460.4 355.9,462.8C357.4,465.2 359.1,466.9 360.0,466.7C361.3,466.5 361.5,464.0 361.2,450.5C361.1,441.7 360.5,431.4 359.9,427.6C359.4,423.9 358.4,419.7 357.7,418.3C357.0,417.0 352.4,411.9 347.6,407.1C342.8,402.2 336.7,397.1 334.0,395.6C329.6,393.2 328.2,393.0 319.3,393.1C313.9,393.2 307.7,392.9 305.5,392.5C303.3,392.1 298.7,390.9 295.3,389.9C291.6,388.7 287.4,386.4 284.8,384.1C280.5,380.3 280.5,380.3 266.5,379.7C258.8,379.3 250.2,378.4 247.5,377.6C244.8,376.8 239.3,374.9 235.5,373.2C231.6,371.6 226.4,369.0 224.0,367.5C221.5,365.9 216.8,362.4 213.5,359.7C210.2,356.9 203.7,351.2 199.1,346.9C193.8,342.0 190.9,338.6 191.3,337.7C191.6,336.9 194.0,336.0 197.1,335.6C200.1,335.2 209.4,334.9 218.0,334.9C230.1,335.0 236.2,335.5 246.0,337.4C253.0,338.7 262.2,341.0 266.5,342.5C270.9,344.0 277.4,346.8 281.0,348.7C284.6,350.6 290.0,354.0 293.0,356.3C296.0,358.5 301.8,363.5 305.8,367.4C309.7,371.2 313.0,374.7 313.0,375.2C313.0,375.7 310.2,375.8 306.7,375.4C301.5,374.9 299.5,375.1 295.2,377.0C292.3,378.3 290.3,379.6 290.7,380.0C291.1,380.4 295.3,381.5 299.9,382.4C306.1,383.7 310.4,384.0 316.4,383.5C322.7,383.0 325.6,383.2 329.5,384.5C332.2,385.4 337.9,388.7 342.0,391.8C346.1,394.9 351.9,399.7 354.9,402.5C357.8,405.2 361.0,409.1 362.1,411.1C363.1,413.1 364.4,418.8 364.9,423.6C365.5,428.5 366.4,441.1 367.0,451.5C367.6,461.9 368.3,471.7 368.6,473.2C368.9,474.8 368.9,477.4 368.5,479.0C368.1,480.6 367.5,482.0 367.1,482.0zM425.1,455.2C425.5,454.1 425.2,449.9 424.5,445.7C423.8,441.5 422.6,436.4 421.9,434.3C421.3,432.2 419.3,428.0 417.7,425.0C416.0,422.0 413.8,418.5 412.7,417.3C411.6,416.1 410.3,415.3 409.9,415.6C409.4,415.9 409.0,418.9 409.0,422.4C409.0,425.8 409.7,431.1 410.6,434.1C411.5,437.1 413.5,442.0 415.0,445.0C416.6,448.1 419.3,452.0 421.1,453.8C424.1,456.8 424.5,456.9 425.1,455.2zM504.0,456.3C505.4,456.2 509.6,455.8 513.5,455.5C517.4,455.2 523.9,454.2 528.0,453.4C532.1,452.6 536.3,451.7 537.3,451.4C538.2,451.1 538.7,450.4 538.4,449.8C538.0,449.3 534.8,447.5 531.1,445.8C527.5,444.1 522.3,442.2 519.6,441.4C516.9,440.7 511.6,439.8 508.0,439.4C503.1,438.9 499.8,439.2 495.9,440.4C492.9,441.3 487.1,444.4 483.0,447.3C478.9,450.2 475.5,453.2 475.5,454.0C475.5,455.2 477.9,455.6 488.5,456.0C495.6,456.3 502.6,456.4 504.0,456.3zM338.1,448.0C338.6,448.0 338.5,446.8 337.9,445.2C337.3,443.7 335.8,440.7 334.5,438.4C333.2,436.2 330.2,432.6 327.8,430.3C325.3,428.1 321.4,425.1 318.9,423.7C316.5,422.3 311.1,420.2 307.0,419.1C302.9,417.9 297.0,417.0 294.0,417.0C290.9,417.0 285.7,417.7 282.5,418.5C279.2,419.4 275.9,420.7 275.1,421.5C274.3,422.3 273.9,423.2 274.2,423.6C274.6,423.9 278.6,424.8 283.2,425.6C287.8,426.4 294.0,427.8 297.0,428.6C300.0,429.5 305.8,431.7 309.9,433.6C314.0,435.5 318.1,437.0 319.2,437.0C320.3,437.0 322.1,437.5 323.2,438.1C324.4,438.7 328.0,441.2 331.3,443.6C334.5,446.0 337.6,448.0 338.1,448.0zM473.8,436.4C472.2,436.7 471.0,436.7 471.0,436.2C471.0,435.7 472.8,432.9 474.9,429.9C477.1,426.9 480.9,422.8 483.5,420.6C486.1,418.5 490.9,415.3 494.3,413.6C497.7,411.8 501.9,409.9 503.6,409.3C506.2,408.4 507.5,406.8 510.5,400.4C513.4,394.4 516.1,390.8 521.9,385.0C526.4,380.6 532.7,375.8 537.1,373.3C541.1,371.0 548.5,367.9 553.5,366.5C558.5,365.1 565.9,363.4 570.0,362.8C574.4,362.2 583.3,362.0 591.5,362.4C599.2,362.7 607.7,363.4 610.4,364.0C613.0,364.5 617.0,365.5 619.2,366.0C622.1,366.8 623.0,367.6 622.8,368.8C622.6,369.7 616.2,375.6 608.5,381.8C600.8,388.1 591.3,395.6 587.5,398.5C583.6,401.4 576.7,405.7 572.2,408.0C567.6,410.3 560.5,413.0 556.3,414.1C551.2,415.4 545.3,416.0 538.4,416.0C528.5,416.0 527.9,416.1 518.3,420.4C512.9,422.8 504.3,426.6 499.2,428.9C494.2,431.2 489.4,433.0 488.7,433.0C488.0,433.0 485.0,433.6 482.0,434.4C479.0,435.1 475.3,436.0 473.8,436.4zM491.8,424.0C492.3,424.0 497.1,422.2 502.5,420.0C507.9,417.8 512.7,416.0 513.2,416.0C513.7,416.0 515.7,415.3 517.8,414.4C521.0,413.1 521.3,412.7 519.7,411.9C518.8,411.3 515.6,410.3 512.7,409.5C507.5,408.2 507.5,408.2 503.0,411.7C500.5,413.7 496.8,416.9 494.8,418.9C492.7,420.8 491.0,422.8 491.0,423.2C491.0,423.6 491.4,424.0 491.8,424.0zM539.0,406.9C544.0,406.9 550.1,406.3 553.5,405.5C556.8,404.6 562.0,402.7 565.0,401.1C568.1,399.6 573.7,396.3 577.5,393.7C581.4,391.1 588.8,386.1 594.0,382.4C599.2,378.8 604.6,374.9 605.9,373.8C607.7,372.3 607.9,371.5 607.1,370.7C606.3,369.9 599.7,369.5 585.7,369.5C567.6,369.5 564.7,369.7 557.6,371.8C553.2,373.1 546.1,375.9 541.8,378.2C536.6,380.9 532.3,384.0 529.0,387.7C526.2,390.8 523.3,394.5 522.4,396.1C520.9,399.0 520.9,399.0 527.2,395.4C530.7,393.5 536.6,390.4 540.5,388.5C544.4,386.7 552.2,383.6 558.0,381.7C563.8,379.7 571.4,377.8 574.9,377.4C579.7,376.9 581.1,377.0 580.6,377.9C580.2,378.5 577.8,380.1 575.2,381.4C572.6,382.7 566.1,385.4 560.7,387.5C555.4,389.5 548.0,393.2 544.3,395.6C540.6,398.0 535.0,401.0 531.8,402.2C528.6,403.5 526.0,404.8 526.0,405.2C526.0,405.6 527.0,406.1 528.2,406.3C529.5,406.5 534.3,406.8 539.0,406.9zM361.1,399.0C360.5,399.0 358.9,397.5 357.5,395.6C355.2,392.5 354.9,391.2 354.6,381.4C354.4,375.4 353.7,364.6 353.1,357.5C352.5,350.3 351.3,336.7 350.5,327.3C349.7,317.8 348.6,309.1 348.0,308.0C347.4,306.9 346.6,306.0 346.2,306.0C345.8,306.0 341.5,305.3 336.6,304.6C330.9,303.6 325.1,301.9 320.4,299.6C314.6,296.9 310.8,293.9 303.0,286.4C297.5,281.1 293.0,276.1 293.0,275.4C293.0,274.7 293.9,273.9 294.9,273.5C296.0,273.2 300.8,273.4 305.7,274.0C310.5,274.7 317.2,275.8 320.4,276.7C323.7,277.5 329.5,279.7 333.4,281.7C337.3,283.7 341.9,286.4 343.5,287.8C346.0,289.8 346.6,290.0 346.8,288.7C347.0,287.9 346.2,279.9 345.0,271.1C343.9,262.3 342.5,253.9 342.0,252.6C341.5,251.2 339.1,248.6 336.8,246.9C334.4,245.2 330.7,243.0 328.5,242.0C326.2,241.0 320.9,240.0 316.0,239.7C311.3,239.4 305.0,238.7 302.0,238.0C299.0,237.3 293.3,235.3 289.3,233.5C285.4,231.7 280.0,228.7 277.3,226.9C274.7,225.2 269.1,221.0 265.0,217.6C260.9,214.3 257.2,211.1 256.8,210.6C256.4,210.0 256.6,208.9 257.3,208.1C258.3,207.0 261.4,206.8 274.7,207.3C290.9,207.9 290.9,207.9 285.9,201.7C283.1,198.3 279.1,192.3 276.9,188.5C274.7,184.7 272.2,179.0 271.4,176.0C270.5,173.0 268.2,166.5 266.3,161.6C264.5,156.7 263.2,152.0 263.4,151.3C263.7,150.6 264.7,150.0 265.6,150.0C266.6,150.0 271.4,152.1 276.3,154.6C281.3,157.2 288.7,161.2 292.8,163.7C297.0,166.1 302.6,169.9 305.3,172.1C308.1,174.2 310.5,175.8 310.7,175.6C311.0,175.3 310.6,171.0 310.0,166.0C309.2,160.7 308.9,152.9 309.3,147.3C309.9,137.6 309.9,137.6 305.3,129.2C302.8,124.5 298.5,114.8 295.8,107.6C293.1,100.4 290.6,93.7 290.3,92.7C289.8,91.2 290.2,91.0 292.6,91.6C294.2,92.0 299.0,94.1 303.2,96.2C308.1,98.7 314.5,103.4 320.4,108.6C325.6,113.3 330.1,117.7 330.4,118.5C330.7,119.3 331.4,120.0 331.9,120.0C332.5,120.0 331.7,117.4 330.2,114.2C327.7,108.8 327.6,107.7 327.5,92.0C327.5,76.1 327.6,75.1 330.9,64.3C332.7,58.2 335.1,51.7 336.2,50.0C337.4,47.9 338.5,47.1 339.1,47.7C339.6,48.2 341.8,52.2 344.0,56.5C346.1,60.8 349.4,68.9 351.2,74.6C353.0,80.3 354.8,85.0 355.2,85.0C355.5,85.0 356.7,83.5 357.9,81.7C359.0,79.9 361.1,77.3 362.6,76.0C365.2,73.5 365.2,73.5 364.6,76.5C364.3,78.2 363.6,84.5 363.0,90.5C362.4,96.5 361.2,104.4 360.3,108.0C359.5,111.6 357.8,116.3 356.8,118.4C355.7,120.6 352.8,125.4 350.3,129.1C345.8,135.8 345.8,135.8 345.9,145.5C346.0,150.9 346.3,156.3 346.6,157.6C347.0,159.0 346.8,160.0 346.2,160.0C345.6,160.0 344.8,159.6 344.5,159.0C344.2,158.4 343.0,158.0 342.0,158.0C340.9,158.0 339.6,158.9 339.0,159.9C338.5,161.0 338.0,162.3 338.0,162.9C338.0,163.5 339.8,164.9 342.0,166.0C344.1,167.1 347.3,168.0 349.0,168.0C350.9,168.0 352.3,167.4 352.7,166.4C353.0,165.5 352.5,162.5 351.5,159.8C350.2,156.0 349.9,153.1 350.3,148.1C350.6,144.4 351.6,139.4 352.6,137.0C353.5,134.5 356.3,129.1 358.8,124.8C361.2,120.6 365.8,113.9 368.9,109.9C372.0,105.9 376.1,101.5 377.9,100.3C379.8,99.0 381.6,98.0 382.0,98.0C382.4,98.0 383.2,99.2 383.9,100.7C384.6,102.2 385.4,107.3 385.7,112.0C386.1,117.7 385.7,123.3 384.6,129.0C383.7,133.7 381.6,140.3 380.0,143.7C377.9,147.8 373.7,153.4 367.5,159.9C360.6,167.1 358.0,170.7 357.5,173.2C357.1,175.1 357.6,181.8 358.5,188.1C359.4,194.4 360.8,201.7 361.7,204.3C362.5,207.0 363.6,208.8 364.0,208.3C364.5,207.9 365.0,203.7 365.2,199.0C365.5,192.1 366.1,189.4 368.5,184.5C370.6,180.3 374.6,175.4 382.0,167.9C391.0,158.8 393.7,156.7 401.1,153.1C405.8,150.9 410.6,149.0 411.8,149.0C413.5,149.0 414.0,149.6 414.0,151.8C414.0,153.4 413.5,157.3 412.9,160.6C412.3,163.8 410.7,170.3 409.3,175.0C407.9,179.7 405.3,186.4 403.4,190.0C401.6,193.6 398.0,198.7 395.3,201.4C392.7,204.1 388.1,207.8 385.2,209.7C380.9,212.5 378.4,215.5 371.4,225.9C362.8,238.8 362.8,238.8 363.9,249.1C364.5,254.8 365.7,265.4 366.5,272.5C367.3,279.6 368.0,287.6 368.0,290.2C368.0,292.8 367.5,296.1 366.8,297.5C366.2,298.9 365.1,300.0 364.4,300.0C363.8,300.0 362.9,299.2 362.5,298.2C362.2,297.3 361.2,289.7 360.4,281.3C359.6,272.9 358.4,261.9 357.7,256.8C356.4,247.5 356.4,247.5 353.4,247.2C351.5,247.0 349.8,247.5 349.0,248.5C348.0,249.8 347.9,251.4 348.8,256.8C349.5,260.5 350.5,270.2 351.0,278.5C351.6,286.8 352.7,298.7 353.5,305.0C354.3,311.3 355.4,321.0 356.0,326.5C356.6,332.0 358.2,349.1 359.5,364.4C360.9,379.8 362.0,393.8 362.0,395.7C362.0,397.5 361.6,399.0 361.1,399.0zM336.2,382.0C335.8,382.0 332.8,380.7 329.5,379.1C326.1,377.5 320.0,373.1 315.5,369.0C311.1,365.0 304.1,359.1 300.0,356.0C295.9,352.8 290.3,347.9 287.7,345.1C285.0,342.3 281.6,337.1 280.0,333.7C278.4,330.3 276.2,323.9 275.0,319.5C273.8,315.1 272.6,306.9 272.3,301.2C271.7,291.5 271.8,291.0 273.7,291.0C274.8,291.0 278.3,292.9 281.6,295.2C284.8,297.5 290.7,302.0 294.6,305.1C298.5,308.3 304.4,313.9 307.7,317.7C311.0,321.4 315.3,327.6 317.3,331.5C319.2,335.4 321.6,340.7 322.5,343.5C323.4,346.2 324.5,352.0 325.0,356.3C325.5,360.5 325.7,364.7 325.4,365.5C325.0,366.3 325.0,368.1 325.4,369.3C325.7,370.6 328.4,373.6 331.5,376.1C334.5,378.5 337.0,380.8 337.0,381.2C337.0,381.7 336.7,382.0 336.2,382.0zM269.2,369.9C274.0,369.9 281.3,369.5 285.5,368.9C289.6,368.3 293.0,367.4 293.0,366.9C293.0,366.4 289.7,363.6 285.8,360.6C281.8,357.7 276.2,354.1 273.5,352.7C270.8,351.4 265.5,349.3 261.9,348.2C258.3,347.1 249.6,345.2 242.6,344.0C235.6,342.8 224.2,341.7 217.4,341.6C210.6,341.4 205.0,341.7 205.0,342.1C205.0,342.6 206.7,343.8 208.8,344.9C210.9,346.0 217.1,348.0 222.6,349.5C228.0,350.9 235.5,353.0 239.2,354.1C243.0,355.2 246.0,356.5 246.0,356.9C246.0,357.4 243.9,358.0 241.4,358.4C238.8,358.7 235.4,359.0 233.7,359.0C231.3,359.0 231.0,359.2 231.9,360.4C232.6,361.2 235.0,362.7 237.3,363.8C239.6,364.8 244.7,366.4 248.5,367.3C252.3,368.2 256.6,369.1 258.0,369.3C259.4,369.6 264.4,369.8 269.2,369.9zM399.1,370.0C399.9,370.0 401.7,369.2 403.2,368.2C404.7,367.2 407.2,364.6 408.8,362.5C410.4,360.3 419.0,351.4 427.9,342.7C436.7,334.0 444.0,326.5 444.0,326.0C444.0,325.5 441.5,326.0 438.4,327.0C435.4,328.1 429.9,330.4 426.2,332.2C421.7,334.4 417.2,337.8 412.5,342.5C408.6,346.4 404.1,352.3 402.3,355.6C400.5,358.9 398.8,363.5 398.4,365.8C397.9,369.0 398.1,370.0 399.1,370.0zM500.1,367.0C501.3,366.3 505.4,362.6 509.2,358.8C512.9,355.0 516.7,350.5 517.6,348.8C519.2,345.7 519.2,345.7 514.5,346.2C511.3,346.6 509.0,347.6 507.0,349.5C505.5,351.0 503.1,354.7 501.7,357.8C500.3,361.0 498.9,364.6 498.5,365.8C497.9,368.0 498.0,368.1 500.1,367.0zM410.7,367.0C412.2,367.0 415.5,365.6 418.1,363.8C420.6,362.1 423.3,359.8 423.9,358.7C424.6,357.7 425.0,356.6 424.8,356.4C424.6,356.2 420.7,358.1 416.2,360.7C411.7,363.2 408.0,365.7 408.0,366.2C408.0,366.6 409.2,367.0 410.7,367.0zM316.2,358.4C316.7,358.1 316.8,355.7 316.4,353.2C316.0,350.6 314.7,345.4 313.4,341.7C312.2,337.9 309.6,332.3 307.8,329.2C306.0,326.1 300.9,319.9 296.5,315.5C292.1,311.0 286.4,306.0 283.8,304.2C281.2,302.4 278.9,301.0 278.7,301.0C278.4,301.0 278.6,302.9 279.2,305.2C279.7,307.6 281.3,313.3 282.7,318.0C284.1,322.6 286.1,328.3 287.1,330.6C288.0,332.9 290.6,336.7 292.7,339.1C296.5,343.3 296.5,343.3 297.0,337.1C297.5,330.8 297.5,330.8 302.0,337.8C304.5,341.7 308.5,348.0 310.9,351.9C313.4,355.7 315.7,358.7 316.2,358.4zM511.7,337.5C512.7,337.1 516.6,336.1 520.5,335.3C524.4,334.6 528.3,333.7 529.3,333.4C530.2,333.1 532.4,331.7 534.0,330.3C535.7,329.0 537.0,327.5 537.0,327.1C537.0,326.8 533.5,326.6 529.3,326.9C522.1,327.2 521.7,327.1 523.0,325.5C523.7,324.6 526.0,323.0 527.9,322.1C529.9,321.1 533.8,319.5 536.6,318.6C539.5,317.7 543.7,315.5 546.2,313.7C548.6,311.9 552.7,308.2 555.4,305.3C560.1,300.2 560.1,300.2 551.8,302.5C547.2,303.8 540.9,305.8 537.8,307.0C534.6,308.3 530.2,310.8 528.0,312.7C525.7,314.7 521.4,319.6 518.3,323.8C515.3,327.9 512.1,332.8 511.3,334.8C509.9,338.1 510.0,338.2 511.7,337.5zM517.6,314.9C518.3,314.1 519.8,309.1 520.9,303.8C522.1,297.8 524.1,291.8 526.1,288.0C527.8,284.7 529.5,282.2 529.7,282.4C530.0,282.6 529.6,285.4 529.0,288.5C528.4,291.6 528.1,294.8 528.4,295.7C529.0,297.1 529.3,297.1 531.0,295.5C532.1,294.5 535.6,289.6 538.9,284.6C542.1,279.6 547.1,271.2 550.0,266.0C552.9,260.8 556.3,254.9 557.6,253.0C558.9,251.1 560.0,249.0 560.0,248.2C560.0,247.3 559.2,247.4 556.8,248.6C555.0,249.5 550.4,252.9 546.5,256.0C542.6,259.2 536.4,265.0 532.6,269.0C528.9,273.0 524.0,279.0 521.9,282.3C519.7,285.7 517.2,290.9 516.3,293.9C515.5,296.9 514.7,302.1 514.7,305.4C514.7,308.8 515.0,312.6 515.4,313.9C516.1,315.9 516.4,316.0 517.6,314.9zM336.8,296.0C337.4,296.0 338.0,295.1 338.0,294.0C338.0,292.8 336.3,290.8 333.9,289.0C331.6,287.4 327.3,285.1 324.2,284.0C321.1,282.8 316.5,281.5 314.0,281.0C311.5,280.5 309.1,280.5 308.7,280.9C308.2,281.4 309.8,283.3 312.2,285.2C314.6,287.2 317.4,289.2 318.6,289.8C319.7,290.4 324.0,292.0 328.1,293.4C332.2,294.8 336.1,296.0 336.8,296.0zM405.2,271.6C407.6,271.2 411.3,270.0 413.5,268.9C415.7,267.9 419.5,265.2 422.0,263.0C426.5,259.1 426.5,259.1 421.5,259.0C416.6,259.0 416.6,259.0 422.1,253.2C425.1,250.1 430.5,244.1 434.0,240.0C437.5,235.9 441.0,231.7 441.8,230.7C442.7,229.8 443.0,228.7 442.7,228.4C442.4,228.0 437.9,229.9 432.8,232.5C427.7,235.1 420.8,239.1 417.5,241.5C414.2,243.8 408.7,248.6 405.4,252.2C402.0,255.7 398.3,260.5 397.1,262.9C395.9,265.2 395.0,267.4 395.2,267.6C395.4,267.8 397.3,266.8 399.3,265.3C401.3,263.9 403.3,263.0 403.7,263.4C404.1,263.7 403.6,265.4 402.7,266.9C401.8,268.5 401.0,270.4 401.0,271.0C401.0,271.9 402.2,272.1 405.2,271.6zM344.0,240.9C345.4,240.9 347.2,240.5 348.0,240.0C349.2,239.1 348.9,238.5 346.0,236.1C344.1,234.5 341.3,232.4 339.8,231.5C337.1,229.9 337.0,230.0 335.0,233.2C333.9,235.0 333.0,236.8 333.0,237.2C333.0,237.5 334.9,238.5 337.2,239.3C339.6,240.2 342.6,240.9 344.0,240.9zM352.8,237.0C353.2,237.0 355.2,235.3 357.2,233.2C359.2,231.2 363.5,225.7 366.9,221.1C370.2,216.4 373.0,212.1 373.0,211.4C373.0,210.8 372.3,209.9 371.4,209.6C370.6,209.3 368.8,209.3 367.6,209.6C366.2,209.9 363.8,212.7 361.3,216.8C359.1,220.5 356.0,225.8 354.6,228.7C353.2,231.6 352.0,234.6 352.0,235.5C352.0,236.3 352.4,237.0 352.8,237.0zM317.5,230.8C320.8,230.8 324.6,230.5 326.0,230.1C327.4,229.7 328.6,228.7 328.8,227.8C329.0,226.6 327.4,225.2 323.3,223.2C320.1,221.6 313.2,218.8 308.0,217.0C300.4,214.3 296.2,213.6 287.0,213.0C280.7,212.6 274.9,212.5 274.2,212.8C273.6,213.0 273.0,213.6 273.0,214.0C273.0,214.4 278.2,217.3 284.5,220.4C290.8,223.5 297.2,226.5 298.7,227.2C300.3,227.8 303.8,228.9 306.5,229.6C309.2,230.3 314.2,230.8 317.5,230.8zM345.7,227.0C346.1,227.0 348.0,224.6 349.9,221.8C351.9,218.8 353.5,214.9 353.7,212.5C354.0,210.3 353.3,201.8 352.2,193.6C351.0,184.9 349.7,178.2 348.9,177.5C348.1,176.7 346.6,176.0 345.5,175.8C343.5,175.5 343.5,176.1 343.5,199.5C343.5,212.7 343.8,224.3 344.2,225.2C344.6,226.2 345.3,227.0 345.7,227.0zM329.1,219.0C329.6,219.0 329.7,217.8 329.4,216.2C329.0,214.7 328.0,211.5 327.0,208.9C326.1,206.4 323.5,201.7 321.3,198.4C319.0,195.2 313.6,189.1 309.3,184.8C305.0,180.6 297.7,174.7 293.0,171.7C288.3,168.7 282.3,165.0 279.6,163.6C276.9,162.2 274.5,161.2 274.2,161.4C274.0,161.7 276.6,168.2 280.0,176.0C284.4,186.0 287.5,191.5 290.7,195.0C293.5,198.1 297.7,201.2 302.2,203.4C306.0,205.4 309.6,206.7 310.1,206.4C310.6,206.1 310.3,204.5 309.5,202.9C308.6,201.3 306.1,197.2 304.0,193.8C301.8,190.4 300.2,187.5 300.4,187.2C300.7,187.0 303.5,188.8 306.7,191.3C309.9,193.7 314.2,198.2 316.3,201.1C318.4,204.1 321.9,209.3 324.1,212.8C326.4,216.2 328.6,219.0 329.1,219.0zM334.9,207.0C335.3,207.0 336.0,204.9 336.4,202.4C336.7,199.8 337.0,191.8 337.0,184.5C337.0,173.5 336.7,171.0 335.4,169.9C334.5,169.2 332.3,166.5 330.6,163.9C328.9,161.4 324.5,156.0 320.8,152.0C314.0,144.6 314.0,144.6 314.0,148.2C314.0,150.2 314.7,154.7 315.4,158.2C316.2,161.7 317.4,168.6 318.0,173.5C318.9,180.1 320.0,183.9 322.1,187.8C323.7,190.7 327.1,196.2 329.5,200.0C332.0,203.9 334.4,207.0 334.9,207.0zM380.2,201.0C380.8,201.0 382.8,200.0 384.5,198.9C386.2,197.7 389.5,194.2 391.8,191.1C394.1,188.0 396.9,182.8 398.1,179.5C399.3,176.2 401.6,170.4 403.2,166.7C404.8,162.9 405.9,159.6 405.6,159.2C405.2,158.9 403.3,159.4 401.2,160.4C399.2,161.4 394.8,164.1 391.5,166.5C388.2,168.9 384.3,172.1 382.8,173.6C381.4,175.2 378.1,179.9 375.6,184.0C373.0,188.1 371.0,192.6 371.0,194.2C371.0,195.7 371.3,197.0 371.6,197.0C371.9,197.0 374.1,194.9 376.5,192.2C378.9,189.6 381.1,187.8 381.5,188.2C381.9,188.5 381.5,191.3 380.6,194.3C379.7,197.3 379.0,200.1 379.0,200.4C379.0,200.7 379.5,201.0 380.2,201.0zM360.8,153.0C361.3,153.0 363.8,151.2 366.3,149.0C368.9,146.7 372.0,142.6 373.4,139.7C374.7,136.8 376.8,129.8 377.9,124.1C379.1,118.4 380.0,112.4 380.0,110.8C380.0,109.2 379.6,108.0 379.1,108.2C378.6,108.4 375.8,111.2 372.9,114.5C370.0,117.8 366.1,122.9 364.3,125.8C362.4,128.7 360.2,132.9 359.4,135.2C358.6,137.4 358.0,139.9 358.0,140.6C358.0,141.4 358.6,141.7 359.7,141.3C361.0,140.8 361.2,141.0 360.6,142.6C360.2,143.6 359.6,145.7 359.3,147.2C359.0,148.7 359.0,150.6 359.3,151.5C359.7,152.3 360.3,153.0 360.8,153.0zM335.5,148.8C337.0,148.6 337.4,147.9 337.2,146.0C337.1,144.6 334.9,139.2 332.3,134.0C328.4,125.8 326.5,123.3 318.6,115.5C313.5,110.5 307.5,105.5 305.2,104.2C301.8,102.3 301.0,102.2 301.0,103.4C301.0,104.3 302.1,107.4 303.4,110.4C304.7,113.3 308.1,119.8 311.0,124.6C313.9,129.5 317.8,135.7 319.7,138.3C321.7,141.0 325.5,144.4 328.4,146.1C331.2,147.7 334.4,148.9 335.5,148.8zM344.4,119.7C344.9,119.5 346.8,117.7 348.4,115.6C351.2,112.2 351.5,111.1 351.4,105.2C351.4,99.9 350.2,94.8 345.7,80.9C342.5,71.2 339.4,62.5 338.6,61.5C337.4,59.9 337.2,60.1 336.2,64.1C335.6,66.5 334.6,72.5 333.9,77.5C333.3,82.5 333.0,90.6 333.3,95.7C333.7,101.9 334.5,106.4 336.0,109.7C337.1,112.3 339.3,115.7 340.8,117.3C342.2,118.8 343.8,119.9 344.4,119.7z" />

</svg>