<?xml version="1.0" encoding="UTF-8" standalone="no"?>
<svg 
  version="1.1" 
  xmlns="http://www.w3.org/2000/svg" 
  xmlns:xlink="http://www.w3.org/1999/xlink" 
  xmlns:svg="http://www.w3.org/2000/svg"
  xmlns:rdf="http://www.w3.org/1999/02/22-rdf-syntax-ns#"
  xmlns:cc="http://creativecommons.org/ns#"
  xmlns:dc="http://purl.org/dc/elements/1.1/"
  viewBox="0 0 768 768"
  width="768"
  height="768"
>
<style>svg {background-color: white; }</style>"
<metadata id="metadata1">
Created by https://svgstud.io and licensed under CC-BY-SA 4.0 license. Please attribute https://svgstud.io
</metadata>
<metadata id="prompt">
skogafoss
</metadata>
<metadata id="version">
7
</metadata>
<metadata id="metadata2">
<rdf:RDF>
<cc:Work
    rdf:about="">
    <cc:license
    rdf:resource="http://creativecommons.org/licenses/by-sa/4.0/" />
    <dc:creator>
        <cc:Agent>
            <dc:title>https://svgstud.io</dc:title>
        </cc:Agent>
    </dc:creator>
</cc:Work>
<cc:License
    rdf:about="http://creativecommons.org/licenses/by-sa/4.0/">
    <cc:permits
    rdf:resource="http://creativecommons.org/ns#Reproduction" />
    <cc:permits
    rdf:resource="http://creativecommons.org/ns#Distribution" />
    <cc:requires
    rdf:resource="http://creativecommons.org/ns#Notice" />
    <cc:requires
    rdf:resource="http://creativecommons.org/ns#Attribution" />
    <cc:permits
    rdf:resource="http://creativecommons.org/ns#DerivativeWorks" />
    <cc:requires
    rdf:resource="http://creativecommons.org/ns#ShareAlike" />
</cc:License>
</rdf:RDF>
</metadata>
<metadata id="uid">
40823c1290ce2720e98ad08a3fd32e9bc18682c1828d3918b1a21ec9931ed121
</metadata>
<path stroke="none" fill="black" fill-rule="evenodd" d="M193.9,767.9C123.8,767.9 65.3,767.5 63.9,767.0C62.4,766.6 58.2,764.5 54.4,762.5C50.6,760.4 44.8,756.8 41.5,754.4C38.2,752.1 31.4,746.0 26.4,740.9C21.4,735.7 15.1,728.1 12.5,724.0C9.8,719.9 5.9,712.7 3.7,708.1C-0.2,699.7 -0.2,699.7 0.4,493.1C0.7,379.5 1.3,274.3 1.6,259.4C2.0,244.4 2.6,231.6 3.1,230.9C3.7,229.8 4.3,229.8 6.5,231.0C8.0,231.8 9.8,233.7 10.6,235.2C11.9,237.7 11.9,238.4 10.4,240.9C8.8,243.7 8.8,243.9 11.3,247.1C12.7,249.0 14.2,251.7 14.5,253.2C14.9,254.7 14.8,257.2 14.3,258.7C13.7,260.4 13.7,262.8 14.2,264.9C14.8,266.9 17.5,270.6 21.0,274.1C24.2,277.4 27.3,280.0 27.9,280.0C28.5,280.0 29.0,278.8 29.0,277.4C29.0,276.0 28.4,272.2 27.6,269.1C26.8,266.0 25.2,257.6 24.0,250.5C22.9,243.3 21.7,236.5 21.5,235.3C21.2,234.1 20.0,232.1 18.7,230.9C17.5,229.7 15.2,227.9 13.5,226.9C11.8,225.9 9.0,225.0 7.2,225.0C5.0,225.0 4.0,224.5 4.0,223.5C4.0,222.4 5.1,222.0 7.8,222.0C9.8,222.0 13.1,222.5 15.2,223.0C17.5,223.7 20.3,223.7 22.9,223.1C25.4,222.6 27.0,222.6 27.0,223.1C27.0,223.7 26.1,225.4 24.9,226.9C22.8,229.8 22.8,229.8 24.7,232.6C25.8,234.2 27.5,236.8 28.5,238.4C30.0,240.9 30.6,241.2 34.1,240.7C36.2,240.4 39.9,239.0 42.2,237.6C44.6,236.2 47.7,234.0 49.2,232.9C51.4,231.0 52.3,230.9 54.9,231.8C57.3,232.7 61.1,232.5 70.3,231.4C79.7,230.2 83.3,229.3 86.2,227.4C88.2,226.1 90.4,224.1 91.1,222.9C92.2,220.7 92.2,220.7 85.9,221.3C82.4,221.7 78.2,222.2 76.6,222.6C73.9,223.3 73.8,223.2 75.1,220.9C75.8,219.6 80.2,214.6 85.0,209.9C90.3,204.6 95.1,200.8 97.2,200.1C99.7,199.3 102.0,199.2 105.1,199.9C107.5,200.5 111.3,201.0 113.6,201.0C116.9,201.0 118.7,200.2 123.4,196.5C126.6,194.0 129.5,192.0 129.8,192.0C130.2,192.0 128.8,193.4 126.7,195.1C124.6,196.8 122.4,199.4 121.6,200.8C120.9,202.3 120.0,208.1 119.6,213.8C119.1,221.5 119.2,224.0 120.1,224.0C120.8,224.0 124.5,222.9 128.4,221.6C132.3,220.2 140.9,218.2 147.5,217.0C154.1,215.9 161.0,214.5 162.8,213.9C164.6,213.3 165.9,212.3 165.7,211.7C165.5,211.0 163.8,210.0 161.9,209.3C160.0,208.6 155.5,208.1 151.8,208.1C148.1,208.0 144.9,207.6 144.6,207.1C144.2,206.6 144.5,204.9 145.0,203.3C145.6,201.8 148.4,198.1 151.3,195.2C154.2,192.2 157.5,189.4 158.7,188.9C160.1,188.4 165.4,188.6 172.7,189.5C179.2,190.3 186.4,191.0 188.7,191.0C192.9,191.0 192.9,191.0 191.5,195.3C190.7,197.6 189.6,202.2 189.1,205.5C188.5,208.8 187.8,213.2 187.4,215.4C186.7,219.3 186.7,219.3 193.2,215.6C197.4,213.3 201.0,212.0 203.4,212.0C205.6,212.0 206.9,212.4 206.5,213.0C206.2,213.6 202.5,216.5 198.5,219.5C194.4,222.5 190.4,226.0 189.5,227.4C188.6,228.7 187.5,231.3 187.0,233.1C186.4,234.9 186.3,237.2 186.5,238.2C187.0,239.7 187.4,239.7 190.3,238.5C192.1,237.8 198.4,236.3 204.5,235.2C210.6,234.1 217.7,232.2 220.3,231.0C222.9,229.8 224.9,228.2 224.7,227.6C224.5,226.9 220.6,226.4 214.2,226.2C208.6,226.1 204.0,225.5 204.0,225.0C204.0,224.5 205.5,222.9 207.4,221.4C209.3,219.9 212.7,217.9 215.0,217.0C217.3,216.1 219.2,215.0 219.2,214.4C219.2,213.9 217.0,212.7 214.4,211.8C209.5,210.1 209.5,210.1 214.5,208.0C217.2,206.8 220.6,205.4 222.0,204.9C224.4,203.9 224.4,203.8 222.5,202.4C221.2,201.4 217.6,201.0 210.3,201.0C200.4,201.0 200.0,200.9 200.9,199.1C201.5,198.1 205.8,194.7 210.5,191.6C215.2,188.5 220.3,185.7 221.8,185.4C223.8,185.0 227.6,186.4 236.0,190.5C242.3,193.6 249.4,197.4 251.7,198.8C254.1,200.3 256.0,202.1 256.0,202.9C256.0,203.7 255.4,205.1 254.6,205.9C253.7,207.0 253.1,211.8 252.7,221.8C252.3,231.7 252.5,236.0 253.3,236.0C253.9,236.0 257.6,235.1 261.5,234.0C265.5,232.9 274.2,231.2 281.0,230.2C288.7,229.2 293.5,228.0 293.8,227.2C294.0,226.5 292.6,225.3 290.6,224.5C288.6,223.7 282.4,222.7 276.8,222.4C270.4,222.0 265.0,222.2 262.6,222.8C260.4,223.4 258.3,223.7 257.8,223.4C257.4,223.1 257.6,221.7 258.4,220.2C259.2,218.7 261.8,215.6 264.2,213.3C266.6,211.0 271.0,207.5 274.0,205.6C278.1,202.9 280.5,202.0 283.7,202.0C286.3,202.0 290.5,203.1 294.3,204.8C297.7,206.4 302.7,209.6 305.5,211.8C308.2,214.1 312.0,216.5 314.0,217.1C315.9,217.8 321.3,219.8 326.0,221.7C330.7,223.6 334.9,225.6 335.4,226.0C335.9,226.5 335.3,228.0 334.1,229.6C333.0,231.1 332.0,233.6 332.0,235.3C332.0,238.3 332.0,238.3 337.0,233.6C341.1,229.8 342.6,229.0 345.8,229.0C347.9,229.0 351.2,229.5 352.9,230.1C355.7,231.1 356.7,231.0 360.2,229.0C362.3,227.8 364.3,227.0 364.6,227.3C364.9,227.5 363.7,228.3 362.1,229.0C360.5,229.6 357.3,232.5 355.0,235.4C352.8,238.2 348.9,245.0 346.4,250.4C344.0,255.8 340.2,265.9 338.1,272.9C336.0,279.8 332.6,293.6 330.6,303.5C328.7,313.4 325.5,330.3 323.6,341.0C321.7,351.7 319.2,368.8 318.1,379.0C317.0,389.2 315.6,402.0 315.0,407.5C314.5,413.0 313.1,428.5 312.0,442.0C310.9,455.5 309.6,474.1 309.0,483.5C308.4,492.9 307.2,506.6 306.4,514.0C305.4,522.6 304.4,528.0 303.4,529.0C302.4,530.0 301.7,530.1 300.9,529.3C300.2,528.6 298.8,528.5 296.8,529.1C295.1,529.5 292.9,530.7 292.0,531.5C291.0,532.4 289.9,534.3 289.5,535.8C289.0,537.8 288.7,538.1 288.1,537.0C287.6,536.2 286.1,528.5 284.6,520.0C283.1,511.5 281.2,501.3 280.4,497.4C279.6,493.5 277.7,488.3 276.1,485.8C274.3,483.0 272.1,480.9 269.9,480.1C268.0,479.4 263.6,477.7 260.1,476.2C255.8,474.5 252.4,472.2 249.5,469.1C247.1,466.6 242.3,461.1 238.8,457.0C233.6,451.0 231.0,448.8 225.3,446.0C221.3,444.0 215.7,440.3 212.8,437.6C209.9,434.9 204.2,431.3 200.2,429.4C194.0,426.6 191.4,424.5 182.8,415.5C177.2,409.8 170.9,404.0 168.6,402.7C166.3,401.4 160.5,398.8 155.7,396.9C150.1,394.7 144.1,391.4 139.2,387.7C135.0,384.6 126.3,379.0 120.0,375.2C110.2,369.5 106.9,366.8 97.5,357.1C91.5,350.9 82.6,342.7 77.8,338.9C73.0,335.1 68.4,331.0 67.6,329.7C66.8,328.5 64.8,325.2 63.3,322.3C61.8,319.4 57.9,314.2 54.8,310.7C51.6,307.1 46.6,302.9 43.7,301.2C40.7,299.5 34.1,296.7 29.1,294.9C22.3,292.5 19.6,292.0 18.8,292.8C17.9,293.7 18.1,294.4 19.3,295.7C20.2,296.7 23.8,299.3 27.3,301.5C31.4,304.0 34.3,306.6 35.2,308.5C36.1,310.5 38.6,312.6 43.0,315.0C46.5,316.9 51.2,320.2 53.3,322.3C55.4,324.4 56.9,326.4 56.6,326.7C56.3,327.0 52.7,326.5 48.6,325.6C43.7,324.5 39.9,322.9 37.5,321.0C35.5,319.4 32.9,317.8 31.8,317.4C30.7,317.1 29.6,317.0 29.3,317.3C29.1,317.6 30.1,319.7 31.6,321.9C33.1,324.2 34.0,326.3 33.7,326.6C33.4,326.9 30.3,326.7 26.8,326.2C23.4,325.7 20.2,325.4 19.8,325.7C19.3,325.9 19.0,326.5 19.0,327.0C19.0,327.5 20.5,328.7 22.3,329.8C24.0,330.9 31.0,333.2 37.7,335.0C44.3,336.8 51.3,339.1 53.0,340.2C54.8,341.2 55.9,342.4 55.6,342.7C55.3,343.1 48.1,343.2 39.6,343.1C28.6,342.9 24.0,343.2 23.5,344.0C23.1,344.7 23.4,345.6 24.1,346.1C24.9,346.5 30.4,348.1 36.5,349.4C42.5,350.8 52.0,352.9 57.5,354.1C63.0,355.2 70.1,357.3 73.3,358.7C77.2,360.5 78.8,361.6 78.1,362.3C77.5,362.9 71.4,363.3 62.8,363.2C54.7,363.0 47.2,363.4 45.3,364.1C43.5,364.7 42.0,365.8 42.0,366.5C42.0,367.3 42.8,368.1 43.8,368.4C44.7,368.7 51.8,370.1 59.5,371.5C67.2,372.9 76.8,374.8 80.8,375.6C84.8,376.5 90.4,378.1 93.1,379.2C95.8,380.3 98.0,381.7 98.0,382.1C98.0,382.6 93.4,383.1 87.8,383.2C82.1,383.3 75.9,383.4 74.0,383.5C72.1,383.5 69.9,383.9 69.2,384.4C68.6,384.8 68.0,385.5 68.0,385.9C68.0,386.3 71.0,387.8 74.8,389.2C78.5,390.7 84.2,392.4 87.5,393.0C90.8,393.7 99.7,395.7 107.3,397.6C114.9,399.5 122.2,401.6 123.5,402.2C124.9,402.8 126.0,403.9 126.0,404.6C126.0,405.2 125.2,406.1 124.3,406.5C123.3,406.8 111.7,407.4 98.5,407.6C85.3,407.9 73.4,408.3 72.2,408.6C70.3,409.0 70.1,409.4 70.9,410.4C71.6,411.2 74.1,412.3 76.6,412.9C79.1,413.5 86.7,414.9 93.6,416.0C100.4,417.0 107.0,418.6 108.2,419.4C109.8,420.5 112.8,421.0 118.4,421.0C123.0,421.0 131.5,422.1 138.9,423.6C145.8,425.0 153.0,426.8 154.8,427.5C156.5,428.3 158.0,429.3 158.0,429.9C158.0,430.4 155.2,431.0 151.8,431.2C148.3,431.4 137.4,431.2 127.5,430.7C117.6,430.3 106.4,430.1 102.6,430.5C98.8,430.8 95.1,431.4 94.2,431.9C92.9,432.6 92.9,432.9 94.6,433.7C95.6,434.3 101.5,435.9 107.5,437.4C113.5,438.8 125.4,440.9 133.8,442.0C142.3,443.1 149.6,444.2 150.1,444.5C150.6,444.9 158.0,446.4 166.5,448.0C175.1,449.6 182.9,451.4 183.9,451.9C184.9,452.5 186.2,453.6 187.0,454.4C188.1,455.8 187.4,456.0 180.4,456.2C176.0,456.3 169.3,456.2 165.5,456.1C161.6,455.9 156.5,456.3 154.1,457.0C151.7,457.6 150.0,458.6 150.3,459.3C150.5,459.9 153.3,461.3 156.6,462.3C159.8,463.3 169.9,465.2 179.0,466.6C188.1,467.9 198.9,469.9 203.0,470.9C207.1,472.0 211.8,473.3 213.4,473.9C216.1,475.0 216.2,475.2 214.6,476.9C213.1,478.6 213.8,478.8 230.7,481.4C241.5,483.1 252.8,485.6 259.3,487.7C267.6,490.4 270.3,491.7 270.9,493.4C271.4,494.5 272.5,501.1 273.4,508.0C274.3,514.9 275.7,527.5 276.5,536.0C277.6,548.0 277.6,551.6 276.7,552.2C276.0,552.6 274.4,553.0 273.1,553.0C271.7,553.0 266.8,555.9 261.4,560.0C254.0,565.5 251.3,567.0 248.6,567.0C246.3,567.0 244.1,567.9 242.0,569.6C238.9,572.3 238.9,572.3 219.9,571.6C209.5,571.2 201.0,571.2 201.0,571.5C201.0,571.8 203.8,577.2 207.1,583.6C213.3,595.2 213.3,595.2 218.4,594.4C221.2,594.0 225.0,593.8 226.9,593.8C228.8,593.9 232.8,595.1 235.7,596.5C238.6,598.0 242.6,601.0 244.5,603.3C246.5,605.6 250.1,611.0 252.6,615.2C255.0,619.5 257.4,623.0 257.8,623.0C258.2,623.0 260.3,622.3 262.5,621.5C264.7,620.7 268.7,620.1 271.3,620.0C273.9,620.0 277.5,620.6 279.4,621.4C281.2,622.1 284.0,624.4 285.6,626.4C287.3,628.4 290.1,632.9 292.0,636.4C293.8,639.9 296.3,644.1 297.5,645.6C299.7,648.4 299.7,648.4 307.1,644.7C311.4,642.5 317.2,640.5 320.9,639.9C325.4,639.2 329.5,639.2 334.9,640.0C339.1,640.7 344.0,641.9 345.7,642.7C347.5,643.5 351.1,646.1 353.7,648.3C356.2,650.6 360.1,655.1 362.2,658.4C364.3,661.6 366.0,665.0 366.0,665.9C366.0,666.8 364.4,670.0 362.4,672.9C358.7,678.3 358.7,678.3 364.6,673.5C367.8,670.9 374.1,667.0 378.4,664.9C384.9,661.7 387.5,661.0 392.2,661.0C395.5,661.0 401.6,661.7 405.8,662.6C410.0,663.5 415.1,664.8 417.0,665.6C418.9,666.4 422.8,668.9 425.7,671.1C431.0,675.1 431.0,675.1 457.4,675.6C474.5,676.0 484.0,675.8 484.4,675.2C484.7,674.6 483.6,673.7 481.8,673.1C480.0,672.5 470.2,671.6 460.0,671.1C449.8,670.6 440.0,669.6 438.2,668.9C436.3,668.3 435.2,667.4 435.7,666.9C436.2,666.4 445.2,665.7 455.8,665.4C469.0,664.9 474.9,664.3 474.7,663.6C474.5,663.0 473.0,662.4 471.4,662.2C469.8,662.1 462.9,661.3 456.0,660.5C449.1,659.7 437.0,658.6 429.0,658.0C421.0,657.4 412.9,656.7 411.0,656.3C408.1,655.8 407.8,655.6 409.5,654.9C410.6,654.5 417.6,654.1 425.0,654.1C432.4,654.0 450.0,654.5 464.0,655.1C478.0,655.7 493.6,656.8 498.5,657.6C503.4,658.4 513.1,660.4 520.0,662.1C526.9,663.7 534.3,666.1 536.5,667.3C539.0,668.7 540.6,670.4 540.8,671.8C541.0,673.1 540.4,675.2 539.6,676.5C538.7,677.8 534.7,680.5 530.7,682.4C526.7,684.4 519.4,687.1 514.4,688.5C509.5,690.0 497.6,693.1 488.0,695.5C478.4,697.9 466.2,700.8 461.0,702.0C455.8,703.2 444.3,706.4 435.5,709.1C426.7,711.8 416.8,715.0 413.5,716.2C410.2,717.3 404.8,719.4 401.5,720.8C398.2,722.1 390.1,725.6 383.5,728.5C376.9,731.4 367.2,736.0 362.0,738.6C356.8,741.2 348.8,745.8 344.3,748.8C339.7,751.7 332.7,757.3 328.6,761.1C321.2,768.0 321.2,768.0 193.9,767.9zM583.5,767.9C471.6,767.9 465.2,767.8 460.2,766.1C457.3,765.1 454.3,763.7 453.7,763.1C452.9,762.3 452.8,761.5 453.6,760.2C454.2,759.3 455.8,758.2 457.1,757.9C458.4,757.5 465.0,757.2 471.7,757.1C478.4,757.0 484.1,756.6 484.5,756.1C484.8,755.5 484.3,754.7 483.3,754.2C482.3,753.6 477.7,752.4 473.0,751.5C468.3,750.6 462.9,749.5 461.0,749.1C459.1,748.7 457.4,747.8 457.3,747.0C457.1,746.2 457.4,744.8 458.0,744.0C458.8,742.8 461.0,742.6 469.2,742.8C474.9,742.9 481.0,742.8 482.8,742.5C484.5,742.2 486.0,741.5 486.0,741.0C486.0,740.5 484.7,739.4 483.0,738.5C481.4,737.7 477.3,736.7 474.0,736.3C470.7,736.0 467.7,735.3 467.4,734.9C467.2,734.5 469.7,731.8 473.1,729.0C476.4,726.2 483.3,721.9 488.2,719.4C493.2,716.9 500.9,713.5 505.4,711.9C509.8,710.2 519.1,707.3 526.0,705.4C532.9,703.4 547.0,699.2 557.5,695.9C568.0,692.6 578.9,689.0 581.8,687.9C584.7,686.9 589.0,685.0 591.2,683.9C593.5,682.7 597.8,679.5 600.8,676.7C605.6,672.0 606.1,671.2 605.7,668.3C605.4,666.5 605.5,665.0 606.0,665.0C606.5,665.0 608.2,666.2 609.9,667.6C612.0,669.3 613.0,671.1 613.0,673.0C613.0,675.0 611.7,676.9 608.1,680.3C605.5,682.8 601.5,685.7 599.4,686.8C597.2,687.9 591.7,690.4 587.0,692.3C582.3,694.2 574.7,697.4 570.0,699.4C565.3,701.4 560.0,703.8 558.2,704.8C556.5,705.7 555.0,706.7 555.0,707.1C555.0,707.5 556.0,708.0 557.2,708.4C558.5,708.7 561.4,709.0 563.7,709.0C566.0,709.0 569.0,709.4 570.4,710.0C571.8,710.5 579.8,711.9 588.2,713.0C596.6,714.2 611.4,716.6 621.0,718.5C630.6,720.3 642.5,722.3 647.5,722.9C652.5,723.5 658.8,724.1 661.5,724.4C664.2,724.6 667.3,724.5 668.3,724.1C670.0,723.5 669.9,723.3 667.6,722.2C666.1,721.6 660.4,719.9 654.8,718.4C649.2,717.0 644.2,715.6 643.7,715.3C643.1,715.0 643.8,714.2 645.1,713.5C647.4,712.2 647.3,712.2 643.5,711.1C641.3,710.6 630.3,708.9 619.0,707.5C607.7,706.1 596.6,704.7 594.2,704.4C591.9,704.1 590.0,703.5 590.0,703.1C590.0,702.7 592.1,701.2 594.8,699.7C597.4,698.3 603.7,695.3 608.8,693.1C613.9,690.8 620.2,688.5 622.8,687.9C625.4,687.3 629.0,687.2 630.8,687.5C634.1,688.1 634.1,688.2 632.5,690.0C631.5,691.1 627.4,693.8 623.3,696.2C615.7,700.5 615.7,700.5 620.6,701.2C623.3,701.5 628.1,701.9 631.4,701.9C634.6,702.0 647.4,703.2 659.9,704.6C672.3,706.0 683.2,707.1 684.0,707.1C684.8,707.0 687.5,706.7 690.0,706.4C692.5,706.0 704.7,706.5 717.1,707.5C729.5,708.5 740.4,709.1 741.4,708.7C742.7,708.2 742.9,707.6 742.1,706.2C741.5,705.0 738.6,703.8 733.8,702.7C729.8,701.8 719.5,700.1 711.0,699.0C702.5,697.9 690.2,696.3 683.8,695.4C677.3,694.5 670.8,693.5 669.3,693.1C667.9,692.7 666.5,691.9 666.2,691.2C666.0,690.5 667.0,689.6 668.5,689.0C669.9,688.5 678.3,688.0 687.1,688.0C696.3,688.0 703.0,687.6 703.0,687.1C703.0,686.6 702.2,685.9 701.2,685.6C700.3,685.3 695.3,684.4 690.1,683.5C684.9,682.6 679.8,681.4 678.7,680.9C677.7,680.3 677.0,679.7 677.2,679.5C677.4,679.3 680.5,678.6 684.0,678.1C688.9,677.3 695.6,677.4 711.0,678.6C724.5,679.6 732.4,679.8 734.0,679.1C735.8,678.5 736.1,678.1 735.0,677.7C734.2,677.4 731.2,676.5 728.5,675.7C725.8,674.9 720.6,673.7 717.0,673.1C713.4,672.5 704.7,671.3 697.6,670.5C690.6,669.6 683.9,668.5 682.8,667.9C681.7,667.3 681.0,666.7 681.2,666.5C681.4,666.3 686.0,665.4 691.5,664.5C697.0,663.6 702.4,662.5 703.5,662.1C705.1,661.4 704.4,661.1 700.5,660.6C697.8,660.2 689.5,659.0 682.3,657.9C675.0,656.8 665.8,655.0 661.8,653.9C657.8,652.8 653.1,651.0 651.5,649.9C648.5,648.0 648.5,648.0 656.5,648.0C660.9,648.0 674.9,648.9 687.5,650.0C700.1,651.0 719.7,652.4 731.0,653.1C742.3,653.7 752.9,654.3 754.5,654.4C757.2,654.5 757.5,654.1 757.8,651.3C758.1,648.2 758.1,648.2 752.8,647.6C749.9,647.2 734.1,645.8 717.7,644.4C701.3,643.0 686.9,641.5 685.7,641.0C683.6,640.2 683.6,640.2 686.3,639.1C687.9,638.5 689.7,638.0 690.3,638.0C691.0,638.0 690.9,637.6 690.0,637.0C689.2,636.5 685.4,636.0 681.5,636.0C677.6,636.0 669.8,635.5 664.0,635.0C658.2,634.5 651.1,633.5 648.2,632.9C644.1,632.1 643.1,631.5 643.9,630.7C644.7,629.9 650.8,629.5 663.3,629.5C676.0,629.6 684.2,630.1 690.5,631.3C695.5,632.2 707.1,633.9 716.5,635.0C725.9,636.2 738.5,637.8 744.5,638.6C750.5,639.4 756.3,640.0 757.2,640.0C758.7,640.0 759.0,639.0 759.0,633.5C759.0,627.6 758.8,627.0 756.8,626.6C755.5,626.3 745.7,625.4 735.0,624.6C724.3,623.8 707.9,622.6 698.5,622.0C689.1,621.4 672.3,620.3 661.0,619.5C649.7,618.7 631.7,617.6 621.0,617.0C610.3,616.4 595.2,615.5 587.5,614.9C579.8,614.4 566.1,613.2 557.0,612.4C547.9,611.6 533.8,610.3 525.5,609.5C517.2,608.7 501.7,607.4 491.0,606.6C480.3,605.7 465.9,604.8 459.0,604.5C452.1,604.2 437.9,603.5 427.5,603.0C417.1,602.4 392.1,602.0 372.0,602.0C351.9,601.9 316.8,601.5 294.0,601.1C271.2,600.6 251.7,599.9 250.8,599.5C249.8,599.1 249.0,598.2 249.0,597.4C249.0,596.2 262.9,596.0 339.8,596.0C430.7,596.0 430.7,596.0 432.6,593.9C433.6,592.7 437.9,589.2 442.0,586.0C446.1,582.9 451.0,579.5 452.8,578.6C454.5,577.7 459.2,576.5 463.1,576.1C467.0,575.6 470.3,575.0 470.5,574.8C470.7,574.6 472.9,571.7 475.3,568.3C478.7,563.7 481.7,561.1 486.9,558.0C490.8,555.8 494.8,553.1 495.8,552.1C496.7,551.1 500.0,548.5 503.0,546.3C506.0,544.1 510.2,540.2 512.3,537.7C514.3,535.2 516.0,532.9 516.0,532.6C516.0,532.3 512.6,532.0 508.5,532.0C504.0,532.0 501.0,531.6 501.0,531.0C501.0,530.3 500.4,530.3 499.1,531.0C498.0,531.5 496.2,532.0 495.2,532.0C493.4,532.0 493.1,531.0 492.4,523.2C492.0,518.4 492.0,465.9 492.4,406.5C492.8,347.1 493.3,288.4 493.6,276.0C493.8,263.6 494.5,246.5 495.1,238.0C495.6,229.5 497.0,218.0 498.1,212.5C499.2,207.0 501.2,199.8 502.6,196.4C503.9,193.1 505.0,189.6 505.0,188.7C505.0,187.5 504.2,187.0 502.3,187.0C499.6,187.0 499.6,187.0 501.9,185.4C503.1,184.5 505.0,181.9 506.0,179.5C507.0,177.2 509.3,173.6 511.1,171.6C512.9,169.5 517.1,165.9 520.4,163.6C523.8,161.2 528.5,158.1 531.0,156.6C535.5,153.9 535.5,153.9 531.6,157.2C529.4,159.0 525.4,162.3 522.6,164.5C519.8,166.8 516.0,170.6 514.1,173.0C510.7,177.5 510.7,177.5 511.3,187.9C511.6,193.6 512.1,198.5 512.4,198.8C512.7,199.1 514.8,198.0 517.1,196.5C519.3,194.9 521.8,192.7 522.6,191.6C523.5,190.3 524.0,187.0 524.0,182.6C524.0,176.0 524.1,175.6 527.6,172.4C529.5,170.5 533.2,167.8 535.8,166.3C538.4,164.8 543.4,161.9 546.8,159.9C550.3,157.8 554.5,155.8 556.2,155.5C558.3,155.0 559.7,155.3 561.0,156.5C562.6,157.9 563.0,158.0 563.4,156.9C563.6,156.1 564.3,152.9 564.9,149.7C565.5,146.5 566.5,143.1 567.2,142.2C567.9,141.3 572.0,137.2 576.2,133.1C580.5,129.0 584.2,125.9 584.4,126.1C584.7,126.3 585.4,130.5 586.1,135.3C587.0,141.4 587.1,144.6 586.4,145.8C585.8,146.7 582.8,149.2 579.7,151.3C576.3,153.6 573.0,156.8 571.6,159.3C570.3,161.6 568.9,164.5 568.5,165.7C568.1,167.2 568.3,168.0 569.0,168.0C569.6,168.0 572.0,166.7 574.3,165.2C576.6,163.6 580.2,161.4 582.2,160.1C584.2,158.9 586.1,158.3 586.3,158.7C586.6,159.2 586.2,161.2 585.5,163.4C584.7,165.5 582.7,168.8 580.9,170.6C579.1,172.5 578.0,174.3 578.4,174.7C578.8,175.1 580.5,174.8 582.3,174.1C584.1,173.3 586.9,172.7 588.6,172.6C590.3,172.5 592.4,171.9 593.4,171.1C594.3,170.4 597.1,166.7 599.6,162.9C602.1,159.1 606.2,154.3 608.8,152.0C611.4,149.8 617.6,145.8 622.6,143.0C627.5,140.3 632.3,138.0 633.2,138.0C634.5,138.0 634.9,139.7 635.5,147.2C635.9,152.3 636.0,157.8 635.8,159.4C635.5,162.1 634.8,162.5 620.5,167.5C612.2,170.3 602.6,173.9 599.0,175.5C595.4,177.0 589.6,179.9 586.0,182.0C582.4,184.1 577.8,187.4 575.8,189.3C572.5,192.3 572.0,193.3 572.0,197.3C572.0,199.8 572.3,202.5 572.6,203.4C572.9,204.3 573.8,205.0 574.4,205.0C575.1,205.0 577.2,203.4 579.1,201.4C580.9,199.4 584.2,196.9 586.4,195.8C589.6,194.2 590.4,194.1 591.2,195.2C591.7,195.9 591.9,198.4 591.6,200.7C591.3,203.1 591.3,205.6 591.6,206.5C592.0,207.3 592.6,208.0 593.0,208.0C593.5,208.0 595.3,206.8 597.0,205.3C598.7,203.9 601.5,200.3 603.2,197.3C605.6,193.1 607.9,190.9 614.5,186.5C619.0,183.5 625.8,179.6 629.5,177.9C633.7,176.0 636.6,175.2 637.2,175.8C637.7,176.3 638.5,178.9 638.9,181.6C639.5,186.1 639.8,186.5 642.0,186.2C643.4,186.1 645.4,185.0 646.5,183.9C648.4,182.0 648.5,180.6 648.5,128.7C648.5,99.4 648.9,74.5 649.4,73.3C650.1,71.3 649.9,71.0 648.0,71.0C646.2,71.0 646.0,70.7 646.9,69.7C647.5,68.9 650.3,67.1 653.3,65.7C656.2,64.2 662.4,62.2 667.0,61.4C673.2,60.2 678.6,59.9 687.0,60.3C695.1,60.7 701.1,61.6 707.5,63.5C712.5,64.9 719.2,67.4 722.6,68.9C725.9,70.5 731.9,73.9 735.8,76.5C739.8,79.1 746.2,84.6 750.1,88.8C755.5,94.7 758.5,99.1 762.6,107.5C768.0,118.4 768.0,118.4 768.0,410.6C768.0,702.7 768.0,702.7 762.9,712.1C760.1,717.3 756.2,723.8 754.1,726.6C752.1,729.5 748.0,734.4 745.0,737.6C742.0,740.8 736.1,746.3 731.9,749.9C727.7,753.5 720.9,758.5 716.6,760.9C712.4,763.3 707.3,765.8 705.2,766.6C702.2,767.7 679.2,767.9 583.5,767.9zM615.4,748.5C619.1,748.3 622.5,747.8 622.9,747.5C623.2,747.1 622.6,746.2 621.5,745.4C620.4,744.6 617.7,743.5 615.5,742.9C613.3,742.3 606.8,740.9 601.0,739.8C595.2,738.8 585.7,737.6 579.9,737.3C572.8,736.9 568.2,737.1 565.6,738.0C563.6,738.6 562.1,739.7 562.3,740.3C562.5,740.9 564.0,741.7 565.6,742.2C567.2,742.6 573.0,743.9 578.5,745.1C584.0,746.2 593.0,747.5 598.5,748.0C604.0,748.5 611.6,748.7 615.4,748.5zM291.8,728.9C293.0,728.9 294.0,728.8 294.0,728.6C294.0,728.4 291.8,726.8 289.1,725.1C286.4,723.4 282.3,721.4 279.9,720.7C277.3,719.9 275.5,718.8 275.5,718.0C275.5,717.2 277.3,716.0 279.5,715.4C281.7,714.7 285.7,714.1 288.3,714.1C291.0,714.0 296.7,714.9 300.9,716.0C305.2,717.1 312.0,719.3 316.1,721.0C320.2,722.6 323.6,724.0 323.8,724.0C323.9,724.0 324.0,723.4 324.0,722.6C324.0,721.9 321.4,718.6 318.2,715.3C314.4,711.3 310.0,708.1 305.1,705.7C300.2,703.2 296.4,702.0 293.5,702.0C291.2,702.0 286.7,702.5 283.4,703.1C280.2,703.7 274.5,705.7 270.9,707.6C267.3,709.5 261.7,713.4 258.6,716.2C255.5,718.9 252.3,722.4 251.6,723.9C250.2,726.5 250.2,726.5 262.4,726.6C269.0,726.7 277.9,727.2 282.0,727.8C286.1,728.3 290.5,728.8 291.8,728.9zM346.8,715.0C347.4,715.0 348.0,714.8 348.0,714.5C348.0,714.1 347.3,712.6 346.5,711.0C345.7,709.4 342.5,706.1 339.4,703.6C336.3,701.1 328.9,696.6 322.9,693.6C316.9,690.5 304.9,685.8 296.3,683.1C287.6,680.3 275.0,676.5 268.2,674.6C260.3,672.3 252.7,670.8 246.7,670.4C238.5,669.9 236.6,670.1 229.4,672.4C223.2,674.4 219.5,676.4 213.9,680.8C209.8,684.0 205.6,688.3 204.5,690.3C203.5,692.3 202.9,694.2 203.2,694.5C203.5,694.9 208.2,692.8 213.6,690.0C219.9,686.8 225.6,684.6 229.4,684.0C233.0,683.4 239.1,683.4 245.3,684.0C250.9,684.6 256.8,685.4 258.5,685.9C260.1,686.4 265.1,687.1 269.5,687.4C273.9,687.7 279.1,688.4 281.0,689.0C283.0,689.5 285.4,690.6 286.4,691.3C288.1,692.6 288.0,692.8 285.0,694.7C281.9,696.7 281.9,696.7 290.2,697.4C294.8,697.7 300.8,698.6 303.5,699.4C306.2,700.2 311.6,702.0 315.5,703.5C319.4,705.0 325.6,707.1 329.3,708.1C333.1,709.2 338.3,711.2 340.8,712.5C343.4,713.8 346.1,714.9 346.8,715.0zM193.8,705.2C194.0,704.0 193.0,700.5 191.6,697.5C190.3,694.5 187.0,689.8 184.4,687.0C181.8,684.2 177.1,680.4 173.9,678.4C170.7,676.5 165.7,674.1 162.7,673.1C159.6,672.0 152.9,670.6 147.7,670.0C140.3,669.0 136.6,669.0 130.9,670.0C126.8,670.7 121.2,672.1 118.3,673.2C114.4,674.6 111.6,676.7 107.5,681.2C104.5,684.6 102.0,687.7 102.0,688.2C102.0,688.6 102.2,689.0 102.4,689.0C102.6,689.0 104.7,687.9 107.1,686.6C109.5,685.2 113.6,683.8 116.2,683.5C118.9,683.1 121.0,683.1 121.0,683.4C121.0,683.8 120.0,686.0 118.9,688.2C116.8,692.4 116.8,692.4 119.1,690.7C120.4,689.8 123.5,687.8 125.8,686.4C128.2,684.9 131.8,683.1 133.8,682.4C135.9,681.7 139.1,681.1 141.0,681.0C142.9,681.0 148.1,681.7 152.5,682.5C156.9,683.3 161.9,684.3 163.5,684.8C165.2,685.3 168.4,686.7 170.6,687.8C172.8,688.9 178.9,693.8 184.1,698.7C192.4,706.5 193.5,707.2 193.8,705.2zM428.1,695.0C428.5,695.0 429.2,694.4 429.8,693.7C430.6,692.7 430.4,691.3 429.0,688.4C427.9,686.3 425.0,681.9 422.4,678.7C419.3,674.7 416.4,672.2 413.3,670.8C410.8,669.7 405.2,668.1 401.0,667.3C396.6,666.4 391.7,666.0 389.7,666.4C387.3,666.8 384.1,668.9 380.4,672.3C377.2,675.2 373.4,679.5 371.8,681.9C370.3,684.4 369.0,686.8 369.0,687.2C369.0,687.6 369.7,688.0 370.5,688.0C371.3,688.0 375.0,686.0 378.6,683.5C382.3,681.1 386.8,678.6 388.6,678.0C391.4,677.0 392.6,677.2 396.7,679.3C399.3,680.6 403.4,682.0 405.8,682.4C408.2,682.8 412.3,684.1 414.8,685.5C417.4,686.8 421.3,689.5 423.5,691.4C425.7,693.3 427.8,694.9 428.1,695.0zM635.3,683.0C632.7,683.0 629.9,682.6 629.1,682.1C627.9,681.3 628.1,680.6 630.3,678.1C631.7,676.4 633.2,674.1 633.5,673.0C633.9,671.7 633.4,669.7 632.1,667.6C630.7,665.4 627.7,663.0 623.2,660.7C619.0,658.5 611.6,656.1 603.5,654.2C596.4,652.5 582.4,649.5 572.5,647.5C562.6,645.5 552.6,643.0 550.2,642.0C547.9,641.0 546.0,639.5 546.0,638.7C546.0,637.9 547.7,636.5 549.8,635.7C551.8,634.9 557.3,633.2 562.0,632.0C566.7,630.7 571.3,629.3 572.3,628.8C573.3,628.3 573.8,627.5 573.5,627.0C573.2,626.5 573.9,625.9 574.9,625.5C576.0,625.2 585.3,625.4 595.7,626.0C606.0,626.6 618.1,627.5 622.5,628.1C626.9,628.7 630.9,629.5 631.4,630.0C632.0,630.6 631.2,631.3 629.6,632.0C628.1,632.5 625.4,633.0 623.7,633.0C621.9,633.0 619.5,633.3 618.2,633.6C617.0,634.0 616.0,634.6 616.0,635.0C616.0,635.4 616.8,636.1 617.7,636.4C618.6,636.8 627.0,637.7 636.4,638.5C645.8,639.3 654.5,640.2 655.8,640.6C657.0,640.9 658.0,641.6 658.0,642.1C658.0,642.5 655.7,643.6 652.8,644.5C650.0,645.3 645.7,646.0 643.4,646.0C641.0,646.0 635.3,645.1 630.7,644.1C626.2,643.0 616.6,641.1 609.5,640.0C602.3,638.8 595.6,637.3 594.6,636.8C592.7,635.8 592.7,635.7 594.5,634.4C595.5,633.7 596.8,632.9 597.4,632.7C598.0,632.5 598.2,631.9 597.8,631.5C597.4,631.1 592.3,631.3 586.4,632.0C580.1,632.6 573.6,634.0 570.8,635.2C568.2,636.3 565.6,637.8 565.0,638.5C564.2,639.5 564.5,640.0 566.7,640.4C568.2,640.7 576.2,642.1 584.5,643.6C592.8,645.0 605.8,647.4 613.6,649.1C621.4,650.7 632.0,653.3 637.3,654.8C642.6,656.4 648.5,658.8 650.4,660.1C652.3,661.4 654.5,663.6 655.4,665.1C656.6,667.1 656.8,668.5 656.1,670.2C655.6,671.4 653.7,673.9 651.8,675.6C650.0,677.4 646.6,679.7 644.3,680.9C641.7,682.2 638.2,683.0 635.3,683.0zM214.2,672.9C217.3,673.0 218.0,672.6 218.0,671.1C218.0,670.1 216.2,667.6 214.1,665.7C211.9,663.7 208.7,661.4 206.9,660.5C205.1,659.5 200.3,658.6 196.0,658.3C190.1,657.9 187.7,658.1 185.2,659.4C183.5,660.3 180.4,662.4 178.5,664.1C176.6,665.8 175.0,667.8 175.0,668.6C175.0,669.7 175.7,669.8 177.8,669.3C179.3,668.8 184.8,668.6 190.0,668.6C196.9,668.7 201.0,669.3 205.0,670.8C208.0,671.9 212.2,672.9 214.2,672.9zM303.9,668.0C304.9,668.0 307.7,667.3 310.0,666.5C312.4,665.7 316.5,662.9 319.2,660.4C323.6,656.3 324.5,655.9 327.8,656.3C329.8,656.6 333.6,657.3 336.3,657.9C338.9,658.5 343.7,660.4 347.0,662.2C351.7,664.8 353.1,665.2 354.1,664.3C355.1,663.3 355.1,662.5 353.9,660.3C353.1,658.8 350.2,655.2 347.5,652.3C343.5,648.2 341.3,646.8 336.7,645.5C332.9,644.4 329.5,644.1 327.2,644.5C325.2,644.9 322.3,645.8 320.7,646.6C319.2,647.5 316.1,649.7 313.9,651.7C311.8,653.6 308.5,657.3 306.7,659.9C304.8,662.4 303.0,665.3 302.7,666.2C302.2,667.5 302.6,668.0 303.9,668.0zM580.8,665.3C580.1,665.5 577.5,665.1 575.0,664.4C572.5,663.6 565.8,661.8 560.0,660.5C554.2,659.1 545.2,657.0 540.0,655.8C534.8,654.7 528.1,653.1 525.2,652.2C522.3,651.4 518.1,649.4 515.9,647.8C513.3,645.9 512.0,644.2 512.0,642.7C512.0,641.4 513.2,639.2 514.8,637.8C516.3,636.4 520.3,633.8 523.8,632.1C527.2,630.4 530.0,628.4 530.0,627.6C530.0,626.8 529.3,625.9 528.3,625.6C527.4,625.2 520.1,624.3 512.1,623.4C504.1,622.6 488.3,620.8 477.0,619.4C465.7,618.1 455.0,616.7 453.2,616.4C451.4,616.0 450.0,615.2 450.0,614.4C450.0,613.3 451.8,613.0 458.0,613.0C462.5,613.0 478.0,614.1 492.7,615.5C507.3,616.9 522.2,618.7 525.9,619.5C529.5,620.3 534.2,621.7 536.2,622.6C538.2,623.5 540.1,624.9 540.5,625.8C540.8,626.6 540.3,628.1 539.4,629.1C538.5,630.2 534.8,632.7 531.4,634.7C527.9,636.7 524.7,639.3 524.4,640.3C524.0,641.5 524.5,642.9 525.6,644.0C526.7,645.0 530.5,646.7 534.1,647.8C537.7,648.9 547.3,651.2 555.4,653.0C563.4,654.7 571.9,656.8 574.2,657.6C576.5,658.4 579.2,659.8 580.2,660.7C581.2,661.6 582.0,662.9 582.0,663.5C582.0,664.2 581.4,665.0 580.8,665.3zM151.4,662.0C152.1,661.3 151.6,659.3 150.2,656.4C149.0,653.9 146.2,649.5 144.1,646.6C142.0,643.8 138.5,639.9 136.4,638.1C134.3,636.2 129.3,633.1 125.2,631.2C119.5,628.5 116.1,627.6 110.6,627.2C104.7,626.8 102.4,627.2 98.7,628.8C96.2,629.9 91.7,633.0 88.9,635.7C86.0,638.3 82.4,642.3 80.8,644.4C79.3,646.5 78.0,648.7 78.0,649.2C78.0,649.6 78.6,650.0 79.2,650.0C79.9,649.9 83.2,648.6 86.4,647.1C92.3,644.3 92.3,644.3 97.8,647.1C101.0,648.9 104.7,650.0 107.1,650.0C109.9,650.0 111.0,649.6 111.0,648.5C111.0,647.7 109.2,645.8 107.0,644.4C104.8,642.9 103.0,641.4 103.0,641.0C103.0,640.6 103.7,639.9 104.6,639.6C105.5,639.3 108.1,639.0 110.4,639.0C113.2,639.0 116.9,640.1 120.9,642.1C124.3,643.8 127.4,645.8 127.7,646.6C127.9,647.3 127.0,649.4 125.6,651.3C123.0,654.7 123.0,654.7 130.3,655.2C136.4,655.6 138.7,656.3 144.1,659.3C148.2,661.6 150.8,662.6 151.4,662.0zM265.1,654.4C268.1,653.1 271.1,652.9 276.8,653.3C281.1,653.5 286.5,654.4 288.9,655.1C292.9,656.3 293.4,656.2 294.6,654.5C295.8,652.9 295.8,652.3 294.7,650.6C293.9,649.5 291.6,647.7 289.4,646.6C286.8,645.2 283.1,644.4 278.0,644.2C270.5,643.8 270.5,643.8 265.8,648.6C263.1,651.2 261.0,654.0 261.0,654.7C261.0,655.7 261.9,655.6 265.1,654.4zM234.3,655.0C234.7,655.0 234.8,654.0 234.5,652.8C234.1,651.5 232.8,648.9 231.5,646.9C230.1,644.8 227.3,642.3 224.8,641.1C222.3,639.9 218.4,639.0 215.9,639.0C213.1,639.0 210.2,639.8 207.8,641.3C205.8,642.5 202.9,645.0 201.6,646.9C200.2,648.8 199.2,650.5 199.4,650.7C199.5,650.9 201.3,650.3 203.3,649.5C205.3,648.7 209.2,648.0 211.9,648.0C214.6,648.0 219.6,648.9 223.1,650.0C226.6,651.1 230.4,652.7 231.4,653.5C232.5,654.3 233.8,655.0 234.3,655.0zM447.7,649.7C442.6,649.8 437.8,649.7 437.0,649.5C436.2,649.3 432.3,648.7 428.3,648.0C424.4,647.4 420.4,646.3 419.4,645.5C417.8,644.4 418.4,644.1 424.5,643.4C428.4,643.0 436.7,643.1 443.0,643.7C449.4,644.3 455.6,645.3 456.9,645.9C458.7,646.9 458.9,647.5 458.1,648.3C457.4,649.0 453.1,649.6 447.7,649.7zM184.2,646.0C184.7,646.0 185.0,645.4 185.0,644.7C185.0,644.0 183.7,641.4 182.2,638.9C180.6,636.5 177.8,633.2 175.9,631.6C174.0,630.0 170.1,627.6 167.2,626.2C163.6,624.6 159.3,623.6 154.1,623.3C147.7,622.8 145.6,623.1 141.8,624.8C139.2,625.9 136.7,627.7 136.1,628.8C135.1,630.6 135.6,630.8 142.8,632.0C147.0,632.7 154.7,634.3 159.8,635.6C165.3,637.0 172.1,639.6 176.3,641.9C180.3,644.1 183.8,646.0 184.2,646.0zM484.1,641.9C481.0,641.8 476.9,641.4 475.0,641.0C472.7,640.6 472.0,640.1 473.0,639.7C473.8,639.3 476.5,638.4 478.9,637.5C481.3,636.7 485.6,636.0 488.6,636.0C491.5,636.0 494.1,636.4 494.5,636.9C494.8,637.4 493.8,638.8 492.4,639.9C490.3,641.5 488.4,642.0 484.1,641.9zM281.5,635.7C282.0,635.5 282.4,634.4 282.2,633.4C282.0,632.4 280.7,629.8 279.4,627.7C278.0,625.6 275.8,623.5 274.4,623.0C272.6,622.3 271.1,622.4 269.1,623.4C267.6,624.2 264.7,626.7 262.7,628.9C260.7,631.2 259.0,633.1 259.0,633.3C259.0,633.5 263.4,633.7 268.7,633.8C274.0,633.9 278.8,634.4 279.4,635.0C280.0,635.6 280.9,635.9 281.5,635.7zM304.5,633.8C302.2,634.0 300.1,633.8 299.7,633.4C299.3,633.0 299.0,632.3 299.0,631.8C299.0,631.3 301.1,631.0 303.8,631.2C306.4,631.4 308.5,632.0 308.5,632.5C308.5,633.0 306.7,633.6 304.5,633.8zM81.2,631.9C82.7,632.0 84.2,631.5 84.5,630.9C84.9,630.4 84.4,629.0 83.4,627.9C82.4,626.8 78.6,624.5 75.0,622.8C69.9,620.4 66.7,619.6 60.4,619.2C54.2,618.9 51.6,619.1 49.2,620.4C47.5,621.3 44.9,623.6 43.4,625.5C41.9,627.5 41.0,629.3 41.3,629.6C41.6,629.9 43.6,629.6 45.7,628.9C47.8,628.2 53.2,627.7 58.0,627.8C63.3,627.9 68.8,628.7 72.5,629.9C75.8,630.9 79.7,631.8 81.2,631.9zM488.3,629.6C485.6,629.7 482.6,629.6 481.5,629.4C480.4,629.1 478.8,628.6 478.0,628.3C476.8,627.9 476.9,627.6 478.5,627.0C479.6,626.5 483.3,626.1 486.7,626.1C490.1,626.0 493.2,626.5 493.5,627.1C493.9,627.7 493.9,628.4 493.6,628.7C493.3,629.0 490.9,629.4 488.3,629.6zM88.4,628.0C89.1,628.0 90.9,627.1 92.3,625.9C95.0,623.9 95.0,623.9 90.9,615.8C88.4,610.8 84.8,605.7 81.2,602.0C77.0,597.8 73.9,595.7 69.5,594.0C66.2,592.8 61.2,591.6 58.4,591.3C55.2,591.0 51.3,591.3 47.8,592.4C44.1,593.5 40.9,595.3 38.2,597.9C35.9,600.1 33.1,603.8 31.9,606.2C29.8,610.5 29.8,610.5 32.6,607.9C34.2,606.4 37.9,604.5 40.7,603.6C43.6,602.6 47.0,602.0 48.2,602.2C49.9,602.4 50.5,603.1 50.4,604.8C50.4,606.5 50.7,606.9 51.9,606.4C52.8,606.0 55.3,605.0 57.6,604.2C61.4,602.7 62.1,602.8 66.6,604.4C69.5,605.5 73.3,608.1 76.0,610.9C78.5,613.4 82.0,618.3 83.8,621.8C85.6,625.2 87.7,628.0 88.4,628.0zM246.1,626.4C246.7,626.1 246.8,624.4 246.4,622.7C246.1,620.9 244.4,616.9 242.8,613.7C241.2,610.5 238.4,606.2 236.5,604.1C234.6,602.0 231.3,599.5 229.1,598.5C225.2,596.8 224.8,596.8 220.5,598.4C217.9,599.5 214.5,601.9 212.2,604.5C210.1,606.8 207.2,611.1 205.6,614.0C204.1,616.8 203.0,619.4 203.3,619.7C203.6,619.9 204.7,619.9 205.8,619.6C206.9,619.2 210.3,616.7 213.5,613.9C218.0,609.9 219.8,609.0 221.6,609.4C222.9,609.8 226.8,611.6 230.3,613.5C233.8,615.5 238.4,619.1 240.8,622.0C243.2,624.8 245.6,626.8 246.1,626.4zM295.8,623.9C294.3,624.0 292.8,623.5 292.5,622.9C292.1,622.3 292.0,621.6 292.4,621.3C292.7,621.0 296.0,621.1 299.7,621.5C306.4,622.3 306.5,622.3 302.5,623.1C300.3,623.5 297.3,623.9 295.8,623.9zM750.8,608.9C759.1,609.0 759.1,609.0 758.8,604.3C758.5,599.5 758.5,599.5 751.2,599.8C747.0,600.0 744.0,599.8 744.0,599.2C744.0,598.7 745.8,596.6 748.0,594.6C752.0,591.0 752.0,591.0 748.7,591.0C746.9,591.0 743.1,591.6 740.4,592.4C737.7,593.2 734.0,594.0 732.2,594.4C730.5,594.7 729.0,594.6 729.0,594.2C729.0,593.8 731.4,591.6 734.3,589.3C737.1,587.0 743.1,582.7 747.4,579.7C751.8,576.8 755.6,573.8 755.8,573.2C756.0,572.4 754.8,572.0 752.2,572.0C750.1,572.0 745.7,572.9 742.5,574.0C739.3,575.1 736.2,576.0 735.6,576.0C735.1,576.0 736.5,574.0 738.9,571.6C743.3,567.2 743.3,567.2 738.9,566.6C736.5,566.3 733.2,565.9 731.7,565.8C730.2,565.6 728.9,565.0 728.9,564.5C728.8,564.0 730.8,562.9 733.2,562.2C736.1,561.3 740.8,561.0 748.1,561.3C758.8,561.9 758.8,561.9 759.1,542.2C759.3,531.4 759.3,516.5 759.1,509.2C758.8,496.0 758.8,496.0 755.8,496.0C754.1,496.0 748.2,496.7 742.6,497.6C737.1,498.4 726.4,500.3 719.0,501.7C711.6,503.0 701.2,505.2 696.0,506.5C690.8,507.8 683.9,509.5 680.6,510.4C677.4,511.3 671.6,513.4 667.6,515.0C663.7,516.6 654.4,521.4 647.0,525.5C639.6,529.7 626.5,536.5 618.0,540.6C609.5,544.8 598.9,549.8 594.5,551.7C590.1,553.6 576.8,557.6 565.1,560.6C553.3,563.6 537.7,567.9 530.6,570.1C523.4,572.4 513.7,576.0 509.0,578.2C504.3,580.5 496.9,584.0 492.5,586.0C488.1,588.1 482.1,591.6 479.2,594.0C476.4,596.3 474.0,598.6 474.0,599.1C474.0,599.6 475.5,600.0 477.2,600.0C479.0,600.0 482.7,599.3 485.4,598.5C489.1,597.4 495.4,597.0 509.9,597.0C520.7,597.0 537.1,597.5 546.5,598.0C555.9,598.5 582.9,599.8 606.5,601.0C630.1,602.1 661.2,603.7 675.5,604.6C689.8,605.4 710.7,606.7 722.0,607.4C733.3,608.2 746.2,608.8 750.8,608.9zM183.7,600.0C184.0,600.0 186.4,598.7 188.9,597.1C191.6,595.4 195.6,593.9 198.8,593.5C202.5,593.0 204.0,592.4 204.0,591.3C204.0,590.5 202.6,587.2 200.9,584.0C199.2,580.8 196.8,577.2 195.5,576.0C194.1,574.7 190.4,573.2 186.8,572.4C183.3,571.7 177.5,571.1 173.8,571.0C167.1,571.0 167.0,570.9 165.6,567.8C164.7,566.0 162.6,562.6 160.9,560.3C159.1,557.9 157.9,555.7 158.3,555.4C158.6,555.1 162.6,555.6 167.2,556.5C171.8,557.4 176.4,558.3 177.6,558.6C178.7,558.8 182.2,561.7 185.4,565.0C188.6,568.3 191.3,571.0 191.6,571.0C191.8,571.0 192.0,569.4 192.0,567.5C192.0,565.5 190.9,561.8 189.6,559.2C188.3,556.6 185.8,552.6 184.1,550.2C182.3,547.9 179.6,545.1 177.9,544.1C176.2,543.0 173.1,541.9 171.1,541.5C169.1,541.2 165.1,540.2 162.2,539.4C157.7,538.1 156.3,537.1 151.9,531.5C148.2,526.8 145.5,524.5 141.7,522.7C138.8,521.4 134.5,519.4 132.1,518.4C128.8,517.0 125.8,514.3 120.3,507.6C116.2,502.7 110.8,497.3 108.2,495.7C105.6,494.0 100.3,491.3 96.5,489.7C92.7,488.1 87.0,486.0 83.8,484.9C80.7,483.9 74.5,482.1 70.0,481.1C65.5,480.0 57.6,478.8 52.4,478.4C45.5,477.9 42.6,478.1 41.5,479.0C40.7,479.7 40.0,481.1 40.0,482.1C40.0,483.5 41.6,484.4 46.8,485.9C50.5,487.0 57.5,488.8 62.3,489.9C67.1,491.1 72.0,492.5 73.1,493.0C74.1,493.6 75.0,494.4 75.0,494.9C75.0,495.3 70.0,496.3 63.9,497.0C57.9,497.8 52.7,498.7 52.5,499.1C52.2,499.5 53.3,500.2 54.8,500.8C56.3,501.4 58.3,502.1 59.3,502.4C60.2,502.7 65.2,503.6 70.3,504.5C75.3,505.4 81.9,506.8 84.9,507.6C88.1,508.5 89.9,509.5 89.4,510.0C88.9,510.5 85.0,511.5 80.7,512.2C76.5,512.8 73.0,513.7 73.0,514.0C73.0,514.4 77.4,515.2 82.8,515.9C88.1,516.6 94.9,517.8 97.9,518.6C101.9,519.7 103.0,520.4 102.1,521.3C101.5,521.9 96.2,522.9 90.4,523.6C83.4,524.4 79.3,525.3 78.2,526.3C76.9,527.7 76.9,528.0 78.1,528.4C78.9,528.7 85.2,529.6 92.1,530.4C99.7,531.3 106.1,532.5 108.1,533.6C111.5,535.4 111.5,535.4 105.5,536.7C102.2,537.5 97.6,538.6 95.2,539.2C92.9,539.8 90.7,540.7 90.4,541.2C90.1,541.7 90.0,542.3 90.2,542.6C90.5,542.8 100.3,544.4 112.1,546.0C123.8,547.7 133.9,549.5 134.3,549.9C134.8,550.4 133.1,551.5 130.6,552.3C128.1,553.2 123.7,555.4 120.8,557.4C117.9,559.3 114.9,561.9 114.2,563.0C113.5,564.2 113.1,565.4 113.3,565.7C113.6,565.9 115.3,565.2 117.1,564.1C119.0,562.9 121.5,562.0 122.8,562.0C124.0,562.0 125.0,562.2 125.0,562.4C125.0,562.6 124.1,564.9 122.9,567.5C121.8,570.0 121.0,572.4 121.3,572.6C121.5,572.8 124.6,570.8 128.1,568.2C131.6,565.5 135.5,562.8 136.7,562.2C137.9,561.5 139.9,561.0 141.2,561.0C142.4,561.0 145.5,561.8 148.0,562.7C150.5,563.6 153.9,565.5 155.5,566.9C157.2,568.3 159.7,570.3 161.0,571.2C163.5,572.9 163.5,572.9 161.0,574.6C159.6,575.5 156.4,578.5 153.8,581.2C151.1,583.8 149.0,586.4 149.0,586.9C149.0,587.5 150.7,587.2 152.7,586.4C155.4,585.2 158.6,584.9 164.9,585.3C169.6,585.5 174.6,586.1 175.8,586.5C178.0,587.2 178.1,587.0 177.8,584.4C177.5,581.8 177.8,581.5 180.2,581.8C181.7,581.9 184.5,582.7 186.5,583.6C188.5,584.4 190.4,585.8 190.7,586.6C191.0,587.5 190.2,589.3 188.8,590.8C187.4,592.3 185.6,594.6 184.7,596.0C183.7,597.3 183.0,598.8 183.0,599.2C183.0,599.7 183.3,600.0 183.7,600.0zM444.8,598.0C450.0,598.0 450.9,597.7 453.6,594.9C455.2,593.2 458.1,591.2 460.0,590.3C461.9,589.5 467.5,588.4 472.5,587.9C480.6,587.1 482.0,586.6 487.0,583.1C490.1,580.9 499.3,576.4 507.4,573.0C515.6,569.6 524.0,566.0 526.2,564.9C528.3,563.8 535.8,561.4 542.8,559.4C549.8,557.5 559.1,554.4 563.5,552.6C567.9,550.7 576.0,547.8 581.5,546.1C587.0,544.4 592.1,542.6 592.9,542.1C594.0,541.4 593.9,541.1 592.4,540.7C591.3,540.4 587.9,539.9 584.8,539.5C581.6,539.2 579.0,538.5 579.0,538.1C579.0,537.7 581.4,536.2 584.3,534.7C587.8,533.0 592.5,531.8 598.3,531.2C605.7,530.4 607.9,529.7 613.4,526.4C617.0,524.2 619.6,522.2 619.2,521.8C618.8,521.4 613.1,520.9 606.6,520.8C598.1,520.6 594.5,520.1 594.2,519.2C594.0,518.5 596.1,516.9 599.6,515.3C603.1,513.7 608.8,512.3 614.4,511.6C621.8,510.7 623.5,510.1 623.2,508.8C623.1,507.8 624.0,507.1 626.1,506.6C627.8,506.3 631.6,506.0 634.4,506.0C637.3,506.0 642.3,505.3 645.5,504.4C648.8,503.6 651.9,502.5 652.3,502.0C652.8,501.6 651.9,500.9 650.3,500.6C648.8,500.3 645.8,499.8 643.7,499.4C641.7,499.1 639.7,498.4 639.4,497.9C639.1,497.4 641.8,495.6 645.4,493.9C649.0,492.2 652.0,490.5 652.0,490.1C652.0,489.6 647.4,489.0 641.9,488.7C636.3,488.3 631.5,487.8 631.1,487.5C630.8,487.1 631.6,486.0 633.0,484.9C634.4,483.9 637.2,482.5 639.4,481.9C641.8,481.3 651.4,481.0 664.4,481.1C680.7,481.4 686.1,481.1 688.0,480.1C689.4,479.3 692.5,477.1 695.0,475.1C699.5,471.5 699.5,471.5 690.7,471.0C685.9,470.7 681.9,470.1 681.8,469.5C681.7,468.9 684.1,467.3 687.1,465.8C690.5,464.2 697.6,462.3 706.5,460.7C714.2,459.3 723.0,457.8 726.0,457.4C729.0,457.1 733.1,456.0 735.0,455.0C736.9,454.0 739.7,452.1 741.2,450.7C742.8,449.2 744.0,447.6 744.0,447.0C744.0,446.3 743.4,446.2 742.1,447.0C741.0,447.5 736.0,448.0 731.0,448.0C724.3,448.0 721.9,447.7 722.2,446.8C722.5,446.1 727.0,443.7 732.3,441.4C737.6,439.1 743.6,435.8 745.5,434.1C749.1,431.0 749.1,431.0 746.0,431.0C744.3,431.0 738.4,431.9 733.0,433.1C727.5,434.2 719.2,436.4 714.4,438.0C709.6,439.6 703.0,442.5 699.6,444.3C696.3,446.2 690.9,448.7 687.7,449.8C684.5,451.0 680.8,452.0 679.5,452.0C678.1,452.0 677.0,451.6 677.0,451.1C677.0,450.5 679.5,448.3 682.6,446.1C688.2,442.1 688.2,442.1 682.8,441.8C679.9,441.6 677.5,441.1 677.6,440.5C677.7,439.9 679.4,438.6 681.4,437.4C683.4,436.2 687.7,434.7 690.8,434.1C693.9,433.4 699.5,432.0 703.2,430.9C706.9,429.8 710.6,428.2 711.5,427.3C712.8,426.0 712.9,425.5 711.8,424.9C711.1,424.4 707.1,424.0 703.0,424.0C695.5,423.9 695.5,423.9 698.3,421.5C699.8,420.2 703.4,418.4 706.2,417.5C709.0,416.7 712.6,416.0 714.2,416.0C715.8,416.0 718.7,415.1 720.8,414.1C722.8,413.0 726.3,410.4 728.4,408.1C732.3,404.1 732.3,404.1 726.5,405.6C723.4,406.4 719.7,407.0 718.4,406.8C715.9,406.5 715.9,406.5 718.7,403.5C720.2,401.8 722.6,399.7 723.9,398.7C725.3,397.8 726.1,396.8 725.8,396.4C725.4,396.1 721.4,397.0 716.8,398.6C709.8,400.9 704.5,404.0 683.5,418.3C669.8,427.6 654.6,438.2 649.8,441.9C645.0,445.5 635.7,451.9 629.0,456.0C622.4,460.1 612.9,466.1 607.8,469.3C602.8,472.5 593.1,479.4 586.1,484.7C579.2,490.0 569.8,497.4 565.4,501.1C560.9,504.8 554.1,510.0 550.4,512.7C546.6,515.3 540.5,519.8 536.9,522.7C533.2,525.6 527.9,530.6 525.0,533.9C522.2,537.1 517.1,541.8 513.8,544.2C510.5,546.5 504.3,551.3 500.1,554.7C495.9,558.1 490.7,562.4 488.5,564.3C486.3,566.3 484.8,568.1 485.1,568.4C485.4,568.8 487.3,568.3 489.3,567.5C491.3,566.7 493.7,566.0 494.7,566.0C495.9,566.0 494.4,568.0 490.1,572.4C483.7,578.8 483.7,578.8 474.3,579.2C464.9,579.5 464.9,579.5 458.8,585.8C452.8,592.2 452.8,592.2 448.4,591.5C444.6,591.0 443.7,591.2 441.5,593.4C440.1,594.8 439.0,596.4 439.0,597.0C439.0,597.6 441.4,598.0 444.8,598.0zM704.3,594.0C699.7,594.0 696.0,593.6 696.0,593.2C696.0,592.7 697.1,591.4 698.3,590.1C699.6,588.9 703.4,587.2 706.6,586.3C709.8,585.4 713.1,584.2 713.8,583.7C714.4,583.2 715.0,582.4 715.0,581.9C715.0,581.4 713.8,581.0 712.2,581.0C710.7,581.0 708.8,580.5 708.0,580.0C706.8,579.3 706.8,578.8 707.8,577.8C708.7,576.9 713.1,576.4 721.7,576.1C734.2,575.8 734.3,575.8 732.8,577.8C732.1,578.9 728.5,582.0 725.1,584.7C721.6,587.3 717.3,590.5 715.6,591.8C713.0,593.7 711.3,594.0 704.3,594.0zM646.4,572.0C645.1,572.0 644.0,571.4 644.0,570.7C644.0,569.9 644.8,568.6 645.8,567.8C646.7,566.9 650.3,565.0 653.7,563.6C657.1,562.2 660.5,561.0 661.2,561.0C662.0,561.0 665.9,559.4 670.0,557.4C677.5,553.8 677.5,553.7 674.5,552.8C672.9,552.3 667.1,552.1 661.8,552.4C656.0,552.8 652.0,552.6 652.0,552.1C652.0,551.6 653.2,550.2 654.7,549.1C656.1,547.9 659.8,546.2 662.9,545.3C667.5,544.0 671.3,543.8 683.8,544.3C692.3,544.7 699.6,545.2 700.1,545.6C700.7,545.9 700.6,546.8 699.8,547.7C699.1,548.6 694.7,551.8 690.0,554.8C685.3,557.8 677.5,562.3 672.5,564.6C667.5,567.0 660.2,569.7 656.2,570.5C652.2,571.3 647.8,572.0 646.4,572.0zM512.2,562.5C508.0,562.9 505.0,562.7 505.0,562.2C505.0,561.7 506.8,560.0 508.9,558.5C511.1,557.0 514.6,555.4 516.7,554.9C518.8,554.4 522.9,554.3 525.8,554.6C528.7,555.0 531.3,555.6 531.6,556.1C531.9,556.6 531.6,557.8 531.0,558.9C530.3,560.3 528.6,561.0 524.8,561.4C521.9,561.7 516.2,562.2 512.2,562.5zM61.2,557.9C62.2,558.0 63.0,557.3 63.0,556.4C63.0,555.5 61.4,553.2 59.4,551.3C57.4,549.5 54.0,547.0 51.9,545.9C49.8,544.9 46.0,543.7 43.5,543.3C40.4,542.9 37.6,543.3 34.5,544.4C32.0,545.4 29.1,547.4 27.9,548.8C25.8,551.5 25.8,551.5 37.9,552.8C44.7,553.5 52.1,554.9 54.7,556.0C57.4,557.0 60.3,557.9 61.2,557.9zM553.0,545.0C551.9,545.0 550.7,544.3 550.3,543.4C549.9,542.3 550.5,541.1 552.1,539.9C553.4,538.9 556.4,537.6 558.8,536.9C562.0,536.0 563.4,536.0 564.2,536.8C565.1,537.7 564.8,538.5 563.4,540.1C562.4,541.3 560.1,542.9 558.3,543.6C556.5,544.4 554.1,545.0 553.0,545.0zM722.2,537.3C719.9,537.6 718.0,537.5 718.0,537.2C718.0,536.9 719.4,535.1 721.2,533.3C724.4,530.0 724.4,530.0 715.1,530.0C708.1,530.0 705.9,529.7 706.2,528.8C706.5,528.1 709.3,526.4 712.6,525.1C717.6,523.0 720.6,522.6 733.2,522.2C741.3,522.0 748.6,522.0 749.5,522.4C750.7,522.8 750.8,523.4 750.1,524.8C749.5,525.9 744.0,529.0 737.8,531.7C731.6,534.5 724.6,537.0 722.2,537.3zM588.8,507.5C586.7,507.8 585.0,507.7 585.0,507.3C585.0,506.8 585.7,505.5 586.5,504.3C587.3,503.1 589.5,501.2 591.4,500.1C593.8,498.6 596.4,498.0 600.5,498.0C604.6,498.0 606.1,498.4 605.8,499.2C605.6,499.9 602.5,501.9 599.0,503.7C595.4,505.4 590.8,507.1 588.8,507.5zM679.8,505.0C680.3,505.0 684.0,503.5 688.1,501.6C692.2,499.7 699.1,497.4 703.4,496.5C707.8,495.6 711.9,494.6 712.7,494.2C713.4,493.7 718.4,489.6 723.6,484.9C729.6,479.7 732.6,476.4 731.7,476.2C730.8,476.0 725.7,477.3 720.4,478.9C715.0,480.6 709.9,482.0 709.1,482.0C708.2,482.0 709.4,480.2 712.0,477.4C714.5,474.9 719.1,471.0 722.2,468.9C725.4,466.7 728.0,464.5 728.0,464.0C728.0,463.4 726.8,463.0 725.2,463.0C723.7,463.0 720.7,463.9 718.4,464.9C716.2,465.9 712.7,468.2 710.7,469.9C708.7,471.7 704.8,476.2 702.1,479.9C699.3,483.6 693.7,489.4 689.6,492.8C685.4,496.2 681.4,500.3 680.5,502.0C679.7,503.6 679.3,505.0 679.8,505.0zM413.6,500.0C412.5,500.0 412.0,498.1 411.5,492.4C411.1,488.2 411.0,472.1 411.4,456.6C411.8,441.1 412.5,412.1 413.1,392.0C413.6,371.9 414.7,343.6 415.5,329.0C416.3,314.4 417.7,295.3 418.5,286.5C419.3,277.7 420.7,266.4 421.5,261.5C422.3,256.6 423.6,249.3 424.3,245.5C425.1,241.7 426.7,235.3 427.8,231.5C429.0,227.7 431.7,221.7 433.7,218.3C436.2,214.3 439.5,210.7 443.5,207.7C446.8,205.3 452.3,201.9 455.7,200.1C459.5,198.2 466.6,196.1 474.6,194.4C481.6,193.0 489.2,191.0 491.6,189.9C494.0,188.9 496.0,188.2 496.0,188.5C496.0,188.7 494.5,189.7 492.8,190.8C491.0,191.9 487.1,193.3 484.3,194.0C481.4,194.6 477.8,196.2 476.3,197.3C474.2,199.0 472.2,199.5 467.5,199.5C463.1,199.5 460.2,200.2 456.6,202.0C453.9,203.4 449.6,206.5 447.1,209.0C444.5,211.5 441.1,216.2 439.3,219.5C437.6,222.8 435.2,228.9 434.0,233.0C432.8,237.5 431.7,245.1 431.3,252.1C431.0,259.1 431.1,264.4 431.7,265.4C432.5,266.8 432.8,265.6 433.3,260.2C433.7,256.4 435.1,249.3 436.6,244.4C438.0,239.5 440.2,233.2 441.4,230.5C442.7,227.8 444.5,224.6 445.3,223.5C446.1,222.4 447.1,221.8 447.5,222.1C447.8,222.5 446.7,229.7 445.0,238.1C443.2,246.6 441.0,256.6 440.0,260.3C438.8,264.6 437.3,267.8 435.8,269.0C433.9,270.5 433.5,271.7 433.6,276.5C433.7,279.6 434.0,282.3 434.3,282.6C434.6,282.9 436.9,281.5 439.5,279.6C442.0,277.6 444.6,276.0 445.1,276.0C445.5,276.0 446.6,274.8 447.4,273.2C448.1,271.7 450.0,263.5 451.5,255.0C453.0,246.5 455.3,235.0 456.6,229.5C457.9,224.1 460.2,217.2 461.7,214.3C463.1,211.3 465.0,208.4 465.8,207.7C467.1,206.7 467.2,206.9 466.8,209.0C466.5,210.4 465.1,217.2 463.6,224.1C462.2,231.0 460.4,242.7 459.5,250.1C458.7,257.5 457.4,271.8 456.5,282.0C455.7,292.2 454.1,316.2 453.0,335.5C451.9,354.8 450.6,380.4 450.0,392.5C449.5,404.6 448.8,428.4 448.5,445.5C448.2,462.6 447.7,479.3 447.4,482.8C447.1,486.2 446.5,489.0 446.2,489.0C445.8,489.0 445.0,488.0 444.5,486.8C443.9,485.4 442.5,484.4 441.0,484.2C439.2,484.0 436.0,485.9 429.8,490.4C425.1,494.0 419.8,497.6 418.1,498.4C416.5,499.3 414.4,500.0 413.6,500.0zM228.2,462.9C226.7,462.9 223.0,462.3 219.8,461.6C216.7,460.9 213.5,459.8 212.6,459.1C211.7,458.3 211.0,457.1 211.0,456.4C211.0,455.6 212.0,454.9 213.2,454.8C214.5,454.8 216.8,454.8 218.5,454.9C220.2,455.1 223.4,456.2 225.6,457.6C227.9,458.9 230.0,460.6 230.4,461.5C230.8,462.6 230.3,463.0 228.2,462.9zM597.2,448.8C611.5,448.5 611.5,448.5 618.5,444.5C625.5,440.6 625.5,440.6 621.0,439.9C618.5,439.6 612.2,439.4 607.0,439.7C601.8,439.9 595.7,440.3 593.5,440.6C591.2,440.8 588.0,441.9 586.2,443.0C584.2,444.2 583.0,445.8 583.0,447.1C583.0,449.1 583.4,449.1 597.2,448.8zM594.2,425.5C606.6,424.9 607.7,424.7 609.7,422.4C611.1,420.9 613.8,419.6 617.0,419.0C619.7,418.5 623.2,417.4 624.7,416.6C626.3,415.8 629.3,413.5 631.5,411.6C633.7,409.7 635.2,407.8 634.7,407.4C634.3,407.0 626.6,407.4 617.6,408.3C608.4,409.2 597.8,411.0 593.2,412.3C588.7,413.6 584.1,415.5 583.0,416.5C581.6,417.7 581.0,419.6 581.0,422.2C581.0,426.2 581.0,426.2 594.2,425.5zM166.8,414.9C165.5,414.9 163.0,414.3 161.3,413.7C159.5,413.0 157.9,412.1 157.8,411.5C157.6,410.9 158.5,410.4 159.6,410.2C160.8,410.0 163.4,410.6 165.4,411.4C167.4,412.2 169.0,413.4 169.0,413.9C169.0,414.5 168.0,415.0 166.8,414.9zM709.2,393.5C710.5,393.1 714.0,391.4 717.0,389.7C720.0,388.0 725.5,383.5 729.2,379.7C733.0,376.0 736.0,372.2 736.0,371.4C736.0,370.6 735.4,370.0 734.8,370.0C734.1,370.0 730.7,371.3 727.4,372.9C724.0,374.5 719.3,377.5 716.9,379.7C714.6,381.8 711.4,385.5 709.8,387.9C708.3,390.4 707.0,392.8 707.0,393.3C707.0,393.7 708.0,393.8 709.2,393.5zM273.8,388.0C280.3,388.0 282.3,387.6 285.0,385.8C286.9,384.5 288.4,383.1 288.4,382.5C288.5,381.9 287.1,381.3 285.5,381.2C283.9,381.0 279.3,381.1 275.3,381.5C271.4,381.9 267.4,382.7 266.4,383.4C265.4,384.2 264.9,385.4 265.3,386.4C265.8,387.7 267.4,388.0 273.8,388.0zM581.2,385.0C581.7,385.0 584.3,383.9 587.1,382.5C589.8,381.1 594.4,379.5 597.3,379.0C600.2,378.4 606.6,377.6 611.7,377.1C618.6,376.4 622.0,375.5 625.3,373.6C628.2,371.9 631.2,371.0 634.1,371.0C636.9,371.0 640.4,370.0 643.8,368.3C646.8,366.8 651.2,363.8 653.6,361.7C656.1,359.5 657.9,357.6 657.6,357.3C657.4,357.1 651.9,357.4 645.4,358.0C638.9,358.6 630.2,359.8 626.0,360.6C621.9,361.4 611.3,363.7 602.5,365.7C593.7,367.6 584.9,370.1 582.9,371.1C580.9,372.1 579.0,373.6 578.6,374.5C578.3,375.4 578.0,377.0 578.0,378.0C578.0,379.1 578.5,381.1 579.2,382.5C579.8,383.9 580.7,385.0 581.2,385.0zM594.1,352.0C594.5,352.0 597.4,350.1 600.6,347.7C603.9,345.3 607.1,342.6 607.9,341.6C608.7,340.7 610.6,339.2 612.1,338.4C613.7,337.6 615.5,337.0 616.3,337.0C617.1,337.0 618.2,339.3 619.1,343.2C620.2,348.3 620.9,349.6 622.6,349.8C623.9,350.0 625.0,349.4 625.4,348.4C625.8,347.4 626.3,343.9 626.7,340.6C627.2,335.0 627.7,334.1 631.7,330.3C634.4,327.8 638.2,325.4 641.3,324.4C644.2,323.5 649.2,320.9 652.5,318.7C655.8,316.5 659.7,313.6 661.2,312.2C662.8,310.8 664.0,309.2 664.0,308.8C664.0,308.3 661.6,308.2 658.8,308.6C655.9,308.9 646.5,310.5 638.0,312.1C629.5,313.7 617.1,316.3 610.6,318.0C604.1,319.6 595.4,322.5 591.3,324.4C587.2,326.4 582.5,328.9 580.9,330.1C578.7,331.6 578.0,332.9 578.0,335.4C578.0,337.2 578.3,338.9 578.6,339.2C578.9,339.5 581.6,338.9 584.7,337.8C589.2,336.3 590.5,336.1 591.1,337.2C591.6,337.9 592.0,341.2 592.0,344.6C592.0,347.9 592.3,351.0 592.7,351.3C593.0,351.7 593.7,352.0 594.1,352.0zM279.6,348.9C285.3,349.0 285.9,348.8 292.0,344.3C297.0,340.5 298.0,339.4 296.4,339.1C295.4,338.9 288.9,339.0 282.0,339.2C272.3,339.6 268.5,340.1 264.9,341.7C262.3,342.8 259.9,344.3 259.5,345.0C259.1,345.6 259.1,346.4 259.4,346.7C259.7,347.1 263.0,347.7 266.8,348.0C270.5,348.4 276.2,348.8 279.6,348.9zM132.8,329.0C140.2,329.0 143.5,328.5 146.8,327.0C149.1,326.0 151.0,324.7 151.0,324.2C151.0,323.7 149.3,323.0 147.3,322.7C145.2,322.3 138.9,322.3 133.3,322.7C124.5,323.2 123.0,323.6 122.5,325.1C122.1,326.2 122.2,327.4 122.5,328.0C122.8,328.6 127.3,329.0 132.8,329.0zM261.8,326.5C262.7,326.2 266.5,325.7 270.1,325.4C273.8,325.2 278.7,324.1 281.1,323.0C283.5,321.9 286.6,321.0 288.0,321.0C289.4,321.0 292.0,320.1 293.8,319.0C295.5,317.9 297.0,316.6 297.0,316.1C297.0,315.6 296.3,314.9 295.4,314.6C294.5,314.3 289.8,314.0 284.9,314.0C279.9,314.0 273.8,314.5 271.4,315.1C268.5,315.9 265.6,317.6 263.4,319.8C261.5,321.7 260.0,324.2 260.0,325.3C260.0,326.7 260.4,327.0 261.8,326.5zM387.0,320.8C385.2,326.5 385.2,326.5 385.1,315.0C385.0,308.7 385.7,297.9 386.5,291.0C387.3,284.1 388.6,274.7 389.5,270.0C390.3,265.3 392.4,256.7 394.1,250.7C395.9,244.8 398.5,238.0 400.1,235.5C401.7,233.0 403.4,231.0 404.0,231.0C404.5,231.0 405.0,231.9 405.0,233.0C405.0,234.1 403.7,239.9 402.0,245.8C400.4,251.7 397.9,263.0 396.5,271.0C395.1,279.0 392.8,292.2 391.4,300.3C390.0,308.4 388.1,317.6 387.0,320.8zM78.7,321.0C84.8,321.0 86.1,320.7 87.0,319.1C87.8,317.5 87.5,316.6 85.8,314.5C84.1,312.6 82.0,311.7 77.5,311.0C74.2,310.4 69.5,310.0 67.1,310.0C62.8,310.0 62.8,310.0 64.5,312.8C65.5,314.3 67.4,316.7 68.8,318.2C71.2,320.8 72.0,321.0 78.7,321.0zM475.1,317.3C474.6,317.8 473.9,316.1 473.6,313.7C473.2,311.2 473.2,298.9 473.5,286.3C473.8,273.8 474.5,258.8 475.1,253.0C475.6,247.2 476.3,240.0 476.6,237.0C476.9,234.0 478.1,227.4 479.2,222.5C480.3,217.6 482.1,212.2 483.1,210.5C485.0,207.5 485.0,207.5 485.0,211.0C485.0,212.9 484.5,217.2 484.0,220.5C483.5,223.8 482.2,236.2 481.1,248.0C480.0,259.8 478.9,275.6 478.5,283.0C478.2,290.4 477.5,301.0 476.9,306.5C476.3,312.0 475.5,316.9 475.1,317.3zM126.7,316.4C131.0,316.1 137.7,315.2 141.5,314.4C145.6,313.6 150.3,311.8 152.9,310.1C157.3,307.2 157.3,307.2 151.6,306.5C148.4,306.1 141.0,305.9 135.2,306.2C128.8,306.5 123.3,307.2 121.5,308.1C119.7,308.9 118.4,310.4 118.2,311.8C118.0,313.1 118.1,314.8 118.4,315.5C118.8,316.5 120.7,316.7 126.7,316.4zM348.0,312.9C347.5,313.9 347.1,313.6 346.7,311.9C346.3,310.6 346.7,304.8 347.6,299.0C348.4,293.2 350.0,284.5 351.2,279.6C352.3,274.8 354.5,267.2 356.1,262.9C357.7,258.5 360.8,251.5 362.9,247.2C365.5,242.3 369.2,237.2 373.1,233.2C376.7,229.5 381.9,225.6 385.4,223.8C388.8,222.1 395.3,219.9 400.0,218.9C404.7,217.9 409.6,217.1 410.9,217.0C412.6,217.0 413.1,217.3 412.4,218.0C411.8,218.6 407.5,219.7 402.8,220.4C398.2,221.2 392.5,222.7 390.3,223.9C388.1,225.0 383.7,228.7 380.6,232.2C377.3,235.8 373.0,242.1 370.6,247.1C368.2,251.8 364.0,262.6 361.2,271.1C358.5,279.6 354.5,292.1 352.5,299.0C350.4,305.9 348.4,312.1 348.0,312.9zM265.7,298.4C275.9,298.3 280.7,297.8 284.0,296.6C286.4,295.7 290.4,293.8 292.8,292.4C295.8,290.6 296.9,289.5 296.2,288.8C295.6,288.2 290.3,287.5 284.3,287.3C277.9,286.9 269.7,287.3 264.5,288.0C257.6,289.0 255.1,289.8 253.3,291.6C252.0,292.9 251.0,294.8 251.0,295.8C251.0,296.8 251.2,297.9 251.4,298.1C251.7,298.4 258.1,298.5 265.7,298.4zM603.5,289.5C617.1,283.0 617.1,283.0 618.8,286.0C619.7,287.6 620.8,289.0 621.2,289.0C621.7,289.0 624.6,287.1 627.8,284.7C631.0,282.4 637.8,278.7 642.9,276.5C648.1,274.3 654.1,270.9 656.4,268.8C660.5,265.2 660.5,265.2 657.6,264.4C655.7,264.0 651.5,264.4 645.6,265.9C640.6,267.1 636.2,268.0 635.8,268.0C635.3,268.0 635.0,267.4 635.0,266.7C635.0,266.0 636.2,264.2 637.8,262.8C639.3,261.4 647.2,256.7 655.5,252.4C663.8,248.2 672.9,243.2 675.8,241.3C678.8,239.4 680.8,237.5 680.4,236.9C680.0,236.2 677.9,236.1 674.6,236.5C671.8,236.8 665.0,238.2 659.5,239.6C654.0,240.9 641.9,244.7 632.5,247.9C623.1,251.2 610.7,255.7 604.8,257.9C599.0,260.1 590.7,263.7 586.3,265.8C582.0,268.0 577.7,270.7 576.7,271.8C575.1,273.6 574.9,275.2 575.2,283.9C575.3,289.3 575.8,294.2 576.3,294.6C576.7,295.0 579.1,293.9 581.5,292.2C584.0,290.4 586.5,289.0 587.0,289.0C587.6,289.0 588.0,289.4 588.0,289.9C588.0,290.4 588.4,292.0 589.0,293.4C589.9,295.9 589.9,295.9 603.5,289.5zM136.6,291.0C136.9,291.0 138.7,289.9 140.8,288.5C143.2,286.9 147.6,285.5 152.9,284.6C158.4,283.6 162.6,282.2 165.2,280.5C168.2,278.5 168.9,277.6 168.0,277.0C167.2,276.5 162.5,275.9 157.5,275.5C152.3,275.1 144.5,275.3 139.0,275.9C133.8,276.6 127.8,277.5 125.7,278.1C123.6,278.6 120.6,280.3 119.0,281.8C117.5,283.3 115.9,285.5 115.5,286.8C114.9,289.0 114.9,289.0 124.9,288.4C133.7,287.8 135.0,287.9 135.6,289.4C135.9,290.3 136.4,291.0 136.6,291.0zM62.5,287.8C65.2,287.9 69.2,287.7 71.2,287.4C73.3,287.0 75.0,286.4 75.0,286.1C75.0,285.7 73.4,284.6 71.4,283.7C69.5,282.7 68.2,281.5 68.5,281.0C68.8,280.4 69.7,280.0 70.5,280.0C71.3,280.0 73.1,279.5 74.5,278.8C75.9,278.2 77.0,277.3 77.0,276.8C77.0,276.4 74.2,276.0 70.8,276.0C67.3,276.0 59.8,276.5 54.0,277.2C48.2,277.8 42.9,278.8 42.2,279.3C41.6,279.8 41.0,281.0 41.0,282.0C41.0,283.0 41.7,284.4 42.7,285.1C43.6,285.9 47.3,286.8 50.9,287.1C54.5,287.4 59.8,287.8 62.5,287.8zM514.8,287.0C515.7,287.0 519.9,285.1 524.0,282.9C528.1,280.7 532.3,278.1 533.2,277.3C534.2,276.4 535.0,275.2 535.0,274.7C535.0,274.1 533.1,274.0 530.2,274.4C527.6,274.7 522.7,276.4 519.3,278.0C515.8,279.7 512.8,281.9 512.5,283.0C512.2,284.1 512.2,285.4 512.5,286.0C512.8,286.5 513.9,287.0 514.8,287.0zM605.8,277.4C604.3,277.7 602.9,277.6 602.6,277.1C602.3,276.6 603.0,274.7 604.3,272.9C605.6,270.9 609.1,268.1 612.7,266.2C616.1,264.4 619.5,263.3 620.4,263.6C621.3,263.9 622.0,264.5 622.0,265.0C622.0,265.4 621.0,267.2 619.7,269.1C618.5,271.0 615.5,273.4 613.0,274.6C610.5,275.8 607.3,277.0 605.8,277.4zM118.6,271.6C120.2,271.2 124.0,270.4 127.0,269.9C130.0,269.4 134.2,269.0 136.4,269.0C139.1,269.0 142.1,267.9 146.4,265.3C149.7,263.2 155.4,260.6 158.9,259.5C162.5,258.3 165.5,256.9 165.7,256.3C166.0,255.6 165.1,254.6 163.9,253.9C162.7,253.3 156.7,252.5 150.7,252.2C144.1,251.9 137.1,252.2 132.9,253.0C128.2,253.8 124.9,255.0 122.9,256.7C121.3,258.1 119.3,260.4 118.5,261.9C117.8,263.4 116.8,266.3 116.4,268.4C115.7,272.3 115.7,272.3 118.6,271.6zM260.2,269.9C266.7,269.6 271.9,268.8 274.2,267.7C276.3,266.8 279.9,266.0 282.2,266.0C284.6,266.0 288.8,264.9 291.6,263.6C294.4,262.3 297.0,260.8 297.4,260.2C297.7,259.7 297.0,258.9 295.7,258.6C294.5,258.3 289.2,257.7 284.0,257.4C278.8,257.0 270.6,257.2 265.8,257.8C261.0,258.4 256.2,259.5 255.2,260.1C254.1,260.8 252.5,262.6 251.6,264.1C250.7,265.6 250.0,267.6 250.0,268.7C250.0,270.4 250.7,270.5 260.2,269.9zM44.7,270.0C50.1,269.9 59.9,269.1 66.5,268.1C73.1,267.1 81.2,265.2 84.4,264.0C88.9,262.3 89.9,261.5 88.7,260.9C87.9,260.4 83.9,259.6 79.8,259.0C75.8,258.4 69.7,258.1 66.2,258.2C62.3,258.4 60.0,258.1 60.0,257.4C60.0,256.8 61.0,255.4 62.2,254.3C63.5,253.2 67.7,250.7 71.5,248.7C75.3,246.8 81.5,244.2 85.2,243.1C88.8,241.9 92.1,240.3 92.4,239.5C92.7,238.5 91.8,237.9 89.3,237.4C87.4,237.0 80.5,237.0 74.1,237.3C64.4,237.7 61.2,238.3 54.2,240.9C49.6,242.6 42.4,244.6 38.2,245.3C32.2,246.3 30.4,247.0 30.2,248.4C30.0,249.3 30.6,251.0 31.6,252.1C33.2,253.9 34.5,254.1 44.0,253.8C54.1,253.5 54.5,253.6 54.8,255.7C55.0,257.1 54.4,258.3 53.1,259.0C51.9,259.6 47.1,260.6 42.4,261.2C36.7,261.9 33.6,262.8 33.3,263.7C33.0,264.5 33.2,266.2 33.8,267.6C34.9,269.9 35.3,270.0 44.7,270.0zM511.2,258.0C511.9,258.0 515.5,256.7 519.2,255.1C522.9,253.5 527.8,250.8 530.0,249.0C532.2,247.3 534.0,245.4 534.0,244.9C534.0,244.4 532.9,244.0 531.6,244.0C530.2,244.0 525.6,245.4 521.3,247.1C517.0,248.8 512.7,250.9 511.8,251.8C510.8,252.6 510.0,254.4 510.0,255.7C510.0,256.9 510.6,258.0 511.2,258.0zM593.8,253.8C596.5,253.5 596.5,253.5 597.0,240.0C597.3,232.6 597.9,225.9 598.3,225.2C598.8,224.5 599.5,224.2 599.9,224.5C600.4,224.7 601.0,226.3 601.3,228.0C601.7,229.6 602.6,231.0 603.3,231.0C604.1,231.0 605.5,230.1 606.5,229.0C607.5,227.9 610.2,226.5 612.4,225.9C614.7,225.3 621.0,221.9 626.5,218.3C632.0,214.7 638.8,210.1 641.5,208.0C644.2,205.9 647.5,203.9 648.7,203.6C649.9,203.2 651.1,203.4 651.4,203.9C651.8,204.4 651.6,206.7 651.1,208.9C650.6,211.2 650.3,213.0 650.5,213.0C650.7,213.0 654.6,210.8 659.2,208.2C663.7,205.5 671.0,201.8 675.3,199.9C679.6,198.0 684.3,195.5 685.8,194.3C688.5,192.1 688.5,192.1 685.2,192.0C683.2,192.0 682.0,191.5 682.2,190.9C682.4,190.3 685.0,188.5 688.0,186.8C691.0,185.2 694.5,183.2 695.8,182.4C697.0,181.6 698.0,180.5 698.0,180.0C698.0,179.4 696.2,179.0 694.1,179.0C691.9,179.0 687.1,179.6 683.3,180.4C679.6,181.2 673.1,183.0 669.0,184.3C664.9,185.7 654.5,189.3 646.0,192.3C637.5,195.4 626.1,199.7 620.8,201.9C615.5,204.1 603.5,209.7 594.1,214.5C584.8,219.2 575.8,224.3 574.1,225.9C571.7,228.1 571.0,229.7 571.0,232.5C571.0,235.8 571.2,236.1 573.2,235.4C574.5,235.1 577.6,233.7 580.2,232.4C582.8,231.1 585.6,230.0 586.5,230.0C587.3,230.0 588.0,230.6 588.0,231.2C588.0,231.9 588.5,236.6 589.0,241.5C589.6,246.4 590.3,251.3 590.6,252.3C591.0,253.6 592.0,254.0 593.8,253.8zM254.1,252.7C256.0,252.4 261.6,251.4 266.5,250.5C271.4,249.6 279.1,247.7 283.4,246.2C287.8,244.7 291.5,243.0 291.7,242.3C292.0,241.7 290.0,240.7 286.9,240.1C283.8,239.4 277.9,239.2 272.6,239.5C267.6,239.9 261.6,240.8 259.4,241.6C257.1,242.4 254.5,243.9 253.6,244.9C252.7,245.8 251.7,248.1 251.4,250.0C250.7,253.3 250.7,253.3 254.1,252.7zM199.8,250.0C206.0,250.0 208.0,249.5 213.3,246.8C219.5,243.6 219.5,243.6 215.5,242.7C213.3,242.2 208.1,242.1 203.9,242.4C199.8,242.7 195.2,243.3 193.8,243.9C192.4,244.4 191.0,245.6 190.6,246.6C190.2,247.6 190.5,248.7 191.2,249.2C191.9,249.6 195.8,250.0 199.8,250.0zM119.1,249.0C119.7,249.0 121.4,248.1 122.9,247.1C124.3,246.1 128.7,244.3 132.5,243.1C136.4,242.0 144.8,240.4 151.3,239.6C157.9,238.8 163.7,237.7 164.3,237.1C165.0,236.4 164.6,235.8 162.9,235.2C161.6,234.7 157.7,233.9 154.2,233.5C150.8,233.1 147.8,232.5 147.5,232.0C147.3,231.6 149.5,230.0 152.5,228.3C158.0,225.4 158.0,225.4 147.7,225.5C139.9,225.6 136.2,226.2 132.2,227.8C129.3,228.9 125.7,230.6 124.3,231.5C123.0,232.4 121.0,235.0 119.9,237.3C118.9,239.6 118.0,243.2 118.0,245.2C118.0,247.3 118.5,249.0 119.1,249.0zM55.6,222.0C54.0,222.0 53.0,221.4 53.0,220.5C53.0,219.7 54.8,217.7 57.1,216.1C59.3,214.4 63.4,212.4 66.1,211.5C68.9,210.5 71.4,210.1 71.7,210.4C72.1,210.7 71.9,212.0 71.3,213.3C70.7,214.6 67.5,217.0 64.2,218.8C60.9,220.6 57.0,222.0 55.6,222.0zM513.1,217.0C513.8,217.0 515.7,216.0 517.4,214.7C519.1,213.4 523.0,211.0 526.0,209.3C529.0,207.6 535.4,203.5 540.1,200.1C544.8,196.7 549.5,193.1 550.5,192.0C551.5,190.9 552.0,189.7 551.7,189.4C551.4,189.0 548.9,189.3 546.3,189.9C543.7,190.6 537.2,193.4 531.9,196.2C526.6,198.9 520.1,202.8 517.4,204.9C513.1,208.1 512.5,209.1 512.2,212.8C512.0,215.6 512.3,217.0 513.1,217.0zM280.7,214.8C284.2,214.6 285.6,214.0 285.8,212.9C286.0,212.0 285.4,211.0 284.5,210.6C283.6,210.3 281.3,210.7 279.4,211.6C277.5,212.5 276.0,213.7 276.0,214.2C276.0,214.7 278.1,215.0 280.7,214.8zM124.5,212.0C124.2,212.0 124.0,211.6 124.0,211.1C124.0,210.7 124.9,209.1 126.0,207.8C127.0,206.4 129.3,204.7 130.9,204.0C132.6,203.3 134.6,203.0 135.5,203.3C136.4,203.7 136.7,204.6 136.3,205.6C136.0,206.5 133.3,208.3 130.3,209.6C127.4,210.9 124.7,212.0 124.5,212.0zM670.7,151.4C678.3,147.8 686.3,143.7 688.5,142.2C692.4,139.6 692.4,139.5 690.0,139.2C688.6,138.9 683.8,139.3 679.3,140.0C673.0,140.9 669.5,142.1 663.8,145.3C657.7,148.8 656.4,150.0 656.2,152.3C656.0,153.9 656.1,155.8 656.4,156.6C656.8,157.6 660.2,156.4 670.7,151.4zM555.7,148.0C554.9,148.0 554.1,147.7 553.7,147.4C553.4,147.1 554.2,144.3 555.6,141.2C556.9,138.2 560.6,132.5 563.7,128.6C566.9,124.7 575.2,115.7 582.2,108.6C589.3,101.6 595.0,95.4 595.0,94.9C595.0,94.4 593.1,94.0 590.8,94.0C588.4,94.0 579.5,93.1 571.0,92.0C562.5,90.9 546.7,88.9 536.0,87.5C525.3,86.1 514.9,84.9 513.0,84.8C511.1,84.7 507.7,85.3 505.5,86.0C503.3,86.7 495.0,90.6 487.0,94.7C479.0,98.8 469.1,103.6 465.0,105.4C460.9,107.2 455.7,109.0 453.5,109.4C449.5,110.1 449.5,110.1 452.0,108.0C453.4,106.9 459.0,103.7 464.5,101.1C470.0,98.4 479.6,93.0 485.8,89.1C492.1,85.3 499.4,81.3 502.2,80.4C506.0,79.2 508.9,78.9 514.4,79.4C518.3,79.8 528.7,81.2 537.5,82.6C546.3,84.0 559.4,86.2 566.5,87.4C573.6,88.7 582.8,90.3 586.8,90.9C590.8,91.5 596.3,92.0 599.0,92.0C601.8,92.0 604.0,92.4 604.0,93.0C604.0,93.5 602.3,94.8 600.2,95.9C598.2,96.9 594.7,99.7 592.5,102.1C590.3,104.4 585.6,109.8 582.0,114.1C578.4,118.4 572.5,125.2 568.8,129.3C564.9,133.5 561.0,139.1 559.5,142.4C558.1,145.5 556.4,148.0 555.7,148.0zM596.6,144.0C596.3,144.0 596.0,141.1 596.0,137.5C596.0,131.9 596.3,130.8 598.6,128.7C601.1,126.4 601.1,126.2 599.9,120.3C598.8,114.7 598.8,114.0 600.9,109.7C602.1,107.1 605.4,103.0 608.1,100.6C610.8,98.2 615.2,94.8 617.8,93.1C620.4,91.4 626.1,86.4 630.5,82.1C634.9,77.8 640.0,73.5 641.8,72.6C643.5,71.7 645.0,71.3 645.0,71.8C645.0,72.3 643.4,73.4 641.5,74.3C639.7,75.2 637.3,77.2 636.3,78.7C634.8,81.0 634.5,83.6 634.5,95.4C634.5,109.4 634.5,109.4 627.5,114.1C623.6,116.6 619.0,120.4 617.2,122.5C615.4,124.5 614.1,126.5 614.4,126.8C614.7,127.1 618.5,125.7 622.7,123.7C627.0,121.7 631.7,119.8 633.2,119.4C635.7,118.9 636.0,119.1 636.0,121.3C636.0,122.7 635.2,124.7 634.2,125.9C633.3,127.1 626.9,130.3 620.0,133.1C613.1,135.9 605.2,139.5 602.4,141.1C599.6,142.7 597.0,144.0 596.6,144.0zM658.2,139.4C659.5,139.1 662.3,137.8 664.5,136.7C666.7,135.6 672.6,132.3 677.6,129.4C682.6,126.5 687.8,123.2 689.1,122.1C691.5,120.1 691.5,120.1 687.7,120.0C685.7,120.0 680.8,121.1 676.9,122.5C673.0,123.8 667.7,126.3 665.1,127.9C662.6,129.6 659.5,131.6 658.2,132.5C656.8,133.6 656.0,135.1 656.0,137.1C656.0,139.8 656.3,140.1 658.2,139.4z" />

</svg>