<?xml version="1.0" encoding="UTF-8" standalone="no"?>
<svg 
  version="1.1" 
  xmlns="http://www.w3.org/2000/svg" 
  xmlns:xlink="http://www.w3.org/1999/xlink" 
  xmlns:svg="http://www.w3.org/2000/svg"
  xmlns:rdf="http://www.w3.org/1999/02/22-rdf-syntax-ns#"
  xmlns:cc="http://creativecommons.org/ns#"
  xmlns:dc="http://purl.org/dc/elements/1.1/"
  viewBox="0 0 768 768"
  width="768"
  height="768"
>
<style>svg {background-color: white; }</style>"
<metadata id="metadata1">
Created by https://svgstud.io and licensed under CC-BY-SA 4.0 license. Please attribute https://svgstud.io
</metadata>
<metadata id="prompt">
sunflower
</metadata>
<metadata id="version">
7
</metadata>
<metadata id="metadata2">
<rdf:RDF>
<cc:Work
    rdf:about="">
    <cc:license
    rdf:resource="http://creativecommons.org/licenses/by-sa/4.0/" />
    <dc:creator>
        <cc:Agent>
            <dc:title>https://svgstud.io</dc:title>
        </cc:Agent>
    </dc:creator>
</cc:Work>
<cc:License
    rdf:about="http://creativecommons.org/licenses/by-sa/4.0/">
    <cc:permits
    rdf:resource="http://creativecommons.org/ns#Reproduction" />
    <cc:permits
    rdf:resource="http://creativecommons.org/ns#Distribution" />
    <cc:requires
    rdf:resource="http://creativecommons.org/ns#Notice" />
    <cc:requires
    rdf:resource="http://creativecommons.org/ns#Attribution" />
    <cc:permits
    rdf:resource="http://creativecommons.org/ns#DerivativeWorks" />
    <cc:requires
    rdf:resource="http://creativecommons.org/ns#ShareAlike" />
</cc:License>
</rdf:RDF>
</metadata>
<metadata id="uid">
73466f82ca58fff255399630ff6e845a9384981c6b2785be15d6d15000dd3779
</metadata>
<path stroke="none" fill="black" fill-rule="evenodd" d="M259.7,756.0C258.8,756.0 256.2,752.4 253.5,747.5C251.0,742.9 247.4,737.1 245.6,734.8C243.8,732.4 235.2,723.3 226.4,714.5C215.3,703.5 208.5,695.7 204.3,689.4C201.0,684.4 197.3,677.4 196.1,673.9C194.7,670.0 193.6,664.0 193.3,658.4C192.9,651.8 193.2,647.2 194.4,641.7C195.4,637.5 197.4,631.5 199.0,628.3C200.7,625.1 204.0,619.8 206.5,616.5C209.0,613.2 215.6,605.4 221.3,599.2C226.9,592.9 235.8,584.0 241.0,579.4C247.1,573.9 253.2,569.6 257.9,567.2C265.3,563.5 265.5,563.5 277.9,563.5C288.0,563.5 292.1,564.0 298.5,565.8C302.9,567.1 309.4,569.7 312.9,571.5C319.4,575.0 319.4,575.0 330.9,574.4C340.0,573.9 343.9,574.1 348.9,575.4C352.4,576.3 357.9,578.4 361.2,580.2C364.4,581.9 369.9,586.0 373.5,589.2C377.1,592.5 383.0,598.9 386.6,603.6C390.3,608.2 393.4,612.0 393.4,612.0C393.5,612.0 393.4,594.2 393.2,572.4C393.0,532.7 393.0,532.7 390.9,534.6C389.8,535.6 387.2,538.7 385.2,541.5C383.2,544.2 379.1,549.5 376.2,553.1C373.2,556.8 369.5,560.7 367.9,561.9C365.1,564.0 365.1,564.0 355.3,551.7C349.8,545.0 343.5,536.9 341.1,533.7C338.8,530.5 336.4,528.0 335.8,528.2C335.2,528.4 333.8,531.3 332.6,534.5C331.3,538.2 329.9,540.5 329.0,540.5C328.0,540.5 326.4,537.4 324.3,531.5C322.6,526.5 320.2,518.8 318.9,514.3C316.7,506.0 316.7,506.0 308.1,514.3C303.4,518.8 295.4,525.4 290.5,528.9C285.6,532.5 279.0,537.4 276.0,539.8C273.0,542.3 269.0,545.8 267.3,547.8C264.0,551.3 264.0,551.3 256.8,549.1C252.8,548.0 247.9,547.0 245.9,547.0C243.9,547.0 239.6,548.4 236.0,550.2C231.9,552.2 226.3,556.5 220.1,562.4C212.6,569.5 210.5,571.1 210.2,569.7C210.0,568.7 211.7,564.0 213.9,559.3C216.2,554.6 217.8,550.5 217.6,550.3C217.4,550.0 216.3,550.3 215.3,550.9C214.2,551.4 211.2,553.7 208.4,555.9C205.7,558.2 202.9,559.8 202.1,559.5C201.3,559.2 197.5,562.1 192.9,566.5C188.6,570.6 183.9,574.2 182.5,574.6C181.1,574.9 179.7,575.0 179.3,574.7C179.0,574.4 180.5,571.0 182.5,567.3C184.6,563.6 187.5,558.9 189.0,557.0C190.5,555.1 192.0,552.9 192.4,552.3C192.9,551.4 192.6,551.2 191.3,551.7C190.3,552.1 187.9,553.4 185.9,554.6C184.0,555.8 177.9,561.0 172.4,566.0C167.0,571.1 161.0,575.9 159.1,576.7C157.3,577.5 155.6,577.9 155.3,577.6C155.0,577.3 156.6,573.7 158.9,569.5C161.1,565.3 163.0,561.7 163.0,561.4C163.0,561.2 162.5,561.0 162.0,561.0C161.4,561.0 157.7,562.8 153.8,565.0C149.9,567.2 146.5,568.9 146.3,568.6C146.0,568.4 146.3,567.3 146.9,566.2C147.5,565.0 148.0,563.7 148.0,563.1C148.0,562.5 147.4,562.0 146.6,562.0C145.8,562.0 142.4,564.1 139.0,566.8C135.5,569.4 130.9,572.7 128.6,574.2C126.3,575.7 123.7,577.0 122.8,577.0C121.8,577.0 121.0,576.7 121.0,576.3C121.0,576.0 122.4,573.3 124.0,570.3C126.2,566.4 126.6,565.0 125.6,565.0C124.8,565.0 115.4,567.8 104.8,571.3C94.2,574.8 84.2,578.0 82.5,578.4C79.5,579.1 79.5,579.1 82.0,577.0C83.4,575.9 87.6,572.9 91.4,570.3C95.3,567.7 101.0,564.6 104.2,563.3C107.4,562.0 114.4,560.1 119.8,559.0C125.1,558.0 134.0,556.4 139.5,555.5C145.0,554.6 154.4,553.6 160.5,553.4C166.6,553.1 173.0,552.7 174.8,552.4C176.6,552.1 177.8,551.5 177.5,550.9C177.1,550.4 172.3,550.0 166.7,550.0C161.1,550.0 154.9,550.5 153.0,551.0C151.1,551.6 143.3,552.1 135.8,552.0C128.2,552.0 121.1,551.6 119.9,551.2C117.8,550.4 117.8,550.4 120.2,548.8C121.6,547.9 125.4,546.3 128.6,545.4C132.5,544.2 137.8,543.6 144.2,543.6C149.5,543.6 153.7,543.3 153.4,542.9C153.2,542.4 151.1,541.1 149.0,539.9C146.8,538.6 145.1,537.1 145.3,536.6C145.5,536.0 147.6,534.9 150.1,534.1C152.7,533.3 158.7,532.7 165.0,532.7C173.1,532.7 177.1,533.2 182.5,534.9C186.3,536.2 190.7,537.4 192.2,537.7C193.8,538.0 195.0,537.8 195.0,537.2C195.0,536.6 192.8,534.5 190.0,532.5C187.2,530.5 185.0,528.4 185.0,527.9C185.0,527.5 183.5,526.3 181.8,525.3C179.2,523.9 176.0,523.5 166.0,523.5C156.1,523.5 151.6,524.0 144.5,525.9C139.6,527.1 131.4,530.1 126.3,532.5C121.2,534.9 113.1,539.6 108.1,543.0C103.2,546.3 95.0,552.7 89.8,557.1C84.7,561.5 75.0,570.7 68.2,577.7C61.5,584.6 56.0,590.6 56.0,591.0C56.0,591.4 62.4,591.7 70.2,591.7C79.1,591.7 87.7,592.3 93.0,593.3C97.7,594.2 106.9,596.1 113.5,597.5C122.1,599.4 129.9,600.3 140.7,600.7C150.6,601.1 159.2,600.8 165.1,600.0C170.2,599.3 180.3,597.3 187.6,595.5C194.9,593.7 203.4,591.0 206.6,589.6C209.8,588.1 218.0,583.4 225.0,579.0C231.9,574.6 238.1,571.0 238.8,571.0C239.5,571.0 240.0,571.5 240.0,572.0C240.0,572.6 237.9,575.4 235.2,578.2C232.6,581.0 228.0,584.9 225.0,587.0C222.0,589.0 215.9,592.5 211.5,594.7C207.1,597.0 199.9,599.9 195.5,601.3C191.1,602.7 183.6,604.5 178.9,605.4C174.2,606.3 165.4,607.4 159.3,607.9C153.0,608.4 143.0,608.4 135.9,607.9C129.1,607.4 117.0,605.7 109.0,604.1C101.0,602.4 91.3,600.6 87.5,600.0C83.7,599.3 73.0,598.9 63.8,598.9C48.2,599.0 47.0,598.8 47.0,597.1C47.0,596.1 49.3,592.2 52.1,588.4C55.0,584.6 63.9,575.0 71.9,567.0C79.9,559.0 90.1,549.7 94.5,546.3C99.0,543.0 105.8,538.2 109.6,535.7C113.5,533.1 120.9,529.3 125.9,527.0C131.0,524.8 138.8,522.0 143.3,520.7C150.1,518.9 154.1,518.5 166.8,518.5C176.6,518.5 181.9,518.1 181.6,517.5C181.3,517.0 179.5,512.7 177.5,508.0C175.5,503.3 172.8,495.4 171.5,490.4C170.2,485.4 168.8,478.0 168.4,473.9C168.1,469.8 167.6,466.2 167.4,465.8C167.1,465.4 164.4,466.0 161.2,467.0C158.1,468.0 151.3,470.0 146.2,471.4C141.1,472.8 136.3,474.0 135.6,474.0C134.8,474.0 133.9,473.3 133.6,472.4C133.3,471.5 133.0,467.3 133.0,463.0C133.0,458.7 133.5,451.7 134.1,447.4C134.7,443.2 136.2,436.7 137.6,433.0C138.9,429.3 140.0,425.6 140.0,424.9C140.0,423.7 137.4,423.5 125.5,423.8C117.5,424.1 108.0,423.9 104.5,423.5C99.1,423.0 98.0,422.5 98.0,421.0C98.0,420.0 99.4,414.0 101.0,407.6C102.7,401.2 104.9,393.8 106.0,391.0C107.1,388.3 109.8,382.4 112.1,377.9C115.3,371.5 115.9,369.5 114.8,368.9C114.1,368.4 112.1,368.0 110.3,368.0C108.6,368.0 103.8,367.3 99.8,366.5C95.8,365.7 90.6,364.3 88.2,363.4C85.2,362.3 84.0,361.3 84.2,360.1C84.5,358.9 85.6,358.5 89.0,358.7C91.5,358.8 98.9,359.2 105.6,359.6C114.6,360.1 118.3,359.9 120.0,359.0C121.4,358.3 127.1,353.6 132.7,348.7C138.4,343.7 143.0,339.3 143.0,338.8C143.0,338.4 142.8,338.0 142.6,338.0C142.3,338.0 136.8,337.3 130.3,336.5C123.8,335.6 111.4,333.3 102.7,331.4C93.9,329.5 85.7,327.5 84.4,327.0C83.1,326.5 82.0,325.2 82.0,324.3C82.0,323.3 84.4,318.8 87.4,314.4C90.4,309.9 96.8,302.2 101.5,297.2C110.1,288.2 110.1,288.2 105.7,285.2C103.3,283.5 99.7,280.3 97.6,278.0C95.5,275.7 94.2,273.4 94.7,272.9C95.1,272.5 102.9,270.2 112.0,267.9C121.1,265.7 134.3,261.9 141.5,259.5C148.7,257.1 156.6,254.3 159.3,253.3C161.9,252.3 164.0,251.2 164.0,250.8C164.0,250.4 161.4,248.2 158.2,245.8C155.1,243.5 143.9,232.9 133.3,222.2C122.8,211.5 114.4,202.2 114.6,201.6C114.8,201.0 120.1,197.3 126.2,193.5C132.4,189.6 142.4,184.0 148.6,180.9C154.7,177.8 163.4,174.3 168.0,173.1C172.6,171.8 180.5,170.6 185.7,170.3C190.8,170.0 195.3,169.4 195.5,169.0C195.7,168.6 194.8,165.0 193.4,160.9C192.0,156.8 190.2,149.2 189.4,144.0C188.7,138.8 188.0,131.7 188.0,128.2C188.0,123.2 188.4,121.6 190.1,119.9C192.0,118.0 192.9,117.9 198.9,118.5C202.5,118.9 210.4,120.1 216.5,121.1C222.6,122.2 232.4,124.7 238.3,126.7C244.2,128.7 249.3,130.0 249.7,129.7C250.0,129.3 249.5,126.4 248.6,123.3C247.4,119.5 246.6,112.4 246.3,103.0C246.0,93.5 246.2,87.0 246.9,84.2C248.0,80.2 248.3,80.0 251.8,80.0C253.8,80.0 258.6,80.9 262.5,81.9C266.4,82.9 272.4,84.9 276.0,86.4C279.6,87.9 284.9,90.6 287.7,92.5C290.6,94.4 293.4,96.0 293.9,96.0C294.4,96.0 295.1,93.0 295.5,89.4C295.9,85.8 297.1,79.6 298.2,75.7C299.2,71.8 301.6,65.6 303.4,61.9C305.2,58.3 307.9,53.7 309.4,51.7C311.0,49.6 313.0,48.0 313.9,48.0C314.9,48.0 318.3,49.6 321.6,51.6C324.8,53.5 330.8,57.6 334.8,60.6C338.8,63.7 344.8,68.9 348.0,72.2C351.6,75.8 354.5,78.0 355.3,77.7C356.1,77.4 357.0,75.7 357.4,73.8C357.7,72.0 360.2,65.9 362.9,60.3C365.6,54.8 369.7,47.4 372.1,43.9C374.4,40.4 380.0,33.8 384.4,29.2C388.8,24.6 395.1,18.9 398.3,16.4C401.5,14.0 405.2,12.0 406.3,12.0C407.8,12.0 411.9,15.5 418.5,22.3C424.0,27.9 430.9,35.7 433.8,39.5C436.7,43.4 441.1,50.5 443.5,55.5C446.0,60.5 448.8,67.7 449.7,71.5C450.6,75.3 451.5,78.7 451.6,78.9C451.8,79.1 455.9,75.5 460.7,71.0C465.5,66.4 473.2,60.3 477.6,57.3C482.1,54.4 489.1,50.7 493.1,49.1C497.2,47.5 503.0,45.7 506.0,45.2C509.0,44.6 513.2,43.9 515.3,43.6C518.2,43.2 519.6,43.6 521.0,45.0C522.0,46.0 523.3,49.3 524.0,52.4C524.6,55.4 525.5,61.6 525.9,66.0C526.4,70.5 527.0,74.3 527.3,74.7C527.6,75.0 531.2,74.1 535.2,72.7C539.2,71.3 543.9,69.9 545.6,69.6C547.5,69.3 549.5,69.7 550.6,70.5C552.3,71.7 552.5,73.2 552.4,84.7C552.3,94.9 551.7,99.4 549.7,107.3C548.3,112.7 545.0,121.4 542.5,126.7C540.0,132.0 538.2,136.5 538.4,136.8C538.7,137.0 542.9,135.8 547.8,134.1C552.6,132.4 560.9,130.3 566.1,129.4C573.4,128.1 579.1,127.9 592.0,128.3C601.1,128.6 611.4,129.4 615.0,130.0C618.5,130.6 622.0,131.6 622.7,132.2C623.4,132.8 624.0,134.7 624.0,136.4C624.0,138.1 622.2,143.4 620.1,148.1C618.0,152.9 613.7,160.7 610.5,165.6C607.3,170.5 602.9,176.8 600.7,179.5C598.5,182.2 592.4,188.9 587.1,194.2C577.5,204.0 577.5,204.0 582.5,204.0C585.3,204.0 591.5,204.5 596.5,205.0C601.5,205.6 611.1,207.1 618.0,208.5C624.9,209.9 637.6,213.0 646.2,215.5C654.8,217.9 663.5,220.6 665.4,221.4C667.4,222.2 669.0,223.6 669.0,224.4C669.0,225.2 666.2,229.6 662.9,234.2C659.5,238.7 652.3,246.9 647.0,252.2C641.1,258.0 633.5,264.4 628.0,267.9C623.0,271.2 614.6,275.8 609.4,278.1C604.2,280.5 600.0,283.0 600.0,283.6C600.0,284.2 603.1,287.0 606.8,289.8C610.5,292.6 619.4,300.2 626.5,306.7C633.7,313.3 641.2,320.6 643.4,322.9C646.5,326.5 647.0,327.4 645.9,328.5C645.1,329.1 640.0,332.4 634.4,335.8C628.9,339.2 621.0,343.5 616.9,345.4C612.8,347.2 606.4,349.8 602.5,351.0C598.6,352.3 594.9,353.8 594.2,354.5C593.1,355.5 593.8,356.8 598.0,361.6C600.9,364.8 604.5,369.4 606.1,371.7C607.7,374.0 609.0,376.4 609.0,377.1C609.0,377.9 607.7,378.1 604.8,377.7C602.4,377.4 597.2,376.6 593.2,375.9C587.7,374.9 585.3,374.9 583.2,375.7C581.7,376.3 577.6,378.1 574.0,379.6C568.6,381.9 566.1,382.3 559.2,382.2C551.7,382.1 550.9,382.3 551.5,383.8C551.9,384.7 553.5,390.9 555.2,397.5C556.8,404.1 558.5,409.8 558.9,410.3C559.3,410.7 562.2,409.9 565.4,408.5C568.5,407.1 575.2,405.3 580.3,404.4C587.2,403.2 593.4,402.9 605.5,403.3C617.5,403.6 624.7,404.4 634.4,406.5C641.5,407.9 653.8,411.4 661.9,414.2C669.9,417.0 680.8,421.2 686.0,423.5C691.2,425.9 700.7,430.3 707.1,433.4C713.5,436.4 719.3,439.6 720.0,440.5C721.1,441.8 719.5,443.8 708.8,454.8C702.0,461.8 692.3,472.2 687.3,478.0C682.3,483.8 674.4,492.2 669.6,496.8C664.9,501.3 656.9,507.7 651.9,511.0C646.9,514.3 639.9,518.4 636.4,520.1C632.9,521.7 625.3,524.9 619.5,527.0C613.7,529.1 606.3,531.7 603.0,532.6C599.7,533.5 596.7,534.6 596.5,535.0C596.2,535.4 599.3,536.6 603.3,537.5C607.2,538.5 613.6,540.4 617.5,541.8C621.4,543.1 627.9,545.9 632.0,548.0C636.1,550.1 643.1,554.3 647.5,557.5C651.9,560.6 659.2,566.8 663.8,571.3C668.3,575.8 674.2,582.6 676.9,586.5C679.5,590.4 685.0,599.6 689.0,607.0C693.0,614.4 699.4,625.8 703.1,632.2C706.9,638.6 710.0,644.8 710.0,645.9C710.0,647.9 709.4,648.0 698.6,648.0C692.4,648.0 683.5,648.7 678.9,649.5C674.3,650.3 662.9,653.2 653.5,655.9C644.1,658.6 631.6,661.6 625.6,662.5C616.9,663.9 610.4,664.1 593.6,663.7C577.6,663.4 569.7,662.7 561.0,661.1C554.7,659.8 544.3,657.5 537.9,655.9C531.5,654.3 522.3,651.6 517.4,649.9C512.5,648.2 505.8,645.5 502.4,644.0C499.0,642.5 493.0,639.0 488.9,636.3C484.8,633.5 479.0,628.6 476.0,625.4C473.0,622.1 469.4,617.8 468.0,615.8C466.6,613.7 465.1,612.2 464.5,612.3C463.9,612.5 462.3,614.4 460.8,616.6C459.3,618.7 455.0,626.8 451.1,634.5C447.3,642.2 442.6,652.6 440.6,657.5C438.7,662.5 436.3,669.5 435.3,673.0C433.7,678.7 433.5,683.8 433.6,715.2C433.7,750.6 433.7,750.9 431.6,751.4C430.4,751.7 426.8,752.0 423.4,752.0C417.3,752.0 417.3,752.0 416.6,661.2C416.3,611.3 415.7,568.4 415.4,565.8C415.0,563.1 414.4,561.0 414.0,561.0C413.6,561.0 412.5,562.9 411.6,565.1C410.7,567.4 409.7,569.1 409.5,568.8C409.3,568.6 408.4,563.9 407.5,558.3C406.7,552.8 405.8,547.5 405.4,546.6C405.1,545.7 404.4,545.3 403.9,545.5C403.4,545.8 402.3,548.4 401.5,551.3C400.4,555.0 399.7,564.3 399.0,584.4C398.2,607.7 397.8,612.5 396.5,613.4C395.1,614.4 395.1,614.9 396.7,618.5C398.2,621.9 398.5,626.2 398.8,647.5C399.0,661.2 398.9,690.2 398.5,711.8C397.8,751.0 397.8,751.0 395.4,751.0C393.7,751.0 392.9,750.3 392.4,748.6C392.1,747.3 392.3,722.9 393.0,694.4C393.7,657.8 393.8,640.3 393.0,635.1C392.3,629.7 390.8,625.4 387.5,619.1C385.0,614.4 380.6,607.4 377.7,603.5C374.8,599.6 370.4,595.0 368.0,593.2C364.5,590.5 363.0,589.9 360.6,590.4C359.0,590.7 356.1,592.2 354.3,593.6C352.4,595.0 350.6,596.9 350.3,597.7C349.9,598.7 350.9,600.2 353.1,601.8C355.0,603.3 358.0,606.0 359.9,608.0C361.7,609.9 365.2,614.4 367.5,618.0C369.8,621.6 372.8,627.2 374.1,630.5C376.0,635.5 376.4,638.3 376.4,647.5C376.4,656.3 375.9,659.7 374.2,664.4C373.0,667.7 369.9,673.8 367.3,677.9C364.7,682.1 358.7,689.4 354.0,694.1C349.2,698.8 342.0,705.1 337.9,707.9C333.8,710.8 326.7,715.1 322.0,717.5C317.3,719.8 307.5,724.1 300.3,727.0C293.0,729.9 285.1,733.5 282.8,735.1C280.4,736.6 276.7,739.6 274.5,741.7C272.3,743.8 268.4,747.9 265.8,750.8C263.3,753.6 260.5,756.0 259.7,756.0zM259.8,746.0C260.0,746.0 264.2,741.8 269.3,736.7C275.6,730.4 280.1,726.8 283.5,725.3C286.2,724.1 293.9,721.0 300.5,718.5C307.1,716.0 316.6,711.6 321.5,708.8C326.4,706.0 333.6,701.4 337.5,698.5C341.4,695.6 347.5,690.1 351.1,686.3C354.7,682.6 359.3,677.0 361.3,674.0C363.4,670.9 365.9,665.8 367.0,662.6C368.4,658.7 369.1,654.3 369.1,648.9C369.1,643.3 368.6,639.8 367.2,636.8C366.2,634.4 364.6,631.9 363.8,631.2C362.9,630.5 362.0,630.3 361.7,630.7C361.5,631.1 360.7,633.2 360.1,635.2C359.4,637.3 358.5,639.0 358.1,639.0C357.7,639.0 356.1,636.6 354.5,633.8C353.0,630.9 350.3,627.0 348.7,625.2C347.0,623.5 345.0,622.0 344.2,622.0C343.2,622.0 342.9,622.8 343.2,624.5C343.5,625.9 343.5,627.0 343.3,627.0C343.1,627.0 341.0,625.7 338.7,624.2C336.4,622.6 333.7,621.1 332.8,620.7C331.8,620.4 330.8,620.5 330.5,621.1C330.1,621.6 332.4,627.1 335.5,633.3C340.8,643.7 341.1,644.9 340.8,650.5C340.5,656.5 340.5,656.5 335.7,649.3C333.1,645.4 329.3,640.7 327.4,639.1C325.5,637.4 323.5,636.0 323.0,636.0C322.5,636.0 320.8,637.9 319.2,640.2C317.6,642.6 313.7,648.7 310.5,653.8C307.4,659.0 304.8,664.1 304.7,665.3C304.7,666.5 305.1,670.1 305.5,673.2C305.9,676.3 305.9,680.1 305.6,681.6C305.2,683.1 304.5,683.9 304.1,683.4C303.7,682.9 302.3,679.9 301.0,676.8C299.8,673.6 298.2,671.0 297.6,671.0C296.9,671.0 294.8,673.1 292.8,675.8C290.8,678.4 287.0,684.0 284.2,688.2C281.4,692.5 276.7,700.8 273.7,706.7C270.7,712.7 267.5,719.7 266.5,722.3C265.5,724.9 264.2,727.3 263.7,727.7C263.0,728.1 262.9,726.4 263.3,722.7C263.6,719.7 265.5,713.1 267.5,708.0C269.6,703.0 271.0,698.6 270.7,698.3C270.3,698.0 268.0,699.0 265.5,700.4C263.0,701.9 261.0,702.6 261.0,702.1C261.0,701.5 262.4,699.5 264.1,697.6C265.8,695.6 269.4,692.4 272.0,690.5C274.7,688.5 279.9,683.0 283.6,678.2C287.3,673.4 292.5,667.0 295.1,664.0C297.7,660.9 303.5,652.6 308.1,645.5C312.6,638.3 319.0,628.0 322.3,622.5C325.6,617.0 331.3,608.5 335.0,603.5C338.7,598.5 343.1,593.1 344.9,591.4C346.7,589.7 349.9,587.4 352.1,586.5C354.2,585.5 356.0,584.1 356.0,583.4C356.0,582.7 354.3,581.6 352.2,580.8C350.0,580.0 344.4,579.5 338.5,579.5C328.6,579.6 328.4,579.7 318.5,584.4C313.0,587.1 304.7,590.7 300.0,592.5C295.3,594.3 288.1,596.5 284.0,597.3C279.9,598.2 272.1,600.7 266.7,603.0C261.3,605.2 252.4,609.8 246.9,613.1C241.4,616.4 236.4,619.0 235.8,618.8C235.2,618.6 236.4,616.5 238.6,614.1C240.7,611.7 245.8,607.5 249.9,604.7C254.0,602.0 260.5,598.2 264.5,596.4C268.4,594.6 275.4,592.1 280.1,591.0C284.7,589.8 288.9,588.4 289.4,588.0C289.8,587.5 289.4,586.7 288.4,586.2C287.3,585.6 284.2,584.9 281.5,584.5C278.8,584.1 275.8,583.4 275.0,582.9C273.8,582.3 274.1,581.9 276.5,580.8C278.6,579.9 283.6,579.6 292.5,579.7C303.7,579.8 305.2,579.6 303.6,578.4C302.6,577.7 298.4,575.7 294.3,574.0C290.3,572.3 284.4,570.5 281.3,569.9C277.3,569.1 273.8,569.2 269.1,570.0C265.5,570.6 260.0,572.5 256.9,574.1C253.8,575.8 247.3,580.6 242.4,584.9C237.5,589.2 229.6,597.2 224.8,602.6C220.0,608.0 214.2,615.0 211.9,618.0C209.6,621.0 206.3,626.7 204.4,630.5C202.6,634.4 200.6,640.7 199.9,644.4C199.3,648.3 199.0,654.2 199.3,657.8C199.7,661.4 200.9,667.2 202.1,670.8C203.3,674.3 206.5,680.6 209.3,684.8C212.2,689.1 222.3,700.5 233.0,711.5C248.6,727.5 252.1,731.8 255.5,738.3C257.7,742.5 259.6,746.0 259.8,746.0zM255.9,679.9C254.8,680.6 254.0,680.8 254.0,680.3C254.0,679.8 255.8,676.9 257.9,673.9C260.1,670.8 264.5,666.2 267.7,663.5C270.9,660.9 276.6,657.2 280.5,655.4C284.4,653.6 289.4,651.8 291.8,651.4C294.2,651.0 296.0,651.1 296.0,651.7C296.0,652.2 294.5,654.0 292.8,655.7C291.0,657.4 286.6,660.2 283.0,662.0C279.4,663.8 272.3,668.2 267.1,671.9C262.0,675.5 256.9,679.1 255.9,679.9zM424.4,667.0C425.3,667.0 432.4,653.7 442.9,632.4C452.3,613.3 460.0,597.2 460.0,596.6C460.0,595.9 461.8,591.7 463.9,587.2C466.1,582.7 469.6,576.5 471.6,573.3C473.7,570.1 478.0,563.3 481.2,558.1C484.5,552.9 490.4,544.4 494.5,539.1C498.5,533.8 508.3,523.2 516.2,515.5C524.1,507.8 535.8,496.4 542.2,490.3C548.6,484.1 558.6,475.4 564.3,470.8C570.1,466.2 578.4,460.3 582.7,457.7C587.1,455.1 594.2,451.4 598.6,449.5C602.9,447.6 611.1,445.2 616.7,444.1C622.2,442.9 629.8,442.0 633.4,442.0C637.0,442.0 642.3,442.5 645.2,443.1C648.1,443.7 652.6,445.3 655.2,446.6C657.9,448.0 660.0,449.5 660.0,450.0C660.0,450.6 652.8,451.0 641.2,451.0C630.8,451.0 622.0,451.3 621.7,451.7C621.3,452.0 623.8,454.1 627.2,456.4C630.6,458.7 633.6,461.1 633.8,461.9C634.2,463.0 633.3,463.2 629.9,462.8C627.5,462.5 619.2,461.4 611.5,460.5C600.6,459.2 596.9,459.0 594.6,459.9C593.0,460.6 592.1,461.4 592.6,461.9C593.1,462.3 596.1,463.7 599.3,465.0C602.4,466.2 606.9,468.6 609.1,470.2C611.8,472.1 612.9,473.5 612.3,474.1C611.6,474.8 607.0,474.7 599.4,474.1C592.9,473.5 584.4,473.0 580.7,473.0C576.9,473.0 572.9,473.5 571.8,474.1C569.9,475.1 570.5,475.6 577.6,478.9C581.9,481.0 586.1,483.4 586.9,484.3C588.0,485.7 588.0,486.0 586.9,486.4C586.1,486.7 578.9,487.3 570.9,487.7C557.1,488.5 556.0,488.8 552.6,491.3C550.6,492.9 549.0,494.5 549.0,494.9C549.0,495.4 550.7,496.1 552.7,496.5C554.7,496.8 558.1,497.8 560.2,498.7C562.3,499.5 564.0,500.8 564.0,501.5C564.0,502.3 562.8,503.1 561.2,503.4C559.7,503.7 553.7,504.4 547.7,505.0C541.8,505.5 535.7,506.6 534.1,507.4C532.6,508.2 529.0,511.4 526.2,514.5C523.4,517.5 520.2,521.4 519.0,523.0C517.9,524.6 517.3,526.1 517.7,526.3C518.2,526.5 528.7,527.3 541.1,528.0C553.5,528.7 569.9,529.0 577.6,528.7C588.2,528.3 593.7,527.5 600.6,525.6C605.7,524.2 613.7,521.4 618.6,519.4C623.5,517.5 631.4,513.8 636.3,511.3C641.2,508.8 648.0,504.7 651.3,502.2C654.7,499.7 660.2,495.3 663.6,492.3C666.9,489.4 675.8,480.1 683.4,471.7C691.0,463.2 700.5,453.5 704.6,450.1C708.7,446.6 712.0,443.3 712.0,442.7C712.0,442.0 704.4,437.8 695.2,433.3C686.0,428.9 674.0,423.5 668.5,421.5C663.0,419.4 652.5,416.2 645.2,414.4C637.9,412.5 626.7,410.3 620.4,409.5C614.1,408.7 605.2,408.0 600.7,408.0C596.2,408.0 589.4,408.5 585.5,409.0C581.6,409.6 575.7,411.0 572.3,412.1C568.9,413.2 565.0,415.0 563.6,416.1C562.1,417.2 561.0,419.0 561.0,420.0C561.0,421.0 561.4,422.1 561.8,422.4C562.2,422.6 566.8,421.8 571.9,420.4C577.0,419.1 583.2,418.0 585.6,418.0C588.9,418.0 590.0,418.4 590.0,419.5C590.0,420.4 589.4,422.3 588.6,423.8C587.8,425.3 586.8,428.3 586.2,430.5C585.4,433.7 585.4,434.1 586.3,432.6C587.0,431.6 589.4,428.1 591.7,424.9C594.0,421.7 596.9,418.6 598.2,417.9C599.6,417.1 603.5,416.7 608.0,416.8C612.1,416.9 615.8,417.4 616.4,418.0C617.0,418.6 616.2,420.3 614.4,422.6C612.8,424.6 610.9,427.1 610.1,428.1C609.3,429.2 609.0,430.3 609.3,430.7C609.7,431.0 611.6,430.0 613.6,428.4C615.6,426.8 619.3,424.0 621.8,422.2C624.7,420.2 627.7,419.0 629.6,419.0C631.4,419.0 636.5,419.7 641.1,420.6C645.7,421.4 649.8,422.5 650.3,422.9C650.7,423.3 649.7,424.9 648.0,426.5C646.4,428.1 645.0,429.7 645.0,430.1C645.0,430.5 647.8,430.6 651.2,430.3C656.0,430.0 661.1,430.7 673.0,433.4C681.5,435.3 691.6,438.0 695.5,439.3C700.9,441.2 702.1,442.0 700.6,442.5C699.6,443.0 692.4,443.0 684.6,442.7C676.9,442.3 665.8,441.3 660.0,440.5C654.2,439.6 643.0,438.9 635.0,438.8C625.1,438.8 618.0,439.3 612.7,440.5C608.3,441.4 600.7,443.9 595.7,446.1C590.6,448.3 583.8,451.7 580.5,453.5C577.2,455.4 571.0,459.5 566.8,462.7C562.6,465.9 551.1,476.2 541.3,485.6C531.5,495.0 522.3,503.5 520.8,504.4C518.6,505.9 517.9,505.9 517.6,504.9C517.4,504.1 516.9,500.4 516.5,496.5C516.2,492.6 515.5,487.8 514.9,485.7C514.3,483.6 513.0,481.0 512.0,480.0C510.9,478.9 508.9,477.8 507.5,477.4C506.1,477.1 504.7,477.0 504.5,477.2C504.2,477.5 505.1,483.8 506.5,491.4C507.8,498.9 509.5,506.6 510.1,508.5C511.3,511.9 511.3,511.9 504.4,519.5C500.6,523.6 494.4,530.5 490.6,534.8C486.8,539.0 481.1,546.0 477.9,550.3C474.7,554.5 469.1,563.1 465.3,569.3C461.6,575.4 451.5,594.7 442.8,612.0C433.2,631.5 427.5,643.9 428.1,644.5C428.6,645.0 429.0,646.2 429.0,647.3C429.0,648.3 427.6,652.2 426.0,656.0C424.4,659.8 423.0,663.8 423.0,664.9C423.0,666.1 423.6,667.0 424.4,667.0zM233.8,654.9C232.8,655.6 232.0,656.0 232.0,655.6C232.0,655.3 233.0,652.9 234.2,650.4C235.3,647.9 239.5,642.5 243.4,638.5C247.3,634.5 253.3,629.4 256.7,627.2C260.1,625.0 266.6,621.7 271.1,619.9C278.3,616.9 280.7,615.2 290.0,606.4C295.9,600.9 302.8,594.8 305.5,593.0C308.1,591.2 313.3,588.7 316.9,587.4C322.1,585.5 325.6,585.0 333.8,585.0C340.2,585.0 344.0,585.4 344.0,586.0C344.0,586.6 339.5,591.8 334.0,597.6C328.4,603.5 323.2,609.3 322.4,610.6C321.5,611.9 320.0,613.2 319.0,613.5C318.1,613.8 313.0,614.2 307.9,614.4C301.6,614.6 296.6,615.4 292.7,616.9C289.4,618.0 281.7,621.4 275.4,624.4C269.2,627.4 261.6,631.5 258.5,633.5C255.4,635.4 249.0,640.8 244.2,645.3C239.4,649.8 234.7,654.2 233.8,654.9zM600.5,655.8C609.3,655.9 620.3,655.5 624.8,655.0C629.4,654.4 638.3,652.3 644.8,650.4C651.2,648.5 660.1,645.7 664.5,644.2C671.7,641.8 674.0,641.6 687.7,641.6C702.6,641.5 702.8,641.5 701.8,639.5C701.2,638.4 698.8,634.8 696.5,631.5C694.2,628.2 688.7,619.2 684.5,611.5C680.2,603.8 674.7,594.4 672.2,590.5C669.8,586.6 663.6,579.4 658.6,574.5C653.6,569.5 645.3,562.6 640.2,559.2C635.1,555.8 627.7,551.5 623.7,549.6C619.7,547.7 610.6,544.2 603.5,541.7C590.5,537.2 590.5,537.2 564.5,536.7C550.2,536.4 532.5,535.4 525.3,534.5C513.2,533.1 511.8,533.1 509.6,534.5C508.3,535.4 504.5,539.4 501.3,543.3C498.0,547.3 493.2,553.5 490.6,557.2C488.1,560.9 484.4,566.9 482.4,570.6C480.5,574.3 479.2,577.5 479.4,577.8C479.7,578.0 483.9,575.8 488.7,572.7C493.5,569.7 504.2,564.0 512.5,560.2C522.3,555.5 530.2,552.6 535.2,551.6C539.4,550.7 543.8,550.0 545.0,550.0C546.7,550.0 546.9,550.4 546.4,552.4C545.8,554.9 545.8,554.9 553.2,552.3C559.2,550.1 562.2,549.7 570.5,549.7C578.0,549.7 583.1,550.4 590.8,552.4C596.5,553.9 604.1,556.2 607.8,557.6C611.5,559.0 618.6,562.4 623.6,565.1C628.7,567.9 634.5,572.0 636.6,574.1C640.4,578.0 640.4,578.0 637.0,577.4C635.1,577.1 629.9,575.0 625.5,572.9C621.1,570.7 614.8,568.5 611.5,567.8C608.2,567.2 599.4,566.6 592.0,566.6C584.3,566.5 577.8,566.9 576.8,567.5C575.3,568.4 578.1,569.6 590.8,573.9C601.1,577.5 613.1,582.6 626.0,589.1C636.7,594.5 650.3,602.0 656.1,605.9C662.0,609.8 669.2,615.2 672.1,617.9C675.5,621.1 676.9,622.9 675.9,623.0C675.0,623.0 668.9,620.2 662.4,616.8C655.8,613.4 642.0,606.4 631.5,601.2C621.0,596.0 607.3,589.6 601.0,587.0C594.7,584.3 582.7,579.9 574.4,577.1C566.1,574.4 555.8,571.4 551.4,570.5C547.1,569.6 538.2,568.6 531.8,568.3C524.5,567.9 517.1,568.2 512.3,568.9C508.0,569.6 499.3,572.2 493.0,574.6C486.7,577.1 480.1,580.0 478.3,581.1C476.4,582.3 472.9,585.7 470.4,588.7C468.0,591.8 466.1,594.5 466.4,594.7C466.7,595.0 469.8,593.1 473.3,590.6C476.9,588.1 484.4,583.8 490.1,581.0C495.8,578.3 503.6,575.3 507.5,574.4C512.3,573.2 518.6,572.7 527.5,572.7C535.6,572.7 543.8,573.3 549.5,574.4C554.4,575.4 565.4,578.8 574.0,581.9C582.5,585.1 591.4,588.7 593.6,589.8C595.8,590.9 600.3,594.7 603.5,598.1C606.7,601.6 610.3,606.7 611.6,609.4C612.9,612.2 613.7,614.6 613.5,614.8C613.3,615.0 610.5,613.4 607.3,611.3C604.1,609.1 597.5,604.7 592.7,601.4C587.8,598.2 582.5,594.6 580.8,593.6C577.7,591.6 577.7,591.6 578.4,594.3C579.0,596.9 579.0,596.9 571.8,593.5C567.8,591.6 563.1,589.7 561.2,589.4C559.4,589.0 557.7,589.0 557.4,589.3C557.1,589.6 558.7,592.9 560.9,596.6C563.1,600.3 565.3,604.8 565.6,606.7C566.0,608.6 566.0,610.3 565.7,610.6C565.4,610.9 560.1,606.7 553.8,601.2C544.5,593.0 542.4,591.5 542.2,593.1C542.0,594.2 541.5,595.0 541.2,594.8C540.8,594.6 538.3,593.6 535.7,592.6C533.1,591.6 530.6,591.0 530.3,591.4C529.9,591.8 530.1,593.4 530.8,595.0C531.5,596.7 532.5,599.3 533.2,601.0C533.9,602.6 534.1,604.2 533.7,604.6C533.4,605.0 532.0,604.6 530.7,603.7C529.3,602.8 525.6,599.8 522.4,596.9C519.1,594.1 515.0,591.1 513.3,590.2C511.5,589.3 509.8,588.9 509.4,589.2C509.1,589.5 510.3,594.0 512.0,599.1C513.7,604.2 515.0,609.3 514.8,610.4C514.5,612.2 514.2,612.2 511.0,609.3C509.1,607.6 504.6,604.4 501.1,602.1C497.6,599.9 494.1,598.0 493.3,598.0C492.2,598.0 491.9,599.1 492.1,602.5C492.3,604.9 492.1,607.2 491.8,607.5C491.5,607.8 489.0,606.0 486.3,603.6C483.5,601.1 481.0,599.3 480.7,599.6C480.4,600.0 481.2,603.1 482.4,606.6C484.0,610.8 484.4,613.0 483.6,613.0C482.9,613.0 480.9,611.7 479.0,610.0C477.1,608.4 474.9,607.1 474.2,607.0C473.3,607.0 473.1,607.7 473.6,609.2C473.9,610.5 475.9,613.7 477.9,616.3C479.9,619.0 484.6,623.5 488.5,626.5C492.4,629.4 499.1,633.6 503.5,635.8C507.9,638.0 516.2,641.3 522.0,643.3C527.8,645.2 537.7,647.9 544.0,649.3C550.3,650.7 560.2,652.6 566.0,653.4C571.8,654.3 578.3,655.1 580.5,655.3C582.7,655.5 591.7,655.7 600.5,655.8zM433.6,620.4C434.9,618.2 439.8,609.0 444.5,599.8C449.2,590.6 453.7,581.2 454.5,579.0C455.8,575.4 455.8,573.2 454.5,561.7C453.7,554.4 452.4,539.5 451.5,528.6C450.6,517.6 449.5,508.1 448.9,507.4C448.3,506.7 444.6,504.1 440.5,501.6C436.5,499.1 432.8,497.0 432.2,497.0C431.7,497.0 430.9,500.3 430.4,504.2C430.0,508.2 429.7,536.3 429.7,566.5C429.6,596.8 430.0,622.2 430.5,622.9C431.1,623.9 431.9,623.2 433.6,620.4zM467.4,557.0C467.6,557.0 471.3,552.6 475.6,547.2C479.9,541.9 486.1,534.4 489.5,530.5C492.9,526.6 496.4,522.4 497.3,521.0C498.2,519.7 499.0,517.3 499.0,515.7C499.0,514.2 497.8,507.2 496.4,500.2C495.0,493.2 493.7,487.3 493.5,487.1C493.3,486.9 490.1,492.9 486.5,500.4C480.5,512.9 479.7,514.1 477.7,513.5C476.5,513.1 473.1,511.9 470.1,510.9C467.1,509.8 464.3,509.3 463.9,509.7C463.4,510.2 463.8,520.4 464.6,532.5C465.4,544.6 466.3,555.1 466.5,555.8C466.8,556.4 467.1,557.0 467.4,557.0zM366.2,554.0C366.5,554.0 369.7,549.8 373.3,544.8C376.8,539.7 382.0,531.8 384.8,527.3C387.6,522.8 391.9,515.4 394.3,510.8C396.8,506.2 400.2,498.7 401.8,494.0C403.5,489.2 405.3,481.8 406.0,477.5C406.7,473.1 406.9,467.1 406.6,464.1C406.2,461.0 403.5,453.1 400.1,445.0C396.8,437.4 392.3,425.6 390.1,418.7C386.3,407.1 386.0,405.2 386.0,395.3C386.0,384.5 386.0,384.5 384.0,387.0C383.0,388.4 381.2,392.0 380.1,395.0C379.0,398.0 377.7,402.3 377.1,404.5C376.4,406.7 375.3,414.8 374.5,422.4C373.6,430.1 372.8,436.6 372.5,436.8C372.3,437.0 371.8,435.5 371.3,433.4C370.9,431.2 370.6,424.1 370.7,417.5C370.8,410.9 371.6,402.9 372.4,399.7C373.3,395.6 373.4,394.0 372.6,394.3C372.0,394.5 370.1,396.5 368.3,398.8C366.6,401.1 363.7,406.7 362.0,411.2C360.3,415.8 358.4,419.9 357.9,420.5C357.4,421.0 357.0,418.8 357.0,414.8C357.0,410.2 357.8,406.0 359.5,401.2C360.9,397.4 362.0,393.9 362.0,393.5C362.0,393.2 359.7,394.5 357.0,396.5C354.2,398.6 351.7,400.0 351.4,399.8C351.2,399.5 351.4,398.1 352.0,396.6C352.5,395.1 353.0,393.4 353.0,392.9C353.0,392.4 351.7,392.6 350.1,393.4C348.5,394.3 345.6,397.1 343.7,399.7C341.8,402.3 338.9,407.2 337.3,410.5C335.6,413.8 333.5,419.0 332.6,422.1C331.7,425.2 330.5,431.3 330.0,435.6C329.4,440.0 328.7,444.3 328.4,445.2C328.1,446.2 327.5,447.0 327.1,447.0C326.6,447.0 325.6,445.5 324.9,443.8C324.1,441.9 323.5,437.4 323.6,433.5C323.7,429.6 324.7,423.0 325.9,418.7C327.0,414.4 329.6,407.7 331.6,403.9C333.5,400.0 334.9,396.6 334.7,396.3C334.4,396.1 332.2,396.9 329.8,398.1C327.5,399.3 322.6,403.3 319.0,407.0C315.4,410.7 310.9,416.4 309.0,419.6C307.1,422.9 304.7,426.6 303.7,428.0C301.7,430.5 301.7,430.5 302.2,425.5C302.5,422.8 303.7,417.9 304.9,414.8C306.1,411.6 308.9,406.4 311.1,403.3C313.3,400.1 316.0,396.3 317.2,394.8C318.4,393.3 319.1,391.7 318.7,391.4C318.4,391.0 316.7,391.3 314.9,392.0C313.2,392.7 309.1,395.1 305.8,397.2C302.5,399.4 299.6,400.9 299.4,400.7C299.1,400.5 299.4,399.0 300.0,397.4C300.6,395.8 302.2,393.1 303.6,391.3C304.9,389.6 306.0,387.8 306.0,387.5C306.0,387.1 304.3,387.1 302.2,387.5C300.2,387.8 295.4,389.7 291.5,391.5C287.6,393.4 281.4,397.2 277.7,400.1C274.0,402.9 267.1,409.7 262.3,415.1C257.6,420.6 252.9,425.5 251.9,426.1C250.6,426.8 250.0,426.7 250.0,426.0C250.0,425.4 251.1,422.7 252.5,420.1C253.8,417.4 257.7,411.8 261.0,407.6C264.4,403.5 271.1,396.8 276.0,392.8C280.9,388.8 284.9,384.9 284.9,384.2C285.0,383.6 283.9,383.0 282.7,383.0C281.4,383.0 277.7,383.9 274.5,385.0C271.3,386.1 268.5,386.8 268.3,386.6C268.1,386.4 269.2,384.8 270.7,383.0C273.5,379.7 273.5,379.7 269.6,380.3C267.5,380.6 263.2,382.4 260.2,384.2C257.1,386.0 247.7,394.3 239.1,402.7C230.6,411.1 223.4,417.8 223.2,417.5C222.9,417.3 224.0,414.5 225.6,411.3C227.6,407.4 231.9,402.1 239.0,395.0C244.8,389.2 253.4,381.8 258.2,378.5C263.0,375.2 266.9,372.2 267.0,371.9C267.0,371.5 266.0,371.0 264.8,370.6C263.5,370.3 260.0,370.0 256.9,370.0C253.9,370.0 248.9,370.7 245.9,371.6C242.9,372.5 237.1,375.0 233.0,377.1C228.9,379.2 222.8,383.0 219.5,385.5C216.2,388.0 208.6,394.8 202.7,400.7C196.7,406.7 189.9,414.5 187.4,418.1C185.0,421.8 181.6,428.0 179.9,432.0C178.2,436.0 176.2,442.2 175.4,445.9C174.7,449.5 174.0,457.4 174.0,463.5C174.0,469.6 174.5,477.4 175.1,481.0C175.6,484.6 177.5,491.5 179.1,496.5C180.8,501.4 183.8,509.0 185.9,513.5C188.0,517.9 190.6,522.6 191.7,524.0C193.8,526.4 193.8,526.4 197.1,523.7C199.0,522.2 204.8,517.9 210.0,514.1C215.2,510.3 222.9,504.5 227.0,501.1C231.1,497.7 237.5,491.7 241.1,487.8C245.1,483.6 248.2,481.0 248.9,481.4C249.6,481.8 250.0,485.1 250.0,489.9C250.0,494.9 250.9,501.3 252.5,507.6C253.9,513.5 256.9,521.3 259.7,526.8C262.3,531.9 265.0,536.6 265.7,537.2C266.7,538.0 268.0,537.3 271.3,534.3C273.6,532.2 279.2,527.7 283.7,524.3C288.1,520.8 294.7,515.2 298.2,511.8C301.6,508.3 306.4,502.6 308.7,499.0C311.0,495.4 313.3,490.5 313.9,488.0C314.5,485.5 315.2,480.0 315.5,475.8C315.9,471.5 316.5,468.0 316.9,468.0C317.3,468.0 319.2,474.2 321.0,481.7C323.5,492.3 325.4,497.7 329.4,505.3C333.0,512.2 339.1,520.9 350.0,534.5C358.5,545.2 365.8,554.0 366.2,554.0zM261.8,544.5C262.0,543.7 261.0,541.4 259.7,539.3C258.3,537.2 255.9,532.7 254.3,529.5C252.6,526.2 250.1,519.9 248.7,515.5C247.3,511.1 245.8,505.8 245.4,503.7C245.1,501.6 244.1,499.6 243.4,499.3C242.7,499.0 238.6,501.6 234.3,504.9C230.0,508.2 222.3,514.2 217.2,518.0C212.2,521.9 208.0,525.4 208.0,525.9C208.0,526.4 211.3,527.0 215.4,527.4C219.4,527.8 226.1,529.0 230.1,530.1C234.2,531.2 241.1,534.0 245.5,536.2C249.9,538.4 255.3,541.5 257.5,543.0C260.3,545.0 261.6,545.4 261.8,544.5zM476.7,505.9C477.4,506.0 478.4,504.2 479.0,502.0C479.6,499.8 482.5,492.4 485.5,485.5C488.5,478.7 491.6,470.5 492.5,467.2C493.3,463.9 494.0,457.4 494.0,452.8C494.0,446.9 493.6,443.8 492.4,442.2C491.6,441.0 490.0,440.0 488.9,440.0C487.8,440.0 486.8,440.6 486.6,441.2C486.4,441.9 485.9,443.3 485.6,444.4C485.1,446.0 484.4,445.6 480.9,441.6C478.7,439.1 476.4,437.0 475.9,437.0C475.4,437.0 475.3,442.0 475.7,448.9C476.0,456.1 475.9,460.9 475.3,461.3C474.8,461.6 473.5,459.6 472.6,456.7C471.6,453.8 468.7,446.6 466.2,440.5C461.9,430.1 461.1,429.0 451.2,418.6C445.5,412.5 438.0,403.3 434.5,398.0C431.1,392.8 425.9,384.3 423.0,379.2C420.1,374.2 417.5,370.0 417.3,370.0C417.1,370.0 414.5,372.5 411.5,375.6C407.6,379.7 405.5,382.9 403.8,387.6C402.6,391.1 401.2,394.0 400.9,394.0C400.5,394.0 400.0,393.0 399.6,391.8C399.3,390.5 399.0,388.3 399.0,386.8C399.0,385.2 398.6,384.0 398.1,384.0C397.6,384.0 396.5,385.8 395.6,388.0C394.6,390.6 394.0,395.1 394.0,400.8C394.0,406.1 394.8,412.8 396.0,417.9C397.1,422.6 399.9,430.4 402.1,435.4C404.4,440.4 409.0,449.2 412.3,454.9C415.7,460.7 421.0,468.6 424.1,472.5C427.2,476.4 432.1,481.4 435.0,483.5C437.9,485.6 448.2,491.5 457.9,496.6C467.6,501.6 476.0,505.8 476.7,505.9zM204.9,505.0C204.3,505.0 204.2,504.0 204.6,502.8C204.9,501.5 206.2,498.7 207.3,496.5C208.4,494.3 210.8,490.2 212.8,487.5C214.8,484.8 216.8,482.1 217.3,481.5C217.8,480.9 217.9,482.1 217.4,484.5C217.1,486.7 215.8,490.3 214.7,492.5C213.7,494.7 211.2,498.4 209.3,500.8C207.4,503.1 205.4,505.0 204.9,505.0zM536.1,482.9C536.5,483.0 537.0,482.1 537.3,481.1C537.5,480.1 537.5,473.1 537.2,465.7C537.0,458.3 536.4,451.6 536.0,451.0C535.6,450.4 533.5,449.4 531.4,449.0C529.3,448.5 526.0,448.0 524.2,448.0C522.5,448.0 521.0,448.2 521.0,448.5C521.0,448.8 522.3,451.5 523.9,454.6C525.6,457.6 527.2,462.1 527.6,464.6C527.9,467.1 528.0,469.3 527.8,469.6C527.5,469.8 522.9,466.1 517.5,461.4C508.8,453.6 507.8,453.0 508.4,455.6C508.8,457.2 509.2,459.6 509.3,461.0C509.5,463.0 509.0,463.6 506.8,463.8C505.2,464.0 504.0,464.7 504.0,465.5C504.0,466.3 505.0,467.6 506.2,468.4C507.5,469.2 512.7,471.3 517.9,473.1C523.1,474.9 529.1,477.8 531.4,479.6C533.7,481.4 535.8,482.9 536.1,482.9zM244.8,476.0C242.8,476.0 242.7,475.7 243.3,465.2C243.7,456.7 244.4,452.9 246.8,446.3C248.5,441.8 251.5,435.6 253.5,432.6C255.5,429.5 257.6,426.7 258.2,426.4C258.7,426.1 259.4,426.0 259.6,426.3C259.9,426.6 258.6,430.8 256.7,435.6C254.8,440.5 252.6,447.4 251.8,451.0C250.9,454.6 249.9,460.0 249.5,463.0C249.1,466.0 248.4,470.2 247.9,472.2C247.2,475.1 246.4,476.0 244.8,476.0zM141.8,465.7C143.3,465.4 148.3,463.8 153.0,462.1C157.7,460.4 162.9,458.1 164.6,457.1C167.5,455.3 167.8,454.5 168.9,447.1C169.6,442.6 170.9,436.6 171.9,433.7C172.9,430.9 174.6,426.8 175.6,424.8C176.5,422.7 177.1,420.7 176.7,420.4C176.3,420.0 174.1,421.0 171.8,422.5C169.4,424.0 166.5,426.2 165.3,427.3C164.0,428.4 162.7,429.0 162.3,428.7C162.0,428.3 162.2,426.9 162.8,425.5C163.5,424.0 163.6,422.9 163.0,422.5C162.4,422.1 159.9,422.2 157.2,422.5C154.6,422.8 151.5,423.3 150.2,423.6C148.5,423.9 147.0,425.8 144.9,430.4C143.3,433.8 141.3,439.8 140.5,443.6C139.7,447.4 139.0,454.0 139.0,458.4C139.0,466.2 139.0,466.2 141.8,465.7zM559.2,444.9C559.7,445.0 560.0,444.4 560.0,443.6C560.0,442.9 559.4,440.5 558.6,438.3C557.9,436.2 555.6,426.6 553.5,417.0C551.5,407.4 548.7,395.9 547.2,391.5C545.8,387.1 542.5,380.4 539.9,376.5C537.3,372.6 533.4,368.0 531.2,366.3C529.0,364.5 525.4,362.1 523.1,360.9C520.8,359.7 518.7,359.0 518.4,359.3C518.1,359.6 519.3,362.3 521.1,365.4C522.8,368.6 524.0,371.3 523.7,371.6C523.4,371.9 517.9,367.2 511.5,361.0C505.1,354.9 495.9,347.3 491.0,344.0C486.0,340.8 479.4,337.2 476.2,336.0C473.1,334.8 468.8,333.6 466.7,333.3C464.2,332.9 462.4,333.2 461.2,334.2C460.3,335.1 457.6,336.7 455.2,337.9C452.9,339.1 451.0,340.6 451.0,341.3C451.0,342.0 452.6,344.2 454.6,346.1C456.5,347.9 458.8,351.0 459.6,352.9C460.4,354.8 460.9,356.5 460.6,356.7C460.4,356.9 458.5,356.1 456.4,354.8C454.2,353.6 451.0,351.5 449.3,350.2C447.5,348.9 445.3,348.0 444.5,348.4C443.7,348.7 443.0,350.1 443.0,351.5C443.0,353.1 442.6,353.9 442.0,353.5C441.4,353.1 440.3,353.4 439.5,354.0C438.6,354.8 438.0,357.0 438.0,359.8C438.0,364.2 438.0,364.3 436.1,362.6C435.0,361.6 433.6,361.1 433.1,361.5C432.5,361.8 432.0,363.7 432.0,365.6C432.0,367.5 431.6,369.0 431.0,369.0C430.4,369.0 430.0,370.8 430.0,373.0C430.0,375.2 430.8,379.1 431.8,381.8C432.8,384.4 435.9,389.9 438.7,394.0C441.5,398.2 446.7,404.3 450.3,407.7C453.9,411.1 458.9,415.2 461.3,416.8C463.7,418.5 468.4,421.3 471.8,423.0C475.2,424.7 481.8,427.4 486.5,429.0C491.2,430.6 501.0,433.2 508.3,434.9C515.5,436.5 528.0,438.9 535.9,440.0C543.7,441.2 552.1,442.8 554.4,443.5C556.6,444.2 558.8,444.8 559.2,444.9zM109.8,416.5C112.4,416.2 122.2,415.8 131.5,415.5C140.8,415.3 152.3,414.6 157.0,414.0C161.7,413.4 168.8,412.0 172.8,411.0C176.8,409.9 182.2,407.9 184.8,406.6C187.4,405.2 194.2,399.8 200.0,394.5C205.8,389.2 214.8,381.8 220.0,378.0C225.2,374.3 233.7,369.1 238.8,366.6C243.8,364.1 248.0,361.7 248.0,361.4C248.0,361.1 245.0,361.2 241.2,361.5C237.1,362.0 234.9,361.9 235.5,361.3C236.1,360.8 238.4,358.9 240.8,357.0C243.6,354.9 244.8,353.4 244.2,352.8C243.5,352.1 239.8,352.2 233.9,353.0C228.7,353.7 220.7,355.3 216.0,356.7C211.3,358.0 203.3,361.1 198.2,363.5C193.2,365.9 184.2,370.8 178.2,374.3C172.3,377.9 165.5,381.7 163.2,383.0C160.8,384.2 158.5,384.8 158.2,384.5C157.8,384.1 159.8,381.8 162.5,379.3C165.2,376.9 171.3,372.4 176.0,369.3C180.7,366.2 187.7,362.0 191.5,359.9C195.3,357.8 203.0,354.6 208.5,352.7C214.0,350.8 223.8,347.8 230.3,346.0C237.3,344.1 241.9,342.3 241.7,341.6C241.5,341.0 239.6,340.2 237.4,339.7C235.3,339.2 231.8,338.4 229.6,337.8C227.5,337.3 226.1,336.5 226.6,336.1C227.1,335.6 229.9,334.5 232.8,333.5C235.8,332.6 237.8,331.4 237.3,330.9C236.9,330.5 232.5,329.4 227.6,328.5C222.7,327.7 214.1,327.0 208.5,327.0C202.8,327.0 193.0,327.9 186.6,329.0C180.3,330.1 171.5,332.3 167.1,334.0C162.7,335.7 155.8,339.3 151.7,341.9C147.7,344.5 141.4,349.5 137.7,353.0C134.0,356.4 128.7,362.1 126.0,365.5C123.3,368.9 118.8,376.4 116.0,382.1C113.1,388.2 109.7,397.2 108.0,403.9C106.3,410.1 105.0,415.6 105.0,416.1C105.0,416.5 107.1,416.7 109.8,416.5zM519.3,408.0C518.8,408.0 514.4,405.4 509.5,402.1C504.5,398.9 498.5,394.2 496.0,391.6C493.3,388.8 492.2,387.0 493.1,387.0C494.0,387.0 497.5,388.7 500.9,390.8C504.4,392.9 509.6,396.7 512.6,399.3C515.6,402.0 518.5,405.0 519.0,406.1C519.6,407.1 519.7,408.0 519.3,408.0zM565.0,375.6C569.1,375.4 574.2,374.7 576.2,374.0C578.3,373.4 580.0,372.5 580.0,372.0C580.0,371.5 578.2,370.1 576.0,369.0C573.8,367.9 568.7,366.5 564.7,366.0C560.8,365.5 554.9,365.0 551.8,365.0C548.6,365.0 546.0,365.4 546.0,365.8C546.0,366.2 547.7,368.2 549.8,370.2C551.8,372.1 554.4,374.3 555.5,374.9C556.8,375.6 560.3,375.9 565.0,375.6zM313.4,367.0C314.0,367.0 316.2,366.7 318.2,366.4C321.6,365.8 321.8,365.6 320.8,363.4C320.2,362.0 318.7,360.7 317.5,360.4C316.4,360.1 314.2,360.4 312.7,360.9C311.2,361.5 310.0,362.5 310.0,363.3C310.0,364.0 310.5,365.1 311.2,365.8C311.9,366.5 312.9,367.0 313.4,367.0zM332.9,365.5C333.7,364.7 333.9,363.4 333.5,362.1C333.2,361.0 332.1,360.0 331.1,360.0C330.1,360.0 328.5,360.9 327.5,362.0C326.5,363.1 325.9,364.2 326.1,364.5C326.4,364.7 327.7,365.3 329.0,365.9C330.8,366.5 331.9,366.4 332.9,365.5zM299.1,365.0C299.8,365.0 300.9,364.2 301.6,363.2C302.3,362.3 303.0,360.5 303.0,359.2C303.0,357.5 302.4,357.0 300.6,357.0C299.3,357.0 297.7,357.7 297.0,358.5C296.0,359.7 296.0,360.6 296.8,362.5C297.5,363.9 298.5,365.0 299.1,365.0zM344.5,364.8C346.0,364.6 346.5,363.8 346.5,361.5C346.5,359.0 346.1,358.5 343.7,358.2C342.1,358.0 340.2,358.4 339.4,359.1C338.1,360.1 338.2,360.6 340.2,362.7C341.4,364.0 343.3,365.0 344.5,364.8zM287.6,360.9C288.4,360.3 289.0,358.9 289.0,357.9C289.0,356.8 287.6,355.1 285.8,354.0C284.0,352.9 282.2,352.0 281.8,352.0C281.3,352.0 281.0,352.9 281.0,353.9C281.0,355.0 282.2,357.2 283.6,359.0C285.7,361.4 286.5,361.8 287.6,360.9zM366.1,356.6C366.4,354.9 367.1,352.3 367.5,350.8C367.9,349.2 367.9,348.0 367.5,348.0C367.1,348.0 365.5,349.1 363.8,350.5C362.2,351.9 360.0,353.0 359.0,353.0C358.0,353.0 356.5,353.3 355.6,353.6C354.7,353.9 354.0,355.1 354.0,356.2C354.0,357.8 354.5,358.1 356.8,357.6C358.3,357.3 360.9,357.7 362.5,358.4C365.4,359.6 365.5,359.6 366.1,356.6zM323.8,353.0C325.5,353.0 327.5,351.9 329.3,350.0C330.9,348.4 332.6,347.0 333.1,347.0C333.7,347.0 335.0,347.9 336.2,349.0C337.4,350.1 339.4,351.0 340.7,351.0C342.2,351.0 343.4,350.1 344.2,348.4C345.2,346.2 345.8,345.9 348.6,346.4C350.7,346.9 352.1,346.6 353.0,345.5C353.8,344.5 356.0,344.0 359.1,344.0C363.8,344.0 364.1,343.8 365.7,340.4C367.3,337.2 367.8,336.9 370.5,337.3C372.1,337.6 374.3,338.1 375.2,338.5C376.5,339.0 377.3,338.5 378.1,336.6C378.8,335.2 380.2,333.8 381.2,333.4C382.6,333.0 383.0,332.2 382.6,330.9C382.3,329.9 381.7,328.2 381.4,327.1C381.1,326.0 381.4,325.1 382.4,324.7C383.3,324.3 385.2,324.6 386.5,325.2C388.6,326.1 389.8,326.0 393.4,324.2C395.8,323.0 398.0,322.0 398.4,322.0C398.8,322.0 399.8,322.7 400.6,323.5C401.5,324.3 403.0,325.0 404.1,325.0C405.1,325.0 406.0,324.7 406.0,324.2C406.1,323.8 408.0,321.4 410.3,318.8C412.6,316.3 415.5,313.9 416.7,313.5C418.5,313.0 419.1,313.4 419.6,315.4C419.9,316.8 420.7,318.4 421.4,318.9C422.0,319.4 424.5,319.6 426.8,319.3C429.3,319.0 430.9,318.3 430.7,317.6C430.5,317.0 428.2,315.3 425.4,313.9C422.1,312.2 420.5,310.7 420.5,309.4C420.5,308.1 422.1,306.7 425.2,305.0C427.9,303.6 430.0,302.0 430.0,301.4C430.0,300.9 429.5,299.9 428.8,299.2C428.1,298.5 426.4,298.0 425.0,298.0C423.5,298.0 421.5,298.9 420.5,300.0C419.3,301.4 418.9,302.8 419.3,305.0C419.9,307.7 419.6,308.2 416.0,310.0C413.8,311.1 411.7,312.0 411.3,312.0C410.8,312.0 409.5,309.8 408.2,307.1C407.0,304.4 406.0,301.9 406.0,301.5C406.0,301.1 408.2,301.1 410.9,301.5C414.1,301.9 416.0,301.8 416.5,301.0C416.9,300.4 416.5,298.8 415.6,297.5C414.7,296.2 414.0,294.3 414.0,293.4C414.0,292.0 414.8,291.9 419.5,292.5C424.1,293.0 425.1,292.9 425.6,291.5C426.0,290.6 425.8,288.8 425.2,287.4C424.6,286.1 424.3,284.3 424.6,283.5C425.0,282.7 425.8,282.0 426.6,282.0C427.3,282.0 429.1,281.5 430.5,280.8C431.9,280.2 433.0,278.9 433.0,278.0C433.0,277.1 432.1,275.5 431.1,274.6C430.0,273.6 429.4,272.2 429.7,271.5C429.9,270.7 431.7,269.6 433.6,269.0C435.5,268.3 437.5,267.0 438.0,266.0C438.6,265.0 439.0,263.5 439.0,262.8C439.0,262.0 437.3,260.6 435.3,259.6C431.5,257.8 431.5,257.8 434.5,255.4C436.2,254.1 438.3,252.7 439.3,252.4C440.3,252.1 442.7,252.1 444.6,252.5C447.1,252.9 448.0,253.6 448.0,255.0C448.0,256.1 448.4,257.0 449.0,257.0C449.5,257.0 452.3,256.5 455.2,255.9C458.1,255.3 461.1,254.7 461.9,254.4C463.2,254.0 463.2,253.7 461.9,252.5C461.1,251.8 458.6,250.5 456.3,249.7C452.7,248.5 451.8,248.5 450.1,249.6C448.3,250.9 447.5,250.7 442.3,247.9C439.1,246.2 436.1,244.5 435.7,244.0C435.2,243.6 436.1,242.8 437.7,242.3C439.2,241.7 441.6,240.3 443.0,239.1C445.5,237.0 445.5,237.0 443.5,235.5C442.4,234.6 439.9,233.7 437.8,233.3C435.5,233.0 434.0,232.2 434.0,231.3C434.0,230.6 434.8,229.6 435.8,229.2C436.7,228.8 439.0,227.5 440.7,226.5C442.5,225.4 443.9,224.1 443.7,223.6C443.6,223.2 441.7,222.2 439.6,221.5C437.6,220.8 435.6,219.9 435.3,219.7C435.0,219.4 435.5,218.1 436.4,216.8C437.3,215.6 438.0,214.0 438.0,213.3C438.0,212.7 437.1,211.9 436.1,211.5C435.0,211.2 433.8,209.9 433.4,208.8C433.0,207.4 433.3,206.3 434.4,205.5C435.3,204.8 436.0,203.5 436.0,202.6C436.0,201.7 434.9,200.5 433.6,200.0C432.2,199.5 430.6,198.1 429.9,196.9C428.9,195.0 429.0,194.4 430.6,193.3C431.6,192.6 432.7,192.0 433.2,192.0C433.6,192.0 434.0,191.6 434.0,191.1C434.0,190.7 431.9,190.0 429.4,189.7C426.6,189.4 424.0,188.4 422.7,187.1C420.7,185.1 420.7,185.0 422.5,183.0C423.5,181.9 424.0,180.7 423.7,180.4C423.4,180.0 421.6,180.3 419.8,180.9C417.0,181.9 416.2,181.8 413.8,180.0C412.3,178.9 409.9,177.5 408.5,177.0C407.1,176.5 406.0,175.7 406.0,175.2C406.0,174.7 404.1,174.4 401.9,174.4C399.6,174.5 397.5,174.0 397.3,173.4C397.1,172.8 398.8,171.5 401.0,170.5C403.2,169.5 405.0,168.3 405.0,167.8C405.0,167.4 403.7,167.0 402.1,167.0C400.5,167.0 398.5,167.3 397.6,167.6C396.7,167.9 396.0,169.1 396.0,170.2C396.0,171.9 395.4,172.1 389.3,171.8C385.7,171.6 382.5,171.0 382.3,170.4C382.1,169.8 383.6,168.9 385.7,168.4C387.7,167.9 389.5,166.9 389.8,166.2C390.1,165.1 389.0,164.9 384.4,165.4C381.1,165.7 375.9,165.9 372.7,165.9C369.5,165.9 363.5,166.4 359.2,167.0C355.0,167.6 348.4,168.8 344.5,169.6C340.6,170.5 332.8,173.0 327.1,175.2C321.4,177.4 314.0,180.8 310.6,182.7C307.3,184.6 302.9,187.4 301.0,188.9C299.1,190.4 295.7,192.8 293.5,194.2C291.2,195.6 286.7,199.4 283.5,202.7C280.2,205.9 274.6,212.3 271.0,216.8C267.4,221.3 262.2,228.9 259.3,233.6C255.7,239.6 252.8,246.2 249.6,256.3C247.1,264.1 244.6,272.9 244.0,275.9C243.5,278.8 243.0,285.2 243.0,290.0C243.0,294.8 243.7,300.9 244.5,303.6C245.3,306.3 246.0,309.6 246.0,310.9C246.0,313.0 246.3,313.2 249.0,312.6C251.1,312.2 253.3,312.7 255.8,314.0C258.9,315.7 259.5,316.6 259.5,319.2C259.5,321.7 260.0,322.5 261.9,323.0C263.5,323.3 264.6,324.7 265.4,327.0C266.4,330.2 266.9,330.5 270.2,330.5C272.2,330.5 274.2,330.8 274.6,331.3C275.0,331.7 274.4,333.1 273.1,334.3C271.8,335.8 271.2,337.3 271.6,338.3C271.9,339.2 273.8,340.2 275.8,340.6C278.0,340.9 280.4,342.3 281.7,343.8C283.8,346.3 284.2,346.4 287.2,345.2C290.3,344.1 290.6,344.2 292.3,346.5C293.5,348.1 295.1,349.0 296.8,349.0C298.2,349.0 300.4,348.1 301.6,346.9C302.8,345.7 304.3,345.1 304.9,345.4C305.4,345.8 305.7,346.7 305.3,347.5C305.0,348.4 305.3,349.7 306.0,350.5C306.7,351.3 308.1,352.0 309.1,352.0C310.2,352.0 313.3,350.4 316.1,348.4C320.0,345.7 320.9,345.4 320.0,346.9C319.2,348.4 319.2,349.6 320.0,351.0C320.7,352.2 322.1,353.0 323.8,353.0zM380.6,353.0C381.8,353.0 383.1,352.3 383.4,351.4C383.7,350.5 384.0,348.9 384.0,347.8C384.0,346.0 383.6,345.9 378.8,346.5C375.9,346.9 373.3,347.4 373.0,347.7C372.7,348.0 373.9,349.3 375.5,350.6C377.1,351.9 379.5,353.0 380.6,353.0zM270.7,352.0C271.4,352.0 272.3,351.3 272.7,350.4C273.0,349.6 272.3,347.9 271.0,346.4C269.7,345.1 268.1,344.0 267.3,344.0C266.6,344.0 266.0,345.0 266.0,346.2C266.0,347.4 266.7,349.2 267.7,350.2C268.6,351.2 269.9,352.0 270.7,352.0zM550.3,351.9C562.7,352.0 568.3,351.5 576.3,349.9C581.9,348.7 591.8,346.0 598.4,343.9C604.9,341.8 616.7,336.9 624.6,333.1C632.5,329.3 639.0,325.7 639.0,325.3C639.0,324.8 637.5,323.3 635.8,322.0C634.0,320.7 627.8,315.4 622.0,310.3C616.2,305.2 607.2,297.8 601.8,293.8C596.5,289.8 588.6,284.3 584.3,281.7C579.9,279.1 572.8,275.4 568.4,273.5C564.1,271.6 556.0,268.9 550.5,267.5C545.0,266.1 534.8,264.4 527.8,263.8C518.3,262.9 513.1,262.9 506.6,263.8C501.9,264.4 496.0,265.8 493.6,266.8C491.3,267.9 488.3,269.8 487.2,271.1C486.0,272.3 485.0,273.7 485.0,274.1C485.0,274.6 486.8,274.3 489.1,273.5C491.3,272.7 495.2,271.9 497.8,271.8C500.4,271.7 504.6,271.7 507.2,271.8C509.9,271.9 512.0,272.4 512.0,272.8C512.0,273.3 509.0,275.0 505.3,276.5C501.7,278.1 495.4,281.8 491.3,284.9C486.8,288.3 484.0,291.0 484.2,291.9C484.4,292.8 485.6,293.7 487.0,293.8C488.4,294.0 489.9,294.5 490.3,294.9C490.7,295.4 488.8,296.6 485.9,297.6C483.0,298.6 480.5,300.0 480.3,300.6C480.1,301.3 482.6,301.9 487.4,302.3C491.5,302.6 495.7,303.3 496.7,303.8C498.1,304.7 497.7,305.0 494.2,305.9C492.0,306.5 489.8,307.5 489.5,308.0C489.2,308.5 489.4,309.1 490.0,309.5C490.5,309.8 491.0,310.5 491.0,311.0C491.0,311.5 487.6,311.8 483.4,311.7C477.0,311.5 475.6,311.8 474.6,313.3C473.7,314.8 474.0,315.5 476.5,317.6C479.5,320.1 479.5,320.1 476.6,319.0C475.0,318.4 473.0,318.2 472.3,318.5C471.5,318.7 471.0,320.0 471.2,321.2C471.4,322.5 473.7,324.8 477.0,327.0C480.0,329.1 487.9,333.7 494.5,337.4C501.1,341.0 509.0,345.0 512.0,346.1C515.0,347.3 521.3,349.0 526.0,350.0C532.1,351.3 539.0,351.9 550.3,351.9zM393.4,337.5C395.6,337.2 398.0,336.4 398.8,335.8C399.9,334.9 399.9,334.5 398.7,333.3C398.0,332.6 395.1,331.7 392.2,331.3C387.9,330.8 386.9,331.0 386.4,332.4C386.0,333.4 386.5,334.9 387.6,336.1C389.1,337.8 390.2,338.1 393.4,337.5zM260.4,336.2C263.1,335.9 264.0,335.3 263.8,334.2C263.6,333.4 261.8,332.1 259.6,331.4C257.5,330.6 255.4,330.3 254.9,330.6C254.4,330.9 254.0,331.7 254.0,332.5C254.0,333.2 254.6,334.5 255.4,335.2C256.3,336.1 258.1,336.5 260.4,336.2zM416.7,336.0C417.3,336.0 418.2,335.5 418.6,334.9C418.9,334.3 417.9,332.4 416.2,330.8C414.2,328.8 412.6,327.9 411.5,328.4C410.5,328.7 410.0,329.8 410.2,331.2C410.4,332.4 411.6,334.0 413.0,334.7C414.4,335.4 416.0,336.0 416.7,336.0zM150.1,330.9C154.9,331.0 159.6,330.1 166.6,328.0C172.1,326.3 183.9,323.6 193.0,321.9C202.1,320.2 215.0,318.6 221.8,318.3C230.0,317.9 233.9,317.3 233.7,316.6C233.5,316.0 232.0,314.7 230.3,313.7C228.6,312.8 223.5,311.0 218.9,309.9C214.3,308.7 210.1,307.4 209.6,307.0C209.2,306.5 209.8,305.6 211.0,305.0C212.3,304.3 218.3,303.5 224.4,303.1C235.5,302.4 235.5,302.4 230.8,300.2C228.2,298.9 222.7,297.1 218.7,296.0C214.6,295.0 205.3,293.4 197.9,292.5C190.5,291.6 183.4,290.5 182.0,290.1C179.7,289.3 179.8,289.2 184.0,288.0C187.3,287.1 194.2,286.9 209.1,287.3C220.4,287.5 230.9,287.5 232.4,287.3C233.8,287.0 235.0,286.2 235.0,285.4C235.0,284.7 233.5,283.3 231.8,282.4C230.0,281.5 226.9,279.6 225.0,278.1C221.5,275.5 221.5,275.5 229.5,275.0C235.7,274.6 237.5,274.2 237.5,273.0C237.5,272.2 235.0,270.3 232.0,268.8C229.0,267.3 226.6,265.6 226.7,265.0C226.9,264.5 225.3,262.9 223.2,261.5C221.2,260.2 217.0,258.2 213.9,257.1C210.7,256.1 204.8,254.6 200.6,253.9C196.1,253.2 188.7,252.9 182.7,253.2C174.1,253.7 171.0,254.3 163.0,257.4C157.8,259.5 150.1,262.4 145.8,264.0C141.6,265.6 131.5,268.3 123.3,270.0C115.2,271.7 107.7,273.3 106.8,273.6C105.8,273.9 105.0,274.6 105.0,275.1C105.0,275.6 107.1,277.4 109.7,279.0C112.3,280.7 115.2,282.0 116.3,282.0C117.3,282.0 120.1,280.8 122.6,279.4C125.0,278.0 129.0,276.2 131.5,275.4C134.0,274.7 136.0,274.5 136.0,274.9C136.0,275.4 133.0,278.2 129.2,281.2C125.5,284.2 119.6,288.9 116.0,291.7C112.4,294.5 106.3,300.1 102.4,304.2C98.5,308.2 94.1,313.4 92.6,315.7C91.1,318.0 90.1,320.3 90.4,320.8C90.7,321.3 93.3,322.0 96.2,322.4C99.1,322.8 105.3,324.0 110.0,325.1C114.7,326.2 124.1,327.9 131.0,328.9C137.9,330.0 146.5,330.9 150.1,330.9zM328.8,327.9C322.2,327.9 315.6,327.2 310.6,325.9C306.2,324.8 299.8,322.5 296.2,320.8C292.7,319.1 287.6,315.7 284.9,313.2C282.0,310.6 278.8,306.4 277.0,302.6C275.3,299.2 273.3,292.8 272.5,288.4C271.7,284.1 271.1,277.3 271.0,273.3C271.0,269.4 271.7,262.6 272.5,258.3C273.4,253.9 275.7,246.9 278.0,242.1C280.3,237.5 284.1,230.6 286.6,226.9C289.1,223.1 295.1,216.3 300.1,211.7C305.0,207.1 311.8,201.7 315.3,199.7C318.7,197.6 325.0,194.8 329.3,193.5C333.6,192.1 341.0,190.6 345.8,190.0C351.8,189.3 357.7,189.3 365.0,190.1C371.7,190.8 379.5,192.5 386.3,194.7C392.3,196.6 397.4,198.0 397.6,197.7C397.9,197.5 399.4,198.5 401.1,199.9C402.8,201.3 406.4,204.5 409.2,207.0C412.0,209.5 415.5,213.9 417.0,217.0C418.5,220.0 420.6,225.8 421.5,229.9C423.0,236.1 423.2,238.6 422.3,245.9C421.6,251.8 420.0,257.8 417.1,265.2C414.8,271.0 411.1,278.7 408.8,282.2C406.6,285.6 402.3,291.5 399.4,295.2C396.4,298.9 390.9,304.4 387.2,307.3C383.5,310.2 377.8,314.2 374.5,316.2C371.2,318.2 365.3,320.9 361.4,322.3C357.5,323.7 350.8,325.6 346.7,326.4C342.4,327.3 334.5,328.0 328.8,327.9zM253.6,327.0C254.2,327.0 255.0,326.1 255.3,325.0C255.6,323.9 255.1,322.1 254.2,321.1C253.2,320.0 251.6,319.0 250.5,318.8C249.0,318.6 248.4,319.1 248.2,321.2C248.0,323.0 248.6,324.3 250.2,325.4C251.4,326.3 253.0,327.0 253.6,327.0zM622.3,322.9C620.2,322.8 614.7,322.2 610.0,321.5C605.3,320.7 594.1,318.6 585.0,316.6C575.9,314.7 564.8,312.0 560.3,310.5C555.8,309.1 551.8,307.5 551.5,307.0C551.1,306.4 553.6,306.0 557.7,306.0C561.4,306.0 570.0,306.9 576.6,308.0C583.3,309.1 594.8,311.5 602.1,313.4C609.5,315.3 617.6,317.7 620.1,318.8C622.7,319.9 625.1,321.3 625.4,321.9C625.9,322.6 624.8,323.0 622.3,322.9zM400.8,320.0C400.0,320.0 399.0,318.7 398.4,317.2C397.5,314.7 397.6,314.1 399.1,313.2C400.1,312.5 402.0,312.0 403.2,312.0C404.5,312.0 406.1,312.4 406.9,312.9C407.9,313.6 408.0,314.2 407.1,315.8C406.5,317.0 405.1,318.4 404.0,319.0C403.0,319.5 401.5,320.0 400.8,320.0zM445.6,303.0C446.4,303.0 447.0,302.4 447.0,301.6C447.0,300.8 445.7,299.2 444.1,298.1C442.5,296.9 440.7,296.0 440.1,296.0C439.5,296.0 439.0,296.6 439.0,297.4C439.0,298.2 440.2,299.8 441.6,300.9C443.1,302.1 444.9,303.0 445.6,303.0zM127.2,299.5C124.3,300.0 123.0,299.8 123.0,299.0C123.0,298.4 124.5,297.3 126.2,296.6C128.0,295.9 131.4,295.0 133.8,294.6C136.5,294.2 138.0,294.4 138.0,295.0C138.0,295.6 136.5,296.7 134.8,297.4C133.0,298.2 129.6,299.1 127.2,299.5zM252.4,298.0C250.7,298.0 250.0,297.4 250.0,296.1C250.0,295.1 250.7,293.9 251.6,293.6C252.5,293.3 253.5,293.0 253.8,293.0C254.2,293.0 255.1,293.4 255.9,293.9C257.1,294.7 257.1,295.1 256.1,296.4C255.3,297.3 253.7,298.0 252.4,298.0zM437.8,293.9C438.4,294.0 439.0,293.8 439.0,293.6C439.0,293.4 438.3,291.6 437.5,289.6C436.5,287.3 435.3,286.0 434.1,286.0C433.1,286.0 431.8,287.1 431.2,288.5C430.1,290.8 430.3,291.1 433.3,292.4C435.0,293.2 437.1,293.9 437.8,293.9zM451.5,287.0C455.2,287.0 456.0,286.7 456.0,285.1C456.0,284.0 455.1,283.0 453.8,282.6C452.5,282.3 450.5,282.0 449.3,282.0C448.1,282.0 446.8,282.5 446.5,283.0C446.1,283.6 446.1,284.7 446.4,285.5C446.8,286.5 448.4,287.0 451.5,287.0zM334.2,279.9C334.7,280.0 335.0,279.2 335.0,278.2C335.0,277.1 334.1,275.5 333.0,274.5C331.9,273.5 331.0,272.1 331.0,271.5C331.0,270.8 330.3,269.7 329.4,269.0C328.2,267.9 327.6,268.0 326.3,269.3C324.9,270.7 325.1,271.2 329.1,275.4C331.5,277.9 333.8,279.9 334.2,279.9zM442.5,280.0C444.3,280.0 446.3,279.3 447.1,278.4C448.0,277.3 448.1,276.4 447.3,275.2C446.8,274.2 445.1,273.4 443.7,273.2C441.7,272.9 440.8,273.5 439.6,275.8C438.8,277.4 438.4,279.0 438.7,279.4C439.1,279.7 440.8,280.0 442.5,280.0zM318.5,275.0C319.3,275.0 320.4,274.1 321.0,272.9C321.9,271.4 321.8,270.5 320.9,269.4C320.3,268.6 319.0,268.0 318.0,268.0C317.0,268.0 315.9,268.7 315.6,269.6C315.3,270.4 315.5,272.0 316.0,273.1C316.6,274.1 317.7,275.0 318.5,275.0zM588.0,275.0C589.4,275.0 593.2,274.3 596.4,273.5C599.6,272.7 605.6,270.5 609.8,268.8C614.0,267.1 621.4,262.9 626.4,259.6C631.8,256.0 639.8,249.1 646.7,242.2C652.9,235.9 659.0,229.5 660.1,227.9C661.6,225.7 661.8,224.9 660.8,224.6C660.1,224.4 649.7,221.9 637.7,219.0C625.7,216.2 612.2,213.2 607.7,212.4C603.2,211.6 592.0,210.6 582.9,210.3C572.9,209.9 562.0,210.2 555.2,210.9C549.0,211.5 540.1,213.2 535.3,214.6C530.5,216.0 522.8,219.1 518.1,221.5C513.4,224.0 507.1,228.0 504.2,230.6C501.3,233.1 498.5,236.1 497.9,237.1C497.0,238.9 497.2,239.0 499.6,238.4C502.2,237.7 502.2,237.8 498.0,243.8C495.6,247.2 493.9,250.2 494.2,250.5C494.5,250.8 497.6,249.3 500.9,247.1C504.3,244.9 509.3,242.4 512.0,241.5C514.7,240.6 517.9,240.0 519.2,240.2C521.0,240.5 520.5,241.2 515.4,244.9C512.2,247.3 508.0,250.7 506.2,252.3C504.5,254.0 503.0,255.8 503.0,256.2C503.0,256.6 507.2,257.0 512.3,257.0C517.4,257.0 525.4,257.5 530.0,258.1C534.7,258.6 541.8,259.8 545.7,260.6C549.7,261.4 556.3,263.2 560.4,264.5C564.5,265.9 571.9,268.7 576.7,270.9C581.5,273.2 586.6,275.0 588.0,275.0zM306.2,271.4C308.6,271.4 310.8,271.2 311.2,271.1C311.7,271.1 312.0,270.4 312.0,269.7C312.0,269.0 311.5,267.9 310.8,267.2C310.0,266.4 309.1,266.4 307.7,267.2C306.0,268.0 305.4,267.8 303.9,265.9C302.2,263.7 302.0,263.6 300.4,265.1C298.9,266.6 298.9,267.0 300.4,269.2C301.7,271.2 302.7,271.6 306.2,271.4zM344.0,271.8C344.8,271.6 345.5,270.6 345.5,269.5C345.5,268.2 344.7,267.4 343.1,267.2C341.8,267.0 340.3,267.3 339.6,268.0C338.8,268.8 339.0,269.5 340.5,270.6C341.6,271.4 343.1,271.9 344.0,271.8zM457.6,271.0C460.7,271.0 463.0,270.6 463.0,269.9C463.0,269.4 460.4,267.8 457.2,266.4C454.1,265.0 450.8,263.5 450.0,262.9C449.2,262.4 447.9,261.7 447.2,261.4C446.5,261.0 445.7,261.0 445.3,261.3C445.0,261.6 446.5,263.9 448.5,266.4C452.1,270.8 452.4,271.0 457.6,271.0zM255.1,270.0C254.7,270.0 254.0,269.7 253.7,269.3C253.3,268.9 254.2,267.4 255.7,265.8C257.2,264.3 259.4,263.0 260.6,263.0C261.8,263.0 263.5,263.3 264.4,263.6C265.3,263.9 266.0,264.8 266.0,265.6C266.0,266.6 264.7,267.0 261.5,267.0C258.4,267.0 256.8,267.5 256.4,268.5C256.0,269.3 255.5,270.0 255.1,270.0zM292.5,269.0C293.8,269.0 295.3,268.4 295.9,267.6C296.8,266.5 296.6,265.6 294.7,263.6C293.1,261.9 291.6,261.2 290.6,261.6C289.7,262.0 289.0,263.3 289.0,264.9C289.0,266.4 289.3,268.0 289.7,268.3C290.0,268.7 291.3,269.0 292.5,269.0zM363.1,268.0C364.1,268.0 365.0,267.3 365.0,266.5C365.0,265.6 363.5,264.3 361.8,263.5C359.6,262.6 358.2,262.5 357.5,263.1C356.8,263.8 357.3,264.8 358.9,266.1C360.2,267.1 362.1,268.0 363.1,268.0zM316.6,263.0C318.4,261.2 319.8,261.0 325.1,261.2C328.6,261.4 332.1,261.9 332.8,262.4C333.5,262.8 334.8,262.9 335.6,262.6C336.8,262.1 336.9,261.6 336.0,259.9C335.3,258.8 335.1,257.6 335.4,257.3C335.7,256.9 337.0,257.2 338.2,257.8C339.5,258.5 341.2,259.5 342.1,260.2C343.0,260.8 344.5,261.0 345.4,260.7C346.3,260.3 347.0,259.2 347.0,258.1C347.0,257.0 346.1,255.9 345.0,255.5C343.9,255.2 342.3,254.2 341.5,253.4C340.7,252.5 340.0,251.5 340.0,251.0C340.0,250.6 341.4,249.7 343.0,249.0C345.9,247.8 346.3,247.9 349.0,250.5C350.6,252.1 352.3,252.9 353.0,252.5C353.8,252.0 354.0,250.4 353.6,248.0C353.3,246.0 353.3,244.0 353.6,243.7C353.9,243.4 356.1,243.9 358.6,244.8C361.0,245.7 363.2,246.1 363.6,245.8C363.9,245.4 363.4,243.1 362.4,240.6C361.3,238.1 360.2,236.0 359.8,236.0C359.3,236.0 359.0,235.6 359.0,235.1C359.0,234.7 360.8,234.6 363.0,235.0C365.3,235.4 367.3,236.0 367.6,236.3C367.9,236.6 368.9,238.3 369.8,240.2C370.8,242.1 372.4,243.6 373.7,243.8C374.9,244.0 376.4,244.8 377.0,245.6C377.7,246.4 378.6,247.0 379.1,247.0C379.6,247.0 380.0,246.3 380.0,245.5C380.0,244.6 378.5,242.4 376.8,240.6C375.0,238.8 372.5,236.8 371.2,236.1C369.7,235.3 369.0,234.0 369.0,232.0C369.0,230.3 368.3,228.7 367.3,228.1C366.3,227.6 365.8,226.9 366.0,226.6C366.3,226.3 368.1,226.6 370.1,227.3C372.0,228.0 374.8,229.5 376.4,230.8C378.0,232.0 379.6,233.0 380.1,233.0C380.5,233.0 381.2,232.5 381.5,231.9C381.9,231.4 381.9,229.9 381.6,228.7C381.3,227.5 380.2,226.1 379.2,225.5C378.2,224.9 375.7,223.4 373.7,222.2C371.4,220.7 370.0,219.0 370.0,217.8C370.0,216.1 370.5,215.8 373.0,216.3C374.6,216.7 377.1,217.7 378.5,218.6C379.9,219.5 381.0,221.1 381.0,222.1C381.0,223.2 381.7,224.0 382.5,224.0C383.3,224.0 384.0,223.4 384.1,222.8C384.2,222.1 384.1,220.5 384.0,219.2C383.9,217.4 384.4,217.0 386.8,217.0C388.9,217.0 390.0,216.3 390.8,214.5C391.8,212.3 392.3,212.2 394.5,213.0C396.0,213.6 397.6,214.0 398.2,214.0C398.8,214.0 398.5,213.0 397.4,211.9C396.4,210.7 393.6,208.5 391.3,206.9C389.0,205.3 383.0,202.6 377.8,200.8C368.9,197.7 367.9,197.5 353.5,197.5C339.5,197.6 338.0,197.7 331.0,200.4C326.9,202.0 320.4,205.1 316.5,207.3C312.6,209.5 306.5,214.4 302.9,218.1C299.2,221.8 294.2,228.4 291.6,232.7C289.0,237.0 285.8,244.0 284.5,248.3C283.1,252.6 282.3,256.6 282.6,257.1C283.0,257.7 284.0,257.4 285.1,256.4C286.4,255.2 287.7,255.0 289.7,255.5C291.2,255.8 294.2,256.4 296.3,256.7C299.1,257.1 300.4,257.9 301.3,259.7C302.0,261.4 302.9,262.0 304.2,261.6C305.2,261.3 306.9,260.7 307.9,260.4C309.2,260.0 310.6,260.6 312.1,262.4C314.4,265.0 314.4,265.0 316.6,263.0zM356.0,261.0C356.4,261.0 357.1,260.3 357.4,259.4C357.7,258.5 358.0,257.2 358.0,256.4C358.0,255.7 356.9,254.8 355.6,254.4C354.2,254.1 352.6,254.1 352.0,254.5C351.3,254.9 351.7,256.1 353.0,258.1C354.2,259.7 355.5,261.0 356.0,261.0zM241.2,257.9C242.2,258.0 243.0,257.4 243.0,256.7C243.0,255.9 238.4,253.5 231.8,251.0C225.6,248.7 218.0,245.5 215.0,243.9C209.5,241.1 209.5,241.1 213.5,241.1C215.7,241.0 222.0,241.7 227.4,242.5C232.9,243.3 238.6,244.0 240.2,244.0C241.7,244.0 243.0,243.6 243.0,243.0C243.0,242.5 240.8,240.5 238.0,238.8C235.3,237.0 233.0,235.1 233.0,234.6C233.0,234.1 235.7,234.0 239.1,234.3C243.4,234.7 245.0,234.5 244.8,233.7C244.6,233.0 239.8,230.2 234.2,227.3C228.5,224.5 220.2,221.2 215.7,220.1C211.2,218.9 203.1,216.6 197.8,214.9C192.4,213.3 188.0,211.5 188.0,211.0C188.0,210.4 189.5,210.0 191.2,210.0C193.0,210.0 198.8,210.7 204.0,211.5C209.2,212.4 217.0,214.0 221.3,215.1C225.6,216.2 234.5,219.1 241.1,221.5C247.7,224.0 253.5,226.0 254.0,226.0C254.6,226.0 255.0,225.5 255.0,224.9C255.0,224.3 253.4,222.0 251.5,219.7C249.6,217.5 248.0,215.0 248.0,214.3C248.0,213.6 248.7,213.0 249.5,213.0C250.4,213.0 252.8,213.9 255.0,215.0C257.2,216.1 259.6,217.0 260.5,217.0C261.3,217.0 262.0,216.2 262.0,215.2C262.0,214.3 256.7,208.3 250.3,202.0C243.8,195.7 235.5,188.6 231.9,186.2C228.3,183.9 222.6,181.0 219.4,179.9C216.2,178.7 210.6,177.2 207.0,176.4C203.4,175.7 197.1,175.0 193.0,175.1C188.9,175.1 182.1,175.7 178.0,176.4C173.9,177.2 167.3,179.0 163.5,180.4C159.7,181.9 149.8,186.7 141.5,191.1C133.2,195.5 125.4,199.9 124.1,200.9C122.7,201.9 122.0,203.2 122.4,203.9C122.8,204.5 124.9,205.9 127.0,207.0C129.1,208.1 135.4,213.9 141.1,219.9C146.7,226.0 154.1,233.1 157.4,235.8C160.8,238.5 165.5,241.8 168.0,243.0C170.4,244.2 173.8,245.7 175.4,246.1C177.1,246.6 184.3,247.5 191.5,248.0C198.6,248.6 208.8,249.9 214.0,251.0C219.2,252.1 227.1,254.1 231.5,255.4C235.9,256.8 240.3,257.9 241.2,257.9zM369.4,256.9C369.8,257.0 369.9,255.8 369.5,254.2C369.2,252.7 368.0,250.6 366.9,249.5C365.1,247.6 364.9,247.6 363.3,249.3C361.6,251.0 361.6,251.2 364.0,253.1C365.4,254.1 366.9,255.4 367.5,255.9C368.1,256.5 368.9,256.9 369.4,256.9zM261.1,256.0C258.8,256.0 257.0,255.6 257.0,255.2C257.0,254.7 257.9,253.5 259.1,252.4C260.6,251.0 261.5,250.8 262.8,251.6C263.7,252.2 264.6,253.5 264.8,254.4C265.1,255.7 264.3,256.0 261.1,256.0zM266.6,246.0C264.8,246.0 263.0,245.7 262.7,245.3C262.3,245.0 262.7,243.8 263.7,242.8C264.6,241.8 266.1,241.0 267.0,241.0C267.9,241.0 269.1,241.5 269.7,242.1C270.3,242.7 270.6,243.9 270.3,244.6C270.0,245.4 268.4,246.0 266.6,246.0zM465.8,242.9C466.6,243.0 467.0,242.2 466.8,241.2C466.6,240.3 463.8,238.1 460.5,236.4C454.6,233.3 454.5,233.3 454.8,229.3C454.9,226.3 454.6,225.1 453.4,224.6C452.6,224.3 451.0,224.5 449.9,225.0C448.9,225.6 448.0,226.7 448.0,227.4C448.0,228.1 448.9,229.9 450.0,231.3C451.1,232.7 452.0,234.3 452.0,234.8C452.0,235.3 451.3,236.3 450.5,237.0C449.4,237.9 449.3,238.7 450.0,240.1C450.8,241.4 451.8,241.8 453.8,241.4C455.3,241.1 458.3,241.3 460.5,241.8C462.7,242.4 465.1,242.8 465.8,242.9zM605.0,234.4C602.0,234.6 595.3,234.4 590.1,233.9C584.9,233.5 580.2,232.6 579.7,232.1C579.0,231.4 579.3,230.8 580.6,230.3C581.6,229.9 588.7,229.5 596.2,229.5C605.8,229.5 610.3,229.9 611.2,230.8C612.0,231.6 612.1,232.3 611.4,233.0C610.9,233.5 608.0,234.1 605.0,234.4zM469.0,230.8C470.4,230.6 471.6,229.8 471.8,228.8C472.1,227.3 471.4,227.0 468.6,227.0C466.3,227.0 465.0,227.5 465.0,228.3C465.0,229.1 465.3,230.0 465.7,230.4C466.1,230.8 467.6,231.0 469.0,230.8zM493.2,229.4C493.9,228.9 496.5,227.1 498.9,225.2C501.4,223.4 507.0,220.0 511.4,217.8C515.9,215.5 522.6,212.6 526.5,211.3C530.4,210.0 540.0,207.8 547.9,206.5C558.7,204.7 563.2,203.4 565.9,201.6C567.9,200.3 573.0,196.2 577.2,192.4C581.5,188.6 588.0,182.1 591.6,178.0C595.2,173.9 600.1,167.8 602.5,164.5C604.9,161.2 609.3,154.3 612.3,149.2C615.4,144.1 618.2,139.1 618.5,138.0C619.0,136.4 618.4,136.1 613.3,135.4C610.1,134.9 598.0,134.5 586.5,134.5C566.1,134.5 565.3,134.6 557.0,137.4C552.3,138.9 545.1,142.0 541.0,144.1C536.7,146.3 527.9,152.6 520.5,158.8C513.4,164.8 503.9,173.5 499.6,178.1C495.2,182.7 490.4,188.3 488.8,190.4C487.3,192.6 486.2,194.5 486.4,194.7C486.6,194.9 489.8,193.8 493.5,192.1C500.1,189.1 500.1,189.1 496.5,193.8C494.5,196.4 491.6,200.5 490.0,202.9C488.3,205.4 487.2,207.5 487.4,207.8C487.7,208.0 495.1,202.8 503.9,196.1C512.7,189.5 521.8,183.1 524.1,182.0C526.3,180.8 528.6,180.0 529.2,180.2C529.7,180.4 528.3,182.5 526.0,184.8C523.7,187.1 518.3,191.6 514.1,194.7C509.9,197.9 503.2,203.7 499.1,207.7C495.0,211.7 491.8,215.2 492.1,215.4C492.4,215.7 495.7,214.8 499.5,213.4C506.5,210.9 506.5,210.9 502.9,214.7C501.0,216.8 497.7,220.9 495.7,223.8C493.7,226.6 492.0,229.3 492.0,229.6C492.0,229.9 492.6,229.8 493.2,229.4zM325.1,228.0C323.5,228.0 321.6,227.2 320.7,226.2C319.7,225.2 319.0,223.6 319.0,222.8C319.0,221.9 320.4,220.0 322.1,218.6C323.8,217.2 326.0,216.0 327.1,216.0C328.2,216.0 329.9,216.4 330.9,217.0C331.9,217.5 333.0,218.6 333.4,219.5C333.7,220.4 332.7,222.4 330.9,224.5C328.8,226.9 326.9,228.0 325.1,228.0zM393.9,227.8C394.8,227.6 395.6,226.6 395.8,225.6C396.0,224.6 395.6,223.4 394.8,222.9C394.1,222.4 392.9,222.0 392.2,222.0C391.5,222.0 390.7,222.7 390.4,223.5C390.0,224.3 390.3,225.7 391.0,226.6C391.7,227.4 393.0,227.9 393.9,227.8zM456.2,220.9C457.1,220.9 458.5,220.7 459.4,220.4C460.3,220.1 461.0,219.2 461.0,218.5C461.0,217.9 459.3,216.6 457.2,215.7C455.2,214.8 452.1,213.8 450.3,213.5C448.4,213.1 446.8,212.1 446.5,210.9C446.1,209.9 445.5,209.0 445.0,209.0C444.5,209.0 443.8,209.5 443.5,210.0C443.1,210.6 444.4,213.1 446.4,215.5C448.4,217.9 451.0,220.1 452.3,220.3C453.5,220.5 455.3,220.8 456.2,220.9zM283.4,217.0C282.6,217.0 281.7,216.3 281.3,215.5C281.0,214.6 281.6,213.0 282.5,212.0C283.5,210.9 284.9,210.0 285.5,210.0C286.2,210.0 287.0,210.6 287.3,211.4C287.6,212.1 287.2,213.7 286.4,214.9C285.6,216.0 284.2,217.0 283.4,217.0zM383.9,215.0C382.9,215.0 381.4,214.0 380.6,212.8C379.7,211.6 379.0,210.0 379.0,209.3C379.0,208.7 380.0,207.8 381.1,207.5C382.3,207.1 384.3,207.4 385.6,208.1C386.9,208.8 388.0,210.1 388.0,211.0C388.0,211.9 387.5,213.1 386.8,213.8C386.1,214.5 384.8,215.0 383.9,215.0zM295.4,207.6C294.9,207.7 293.9,207.6 293.2,207.3C292.6,207.1 292.0,206.2 292.0,205.5C292.0,204.8 293.1,203.5 294.5,202.6C296.9,201.0 297.1,201.0 297.7,202.6C298.0,203.5 297.9,205.0 297.3,205.8C296.8,206.7 295.9,207.5 295.4,207.6zM269.2,207.0C269.7,207.0 270.0,206.4 270.0,205.7C270.0,205.0 267.1,201.5 263.5,198.0C259.9,194.5 257.0,191.2 257.0,190.8C257.0,190.4 257.7,190.0 258.6,190.0C259.4,190.0 263.5,191.6 267.7,193.5C271.9,195.4 276.2,197.0 277.2,197.0C279.2,197.0 279.2,196.9 277.1,193.5C276.0,191.6 275.3,190.0 275.6,190.0C275.9,190.0 277.4,191.0 278.9,192.1C280.5,193.3 282.3,193.9 282.9,193.6C283.6,193.1 283.2,191.3 281.5,188.0C280.1,185.3 279.0,182.8 279.0,182.4C279.0,182.1 281.0,183.0 283.4,184.4C285.9,185.8 288.1,187.0 288.4,187.0C288.7,187.0 289.0,186.4 289.0,185.7C289.0,184.9 287.0,181.2 284.6,177.4C282.1,173.6 280.3,170.4 280.5,170.2C280.7,170.0 281.7,170.3 282.7,170.9C283.8,171.4 286.8,173.7 289.5,175.9C292.2,178.1 294.6,179.7 294.9,179.5C295.1,179.2 293.2,175.9 290.7,172.1C288.1,168.3 281.8,161.2 276.7,156.3C271.6,151.4 264.2,145.4 260.2,143.1C256.3,140.7 249.1,137.1 244.3,135.0C239.4,133.0 230.8,130.1 225.0,128.7C219.2,127.2 210.3,125.3 205.2,124.4C200.0,123.6 195.1,123.1 194.3,123.4C193.1,123.9 192.9,125.4 193.5,131.8C193.8,136.0 195.1,143.3 196.2,148.0C197.3,152.7 199.5,159.2 200.9,162.5C202.4,165.8 204.3,169.0 205.1,169.7C205.9,170.3 211.0,172.5 216.5,174.4C222.0,176.4 228.3,179.3 230.5,181.0C232.7,182.6 239.1,186.9 244.8,190.5C250.4,194.1 258.1,199.3 261.8,202.0C265.5,204.7 268.8,207.0 269.2,207.0zM460.2,206.9C461.2,207.0 462.0,206.6 462.0,206.1C462.0,205.6 461.4,204.8 460.8,204.3C460.1,203.7 457.7,202.7 455.5,202.0C453.3,201.3 450.3,200.1 448.9,199.2C447.4,198.4 445.5,198.0 444.6,198.3C443.7,198.7 442.7,199.7 442.4,200.5C442.0,201.4 442.5,202.9 443.5,204.0C444.7,205.3 446.0,205.7 448.3,205.3C450.1,205.0 453.1,205.3 455.0,205.8C456.9,206.4 459.3,206.9 460.2,206.9zM448.6,194.0C449.8,194.0 451.8,193.1 453.1,192.1C455.5,190.2 455.5,190.2 451.0,189.1C448.5,188.4 445.2,187.5 443.6,187.0C442.0,186.4 440.5,186.0 440.4,186.0C440.2,186.0 440.0,186.6 440.0,187.4C440.0,188.2 441.5,190.0 443.2,191.4C445.0,192.8 447.5,194.0 448.6,194.0zM392.6,192.0C391.9,192.0 391.0,191.7 390.7,191.3C390.3,191.0 390.0,190.3 390.0,189.9C390.0,189.4 391.1,188.3 392.6,187.4C394.1,186.3 395.5,186.1 396.0,186.6C396.6,187.2 396.4,188.4 395.4,189.8C394.6,191.0 393.3,192.0 392.6,192.0zM485.6,184.0C490.0,179.9 499.0,171.4 505.7,165.2C512.4,159.0 520.0,151.2 522.5,147.7C525.1,144.3 529.8,136.1 533.0,129.5C536.2,122.9 539.7,114.8 540.8,111.5C541.9,108.1 543.6,101.8 544.5,97.5C545.3,93.1 546.2,86.3 546.3,82.5C546.5,75.5 546.5,75.5 543.8,75.7C542.3,75.8 538.2,77.2 534.8,78.9C531.3,80.6 525.0,85.0 520.8,88.7C516.6,92.4 509.8,99.7 505.6,104.7C501.5,109.8 496.0,117.4 493.5,121.5C490.9,125.7 486.4,134.3 483.5,140.8C480.6,147.2 476.0,157.1 473.2,162.8C470.4,168.5 467.8,175.1 467.4,177.6C467.1,180.1 467.0,182.3 467.2,182.6C467.5,182.8 468.9,180.7 470.3,177.8C471.8,174.9 474.3,170.9 475.9,169.0C478.9,165.5 478.9,165.5 478.3,170.8C478.0,173.6 478.0,176.0 478.4,176.0C478.8,176.0 480.6,174.9 482.3,173.6C484.1,172.4 486.2,170.9 487.0,170.4C488.1,169.8 488.0,170.4 486.6,172.5C485.5,174.2 483.4,177.5 481.8,180.0C480.3,182.5 478.7,186.1 478.4,188.0C477.7,191.5 477.7,191.5 485.6,184.0zM439.4,185.0C440.2,185.0 441.8,184.1 443.1,183.1C445.5,181.2 445.5,181.2 441.0,179.2C438.5,178.2 434.8,176.8 432.8,176.1C430.7,175.4 428.5,175.2 427.9,175.6C427.1,176.0 428.0,177.0 430.2,178.4C432.0,179.6 434.6,181.5 435.8,182.8C437.0,184.0 438.6,185.0 439.4,185.0zM349.0,184.0C347.0,184.0 346.0,183.5 346.0,182.5C346.0,181.7 346.9,180.1 348.0,179.0C349.1,177.9 350.9,177.0 352.0,177.0C353.1,177.0 354.0,177.7 354.0,178.6C354.0,179.4 353.5,181.0 353.0,182.1C352.3,183.3 350.9,184.0 349.0,184.0zM362.2,183.8C360.6,184.1 360.0,183.6 360.0,182.1C360.0,181.0 360.7,179.4 361.6,178.5C362.7,177.5 363.6,177.2 364.2,177.8C364.7,178.3 365.0,179.8 364.8,181.1C364.6,182.7 363.7,183.6 362.2,183.8zM304.5,175.5C305.1,175.4 305.4,173.9 305.2,172.1C305.1,170.4 305.4,169.0 305.8,169.0C306.3,169.0 307.7,170.1 309.0,171.5C310.3,172.9 312.2,174.0 313.2,174.0C314.2,174.0 315.3,173.4 315.6,172.6C315.9,171.8 315.4,168.8 314.6,165.9C313.7,163.0 313.0,160.5 313.0,160.3C313.0,160.1 313.4,160.0 314.0,160.0C314.5,160.0 316.8,161.6 319.0,163.6C321.2,165.6 323.3,167.0 323.7,166.7C324.0,166.3 322.8,163.7 321.0,160.8C319.1,157.9 316.3,153.1 314.8,150.1C313.3,147.1 312.0,143.8 312.0,142.6C312.0,141.0 313.2,141.8 318.3,146.8C321.7,150.2 324.8,153.0 325.2,153.0C325.5,153.0 325.4,151.1 324.9,148.9C324.3,146.6 324.1,144.2 324.3,143.6C324.6,143.0 326.8,146.8 329.3,152.1C331.8,157.4 334.4,162.1 335.0,162.5C335.7,162.9 336.6,162.6 337.1,161.9C337.6,161.1 338.0,159.4 338.0,158.0C338.0,155.5 338.0,155.5 340.6,158.8C342.0,160.5 343.7,162.0 344.5,162.0C345.2,162.0 346.0,161.4 346.3,160.8C346.5,160.1 346.5,157.1 346.2,154.2C345.9,151.4 346.1,149.0 346.5,149.0C346.9,149.0 348.9,150.9 351.0,153.2C353.1,155.6 355.1,157.2 355.4,156.9C355.8,156.5 355.1,151.6 353.9,145.9C352.1,137.5 351.7,132.1 351.6,118.0C351.6,107.2 352.1,98.3 352.9,94.7C354.1,89.4 354.0,88.7 352.0,85.5C350.8,83.6 345.8,78.2 340.8,73.6C335.9,68.9 328.1,62.5 323.6,59.5C318.5,56.0 314.8,54.1 313.8,54.5C312.9,54.9 310.6,58.6 308.7,62.8C306.8,67.0 304.4,73.2 303.3,76.5C301.9,81.2 301.5,85.7 301.5,97.2C301.5,105.4 301.4,112.0 301.2,112.0C301.0,112.0 297.5,109.0 293.5,105.2C289.5,101.5 283.7,96.9 280.5,95.0C277.3,93.1 270.5,90.1 265.3,88.3C260.1,86.5 255.0,85.0 254.0,85.0C253.0,85.0 251.9,85.7 251.6,86.6C251.3,87.5 251.0,91.2 251.0,94.9C251.0,98.5 251.5,105.4 252.0,110.0C252.6,114.7 254.0,121.6 255.1,125.4C256.2,129.2 257.9,133.4 258.7,134.7C259.6,136.1 264.6,140.3 269.9,144.2C275.2,148.1 284.9,156.8 291.5,163.5C298.1,170.2 303.9,175.6 304.5,175.5zM424.3,174.9C425.7,175.0 425.8,174.7 424.8,173.1C424.2,172.1 422.4,170.5 420.9,169.6C419.4,168.7 417.1,168.0 415.7,168.0C414.3,168.0 412.2,168.9 410.9,170.0C408.5,171.9 408.5,171.9 411.5,172.0C413.1,172.1 416.3,172.7 418.5,173.5C420.7,174.2 423.3,174.8 424.3,174.9zM445.9,169.4C446.4,168.9 447.5,165.3 448.3,161.3C449.2,157.3 451.1,151.8 452.4,149.1C453.8,146.4 455.5,143.8 456.1,143.4C457.0,142.9 457.1,143.9 456.6,147.6C456.2,150.3 455.7,156.0 455.3,160.2C455.0,164.5 455.0,168.0 455.3,168.0C455.6,168.0 457.9,164.8 460.4,161.0C462.9,157.2 465.2,154.0 465.4,154.0C465.7,154.0 465.6,155.7 465.4,157.8C464.9,161.5 464.9,161.5 467.4,158.5C468.8,156.8 473.8,147.7 478.5,138.1C483.2,128.6 489.7,116.9 492.8,112.2C495.9,107.5 503.4,98.4 509.3,92.1C520.1,80.5 520.1,80.5 519.5,66.5C519.1,58.8 518.6,51.7 518.4,50.8C518.1,49.7 516.9,49.0 515.2,49.0C513.8,49.0 509.2,50.0 505.1,51.1C500.9,52.3 494.0,55.0 489.7,57.1C485.4,59.3 480.0,62.3 477.7,63.9C475.4,65.5 470.1,70.1 465.9,74.2C461.8,78.3 455.4,85.6 451.8,90.5C448.1,95.3 442.7,104.1 439.7,109.9C436.7,115.7 433.3,123.4 432.1,127.0C431.0,130.6 429.6,137.0 429.0,141.4C428.5,145.7 428.3,151.7 428.6,154.6C429.0,157.6 429.9,160.8 430.6,161.7C431.7,163.4 431.9,163.3 432.4,161.0C432.7,159.6 433.3,156.2 433.8,153.5C434.3,150.8 434.9,149.2 435.2,150.0C435.5,150.8 436.5,153.6 437.4,156.1C438.3,158.6 440.4,162.8 442.1,165.5C443.8,168.1 445.5,169.9 445.9,169.4zM576.5,163.0C576.2,163.0 576.8,161.7 577.9,160.2C579.0,158.6 582.3,155.4 585.3,153.2C588.3,150.9 592.1,148.5 593.9,147.9C595.7,147.3 597.3,147.0 597.6,147.3C597.9,147.6 596.0,149.9 593.4,152.4C590.8,154.9 586.0,158.3 582.9,160.0C579.8,161.6 576.9,163.0 576.5,163.0zM377.6,157.9C378.5,157.1 379.0,155.2 378.8,152.6C378.7,150.3 378.7,146.6 378.8,144.2C378.9,141.9 379.4,140.0 379.8,140.0C380.3,140.0 381.9,142.7 383.5,145.9C385.0,149.2 387.4,153.0 388.7,154.4C390.0,155.8 391.3,157.0 391.6,157.0C391.9,157.0 391.8,147.9 391.4,136.8C391.0,123.2 391.2,112.8 392.0,105.2C392.6,99.0 394.0,90.9 395.1,87.3C396.1,83.6 397.5,80.2 398.1,79.6C398.8,78.8 398.9,80.6 398.4,86.0C397.9,90.1 397.6,102.9 397.6,114.5C397.6,127.6 398.1,137.8 398.9,141.5C399.6,144.8 400.6,149.0 401.1,150.8C401.7,152.5 402.6,154.0 403.0,154.0C403.5,154.0 404.4,152.1 405.0,149.8C405.6,147.4 406.3,144.8 406.6,144.0C406.9,143.2 408.3,146.1 409.8,150.5C411.7,156.0 413.1,158.6 414.2,158.8C415.5,159.1 416.0,158.5 416.0,156.6C416.0,155.3 416.7,153.4 417.6,152.5C418.5,151.7 421.0,144.8 423.1,137.3C425.3,129.9 428.8,119.9 431.0,115.3C433.2,110.6 437.2,102.9 440.0,98.0C442.7,93.2 445.0,88.1 445.0,86.8C445.0,85.4 443.9,79.8 442.5,74.4C441.2,68.9 438.0,60.5 435.6,55.5C433.1,50.5 429.0,43.8 426.5,40.5C424.0,37.2 418.6,30.8 414.4,26.3C410.3,21.7 406.2,18.0 405.4,18.0C404.7,18.0 399.3,22.6 393.5,28.2C387.7,33.8 380.9,41.1 378.3,44.4C375.8,47.8 372.1,53.9 370.0,58.0C367.9,62.2 365.3,68.4 364.1,71.9C363.0,75.3 360.9,83.8 359.4,90.8C357.5,100.3 356.8,106.4 356.8,115.0C356.8,121.8 357.5,129.8 358.5,134.4C359.4,138.8 361.0,144.7 362.1,147.7C363.2,150.6 364.5,153.0 365.0,153.0C365.5,153.0 366.0,150.9 366.2,148.2C366.5,143.5 366.5,143.5 368.9,148.0C370.2,150.5 372.3,154.0 373.7,155.8C375.7,158.5 376.4,158.9 377.6,157.9z" />

</svg>