<?xml version="1.0" encoding="UTF-8" standalone="no"?>
<svg 
  version="1.1" 
  xmlns="http://www.w3.org/2000/svg" 
  xmlns:xlink="http://www.w3.org/1999/xlink" 
  xmlns:svg="http://www.w3.org/2000/svg"
  xmlns:rdf="http://www.w3.org/1999/02/22-rdf-syntax-ns#"
  xmlns:cc="http://creativecommons.org/ns#"
  xmlns:dc="http://purl.org/dc/elements/1.1/"
  viewBox="0 0 768 768"
  width="768"
  height="768"
>
<style>svg {background-color: white; }</style>"
<metadata id="metadata1">
Created by https://svgstud.io and licensed under CC-BY-SA 4.0 license. Please attribute https://svgstud.io
</metadata>
<metadata id="prompt">
turtle shell, vector illustration, monochrome, extremely minimalistic
</metadata>
<metadata id="version">
7
</metadata>
<metadata id="metadata2">
<rdf:RDF>
<cc:Work
    rdf:about="">
    <cc:license
    rdf:resource="http://creativecommons.org/licenses/by-sa/4.0/" />
    <dc:creator>
        <cc:Agent>
            <dc:title>https://svgstud.io</dc:title>
        </cc:Agent>
    </dc:creator>
</cc:Work>
<cc:License
    rdf:about="http://creativecommons.org/licenses/by-sa/4.0/">
    <cc:permits
    rdf:resource="http://creativecommons.org/ns#Reproduction" />
    <cc:permits
    rdf:resource="http://creativecommons.org/ns#Distribution" />
    <cc:requires
    rdf:resource="http://creativecommons.org/ns#Notice" />
    <cc:requires
    rdf:resource="http://creativecommons.org/ns#Attribution" />
    <cc:permits
    rdf:resource="http://creativecommons.org/ns#DerivativeWorks" />
    <cc:requires
    rdf:resource="http://creativecommons.org/ns#ShareAlike" />
</cc:License>
</rdf:RDF>
</metadata>
<metadata id="uid">
62a0e7faf80f8c063b63a1b009b31c09d98e60fbde732da70fab02dae7cdfae9
</metadata>
<path stroke="none" fill="black" fill-rule="evenodd" d="M408.20,736.95C406.72,736.92 403.48,735.95 401.00,734.78C398.26,733.49 392.19,728.34 385.45,721.58C379.37,715.49 371.70,706.90 368.39,702.50C365.08,698.10 360.30,691.12 357.76,687.00C355.05,682.61 352.20,676.18 350.87,671.50C349.62,667.10 348.22,662.98 347.76,662.34C347.29,661.71 343.22,659.72 338.71,657.93C334.19,656.14 328.25,653.57 325.50,652.22C322.75,650.87 316.68,646.92 312.00,643.44C307.32,639.97 300.36,633.94 296.53,630.06C292.69,626.18 288.79,623.00 287.85,623.00C286.81,623.00 285.76,624.26 285.13,626.25C284.56,628.04 283.36,632.42 282.46,636.00C281.56,639.58 279.36,645.65 277.56,649.50C275.77,653.35 272.16,659.32 269.55,662.77C266.91,666.26 260.23,672.70 254.51,677.29C248.85,681.82 240.23,687.62 235.36,690.17C230.49,692.72 222.90,695.93 218.50,697.30C214.10,698.67 207.09,700.34 202.92,701.01C198.75,701.67 189.87,702.06 183.20,701.86C173.19,701.56 170.76,701.19 169.29,699.71C167.57,697.99 167.59,697.77 169.79,694.21C171.05,692.17 173.47,687.58 175.16,684.01C176.85,680.44 180.40,668.74 183.05,658.01C185.70,647.28 189.22,634.81 190.88,630.31C192.55,625.81 195.11,619.73 196.57,616.81C198.04,613.89 201.44,608.52 204.12,604.88C206.81,601.23 210.91,596.50 213.25,594.36C215.59,592.22 221.44,587.35 226.25,583.53C231.06,579.72 235.00,576.20 235.00,575.71C235.00,575.21 230.61,570.64 225.25,565.54C219.89,560.44 212.97,552.72 209.87,548.38C206.77,544.05 200.37,533.87 195.65,525.78C190.92,517.68 185.43,507.83 183.45,503.90C181.47,499.96 178.06,492.18 175.89,486.62C173.72,481.05 170.84,472.45 169.50,467.50C168.16,462.55 166.37,454.50 165.53,449.62C164.69,444.73 164.00,438.83 164.00,436.49C164.00,434.16 163.44,431.81 162.75,431.29C162.06,430.76 157.22,429.85 152.00,429.26C146.02,428.59 140.41,427.27 136.86,425.70C133.75,424.33 127.78,420.89 123.58,418.05C119.38,415.22 113.42,410.34 110.33,407.20C107.23,404.07 103.12,399.12 101.19,396.22C99.26,393.31 97.14,388.81 96.48,386.22C95.69,383.14 95.60,380.59 96.19,378.87C96.70,377.43 98.10,375.31 99.32,374.17C100.53,373.03 104.20,371.40 107.47,370.55C110.99,369.63 117.52,369.01 123.46,369.03C128.98,369.05 139.34,369.49 146.49,370.01C156.54,370.74 159.75,370.68 160.71,369.71C161.44,368.99 162.40,363.25 163.01,355.99C163.59,349.12 164.75,339.33 165.60,334.24C166.45,329.15 168.41,320.60 169.95,315.24C171.49,309.88 174.36,300.91 176.33,295.30C178.29,289.69 181.76,281.37 184.04,276.80C186.32,272.24 190.13,265.57 192.51,262.00C194.89,258.43 199.24,253.03 202.17,250.00C205.10,246.97 209.19,243.24 211.25,241.71C214.53,239.26 215.00,238.39 215.03,234.71C215.04,232.39 216.07,227.52 217.31,223.89C218.55,220.25 221.80,213.53 224.53,208.96C227.34,204.26 233.41,196.53 238.50,191.16C243.45,185.94 251.10,178.97 255.50,175.68C259.90,172.38 267.65,167.71 272.71,165.30C277.78,162.88 285.21,160.21 289.21,159.37C293.89,158.38 299.72,157.97 305.50,158.23C312.40,158.54 315.55,159.17 319.00,160.95C321.48,162.23 324.73,164.30 326.22,165.55C327.99,167.02 329.70,167.63 331.09,167.27C332.31,166.95 333.86,165.18 334.72,163.13C335.71,160.76 336.01,158.04 335.60,155.03C335.26,152.54 333.87,148.47 332.50,146.00C331.14,143.53 328.44,138.35 326.51,134.49C324.14,129.76 322.71,125.15 322.11,120.31C321.58,116.14 321.57,109.87 322.08,105.34C322.56,101.05 324.36,92.58 326.08,86.52C327.80,80.46 330.36,73.03 331.76,70.00C333.41,66.44 337.00,61.84 341.92,56.95C348.12,50.80 351.45,48.46 360.01,44.23C365.78,41.38 373.43,38.37 377.00,37.54C380.57,36.71 388.04,36.02 393.59,36.01C400.34,36.00 406.19,36.64 411.26,37.94C415.43,39.00 420.79,40.86 423.17,42.06C425.55,43.26 430.52,46.47 434.22,49.19C437.91,51.91 442.52,56.31 444.47,58.96C446.42,61.61 448.73,65.52 449.61,67.64C450.48,69.76 453.45,76.37 456.21,82.31C458.96,88.26 461.84,95.46 462.60,98.31C463.35,101.17 463.98,106.67 463.99,110.54C463.99,114.41 463.31,120.22 462.47,123.44C461.64,126.66 459.57,132.72 457.89,136.90C455.27,143.40 454.88,145.50 455.21,151.39C455.56,157.82 455.81,158.48 459.00,161.14C460.88,162.71 463.60,164.00 465.04,164.00C466.58,164.00 468.65,162.92 470.08,161.37C471.41,159.92 474.75,157.67 477.50,156.38C481.27,154.60 484.22,154.02 489.50,154.03C493.35,154.03 499.65,154.87 503.50,155.90C507.35,156.93 514.22,159.16 518.77,160.87C523.32,162.57 529.62,165.60 532.77,167.60C535.92,169.60 541.60,173.53 545.39,176.32C549.18,179.11 555.08,184.68 558.51,188.70C561.93,192.71 566.79,200.01 569.29,204.91C571.80,209.82 574.16,215.90 574.54,218.42C575.12,222.29 575.73,223.25 578.39,224.52C580.13,225.34 584.80,228.87 588.77,232.36C592.74,235.86 599.17,242.26 603.08,246.61C606.98,250.95 614.58,260.35 619.96,267.50C625.35,274.65 633.26,286.35 637.54,293.50C641.82,300.65 646.80,309.68 648.60,313.56C650.41,317.44 654.55,327.79 657.81,336.56C661.07,345.33 664.90,357.00 666.33,362.50C667.76,368.00 669.63,376.53 670.48,381.47C671.33,386.40 672.47,395.40 673.00,401.47C673.61,408.48 673.62,417.24 673.02,425.50C672.50,432.65 671.11,443.23 669.92,449.00C668.73,454.77 666.43,463.32 664.81,468.00C663.18,472.68 659.15,482.04 655.84,488.80C652.53,495.57 645.55,507.48 640.32,515.27C635.08,523.07 627.96,532.83 624.48,536.97C621.01,541.11 615.54,547.02 612.33,550.10C609.12,553.19 603.71,557.99 600.30,560.77C596.88,563.56 587.66,570.11 579.80,575.32C571.93,580.54 564.26,585.95 562.75,587.36C561.24,588.76 560.00,590.74 560.00,591.76C560.00,592.78 560.56,594.30 561.25,595.13C561.94,595.97 565.75,599.48 569.72,602.94C573.69,606.40 578.70,611.57 580.85,614.42C583.00,617.27 585.89,621.83 587.26,624.55C588.63,627.27 590.97,632.88 592.47,637.00C593.96,641.12 597.35,652.87 600.01,663.11C602.66,673.34 606.70,686.49 608.98,692.33C611.62,699.08 613.02,704.14 612.82,706.22C612.57,708.82 611.74,709.90 608.84,711.46C605.40,713.30 604.57,713.34 594.98,712.14C589.37,711.44 581.00,709.77 576.37,708.43C571.75,707.09 563.64,703.98 558.37,701.51C553.09,699.05 544.77,694.05 539.89,690.42C535.01,686.78 529.04,681.62 526.64,678.94C524.23,676.27 520.45,670.57 518.23,666.29C516.01,662.00 513.20,655.12 511.99,651.00C510.77,646.88 508.69,641.36 507.37,638.75C506.05,636.14 504.53,634.00 504.00,634.00C503.47,634.00 500.13,636.64 496.57,639.86C493.01,643.09 486.59,647.53 482.30,649.74C478.01,651.94 471.35,654.98 467.50,656.48C463.65,657.98 460.19,659.50 459.81,659.85C459.43,660.21 458.42,663.86 457.57,667.98C456.71,672.09 454.86,677.82 453.44,680.70C452.03,683.59 448.44,689.10 445.47,692.95C442.49,696.80 436.63,703.90 432.45,708.73C428.26,713.55 421.70,721.89 417.87,727.25C411.95,735.54 410.50,736.99 408.20,736.95zM571.12,694.00C571.60,694.00 572.00,693.61 572.00,693.14C572.00,692.66 570.65,690.58 569.00,688.50C567.35,686.42 566.00,683.75 566.00,682.56C566.00,681.37 566.50,679.90 567.11,679.29C567.72,678.68 567.94,677.71 567.59,677.15C567.24,676.59 565.55,675.42 563.83,674.56C562.10,673.70 559.86,673.00 558.85,673.00C557.75,673.00 557.00,673.71 557.00,674.75C557.01,675.71 558.24,678.33 559.75,680.57C561.26,682.82 564.24,686.75 566.37,689.32C568.50,691.90 570.64,694.00 571.12,694.00zM206.93,691.00C207.46,691.00 209.01,689.54 210.36,687.75C211.71,685.96 212.97,683.81 213.16,682.97C213.35,682.13 213.15,681.23 212.73,680.97C212.30,680.71 210.61,682.86 208.96,685.75C207.31,688.64 206.40,691.00 206.93,691.00zM195.75,681.99C196.16,681.99 198.85,680.64 201.71,678.99C204.58,677.35 207.40,675.13 207.97,674.06C208.68,672.73 208.68,671.92 207.97,671.48C207.40,671.13 204.95,672.01 202.52,673.44C200.08,674.86 197.40,677.02 196.55,678.24C195.70,679.45 195.00,680.79 195.00,681.22C195.00,681.65 195.34,682.00 195.75,681.99zM584.86,681.00C585.25,681.00 587.10,679.73 588.96,678.17C591.29,676.23 592.15,674.82 591.70,673.67C591.28,672.57 589.94,672.00 587.78,672.01C585.98,672.02 583.49,672.30 582.25,672.63C581.01,672.96 580.00,673.80 580.00,674.48C580.00,675.17 580.93,676.92 582.07,678.37C583.21,679.81 584.47,681.00 584.86,681.00zM544.95,680.00C545.53,680.00 546.00,679.31 546.00,678.46C546.00,677.62 545.27,675.82 544.38,674.46C543.14,672.56 542.93,670.75 543.46,666.50C544.12,661.20 544.06,661.00 541.79,661.00C540.50,661.00 538.44,661.70 537.22,662.56C536.00,663.41 535.00,664.52 535.00,665.02C535.00,665.52 536.30,667.41 537.88,669.22C539.47,671.02 541.47,674.19 542.33,676.25C543.19,678.31 544.37,680.00 544.95,680.00zM223.99,678.00C224.36,678.00 226.83,676.00 229.49,673.56C233.63,669.76 234.15,668.88 233.05,667.56C232.34,666.70 231.19,666.00 230.49,666.00C229.80,666.00 227.61,667.80 225.62,670.00C223.63,672.20 222.00,674.60 222.00,675.34C222.00,676.07 222.30,676.97 222.67,677.33C223.03,677.70 223.63,678.00 223.99,678.00zM569.30,669.00C570.01,669.00 571.14,668.46 571.80,667.80C572.46,667.14 573.00,666.01 573.00,665.30C573.00,664.59 572.10,663.10 571.00,662.00C569.90,660.90 567.88,660.00 566.50,660.00C564.50,660.00 564.00,660.50 564.00,662.50C564.00,663.88 564.90,665.90 566.00,667.00C567.10,668.10 568.59,669.00 569.30,669.00zM208.92,665.92C209.15,665.96 210.17,665.26 211.17,664.35C212.18,663.43 213.00,661.62 213.00,660.31C213.00,659.01 212.30,657.67 211.45,657.34C210.59,657.01 208.12,657.55 205.95,658.52C203.78,659.50 202.00,660.91 202.00,661.65C202.00,662.39 203.46,663.63 205.25,664.42C207.04,665.20 208.69,665.87 208.92,665.92zM554.37,664.00C555.60,664.00 557.12,663.48 557.75,662.85C558.51,662.09 558.59,661.10 557.97,659.95C557.46,658.99 555.72,657.75 554.10,657.19C551.97,656.44 550.71,656.49 549.52,657.36C548.01,658.47 548.05,658.80 550.01,661.28C551.19,662.79 553.14,664.00 554.37,664.00zM583.32,662.98C585.62,662.98 588.11,662.58 588.85,662.11C589.59,661.64 590.04,660.41 589.85,659.38C589.66,658.35 587.75,656.65 585.62,655.60C582.71,654.19 581.07,653.94 579.12,654.62C577.61,655.15 576.37,656.43 576.20,657.65C576.03,658.80 576.62,660.48 577.52,661.38C578.51,662.36 580.78,662.99 583.32,662.98zM244.52,662.00C245.21,662.00 246.05,661.33 246.36,660.50C246.68,659.67 246.68,658.33 246.36,657.50C246.05,656.67 244.98,656.00 244.00,656.00C243.02,656.00 241.93,656.73 241.59,657.63C241.25,658.52 241.48,659.87 242.11,660.63C242.73,661.38 243.82,662.00 244.52,662.00zM229.00,659.92C229.28,659.96 231.12,659.54 233.09,658.99C235.25,658.39 237.10,657.07 237.73,655.68C238.41,654.20 238.45,652.77 237.84,651.69C237.33,650.76 236.22,650.00 235.38,650.00C234.55,650.00 232.10,651.46 229.95,653.25C227.80,655.04 226.03,657.02 226.02,657.67C226.01,658.31 226.56,659.06 227.25,659.34C227.94,659.62 228.72,659.88 229.00,659.92zM394.64,656.97C397.47,656.99 403.99,655.91 409.14,654.57C414.29,653.23 422.10,650.78 426.50,649.12C430.90,647.47 437.65,644.78 441.50,643.16C445.35,641.54 451.43,638.88 455.00,637.25C458.57,635.62 466.68,631.14 473.00,627.31C479.32,623.48 490.52,616.40 497.87,611.59C505.23,606.77 517.61,598.74 525.37,593.74C533.14,588.75 543.41,582.15 548.20,579.08C552.98,576.01 563.05,569.23 570.58,564.00C578.11,558.77 586.83,552.61 589.96,550.30C593.09,547.99 601.56,540.21 608.79,533.02C616.02,525.83 624.80,516.24 628.30,511.72C631.79,507.20 636.32,500.73 638.35,497.33C640.38,493.94 644.24,486.52 646.92,480.83C649.60,475.15 653.16,466.37 654.84,461.32C656.51,456.28 659.11,445.03 660.62,436.32C662.69,424.31 663.34,417.25 663.33,407.00C663.31,395.72 662.78,391.03 660.14,378.50C658.40,370.25 656.06,359.96 654.95,355.63C653.84,351.30 651.77,345.00 650.36,341.63C648.95,338.26 645.53,330.37 642.76,324.09C639.99,317.82 635.72,309.31 633.28,305.18C630.84,301.05 626.56,294.26 623.76,290.09C620.96,285.92 616.45,279.80 613.74,276.50C611.03,273.20 602.89,264.48 595.65,257.12C588.42,249.76 580.70,242.27 578.50,240.47C576.30,238.68 560.33,227.79 543.00,216.27C525.67,204.75 507.00,192.81 501.50,189.73C496.00,186.65 484.07,180.51 475.00,176.09C463.99,170.71 453.68,166.57 444.00,163.61C436.02,161.17 425.98,158.68 421.68,158.09C417.38,157.49 409.50,157.05 404.18,157.11C394.50,157.22 394.50,157.22 407.00,158.97C413.88,159.93 421.52,161.26 424.00,161.92C426.48,162.58 432.77,164.48 438.00,166.15C443.23,167.82 451.55,171.04 456.50,173.32C461.45,175.59 468.60,179.20 472.40,181.33C476.19,183.46 486.25,188.99 494.76,193.63C503.27,198.26 513.24,204.00 516.90,206.37C520.57,208.74 530.30,216.32 538.53,223.21C546.76,230.10 559.35,241.77 566.50,249.13C573.65,256.49 583.21,266.86 587.74,272.18C592.27,277.49 599.17,286.36 603.06,291.88C606.98,297.44 614.71,310.96 620.40,322.21C626.27,333.82 632.20,347.21 634.27,353.50C636.25,359.55 639.07,370.35 640.53,377.50C642.35,386.44 643.35,395.09 643.72,405.19C644.27,419.88 644.27,419.88 639.53,434.19C636.93,442.06 633.06,452.25 630.93,456.83C628.80,461.41 622.47,471.76 616.86,479.83C611.25,487.90 604.97,496.75 602.89,499.50C600.82,502.25 592.90,510.68 585.31,518.22C577.71,525.77 567.25,535.33 562.05,539.47C556.86,543.62 550.03,548.53 546.89,550.41C543.75,552.28 540.28,554.10 539.17,554.45C537.66,554.93 534.78,553.16 527.33,547.19C521.93,542.85 512.70,536.08 506.83,532.16C500.96,528.23 495.30,523.78 494.25,522.26C493.20,520.74 486.38,507.62 479.08,493.11C471.78,478.59 465.17,464.58 464.40,461.98C463.63,459.37 462.38,456.73 461.63,456.10C460.57,455.23 458.67,455.69 453.38,458.09C449.60,459.80 442.56,462.74 437.75,464.62C432.94,466.50 423.50,469.37 416.77,471.02C408.69,472.99 402.00,474.00 397.03,473.99C392.89,473.99 385.90,473.12 381.50,472.07C377.09,471.01 365.39,467.46 355.50,464.17C345.60,460.89 333.09,456.58 327.71,454.60C322.32,452.62 316.87,451.00 315.59,451.00C313.99,451.00 310.93,453.45 305.77,458.85C301.64,463.17 296.54,469.78 294.44,473.54C292.33,477.31 289.59,482.92 288.34,486.01C287.09,489.11 284.70,498.41 283.03,506.68C281.36,514.95 279.74,526.62 279.43,532.61C279.04,540.27 279.18,543.02 279.90,541.90C280.47,541.02 283.88,530.32 287.48,518.13C291.09,505.94 295.41,492.49 297.08,488.23C298.76,483.98 301.86,477.57 303.97,474.00C306.09,470.43 309.59,465.59 311.75,463.25C314.00,460.82 316.60,459.00 317.81,459.00C318.98,459.00 325.38,461.24 332.04,463.98C338.70,466.71 348.30,470.28 353.37,471.91C358.44,473.53 367.30,476.10 373.05,477.62C381.91,479.96 385.55,480.39 397.00,480.43C406.48,480.46 412.98,479.93 418.83,478.65C423.42,477.65 427.45,477.12 427.80,477.47C428.16,477.82 427.78,478.54 426.97,479.06C426.16,479.58 422.57,480.96 419.00,482.13C415.43,483.29 408.80,484.47 404.27,484.75C399.66,485.03 395.60,485.78 395.04,486.46C394.37,487.26 394.35,495.00 394.99,509.58C395.52,521.64 396.23,534.65 396.56,538.49C396.90,542.34 397.60,545.75 398.13,546.08C398.66,546.41 404.14,545.82 410.30,544.78C416.46,543.73 427.57,540.89 435.00,538.46C442.43,536.03 451.76,532.48 455.74,530.56C459.72,528.65 465.57,525.32 468.74,523.16C471.91,521.01 475.32,518.33 476.32,517.22C477.40,516.01 477.73,514.95 477.13,514.58C476.58,514.24 473.13,515.10 469.45,516.48C465.77,517.87 462.34,519.00 461.82,519.00C461.30,519.00 464.54,516.24 469.02,512.86C476.99,506.86 477.21,506.76 479.03,508.61C480.05,509.65 482.49,513.17 484.44,516.44C486.40,519.71 488.00,523.40 488.00,524.64C488.00,526.49 486.50,527.62 479.75,530.82C475.21,532.97 467.18,536.35 461.89,538.33C456.61,540.31 448.28,543.11 443.39,544.57C438.50,546.02 430.88,548.23 426.46,549.48C422.04,550.73 413.72,552.52 407.96,553.47C402.21,554.42 396.41,555.89 395.08,556.73C392.75,558.21 392.72,558.33 394.53,559.64C395.89,560.64 398.20,560.85 402.95,560.42C406.55,560.09 413.76,559.17 418.96,558.37C424.60,557.51 436.33,554.29 447.96,550.41C460.69,546.17 471.45,541.82 478.83,537.95C485.07,534.68 491.18,532.00 492.42,532.00C493.66,532.00 499.36,535.21 505.09,539.14C510.81,543.07 518.99,548.98 523.26,552.28C529.29,556.93 530.78,558.56 529.93,559.58C529.33,560.30 522.04,565.72 513.73,571.63C505.42,577.53 491.84,586.38 483.56,591.31C475.28,596.23 464.23,602.40 459.00,605.01C453.77,607.63 443.65,611.89 436.50,614.48C429.35,617.06 417.20,620.48 409.50,622.07C401.80,623.66 394.37,624.97 392.98,624.98C391.60,624.99 384.63,623.68 377.48,622.07C370.34,620.46 361.12,617.94 357.00,616.48C352.88,615.01 345.00,611.62 339.50,608.95C333.91,606.23 325.96,601.24 321.48,597.65C317.07,594.12 305.37,583.40 295.48,573.84C283.44,562.20 274.52,554.51 268.50,550.56C263.55,547.32 256.35,542.31 252.50,539.44C248.65,536.57 242.18,531.29 238.13,527.70C234.07,524.12 226.70,516.76 221.74,511.34C216.79,505.93 210.38,497.90 207.50,493.50C204.62,489.10 200.44,482.12 198.20,478.00C195.96,473.88 193.18,468.07 192.02,465.10C190.86,462.12 188.81,455.37 187.47,450.10C185.98,444.22 184.59,434.54 183.88,425.12C183.00,413.45 183.01,406.65 183.89,396.98C184.53,389.96 185.69,380.69 186.47,376.36C187.25,372.04 189.49,361.52 191.44,353.00C193.39,344.48 197.92,328.50 201.50,317.50C205.08,306.50 210.17,293.19 212.82,287.92C215.47,282.66 219.80,275.12 222.44,271.19C225.08,267.25 229.50,261.44 232.26,258.27C235.02,255.09 237.89,252.14 238.63,251.70C239.70,251.08 239.80,251.40 239.09,253.20C238.60,254.47 234.74,262.43 230.51,270.90C226.28,279.37 220.86,291.30 218.48,297.40C216.09,303.51 212.13,315.48 209.66,324.00C207.19,332.52 204.66,342.36 204.02,345.85C203.39,349.35 203.12,352.46 203.43,352.76C203.73,353.07 205.29,350.43 206.89,346.91C208.48,343.38 212.73,332.40 216.34,322.50C219.94,312.60 225.41,298.65 228.50,291.50C231.58,284.35 236.17,274.68 238.68,270.00C241.20,265.32 245.88,257.32 249.09,252.21C252.29,247.10 258.03,238.78 261.84,233.71C265.65,228.65 272.53,220.89 277.13,216.49C281.73,212.08 288.20,206.41 291.50,203.90C294.80,201.38 303.78,195.36 311.46,190.52C319.14,185.68 329.94,179.33 335.46,176.42C340.98,173.50 349.32,169.46 354.00,167.44C358.68,165.43 365.88,162.71 370.00,161.40C374.12,160.10 378.40,158.99 379.50,158.94C380.60,158.88 380.95,158.62 380.27,158.34C379.59,158.07 373.28,158.99 366.23,160.38C359.19,161.77 349.17,164.54 343.96,166.54C338.76,168.53 330.43,172.32 325.45,174.96C320.48,177.60 310.34,183.37 302.92,187.78C295.51,192.20 285.40,198.97 280.47,202.82C275.54,206.68 266.71,214.26 260.86,219.67C255.01,225.08 246.91,232.18 242.86,235.45C238.81,238.73 231.24,246.49 226.04,252.70C220.84,258.91 214.26,267.66 211.41,272.14C208.56,276.63 205.53,280.68 204.68,281.16C203.83,281.63 202.45,284.39 201.60,287.29C200.74,290.25 198.85,293.72 197.29,295.22C195.75,296.69 192.84,298.59 190.82,299.43C188.79,300.28 186.43,301.98 185.57,303.21C184.71,304.44 184.00,306.21 184.00,307.16C184.00,308.10 184.79,309.09 185.75,309.36C186.71,309.63 188.96,310.15 190.75,310.50C193.29,311.02 194.00,311.66 194.00,313.47C194.00,314.75 192.71,317.07 191.14,318.64C189.57,320.21 187.20,322.24 185.89,323.15C183.50,324.80 183.50,324.80 185.78,327.24C187.03,328.59 187.80,330.32 187.48,331.09C187.16,331.87 185.46,333.41 183.71,334.51C181.96,335.62 180.38,337.26 180.21,338.15C180.01,339.20 180.97,340.14 182.95,340.83C184.63,341.42 186.00,342.61 186.00,343.48C186.00,344.36 184.99,345.96 183.75,347.04C182.51,348.13 180.26,350.12 178.75,351.46C177.24,352.81 176.00,354.37 176.00,354.94C176.00,355.50 177.12,356.24 178.50,356.59C180.04,356.98 181.00,357.93 181.00,359.07C181.00,360.09 180.44,361.40 179.75,361.99C179.06,362.59 177.63,363.67 176.57,364.41C174.72,365.68 174.64,367.06 174.86,395.12C174.99,411.28 175.56,428.49 176.13,433.36C176.84,439.40 179.04,447.71 183.04,459.54C186.27,469.08 190.46,479.94 192.35,483.69C194.24,487.43 198.42,494.17 201.64,498.66C204.86,503.15 215.53,515.41 225.34,525.90C235.16,536.39 253.38,554.77 265.84,566.74C278.31,578.71 294.13,593.69 301.00,600.03C307.88,606.37 316.20,613.99 319.50,616.96C322.80,619.93 332.15,626.74 340.28,632.10C348.41,637.46 359.45,644.10 364.81,646.85C370.17,649.61 377.92,653.00 382.03,654.40C386.14,655.80 391.81,656.96 394.64,656.97zM537.90,654.75C539.79,654.61 541.77,653.75 542.36,652.81C543.17,651.52 542.98,650.63 541.55,649.06C540.53,647.93 538.73,647.00 537.57,647.00C536.40,647.00 534.44,647.70 533.22,648.56C532.00,649.41 531.00,650.74 531.00,651.51C531.00,652.27 531.79,653.37 532.75,653.95C533.71,654.52 536.03,654.88 537.90,654.75zM563.58,653.00C564.93,653.00 566.40,652.12 567.04,650.93C567.90,649.32 567.78,648.32 566.51,646.37C565.24,644.43 564.18,643.95 561.70,644.19C559.67,644.39 558.40,645.11 558.20,646.19C558.02,647.12 558.63,649.03 559.55,650.44C560.56,651.98 562.16,653.00 563.58,653.00zM215.05,650.93C215.35,650.97 216.14,650.46 216.80,649.80C217.46,649.14 218.00,647.21 218.00,645.50C218.00,643.79 217.46,641.86 216.80,641.20C216.14,640.54 214.41,640.00 212.96,640.00C211.51,640.00 208.69,641.24 206.70,642.75C204.70,644.26 203.06,646.10 203.04,646.83C203.01,647.76 203.83,647.98 205.75,647.57C207.58,647.18 209.50,647.63 211.50,648.92C213.15,649.98 214.75,650.89 215.05,650.93zM247.82,650.00C248.85,650.00 250.54,649.06 251.59,647.90C253.46,645.84 253.45,645.78 251.13,643.90C249.84,642.86 247.91,642.00 246.86,642.00C245.80,642.00 244.67,642.70 244.34,643.56C244.01,644.42 244.24,646.22 244.85,647.56C245.46,648.90 246.80,650.00 247.82,650.00zM550.42,650.00C551.67,650.00 553.47,649.14 554.43,648.08C556.08,646.25 556.06,646.06 554.02,644.02C552.53,642.53 550.91,641.98 548.69,642.19C546.32,642.42 545.42,643.05 545.20,644.63C545.03,645.79 545.62,647.48 546.52,648.38C547.41,649.27 549.17,650.00 550.42,650.00zM575.00,649.30C575.83,649.00 578.41,648.32 580.75,647.80C583.57,647.16 585.00,646.30 585.00,645.25C585.00,644.37 584.26,642.83 583.35,641.83C582.43,640.82 580.33,640.00 578.66,640.00C576.92,640.00 574.64,640.93 573.31,642.17C572.04,643.37 571.00,645.36 571.00,646.59C571.00,647.82 571.56,649.06 572.25,649.34C572.94,649.61 574.17,649.60 575.00,649.30zM390.17,647.93C389.25,647.89 384.61,646.38 379.85,644.57C375.10,642.77 369.56,640.27 367.55,639.03C365.54,637.79 364.10,636.56 364.36,636.31C364.61,636.06 369.02,637.18 374.16,638.81C379.30,640.44 386.59,642.29 390.38,642.94C394.16,643.58 398.66,643.80 400.38,643.43C402.09,643.06 405.98,641.51 409.01,639.98C412.04,638.46 418.56,635.97 423.51,634.45C428.45,632.93 433.62,630.92 435.00,629.99C436.38,629.06 442.00,626.18 447.50,623.60C453.00,621.01 461.77,616.39 467.00,613.32C472.23,610.26 480.52,605.24 485.43,602.18C490.34,599.12 497.26,595.57 500.81,594.28C504.36,592.99 507.42,592.09 507.61,592.28C507.80,592.47 505.83,594.24 503.23,596.22C500.63,598.20 494.68,602.08 490.00,604.84C485.32,607.61 478.35,612.12 474.50,614.87C470.65,617.63 461.67,622.84 454.55,626.46C447.42,630.08 439.55,633.67 437.05,634.43C434.55,635.19 430.02,636.93 426.99,638.29C423.96,639.65 418.79,641.48 415.49,642.36C412.20,643.24 405.53,644.87 400.67,645.98C395.82,647.09 391.09,647.97 390.17,647.93zM233.96,643.60C237.00,643.34 239.64,643.10 239.81,643.07C239.99,643.03 239.99,641.58 239.81,639.85C239.64,638.12 238.71,636.21 237.75,635.60C236.38,634.75 235.01,635.03 231.50,636.89C228.88,638.28 227.00,639.98 227.00,640.97C227.00,641.90 227.32,642.98 227.71,643.37C228.09,643.76 230.91,643.86 233.96,643.60zM537.25,639.20C538.21,638.96 539.00,637.95 539.00,636.95C539.00,635.95 538.07,634.84 536.93,634.48C535.79,634.12 533.73,634.10 532.36,634.45C530.74,634.85 529.98,635.65 530.19,636.74C530.37,637.66 531.63,638.69 533.01,639.02C534.38,639.36 536.29,639.44 537.25,639.20zM561.01,638.00C561.47,638.00 562.55,637.31 563.39,636.47C564.23,635.63 564.68,634.34 564.40,633.60C564.11,632.86 562.39,631.45 560.57,630.47C558.75,629.49 556.53,628.97 555.63,629.31C554.73,629.66 554.00,630.59 554.00,631.38C554.00,632.17 555.38,633.99 557.08,635.41C558.77,636.83 560.54,638.00 561.01,638.00zM547.60,636.97C548.75,636.99 550.54,636.06 551.58,634.91C553.44,632.86 553.44,632.79 551.55,631.41C550.49,630.63 547.90,630.00 545.81,630.00C542.43,630.00 542.00,630.28 542.00,632.45C542.00,633.80 542.79,635.36 543.75,635.92C544.71,636.48 546.44,636.95 547.60,636.97zM218.27,635.90C219.27,635.96 220.56,634.86 221.24,633.38C222.31,631.03 222.15,630.52 219.66,628.38C218.08,627.02 215.61,626.00 213.90,626.00C212.26,626.00 209.14,626.91 206.96,628.02C204.78,629.13 203.00,630.71 203.00,631.52C203.00,632.59 204.17,633.00 207.25,633.01C209.59,633.02 212.62,633.65 214.00,634.42C215.38,635.18 217.30,635.85 218.27,635.90zM569.71,636.00C569.88,636.00 572.50,634.61 575.52,632.90C578.53,631.20 581.00,629.27 581.00,628.60C581.00,627.94 580.46,626.86 579.80,626.20C579.14,625.54 577.45,625.00 576.05,625.00C574.65,625.01 572.08,625.87 570.34,626.93C568.60,627.99 566.86,629.87 566.47,631.10C565.96,632.70 566.28,633.73 567.57,634.67C568.57,635.40 569.53,636.00 569.71,636.00zM248.07,635.00C248.63,635.00 250.20,633.90 251.55,632.55C252.90,631.20 254.00,629.45 254.00,628.67C254.00,627.89 253.34,626.70 252.53,626.03C251.53,625.19 250.22,625.09 248.36,625.71C246.86,626.21 245.19,627.33 244.64,628.21C243.92,629.35 244.11,630.53 245.34,632.40C246.28,633.83 247.51,635.00 248.07,635.00zM235.00,629.48C238.03,629.11 240.84,628.59 241.25,628.34C241.66,628.09 242.00,627.10 242.00,626.14C242.00,625.18 241.46,623.86 240.80,623.20C240.14,622.54 237.99,622.00 236.02,622.00C234.05,622.00 231.44,622.70 230.22,623.56C229.00,624.41 228.00,625.91 228.00,626.89C228.00,627.87 228.34,629.00 228.75,629.42C229.16,629.83 231.97,629.86 235.00,629.48zM349.89,627.43C349.68,627.64 347.45,626.76 344.93,625.48C342.42,624.20 339.78,622.44 339.06,621.57C338.34,620.71 338.04,620.00 338.39,620.00C338.74,620.00 341.02,620.94 343.46,622.09C345.90,623.23 348.44,624.82 349.09,625.61C349.75,626.40 350.11,627.22 349.89,627.43zM542.81,625.92C544.29,625.45 546.74,624.81 548.25,624.51C549.76,624.21 551.00,623.44 551.00,622.81C551.00,622.18 550.26,620.83 549.35,619.83C548.43,618.82 546.92,618.00 545.98,618.00C545.04,618.00 543.08,618.93 541.63,620.07C540.19,621.21 539.00,622.94 539.00,623.91C539.00,624.87 539.25,625.92 539.56,626.22C539.86,626.53 541.33,626.39 542.81,625.92zM562.79,624.68C565.70,624.38 569.49,623.31 571.21,622.31C572.93,621.30 574.51,619.98 574.71,619.36C574.92,618.74 574.32,617.46 573.37,616.52C571.95,615.09 570.57,614.92 565.08,615.48C561.46,615.86 557.49,616.81 556.25,617.61C555.01,618.40 554.00,619.56 554.00,620.19C554.00,620.83 554.79,622.22 555.75,623.28C557.21,624.90 558.39,625.13 562.79,624.68zM220.37,623.00C220.90,623.00 222.17,622.26 223.17,621.35C224.18,620.43 225.00,618.39 225.00,616.79C225.00,614.43 224.36,613.63 221.53,612.45C219.62,611.65 216.68,611.00 215.00,611.00C213.31,611.00 210.82,611.73 209.46,612.62C208.11,613.50 207.00,615.08 207.00,616.12C207.00,617.51 207.72,618.00 209.81,618.00C211.35,618.00 214.14,619.12 216.00,620.50C217.86,621.88 219.83,623.00 220.37,623.00zM248.77,620.00C249.52,620.00 251.00,619.53 252.07,618.96C253.13,618.40 254.00,617.29 254.00,616.50C254.00,615.71 253.13,614.60 252.07,614.04C250.78,613.35 249.27,613.33 247.57,613.98C246.15,614.51 245.00,615.55 245.00,616.28C245.00,617.00 245.54,618.14 246.20,618.80C246.86,619.46 248.01,620.00 248.77,620.00zM336.78,620.00C336.52,620.00 332.30,617.49 327.40,614.43C322.51,611.36 317.22,607.65 315.66,606.18C314.10,604.70 312.35,602.62 311.76,601.54C310.72,599.60 310.75,599.60 313.60,601.43C315.20,602.45 320.66,606.44 325.74,610.28C330.82,614.13 335.49,617.89 336.11,618.64C336.74,619.39 337.03,620.00 336.78,620.00zM237.03,617.00C239.85,617.00 241.25,616.51 241.69,615.36C242.08,614.34 241.59,613.18 240.41,612.31C239.36,611.54 237.49,610.66 236.25,610.35C235.01,610.04 232.88,610.07 231.50,610.41C230.12,610.76 229.00,611.48 229.00,612.02C229.00,612.56 229.90,613.90 231.00,615.00C232.34,616.34 234.33,617.00 237.03,617.00zM552.25,614.59C554.59,614.23 558.30,613.32 560.50,612.57C563.91,611.39 564.50,610.76 564.50,608.34C564.50,606.00 564.03,605.45 561.83,605.19C560.36,605.02 557.35,605.80 555.14,606.93C552.94,608.05 550.43,609.98 549.57,611.21C548.70,612.44 548.00,613.85 548.00,614.34C548.00,614.83 549.91,614.94 552.25,614.59zM392.13,605.04C392.57,601.49 392.56,589.97 392.12,579.45C391.68,568.93 391.01,559.83 390.64,559.22C390.26,558.61 387.83,557.84 385.23,557.50C382.63,557.16 374.88,556.02 368.00,554.97C361.12,553.92 345.60,550.57 333.51,547.53C321.42,544.49 310.05,542.00 308.26,542.00C305.92,542.00 303.87,543.03 300.95,545.66C298.72,547.68 296.43,550.20 295.85,551.27C294.96,552.95 295.52,552.82 299.84,550.40C304.74,547.64 305.01,547.60 311.02,548.84C314.40,549.54 325.12,552.37 334.84,555.14C345.00,558.02 357.39,560.79 364.00,561.65C370.32,562.47 377.52,563.45 380.00,563.82C384.28,564.47 384.51,564.67 384.77,568.00C384.91,569.92 385.72,577.35 386.56,584.50C387.41,591.65 388.55,599.98 389.11,603.00C389.66,606.02 390.39,609.17 390.72,610.00C391.06,610.83 391.69,608.59 392.13,605.04zM227.25,607.83C228.21,607.33 229.69,605.88 230.52,604.61C231.36,603.33 231.76,601.55 231.42,600.65C231.07,599.75 229.06,598.50 226.95,597.87C223.99,596.98 222.42,597.00 220.12,597.95C218.49,598.63 216.38,600.02 215.45,601.05C214.52,602.08 214.00,603.55 214.29,604.31C214.58,605.07 217.22,606.38 220.16,607.21C223.60,608.19 226.12,608.41 227.25,607.83zM248.10,608.92C249.52,608.97 251.48,608.13 252.44,607.06C253.41,606.00 253.88,604.61 253.49,603.98C253.09,603.34 251.85,603.07 250.73,603.36C249.53,603.68 247.66,603.09 246.21,601.95C244.84,600.88 242.50,600.00 240.99,600.00C239.48,600.00 237.65,600.71 236.93,601.58C235.98,602.73 235.90,603.63 236.67,604.83C237.24,605.75 239.47,607.03 241.61,607.67C243.75,608.32 246.67,608.88 248.10,608.92zM247.25,597.17C248.21,596.95 249.00,596.38 249.00,595.91C249.00,595.43 247.99,594.40 246.75,593.62C245.51,592.83 241.94,591.40 238.82,590.43C233.48,588.79 232.98,588.78 230.57,590.36C229.16,591.29 228.00,592.47 228.00,592.99C228.00,593.51 228.95,594.44 230.11,595.06C231.27,595.68 235.21,596.50 238.86,596.88C242.51,597.26 246.29,597.39 247.25,597.17zM367.86,584.92C368.92,584.98 369.07,583.98 368.56,580.54C368.15,577.80 368.33,575.25 369.04,573.92C369.94,572.24 369.90,571.49 368.85,570.49C368.11,569.78 364.13,568.45 360.02,567.54C355.90,566.62 348.81,565.61 344.27,565.29C339.61,564.96 336.00,565.10 336.00,565.60C336.00,566.10 338.14,567.90 340.75,569.60C343.36,571.31 346.73,573.45 348.24,574.37C350.08,575.49 350.89,576.75 350.74,578.24C350.53,580.22 351.39,580.70 358.50,582.65C362.90,583.85 367.11,584.87 367.86,584.92zM416.39,584.00C420.07,584.00 425.70,583.10 429.64,581.89C433.42,580.73 441.23,577.66 447.00,575.07C452.77,572.49 462.00,567.40 467.50,563.78C473.00,560.15 481.21,553.95 485.75,549.99C490.29,546.04 494.00,542.41 494.00,541.94C494.00,541.46 493.05,540.56 491.89,539.94C490.73,539.32 488.81,539.03 487.64,539.30C486.46,539.57 479.20,542.71 471.50,546.27C463.80,549.83 454.12,553.97 450.00,555.47C445.88,556.96 435.79,559.93 427.60,562.05C419.40,564.17 412.26,566.34 411.71,566.89C411.07,567.53 411.30,569.29 412.38,572.00C413.97,575.97 413.96,576.24 412.02,578.70C410.91,580.11 410.00,581.88 410.00,582.63C410.00,583.65 411.66,584.00 416.39,584.00zM291.94,581.37C291.63,581.69 288.48,579.54 284.94,576.59C281.40,573.64 277.45,569.79 276.16,568.03C274.22,565.38 274.13,565.00 275.66,565.83C276.67,566.38 280.88,569.97 285.00,573.81C289.12,577.64 292.25,581.04 291.94,581.37zM540.11,574.00C539.82,574.00 540.23,573.41 541.04,572.69C541.84,571.97 545.65,568.90 549.50,565.88C553.35,562.85 560.42,557.35 565.21,553.66C570.00,549.97 581.42,539.42 590.59,530.23C602.26,518.52 610.66,508.95 618.61,498.32C624.86,489.97 630.42,482.86 630.98,482.51C631.54,482.16 632.00,482.39 632.00,483.02C632.00,483.65 630.82,487.16 629.37,490.83C627.92,494.50 624.75,500.52 622.32,504.21C619.89,507.90 615.84,512.74 613.31,514.96C610.78,517.18 608.37,519.00 607.95,519.00C607.53,519.00 604.92,522.06 602.15,525.80C599.37,529.55 592.92,536.64 587.80,541.58C582.69,546.51 574.67,553.51 570.00,557.13C565.33,560.75 559.63,564.88 557.34,566.31C555.05,567.74 550.36,570.05 546.92,571.45C543.47,572.85 540.41,574.00 540.11,574.00zM365.12,531.93C367.73,532.00 367.73,532.00 368.22,521.86C368.64,513.21 369.01,511.49 370.74,510.11C372.52,508.70 372.84,507.04 373.26,496.76C373.58,488.79 373.38,484.73 372.62,484.11C372.00,483.60 366.32,481.98 360.00,480.49C353.68,479.01 342.77,475.56 335.77,472.82C328.76,470.09 322.06,468.00 320.87,468.18C319.68,468.36 318.26,469.20 317.73,470.06C316.97,471.28 317.95,472.82 322.19,477.06C325.18,480.05 328.89,484.66 330.43,487.30C331.98,489.93 333.03,492.30 332.78,492.56C332.52,492.81 330.39,492.34 328.03,491.51C325.68,490.68 323.36,490.00 322.87,490.00C322.39,490.00 322.00,491.36 322.00,493.03C322.00,494.70 322.68,497.68 323.50,499.65C324.32,501.63 325.00,503.94 325.00,504.80C325.00,505.66 326.57,507.80 328.50,509.56C330.43,511.33 332.00,513.23 332.00,513.80C332.00,514.37 330.76,515.25 329.25,515.76C326.50,516.68 326.50,516.68 332.50,520.53C335.80,522.65 340.75,525.26 343.50,526.34C346.25,527.42 351.65,529.10 355.50,530.08C359.35,531.05 363.68,531.89 365.12,531.93zM508.80,505.00C509.11,505.00 514.56,503.38 520.93,501.39C527.29,499.41 535.26,496.53 538.64,495.01C542.01,493.48 547.62,490.26 551.10,487.86C554.58,485.46 557.88,483.19 558.43,482.80C558.99,482.42 559.21,481.87 558.92,481.59C558.63,481.30 555.52,481.93 552.00,483.00C548.48,484.07 545.43,484.77 545.22,484.56C545.02,484.35 547.69,482.25 551.17,479.90C554.65,477.55 561.10,471.98 565.50,467.53C569.90,463.08 574.14,458.21 574.92,456.72C575.70,455.23 576.04,453.70 575.67,453.34C575.30,452.97 571.96,454.77 568.24,457.34C564.52,459.90 561.16,462.00 560.78,462.00C560.40,462.00 561.51,459.64 563.25,456.75C564.99,453.86 567.95,449.55 569.83,447.18C571.71,444.80 572.86,442.50 572.38,442.06C571.89,441.63 569.39,440.76 566.81,440.14C564.23,439.51 560.80,439.00 559.20,439.00C557.44,439.00 554.55,440.32 551.89,442.34C549.48,444.18 546.39,446.27 545.04,446.99C542.60,448.28 542.59,448.27 544.12,445.90C544.97,444.58 546.90,441.38 548.41,438.78C549.92,436.18 550.87,433.59 550.51,433.02C550.16,432.45 548.51,431.28 546.84,430.42C545.18,429.56 544.02,428.65 544.26,428.40C544.51,428.15 548.72,428.89 553.61,430.04C558.50,431.19 567.00,432.96 572.50,433.98C578.00,434.99 586.55,436.11 591.50,436.47C596.45,436.82 603.68,436.69 607.56,436.17C611.45,435.66 617.08,434.06 620.06,432.62C623.05,431.18 626.62,429.13 627.99,428.07C629.35,427.01 630.25,425.93 629.99,425.67C629.72,425.41 625.67,426.04 621.00,427.07C615.17,428.36 608.46,428.96 599.63,428.98C592.55,428.99 582.04,428.30 576.27,427.44C570.49,426.59 561.66,424.81 556.64,423.51C551.61,422.20 541.65,419.12 534.50,416.66C527.35,414.21 519.04,411.29 516.02,410.18C512.46,408.87 509.98,408.47 508.92,409.04C508.02,409.52 504.03,413.75 500.06,418.43C496.08,423.12 486.79,432.21 479.41,438.63C472.04,445.06 466.00,450.95 466.00,451.73C466.00,452.50 467.28,455.02 468.84,457.32C470.40,459.62 474.28,466.13 477.46,471.79C480.65,477.45 483.42,481.91 483.63,481.71C483.83,481.50 482.90,477.68 481.56,473.21C480.23,468.74 478.20,462.98 477.07,460.41C475.93,457.85 475.00,454.92 475.00,453.90C475.00,452.84 482.22,444.98 492.09,435.28C501.50,426.05 509.82,418.14 510.58,417.71C511.35,417.27 512.99,417.46 514.23,418.13C515.52,418.81 515.98,419.51 515.31,419.73C514.65,419.95 509.25,424.95 503.31,430.84C497.36,436.73 489.91,443.70 486.75,446.33C482.89,449.54 481.00,451.85 481.00,453.35C481.00,454.58 483.24,459.39 485.99,464.04C488.73,468.69 494.41,479.25 498.60,487.50C502.79,495.75 506.68,503.06 507.23,503.75C507.79,504.44 508.49,505.00 508.80,505.00zM225.25,486.06C227.04,484.88 233.88,481.19 240.45,477.85C247.26,474.39 259.37,469.49 268.63,466.44C277.55,463.51 287.60,459.72 290.94,458.03C294.29,456.34 299.50,453.38 302.51,451.45C305.53,449.52 308.00,447.53 308.00,447.03C308.00,446.52 307.13,444.63 306.07,442.81C305.01,440.99 303.46,436.12 302.62,432.00C301.78,427.88 300.62,419.55 300.04,413.50C299.47,407.45 299.00,398.18 299.00,392.90C299.00,387.61 299.46,377.49 300.03,370.40C300.59,363.30 302.16,350.39 303.51,341.69C304.85,333.00 306.82,323.94 307.87,321.57C308.91,319.20 310.30,316.93 310.95,316.53C311.60,316.13 312.39,316.06 312.71,316.38C313.03,316.70 311.90,324.73 310.19,334.23C308.48,343.73 306.56,355.55 305.91,360.50C305.17,366.16 304.95,375.99 305.30,387.00C305.61,396.62 306.40,407.31 307.04,410.75C307.69,414.19 308.62,417.00 309.11,417.00C309.60,417.00 310.00,409.64 310.00,400.65C310.00,391.65 310.45,378.49 311.01,371.40C311.56,364.30 312.49,355.12 313.07,351.00C313.65,346.88 315.49,336.30 317.16,327.50C318.83,318.70 320.77,310.11 321.48,308.42C322.40,306.19 326.74,302.56 337.13,295.29C345.03,289.77 352.94,284.52 354.70,283.63C357.49,282.21 362.81,282.00 396.20,282.01C420.19,282.01 435.99,282.41 438.50,283.08C440.70,283.67 447.50,286.63 453.60,289.66C459.71,292.70 466.90,296.84 469.58,298.87C473.14,301.56 474.93,303.83 476.22,307.31C477.20,309.93 478.90,315.54 480.02,319.79C481.13,324.03 483.13,334.02 484.47,342.00C485.81,349.98 487.15,359.20 487.45,362.50C487.83,366.71 487.72,367.75 487.09,366.00C486.59,364.62 484.98,357.88 483.51,351.00C482.04,344.12 479.60,335.54 478.09,331.93C476.58,328.32 473.64,322.78 471.55,319.64C469.46,316.49 462.61,309.10 456.31,303.21C450.02,297.32 443.22,291.63 441.19,290.56C438.11,288.93 434.87,288.55 421.50,288.20C412.70,287.97 395.50,288.28 383.29,288.89C371.07,289.51 359.95,290.52 358.59,291.14C357.22,291.77 354.33,294.80 352.17,297.89C350.02,300.97 346.57,306.86 344.50,310.97C342.44,315.08 338.79,323.51 336.40,329.71C334.00,335.91 331.08,345.60 329.91,351.24C328.08,360.05 327.87,363.55 328.37,376.00C328.70,383.98 329.62,394.77 330.43,400.00C331.24,405.23 332.53,411.30 333.30,413.50C334.43,416.71 335.37,417.69 338.17,418.50C340.08,419.05 342.93,420.36 344.51,421.40C346.10,422.45 350.09,424.12 353.39,425.12C356.69,426.12 359.60,426.73 359.86,426.47C360.11,426.22 360.44,421.40 360.58,415.76C360.72,410.11 361.35,403.02 361.97,400.00C362.59,396.98 363.94,388.88 364.97,382.00C366.00,375.12 368.24,361.62 369.96,352.00C371.68,342.38 373.73,331.69 374.52,328.26C375.32,324.83 377.34,318.45 379.03,314.08C380.71,309.71 383.74,303.63 385.76,300.57C387.78,297.51 389.95,295.00 390.58,295.00C391.22,295.00 392.02,297.14 392.37,299.75C392.71,302.36 393.45,337.00 394.01,376.72C394.57,416.45 395.44,450.02 395.94,451.33C396.77,453.52 397.29,453.69 402.17,453.29C405.10,453.06 412.81,452.00 419.29,450.95C425.77,449.89 434.55,447.84 438.79,446.39C443.03,444.94 453.02,440.46 461.00,436.42C470.43,431.65 479.50,426.08 486.93,420.49C493.22,415.76 498.96,411.12 499.69,410.19C500.43,409.26 500.80,407.26 500.54,405.75C500.27,404.23 499.13,394.78 498.00,384.75C496.87,374.71 495.02,361.34 493.89,355.04C492.76,348.74 490.07,335.56 487.92,325.75C485.76,315.94 484.00,306.25 484.00,304.23C484.00,300.56 484.00,300.56 486.02,302.58C487.30,303.85 489.69,310.48 492.51,320.55C494.96,329.32 499.28,347.52 502.10,361.00C504.92,374.48 507.69,385.95 508.24,386.50C508.92,387.17 509.04,383.77 508.60,376.05C508.24,369.76 506.38,353.44 504.47,339.79C502.56,326.14 501.00,314.64 501.01,314.23C501.02,313.83 502.17,315.98 503.58,319.00C504.99,322.02 507.61,328.77 509.41,334.00C511.21,339.23 513.96,348.23 515.52,354.00C517.07,359.77 518.72,364.93 519.17,365.45C519.63,365.97 520.03,364.40 520.06,361.95C520.09,359.50 520.44,355.70 520.83,353.50C521.55,349.50 521.55,349.50 523.70,357.00C524.88,361.12 526.15,366.30 526.52,368.50C526.89,370.70 527.77,377.80 528.49,384.27C529.20,390.74 530.30,396.66 530.93,397.42C531.56,398.18 535.42,400.45 539.51,402.47C543.85,404.62 550.80,406.94 556.22,408.06C561.32,409.11 567.23,409.98 569.33,409.99C571.95,410.00 573.04,409.60 572.77,408.75C572.55,408.06 568.21,406.10 563.12,404.39C558.04,402.68 553.34,400.74 552.69,400.08C551.76,399.14 552.72,399.04 557.00,399.62C560.02,400.03 570.15,400.40 579.50,400.43C590.39,400.48 598.60,400.02 602.36,399.16C605.66,398.40 607.84,397.44 607.35,396.95C606.87,396.47 601.87,395.19 596.23,394.09C590.59,393.00 585.53,391.83 584.99,391.49C584.44,391.15 584.00,386.17 584.00,380.19C584.01,369.50 584.01,369.50 586.25,373.00C588.50,376.50 588.50,376.50 588.81,372.80C589.00,370.50 587.75,365.00 585.51,358.30C583.53,352.36 578.77,341.70 574.93,334.61C571.08,327.52 568.14,321.53 568.38,321.29C568.62,321.05 570.15,321.54 571.77,322.38C573.40,323.22 576.82,325.51 579.38,327.46C581.93,329.41 584.24,331.00 584.51,331.00C584.78,331.00 585.00,330.13 585.00,329.07C585.00,328.01 585.66,327.00 586.46,326.82C587.61,326.57 587.18,325.04 584.46,319.76C582.56,316.06 581.00,312.34 581.00,311.51C581.00,310.68 581.67,310.00 582.50,310.00C583.33,310.00 584.00,309.57 584.00,309.05C584.00,308.52 582.50,307.81 580.67,307.47C578.84,307.12 570.18,307.60 561.42,308.53C552.66,309.46 538.08,310.20 529.00,310.17C518.63,310.15 510.46,309.62 507.00,308.77C501.66,307.45 502.21,307.38 526.50,306.18C542.22,305.41 555.58,304.20 562.50,302.92C568.55,301.81 576.74,300.64 580.70,300.32C586.77,299.83 588.39,300.05 590.99,301.69C592.68,302.77 595.83,305.99 597.98,308.85C600.13,311.71 603.78,317.53 606.09,321.78C608.41,326.02 612.36,332.86 614.89,336.97C617.44,341.11 619.62,343.76 619.78,342.91C619.94,342.06 618.66,337.35 616.92,332.44C615.19,327.52 612.70,321.37 611.38,318.77C610.06,316.16 606.09,309.80 602.56,304.63C599.03,299.46 594.80,292.56 593.15,289.29C591.20,285.44 585.63,278.48 577.24,269.43C570.14,261.77 557.40,248.68 548.92,240.34C540.44,232.00 531.02,223.08 528.00,220.53C524.98,217.97 520.18,214.34 517.35,212.45C514.51,210.56 508.84,207.21 504.73,205.00C500.63,202.78 494.14,199.91 490.30,198.60C486.47,197.30 481.51,195.92 479.28,195.55C477.05,195.17 473.49,195.33 471.36,195.91C469.24,196.48 463.15,199.44 457.84,202.48C451.52,206.09 447.05,208.00 444.90,208.00C442.86,208.00 439.15,206.51 435.06,204.06C431.45,201.89 425.05,198.97 420.82,197.56C414.55,195.47 411.24,195.00 402.73,195.00C395.16,195.00 390.83,195.51 386.88,196.87C383.90,197.90 378.99,199.97 375.98,201.48C372.96,202.99 367.80,206.05 364.50,208.27C361.20,210.49 358.22,212.73 357.88,213.25C357.54,213.77 356.71,218.09 356.03,222.85C355.35,227.61 354.95,232.62 355.14,234.00C355.42,235.92 356.38,234.37 359.31,227.32C362.19,220.39 364.17,217.17 367.47,214.14C369.86,211.93 374.04,209.00 376.75,207.63C379.46,206.25 384.44,204.20 387.81,203.07C392.18,201.59 396.49,201.00 402.86,201.00C409.12,201.00 413.84,201.63 418.64,203.11C422.42,204.28 428.04,206.51 431.15,208.08C435.96,210.50 437.04,211.58 438.37,215.22C439.22,217.57 442.16,227.82 444.90,238.00C447.64,248.18 450.85,260.18 452.03,264.68C453.21,269.17 454.93,273.48 455.84,274.24C456.75,275.01 462.50,277.72 468.61,280.27C474.72,282.83 482.89,285.79 486.76,286.87C490.63,287.94 499.63,289.36 506.76,290.02C516.44,290.91 522.27,290.94 529.80,290.12C535.35,289.51 542.24,288.23 545.13,287.26C548.01,286.29 550.52,285.02 550.71,284.42C550.90,283.83 549.96,282.84 548.61,282.23C547.27,281.62 544.50,280.81 542.46,280.43C539.35,279.84 539.02,279.57 540.49,278.75C541.46,278.21 546.02,277.53 550.62,277.24C555.23,276.95 559.00,276.34 559.00,275.87C559.00,275.40 556.56,273.64 553.59,271.96C549.45,269.63 545.87,266.07 538.43,256.87C533.08,250.25 523.48,240.06 517.10,234.23C510.72,228.41 502.24,221.05 498.26,217.88C494.28,214.71 487.64,209.76 483.51,206.88C479.38,203.99 476.00,201.27 476.00,200.82C476.00,200.37 477.74,200.00 479.88,200.00C482.65,200.00 487.07,201.71 495.43,206.01C501.85,209.31 510.57,214.33 514.81,217.15C520.00,220.62 531.56,231.27 550.37,249.90C565.70,265.08 580.89,280.79 584.12,284.82C587.35,288.84 590.00,292.51 590.00,292.97C590.00,293.43 586.06,294.01 581.25,294.27C576.44,294.53 568.23,295.44 563.00,296.30C557.77,297.17 546.83,298.39 538.67,299.02C527.18,299.92 520.29,299.90 508.17,298.94C499.55,298.25 490.02,297.58 487.00,297.43C482.34,297.21 479.44,296.07 468.00,289.92C460.57,285.93 451.35,281.05 447.50,279.08C440.50,275.50 440.50,275.50 399.50,275.50C362.94,275.50 358.01,275.69 354.00,277.24C351.52,278.20 342.30,284.15 333.50,290.47C324.70,296.80 316.12,302.63 314.44,303.44C312.57,304.34 305.25,305.34 295.44,306.03C286.67,306.64 273.65,308.01 266.50,309.07C259.35,310.14 250.35,311.74 246.50,312.64C242.65,313.54 237.90,315.08 235.95,316.06C233.99,317.04 230.96,319.31 229.20,321.11C227.44,322.91 226.00,324.98 226.00,325.71C226.00,326.69 227.09,326.48 230.16,324.92C232.44,323.75 236.38,322.19 238.91,321.45C241.43,320.70 249.80,319.19 257.50,318.09C265.20,316.98 276.16,315.61 281.86,315.04C287.55,314.47 294.29,314.00 296.83,314.00C301.43,314.00 301.44,314.01 299.47,315.98C298.38,317.07 293.13,319.51 287.79,321.42C282.46,323.33 274.81,326.32 270.80,328.07C266.78,329.83 260.50,332.77 256.82,334.61C253.15,336.44 249.85,338.44 249.47,339.04C249.10,339.64 249.00,340.33 249.24,340.58C249.49,340.82 253.25,340.56 257.59,340.00C261.94,339.44 266.94,338.74 268.69,338.45C271.79,337.95 271.86,338.01 270.98,340.72C270.49,342.25 268.46,348.19 266.49,353.92C264.51,359.65 262.63,367.30 262.32,370.92C261.93,375.34 262.07,377.17 262.75,376.50C263.30,375.95 264.27,373.93 264.90,372.00C265.53,370.07 266.89,367.39 267.94,366.04C269.83,363.57 269.83,363.57 270.36,367.04C270.66,368.94 271.12,382.74 271.39,397.70C271.85,423.60 271.78,425.01 269.91,427.39C268.83,428.76 264.82,431.96 260.99,434.50C257.17,437.05 253.78,439.55 253.46,440.07C253.14,440.59 253.60,441.29 254.48,441.63C255.36,441.97 261.35,441.45 267.79,440.48C274.23,439.51 280.82,438.33 282.43,437.87C284.05,437.41 285.53,437.20 285.73,437.40C285.93,437.60 283.71,440.10 280.80,442.95C275.50,448.13 275.50,448.13 279.00,447.50C280.93,447.15 285.29,446.00 288.71,444.93C292.12,443.87 295.47,443.00 296.15,443.00C296.82,443.00 296.12,444.31 294.58,445.92C293.04,447.52 289.24,450.18 286.14,451.82C283.04,453.46 272.85,457.57 263.50,460.96C254.15,464.36 243.21,468.99 239.20,471.27C235.18,473.55 229.67,477.77 226.95,480.65C224.23,483.53 222.00,486.40 222.00,487.04C222.00,487.71 223.35,487.30 225.25,486.06zM631.83,481.00C631.37,481.00 631.00,480.09 631.00,478.97C631.00,477.85 631.70,475.27 632.55,473.23C633.40,471.19 635.49,467.35 637.20,464.69C639.16,461.64 640.56,460.29 641.02,461.03C641.42,461.67 641.34,464.00 640.84,466.21C640.35,468.41 639.23,471.63 638.35,473.36C637.48,475.08 635.84,477.51 634.71,478.75C633.58,479.99 632.28,481.00 631.83,481.00zM438.66,434.54C433.50,435.12 433.50,435.12 437.50,432.51C439.70,431.07 444.54,428.34 448.26,426.43C451.97,424.53 461.65,418.88 469.76,413.88C477.87,408.88 485.90,403.46 487.62,401.83C490.27,399.30 490.83,399.11 491.37,400.51C491.72,401.42 492.00,403.21 492.00,404.48C492.00,405.86 490.62,408.00 488.58,409.80C486.70,411.45 481.94,414.88 478.01,417.42C474.09,419.96 467.19,423.89 462.69,426.16C458.18,428.42 452.10,431.10 449.16,432.12C446.22,433.13 441.50,434.22 438.66,434.54zM145.86,399.00C147.00,399.00 149.72,396.31 152.89,392.05C155.73,388.23 158.74,383.47 159.58,381.46C160.75,378.65 160.83,377.50 159.93,376.41C159.28,375.64 157.94,375.00 156.95,375.00C155.96,375.00 154.27,376.11 153.21,377.47C152.14,378.82 150.99,381.64 150.66,383.73C150.33,385.82 148.69,389.67 147.03,392.30C145.36,394.92 144.00,397.50 144.00,398.03C144.00,398.57 144.84,399.00 145.86,399.00zM116.11,389.00C116.60,389.00 117.00,388.34 117.00,387.54C117.00,386.74 115.76,384.02 114.25,381.50C112.74,378.99 110.51,376.68 109.31,376.37C108.10,376.06 106.64,376.11 106.06,376.46C105.48,376.82 105.00,377.72 105.00,378.47C105.00,379.21 107.30,381.88 110.11,384.41C112.92,386.93 115.62,389.00 116.11,389.00zM137.47,386.00C138.86,386.00 142.25,384.38 145.00,382.41C147.75,380.43 150.00,378.23 150.00,377.53C150.00,376.82 149.36,375.71 148.57,375.06C147.78,374.41 145.44,374.01 143.36,374.19C140.22,374.45 139.09,375.21 136.65,378.67C134.96,381.09 133.98,383.51 134.33,384.42C134.67,385.29 136.08,386.00 137.47,386.00zM125.53,380.94C126.09,380.97 127.67,380.26 129.03,379.35C130.39,378.44 132.74,376.55 134.25,375.16C136.27,373.30 136.67,372.41 135.75,371.83C135.06,371.39 132.79,371.02 130.70,371.02C128.61,371.01 125.63,371.66 124.07,372.46C122.52,373.27 120.96,374.65 120.62,375.54C120.28,376.44 120.00,377.59 120.00,378.11C120.00,378.64 121.01,379.47 122.25,379.97C123.49,380.47 124.96,380.90 125.53,380.94zM310.80,294.88C312.61,294.95 315.54,294.27 317.30,293.37C319.06,292.47 324.60,289.30 329.62,286.33C334.63,283.35 339.69,279.90 340.85,278.66C342.58,276.82 343.43,273.17 345.48,258.95C346.87,249.35 348.92,236.61 350.05,230.62C351.18,224.64 353.04,217.76 354.18,215.33C355.32,212.91 356.06,210.72 355.81,210.48C355.56,210.23 349.66,207.32 342.69,204.01C335.72,200.71 328.05,197.47 325.64,196.83C322.21,195.91 320.59,195.93 318.23,196.91C316.56,197.60 314.19,199.24 312.95,200.55C310.71,202.94 310.71,202.94 315.85,202.33C320.08,201.83 321.00,202.00 321.00,203.26C321.00,204.10 317.68,206.86 313.62,209.39C309.56,211.92 304.53,215.88 302.45,218.19C300.36,220.50 299.10,222.53 299.65,222.72C300.20,222.90 303.25,221.89 306.45,220.48C309.64,219.07 312.42,218.09 312.63,218.30C312.84,218.51 310.85,221.57 308.19,225.09C305.54,228.62 300.41,236.24 296.79,242.03C293.17,247.82 287.84,257.04 284.95,262.53C282.05,268.01 278.74,273.55 277.59,274.84C276.44,276.12 272.57,278.82 269.00,280.84C262.66,284.41 262.58,284.51 265.67,284.81C267.41,284.98 275.42,283.96 283.46,282.56C291.50,281.15 300.17,280.00 302.73,280.00C307.37,280.00 307.37,280.00 304.50,283.00C302.92,284.65 301.82,286.00 302.06,286.00C302.30,286.00 306.06,285.32 310.40,284.49C314.75,283.66 318.46,283.13 318.65,283.32C318.84,283.50 317.97,284.62 316.72,285.80C315.47,286.97 312.03,289.25 309.08,290.87C304.95,293.12 304.15,293.91 305.61,294.28C306.65,294.55 308.98,294.82 310.80,294.88zM194.12,285.00C195.65,285.00 198.05,284.48 199.45,283.84C200.85,283.20 202.00,282.28 202.00,281.79C202.00,281.30 200.35,280.21 198.33,279.37C195.56,278.21 194.09,278.09 192.33,278.89C191.05,279.48 190.00,280.79 190.00,281.81C190.00,282.83 190.30,283.97 190.67,284.33C191.03,284.70 192.59,285.00 194.12,285.00zM485.81,279.88C483.44,279.82 479.48,279.42 477.00,278.99C474.52,278.57 469.88,277.46 466.69,276.52C462.68,275.35 460.59,274.15 459.95,272.66C459.44,271.47 457.89,264.88 456.52,258.00C455.14,251.12 452.67,239.00 451.03,231.06C449.39,223.12 448.28,216.38 448.58,216.09C448.87,215.80 449.53,216.22 450.04,217.03C450.56,217.84 453.74,224.99 457.12,232.91C460.50,240.84 464.98,252.06 467.08,257.84C469.18,263.62 471.93,269.33 473.20,270.53C474.46,271.73 478.56,273.97 482.30,275.52C486.03,277.07 489.32,278.71 489.60,279.17C489.89,279.63 488.18,279.95 485.81,279.88zM335.93,272.54C335.50,272.81 334.84,272.55 334.48,271.96C334.11,271.37 334.12,268.10 334.49,264.70C334.86,261.29 336.05,254.03 337.14,248.56C338.23,243.09 339.54,237.91 340.07,237.06C340.71,236.00 340.86,237.09 340.54,240.50C340.27,243.25 339.80,248.88 339.49,253.00C339.17,257.12 338.42,263.10 337.82,266.27C337.22,269.45 336.37,272.27 335.93,272.54zM445.36,272.97C445.83,272.99 446.01,271.54 445.77,269.75C445.52,267.96 444.07,260.65 442.56,253.50C441.04,246.35 439.12,238.48 438.28,236.01C437.44,233.54 434.71,228.65 432.22,225.15C429.72,221.65 425.39,216.55 422.61,213.80C419.82,211.06 416.18,208.07 414.52,207.16C412.34,205.96 409.00,205.50 402.50,205.50C395.23,205.50 392.83,205.89 390.01,207.55C388.10,208.67 385.27,211.39 383.73,213.57C381.77,216.36 379.91,221.75 377.50,231.58C375.61,239.30 373.41,247.16 372.61,249.06C371.81,250.95 369.51,254.07 367.50,256.00C365.48,257.93 363.38,260.33 362.83,261.35C361.92,263.03 362.22,263.17 366.16,262.96C368.55,262.84 371.24,262.79 372.13,262.87C373.03,262.94 373.99,263.84 374.26,264.87C374.64,266.35 376.74,267.14 384.12,268.62C391.70,270.14 398.01,270.50 417.00,270.50C433.73,270.50 441.08,270.85 442.50,271.72C443.60,272.39 444.89,272.95 445.36,272.97zM204.45,267.33C206.13,267.04 208.62,266.01 210.00,265.04C211.38,264.08 212.64,262.56 212.82,261.66C213.03,260.61 211.85,259.42 209.52,258.31C206.84,257.03 205.45,256.85 204.20,257.62C203.26,258.20 201.60,260.33 200.50,262.36C198.79,265.52 198.71,266.18 199.95,266.96C200.75,267.46 202.78,267.63 204.45,267.33zM587.84,260.97C587.61,261.66 585.56,260.68 582.75,258.53C580.16,256.55 577.54,254.01 576.94,252.88C576.33,251.75 576.06,250.61 576.33,250.33C576.61,250.06 577.65,250.29 578.66,250.84C579.67,251.39 582.24,253.64 584.36,255.83C586.49,258.02 588.05,260.34 587.84,260.97zM215.97,250.47C216.81,250.15 220.77,247.78 224.76,245.20C229.17,242.34 231.91,239.91 231.75,239.00C231.60,238.18 230.45,237.35 229.20,237.18C227.94,237.00 224.05,238.19 220.54,239.83C216.95,241.51 213.39,244.00 212.39,245.53C210.67,248.15 210.68,248.29 212.53,249.64C213.58,250.41 215.13,250.78 215.97,250.47zM249.05,207.90C249.90,207.95 251.12,207.48 251.75,206.85C252.50,206.10 252.59,205.10 251.99,203.98C251.49,203.04 249.71,201.71 248.04,201.02C245.47,199.95 244.63,200.01 242.51,201.40C241.13,202.31 240.00,203.67 240.00,204.42C240.00,205.18 241.69,206.25 243.75,206.80C245.81,207.35 248.20,207.84 249.05,207.90zM360.73,200.91C360.85,200.96 366.48,199.10 373.23,196.77C385.44,192.57 385.57,192.55 399.50,192.62C410.87,192.67 415.71,193.19 425.23,195.34C431.69,196.80 437.94,198.00 439.13,198.00C440.32,198.00 445.28,195.64 450.15,192.75C455.02,189.86 459.00,186.98 459.00,186.34C459.00,185.71 457.06,184.53 454.69,183.72C452.31,182.91 449.05,181.02 447.44,179.52C445.82,178.02 441.35,175.20 437.50,173.25C433.65,171.31 427.57,168.60 424.00,167.23C418.50,165.13 415.27,164.67 403.00,164.25C391.88,163.87 387.10,164.11 382.50,165.29C379.20,166.14 373.89,167.81 370.70,169.01C367.51,170.20 363.69,172.25 362.20,173.56C360.39,175.15 360.00,175.94 361.00,175.95C361.82,175.96 365.88,175.08 370.00,174.00C374.12,172.92 378.34,172.03 379.37,172.02C381.00,172.00 381.07,172.22 379.87,173.65C379.12,174.56 376.14,177.05 373.25,179.18C370.36,181.32 368.00,183.50 368.00,184.03C368.00,184.56 368.79,185.01 369.75,185.02C370.71,185.02 372.10,185.41 372.83,185.87C373.78,186.47 372.11,188.02 367.00,191.30C363.06,193.82 358.53,196.16 356.92,196.52C355.31,196.87 354.00,197.56 354.00,198.05C354.00,198.54 355.46,199.37 357.25,199.88C359.04,200.40 360.60,200.86 360.73,200.91zM551.82,196.81C553.64,196.60 554.60,195.84 554.80,194.42C555.01,192.93 552.95,190.31 547.54,185.17C541.69,179.61 539.33,178.00 537.05,178.00C535.42,178.00 532.92,179.03 531.43,180.31C529.71,181.79 528.75,183.61 528.75,185.42C528.75,186.96 529.37,188.62 530.12,189.10C530.88,189.58 531.84,189.98 532.26,189.98C532.69,189.99 533.84,188.67 534.82,187.05C536.62,184.10 536.62,184.10 542.88,190.61C547.97,195.89 549.65,197.06 551.82,196.81zM251.93,196.00C257.88,196.00 258.95,195.73 259.47,194.09C259.81,193.03 259.77,190.89 259.39,189.34C259.00,187.78 258.28,186.23 257.78,185.90C257.28,185.57 255.83,185.50 254.55,185.75C253.27,185.99 250.60,187.53 248.61,189.17C246.63,190.81 245.00,193.01 245.00,194.07C245.00,195.79 245.75,196.00 251.93,196.00zM270.55,191.92C271.13,191.96 272.14,191.46 272.79,190.81C273.72,189.88 273.53,189.12 271.95,187.44C269.91,185.27 269.91,185.27 272.10,181.56C274.07,178.21 274.13,177.71 272.73,176.30C271.61,175.18 270.19,174.93 267.69,175.40C265.77,175.76 263.03,176.97 261.60,178.10C260.17,179.22 259.00,180.76 259.00,181.50C259.00,182.25 259.71,183.56 260.57,184.43C261.44,185.29 263.24,186.00 264.57,186.00C266.47,186.00 267.00,186.52 267.00,188.42C267.00,189.75 267.56,191.06 268.25,191.34C268.94,191.62 269.97,191.88 270.55,191.92zM281.80,178.94C282.51,178.97 284.20,177.90 285.55,176.55C286.90,175.20 288.00,173.00 288.00,171.67C288.00,170.34 287.34,168.70 286.54,168.03C285.41,167.10 284.27,167.09 281.55,167.98C279.62,168.62 277.12,170.30 276.01,171.71C274.38,173.78 274.23,174.57 275.21,175.75C275.88,176.56 277.35,177.59 278.47,178.05C279.58,178.50 281.08,178.90 281.80,178.94zM522.63,178.00C525.61,178.00 528.01,177.39 529.17,176.35C530.18,175.43 531.00,174.30 531.00,173.82C531.00,173.35 528.89,171.62 526.30,169.98C523.72,168.34 520.49,167.00 519.13,167.00C517.77,167.00 515.83,167.74 514.83,168.65C513.82,169.57 513.00,170.94 513.00,171.70C513.00,172.47 514.10,174.20 515.45,175.55C517.37,177.46 518.95,178.00 522.63,178.00zM297.50,174.67C299.15,174.40 302.24,173.73 304.37,173.17C306.50,172.61 308.68,171.72 309.22,171.18C309.76,170.64 309.92,169.32 309.58,168.25C309.24,167.18 307.77,165.76 306.32,165.10C304.61,164.32 301.71,164.13 298.09,164.57C295.02,164.95 291.71,165.66 290.75,166.16C289.79,166.66 289.00,167.59 289.00,168.23C289.00,168.87 290.24,170.69 291.75,172.27C293.92,174.54 295.13,175.05 297.50,174.67zM505.48,175.00C506.27,175.00 508.12,172.94 509.60,170.42C512.00,166.32 512.12,165.69 510.75,164.32C509.82,163.39 506.58,162.58 502.57,162.25C496.60,161.77 495.68,161.96 493.46,164.03C492.11,165.31 491.00,167.17 491.00,168.17C491.00,169.69 491.82,170.00 495.88,170.00C499.99,170.00 501.03,170.40 502.41,172.50C503.31,173.88 504.69,175.00 505.48,175.00zM348.75,158.51C349.71,158.12 353.88,156.98 358.00,155.98C362.12,154.98 369.25,153.62 373.84,152.95C379.42,152.14 389.36,151.92 403.84,152.29C415.75,152.58 428.43,153.32 432.00,153.91C435.57,154.51 439.96,155.24 441.75,155.54C443.78,155.89 445.00,155.68 445.00,154.99C445.00,154.38 442.64,152.81 439.75,151.48C436.86,150.16 430.45,148.11 425.50,146.93C417.53,145.02 414.61,144.83 400.00,145.31C389.62,145.64 379.77,146.58 373.44,147.84C367.91,148.93 360.86,150.57 357.76,151.47C354.67,152.37 350.98,154.01 349.57,155.12C348.16,156.24 347.00,157.61 347.00,158.18C347.00,158.77 347.76,158.91 348.75,158.51zM342.80,121.97C344.06,121.99 346.54,121.26 348.30,120.36C350.06,119.45 356.75,115.40 363.16,111.35C369.57,107.29 377.36,102.81 380.46,101.39C384.33,99.62 388.53,98.64 393.80,98.28C399.18,97.91 403.46,98.25 408.00,99.40C411.57,100.30 418.10,102.84 422.50,105.04C426.90,107.25 433.06,110.44 436.19,112.15C439.64,114.03 442.56,115.00 443.59,114.60C444.97,114.07 443.88,112.49 437.81,106.22C433.69,101.98 428.57,95.80 426.43,92.50C424.30,89.20 420.69,84.03 418.41,81.00C416.14,77.97 412.87,72.71 411.15,69.30C409.38,65.80 408.29,62.39 408.65,61.47C408.99,60.58 410.34,59.44 411.64,58.95C413.05,58.41 414.98,58.42 416.44,58.98C417.78,59.49 419.39,60.85 420.01,62.01C420.63,63.17 421.47,63.98 421.88,63.81C422.29,63.64 424.36,61.56 426.47,59.20C429.74,55.55 430.11,54.70 428.91,53.61C428.14,52.90 425.31,51.52 422.64,50.54C419.07,49.22 416.35,48.92 412.39,49.38C408.14,49.88 407.00,49.72 407.00,48.62C407.00,47.86 408.63,46.46 410.61,45.51C413.69,44.05 414.02,43.59 412.85,42.42C412.09,41.66 409.05,40.58 406.10,40.02C403.14,39.46 398.20,39.00 395.11,39.01C392.03,39.01 386.57,39.48 383.00,40.06C379.43,40.63 374.95,41.87 373.05,42.80C371.16,43.74 369.44,45.03 369.24,45.68C369.02,46.41 370.63,47.12 373.44,47.54C375.95,47.92 378.00,48.52 378.00,48.87C378.00,49.23 376.99,50.17 375.75,50.97C374.51,51.77 370.21,52.71 366.19,53.05C360.73,53.52 358.35,54.20 356.83,55.73C354.78,57.77 354.78,57.77 358.64,59.04C360.76,59.73 363.47,60.93 364.65,61.70C365.83,62.47 367.35,64.44 368.04,66.09C368.72,67.73 369.64,68.95 370.08,68.79C370.52,68.63 371.92,66.97 373.19,65.09C374.46,63.22 376.29,61.20 377.25,60.60C378.49,59.83 379.49,59.82 380.69,60.58C381.62,61.16 382.53,62.10 382.72,62.67C382.91,63.23 379.00,68.75 374.02,74.92C369.05,81.09 364.25,87.55 363.36,89.26C362.48,90.98 359.65,94.66 357.09,97.44C354.53,100.22 350.33,105.03 347.76,108.11C345.19,111.20 341.71,114.29 340.04,114.98C338.22,115.74 337.00,116.98 337.00,118.07C337.00,119.08 337.79,120.36 338.75,120.92C339.71,121.48 341.53,121.95 342.80,121.97zM367.58,120.00C367.90,120.00 371.23,118.66 374.97,117.01C378.71,115.37 384.17,113.51 387.09,112.89C390.17,112.23 396.02,111.98 400.96,112.31C406.85,112.70 412.88,113.98 420.40,116.45C426.40,118.42 431.50,119.83 431.75,119.58C432.00,119.34 431.90,118.64 431.52,118.04C431.15,117.44 427.28,115.15 422.91,112.96C418.55,110.76 411.94,108.25 408.24,107.38C404.02,106.39 398.86,105.97 394.45,106.24C389.70,106.53 385.52,107.53 381.67,109.29C378.52,110.73 373.93,113.36 371.47,115.13C369.01,116.89 367.00,118.71 367.00,119.17C367.00,119.63 367.26,120.00 367.58,120.00zM349.36,92.79C350.43,92.63 352.21,91.27 353.33,89.77C354.45,88.26 355.05,86.72 354.67,86.33C354.28,85.95 353.43,86.17 352.78,86.82C352.13,87.47 350.82,88.00 349.87,88.00C348.92,88.00 346.78,86.34 345.10,84.31C343.43,82.27 341.83,80.84 341.54,81.12C341.26,81.40 341.47,83.14 341.99,84.98C342.52,86.82 343.96,89.39 345.19,90.70C346.42,92.01 348.30,92.95 349.36,92.79zM439.56,93.00C440.78,93.00 442.84,92.14 444.14,91.09C446.20,89.42 446.50,88.31 446.50,82.43C446.50,78.36 446.06,75.54 445.38,75.30C444.74,75.08 443.99,76.67 443.61,79.03C443.24,81.36 441.90,84.19 440.52,85.57C439.14,86.95 436.92,88.00 435.37,88.00C432.65,88.00 432.65,88.00 435.00,90.50C436.29,91.88 438.35,93.00 439.56,93.00zM384.46,82.00C382.75,82.00 381.86,81.31 381.45,79.66C381.13,78.37 381.25,75.82 381.72,73.99C382.20,72.16 383.33,70.20 384.23,69.62C385.48,68.84 386.39,69.04 387.94,70.45C389.07,71.47 390.00,73.49 390.00,74.93C390.00,76.37 389.30,78.56 388.44,79.78C387.56,81.03 385.83,82.00 384.46,82.00zM400.28,79.00C398.77,79.00 397.56,78.12 396.81,76.48C396.03,74.76 395.95,72.76 396.58,70.23C397.24,67.54 398.10,66.41 399.65,66.19C401.00,66.00 402.40,66.74 403.40,68.17C404.28,69.42 405.00,71.83 405.00,73.52C405.00,75.22 404.46,77.14 403.80,77.80C403.14,78.46 401.56,79.00 400.28,79.00zM356.12,74.43C356.60,74.13 357.00,72.71 357.00,71.27C357.00,69.83 356.26,67.83 355.35,66.83C354.42,65.81 352.33,65.00 350.60,65.00C348.89,65.01 346.04,65.90 344.25,66.99C341.97,68.38 341.00,69.72 341.00,71.49C341.00,72.87 341.40,74.00 341.89,74.00C342.38,74.00 343.03,73.35 343.34,72.57C343.64,71.78 344.76,70.66 345.83,70.09C347.41,69.25 348.49,69.61 351.51,72.01C353.56,73.64 355.63,74.73 356.12,74.43zM430.85,73.00C431.31,73.00 432.49,72.12 433.47,71.04C434.44,69.96 436.76,68.57 438.62,67.96C440.48,67.35 442.00,66.19 442.00,65.40C442.00,64.60 440.81,63.50 439.37,62.95C437.35,62.18 436.16,62.32 434.32,63.53C433.00,64.39 431.48,66.24 430.96,67.62C430.43,69.00 430.00,70.78 430.00,71.57C430.00,72.35 430.38,73.00 430.85,73.00z"/>
</svg>