<?xml version="1.0" encoding="UTF-8" standalone="no"?>
<svg 
  version="1.1" 
  xmlns="http://www.w3.org/2000/svg" 
  xmlns:xlink="http://www.w3.org/1999/xlink" 
  xmlns:svg="http://www.w3.org/2000/svg"
  xmlns:rdf="http://www.w3.org/1999/02/22-rdf-syntax-ns#"
  xmlns:cc="http://creativecommons.org/ns#"
  xmlns:dc="http://purl.org/dc/elements/1.1/"
  viewBox="0 0 768 768"
  width="768"
  height="768"
>
<style>svg {background-color: white; }</style>"
<metadata id="metadata1">
Created by https://svgstud.io and licensed under CC-BY-SA 4.0 license. Please attribute https://svgstud.io
</metadata>
<metadata id="prompt">
turtle, vector illustration, monochrome
</metadata>
<metadata id="version">
7
</metadata>
<metadata id="metadata2">
<rdf:RDF>
<cc:Work
    rdf:about="">
    <cc:license
    rdf:resource="http://creativecommons.org/licenses/by-sa/4.0/" />
    <dc:creator>
        <cc:Agent>
            <dc:title>https://svgstud.io</dc:title>
        </cc:Agent>
    </dc:creator>
</cc:Work>
<cc:License
    rdf:about="http://creativecommons.org/licenses/by-sa/4.0/">
    <cc:permits
    rdf:resource="http://creativecommons.org/ns#Reproduction" />
    <cc:permits
    rdf:resource="http://creativecommons.org/ns#Distribution" />
    <cc:requires
    rdf:resource="http://creativecommons.org/ns#Notice" />
    <cc:requires
    rdf:resource="http://creativecommons.org/ns#Attribution" />
    <cc:permits
    rdf:resource="http://creativecommons.org/ns#DerivativeWorks" />
    <cc:requires
    rdf:resource="http://creativecommons.org/ns#ShareAlike" />
</cc:License>
</rdf:RDF>
</metadata>
<metadata id="uid">
73d8e173cf0329a1d8d16ca1ab5ca40cf9097d701b00a9796dea1f88cf3495ea
</metadata>
<path stroke="none" fill="black" fill-rule="evenodd" d="M298.23,719.96C296.73,719.94 293.93,719.22 292.00,718.37C290.07,717.52 281.78,714.62 273.57,711.92C264.79,709.04 255.74,705.30 251.57,702.83C247.68,700.53 241.79,695.91 238.47,692.57C234.93,689.01 230.90,683.56 228.73,679.38C226.69,675.46 224.26,669.38 223.33,665.88C222.15,661.41 221.65,655.62 221.67,646.50C221.70,636.77 222.27,630.99 223.95,623.50C225.18,618.00 228.45,606.76 231.21,598.53C233.97,590.29 239.38,577.11 243.23,569.23C247.09,561.35 250.01,554.68 249.74,554.41C249.46,554.13 244.35,552.62 238.37,551.05C232.39,549.48 221.20,545.85 213.50,542.99C205.80,540.13 191.49,533.57 181.70,528.40C171.91,523.23 163.48,519.00 162.96,519.00C162.44,519.00 160.62,520.91 158.91,523.25C157.21,525.59 154.96,529.17 153.91,531.22C152.85,533.26 151.52,537.15 150.94,539.85C150.10,543.76 150.22,546.07 151.50,551.13C152.39,554.63 154.89,561.00 157.06,565.28C159.23,569.56 161.90,575.73 163.00,579.00C164.10,582.27 165.00,587.23 165.00,590.03C165.00,592.84 164.49,596.11 163.87,597.32C163.25,598.52 161.19,601.41 159.30,603.75C157.41,606.09 155.23,608.00 154.46,608.00C153.68,608.00 152.37,606.68 151.53,605.06C150.69,603.44 147.74,599.39 144.97,596.06C142.19,592.73 139.49,590.00 138.96,590.00C138.43,590.00 138.00,590.38 138.00,590.83C138.00,591.29 140.43,595.68 143.41,600.58C146.38,605.48 148.64,609.78 148.42,610.13C148.20,610.49 144.24,610.54 139.61,610.26C134.99,609.97 130.04,610.03 128.60,610.38C126.86,610.82 126.00,611.71 126.00,613.08C126.00,614.21 125.53,616.00 124.96,617.07C124.40,618.13 123.07,619.00 122.02,619.00C120.97,619.00 117.96,617.86 115.34,616.47C112.72,615.07 108.17,613.23 105.23,612.38C102.30,611.53 99.28,611.06 98.54,611.35C97.80,611.63 96.89,613.21 96.53,614.85C96.17,616.49 95.27,618.06 94.54,618.35C93.80,618.63 92.14,618.60 90.85,618.29C89.56,617.97 86.50,616.38 84.05,614.75C81.61,613.13 75.92,610.10 71.42,608.02C66.50,605.75 61.56,602.56 59.02,600.02C56.70,597.70 53.62,593.26 52.17,590.15C49.72,584.89 49.54,583.53 49.54,570.50C49.54,562.07 50.25,551.93 51.32,545.00C52.29,538.67 53.97,529.77 55.04,525.20C56.11,520.64 58.21,514.41 59.70,511.35C61.20,508.30 64.11,503.88 66.18,501.53C68.25,499.18 73.97,494.50 78.90,491.12C83.83,487.75 89.17,483.67 90.78,482.07C92.38,480.46 94.29,477.72 95.01,475.97C96.02,473.54 96.07,472.05 95.22,469.65C94.61,467.92 93.21,462.90 92.10,458.50C91.00,454.10 89.79,447.47 89.41,443.76C89.03,440.05 88.22,436.64 87.61,436.18C87.00,435.72 84.25,434.53 81.50,433.53C78.75,432.53 73.95,430.44 70.84,428.88C67.72,427.33 62.41,423.76 59.04,420.95C55.66,418.14 50.24,412.49 46.98,408.40C43.73,404.30 40.53,399.16 39.87,396.96C38.77,393.28 38.86,392.78 41.04,390.45C42.45,388.95 46.06,387.17 49.96,386.05C53.56,385.01 62.50,382.74 69.84,381.02C77.18,379.29 84.15,377.43 85.34,376.88C86.53,376.33 89.61,373.09 92.18,369.69C94.75,366.29 100.31,356.99 104.53,349.03C108.74,341.07 114.96,330.51 118.35,325.56C121.73,320.62 128.54,312.34 133.48,307.17C138.41,302.00 147.19,293.63 152.98,288.56C158.76,283.49 167.10,276.49 171.50,273.01C175.90,269.52 183.55,264.00 188.50,260.73C193.45,257.46 203.80,251.70 211.50,247.92C219.42,244.03 232.66,238.69 242.00,235.61C251.07,232.62 265.48,228.80 274.00,227.14C282.52,225.47 292.81,223.62 296.86,223.03C300.91,222.43 309.69,221.67 316.36,221.34C323.04,221.01 336.38,221.27 346.00,221.92C355.62,222.57 369.08,223.99 375.90,225.07C382.72,226.16 392.66,228.15 397.98,229.50C403.30,230.84 412.12,233.51 417.58,235.41C423.04,237.32 432.05,240.85 437.61,243.27C443.17,245.69 450.60,249.28 454.11,251.25C457.62,253.22 464.10,257.59 468.50,260.95C472.90,264.32 479.02,269.00 482.10,271.35C486.41,274.64 489.75,276.15 496.60,277.95C501.50,279.23 507.52,281.34 510.00,282.64C512.48,283.94 515.47,285.70 516.65,286.56C518.75,288.08 518.85,287.96 520.92,281.75C522.08,278.26 525.03,271.89 527.47,267.61C529.91,263.32 533.58,257.77 535.63,255.28C537.67,252.78 542.08,248.71 545.42,246.22C548.77,243.74 554.73,240.20 558.68,238.35C562.64,236.51 566.18,235.00 566.56,235.00C566.94,235.00 566.67,235.70 565.96,236.55C565.25,237.40 560.09,241.64 554.48,245.97C548.88,250.29 542.64,256.09 540.62,258.84C538.59,261.60 535.43,267.15 533.59,271.18C531.74,275.20 529.45,281.65 528.49,285.50C527.17,290.79 526.76,296.37 526.82,308.32C526.88,318.29 527.50,327.33 528.51,332.73C529.40,337.45 531.17,343.38 532.46,345.90C533.74,348.43 536.57,352.52 538.75,355.00C540.93,357.48 543.06,360.58 543.47,361.90C544.09,363.87 543.94,364.19 542.62,363.65C541.73,363.29 540.33,362.73 539.50,362.39C538.57,362.02 538.00,362.35 538.00,363.26C538.00,364.07 538.93,365.92 540.08,367.37C541.22,368.82 544.14,371.37 546.56,373.04C548.99,374.71 554.24,377.48 558.24,379.19C562.23,380.90 569.10,383.14 573.50,384.18C577.90,385.21 586.67,386.33 593.00,386.66C599.81,387.02 608.75,386.78 614.93,386.06C620.66,385.39 629.66,383.75 634.92,382.42C640.18,381.08 647.83,378.40 651.92,376.46C656.00,374.52 661.87,371.40 664.96,369.53C668.04,367.65 673.16,363.60 676.33,360.53C679.51,357.46 686.02,352.44 690.80,349.37C695.59,346.30 700.51,342.86 701.75,341.72C702.99,340.58 704.00,339.07 704.00,338.36C704.00,337.44 701.57,337.00 695.25,336.79C686.93,336.51 686.51,336.39 686.73,334.32C686.95,332.14 686.95,332.14 680.23,334.02C676.53,335.05 671.49,336.60 669.04,337.48C666.58,338.35 658.26,340.44 650.54,342.13C642.82,343.82 635.02,345.81 633.21,346.56C631.40,347.32 627.35,350.13 624.21,352.81C621.07,355.50 616.35,359.15 613.72,360.92C611.09,362.69 606.54,365.24 603.61,366.58C600.68,367.92 595.76,369.48 592.66,370.05C588.66,370.79 585.22,370.77 580.77,369.97C577.32,369.36 572.61,367.76 570.30,366.42C567.99,365.07 565.83,363.54 565.50,363.00C565.12,362.39 568.29,362.05 573.93,362.09C581.50,362.15 583.83,361.76 588.35,359.70C591.31,358.34 596.15,355.67 599.11,353.77C602.08,351.86 609.45,346.14 615.50,341.05C621.55,335.97 628.60,330.74 631.17,329.43C633.74,328.12 640.41,325.23 646.00,323.00C651.60,320.77 662.50,315.31 670.23,310.87C677.96,306.42 687.42,301.46 691.25,299.83C695.07,298.20 701.61,296.00 705.76,294.93C709.92,293.87 715.96,293.00 719.19,293.00C723.02,293.00 725.23,292.56 725.55,291.73C725.82,291.03 724.04,282.76 721.59,273.34C718.93,263.11 715.73,253.43 713.64,249.27C711.71,245.44 708.92,240.87 707.45,239.12C705.97,237.36 703.41,235.23 701.76,234.38C699.77,233.34 693.89,232.53 684.13,231.95C673.50,231.31 667.72,230.47 663.00,228.86C657.44,226.97 654.23,226.64 640.84,226.58C632.22,226.53 624.86,226.82 624.47,227.20C624.08,227.59 626.51,230.53 629.88,233.73C633.50,237.18 636.00,240.39 636.00,241.61C636.00,242.74 635.72,243.95 635.37,244.30C635.02,244.64 632.44,242.90 629.62,240.42C626.80,237.94 621.18,234.26 617.12,232.24C610.29,228.84 609.11,228.58 601.12,228.63C594.72,228.68 591.02,229.27 586.75,230.92C583.58,232.14 578.80,234.88 576.11,237.01C572.79,239.63 570.22,242.88 568.11,247.10C566.40,250.52 565.00,254.12 565.00,255.10C565.00,256.08 565.50,257.19 566.11,257.57C566.73,257.95 569.70,255.63 572.94,252.23C576.09,248.92 580.60,245.23 582.96,244.02C585.32,242.82 589.56,241.60 592.38,241.32C595.27,241.03 600.22,241.44 603.75,242.27C607.19,243.07 610.00,243.50 610.00,243.22C610.00,242.94 608.31,241.18 606.25,239.31C602.50,235.92 602.50,235.92 606.00,236.57C607.92,236.93 611.62,238.11 614.20,239.21C616.88,240.35 621.03,243.46 623.86,246.44C626.58,249.32 630.29,254.56 632.10,258.09C634.67,263.10 635.38,265.70 635.35,270.00C635.33,273.24 634.58,276.94 633.53,279.00C632.55,280.93 629.26,285.78 626.22,289.78C623.17,293.78 618.89,298.67 616.71,300.64C614.53,302.62 610.21,305.42 607.12,306.86C602.32,309.11 600.18,309.49 592.50,309.46C583.50,309.42 583.50,309.42 580.50,313.38C578.85,315.55 575.28,318.85 572.57,320.72C568.80,323.30 566.79,324.03 564.07,323.80C561.05,323.55 560.34,323.01 559.47,320.30C558.90,318.54 558.14,316.80 557.78,316.45C557.42,316.09 555.60,316.97 553.72,318.40C551.55,320.06 549.04,321.00 546.80,321.00C544.88,321.00 541.87,320.50 540.13,319.89C538.38,319.29 536.52,317.97 535.98,316.96C535.44,315.95 535.00,313.50 535.00,311.50C535.00,308.19 535.20,307.93 537.25,308.57C538.49,308.96 540.57,310.11 541.88,311.14C543.20,312.16 545.26,313.00 546.48,313.00C547.70,313.00 549.43,312.18 550.35,311.17C551.26,310.17 552.00,307.92 552.00,306.17C552.00,304.43 552.41,303.00 552.90,303.00C553.40,303.00 554.73,304.57 555.87,306.50C557.00,308.43 558.31,310.00 558.77,310.00C559.23,310.00 561.13,308.43 563.00,306.50C564.87,304.57 566.77,303.00 567.23,303.00C567.69,303.00 568.31,303.65 568.62,304.44C568.92,305.24 567.78,307.91 566.09,310.38C564.39,312.84 563.00,315.57 563.00,316.43C563.00,317.38 563.87,318.00 565.18,318.00C566.39,318.00 569.29,317.07 571.65,315.93C574.07,314.75 576.85,312.35 578.07,310.38C580.22,306.90 580.22,306.90 573.06,299.99C566.60,293.76 565.59,293.13 562.84,293.68C560.78,294.09 559.51,293.84 558.91,292.90C558.43,292.13 558.02,290.95 558.02,290.28C558.01,289.62 559.35,287.53 561.00,285.65C562.65,283.77 564.00,281.79 564.00,281.24C564.00,280.69 562.88,277.79 561.50,274.78C560.13,271.78 558.72,266.62 558.37,263.31C557.98,259.57 558.21,255.82 558.98,253.40C559.65,251.25 562.03,246.37 564.27,242.55C566.50,238.73 569.49,234.52 570.91,233.20C572.34,231.87 575.52,229.76 578.00,228.51C580.48,227.25 584.30,225.70 586.50,225.06C588.70,224.42 596.35,223.49 603.50,223.00C610.65,222.50 622.12,221.59 629.00,220.97C635.88,220.35 645.33,220.15 650.00,220.53C654.67,220.91 661.20,222.10 664.50,223.19C668.43,224.48 675.28,225.44 684.35,225.99C696.95,226.75 698.78,227.11 704.56,229.96C708.79,232.04 712.63,234.99 716.03,238.79C718.84,241.93 722.89,248.10 725.02,252.50C727.47,257.56 729.65,264.23 730.95,270.66C732.08,276.24 733.00,284.25 733.00,288.46C733.00,293.05 732.44,297.18 731.60,298.80C730.83,300.29 728.19,303.34 725.73,305.58C721.57,309.37 721.09,310.34 719.04,319.08C717.83,324.26 715.43,331.88 713.72,336.00C712.01,340.12 707.00,348.90 702.58,355.50C698.17,362.10 691.05,371.16 686.75,375.64C682.45,380.12 674.39,387.10 668.84,391.14C663.29,395.19 653.90,402.32 647.98,407.00C642.05,411.68 633.61,417.64 629.22,420.25C624.83,422.86 617.95,426.01 613.93,427.25C608.07,429.06 605.48,430.56 600.80,434.88C597.58,437.84 592.27,443.60 588.98,447.68C585.70,451.76 582.73,456.24 582.38,457.63C582.03,459.01 582.22,460.62 582.79,461.19C583.37,461.77 588.69,463.56 594.61,465.17C600.54,466.78 608.42,469.69 612.11,471.63C615.81,473.57 621.72,477.94 625.23,481.33C628.75,484.72 634.62,492.02 638.27,497.53C641.93,503.05 646.11,510.25 647.57,513.53C649.03,516.82 651.24,522.88 652.49,527.00C653.73,531.12 655.93,539.90 657.38,546.50C658.83,553.10 660.26,559.55 660.55,560.82C660.91,562.41 662.58,563.81 665.79,565.22C668.38,566.36 673.04,569.01 676.14,571.11C679.24,573.21 683.87,577.30 686.44,580.21C689.00,583.12 692.47,588.36 694.15,591.86C696.02,595.75 697.42,600.52 697.74,604.11C698.22,609.41 698.09,610.00 696.39,609.99C695.35,609.99 691.58,609.09 688.00,608.00C684.42,606.91 681.05,606.02 680.50,606.02C679.95,606.03 678.95,606.38 678.28,606.80C677.34,607.40 677.39,608.79 678.52,613.04C679.32,616.04 679.98,620.14 679.99,622.15C680.00,625.26 679.49,626.10 676.52,627.85C673.41,629.69 671.82,629.86 661.27,629.46C654.80,629.22 642.41,628.82 633.75,628.56C621.91,628.21 618.00,628.40 617.99,629.30C617.99,629.96 617.52,632.19 616.95,634.25C616.18,637.00 615.37,638.00 613.88,638.00C612.77,638.00 604.58,636.21 595.68,634.02C583.29,630.98 577.15,628.87 569.48,625.03C563.97,622.27 557.71,618.32 555.57,616.26C553.44,614.19 550.59,610.02 549.24,607.00C547.90,603.98 546.18,598.58 545.42,595.00C544.66,591.42 544.03,584.67 544.02,580.00C544.01,575.33 544.52,566.65 545.17,560.72C545.93,553.62 546.00,549.60 545.35,548.95C544.70,548.30 540.62,551.08 533.43,557.07C527.42,562.08 518.51,568.64 513.64,571.66C508.77,574.68 499.54,579.76 493.14,582.95C486.74,586.15 475.88,590.57 469.00,592.79C462.12,595.00 451.77,597.74 446.00,598.87C440.23,600.00 431.98,601.39 427.68,601.96C423.38,602.53 413.48,603.29 405.68,603.64C397.12,604.02 385.98,603.79 377.55,603.05C364.37,601.89 363.53,601.93 362.26,603.66C361.52,604.67 359.76,609.19 358.35,613.70C356.21,620.57 355.86,623.32 356.20,630.70C356.44,636.15 357.24,640.83 358.28,643.00C359.21,644.92 362.91,650.75 366.51,655.95C370.64,661.93 373.77,667.76 375.02,671.81C376.11,675.33 376.99,680.53 376.99,683.36C376.98,686.18 376.33,690.94 375.53,693.92C374.74,696.90 373.42,700.01 372.60,700.83C371.28,702.15 370.41,702.01 364.98,699.57C361.03,697.80 357.99,697.04 356.44,697.43C355.11,697.76 353.37,699.04 352.57,700.27C351.77,701.49 350.66,705.32 350.11,708.76C349.56,712.20 348.83,715.46 348.50,716.01C348.16,716.55 346.73,717.00 345.32,717.00C343.92,717.00 340.55,715.37 337.84,713.38C333.09,709.90 332.84,709.83 330.96,711.53C329.22,713.11 327.63,713.23 315.99,712.61C305.77,712.07 302.88,712.20 302.57,713.21C302.35,713.92 301.90,715.74 301.56,717.25C301.08,719.45 300.41,719.99 298.23,719.96zM296.25,714.15C296.79,713.61 295.31,704.40 292.61,691.45C288.07,669.65 288.07,669.65 283.83,665.32C280.40,661.83 278.90,661.00 276.04,661.00C274.09,661.01 271.06,661.89 269.30,662.96C267.54,664.03 265.40,666.26 264.55,667.91C263.70,669.55 263.00,673.00 263.00,675.56C263.00,678.51 263.81,681.66 265.18,684.11C266.39,686.25 267.67,688.00 268.04,688.00C268.42,688.00 268.99,685.77 269.31,683.04C269.63,680.32 270.63,676.98 271.52,675.61C273.12,673.17 273.16,673.16 275.07,675.07C276.13,676.13 277.68,677.00 278.50,677.00C279.50,677.00 280.00,678.00 280.00,679.97C280.00,681.60 280.73,685.08 281.62,687.72C282.51,690.35 285.22,696.75 287.64,701.95C290.07,707.14 292.79,712.22 293.70,713.22C294.68,714.31 295.72,714.68 296.25,714.15zM345.15,710.00C345.62,710.00 346.00,709.16 346.00,708.13C346.00,707.10 344.88,702.81 343.50,698.60C342.13,694.39 339.67,688.32 338.05,685.09C336.42,681.87 330.66,674.12 325.24,667.87C315.46,656.58 315.36,656.50 310.59,656.19C307.13,655.97 305.26,656.36 303.89,657.60C302.85,658.54 302.00,660.14 302.00,661.15C302.00,662.16 302.90,663.55 304.00,664.23C305.27,665.03 306.01,666.58 306.02,668.49C306.02,670.15 306.42,672.12 306.91,672.88C307.52,673.86 308.81,674.07 311.29,673.61C314.57,672.99 315.19,673.34 321.23,679.22C324.77,682.68 330.72,690.23 334.44,696.00C338.16,701.77 341.91,707.29 342.76,708.25C343.61,709.21 344.69,710.00 345.15,710.00zM303.57,689.00C304.36,689.00 305.00,688.15 305.00,687.11C305.00,686.07 304.17,684.20 303.16,682.94C301.98,681.49 300.72,680.90 299.66,681.30C298.75,681.65 298.00,682.34 298.00,682.83C298.00,683.33 298.93,684.92 300.07,686.37C301.21,687.81 302.79,689.00 303.57,689.00zM371.18,688.00C371.58,688.00 371.27,686.17 370.48,683.94C369.69,681.71 367.37,676.69 365.32,672.80C363.14,668.64 359.07,663.18 355.48,659.59C352.11,656.22 347.45,652.60 345.12,651.56C341.95,650.13 340.24,649.88 338.25,650.58C336.80,651.09 334.75,652.98 333.70,654.78C332.22,657.32 332.05,658.36 332.96,659.45C333.86,660.54 334.79,660.62 337.11,659.81C338.76,659.24 340.38,659.04 340.71,659.38C341.05,659.72 340.80,661.14 340.16,662.54C339.52,663.95 339.00,666.17 339.00,667.49C339.00,668.80 339.49,670.18 340.08,670.55C340.68,670.92 342.39,670.04 343.89,668.61C345.38,667.17 347.62,666.00 348.86,666.00C350.20,666.00 353.29,668.05 356.44,671.03C359.36,673.80 363.71,678.75 366.10,682.03C368.50,685.31 370.78,688.00 371.18,688.00zM252.15,660.89C252.51,660.95 254.26,658.41 256.04,655.25C257.81,652.09 261.02,647.81 263.18,645.74C265.33,643.68 271.72,639.73 277.38,636.97C283.03,634.21 288.97,631.91 290.58,631.86C292.19,631.81 298.23,631.85 304.00,631.94C311.42,632.06 317.39,632.84 324.37,634.60C329.80,635.97 334.49,636.84 334.80,636.53C335.11,636.22 334.95,635.56 334.43,635.06C333.92,634.57 329.54,632.53 324.70,630.54C316.36,627.10 315.23,626.90 303.20,626.66C296.21,626.53 288.93,626.82 287.00,627.32C285.07,627.81 281.53,629.54 279.12,631.16C276.71,632.78 271.27,635.85 267.03,637.99C262.79,640.12 257.83,643.11 256.02,644.64C254.20,646.17 250.95,649.66 248.78,652.40C244.84,657.38 244.84,657.38 248.17,659.08C250.00,660.02 251.79,660.83 252.15,660.89zM267.37,657.68C268.54,657.39 271.30,656.47 273.50,655.63C275.70,654.78 279.19,654.07 281.25,654.04C284.37,654.01 285.00,653.65 285.00,651.91C285.00,650.70 286.95,648.06 289.67,645.60C292.83,642.73 294.08,640.94 293.53,640.06C292.96,639.12 291.10,638.89 287.02,639.26C283.89,639.55 279.79,640.57 277.91,641.54C276.04,642.50 272.64,644.82 270.36,646.68C268.08,648.54 265.67,651.37 265.01,652.97C264.35,654.57 264.13,656.40 264.52,657.03C264.91,657.67 266.19,657.96 267.37,657.68zM317.45,653.42C319.07,653.17 321.43,652.29 322.70,651.46C323.96,650.63 325.00,649.07 325.00,647.99C325.00,646.80 323.37,644.95 320.84,643.28C317.48,641.05 315.31,640.46 309.59,640.19C302.88,639.88 302.30,640.03 298.75,643.01C296.36,645.01 295.00,647.00 295.00,648.51C295.00,649.82 295.47,651.17 296.04,651.52C296.61,651.88 299.35,651.58 302.13,650.87C306.79,649.68 307.45,649.74 310.84,651.72C313.17,653.08 315.57,653.70 317.45,653.42zM243.43,643.00C247.04,643.00 248.63,642.38 251.47,639.90C253.41,638.19 255.00,636.11 255.00,635.28C255.00,634.22 254.33,633.93 252.75,634.30C251.51,634.59 248.07,635.52 245.10,636.37C242.13,637.21 239.26,638.34 238.72,638.88C238.18,639.42 238.01,640.57 238.34,641.43C238.76,642.53 240.27,643.00 243.43,643.00zM264.36,631.70C267.83,631.37 271.87,630.56 273.34,629.89C274.80,629.22 276.00,628.34 276.00,627.92C276.00,627.50 273.73,626.41 270.95,625.48C268.18,624.56 264.86,624.07 263.58,624.39C262.30,624.71 260.22,625.81 258.96,626.83C257.39,628.10 256.88,629.26 257.36,630.49C257.96,632.05 258.88,632.21 264.36,631.70zM612.06,631.00C612.61,631.00 613.31,630.35 613.62,629.55C613.92,628.76 613.42,625.50 612.50,622.30C611.57,619.11 609.22,613.45 607.27,609.72C605.32,605.99 602.40,601.83 600.78,600.47C599.17,599.11 596.79,598.00 595.50,598.00C594.16,598.00 592.27,599.11 591.11,600.58C590.00,602.00 588.79,604.08 588.44,605.19C588.05,606.42 588.39,607.81 589.28,608.71C590.40,609.83 591.25,609.94 592.73,609.15C594.20,608.36 595.23,608.47 596.83,609.59C598.01,610.42 600.20,613.21 601.69,615.80C603.19,618.38 605.91,622.86 607.74,625.75C609.57,628.64 611.51,631.00 612.06,631.00zM674.15,627.00C675.26,627.00 676.21,626.01 676.61,624.41C677.09,622.49 676.10,619.49 672.70,612.66C670.19,607.62 666.34,600.72 664.15,597.33C661.95,593.94 657.97,589.44 655.30,587.33C652.63,585.22 648.57,582.66 646.29,581.63C643.75,580.48 641.15,580.00 639.63,580.38C638.26,580.72 636.85,581.90 636.50,582.99C636.15,584.09 636.15,585.44 636.49,585.99C636.84,586.55 637.92,587.00 638.90,587.00C639.88,587.00 643.89,589.25 647.82,592.01C651.74,594.76 656.72,599.37 658.89,602.26C661.06,605.14 663.97,610.09 665.36,613.25C666.75,616.41 667.44,619.00 666.90,619.00C666.35,619.00 667.35,620.80 669.12,623.00C670.89,625.20 673.15,627.00 674.15,627.00zM254.50,622.74C256.03,622.55 256.45,621.83 256.30,619.66C256.19,618.10 255.57,616.19 254.93,615.41C254.28,614.64 252.07,614.00 250.00,614.00C247.86,614.00 245.70,614.65 244.98,615.52C244.28,616.36 244.00,617.33 244.35,617.68C244.70,618.03 246.67,619.36 248.74,620.65C250.81,621.93 253.40,622.87 254.50,622.74zM325.00,621.85C327.48,621.91 330.11,621.58 330.86,621.11C331.68,620.59 331.82,620.01 331.22,619.64C330.68,619.30 327.22,618.33 323.53,617.47C319.85,616.62 315.97,616.19 314.92,616.53C313.86,616.86 313.00,617.50 313.00,617.94C313.00,618.39 313.56,619.22 314.25,619.78C314.94,620.35 316.62,621.02 318.00,621.27C319.38,621.52 322.52,621.78 325.00,621.85zM299.32,620.63C302.04,620.43 304.86,619.57 305.78,618.65C306.81,617.62 307.06,616.68 306.46,616.12C305.93,615.62 302.09,614.92 297.93,614.54C292.13,614.02 290.10,614.18 289.24,615.22C288.62,615.96 288.44,617.09 288.84,617.73C289.23,618.38 290.67,619.37 292.03,619.94C293.39,620.51 296.67,620.82 299.32,620.63zM277.18,620.00C279.26,620.00 281.57,619.29 282.50,618.36C283.94,616.92 283.96,616.54 282.68,615.25C281.87,614.45 278.62,613.18 275.44,612.45C271.41,611.51 269.10,611.41 267.78,612.12C266.73,612.68 266.02,613.89 266.19,614.82C266.36,615.74 268.08,617.29 270.00,618.25C271.93,619.21 275.16,620.00 277.18,620.00zM665.25,618.96C665.66,618.98 666.00,618.57 666.00,618.05C666.00,617.52 662.78,614.32 658.84,610.93C654.91,607.55 649.17,603.20 646.09,601.27C643.02,599.34 638.25,596.24 635.50,594.40C632.75,592.55 629.11,590.76 627.41,590.42C625.24,590.00 623.83,590.31 622.66,591.48C621.75,592.39 621.01,593.45 621.02,593.82C621.04,594.19 622.87,595.85 625.09,597.49C627.31,599.14 630.24,601.94 631.61,603.73C632.97,605.51 635.01,607.47 636.15,608.08C637.79,608.96 638.95,608.80 641.64,607.35C645.05,605.52 645.07,605.52 650.28,608.26C653.15,609.76 657.52,612.78 660.00,614.96C662.48,617.13 664.84,618.93 665.25,618.96zM120.01,613.00C120.56,613.00 121.00,611.70 121.00,610.11C121.00,608.52 119.87,603.32 118.49,598.55C117.11,593.79 114.88,587.77 113.55,585.19C112.21,582.61 108.26,577.46 104.77,573.75C99.25,567.87 97.97,567.00 94.87,567.00C92.55,567.00 90.07,567.95 87.69,569.75C85.69,571.26 83.80,573.27 83.48,574.21C83.15,575.15 83.38,576.84 83.98,577.96C84.58,579.08 85.84,580.00 86.79,579.99C87.73,579.99 89.85,579.09 91.50,578.00C93.15,576.91 95.51,576.01 96.75,576.01C97.99,576.00 99.00,576.38 99.00,576.85C99.00,577.31 98.29,579.11 97.43,580.84C96.56,582.59 96.15,584.89 96.51,586.02C97.05,587.73 97.71,587.96 100.50,587.43C103.58,586.86 104.05,587.12 106.29,590.67C107.63,592.79 109.97,596.99 111.50,600.00C113.03,603.01 115.34,607.17 116.65,609.24C117.96,611.31 119.47,613.00 120.01,613.00zM89.12,612.00C89.60,612.00 90.00,610.69 90.00,609.10C90.00,607.50 89.14,601.90 88.08,596.65C87.02,591.40 85.56,585.85 84.82,584.30C83.90,582.39 82.72,581.50 81.08,581.50C79.34,581.50 78.17,582.50 76.76,585.23C74.85,588.91 74.85,588.98 76.79,591.73C77.87,593.25 80.22,597.42 82.01,601.00C83.81,604.57 85.94,608.51 86.76,609.75C87.57,610.99 88.63,612.00 89.12,612.00zM261.34,609.81C263.66,609.58 264.50,609.00 264.50,607.61C264.50,606.57 263.72,605.23 262.76,604.62C261.39,603.76 260.58,603.97 258.89,605.66C257.72,606.84 257.08,608.32 257.47,608.96C257.87,609.59 259.61,609.97 261.34,609.81zM298.82,608.99C298.99,608.99 300.00,608.53 301.07,607.96C302.13,607.40 303.00,606.02 303.00,604.91C303.00,603.42 301.53,602.24 297.35,600.39C294.25,599.02 291.33,598.27 290.86,598.74C290.40,599.20 290.85,601.13 291.87,603.04C292.88,604.94 294.79,607.06 296.11,607.74C297.42,608.41 298.64,608.98 298.82,608.99zM321.00,608.42C322.93,608.22 326.75,607.76 329.50,607.39C332.25,607.03 335.51,606.35 336.75,605.89C337.99,605.43 339.00,604.38 339.00,603.56C339.00,602.74 338.13,601.60 337.07,601.04C336.00,600.47 333.41,600.00 331.32,599.99C329.22,599.99 325.81,599.52 323.74,598.95C321.56,598.34 319.08,596.67 317.81,594.95C316.52,593.21 314.70,592.00 313.38,592.00C312.14,592.00 310.20,593.20 309.02,594.71C307.52,596.61 307.08,598.17 307.52,599.96C307.86,601.36 308.68,603.62 309.33,605.00C310.14,606.70 311.64,607.71 314.01,608.14C315.93,608.49 319.07,608.62 321.00,608.42zM282.55,607.91C284.23,607.96 286.14,607.46 286.80,606.80C287.46,606.14 288.00,604.62 288.00,603.42C288.00,602.22 287.44,600.79 286.75,600.23C286.06,599.67 282.65,598.49 279.17,597.61C275.69,596.72 271.77,596.00 270.45,596.00C269.14,596.00 267.62,596.84 267.07,597.86C266.38,599.16 266.44,600.16 267.29,601.18C267.95,601.98 269.81,603.45 271.41,604.45C273.02,605.45 275.49,606.61 276.91,607.04C278.34,607.48 280.87,607.87 282.55,607.91zM692.16,606.00C692.56,606.00 692.46,604.75 691.93,603.23C691.40,601.71 688.92,597.86 686.43,594.68C683.94,591.51 680.18,587.69 678.07,586.20C675.97,584.72 673.71,582.03 673.05,580.23C672.21,577.92 670.33,576.08 666.68,573.99C663.83,572.36 660.50,571.01 659.27,571.01C657.99,571.00 656.35,572.07 655.39,573.53C654.48,574.92 653.90,576.18 654.11,576.33C654.33,576.47 656.98,578.26 660.01,580.30C663.04,582.33 666.31,584.00 667.27,584.00C668.24,584.00 674.06,588.95 680.22,595.00C686.38,601.05 691.75,606.00 692.16,606.00zM155.98,598.51C156.54,598.17 157.00,595.99 157.00,593.68C157.00,591.38 156.55,587.92 156.00,586.00C155.45,584.09 153.38,580.16 151.39,577.27C149.40,574.38 146.31,571.12 144.52,570.01C142.73,568.90 139.91,568.00 138.25,568.00C136.60,568.00 134.68,568.69 133.98,569.52C133.28,570.36 132.89,571.16 133.11,571.31C133.32,571.45 134.76,572.20 136.30,572.98C137.83,573.75 140.76,575.83 142.80,577.58C144.83,579.34 147.27,582.29 148.21,584.14C149.15,585.99 151.05,590.12 152.44,593.32C153.85,596.60 155.40,598.87 155.98,598.51zM253.78,599.00C254.32,599.00 255.27,598.38 255.90,597.62C256.53,596.86 258.33,595.98 259.90,595.67C261.46,595.36 263.02,594.40 263.34,593.55C263.67,592.70 263.68,591.32 263.36,590.49C263.04,589.66 261.59,588.72 260.14,588.40C258.69,588.08 255.29,587.13 252.59,586.28C247.97,584.82 247.59,584.84 246.34,586.56C245.60,587.56 245.00,588.99 245.00,589.72C245.00,590.46 246.53,591.97 248.39,593.07C250.26,594.17 252.02,595.95 252.30,597.04C252.58,598.12 253.25,599.00 253.78,599.00zM298.53,594.92C299.64,594.96 301.56,594.30 302.78,593.44C304.03,592.57 305.00,590.83 305.00,589.47C305.00,587.71 303.53,585.98 299.57,583.05C296.59,580.85 293.86,578.58 293.50,578.01C293.15,577.43 292.44,577.23 291.93,577.54C291.42,577.86 291.00,576.98 291.00,575.59C291.00,574.12 290.19,572.64 289.07,572.04C288.00,571.47 286.63,571.00 286.02,571.00C285.41,571.00 282.65,573.12 279.88,575.71C277.11,578.30 274.43,581.19 273.92,582.14C273.35,583.21 273.37,584.83 273.95,586.37C274.48,587.75 275.82,589.37 276.93,589.96C278.05,590.56 280.13,590.75 281.57,590.39C283.00,590.03 285.49,587.93 287.09,585.72C288.69,583.51 290.00,581.94 290.00,582.23C290.00,582.52 289.33,584.37 288.51,586.33C287.01,589.91 287.01,589.91 291.76,592.38C294.36,593.73 297.41,594.88 298.53,594.92zM328.32,590.99C330.96,590.99 334.00,590.53 335.07,589.96C336.13,589.40 337.00,588.33 337.00,587.59C337.00,586.85 334.86,585.34 332.25,584.24C329.64,583.13 326.47,581.92 325.20,581.53C323.73,581.09 322.00,581.43 320.39,582.48C318.73,583.57 317.98,584.86 318.19,586.29C318.36,587.48 319.62,589.02 321.00,589.71C322.38,590.40 325.67,590.98 328.32,590.99zM129.58,588.93C130.36,588.28 131.00,586.67 131.00,585.34C131.00,584.01 130.12,581.19 129.04,579.08C127.96,576.96 125.73,573.88 124.08,572.23C122.43,570.59 119.87,568.93 118.38,568.56C116.38,568.06 115.15,568.40 113.67,569.89C112.00,571.56 111.88,572.15 112.95,573.45C113.66,574.30 114.78,575.00 115.44,575.00C116.09,575.00 117.77,576.24 119.17,577.75C120.56,579.26 123.16,582.66 124.94,585.30C127.56,589.21 128.43,589.89 129.58,588.93zM68.42,582.99C69.01,582.98 71.66,580.90 74.29,578.36C76.93,575.82 78.92,573.24 78.71,572.62C78.51,572.01 77.26,571.37 75.92,571.21C74.24,571.01 72.35,572.05 69.75,574.58C67.69,576.58 66.00,579.00 66.00,579.95C66.00,580.89 66.30,581.97 66.67,582.33C67.03,582.70 67.82,582.99 68.42,582.99zM265.21,583.00C266.95,583.00 268.34,582.24 269.06,580.89C269.87,579.37 269.88,578.48 269.09,577.69C268.49,577.09 268.00,576.21 268.00,575.73C268.00,575.26 268.88,575.14 269.95,575.48C271.02,575.82 273.25,575.41 274.89,574.56C276.53,573.71 278.58,572.01 279.44,570.78C280.30,569.56 281.00,568.22 281.00,567.81C281.00,567.40 280.06,566.57 278.90,565.95C277.50,565.19 273.73,565.06 267.40,565.53C260.72,566.03 258.00,566.61 258.00,567.54C258.00,568.25 259.57,569.81 261.50,571.00C263.43,572.19 265.00,573.61 265.00,574.16C265.00,574.71 263.31,575.07 261.25,574.98C259.19,574.88 256.91,574.85 256.18,574.90C255.40,574.96 254.99,575.92 255.18,577.25C255.38,578.65 256.83,580.16 259.00,581.25C260.93,582.21 263.72,583.00 265.21,583.00zM310.00,580.96C310.82,580.96 313.30,579.95 315.50,578.70C318.47,577.02 319.50,575.80 319.50,573.97C319.50,572.03 318.00,570.49 312.50,566.78C307.59,563.46 304.48,562.05 302.06,562.03C299.89,562.01 297.78,562.80 296.31,564.17C295.04,565.37 294.00,567.36 294.00,568.60C294.00,569.99 295.55,572.17 298.08,574.34C300.32,576.26 303.58,578.53 305.33,579.39C307.07,580.25 309.18,580.96 310.00,580.96zM341.57,578.95C342.16,578.98 343.62,577.88 344.81,576.50C346.01,575.12 347.44,574.00 347.99,574.00C348.55,574.00 349.00,573.11 349.00,572.02C349.00,570.94 347.99,569.41 346.75,568.63C345.51,567.84 341.70,566.20 338.27,564.98C332.36,562.86 331.91,562.83 329.47,564.43C328.06,565.35 326.43,567.16 325.84,568.44C325.11,570.06 325.10,571.35 325.81,572.64C326.40,573.70 329.78,575.45 333.67,576.70C337.43,577.91 340.98,578.92 341.57,578.95zM624.74,577.00C626.74,577.00 630.24,576.10 632.52,574.99C634.80,573.89 637.72,571.86 639.00,570.50C640.29,569.13 641.01,567.68 640.62,567.28C640.22,566.88 637.78,567.38 635.19,568.38C632.61,569.38 628.35,570.99 625.73,571.96C623.11,572.92 620.70,573.97 620.38,574.29C620.06,574.61 620.10,575.35 620.46,575.93C620.82,576.52 622.75,577.00 624.74,577.00zM423.79,573.83C428.35,573.92 435.48,573.30 439.63,572.44C443.78,571.58 448.38,570.35 449.84,569.71C452.32,568.61 452.12,568.51 446.81,568.22C443.69,568.05 436.13,568.60 430.03,569.45C423.93,570.30 416.47,571.00 413.47,571.00C410.46,571.00 408.00,571.42 408.00,571.94C408.00,572.46 409.69,573.06 411.75,573.27C413.81,573.49 419.23,573.74 423.79,573.83zM76.00,567.33C79.12,567.01 84.74,565.26 89.00,563.29C96.43,559.84 96.60,559.82 106.62,560.43C113.04,560.82 117.80,560.65 119.62,559.95C122.16,558.99 122.29,558.74 120.75,557.88C119.79,557.34 115.52,556.43 111.25,555.86C106.99,555.29 101.70,554.61 99.50,554.35C96.16,553.96 94.59,554.48 90.03,557.44C87.03,559.40 83.65,561.00 82.53,561.00C81.42,561.00 78.03,561.92 75.00,563.04C71.97,564.16 68.83,565.34 68.00,565.65C66.80,566.10 66.89,566.38 68.50,567.06C69.60,567.52 72.97,567.64 76.00,567.33zM619.84,567.00C624.45,567.00 627.29,566.49 628.90,565.36C630.86,563.98 631.00,563.58 629.73,562.87C628.89,562.40 624.76,562.46 620.45,563.01C616.17,563.55 612.48,564.19 612.24,564.43C612.00,564.67 612.10,565.35 612.46,565.93C612.82,566.52 616.14,567.00 619.84,567.00zM319.40,563.69C322.31,563.55 323.79,562.84 325.23,560.91C327.01,558.51 327.04,558.04 325.66,554.74C324.84,552.77 323.23,550.66 322.08,550.04C320.56,549.23 318.89,549.22 315.98,550.00C313.78,550.60 310.38,552.48 308.44,554.19C306.50,555.89 305.04,557.94 305.20,558.74C305.37,559.53 307.75,561.01 310.50,562.03C313.25,563.04 317.26,563.79 319.40,563.69zM285.92,562.96C287.25,562.98 289.17,562.26 290.17,561.35C291.18,560.43 292.00,559.16 292.00,558.50C292.00,557.85 290.95,555.33 289.66,552.91C287.55,548.95 286.97,548.51 283.91,548.64C282.03,548.72 278.25,549.34 275.50,550.01C272.75,550.68 269.94,551.68 269.25,552.24C268.56,552.79 268.00,553.55 268.00,553.92C268.00,554.30 270.14,555.37 272.75,556.31C275.36,557.25 278.85,559.13 280.50,560.48C282.15,561.82 284.59,562.94 285.92,562.96zM345.10,559.80C349.48,559.59 351.59,559.03 352.31,557.88C353.07,556.67 352.77,555.49 351.16,553.23C349.97,551.56 349.00,549.00 349.00,547.55C349.00,546.08 347.91,543.82 346.54,542.44C344.24,540.15 343.58,540.02 336.79,540.55C332.78,540.87 328.49,541.33 327.25,541.58C325.70,541.90 325.00,542.75 325.00,544.35C325.00,545.91 327.28,548.87 331.95,553.38C338.91,560.10 338.91,560.10 345.10,559.80zM624.34,555.49C627.56,555.23 632.21,554.12 634.68,553.02C637.35,551.84 639.00,550.52 638.74,549.77C638.45,548.95 636.52,548.54 633.28,548.63C630.53,548.70 624.36,549.31 619.59,549.99C614.33,550.73 611.05,551.64 611.26,552.29C611.46,552.88 613.17,553.95 615.06,554.67C617.14,555.46 620.80,555.78 624.34,555.49zM75.50,554.65C76.78,554.55 77.50,553.78 77.50,552.50C77.50,550.88 76.83,550.50 74.01,550.50C71.56,550.50 70.43,550.99 70.21,552.17C70.02,553.11 70.67,554.04 71.69,554.32C72.69,554.58 74.40,554.73 75.50,554.65zM299.72,553.97C299.83,553.99 301.31,552.65 303.00,551.00C304.69,549.35 307.11,548.00 308.39,548.00C309.66,548.00 312.22,546.98 314.08,545.73C315.93,544.48 318.11,542.27 318.93,540.82C320.16,538.63 320.18,537.93 319.08,536.60C318.31,535.67 316.24,535.00 314.13,535.01C312.13,535.02 308.11,535.66 305.20,536.44C302.28,537.21 297.91,539.34 295.48,541.17C293.05,543.00 291.05,545.21 291.03,546.08C291.01,546.94 292.01,548.57 293.25,549.69C294.49,550.81 296.40,552.22 297.50,552.83C298.60,553.44 299.60,553.95 299.72,553.97zM91.32,548.99C92.33,548.67 93.16,547.97 93.17,547.45C93.19,546.93 91.30,545.95 88.98,545.28C86.00,544.42 84.19,544.36 82.82,545.10C81.75,545.67 81.05,546.67 81.27,547.32C81.48,547.97 83.42,548.74 85.58,549.04C87.74,549.34 90.32,549.32 91.32,548.99zM364.61,549.62C367.73,549.25 370.66,548.71 371.14,548.42C371.61,548.12 372.00,547.09 372.00,546.12C372.00,545.14 370.99,543.43 369.75,542.30C368.51,541.17 366.38,539.66 365.00,538.95C363.62,538.23 360.71,537.32 358.51,536.92C356.32,536.51 353.73,536.61 352.76,537.13C351.79,537.65 351.00,538.94 351.00,539.99C351.00,541.05 352.79,543.80 354.98,546.10C358.96,550.28 358.96,550.28 364.61,549.62zM442.00,546.46C458.96,546.19 471.19,545.45 481.73,544.04C490.11,542.93 502.04,540.91 508.23,539.57C514.43,538.22 521.33,536.46 523.57,535.67C525.81,534.87 529.89,533.08 532.63,531.69C535.38,530.29 538.27,528.37 539.06,527.42C540.37,525.83 540.28,525.73 538.00,526.23C536.62,526.54 532.00,527.72 527.72,528.86C523.45,530.00 514.67,531.61 508.22,532.44C501.78,533.27 490.43,534.67 483.00,535.56C475.57,536.44 462.30,537.84 453.50,538.66C442.57,539.69 432.66,539.97 422.24,539.54C406.98,538.92 406.98,538.92 405.96,541.60C405.40,543.07 405.22,544.55 405.55,544.88C405.88,545.22 408.71,545.80 411.83,546.17C414.95,546.54 428.52,546.68 442.00,546.46zM625.00,546.00C625.97,546.00 628.37,545.33 630.34,544.50C632.31,543.68 635.52,541.61 637.46,539.90C639.41,538.19 641.00,536.34 641.00,535.79C641.00,535.24 639.96,535.04 638.68,535.36C637.41,535.68 632.86,537.54 628.58,539.49C621.99,542.50 620.98,543.27 622.02,544.52C622.69,545.33 624.03,546.00 625.00,546.00zM96.25,540.93C96.66,540.97 97.00,540.44 96.99,539.75C96.99,539.06 95.50,537.49 93.68,536.25C91.86,535.01 89.39,534.00 88.19,534.00C86.68,534.00 86.00,534.61 86.00,535.97C86.00,537.45 87.19,538.30 90.75,539.40C93.36,540.20 95.84,540.89 96.25,540.93zM78.43,538.69C79.02,538.50 79.64,537.39 79.81,536.23C80.01,534.90 79.27,533.57 77.78,532.59C76.49,531.74 74.32,530.93 72.97,530.78C71.09,530.57 70.50,530.97 70.50,532.46C70.50,533.58 71.98,535.42 73.93,536.73C75.82,538.00 77.84,538.89 78.43,538.69zM284.67,539.00C287.01,539.00 290.48,538.26 292.37,537.36C294.26,536.46 296.29,534.65 296.89,533.34C297.83,531.27 297.68,530.83 295.74,530.06C294.51,529.56 292.60,528.81 291.50,528.38C289.86,527.74 290.13,527.54 293.00,527.26C294.93,527.08 297.74,526.44 299.26,525.84C300.89,525.20 302.29,523.71 302.66,522.24C303.14,520.32 302.72,519.29 300.89,517.88C298.66,516.17 298.63,516.04 300.51,516.02C301.61,516.01 304.07,516.45 305.98,517.00C307.89,517.54 310.21,517.75 311.13,517.46C312.06,517.16 313.09,516.20 313.43,515.32C313.77,514.44 313.79,512.93 313.49,511.96C313.18,510.99 311.41,509.47 309.56,508.60C307.71,507.72 305.08,507.00 303.71,507.00C301.94,507.00 297.68,510.24 288.87,518.30C282.07,524.52 275.46,531.16 274.18,533.05C271.84,536.50 271.84,536.50 275.17,536.82C277.00,537.00 278.93,537.56 279.45,538.07C279.97,538.58 282.32,539.00 284.67,539.00zM379.75,537.19C380.44,536.97 381.00,535.91 381.00,534.84C381.00,533.77 380.27,531.46 379.37,529.70C378.47,527.94 376.22,524.42 374.37,521.87C372.52,519.32 370.05,516.99 368.89,516.68C367.36,516.28 365.64,517.20 362.64,520.02C358.50,523.91 358.50,523.91 363.65,529.10C367.04,532.51 370.47,534.85 373.65,535.94C376.32,536.85 379.06,537.41 379.75,537.19zM617.05,537.92C620.45,537.98 622.77,537.26 626.17,535.11C628.68,533.51 631.91,530.68 633.34,528.80C634.77,526.93 636.62,523.75 637.46,521.75C638.30,519.75 638.71,517.41 638.38,516.56C638.05,515.70 637.58,515.00 637.33,515.00C637.07,515.00 635.89,515.50 634.68,516.11C633.48,516.72 629.12,520.53 625.00,524.57C620.88,528.61 615.81,532.62 613.75,533.47C611.69,534.33 610.00,535.43 610.00,535.93C610.00,536.43 610.56,537.06 611.25,537.34C611.94,537.62 614.55,537.88 617.05,537.92zM334.71,537.00C340.82,537.00 342.09,536.70 342.96,535.07C343.53,534.01 343.74,532.48 343.42,531.66C343.11,530.85 341.43,529.58 339.68,528.84C337.93,528.10 333.12,527.50 329.00,527.50C321.58,527.50 321.50,527.53 321.19,530.23C320.93,532.40 321.54,533.36 324.19,534.97C326.70,536.51 329.24,536.99 334.71,537.00zM420.75,533.43C426.11,533.19 437.25,532.30 445.50,531.45C453.75,530.59 468.82,528.78 479.00,527.40C489.18,526.03 503.12,523.77 510.00,522.38C516.88,520.99 526.43,518.54 531.24,516.95C536.04,515.35 542.21,512.91 544.95,511.53C547.69,510.14 551.60,507.54 553.64,505.75C555.68,503.96 558.62,500.50 560.18,498.05C561.73,495.61 563.00,492.97 563.00,492.20C563.00,491.42 560.20,493.37 556.79,496.54C553.37,499.70 548.31,503.35 545.54,504.64C542.77,505.93 539.15,506.98 537.50,506.98C534.87,506.97 535.38,506.49 541.63,503.09C545.55,500.95 551.97,496.86 555.90,494.00C559.83,491.14 563.65,487.61 564.39,486.15C565.12,484.69 566.02,482.26 566.38,480.75C566.77,479.12 566.62,478.00 566.02,478.00C565.46,478.00 563.32,479.50 561.25,481.33C559.19,483.16 555.33,486.13 552.67,487.93C550.02,489.73 544.62,492.67 540.67,494.47C536.73,496.26 529.98,498.93 525.68,500.39C521.37,501.85 513.50,504.22 508.18,505.65C499.55,507.97 495.83,508.34 474.00,509.01C456.92,509.53 447.23,510.28 442.00,511.47C437.88,512.40 431.81,514.59 428.53,516.33C425.24,518.08 419.95,522.04 416.78,525.15C413.60,528.25 411.00,531.48 411.00,532.33C411.00,533.64 412.46,533.80 420.75,533.43zM354.45,533.00C356.40,533.00 358.00,532.59 358.00,532.08C358.00,531.58 358.27,530.47 358.59,529.63C358.94,528.72 358.14,527.05 356.64,525.54C355.10,524.01 352.96,523.00 351.25,523.00C349.68,523.00 347.86,523.54 347.20,524.20C346.54,524.86 346.00,526.01 346.00,526.75C346.00,527.49 347.10,529.20 348.45,530.55C350.14,532.23 352.02,533.00 354.45,533.00zM305.59,532.00C307.50,532.00 311.35,530.84 314.15,529.42C319.08,526.93 319.22,526.74 318.66,523.32C318.14,520.07 318.27,519.82 320.30,520.28C321.51,520.55 325.32,521.52 328.77,522.45C332.23,523.37 336.27,523.99 337.76,523.81C339.67,523.59 340.75,522.69 341.43,520.73C342.22,518.47 342.04,517.62 340.45,516.12C339.38,515.11 336.58,513.55 334.23,512.64C331.88,511.74 328.70,511.00 327.16,511.00C325.55,511.00 322.60,512.36 320.18,514.21C317.88,515.98 316.00,517.95 316.00,518.59C316.00,519.22 314.29,520.02 312.21,520.35C309.87,520.72 307.45,522.02 305.91,523.73C304.53,525.25 302.82,527.27 302.11,528.21C301.41,529.14 301.12,530.38 301.47,530.96C301.83,531.53 303.68,532.00 305.59,532.00zM104.21,529.32C107.12,528.99 110.07,528.27 110.78,527.72C111.79,526.92 111.72,526.34 110.40,524.89C109.50,523.89 107.24,522.58 105.39,521.96C103.47,521.33 101.27,519.58 100.27,517.89C99.31,516.25 97.50,514.66 96.25,514.35C95.00,514.03 93.30,514.33 92.49,515.01C91.67,515.69 91.00,516.86 91.00,517.62C91.00,518.38 90.58,519.00 90.06,519.00C89.54,519.00 88.84,518.55 88.50,518.00C88.16,517.45 86.42,517.00 84.64,517.00C82.86,517.00 80.86,517.54 80.20,518.20C79.54,518.86 79.00,520.07 79.00,520.89C79.00,521.70 79.98,523.41 81.17,524.69C82.37,525.96 84.40,527.00 85.67,527.00C87.41,527.00 88.00,526.43 88.02,524.75C88.02,523.51 88.41,521.91 88.87,521.18C89.50,520.18 90.41,520.64 92.60,523.06C94.20,524.82 96.27,527.08 97.21,528.09C98.61,529.59 99.87,529.81 104.21,529.32zM267.32,522.92C267.76,522.96 269.00,522.53 270.07,521.96C271.13,521.40 272.00,520.11 272.00,519.12C272.00,517.93 270.62,516.76 267.99,515.73C264.45,514.34 263.55,513.25 260.40,506.63C258.43,502.49 256.30,498.69 255.66,498.18C255.02,497.68 249.32,497.01 243.00,496.69C236.68,496.37 226.16,495.17 219.62,494.02C213.09,492.86 207.25,492.08 206.65,492.28C206.04,492.49 208.46,494.27 212.02,496.25C215.59,498.23 220.30,500.56 222.50,501.43C224.70,502.30 233.67,504.80 242.43,506.99C251.20,509.18 258.85,511.48 259.43,512.11C260.23,512.96 258.47,513.11 252.50,512.71C248.10,512.42 239.78,511.04 234.00,509.66C228.22,508.28 214.97,504.41 204.54,501.07C194.12,497.73 184.67,495.01 183.54,495.03C181.62,495.06 181.65,495.19 184.00,497.19C185.38,498.35 190.10,501.00 194.50,503.07C198.90,505.14 208.35,508.62 215.50,510.81C222.65,512.99 232.55,515.79 237.50,517.03C242.45,518.27 251.00,520.08 256.50,521.06C262.00,522.04 266.87,522.87 267.32,522.92zM387.12,523.00C387.57,523.00 387.61,522.13 387.22,521.08C386.82,520.02 385.07,517.12 383.32,514.64C381.49,512.05 377.12,508.15 373.06,505.47C369.18,502.91 366.28,500.36 366.62,499.80C366.99,499.21 368.90,499.05 371.22,499.42C373.40,499.77 377.05,500.99 379.34,502.13C381.63,503.27 385.40,506.05 387.73,508.29C390.06,510.54 392.26,512.08 392.62,511.71C392.99,511.34 392.51,509.01 391.56,506.53C390.45,503.60 388.03,500.43 384.69,497.51C381.85,495.03 380.10,493.00 380.80,493.00C381.49,493.00 384.86,494.46 388.28,496.24C391.70,498.03 394.84,499.64 395.25,499.83C395.66,500.01 396.00,499.40 396.00,498.47C396.00,497.53 394.44,494.64 392.53,492.04C390.62,489.44 387.17,486.01 384.85,484.41C381.29,481.94 380.96,481.45 382.72,481.19C383.86,481.03 387.43,482.00 390.65,483.36C395.85,485.57 396.54,485.66 396.87,484.19C397.09,483.20 395.38,480.86 392.59,478.33C390.03,476.01 385.46,473.19 382.43,472.06C378.25,470.50 374.57,470.00 367.17,470.00C361.75,470.00 354.88,470.66 351.69,471.49C348.54,472.31 343.61,474.16 340.73,475.61C337.85,477.05 333.36,479.85 330.75,481.82C328.14,483.80 326.00,485.77 326.00,486.21C326.00,486.66 328.59,486.80 331.75,486.54C335.94,486.20 336.69,486.30 334.50,486.92C332.85,487.38 329.64,487.82 327.36,487.88C324.12,487.97 321.87,489.00 317.01,492.57C313.60,495.08 311.07,497.41 311.40,497.73C311.72,498.06 314.35,497.83 317.24,497.23C320.13,496.62 324.79,495.68 327.59,495.12C331.79,494.29 333.75,494.44 338.83,496.03C342.22,497.08 345.78,497.66 346.74,497.32C347.71,496.98 349.97,495.62 351.77,494.29C353.57,492.96 354.78,491.45 354.46,490.93C354.14,490.42 354.36,490.00 354.94,490.00C355.52,490.00 356.00,490.98 356.00,492.18C356.00,493.39 354.62,495.51 352.88,496.96C350.84,498.66 349.75,500.48 349.75,502.18C349.75,503.94 348.99,505.14 347.43,505.85C346.15,506.43 344.37,508.02 343.48,509.39C342.19,511.36 342.09,512.30 343.01,514.02C343.64,515.20 345.69,516.81 347.55,517.58C349.41,518.36 352.44,519.00 354.27,519.00C356.10,519.00 358.14,518.46 358.80,517.80C359.46,517.14 360.00,515.60 360.00,514.38C360.00,513.01 358.39,510.79 355.75,508.55C351.56,504.99 351.54,504.95 354.50,505.60C356.15,505.96 363.21,509.16 370.19,512.73C377.16,516.29 383.65,520.06 384.59,521.10C385.54,522.15 386.68,523.00 387.12,523.00zM611.07,522.00C612.54,522.00 615.70,521.31 618.07,520.47C620.45,519.63 623.25,518.18 624.29,517.24C625.32,516.30 627.48,513.59 629.09,511.22C630.69,508.84 632.00,506.35 632.00,505.67C632.00,505.00 631.30,503.44 630.44,502.22C629.57,500.98 627.83,500.00 626.50,500.00C625.19,500.00 623.49,500.88 622.74,501.96C621.98,503.04 619.48,504.73 617.17,505.71C614.06,507.04 611.95,509.04 608.99,513.50C605.35,518.98 605.15,519.61 606.69,520.75C607.62,521.44 609.59,522.00 611.07,522.00zM120.73,520.41C122.25,520.05 124.53,519.12 125.78,518.34C127.04,517.55 127.81,516.50 127.50,515.99C127.18,515.49 125.26,514.78 123.21,514.41C121.17,514.04 118.71,513.33 117.75,512.83C116.79,512.34 116.00,511.31 116.00,510.55C116.00,509.80 114.62,508.01 112.92,506.59C111.23,505.17 109.08,504.00 108.15,504.00C107.21,504.00 105.44,504.70 104.22,505.56C102.79,506.56 102.00,508.15 102.00,510.03C102.00,512.28 102.71,513.31 105.07,514.54C106.76,515.41 109.19,515.99 110.48,515.82C112.02,515.62 113.70,516.46 115.38,518.28C117.44,520.50 118.51,520.92 120.73,520.41zM74.50,516.71C76.73,516.55 77.58,515.94 77.81,514.35C78.00,513.00 77.26,511.60 75.83,510.60C74.58,509.72 72.98,509.00 72.28,509.00C71.57,509.00 70.10,509.90 69.00,511.00C67.90,512.10 67.00,513.46 67.00,514.03C67.00,514.60 68.01,515.48 69.25,515.99C70.49,516.50 72.85,516.83 74.50,516.71zM279.58,513.33C280.36,513.03 283.19,510.02 285.86,506.64C288.54,503.26 291.46,499.06 292.36,497.30C293.26,495.54 294.00,493.85 294.00,493.55C294.00,493.25 293.16,493.00 292.14,493.00C291.11,493.00 288.16,495.26 285.58,498.02C283.00,500.78 280.05,504.90 279.03,507.17C278.02,509.45 277.40,511.89 277.67,512.59C277.94,513.30 278.80,513.63 279.58,513.33zM86.06,512.00C86.44,512.00 87.24,511.42 87.82,510.71C88.49,509.91 88.63,507.56 88.19,504.46C87.54,499.86 87.27,499.48 84.49,499.23C82.85,499.08 79.92,499.75 78.00,500.73C75.76,501.86 74.50,503.22 74.50,504.50C74.50,505.92 76.08,507.30 79.93,509.25C82.92,510.76 85.67,512.00 86.06,512.00zM598.02,510.00C599.14,510.00 603.12,508.46 606.87,506.57C610.61,504.68 614.42,502.01 615.32,500.63C616.22,499.25 618.20,497.53 619.72,496.81C621.24,496.08 622.64,494.61 622.85,493.53C623.11,492.17 621.51,490.02 617.52,486.40C614.39,483.55 608.67,479.59 604.81,477.61C600.95,475.62 596.48,474.00 594.88,474.00C592.67,474.00 591.49,474.78 589.99,477.25C588.90,479.04 588.01,481.79 588.00,483.37C588.00,485.88 588.28,486.15 590.25,485.54C591.49,485.15 593.51,484.60 594.75,484.30C595.99,484.01 597.00,484.19 597.00,484.70C597.00,485.21 595.68,486.89 594.07,488.43C592.46,489.97 590.60,492.55 589.94,494.15C589.27,495.75 588.90,497.23 589.12,497.43C589.33,497.63 592.20,497.38 595.50,496.88C600.72,496.08 601.95,495.44 605.00,491.96C606.92,489.77 608.84,487.98 609.25,487.98C609.66,487.99 610.00,488.73 610.00,489.62C610.00,490.50 608.85,492.42 607.44,493.87C606.03,495.31 602.88,498.88 600.44,501.78C598.00,504.69 596.00,507.73 596.00,508.53C596.00,509.34 596.91,510.00 598.02,510.00zM336.03,508.88C337.42,508.95 339.56,508.30 340.78,507.44C342.00,506.59 343.00,504.88 343.00,503.64C343.00,502.41 342.46,500.86 341.80,500.20C341.14,499.54 338.25,499.00 335.37,499.00C331.95,499.00 329.60,499.54 328.57,500.57C327.71,501.44 327.00,502.70 327.00,503.38C327.00,504.06 327.56,505.34 328.25,506.22C328.94,507.11 330.40,508.04 331.50,508.30C332.60,508.56 334.64,508.82 336.03,508.88zM129.72,507.90C129.84,507.95 131.75,507.06 133.97,505.90C136.18,504.75 137.76,503.41 137.46,502.94C137.17,502.47 135.39,501.79 133.50,501.43C131.61,501.08 129.57,500.19 128.96,499.45C128.34,498.71 126.30,497.59 124.42,496.97C121.88,496.14 120.12,496.14 117.59,496.97C115.71,497.59 113.93,498.75 113.62,499.55C113.31,500.35 113.32,501.67 113.63,502.49C113.95,503.31 115.85,504.39 117.85,504.90C119.86,505.40 123.30,506.26 125.50,506.80C127.70,507.35 129.60,507.84 129.72,507.90zM319.56,507.97C321.24,507.99 323.49,507.35 324.56,506.56C326.11,505.41 326.28,504.75 325.40,503.31C324.80,502.31 323.22,500.92 321.90,500.21C320.50,499.46 317.48,499.08 314.68,499.32C311.96,499.54 308.68,500.60 307.18,501.72C305.70,502.82 304.61,504.07 304.74,504.49C304.87,504.92 306.83,505.44 309.09,505.64C311.35,505.85 313.95,506.45 314.85,506.98C315.76,507.51 317.88,507.95 319.56,507.97zM95.97,506.00C97.01,506.00 98.56,505.29 99.43,504.43C100.29,503.56 101.00,502.50 101.00,502.07C101.00,501.64 99.88,500.08 98.50,498.59C97.12,497.11 96.00,495.47 96.00,494.95C96.00,494.43 96.11,494.00 96.25,494.00C96.39,494.01 98.63,495.09 101.24,496.41C103.93,497.78 106.88,498.58 108.05,498.28C109.20,497.98 110.78,496.74 111.58,495.52C112.38,494.30 115.28,492.08 118.02,490.59C121.87,488.49 123.00,487.33 123.00,485.46C123.00,483.80 122.08,482.58 120.05,481.53C118.43,480.69 116.40,480.00 115.55,480.00C114.70,480.00 114.00,479.51 114.00,478.92C114.00,478.23 115.13,478.09 117.13,478.53C118.86,478.91 122.12,480.06 124.38,481.09C126.65,482.11 129.72,482.97 131.21,482.98C132.89,482.99 134.33,482.26 134.96,481.07C135.53,480.00 136.00,478.62 136.00,478.00C136.00,477.38 133.06,475.54 129.46,473.91C125.86,472.28 123.19,470.51 123.52,469.97C123.85,469.44 123.30,469.01 122.31,469.02C121.31,469.03 118.70,469.86 116.50,470.86C114.30,471.86 109.93,474.61 106.78,476.96C103.63,479.32 100.79,482.09 100.46,483.11C100.14,484.14 98.21,486.56 96.19,488.49C94.16,490.42 91.23,493.02 89.68,494.26C86.85,496.52 86.85,496.52 90.47,501.26C92.53,503.95 94.90,506.00 95.97,506.00zM476.50,498.85C480.50,498.91 480.50,498.91 476.50,496.79C474.30,495.62 466.94,492.29 460.15,489.38C453.36,486.48 444.94,482.24 441.45,479.97C437.96,477.70 434.58,475.20 433.93,474.42C433.28,473.64 432.34,473.00 431.84,473.00C431.34,473.00 431.46,473.98 432.10,475.19C432.74,476.39 435.28,479.52 437.73,482.15C440.19,484.77 444.29,488.25 446.85,489.88C449.41,491.51 454.42,493.82 458.00,495.02C461.57,496.21 466.30,497.55 468.50,497.99C470.70,498.42 474.30,498.81 476.50,498.85zM130.50,496.87C130.50,496.89 132.97,496.34 136.00,495.63C140.32,494.62 141.50,493.93 141.50,492.42C141.50,491.12 140.37,490.12 138.00,489.31C136.07,488.65 132.86,488.09 130.86,488.06C128.80,488.02 126.28,488.76 125.05,489.76C123.62,490.92 123.10,492.11 123.55,493.26C123.91,494.21 125.63,495.41 127.36,495.91C129.09,496.41 130.50,496.84 130.50,496.87zM503.36,493.88C510.35,493.96 516.39,493.44 520.36,492.42C523.74,491.55 529.26,489.53 532.64,487.92C536.17,486.24 541.23,482.59 544.56,479.31C547.74,476.18 549.85,473.45 549.24,473.25C548.63,473.04 544.84,474.68 540.82,476.89C536.79,479.09 530.82,481.60 527.54,482.45C524.26,483.30 517.50,484.00 512.51,484.00C507.51,484.00 496.49,482.86 488.01,481.47C479.54,480.08 469.02,478.03 464.65,476.91C460.27,475.79 454.49,473.76 451.80,472.40C449.11,471.04 444.27,467.25 441.06,463.98C437.84,460.71 433.92,456.00 432.35,453.52C430.78,451.04 429.17,449.00 428.77,449.00C428.37,449.00 428.59,450.24 429.25,451.75C429.91,453.26 432.02,457.20 433.92,460.50C435.82,463.80 439.66,468.77 442.44,471.54C445.22,474.32 449.65,478.06 452.28,479.86C454.91,481.67 460.09,484.38 463.78,485.90C467.48,487.42 474.55,489.62 479.50,490.80C484.45,491.97 489.40,493.12 490.50,493.35C491.60,493.58 497.39,493.82 503.36,493.88zM484.75,474.90C485.44,474.95 486.00,474.57 486.00,474.05C486.00,473.53 484.43,471.90 482.50,470.44C480.58,468.97 474.38,466.09 468.72,464.04C463.07,461.98 456.61,459.15 454.37,457.73C452.13,456.32 448.86,453.35 447.11,451.14C445.36,448.93 442.60,444.18 440.97,440.58C439.33,436.99 438.00,433.47 438.01,432.77C438.02,432.07 439.25,433.07 440.74,435.00C442.24,436.93 445.44,440.63 447.85,443.23C450.27,445.84 454.61,449.54 457.51,451.46C460.41,453.39 469.30,457.62 477.26,460.87C485.23,464.12 494.12,467.29 497.02,467.91C499.92,468.53 502.47,468.86 502.70,468.64C502.92,468.41 499.59,466.34 495.30,464.03C491.01,461.72 485.25,458.10 482.50,455.98C479.75,453.86 475.70,450.24 473.50,447.94C471.30,445.63 469.95,443.92 470.50,444.14C471.05,444.35 476.93,447.29 483.57,450.68C490.20,454.06 498.94,457.84 502.99,459.07C507.36,460.39 513.23,461.34 517.43,461.40C521.32,461.45 525.37,460.98 526.43,460.36C528.11,459.37 527.57,459.06 522.43,458.06C519.17,457.42 512.45,455.77 507.50,454.40C502.55,453.03 495.35,450.35 491.50,448.44C487.65,446.54 481.43,442.68 477.68,439.86C473.36,436.61 468.85,431.94 465.37,427.12C462.36,422.93 457.22,416.12 453.95,412.00C450.68,407.88 447.49,402.96 446.87,401.07C445.80,397.87 445.64,397.77 444.36,399.52C443.58,400.58 443.02,403.76 443.04,406.94C443.06,410.00 444.38,417.45 445.96,423.50C447.54,429.55 448.64,434.69 448.41,434.92C448.18,435.15 446.83,434.25 445.41,432.92C443.99,431.59 441.08,427.88 438.94,424.68C436.80,421.47 434.06,416.12 432.84,412.78C431.10,408.01 430.47,407.12 429.88,408.61C429.48,409.65 429.11,413.40 429.07,416.94C429.03,420.48 429.72,426.33 430.61,429.94C431.50,433.55 433.50,439.20 435.05,442.50C436.61,445.80 440.06,451.19 442.72,454.48C445.38,457.76 449.68,462.07 452.29,464.03C454.89,466.00 459.38,468.46 462.26,469.50C465.14,470.54 471.10,472.15 475.50,473.09C479.90,474.03 484.06,474.84 484.75,474.90zM205.79,462.88C218.36,462.99 219.18,462.88 221.15,460.75C222.30,459.51 225.22,455.12 227.65,451.00C230.08,446.88 233.62,441.02 235.52,438.00C237.43,434.98 240.85,428.08 243.13,422.69C245.54,416.97 246.90,412.50 246.39,411.99C245.88,411.48 236.41,411.40 224.35,411.80C206.02,412.42 202.93,412.75 201.21,414.31C200.12,415.30 197.77,420.02 196.00,424.80C194.22,429.59 191.67,435.43 190.32,437.78C188.98,440.13 185.21,445.25 181.94,449.15C178.67,453.05 176.00,457.07 176.00,458.08C176.00,459.35 176.98,460.09 179.25,460.51C181.04,460.84 184.75,461.48 187.50,461.94C190.25,462.39 198.48,462.82 205.79,462.88zM241.77,458.63C246.57,458.26 254.37,457.29 259.10,456.48C263.83,455.66 270.56,454.05 274.07,452.90C277.57,451.75 283.03,449.50 286.21,447.89C289.38,446.29 297.99,442.55 305.32,439.59C312.66,436.63 321.55,432.76 325.08,430.99C328.61,429.22 333.00,426.65 334.83,425.28C337.60,423.20 338.05,422.33 337.52,420.14C337.17,418.69 335.78,415.82 334.44,413.78C333.10,411.73 330.86,406.10 329.46,401.28C328.05,396.45 326.64,390.59 326.32,388.26C326.00,385.93 325.14,383.53 324.41,382.93C323.43,382.11 318.87,383.27 306.30,387.56C297.06,390.70 287.86,394.10 285.84,395.11C283.83,396.12 281.20,398.19 279.99,399.72C277.83,402.44 277.80,402.90 278.50,421.27C279.03,435.48 278.91,440.41 277.98,441.52C277.31,442.33 274.47,443.68 271.66,444.51C268.86,445.34 262.78,446.31 258.15,446.67C251.48,447.18 249.82,447.05 250.16,446.02C250.40,445.31 254.17,443.41 258.55,441.81C262.92,440.20 267.14,438.26 267.93,437.48C269.01,436.41 269.45,432.38 269.72,421.03C270.08,406.00 270.08,406.00 267.59,406.00C266.22,406.00 262.83,406.49 260.06,407.08C256.83,407.77 254.34,409.02 253.14,410.55C252.11,411.86 250.97,414.86 250.61,417.22C250.24,419.57 248.79,425.01 247.38,429.29C245.96,433.58 243.36,439.20 241.60,441.79C239.84,444.38 236.89,448.60 235.06,451.17C232.89,454.21 231.96,456.45 232.39,457.57C232.97,459.09 234.07,459.21 241.77,458.63zM162.04,456.89C164.97,456.98 166.28,456.27 169.65,452.75C171.89,450.41 175.08,446.47 176.75,443.98C178.41,441.50 182.81,433.71 186.51,426.66C190.42,419.23 192.88,413.48 192.37,412.97C191.88,412.48 188.38,411.95 184.58,411.79C177.69,411.50 177.69,411.50 174.01,422.00C172.00,427.77 169.34,434.58 168.12,437.12C166.90,439.67 164.77,442.80 163.40,444.09C161.41,445.96 159.53,446.52 154.16,446.82C149.28,447.10 144.41,446.48 136.46,444.58C130.43,443.13 123.03,440.72 120.00,439.23C115.29,436.89 114.86,436.46 117.00,436.21C118.38,436.05 124.22,436.88 130.00,438.06C135.78,439.24 142.79,440.67 145.58,441.24C149.54,442.04 151.30,441.97 153.58,440.89C155.84,439.81 157.81,436.87 162.29,427.91C165.47,421.53 168.17,415.01 168.29,413.42C168.49,410.73 168.16,410.45 163.50,409.38C160.75,408.75 153.22,407.02 146.77,405.54C140.32,404.06 134.03,403.00 132.79,403.18C131.21,403.40 128.72,406.26 124.49,412.69C121.17,417.74 115.39,425.28 111.65,429.44C107.56,434.00 104.99,437.70 105.19,438.75C105.37,439.71 107.76,441.70 110.51,443.16C113.25,444.62 121.90,447.69 129.72,449.97C137.54,452.25 147.22,454.72 151.22,455.45C155.22,456.19 160.09,456.83 162.04,456.89zM208.26,453.66C204.54,453.78 199.51,453.47 197.07,452.96C194.64,452.46 192.18,451.58 191.62,451.02C190.93,450.33 191.86,450.00 194.55,450.01C196.72,450.01 202.88,449.48 208.22,448.82C213.57,448.15 218.27,447.94 218.67,448.33C219.06,448.73 218.40,450.04 217.20,451.24C215.44,453.00 213.69,453.48 208.26,453.66zM498.25,445.99C498.66,446.00 499.00,445.87 499.00,445.71C499.00,445.55 491.51,437.89 482.37,428.68C473.22,419.47 465.57,412.10 465.36,412.30C465.16,412.50 465.64,414.79 466.42,417.39C467.20,419.98 469.78,424.62 472.15,427.69C474.52,430.77 478.72,434.99 481.48,437.07C484.24,439.16 488.98,442.01 492.00,443.42C495.02,444.83 497.84,445.98 498.25,445.99zM511.63,443.00C512.94,443.00 514.00,442.84 514.00,442.64C514.00,442.44 511.64,440.70 508.75,438.77C505.86,436.84 500.49,432.28 496.80,428.65C493.12,425.02 488.26,419.33 486.00,416.00C483.74,412.67 480.57,407.15 478.95,403.72C477.33,400.30 475.22,394.01 474.26,389.75C473.30,385.49 472.20,382.00 471.80,382.00C471.41,382.00 470.79,383.61 470.42,385.57C470.05,387.53 469.96,392.69 470.21,397.04C470.59,403.57 471.30,406.23 474.33,412.36C477.21,418.18 479.83,421.52 486.49,427.82C492.11,433.14 497.38,437.05 502.12,439.42C506.05,441.39 510.33,443.00 511.63,443.00zM201.17,440.00C199.39,440.00 199.25,439.63 200.00,437.00C200.47,435.36 201.75,432.77 202.83,431.25C203.92,429.74 205.97,427.41 207.40,426.08C208.82,424.75 210.28,423.95 210.63,424.30C210.99,424.65 210.70,427.00 209.99,429.52C209.29,432.04 207.47,435.42 205.96,437.05C204.44,438.67 202.28,440.00 201.17,440.00zM296.25,433.63C294.43,433.98 293.00,433.83 293.00,433.30C293.00,432.78 294.08,431.34 295.39,430.10C296.71,428.87 301.73,426.54 306.55,424.93C311.37,423.32 315.92,422.00 316.66,422.00C317.40,422.00 318.00,422.43 318.00,422.96C318.00,423.48 313.84,425.96 308.75,428.46C303.66,430.97 298.04,433.29 296.25,433.63zM96.50,430.95C98.50,430.97 101.07,429.73 104.18,427.24C106.75,425.18 110.63,421.25 112.80,418.50C114.96,415.75 118.19,410.91 119.97,407.74C121.75,404.57 122.95,401.32 122.65,400.52C122.34,399.72 118.48,397.25 114.07,395.03C109.65,392.82 105.31,391.00 104.41,391.00C103.51,391.00 100.69,392.74 98.14,394.87C95.59,396.99 91.03,400.29 88.00,402.20C84.97,404.10 79.24,407.41 75.25,409.54C70.58,412.04 68.00,414.03 68.00,415.13C68.00,416.14 70.86,418.75 74.97,421.48C78.80,424.03 84.54,427.19 87.72,428.51C90.90,429.84 94.85,430.93 96.50,430.95zM526.25,429.98C527.21,429.99 528.00,429.83 528.00,429.63C528.00,429.43 524.39,426.91 519.98,424.05C515.57,421.18 510.86,417.21 509.51,415.23C508.16,413.24 507.25,411.41 507.50,411.17C507.74,410.93 510.79,412.59 514.28,414.86C517.77,417.13 523.85,420.12 527.79,421.50C531.74,422.87 536.43,423.97 538.23,423.94C541.09,423.89 540.30,423.29 532.00,419.16C526.77,416.57 519.94,412.74 516.82,410.67C513.70,408.60 509.55,405.14 507.61,402.99C505.66,400.83 502.99,396.92 501.67,394.29C500.36,391.65 497.76,385.00 495.90,379.50C493.21,371.54 492.46,370.10 492.18,372.44C491.99,374.05 492.60,379.68 493.54,384.94C494.47,390.20 496.52,398.04 498.09,402.36C499.66,406.69 502.04,412.09 503.39,414.36C504.73,416.64 507.38,419.99 509.26,421.80C511.15,423.62 515.35,426.19 518.60,427.53C521.84,428.86 525.29,429.96 526.25,429.98zM132.43,429.00C129.23,429.00 129.02,428.83 130.01,426.99C130.60,425.88 134.08,422.51 137.74,419.49C141.40,416.47 144.98,414.00 145.69,414.00C146.41,414.00 147.00,414.24 147.00,414.54C147.00,414.84 146.13,416.79 145.06,418.88C143.99,420.98 141.50,424.11 139.52,425.84C136.96,428.10 134.93,429.00 132.43,429.00zM501.21,425.00C501.64,425.00 502.00,424.62 502.00,424.15C502.00,423.68 499.75,419.16 497.00,414.09C494.25,409.03 490.82,403.22 489.39,401.19C486.79,397.50 486.79,397.50 487.39,402.34C487.72,405.00 488.91,409.28 490.04,411.84C491.17,414.40 493.97,418.41 496.26,420.75C498.54,423.09 500.77,425.00 501.21,425.00zM98.30,423.00C97.86,423.00 94.80,421.68 91.50,420.07C85.50,417.15 85.50,417.15 91.03,417.08C94.51,417.03 97.47,416.37 99.03,415.29C100.39,414.34 103.91,411.62 106.86,409.23C109.81,406.84 112.44,405.11 112.71,405.38C112.98,405.65 112.66,407.51 111.99,409.52C111.33,411.53 109.42,414.73 107.75,416.64C106.07,418.54 103.44,420.75 101.90,421.55C100.36,422.35 98.74,423.00 98.30,423.00zM296.66,421.00C295.12,421.00 294.90,420.50 295.43,418.25C295.79,416.74 297.75,413.06 299.79,410.07C301.83,407.08 304.06,404.46 304.75,404.23C305.63,403.95 306.00,405.22 306.00,408.50C306.00,411.76 306.38,413.06 307.25,412.80C307.94,412.59 310.16,409.16 312.20,405.18C315.55,398.61 316.00,398.13 317.00,400.00C317.60,401.13 318.36,404.22 318.67,406.86C319.19,411.24 319.00,411.86 316.48,413.83C314.72,415.22 312.32,416.00 309.81,416.00C307.28,416.00 304.59,416.88 302.21,418.50C300.19,419.88 297.69,421.00 296.66,421.00zM344.27,416.00C344.99,416.00 349.62,413.70 354.54,410.89C359.47,408.08 367.32,403.26 372.00,400.17C376.68,397.08 384.25,390.96 388.83,386.56C393.41,382.17 397.57,377.80 398.08,376.86C398.58,375.92 398.72,374.42 398.38,373.54C398.04,372.66 396.72,371.39 395.45,370.72C394.18,370.05 389.03,365.73 384.00,361.12C375.48,353.29 374.70,352.81 372.36,353.88C370.98,354.51 366.18,357.38 361.69,360.26C357.20,363.14 348.80,368.20 343.01,371.50C335.81,375.61 332.41,378.13 332.22,379.50C332.06,380.60 333.94,388.02 336.38,396.00C338.82,403.98 341.30,411.74 341.88,413.25C342.47,414.76 343.54,416.00 344.27,416.00zM542.75,413.93C543.44,413.97 544.00,413.82 544.00,413.60C544.00,413.39 540.61,411.09 536.46,408.51C532.32,405.93 526.80,401.65 524.20,399.01C521.61,396.38 517.60,390.91 515.30,386.86C512.99,382.81 509.90,375.90 508.43,371.50C506.54,365.85 505.65,360.86 505.40,354.50C505.10,346.78 505.20,346.00 506.16,349.00C506.77,350.93 508.56,356.47 510.14,361.32C511.72,366.17 514.59,373.37 516.52,377.32C518.44,381.27 521.87,386.66 524.13,389.30C526.39,391.94 530.55,395.42 533.37,397.04C536.19,398.66 539.12,399.99 539.87,399.99C540.63,400.00 538.36,396.94 534.84,393.21C529.89,387.97 527.03,383.59 522.25,373.96C518.85,367.11 514.43,356.56 512.42,350.53C509.13,340.65 508.82,338.80 509.30,332.03C509.59,327.89 510.40,322.70 511.10,320.50C512.34,316.60 512.40,316.82 513.62,329.65C514.52,339.16 515.73,345.39 517.98,352.15C519.70,357.29 522.99,364.88 525.30,369.00C528.13,374.06 532.59,379.61 539.00,386.05C546.93,394.02 549.91,396.28 557.00,399.69C561.67,401.95 567.75,404.32 570.50,404.98C573.25,405.64 579.77,406.15 585.00,406.12C590.23,406.09 595.85,405.63 597.50,405.12C599.85,404.38 600.03,404.15 598.36,404.09C597.18,404.04 591.55,403.52 585.86,402.94C580.16,402.36 572.22,400.78 568.22,399.44C564.22,398.09 558.04,395.16 554.49,392.92C550.94,390.67 545.37,385.94 542.13,382.40C538.88,378.85 534.61,372.88 532.63,369.12C530.66,365.36 527.48,357.60 525.56,351.89C523.65,346.18 521.40,337.50 520.55,332.62C519.70,327.73 519.00,318.81 519.00,312.80C519.00,303.00 518.82,301.89 517.29,302.18C516.34,302.36 513.87,304.76 511.78,307.51C509.69,310.25 506.63,315.99 504.97,320.26C503.32,324.53 501.25,331.06 500.38,334.76C499.24,339.59 498.93,344.33 499.29,351.50C499.57,357.00 500.76,365.32 501.95,370.00C503.14,374.68 505.88,382.10 508.04,386.50C510.20,390.90 513.96,396.78 516.40,399.57C518.98,402.52 523.46,406.03 527.11,407.98C530.57,409.82 535.22,411.90 537.45,412.60C539.68,413.29 542.06,413.90 542.75,413.93zM61.75,409.00C62.00,409.00 64.74,407.49 67.85,405.64C70.96,403.79 77.05,400.30 81.39,397.89C85.73,395.47 91.13,391.85 93.39,389.83C96.85,386.74 97.33,385.87 96.41,384.33C95.81,383.32 94.08,381.89 92.57,381.15C90.10,379.94 89.21,380.08 83.78,382.52C80.45,384.01 71.88,387.00 64.72,389.16C57.57,391.32 50.88,393.53 49.85,394.08C48.83,394.62 48.00,395.94 48.00,397.00C48.00,398.21 50.48,400.81 54.65,403.97C58.31,406.73 61.50,409.00 61.75,409.00zM211.50,403.48C223.60,403.25 238.22,402.58 244.00,401.98C249.78,401.39 258.28,400.13 262.90,399.20C268.34,398.10 271.68,396.90 272.37,395.80C272.95,394.86 273.13,393.79 272.76,393.42C272.39,393.05 265.20,393.49 256.79,394.38C248.38,395.28 238.91,396.01 235.75,396.01C232.59,396.00 230.00,395.83 230.00,395.63C230.00,395.42 230.85,393.28 231.88,390.88C233.31,387.55 233.91,382.92 234.38,371.50C234.72,363.25 235.31,354.02 235.69,351.00C236.33,345.86 236.49,346.49 238.12,360.50C239.07,368.75 239.89,377.63 239.93,380.23C239.99,384.06 240.45,385.25 242.39,386.52C244.49,387.90 246.90,387.95 262.64,387.00C272.46,386.40 282.98,385.43 286.00,384.85C289.02,384.27 295.77,382.43 301.00,380.77C306.23,379.11 316.12,375.30 323.00,372.30C329.88,369.31 338.88,365.00 343.00,362.73C347.12,360.46 353.65,356.59 357.50,354.12C361.35,351.66 367.88,347.08 372.00,343.96C376.12,340.83 382.65,334.95 386.50,330.89C390.35,326.82 395.17,320.98 397.20,317.90C399.24,314.83 401.43,311.16 402.07,309.75C403.16,307.36 402.77,306.65 396.42,299.34C392.67,295.03 385.36,286.66 380.17,280.75C374.98,274.84 367.53,267.55 363.61,264.55C359.70,261.56 352.61,257.28 347.85,255.05C343.10,252.82 338.37,251.00 337.35,251.01C336.33,251.01 333.84,251.47 331.82,252.03C329.79,252.60 324.16,255.68 319.32,258.90C314.47,262.11 307.75,267.25 304.38,270.33C301.01,273.41 297.53,277.48 296.63,279.37C295.73,281.26 295.01,284.76 295.02,287.15C295.03,289.54 296.30,295.10 297.84,299.50C299.39,303.90 304.30,316.50 308.76,327.50C313.22,338.50 317.89,351.00 319.14,355.27C321.39,362.97 321.40,363.05 319.46,364.95C318.38,366.00 313.00,368.65 307.50,370.82C302.00,373.00 293.68,375.93 289.00,377.33C284.32,378.74 277.85,380.36 274.62,380.93C271.39,381.51 263.87,382.28 257.92,382.64C248.75,383.19 246.71,383.04 244.55,381.62C242.04,379.98 242.00,379.76 242.07,367.73C242.11,361.00 242.48,348.75 242.89,340.50C243.43,329.59 244.08,324.68 245.28,322.50C246.92,319.50 246.92,319.50 246.98,324.50C247.01,327.25 247.45,330.16 247.96,330.97C248.47,331.78 249.09,332.23 249.33,331.97C249.57,331.71 251.36,328.35 253.30,324.50C255.25,320.65 257.51,316.60 258.34,315.50C259.16,314.40 260.11,313.78 260.45,314.12C260.79,314.45 259.92,320.45 258.53,327.44C257.14,334.44 256.00,341.70 256.00,343.58C256.00,345.46 256.41,347.00 256.92,347.00C257.43,347.00 259.53,343.51 261.60,339.25C265.23,331.76 265.38,331.60 266.06,334.50C266.45,336.15 266.80,341.10 266.85,345.50C266.91,351.03 266.34,355.20 265.00,359.00C263.94,362.02 263.05,365.06 263.03,365.75C263.01,366.44 263.81,367.00 264.79,367.00C265.78,367.00 270.53,365.02 275.34,362.61C280.16,360.19 283.95,358.50 283.77,358.86C283.58,359.21 282.81,360.74 282.06,362.25C281.30,363.77 281.00,365.33 281.39,365.72C281.78,366.12 284.21,365.33 286.77,363.97C289.34,362.61 293.02,359.93 294.97,358.00C296.91,356.07 299.02,353.60 299.66,352.50C300.81,350.50 300.81,350.50 302.37,352.50C303.23,353.60 303.95,355.88 303.97,357.58C303.99,359.59 303.14,361.46 301.50,363.00C300.12,364.29 299.00,365.72 299.00,366.17C299.00,366.63 299.69,367.00 300.54,367.00C301.39,367.00 303.85,366.09 306.02,364.99C308.36,363.80 310.21,362.03 310.55,360.66C310.92,359.17 308.60,351.09 304.01,337.92C300.10,326.69 294.88,311.60 292.41,304.39C287.92,291.27 287.92,291.27 282.71,290.74C279.84,290.45 273.64,290.57 268.91,291.01C262.79,291.57 258.84,292.56 255.13,294.43C252.27,295.88 248.10,298.95 245.87,301.25C243.63,303.56 240.56,307.93 239.04,310.97C237.52,314.01 235.33,319.43 234.16,323.00C232.99,326.57 231.33,332.65 230.46,336.50C229.41,341.14 228.69,350.93 228.33,365.50C227.84,385.10 227.56,387.86 225.79,390.77C224.70,392.58 222.40,394.78 220.68,395.67C218.58,396.75 213.89,397.45 206.45,397.77C200.35,398.04 190.88,397.74 185.43,397.09C179.97,396.45 174.93,395.36 174.23,394.66C173.21,393.64 173.36,391.09 175.00,381.45C176.12,374.88 178.83,362.63 181.01,354.22C183.20,345.82 186.62,334.57 188.62,329.22C190.61,323.88 193.32,317.38 194.62,314.78C195.93,312.19 197.00,309.24 197.00,308.23C197.00,307.22 195.54,305.01 193.75,303.32C191.96,301.62 189.60,299.78 188.50,299.22C187.40,298.66 184.44,297.89 181.93,297.51C179.38,297.13 175.57,297.31 173.31,297.92C170.57,298.65 167.78,300.59 164.66,303.93C162.12,306.64 158.07,311.93 155.65,315.68C153.23,319.43 148.87,327.23 145.97,333.00C143.07,338.77 138.06,350.48 134.83,359.00C131.60,367.52 127.96,376.52 126.73,379.00C124.98,382.53 124.02,383.45 122.26,383.26C121.03,383.13 116.16,380.54 111.44,377.49C106.72,374.44 101.87,371.85 100.68,371.73C99.11,371.56 98.50,372.04 98.50,373.46C98.50,374.63 100.49,376.93 103.50,379.21C106.25,381.30 113.00,385.23 118.50,387.94C124.00,390.65 132.32,393.98 137.00,395.33C141.68,396.68 151.57,398.74 159.00,399.90C166.43,401.06 176.32,402.43 181.00,402.95C185.68,403.46 199.40,403.70 211.50,403.48zM357.75,395.09C354.59,396.71 352.00,397.64 352.00,397.16C352.00,396.69 352.51,394.77 353.12,392.90C353.74,391.03 355.88,386.93 357.87,383.79C360.80,379.18 362.02,378.08 364.21,378.04C365.89,378.02 367.35,377.22 368.02,375.96C368.62,374.84 368.83,373.04 368.49,371.96C368.04,370.56 368.33,370.00 369.50,370.00C370.40,370.00 372.11,370.51 373.32,371.12C374.52,371.74 376.51,373.17 377.75,374.30C378.99,375.43 380.00,377.16 380.00,378.15C380.00,379.24 376.77,382.34 371.75,386.05C367.21,389.40 360.91,393.47 357.75,395.09zM162.00,394.90C161.72,394.85 157.90,394.19 153.50,393.41C149.10,392.64 141.77,390.86 137.20,389.45C132.64,388.05 128.66,386.27 128.36,385.49C128.06,384.71 128.72,382.80 129.83,381.25C130.93,379.69 133.53,374.16 135.61,368.96C137.68,363.76 143.23,351.88 147.94,342.56C152.65,333.24 157.07,325.43 157.78,325.21C158.74,324.91 158.89,325.82 158.40,328.91C158.04,331.16 157.99,333.00 158.28,333.00C158.58,333.00 160.90,330.10 163.43,326.55C165.96,323.00 168.39,319.88 168.82,319.61C169.25,319.34 169.41,323.25 169.17,328.29C168.78,336.39 168.91,337.32 170.24,336.21C171.07,335.52 173.78,331.47 176.27,327.19C178.75,322.92 181.50,318.83 182.39,318.09C183.27,317.36 184.00,317.01 184.00,317.33C184.00,317.65 181.57,327.49 178.60,339.20C175.63,350.92 172.01,367.38 170.56,375.79C169.10,384.19 167.67,391.69 167.39,392.44C167.10,393.19 165.88,394.07 164.68,394.39C163.48,394.71 162.28,394.94 162.00,394.90zM183.35,387.00C184.08,387.00 185.50,386.10 186.50,385.00C187.94,383.41 189.58,383.00 194.47,383.00C197.86,383.00 203.30,382.51 206.57,381.92C209.83,381.32 212.91,380.44 213.41,379.96C213.95,379.44 212.90,379.25 210.91,379.50C209.04,379.73 202.92,380.14 197.32,380.41C190.03,380.77 187.02,380.57 186.74,379.73C186.53,379.09 186.76,376.30 187.26,373.53C187.75,370.76 189.92,364.00 192.06,358.50C194.21,353.00 198.04,345.42 200.56,341.66C203.09,337.90 205.35,335.02 205.58,335.25C205.81,335.48 205.10,339.19 204.00,343.49C202.90,347.80 202.00,352.13 202.00,353.13C202.00,354.19 202.52,354.72 203.25,354.41C203.94,354.12 206.30,351.37 208.50,348.30C212.50,342.72 212.50,342.72 212.80,347.93C213.01,351.40 213.51,353.01 214.30,352.76C214.96,352.56 216.27,350.83 217.22,348.93C218.17,347.03 221.39,338.60 224.39,330.21C227.39,321.82 230.86,312.85 232.11,310.27C233.36,307.69 237.40,302.16 241.08,297.97C246.34,292.01 249.10,289.78 253.91,287.62C259.25,285.23 261.82,284.78 273.77,284.18C287.01,283.52 287.51,283.42 287.82,281.25C288.12,279.12 287.81,279.00 281.82,279.02C278.34,279.03 271.27,279.48 266.09,280.03C260.92,280.57 256.48,280.81 256.23,280.56C255.98,280.31 256.76,278.50 257.98,276.54C259.19,274.58 261.04,272.51 262.09,271.95C263.41,271.24 264.63,271.27 266.05,272.03C267.36,272.73 272.12,272.94 279.30,272.61C285.46,272.33 290.60,272.08 290.72,272.05C290.84,272.02 294.44,269.17 298.72,265.71C303.00,262.25 310.10,256.91 314.50,253.84C318.90,250.77 324.40,247.30 326.73,246.12C329.75,244.59 332.23,242.06 335.42,237.24C337.88,233.53 339.57,230.17 339.17,229.78C338.78,229.38 329.01,228.96 317.48,228.86C301.29,228.70 295.32,229.00 291.32,230.16C288.47,230.99 283.53,233.21 280.33,235.09C277.13,236.96 270.84,242.17 266.35,246.66C260.43,252.57 257.30,256.68 254.97,261.57C253.20,265.28 250.76,271.50 249.56,275.41C247.99,280.48 245.82,284.48 241.93,289.43C238.94,293.25 235.15,297.86 233.50,299.69C231.14,302.31 229.33,303.22 225.00,303.94C221.97,304.44 216.85,305.15 213.62,305.52C209.05,306.03 207.19,306.77 205.27,308.84C203.90,310.30 200.59,316.05 197.91,321.60C195.23,327.16 191.91,335.93 190.55,341.10C189.18,346.27 186.70,356.93 185.03,364.78C183.36,372.64 182.00,380.85 182.00,383.03C182.00,385.69 182.44,387.00 183.35,387.00zM403.14,369.00C403.56,369.00 408.31,365.47 413.70,361.15C419.09,356.83 431.15,345.54 440.50,336.05C449.85,326.57 461.10,316.00 465.50,312.57C469.90,309.13 477.05,303.94 481.40,301.03C485.74,298.12 492.04,294.50 495.40,292.99C498.75,291.48 502.96,289.93 504.75,289.54C506.54,289.16 508.00,288.59 508.00,288.28C508.00,287.97 507.21,287.12 506.25,286.39C505.29,285.66 502.37,285.05 499.76,285.03C497.15,285.01 492.73,285.87 489.93,286.93C487.13,288.00 481.84,290.80 478.17,293.16C474.50,295.52 468.35,299.70 464.50,302.45C460.65,305.19 454.84,309.63 451.59,312.31C446.67,316.36 445.16,317.10 442.59,316.71C440.89,316.46 432.77,314.87 424.55,313.19C416.33,311.50 409.26,310.34 408.84,310.60C408.42,310.86 405.58,315.31 402.53,320.49C399.06,326.39 393.81,333.25 388.49,338.84C383.73,343.84 380.03,348.58 380.08,349.63C380.13,350.77 384.50,354.91 391.27,360.25C397.39,365.06 402.73,369.00 403.14,369.00zM330.20,361.00C328.63,361.00 327.67,359.10 325.03,350.75C323.26,345.11 320.28,336.54 318.42,331.69C316.55,326.84 314.39,320.43 313.61,317.44C312.83,314.45 312.35,312.00 312.54,312.00C312.73,312.00 314.60,315.25 316.69,319.22C318.86,323.37 320.62,325.75 320.80,324.81C320.97,323.91 319.25,318.78 316.97,313.43C314.42,307.44 312.64,301.53 312.34,298.09C311.89,292.78 311.95,292.60 313.52,294.50C314.43,295.60 316.25,298.90 317.57,301.84C319.00,305.03 320.48,307.01 321.23,306.76C321.93,306.52 322.64,305.47 322.81,304.42C322.98,303.36 323.34,301.84 323.61,301.03C323.90,300.17 326.49,304.06 329.80,310.32C332.94,316.23 336.76,322.64 338.30,324.55C340.70,327.53 341.39,327.86 343.14,326.93C344.65,326.11 345.02,325.22 344.57,323.42C344.23,322.09 344.21,321.00 344.50,321.00C344.80,321.00 346.88,322.21 349.12,323.70C353.04,326.29 353.31,326.33 355.85,324.75C357.31,323.84 360.07,322.23 362.00,321.17C363.93,320.11 367.07,318.94 369.00,318.57C372.35,317.93 372.10,318.29 362.82,327.37C355.82,334.20 351.34,337.69 346.68,339.92C341.84,342.23 338.81,343.00 334.61,343.00C331.52,343.00 329.00,343.16 329.00,343.35C329.00,343.54 329.48,345.08 330.07,346.77C330.66,348.46 331.77,350.08 332.54,350.38C333.31,350.67 336.14,350.26 338.84,349.45C341.54,348.65 347.07,345.80 351.12,343.11C355.18,340.42 363.68,334.00 370.00,328.84C376.32,323.68 381.50,318.79 381.50,317.98C381.50,316.99 380.25,316.40 377.75,316.19C375.69,316.02 374.00,315.42 374.00,314.86C374.00,314.30 371.38,310.62 368.19,306.67C364.99,302.73 359.81,295.68 356.68,291.00C353.55,286.32 349.91,280.93 348.59,279.00C347.27,277.07 345.87,274.42 345.48,273.10C344.77,270.69 344.77,270.69 348.25,272.85C350.17,274.03 352.56,275.00 353.57,275.00C354.60,275.00 359.73,279.50 365.16,285.16C373.17,293.52 375.16,295.11 376.34,294.13C377.52,293.15 378.99,294.25 384.49,300.22C388.17,304.22 391.66,308.50 392.24,309.72C393.11,311.55 392.80,312.58 390.44,315.72C388.88,317.80 383.30,323.79 378.05,329.04C372.80,334.29 363.55,342.11 357.50,346.43C351.45,350.75 343.27,355.79 339.32,357.64C335.36,359.49 331.26,361.00 330.20,361.00zM412.62,347.00C410.79,347.00 407.81,345.99 405.99,344.75C404.17,343.51 402.21,341.73 401.63,340.80C401.05,339.86 400.80,338.87 401.08,338.58C401.37,338.30 404.56,338.53 408.19,339.10C413.57,339.93 415.45,339.84 418.46,338.58C420.93,337.55 422.05,336.49 421.83,335.40C421.65,334.50 419.93,333.25 418.00,332.63C416.06,332.00 414.50,330.83 414.50,330.00C414.50,329.01 415.68,328.40 418.00,328.21C419.93,328.05 423.30,328.54 425.50,329.31C428.19,330.24 429.60,331.37 429.81,332.75C430.03,334.25 428.19,336.46 423.03,340.90C417.43,345.72 415.25,347.00 412.62,347.00zM547.88,343.96C545.81,343.93 542.91,342.78 540.38,340.99C537.17,338.72 536.00,337.07 535.13,333.59C534.51,331.13 534.00,327.99 534.00,326.62C534.00,325.24 534.45,323.84 535.00,323.50C535.55,323.16 536.00,323.75 536.00,324.82C536.00,325.88 536.62,327.27 537.38,327.90C538.34,328.70 539.54,328.75 541.38,328.05C543.81,327.12 544.00,327.25 544.02,329.77C544.02,331.27 544.43,333.14 544.93,333.92C545.62,335.02 546.59,335.12 549.16,334.39C551.95,333.59 552.55,332.90 552.81,330.22C552.99,328.45 553.69,327.00 554.37,327.00C555.06,327.00 556.44,327.60 557.45,328.34C558.91,329.40 559.14,330.43 558.60,333.31C558.22,335.36 556.47,338.48 554.59,340.47C552.03,343.19 550.49,343.99 547.88,343.96zM638.89,343.00C639.38,343.00 645.12,341.16 651.64,338.91C660.34,335.91 666.07,333.14 673.12,328.52C678.41,325.05 684.82,320.22 687.37,317.78C689.92,315.34 692.00,312.82 692.00,312.17C692.00,311.53 691.65,311.00 691.22,311.00C690.79,311.00 686.18,313.55 680.97,316.66C675.76,319.77 665.20,325.35 657.50,329.05C649.80,332.75 642.26,336.93 640.75,338.34C639.24,339.75 638.00,341.38 638.00,341.95C638.00,342.53 638.40,343.00 638.89,343.00zM130.70,336.82C131.64,336.64 135.80,331.75 139.95,325.95C144.10,320.15 150.54,311.60 154.24,306.95C157.95,302.30 160.99,297.71 160.99,296.75C161.00,295.70 160.25,295.00 159.13,295.00C158.10,295.00 154.16,298.27 150.38,302.27C145.41,307.52 141.48,313.20 136.25,322.69C132.26,329.92 129.00,336.13 129.00,336.49C129.00,336.85 129.77,337.00 130.70,336.82zM441.32,308.87C444.43,308.98 447.09,307.76 455.79,302.25C461.65,298.54 468.06,293.89 470.03,291.91C472.80,289.14 474.72,288.17 478.51,287.65C481.21,287.28 483.86,286.54 484.41,285.99C485.06,285.34 485.06,284.66 484.39,283.99C483.83,283.43 479.88,282.31 475.60,281.49C471.32,280.67 463.40,280.00 458.00,280.00C448.81,280.00 447.78,280.21 442.15,283.25C438.83,285.04 431.11,290.48 424.98,295.33C418.85,300.19 414.13,304.47 414.50,304.83C414.86,305.20 420.18,306.23 426.33,307.12C432.47,308.01 439.22,308.79 441.32,308.87zM536.39,302.30C535.78,302.66 534.99,302.66 534.64,302.31C534.29,301.95 534.00,300.20 534.00,298.40C534.00,296.61 534.71,294.44 535.57,293.57C536.44,292.71 537.63,292.00 538.22,292.00C538.81,292.00 541.28,290.37 543.70,288.39C546.13,286.40 548.34,285.01 548.62,285.29C548.91,285.57 548.58,287.67 547.90,289.96C547.03,292.83 545.24,295.27 542.08,297.88C539.56,299.96 537.00,301.95 536.39,302.30zM202.43,301.00C203.13,301.00 205.03,300.34 206.65,299.52C208.28,298.71 213.85,297.42 219.03,296.65C227.91,295.34 228.62,295.05 231.63,291.57C233.38,289.54 237.32,282.05 240.38,274.92C243.45,267.79 247.77,259.28 249.99,256.01C252.21,252.74 257.25,246.90 261.18,243.03C265.38,238.89 267.66,236.00 266.72,236.00C265.84,236.00 261.83,237.17 257.81,238.61C253.79,240.05 246.90,243.06 242.50,245.30C236.52,248.35 232.32,251.55 225.88,257.94C221.14,262.65 214.96,270.04 212.14,274.36C209.33,278.69 207.27,282.62 207.57,283.11C207.87,283.60 209.38,284.00 210.92,284.00C212.47,284.00 214.94,283.05 216.41,281.89C219.09,279.78 219.09,279.78 218.46,282.31C217.98,284.23 218.31,285.10 219.85,285.92C220.96,286.51 222.90,287.00 224.16,287.00C226.44,287.00 226.44,287.00 224.46,288.99C223.19,290.25 219.03,291.71 213.04,292.99C203.60,295.01 203.60,295.01 200.30,291.81C198.49,290.05 197.00,287.68 197.00,286.55C197.01,285.42 197.97,282.93 199.14,281.00C200.31,279.08 202.86,275.57 204.79,273.21C206.73,270.84 213.47,264.76 219.78,259.70C228.83,252.43 230.79,250.43 229.12,250.18C227.95,250.00 223.39,251.78 218.98,254.14C214.56,256.49 207.16,261.26 202.53,264.74C197.89,268.21 191.34,274.16 187.97,277.95C184.01,282.41 180.38,285.44 177.67,286.54C174.03,288.03 173.75,288.35 175.50,289.05C176.60,289.50 179.81,289.89 182.62,289.93C185.44,289.97 189.16,290.28 190.88,290.63C193.10,291.07 195.06,292.67 197.59,296.13C199.56,298.81 201.74,301.00 202.43,301.00zM406.50,297.03C407.05,297.01 409.07,296.04 411.00,294.87C412.93,293.70 419.11,289.39 424.75,285.28C430.39,281.18 435.00,277.28 435.00,276.61C435.00,275.94 432.20,273.42 428.77,271.00C425.34,268.58 417.58,262.73 411.52,258.00C405.46,253.26 398.48,248.01 396.00,246.33C393.52,244.64 388.80,241.91 385.50,240.25C382.20,238.59 375.24,235.81 370.04,234.06C364.84,232.32 360.00,230.42 359.29,229.82C358.58,229.23 356.63,229.02 354.95,229.36C353.28,229.69 350.40,231.11 348.57,232.52C346.73,233.92 344.05,236.76 342.61,238.84C341.18,240.91 340.00,243.09 340.00,243.69C340.00,244.28 342.34,245.54 345.21,246.47C348.07,247.41 352.48,249.23 355.02,250.51C357.55,251.79 362.07,254.73 365.06,257.04C368.05,259.35 378.38,269.30 388.00,279.15C397.62,289.00 405.95,297.04 406.50,297.03zM595.52,293.73C598.27,293.54 602.55,292.36 605.02,291.12C607.48,289.88 610.79,287.75 612.37,286.38C613.94,285.02 614.98,283.65 614.68,283.35C614.38,283.05 612.62,283.95 610.76,285.37C608.91,286.78 605.74,288.63 603.73,289.47C601.71,290.31 597.91,291.00 595.28,291.00C592.17,290.99 589.28,290.25 587.00,288.86C585.08,287.69 581.63,285.19 579.34,283.32C577.01,281.41 574.91,280.34 574.57,280.89C574.23,281.44 575.43,283.55 577.22,285.60C579.02,287.64 582.74,290.39 585.49,291.71C589.25,293.50 591.75,294.00 595.52,293.73zM405.48,290.00C404.34,290.00 401.82,288.31 399.88,286.25C397.93,284.19 394.92,280.64 393.17,278.36C391.43,276.08 390.00,273.97 390.00,273.68C390.00,273.39 392.96,274.69 396.57,276.57C401.91,279.36 404.26,280.00 409.11,280.00C413.16,280.00 416.38,279.34 419.11,277.94C421.33,276.81 423.66,276.05 424.28,276.26C424.90,276.47 422.78,278.63 419.58,281.07C416.37,283.51 412.36,286.51 410.65,287.75C408.95,288.99 406.62,290.00 405.48,290.00zM590.84,271.46C591.03,271.29 590.89,270.22 590.52,269.07C590.16,267.93 588.95,266.51 587.82,265.91C586.40,265.14 585.47,265.13 584.74,265.86C584.00,266.60 584.10,267.41 585.06,268.57C585.81,269.48 587.35,270.57 588.47,271.00C589.58,271.42 590.65,271.63 590.84,271.46zM452.82,270.00C458.97,270.00 462.05,269.65 461.44,269.04C460.91,268.51 457.14,267.37 453.06,266.51C448.98,265.66 445.05,264.46 444.32,263.85C443.60,263.25 443.00,262.36 443.00,261.88C443.00,261.39 443.90,261.00 445.00,261.00C446.10,261.00 447.00,260.59 447.00,260.09C447.00,259.59 445.67,258.05 444.03,256.68C442.40,255.31 438.44,252.59 435.24,250.64C432.03,248.70 425.98,245.73 421.79,244.05C417.60,242.37 412.48,241.00 410.43,241.00C406.69,241.00 406.69,241.00 408.60,243.12C409.64,244.28 414.77,248.22 420.00,251.86C425.23,255.51 432.59,261.08 436.37,264.25C443.24,270.00 443.24,270.00 452.82,270.00zM683.39,262.00C680.92,262.00 679.06,261.02 676.04,258.15C672.63,254.91 672.00,253.68 672.00,250.31C672.00,247.70 672.64,245.73 673.83,244.65C674.83,243.74 676.75,243.01 678.08,243.02C680.03,243.03 680.21,243.23 679.00,244.04C677.73,244.89 677.88,245.33 680.00,246.98C681.38,248.04 683.81,249.93 685.41,251.17C688.32,253.42 688.32,253.42 687.62,250.46C687.24,248.83 685.79,246.49 684.41,245.25C681.89,243.00 681.89,243.00 685.04,243.00C686.77,243.00 689.46,243.75 691.01,244.67C692.56,245.58 694.32,247.40 694.91,248.71C695.51,250.02 696.00,252.16 696.00,253.47C696.00,254.77 695.75,256.48 695.45,257.27C695.12,258.13 694.00,258.53 692.67,258.28C691.28,258.01 689.74,258.63 688.57,259.93C687.39,261.23 685.46,262.00 683.39,262.00zM583.86,258.35C585.31,257.91 589.20,257.66 592.50,257.80C595.80,257.95 599.44,257.84 600.58,257.56C601.72,257.28 603.22,255.82 603.90,254.31C604.97,251.97 604.90,251.40 603.44,250.33C602.50,249.64 599.82,248.80 597.48,248.44C594.34,247.97 592.08,248.32 588.86,249.77C586.46,250.85 583.44,252.88 582.15,254.29C580.85,255.70 580.11,257.37 580.50,258.01C580.97,258.76 582.13,258.88 583.86,258.35zM708.25,250.94C707.84,250.90 706.51,250.47 705.30,249.99C704.09,249.50 702.41,247.75 701.55,246.10C700.70,244.45 700.00,242.63 700.00,242.05C700.00,241.47 700.84,241.00 701.87,241.00C702.89,241.00 704.92,241.93 706.37,243.07C708.14,244.47 709.00,246.10 709.00,248.07C709.00,249.68 708.66,250.97 708.25,250.94zM311.75,247.34C309.69,248.20 308.00,248.53 308.00,248.09C308.00,247.64 310.19,245.23 312.86,242.73C315.53,240.23 319.61,237.22 321.93,236.03C324.25,234.85 326.80,234.02 327.60,234.19C328.67,234.42 328.24,235.49 325.93,238.28C324.21,240.36 321.16,242.89 319.15,243.92C317.14,244.94 313.81,246.48 311.75,247.34zM301.20,236.96C300.81,236.94 302.07,236.06 304.00,235.02C305.93,233.98 309.66,232.60 312.30,231.95C314.95,231.30 317.35,231.02 317.65,231.31C317.94,231.61 314.52,233.01 310.04,234.43C305.56,235.84 301.58,236.98 301.20,236.96z"/>
</svg>