<?xml version="1.0" encoding="UTF-8" standalone="no"?>
<svg 
  version="1.1" 
  xmlns="http://www.w3.org/2000/svg" 
  xmlns:xlink="http://www.w3.org/1999/xlink" 
  xmlns:svg="http://www.w3.org/2000/svg"
  xmlns:rdf="http://www.w3.org/1999/02/22-rdf-syntax-ns#"
  xmlns:cc="http://creativecommons.org/ns#"
  xmlns:dc="http://purl.org/dc/elements/1.1/"
  viewBox="0 0 768 768"
  width="768"
  height="768"
>
<style>svg {background-color: white; }</style>"
<metadata id="metadata1">
Created by https://svgstud.io and licensed under CC-BY-SA 4.0 license. Please attribute https://svgstud.io
</metadata>
<metadata id="prompt">
silhouette!!, monochrome, turtle, plain background
</metadata>
<metadata id="version">
7
</metadata>
<metadata id="metadata2">
<rdf:RDF>
<cc:Work
    rdf:about="">
    <cc:license
    rdf:resource="http://creativecommons.org/licenses/by-sa/4.0/" />
    <dc:creator>
        <cc:Agent>
            <dc:title>https://svgstud.io</dc:title>
        </cc:Agent>
    </dc:creator>
</cc:Work>
<cc:License
    rdf:about="http://creativecommons.org/licenses/by-sa/4.0/">
    <cc:permits
    rdf:resource="http://creativecommons.org/ns#Reproduction" />
    <cc:permits
    rdf:resource="http://creativecommons.org/ns#Distribution" />
    <cc:requires
    rdf:resource="http://creativecommons.org/ns#Notice" />
    <cc:requires
    rdf:resource="http://creativecommons.org/ns#Attribution" />
    <cc:permits
    rdf:resource="http://creativecommons.org/ns#DerivativeWorks" />
    <cc:requires
    rdf:resource="http://creativecommons.org/ns#ShareAlike" />
</cc:License>
</rdf:RDF>
</metadata>
<metadata id="uid">
46acf259f00333d81b592681f2de4002f9c2d23c4574d27f676ac9d01ead6d96
</metadata>
<path stroke="none" fill="black" fill-rule="evenodd" d="M295.50,643.53C283.88,643.84 277.33,643.55 271.58,642.46C267.22,641.64 261.83,639.95 259.60,638.73C257.38,637.50 254.96,635.37 254.24,634.00C253.38,632.37 253.13,629.79 253.52,626.56C253.85,623.85 255.21,619.35 256.53,616.56C257.86,613.78 260.94,608.98 263.37,605.91C265.79,602.83 271.54,597.29 276.14,593.58C280.74,589.88 288.32,584.58 293.00,581.80C297.68,579.02 303.40,575.44 305.73,573.84C308.05,572.24 311.09,569.00 312.48,566.63C313.86,564.26 315.00,561.36 315.00,560.18C315.00,558.76 314.24,557.88 312.75,557.58C311.51,557.33 306.97,556.88 302.64,556.57C298.32,556.26 289.17,554.87 282.29,553.48C275.42,552.09 263.66,548.90 256.15,546.40C248.64,543.90 236.65,539.01 229.50,535.53C222.35,532.05 211.10,525.74 204.50,521.50C197.90,517.27 191.33,513.19 189.90,512.45C187.47,511.19 187.09,511.32 184.31,514.30C182.67,516.06 178.48,521.04 175.00,525.37C171.52,529.70 165.93,535.28 162.58,537.77C159.24,540.26 152.90,544.00 148.49,546.08C144.09,548.16 136.67,550.97 131.99,552.32C127.32,553.67 119.34,555.34 114.25,556.03C108.51,556.81 99.98,557.08 91.75,556.73C82.31,556.34 76.59,555.58 71.84,554.08C68.11,552.90 63.83,550.71 62.09,549.09C59.55,546.71 59.00,545.42 59.00,541.85C59.00,539.11 60.09,535.19 61.95,531.28C63.57,527.85 66.66,522.44 68.83,519.25C71.00,516.06 76.00,509.99 79.95,505.76C83.90,501.53 89.91,495.97 93.32,493.40C96.72,490.83 103.02,487.01 107.33,484.92C111.64,482.82 120.73,479.26 127.53,476.99C134.33,474.72 141.06,471.96 142.47,470.84C143.89,469.73 145.71,467.23 146.53,465.29C147.34,463.34 148.00,460.91 148.00,459.88C148.00,458.55 146.15,457.12 141.75,455.04C138.31,453.42 132.95,449.82 129.84,447.04C126.73,444.27 123.24,440.06 122.09,437.68C120.94,435.31 120.00,432.17 120.00,430.70C120.00,428.71 120.96,427.40 123.75,425.58C125.81,424.24 130.20,422.24 133.50,421.15C136.80,420.06 141.62,418.86 144.22,418.48C146.81,418.10 149.41,417.21 150.00,416.50C150.58,415.80 151.73,411.01 152.56,405.86C153.38,400.71 155.87,390.43 158.09,383.00C160.31,375.57 163.71,365.45 165.66,360.50C167.61,355.55 171.87,346.40 175.14,340.17C178.41,333.94 183.57,325.03 186.61,320.37C189.65,315.71 195.81,307.31 200.31,301.70C204.81,296.09 213.33,286.69 219.23,280.80C225.13,274.92 234.58,266.21 240.23,261.46C245.88,256.70 256.81,248.59 264.52,243.44C272.23,238.28 285.06,230.76 293.02,226.73C300.98,222.70 313.12,217.53 320.00,215.23C326.88,212.94 336.11,210.17 340.53,209.07C344.94,207.97 353.03,206.54 358.49,205.90C364.08,205.24 373.69,204.97 380.46,205.27C387.08,205.58 396.10,206.58 400.50,207.50C404.90,208.42 412.77,210.54 418.00,212.21C423.23,213.88 431.81,217.13 437.07,219.44C442.34,221.76 452.12,226.89 458.81,230.85C465.49,234.80 474.91,241.19 479.73,245.04C484.55,248.89 494.31,257.77 501.40,264.77C508.50,271.77 517.21,281.09 520.76,285.49C524.32,289.88 530.52,298.43 534.54,304.49C538.57,310.54 544.10,320.00 546.84,325.50C549.58,331.00 553.41,340.06 555.34,345.64C557.28,351.22 560.50,362.25 562.50,370.14C564.81,379.25 566.35,388.00 566.71,394.07C567.09,400.50 566.86,404.90 566.02,407.45C565.32,409.55 563.19,413.00 561.27,415.12C559.35,417.25 557.38,418.74 556.89,418.43C556.40,418.13 556.00,415.02 556.00,411.53C556.00,408.04 555.29,399.63 554.42,392.84C553.55,386.05 551.27,372.85 549.35,363.50C547.27,353.36 544.35,342.62 542.10,336.89C540.03,331.61 535.48,322.50 532.00,316.66C528.52,310.82 522.08,301.28 517.69,295.46C513.30,289.64 505.36,279.84 500.04,273.69C494.72,267.54 486.80,259.41 482.43,255.63C478.07,251.85 471.13,246.79 467.02,244.38C462.91,241.97 459.17,240.00 458.72,240.00C458.27,240.00 461.07,243.67 464.95,248.15C468.83,252.63 472.00,256.90 472.00,257.65C472.00,258.39 471.76,259.00 471.47,259.00C471.18,259.00 469.38,258.35 467.47,257.55C465.56,256.75 462.39,254.87 460.42,253.37C458.44,251.86 455.52,248.35 453.93,245.57C452.33,242.78 451.01,239.74 451.01,238.80C451.00,237.87 449.54,236.00 447.75,234.66C445.96,233.32 440.86,230.40 436.42,228.18C431.98,225.96 424.40,222.56 419.58,220.62C414.76,218.67 406.98,216.12 402.27,214.94C397.57,213.77 390.84,212.73 387.31,212.65C380.90,212.50 380.90,212.50 376.45,217.50C374.01,220.25 371.01,224.60 369.80,227.17C368.23,230.49 366.84,232.01 365.04,232.40C363.64,232.70 355.43,233.25 346.80,233.63C332.16,234.26 331.16,234.43 332.05,236.09C332.57,237.07 333.00,238.51 333.00,239.30C333.00,240.09 330.40,244.05 327.21,248.11C324.03,252.18 318.54,259.55 315.00,264.50C311.47,269.45 307.27,274.74 305.68,276.25C303.61,278.22 301.76,279.00 299.14,278.99C297.14,278.99 293.86,278.53 291.85,277.97C289.84,277.42 287.93,276.25 287.60,275.39C287.26,274.53 288.15,270.60 289.57,266.66C290.99,262.72 292.42,258.60 292.75,257.51C293.33,255.62 293.24,255.60 290.93,257.10C289.59,257.97 286.36,261.76 283.75,265.53C281.14,269.29 277.99,273.45 276.75,274.77C275.51,276.09 270.68,279.16 266.00,281.60C261.32,284.05 256.59,286.82 255.47,287.77C254.36,288.72 249.34,295.35 244.33,302.50C239.32,309.65 233.79,317.86 232.04,320.73C230.28,323.61 228.99,326.68 229.17,327.56C229.45,328.91 230.02,328.80 233.00,326.81C235.14,325.37 240.11,319.07 245.81,310.54C250.94,302.89 255.37,295.38 255.68,293.86C255.98,292.34 257.05,290.36 258.05,289.45C259.05,288.55 264.90,286.50 271.04,284.90C277.18,283.31 283.75,282.00 285.64,282.00C287.52,282.00 291.29,283.12 294.00,284.50C296.71,285.87 299.39,287.87 299.96,288.93C300.53,290.00 301.00,291.91 301.00,293.18C301.00,294.46 297.44,301.57 293.10,309.00C288.75,316.43 283.92,324.52 282.35,327.00C279.50,331.50 279.50,331.50 267.50,332.20C260.90,332.59 252.46,333.42 248.75,334.04C245.04,334.67 242.00,335.54 242.00,335.99C242.00,336.43 249.09,337.08 257.75,337.43C266.41,337.78 274.85,338.29 276.50,338.55C278.19,338.82 282.29,341.40 285.88,344.45C289.39,347.44 295.24,351.95 298.88,354.49C302.52,357.02 308.42,360.99 312.00,363.30C317.78,367.04 318.57,367.94 319.17,371.50C319.55,373.70 319.43,382.25 318.90,390.50C318.38,398.75 316.83,413.32 315.45,422.87C314.07,432.42 312.46,441.15 311.86,442.26C310.87,444.10 310.13,444.22 303.14,443.64C298.94,443.29 286.84,441.83 276.25,440.39C265.66,438.96 255.82,438.08 254.39,438.44C251.92,439.06 251.87,439.20 253.44,440.94C254.36,441.95 257.90,444.14 261.31,445.81C264.71,447.47 272.68,450.50 279.00,452.55C285.32,454.59 293.30,457.62 296.72,459.27C300.77,461.24 307.39,466.28 315.72,473.74C322.75,480.04 331.65,487.46 335.50,490.22C339.35,492.99 345.28,496.54 348.67,498.10C352.07,499.67 358.12,501.86 362.12,502.97C366.12,504.07 374.37,505.88 380.45,506.98C386.53,508.08 396.90,509.44 403.50,510.02C412.40,510.80 419.63,510.74 431.50,509.81C440.30,509.12 449.98,508.55 453.00,508.53C458.14,508.50 458.48,508.65 458.19,510.75C457.93,512.60 458.35,513.00 460.52,513.00C461.98,513.00 466.02,511.41 469.50,509.46C472.99,507.51 479.45,504.60 483.88,502.99C488.30,501.37 498.58,498.27 506.71,496.08C514.84,493.90 524.17,491.19 527.44,490.05C530.70,488.91 537.23,485.90 541.94,483.36C546.65,480.82 553.70,476.54 557.60,473.85C561.51,471.15 567.84,465.70 571.68,461.73C575.51,457.75 580.46,451.80 582.68,448.50C584.90,445.20 587.50,440.96 588.47,439.08C589.44,437.19 590.21,433.86 590.18,431.68C590.13,428.37 589.39,426.95 585.81,423.29C583.44,420.86 580.32,418.63 578.88,418.34C576.90,417.93 575.98,416.88 575.13,414.03C574.51,411.96 574.00,409.31 574.00,408.13C574.00,406.96 574.38,406.00 574.84,406.00C575.31,406.00 578.44,407.78 581.80,409.95C585.17,412.12 589.26,415.76 590.91,418.03C592.55,420.30 594.43,423.77 595.08,425.74C595.83,428.00 596.02,431.76 595.60,435.91C595.24,439.54 594.69,443.90 594.38,445.61C593.81,448.71 593.81,448.71 603.66,448.66C610.35,448.63 615.41,449.18 619.47,450.40C622.75,451.38 627.25,453.10 629.47,454.22C631.69,455.35 635.19,457.59 637.25,459.22C639.31,460.84 644.12,466.83 647.93,472.53C652.96,480.05 655.05,484.17 655.55,487.51C655.93,490.04 656.03,495.80 655.76,500.31C655.47,505.33 654.42,510.74 653.05,514.29C651.83,517.47 648.95,522.87 646.66,526.27C644.19,529.96 640.37,533.95 637.23,536.13C633.92,538.43 628.89,540.63 623.73,542.03C617.92,543.61 612.70,544.27 606.00,544.28C599.46,544.28 594.00,543.62 588.50,542.16C584.10,540.99 579.49,539.75 578.25,539.40C576.34,538.86 576.00,539.15 576.00,541.31C576.00,542.71 577.80,547.57 580.00,552.12C582.20,556.67 584.00,561.17 584.00,562.12C584.00,563.06 583.72,564.56 583.38,565.46C583.04,566.35 581.57,567.68 580.13,568.42C578.68,569.16 574.13,570.32 570.00,571.01C565.48,571.77 559.13,572.02 554.00,571.66C549.33,571.32 543.02,570.31 540.00,569.41C536.98,568.51 532.00,566.51 528.94,564.97C525.88,563.43 521.68,560.28 519.59,557.97C517.51,555.67 515.12,552.15 514.29,550.16C513.46,548.17 512.54,543.04 512.25,538.77C511.84,532.79 511.37,531.00 510.22,531.00C509.40,531.00 505.61,532.59 501.80,534.53C497.99,536.48 489.16,540.34 482.19,543.13C475.21,545.91 463.65,549.68 456.50,551.50C449.35,553.32 438.55,555.36 432.50,556.03C426.45,556.70 413.42,557.37 403.55,557.52C387.16,557.78 385.53,557.96 384.87,559.65C384.47,560.67 384.11,563.79 384.07,566.59C384.03,569.39 383.14,575.06 382.08,579.18C381.03,583.31 378.83,589.62 377.21,593.20C375.59,596.78 371.86,603.26 368.94,607.60C366.01,611.95 361.28,617.83 358.43,620.69C355.59,623.54 350.16,627.86 346.38,630.30C342.59,632.73 336.82,635.71 333.53,636.92C330.25,638.14 323.95,640.03 319.53,641.12C313.83,642.52 306.86,643.23 295.50,643.53zM619.57,505.00C620.58,505.00 620.96,504.38 620.65,503.25C620.39,502.29 619.92,499.93 619.60,498.00C619.29,496.07 619.43,493.88 619.91,493.12C620.53,492.13 621.82,491.93 624.43,492.42C626.94,492.89 629.66,494.67 633.11,498.11C637.17,502.15 638.42,502.89 639.56,501.95C640.34,501.30 642.82,497.16 645.07,492.74C649.16,484.71 649.16,484.71 647.54,480.46C646.43,477.56 643.11,473.50 637.14,467.74C630.29,461.14 627.20,458.90 623.08,457.53C619.62,456.38 615.86,455.92 612.15,456.19C608.91,456.42 604.39,457.64 601.56,459.05C598.84,460.40 593.18,464.88 588.98,469.00C584.78,473.12 580.05,478.24 578.47,480.36C575.65,484.14 575.63,484.26 577.54,485.66C578.62,486.44 581.75,487.72 584.50,488.50C587.25,489.28 593.67,490.36 598.77,490.91C603.86,491.45 608.48,492.18 609.03,492.52C609.58,492.86 610.94,494.92 612.06,497.11C613.17,499.29 614.96,501.96 616.04,503.04C617.12,504.12 618.71,505.00 619.57,505.00zM393.00,473.87C388.32,473.80 381.80,473.38 378.50,472.94C375.20,472.50 370.48,471.41 368.01,470.53C365.54,469.64 361.08,467.54 358.10,465.86C355.13,464.18 349.01,460.38 344.51,457.42C339.90,454.39 335.82,450.89 335.14,449.40C334.21,447.38 334.19,441.68 335.03,424.63C335.63,412.46 336.45,395.87 336.86,387.77C337.56,374.05 337.77,372.87 340.05,370.44C341.40,369.01 346.77,364.58 352.00,360.61C357.23,356.63 363.22,352.34 365.32,351.06C368.67,349.03 370.08,348.81 376.82,349.22C382.68,349.57 388.52,351.04 401.50,355.42C410.85,358.57 420.98,362.35 424.00,363.83C428.73,366.13 429.67,367.06 430.69,370.50C431.34,372.70 434.39,382.82 437.45,393.00C440.52,403.18 443.69,414.65 444.50,418.50C445.32,422.35 446.48,430.82 447.08,437.31C448.19,449.12 448.19,449.12 445.43,453.10C443.92,455.28 439.82,459.75 436.32,463.02C432.82,466.29 428.71,469.62 427.18,470.41C425.64,471.20 419.24,472.33 412.95,472.92C406.65,473.51 397.68,473.94 393.00,473.87zM540.09,455.36C537.07,457.00 534.90,457.65 534.52,457.03C534.18,456.48 534.65,454.42 535.58,452.47C536.51,450.52 541.14,445.34 545.88,440.97C550.62,436.60 555.11,433.01 555.86,433.01C556.89,433.00 557.05,433.90 556.53,436.72C556.14,438.76 555.20,441.64 554.44,443.12C553.68,444.59 551.25,447.34 549.04,449.23C546.84,451.12 542.81,453.88 540.09,455.36zM494.00,439.49C492.07,439.73 487.74,439.31 484.37,438.55C481.00,437.79 476.87,436.46 475.19,435.60C473.51,434.73 471.90,433.23 471.61,432.26C471.31,431.29 470.13,426.23 468.98,421.00C467.82,415.77 466.01,405.88 464.95,399.00C463.89,392.12 463.02,381.98 463.01,376.45C463.00,367.09 463.20,366.08 465.85,361.95C467.42,359.50 473.38,353.00 479.10,347.50C484.82,342.00 491.45,336.18 493.83,334.56C498.04,331.70 498.32,331.65 504.42,332.69C507.86,333.28 512.77,334.69 515.31,335.82C518.15,337.07 520.71,339.12 521.93,341.12C523.02,342.92 525.26,350.03 526.91,356.94C528.56,363.85 530.64,373.32 531.53,378.00C532.42,382.68 533.41,392.20 533.72,399.16C534.28,411.82 534.28,411.82 529.89,415.93C527.48,418.19 519.20,424.31 511.50,429.54C502.29,435.80 496.30,439.20 494.00,439.49zM322.46,354.00C319.19,354.00 316.91,353.13 312.66,350.25C309.61,348.19 304.16,343.88 300.56,340.69C296.95,337.49 294.00,334.29 294.00,333.57C294.00,332.86 295.29,329.18 296.88,325.39C298.46,321.60 301.90,314.06 304.53,308.62C309.31,298.75 309.31,298.75 314.90,299.33C317.98,299.65 324.55,301.09 329.50,302.52C334.45,303.95 339.51,305.78 340.75,306.58C342.42,307.67 343.00,309.00 342.99,311.77C342.99,313.82 342.53,320.60 341.98,326.84C341.43,333.07 340.46,339.15 339.84,340.34C339.21,341.53 337.61,343.82 336.27,345.42C334.93,347.03 332.23,349.62 330.28,351.17C327.63,353.28 325.63,354.00 322.46,354.00zM397.28,341.85C390.80,341.77 382.35,341.40 378.50,341.03C374.65,340.66 370.50,340.02 369.27,339.62C367.56,339.05 366.46,337.01 364.46,330.69C363.03,326.19 361.34,318.95 360.71,314.60C359.55,306.71 359.55,306.71 364.53,302.28C367.26,299.85 371.25,296.95 373.39,295.83C376.41,294.27 378.32,293.96 381.89,294.46C384.43,294.81 391.55,296.47 397.71,298.15C403.88,299.83 409.40,301.78 409.98,302.47C410.56,303.17 411.92,307.74 413.01,312.62C414.10,317.50 415.28,325.43 415.64,330.24C416.30,338.98 416.30,338.98 412.68,340.49C410.06,341.58 405.81,341.96 397.28,341.85zM479.05,332.00C478.20,332.00 475.70,331.10 473.50,330.01C471.30,328.91 466.12,325.19 462.00,321.73C457.88,318.27 453.11,313.37 451.40,310.84C449.61,308.17 447.83,303.76 447.18,300.37C446.56,297.14 445.76,291.51 445.40,287.85C444.81,281.90 444.95,281.10 446.71,280.16C448.12,279.40 451.91,279.53 460.09,280.59C466.36,281.41 473.07,282.85 475.00,283.79C477.44,284.99 479.63,287.46 482.27,292.00C484.34,295.57 486.92,301.33 488.00,304.79C489.08,308.25 490.25,314.59 490.61,318.89C491.26,326.69 491.26,326.69 485.93,329.35C483.00,330.81 479.91,332.00 479.05,332.00zM349.93,297.38C348.59,297.66 342.77,296.58 337.00,294.97C331.23,293.37 324.67,291.36 322.43,290.51C319.50,289.40 317.89,287.98 316.68,285.45C315.76,283.52 315.00,281.11 315.00,280.09C315.00,279.08 317.98,274.26 321.62,269.38C325.26,264.50 331.14,256.35 334.67,251.28C340.07,243.55 341.70,241.90 344.80,241.04C346.84,240.47 353.35,240.01 359.27,240.01C369.92,240.00 370.06,240.03 371.02,242.57C371.56,243.98 372.00,250.80 372.00,257.73C372.00,264.66 371.50,273.30 370.88,276.92C370.27,280.54 369.09,284.27 368.27,285.20C367.45,286.14 363.53,289.15 359.57,291.89C355.60,294.63 351.27,297.10 349.93,297.38zM415.04,289.93C410.97,289.88 406.04,288.99 402.00,287.57C398.43,286.32 393.16,284.10 390.29,282.65C385.90,280.42 384.93,279.42 384.13,276.25C383.61,274.19 382.17,265.39 380.93,256.70C378.93,242.62 378.84,240.73 380.19,239.39C381.01,238.56 384.85,237.44 388.70,236.91C393.02,236.31 396.62,236.29 398.10,236.86C399.42,237.37 407.13,243.92 415.24,251.42C423.35,258.93 430.23,266.06 430.54,267.29C430.84,268.51 430.96,273.11 430.80,277.50C430.50,285.50 430.50,285.50 426.04,287.75C422.69,289.44 419.94,289.98 415.04,289.93z"/>
</svg>