<?xml version="1.0" encoding="UTF-8" standalone="no"?>
<svg 
  version="1.1" 
  xmlns="http://www.w3.org/2000/svg" 
  xmlns:xlink="http://www.w3.org/1999/xlink" 
  xmlns:svg="http://www.w3.org/2000/svg"
  xmlns:rdf="http://www.w3.org/1999/02/22-rdf-syntax-ns#"
  xmlns:cc="http://creativecommons.org/ns#"
  xmlns:dc="http://purl.org/dc/elements/1.1/"
  viewBox="0 0 768 768"
  width="768"
  height="768"
>
<style>svg {background-color: white; }</style>"
<metadata id="metadata1">
Created by https://svgstud.io and licensed under CC-BY-SA 4.0 license. Please attribute https://svgstud.io
</metadata>
<metadata id="prompt">
tortoise
</metadata>
<metadata id="version">
7
</metadata>
<metadata id="metadata2">
<rdf:RDF>
<cc:Work
    rdf:about="">
    <cc:license
    rdf:resource="http://creativecommons.org/licenses/by-sa/4.0/" />
    <dc:creator>
        <cc:Agent>
            <dc:title>https://svgstud.io</dc:title>
        </cc:Agent>
    </dc:creator>
</cc:Work>
<cc:License
    rdf:about="http://creativecommons.org/licenses/by-sa/4.0/">
    <cc:permits
    rdf:resource="http://creativecommons.org/ns#Reproduction" />
    <cc:permits
    rdf:resource="http://creativecommons.org/ns#Distribution" />
    <cc:requires
    rdf:resource="http://creativecommons.org/ns#Notice" />
    <cc:requires
    rdf:resource="http://creativecommons.org/ns#Attribution" />
    <cc:permits
    rdf:resource="http://creativecommons.org/ns#DerivativeWorks" />
    <cc:requires
    rdf:resource="http://creativecommons.org/ns#ShareAlike" />
</cc:License>
</rdf:RDF>
</metadata>
<metadata id="uid">
c5f38cbfeea597778fdf62c7fd98b7c7972e782abde912ff5642dbe08b3dc2b1
</metadata>
<path stroke="none" fill="black" fill-rule="evenodd" d="M495.0,710.4C493.6,710.7 490.5,710.2 488.0,709.4C485.5,708.6 477.1,706.8 469.2,705.5C454.8,703.0 454.8,703.0 451.9,706.1C449.3,708.9 448.5,709.2 444.8,708.7C442.2,708.4 438.2,706.5 434.0,703.6C430.4,701.1 425.6,698.4 423.3,697.6C421.1,696.8 417.3,695.2 414.9,694.0C412.5,692.8 408.6,690.2 406.3,688.4C404.1,686.5 401.2,683.0 400.0,680.5C398.8,678.0 397.2,673.6 396.4,670.7C395.6,667.8 395.0,660.7 395.0,654.7C395.0,643.9 395.0,643.9 384.8,644.7C379.1,645.1 364.4,645.4 352.0,645.4C339.6,645.3 321.4,644.5 311.5,643.6C301.6,642.7 283.4,640.8 271.0,639.4C258.6,638.1 240.8,635.6 231.3,634.0C221.9,632.3 213.0,631.0 211.6,631.0C209.8,631.0 209.0,631.5 209.0,632.8C209.1,633.7 209.7,635.6 210.5,637.0C211.3,638.4 211.9,640.9 212.0,642.7C212.0,644.7 211.0,647.0 209.3,649.1C207.8,650.8 204.2,653.4 201.3,654.7C198.3,655.9 195.2,657.0 194.3,657.0C193.4,657.0 189.8,658.4 186.2,660.1C179.9,663.2 179.5,663.3 170.2,662.6C160.7,661.9 160.7,661.9 157.9,664.9C156.4,666.6 154.0,668.2 152.6,668.6C151.1,669.0 144.8,668.1 137.5,666.5C125.1,663.8 125.1,663.8 122.0,666.4C120.0,668.0 117.7,669.0 115.7,669.0C113.9,669.0 110.2,668.4 107.5,667.6C104.8,666.9 100.6,665.3 98.2,664.1C95.9,662.9 89.6,660.8 84.2,659.4C78.9,658.0 72.3,655.7 69.5,654.2C65.8,652.2 63.9,650.3 62.2,647.0C60.2,643.2 59.9,641.5 60.4,636.0C60.6,632.4 62.1,626.4 63.5,622.5C66.0,615.8 66.1,615.3 64.8,609.0C64.0,605.2 63.5,596.2 63.6,587.0C63.6,574.5 64.0,570.0 65.8,563.5C67.0,559.1 69.3,552.2 70.9,548.3C72.5,544.3 75.9,537.3 78.4,532.7C80.9,528.1 83.0,523.6 83.0,522.8C83.0,522.0 82.0,520.4 80.8,519.3C79.5,518.2 73.3,514.8 67.0,511.8C57.8,507.3 54.5,505.1 50.3,500.7C47.4,497.7 44.8,494.0 44.4,492.6C44.1,491.2 44.1,488.9 44.4,487.6C44.7,486.2 48.5,482.1 52.7,478.3C56.9,474.6 64.4,467.7 69.3,463.0C74.2,458.3 80.1,452.0 82.4,448.8C86.7,443.2 86.7,443.2 87.4,425.8C87.8,416.3 88.8,403.8 89.6,398.0C90.4,392.2 92.2,382.3 93.6,376.0C95.0,369.7 98.5,357.3 101.4,348.5C104.4,339.7 109.2,327.3 112.2,321.0C115.2,314.7 120.2,305.3 123.4,300.2C126.6,295.1 132.4,286.5 136.4,281.2C140.4,275.8 150.4,263.8 158.7,254.4C167.0,245.0 178.1,233.3 183.4,228.3C188.7,223.3 196.5,216.8 200.8,213.8C205.0,210.8 213.3,204.9 219.3,200.8C225.2,196.6 234.8,190.7 240.8,187.7C246.7,184.7 256.2,180.5 262.0,178.5C267.8,176.5 283.3,172.5 296.5,169.5C309.7,166.6 324.9,163.7 330.2,163.1C335.5,162.5 348.5,162.0 359.2,162.0C369.8,162.0 385.9,162.5 395.0,163.0C404.1,163.6 415.3,164.7 420.0,165.5C424.7,166.3 432.8,168.1 438.0,169.5C443.2,170.8 455.3,174.0 464.8,176.5C477.4,179.8 485.2,182.4 493.6,186.5C500.0,189.5 508.6,194.3 512.8,197.1C517.1,200.0 523.9,205.1 528.0,208.5C532.1,212.0 539.6,219.0 544.5,224.1C549.5,229.3 558.7,239.9 564.9,247.7C571.2,255.5 577.1,262.2 578.2,262.6C579.3,262.9 583.1,265.2 586.6,267.6C593.1,272.1 593.1,272.1 600.6,270.0C604.8,268.8 612.7,267.5 618.3,267.1C623.9,266.6 634.4,266.6 641.5,267.1C648.6,267.6 659.9,268.9 666.5,270.0C674.6,271.4 680.5,273.0 684.7,275.1C689.8,277.6 692.5,279.9 700.1,288.6C705.1,294.4 709.6,300.5 710.0,302.1C710.5,303.7 710.6,307.5 710.3,310.5C710.0,313.5 710.5,322.6 711.5,330.7C712.6,339.5 713.0,347.1 712.6,349.4C712.1,352.2 710.4,354.7 706.0,359.0C702.8,362.2 698.9,367.2 697.4,370.1C695.9,373.1 691.7,379.6 687.9,384.5C684.2,389.4 677.9,396.9 673.8,401.1C669.8,405.2 663.3,411.4 659.5,414.8C654.6,419.0 651.0,423.3 647.7,428.8C645.1,433.2 639.6,441.1 635.5,446.5C631.4,451.9 628.0,456.9 628.0,457.6C628.0,458.4 629.5,459.7 631.2,460.6C633.0,461.5 639.8,466.5 646.2,471.7C652.7,476.8 660.1,483.6 662.8,486.9C665.5,490.1 669.3,495.6 671.3,499.2C673.3,502.7 675.8,508.9 676.9,512.9C678.0,516.8 679.4,524.7 680.1,530.3C680.8,536.2 681.0,545.6 680.7,552.8C680.1,565.1 680.1,565.1 684.8,568.3C687.3,570.1 691.8,573.7 694.8,576.4C698.3,579.7 701.3,583.8 703.7,588.6C706.1,593.5 707.0,596.6 706.7,598.2C706.3,599.5 703.8,602.0 701.0,603.9C698.2,605.8 694.5,608.7 692.8,610.3C689.8,613.2 689.7,613.3 681.3,612.6C672.8,612.0 672.8,612.0 669.1,615.9C667.1,618.0 664.5,620.1 663.2,620.5C662.0,620.8 654.1,620.6 645.7,620.0C637.4,619.4 626.1,618.2 620.8,617.3C611.0,615.7 611.0,615.7 607.1,619.3C604.9,621.2 599.9,624.4 595.8,626.3C591.8,628.2 583.1,631.4 576.5,633.4C569.9,635.4 564.2,637.4 563.7,637.9C563.2,638.4 564.7,639.7 567.4,640.8C570.8,642.3 572.0,643.5 572.0,645.0C572.0,646.6 570.7,647.7 566.7,649.6C563.7,650.9 557.1,652.9 551.9,654.0C546.7,655.1 541.3,656.0 539.8,656.0C538.3,656.0 536.9,656.4 536.6,656.9C536.3,657.4 537.1,660.3 538.4,663.3C539.8,666.3 541.4,671.4 542.1,674.7C542.8,677.9 543.0,681.7 542.7,683.1C542.3,684.5 541.1,686.9 539.9,688.4C538.7,689.9 535.4,692.2 532.6,693.5C529.8,694.9 526.2,697.0 524.7,698.2C522.4,700.0 520.2,700.6 512.8,701.1C505.9,701.6 503.5,702.2 502.8,703.4C502.3,704.3 500.9,706.1 499.7,707.5C498.5,708.8 496.4,710.1 495.0,710.4zM492.9,706.0C493.5,706.0 494.4,705.1 495.0,704.1C495.5,703.0 496.0,699.0 496.0,695.2C496.0,691.1 495.2,685.6 494.0,681.8C492.9,678.2 490.3,672.7 488.2,669.4C486.1,666.1 483.1,662.6 481.5,661.6C478.8,659.8 478.7,659.8 476.2,661.7C474.8,662.8 472.7,664.9 471.6,666.4C470.2,668.3 469.5,670.7 469.5,673.8C469.5,677.4 470.2,679.5 472.6,683.0C474.4,685.5 478.2,690.3 481.1,693.6C484.1,697.0 487.7,701.1 489.2,702.9C490.6,704.6 492.3,706.0 492.9,706.0zM445.5,702.9C446.3,702.1 447.4,698.1 448.1,694.0C448.7,689.9 449.0,682.5 448.8,677.5C448.5,670.7 447.9,667.5 446.4,665.0C445.3,663.1 443.2,661.1 441.8,660.6C439.8,659.9 438.5,660.1 436.7,661.3C435.3,662.2 433.2,665.0 432.0,667.5C430.2,671.2 429.9,673.2 430.3,677.2C430.7,680.0 432.7,685.9 434.9,690.4C437.0,694.8 440.0,699.8 441.5,701.4C443.8,703.8 444.4,704.1 445.5,702.9zM519.0,695.0C519.5,695.0 520.3,693.5 521.0,691.6C521.8,689.2 521.8,686.4 521.0,681.4C520.4,677.6 519.6,673.4 519.3,672.1C518.8,670.0 518.9,669.9 520.8,670.9C521.9,671.5 524.7,673.8 527.0,676.0C529.7,678.6 531.6,679.8 532.2,679.2C532.8,678.6 532.0,676.0 530.2,672.3C528.5,669.1 525.1,664.5 522.6,662.2C519.5,659.4 517.1,658.0 515.3,658.0C513.6,658.0 510.9,659.3 508.7,661.1C506.7,662.8 505.0,664.7 505.0,665.5C505.0,666.2 506.5,669.3 508.4,672.3C510.2,675.4 512.8,681.2 514.0,685.2C515.3,689.2 516.8,693.1 517.3,693.8C517.8,694.4 518.6,695.0 519.0,695.0zM416.9,682.0C418.3,682.0 418.9,681.0 419.3,677.5C419.6,674.3 421.2,670.8 424.4,666.0C426.9,662.1 429.0,658.8 429.0,658.5C429.0,658.2 427.9,658.0 426.6,658.0C425.2,658.0 423.0,657.6 421.6,657.0C420.2,656.5 419.0,655.4 419.0,654.5C419.0,653.7 421.2,651.9 423.9,650.5C426.6,649.2 430.3,646.7 432.2,645.0C434.0,643.3 436.7,641.1 438.3,640.2C439.8,639.3 440.9,638.1 440.7,637.5C440.5,637.0 439.1,636.4 437.5,636.2C435.8,636.0 431.9,637.2 427.3,639.5C421.5,642.4 419.5,643.9 418.3,646.6C417.4,648.5 416.1,650.0 415.4,650.0C414.7,650.0 413.5,649.7 412.6,649.4C411.7,649.1 411.0,648.3 411.0,647.6C411.0,647.0 412.4,645.3 414.2,643.9C417.4,641.2 417.4,641.2 412.9,639.0C410.5,637.8 407.7,636.1 406.8,635.2C405.8,634.4 405.0,632.3 405.0,630.6C405.0,628.9 405.3,626.5 405.6,625.2C406.1,623.3 406.8,623.0 408.9,623.5C410.6,623.8 412.7,623.3 414.8,622.0C416.7,620.8 418.0,619.2 418.0,618.0C418.0,616.6 416.6,615.4 413.2,613.8C409.9,612.1 408.4,610.8 408.2,609.1C407.9,607.4 408.2,607.0 409.2,607.6C409.9,608.1 412.3,608.5 414.5,608.5C417.9,608.5 418.5,608.8 418.8,610.8C419.1,612.7 419.8,613.0 423.1,613.0C426.3,613.0 427.8,612.3 430.1,610.0C432.3,607.9 433.0,606.2 432.8,604.4C432.5,602.1 431.5,601.4 425.0,599.0C420.9,597.5 414.9,595.1 411.8,593.6C408.4,592.0 406.0,590.2 406.0,589.3C406.0,588.1 406.8,587.9 409.8,588.3C411.8,588.5 416.1,589.7 419.3,590.9C422.8,592.2 427.7,593.1 431.4,593.2C434.8,593.2 438.6,592.8 439.8,592.1C441.0,591.5 444.0,587.9 446.5,584.2C449.0,580.5 451.0,576.8 451.0,575.9C451.0,575.0 450.2,573.6 449.2,572.8C448.3,572.0 441.9,569.6 435.0,567.6C428.2,565.5 422.0,563.4 421.3,562.8C420.6,562.2 420.0,561.4 420.0,560.9C420.0,560.4 421.6,559.2 423.5,558.3C426.8,556.7 427.0,556.7 428.8,559.0C430.2,560.7 432.2,561.5 437.0,562.1C441.9,562.8 443.8,562.7 445.5,561.6C446.7,560.8 449.8,556.7 452.5,552.5C455.1,548.3 457.0,544.6 456.7,544.3C456.3,544.0 452.1,542.9 447.3,541.8C442.5,540.7 436.1,539.6 433.2,539.3C428.6,538.9 427.5,539.1 425.4,541.1C424.1,542.3 419.1,551.2 414.4,560.9C409.6,570.6 404.2,583.0 402.2,588.5C399.1,597.4 398.7,599.6 398.7,608.5C398.8,614.4 399.5,621.5 400.5,626.0C401.6,630.6 402.5,640.0 402.9,650.0C403.5,664.6 403.8,667.0 405.9,671.0C407.2,673.5 409.8,677.0 411.7,678.8C413.6,680.5 416.0,682.0 416.9,682.0zM458.9,664.9C459.0,665.0 462.3,662.2 466.0,658.7C469.9,655.1 476.1,650.8 480.5,648.5C488.3,644.5 488.3,644.5 484.6,644.2C482.6,644.0 478.6,644.6 475.8,645.6C472.4,646.7 469.1,647.1 465.8,646.7C462.4,646.3 459.1,646.7 454.8,648.0C451.5,649.0 447.7,650.9 446.4,652.1C445.1,653.3 444.0,654.7 444.0,655.1C444.0,655.6 445.9,656.4 448.2,657.1C450.8,657.8 453.7,659.5 455.5,661.5C457.1,663.4 458.7,664.9 458.9,664.9zM112.9,663.0C113.5,663.0 114.0,661.1 114.0,658.8C114.0,656.4 113.5,649.1 113.0,642.5C112.4,635.9 111.7,629.7 111.4,628.7C111.1,627.7 109.7,626.5 108.3,625.9C106.7,625.3 104.4,625.3 101.9,626.0C99.7,626.6 97.3,628.1 96.4,629.5C95.5,631.0 94.8,634.0 94.8,637.0C94.9,640.5 95.7,643.5 97.6,647.0C99.1,649.8 102.9,654.5 106.1,657.5C109.3,660.5 112.3,663.0 112.9,663.0zM149.7,663.0C151.0,663.0 151.2,662.1 150.7,657.8C150.4,654.9 148.5,647.4 146.5,641.2C144.1,633.6 141.9,628.8 139.8,626.5C138.1,624.5 135.9,623.0 134.6,623.0C133.3,623.0 131.4,624.0 130.3,625.2C129.2,626.5 127.7,628.5 127.1,629.7C126.5,630.9 126.0,633.7 126.0,636.0C126.0,638.3 126.7,641.7 127.6,643.6C128.5,645.5 133.5,650.6 138.7,655.0C143.9,659.4 148.8,663.0 149.7,663.0zM498.0,660.8C498.3,660.6 501.3,658.5 504.7,656.1C509.6,652.6 510.7,651.4 509.9,650.3C509.2,649.6 506.8,649.0 504.3,649.0C501.8,649.0 498.1,649.9 495.7,651.1C493.4,652.3 491.3,653.4 491.1,653.6C490.8,653.9 492.2,655.6 494.0,657.5C495.9,659.5 497.7,660.9 498.0,660.8zM177.5,657.0C178.2,657.0 179.3,656.3 180.0,655.5C180.9,654.5 181.1,652.3 180.7,648.8C180.3,646.0 179.1,640.7 177.9,637.1C176.7,633.5 176.1,630.5 176.6,630.3C177.1,630.1 178.1,629.6 178.9,629.1C180.1,628.3 180.1,627.9 179.1,626.6C178.3,625.6 176.2,625.0 173.9,625.0C171.1,625.0 169.2,625.8 166.9,627.8C163.8,630.6 163.8,630.6 167.9,637.0C170.2,640.5 173.0,646.5 174.1,650.2C175.3,654.0 176.8,657.0 177.5,657.0zM431.9,653.0C432.9,653.0 435.6,651.6 437.9,649.9C440.3,648.2 442.0,646.6 441.7,646.4C441.4,646.1 439.5,646.3 437.4,646.9C435.2,647.5 432.5,648.7 431.2,649.5C430.0,650.4 429.2,651.6 429.5,652.1C429.9,652.6 430.9,653.0 431.9,653.0zM78.2,647.8C80.2,647.5 80.6,646.8 81.1,641.8C81.5,638.4 82.8,634.4 84.4,631.6C85.8,629.2 87.0,626.7 87.0,626.2C87.0,625.7 84.5,624.0 81.3,622.5C77.3,620.5 75.3,620.0 74.1,620.7C73.3,621.2 71.7,622.8 70.7,624.2C69.5,625.9 68.6,629.1 68.3,633.4C67.7,640.0 67.7,640.0 71.8,644.1C74.7,646.9 76.6,648.1 78.2,647.8zM458.6,636.9C459.1,636.9 463.2,636.1 467.5,634.9C471.8,633.8 476.2,632.4 477.3,631.8C478.9,631.0 479.0,630.6 477.9,629.9C477.1,629.4 471.1,629.0 464.4,629.0C455.5,629.0 451.9,629.4 450.4,630.4C448.9,631.6 448.7,632.2 449.6,633.7C450.2,634.7 452.2,635.8 454.1,636.1C456.0,636.5 458.0,636.8 458.6,636.9zM417.9,633.0C419.2,633.0 421.1,632.4 421.9,631.6C422.8,630.9 425.0,629.8 426.9,629.1C428.8,628.5 434.0,628.0 438.6,628.0C443.2,628.0 447.1,627.6 447.5,627.0C447.8,626.5 447.0,625.4 445.8,624.6C444.5,623.8 440.5,622.4 436.8,621.5C431.5,620.3 429.1,620.2 425.0,621.1C422.1,621.7 419.0,623.0 418.1,623.9C417.1,624.9 415.6,625.9 414.7,626.3C413.7,626.7 412.7,627.7 412.3,628.6C411.9,629.7 412.4,630.8 413.5,631.6C414.5,632.4 416.5,633.0 417.9,633.0zM154.1,626.0C155.0,626.0 157.4,624.4 159.6,622.5C163.5,619.1 163.5,619.1 158.6,619.0C154.3,619.0 153.9,618.8 155.1,617.4C155.8,616.6 157.6,615.2 159.2,614.4C160.7,613.6 162.0,612.5 162.0,612.0C162.0,611.4 160.1,611.0 157.7,611.0C155.3,611.0 151.2,611.7 148.6,612.6C146.0,613.5 143.6,614.9 143.3,615.8C142.9,616.7 144.4,618.8 147.6,621.6C150.3,624.0 153.2,625.9 154.1,626.0zM116.1,622.9C117.0,623.0 118.9,622.1 120.3,621.0C121.7,619.9 124.8,617.9 127.1,616.5C129.9,615.0 130.9,613.9 130.0,613.7C129.2,613.4 124.3,612.7 119.3,612.1C111.8,611.2 109.4,611.2 106.8,612.3C105.0,613.1 102.0,614.9 100.2,616.4C98.5,617.9 97.0,619.6 97.0,620.1C97.0,620.6 99.8,621.0 103.2,621.1C106.7,621.2 110.6,621.6 112.0,622.0C113.4,622.4 115.2,622.8 116.1,622.9zM90.0,617.9C91.4,617.6 92.6,616.7 92.8,615.8C93.0,614.9 91.9,613.8 90.0,613.0C88.4,612.3 87.0,611.5 87.0,611.1C87.0,610.7 89.8,609.5 93.2,608.5C96.7,607.4 99.4,606.0 99.3,605.5C99.2,605.0 96.3,604.2 92.8,603.7C89.3,603.3 83.3,602.5 79.5,602.0C75.7,601.5 72.1,601.5 71.7,601.9C71.2,602.4 71.3,605.4 71.9,608.5C72.5,611.7 73.7,615.1 74.6,616.1C75.7,617.3 78.0,618.0 81.9,618.2C85.0,618.4 88.6,618.2 90.0,617.9zM457.9,616.7C470.1,616.4 470.3,616.3 472.7,613.6C474.0,612.0 474.9,610.3 474.7,609.6C474.5,609.0 470.8,608.1 466.4,607.7C462.1,607.3 454.9,606.2 450.5,605.4C446.1,604.5 441.5,603.6 440.4,603.3C438.5,602.9 438.2,603.3 437.8,607.2C437.5,609.5 437.8,612.1 438.4,612.9C439.0,613.7 440.8,614.9 442.5,615.6C444.6,616.6 449.2,616.9 457.9,616.7zM659.9,614.8C661.2,614.5 661.6,612.8 661.8,607.1C662.1,600.8 661.7,598.9 659.5,594.3C658.0,591.4 655.7,588.2 654.3,587.3C652.0,585.7 651.7,585.8 649.0,588.6C647.5,590.2 645.9,592.4 645.6,593.6C645.1,595.1 646.4,597.9 650.1,603.6C652.9,607.9 655.9,612.3 656.8,613.3C657.7,614.3 659.1,614.9 659.9,614.8zM484.7,610.0C486.3,610.0 490.0,608.8 492.8,607.4C495.7,606.0 498.5,603.9 499.1,602.9C500.0,601.1 499.8,601.0 497.3,601.6C495.8,602.0 491.8,602.8 488.5,603.4C483.0,604.4 482.5,604.7 482.2,607.3C481.9,609.7 482.2,610.0 484.7,610.0zM689.5,603.6C690.0,603.4 690.4,601.6 690.3,599.5C690.1,597.4 688.9,593.2 687.5,590.2C686.1,587.1 684.2,583.8 683.3,582.8C682.4,581.8 680.9,581.0 680.0,581.0C679.1,581.0 677.5,581.9 676.5,583.0C674.8,584.9 674.8,585.1 678.2,588.8C680.1,590.9 683.2,595.2 685.1,598.3C686.9,601.5 688.9,603.8 689.5,603.6zM107.5,599.8C110.8,599.8 115.5,599.5 118.0,599.1C122.5,598.3 122.5,598.3 119.0,596.8C117.1,595.9 113.0,594.7 110.0,594.0C107.0,593.4 102.7,593.0 100.5,593.2C97.0,593.5 96.5,593.8 96.2,596.2C95.9,598.4 96.3,598.9 98.7,599.3C100.2,599.5 104.2,599.7 107.5,599.8zM456.6,598.0C460.7,598.0 465.1,597.5 466.3,596.8C467.5,596.2 469.6,594.5 471.0,593.1C473.4,590.5 473.4,590.5 474.3,593.8C474.9,595.5 475.6,597.0 476.1,597.0C476.5,597.0 477.6,594.9 478.5,592.2C479.4,589.6 480.8,585.8 481.6,583.6C482.3,581.5 482.7,579.4 482.5,579.0C482.3,578.6 477.4,578.0 471.8,577.7C466.1,577.3 460.2,577.4 458.6,577.8C456.1,578.5 455.1,579.8 452.3,586.4C450.5,590.7 449.0,595.0 449.0,596.1C449.0,597.8 449.8,598.0 456.6,598.0zM178.9,596.0C179.2,596.0 181.7,593.8 184.3,591.1C186.9,588.5 191.8,584.8 195.1,582.9C198.5,581.0 202.4,578.5 203.8,577.3C206.5,575.2 206.5,575.2 204.0,574.2C202.6,573.6 197.3,572.1 192.1,570.9C182.9,568.8 182.7,568.7 181.3,570.6C180.6,571.6 179.3,574.7 178.4,577.5C177.6,580.2 176.7,584.9 176.3,587.7C175.9,591.3 176.1,593.5 177.0,594.5C177.7,595.3 178.5,596.0 178.9,596.0zM84.9,595.0C85.7,595.0 87.4,594.0 88.7,592.8C90.0,591.6 91.0,590.1 91.0,589.5C91.0,588.9 89.3,587.4 87.1,586.2C85.0,585.0 82.6,584.0 81.8,584.0C81.0,584.0 78.2,582.9 75.7,581.6C73.2,580.2 70.9,579.4 70.6,579.7C70.3,580.1 70.0,582.0 70.0,584.1C70.0,586.2 70.4,589.0 71.0,590.4C71.8,592.6 72.6,593.0 76.2,593.0C78.6,593.0 81.2,593.5 82.0,594.0C82.8,594.5 84.1,595.0 84.9,595.0zM128.8,588.9C135.3,589.0 136.0,588.8 136.0,587.0C136.0,585.5 134.7,584.7 130.3,583.4C127.2,582.5 122.3,581.7 119.6,581.6C114.8,581.5 114.5,581.6 114.2,584.2C113.9,586.5 114.3,587.0 116.7,587.6C118.2,587.9 120.0,588.3 120.5,588.5C121.0,588.7 124.8,588.9 128.8,588.9zM103.8,584.8C105.8,584.9 107.7,584.3 109.0,583.0C110.1,581.9 111.0,580.1 111.0,579.0C111.0,577.8 110.0,576.6 108.8,576.0C107.5,575.5 103.2,574.4 99.1,573.5C95.0,572.6 91.4,572.3 90.9,572.7C90.5,573.1 90.0,575.8 89.8,578.5C89.5,583.5 89.5,583.5 95.0,584.1C98.0,584.4 102.0,584.7 103.8,584.8zM489.5,584.0C491.3,584.0 494.7,583.3 497.1,582.5C499.5,581.6 502.2,580.2 503.2,579.3C504.2,578.4 505.0,577.3 505.0,576.8C505.0,576.4 502.0,576.1 498.2,576.1C494.5,576.2 490.2,576.5 488.6,576.9C487.0,577.2 485.2,578.2 484.7,579.2C483.9,580.4 484.0,581.3 484.9,582.4C485.7,583.3 487.7,584.0 489.5,584.0zM80.9,577.8C82.3,577.9 84.4,577.0 85.7,575.8C87.0,574.6 88.0,572.6 88.0,571.3C88.0,569.7 87.2,568.6 85.2,567.9C83.7,567.3 80.6,566.3 78.2,565.7C74.6,564.7 73.7,564.8 73.0,566.0C72.4,566.8 72.0,569.6 72.0,572.2C72.0,576.7 72.1,576.9 75.2,577.3C77.0,577.5 79.6,577.8 80.9,577.8zM595.2,576.9C596.1,577.0 597.1,576.2 597.4,575.2C597.7,574.3 598.2,566.9 598.6,558.8C599.0,549.8 598.9,544.0 598.3,544.0C597.8,544.0 595.6,545.8 593.5,548.1C591.3,550.3 585.4,555.5 580.5,559.5C575.5,563.5 570.8,567.5 570.1,568.4C569.3,569.3 568.9,570.2 569.1,570.5C569.4,570.7 574.0,571.9 579.4,573.0C584.9,574.2 590.2,575.6 591.4,576.0C592.6,576.5 594.3,576.9 595.2,576.9zM126.3,573.0C136.2,573.0 137.9,572.8 139.4,571.1C140.4,570.1 140.7,569.0 140.2,568.7C139.8,568.4 136.1,567.4 132.2,566.5C126.5,565.2 125.0,564.5 125.0,563.0C125.0,562.1 125.7,560.7 126.5,560.0C127.3,559.4 130.2,558.7 133.0,558.6C136.7,558.4 138.7,557.7 140.3,556.1C142.4,553.9 142.4,553.8 140.6,552.5C139.6,551.7 136.8,550.8 134.4,550.4C131.7,550.0 128.8,550.2 127.0,551.0C125.3,551.7 122.5,554.3 120.6,556.9C118.7,559.4 116.7,563.3 116.1,565.5C115.5,567.7 115.0,570.3 115.0,571.2C115.0,572.8 116.2,573.0 126.3,573.0zM464.8,569.7C470.1,569.4 473.9,568.6 475.6,567.5C477.0,566.6 479.4,563.0 481.1,559.3C482.7,555.7 484.0,552.0 484.0,551.0C484.0,550.0 483.2,548.9 482.2,548.6C481.3,548.3 477.0,547.6 472.7,547.1C468.4,546.5 464.2,546.0 463.4,546.0C462.7,546.0 460.7,548.6 459.2,551.8C457.6,554.9 455.5,559.7 454.5,562.4C452.7,567.2 452.7,567.3 454.6,568.7C456.0,569.8 458.5,570.1 464.8,569.7zM488.0,569.0C489.1,569.0 492.2,568.1 494.8,567.1C497.4,566.0 500.3,564.9 501.3,564.6C502.2,564.3 503.3,562.7 503.6,561.1C503.9,559.5 505.2,557.7 506.5,557.0C507.8,556.3 509.2,555.0 509.5,554.1C509.8,553.2 509.4,552.0 508.5,551.4C507.7,550.8 504.2,549.9 500.8,549.6C495.7,549.0 494.3,549.2 492.2,550.7C490.8,551.8 489.1,554.2 488.4,556.2C487.7,558.3 486.8,562.0 486.5,564.5C485.8,568.7 485.9,569.0 488.0,569.0zM105.5,566.2C106.6,566.0 108.0,565.4 108.6,564.9C109.2,564.4 110.9,561.8 112.4,559.0C114.6,555.0 114.9,553.6 114.0,552.5C113.4,551.7 111.2,550.6 109.2,549.9C107.2,549.3 105.1,548.4 104.5,547.9C104.0,547.4 107.3,547.0 112.4,547.0C120.2,547.0 121.8,546.7 126.1,544.2C128.8,542.7 131.0,541.0 131.0,540.4C131.0,539.8 128.2,538.3 124.8,537.1C121.3,535.9 116.0,534.2 113.0,533.4C110.0,532.5 105.1,531.2 102.1,530.4C99.2,529.5 95.8,529.1 94.5,529.4C93.2,529.7 89.9,532.5 87.2,535.6C84.5,538.6 80.9,543.9 79.2,547.3C77.5,550.7 75.9,554.5 75.5,555.7C75.1,557.2 75.4,558.2 76.7,558.8C77.7,559.3 80.2,560.0 82.3,560.4C85.7,561.0 86.3,560.8 89.6,557.3C91.6,555.2 93.0,554.3 92.7,555.2C92.4,556.1 91.8,558.4 91.5,560.3C91.0,562.7 91.2,564.0 92.2,564.6C92.9,565.1 95.8,565.7 98.5,566.1C101.2,566.4 104.4,566.5 105.5,566.2zM268.5,562.9C280.6,562.9 295.4,562.5 301.5,562.0C307.6,561.4 316.8,560.2 322.0,559.4C327.2,558.5 334.8,556.7 339.0,555.3C343.1,553.9 349.2,551.4 352.5,549.7C355.8,548.1 361.8,544.5 365.8,541.7C369.8,539.0 375.4,534.2 378.3,531.0C381.1,527.9 388.0,518.9 393.5,510.9C399.9,501.7 406.9,493.1 413.0,487.0C418.8,481.1 426.6,474.7 433.2,470.3C439.1,466.4 447.2,461.6 451.2,459.7C455.2,457.8 461.4,455.3 465.0,454.2C468.6,453.0 475.8,451.4 481.0,450.5C488.2,449.4 492.7,447.9 499.9,444.4C507.3,440.7 510.9,438.2 516.5,432.6C520.4,428.7 524.6,423.3 525.9,420.7C527.7,416.9 528.1,414.9 527.6,411.4C527.3,409.0 526.4,405.5 525.6,403.5C524.7,401.3 523.0,399.6 521.3,398.9C519.7,398.3 514.9,398.0 510.5,398.2C504.9,398.5 501.1,399.3 498.0,400.8C495.5,402.0 488.3,407.3 482.0,412.6C475.7,417.9 469.0,423.0 467.0,424.0C465.1,425.0 461.9,426.1 460.0,426.5C458.1,426.9 452.2,428.6 447.0,430.2C441.8,431.9 435.0,434.5 432.0,436.0C429.0,437.6 423.0,441.3 418.6,444.3C414.3,447.3 404.9,455.1 397.6,461.6C390.4,468.1 380.0,478.1 374.5,483.7C368.0,490.3 363.7,494.0 362.3,494.0C360.9,494.0 360.0,493.2 359.6,491.5C359.2,489.9 358.3,489.0 357.0,489.0C355.8,489.0 352.3,490.3 349.0,492.0C345.8,493.6 341.5,496.4 339.6,498.1C337.5,499.9 335.6,502.7 335.1,504.8C334.6,506.9 334.5,510.5 334.9,513.0C335.4,515.5 336.2,518.8 336.9,520.3C337.5,521.8 339.2,524.2 340.6,525.5C343.1,527.9 344.0,528.0 354.8,528.0C366.3,528.0 366.3,528.0 364.0,530.5C362.6,531.9 358.8,534.4 355.5,536.1C351.2,538.2 346.7,539.4 340.3,540.2C332.3,541.2 330.8,541.1 328.6,539.7C327.3,538.8 324.9,535.5 323.4,532.3C321.9,529.1 319.9,524.0 318.9,521.0C317.6,516.9 316.8,515.6 315.5,515.8C314.6,516.0 309.1,518.0 303.2,520.2C296.9,522.7 291.3,525.5 289.7,527.2C287.1,529.7 286.9,530.5 287.1,537.0C287.2,540.9 287.0,544.3 286.7,544.6C286.4,544.9 285.3,544.9 284.2,544.6C283.1,544.2 281.5,542.9 280.8,541.7C280.0,540.5 278.3,536.6 277.0,533.2C275.7,529.7 274.0,526.6 273.2,526.3C272.4,525.9 268.4,526.5 264.3,527.5C259.2,528.7 255.8,530.1 253.5,532.1C251.7,533.7 248.6,537.4 246.5,540.4C243.9,544.3 241.9,546.1 239.8,546.5C237.9,547.0 236.1,546.6 234.3,545.5C232.9,544.6 231.1,542.0 230.2,539.8C228.8,536.3 228.4,535.9 226.1,536.5C224.7,536.9 219.2,537.5 213.9,537.9C205.6,538.4 203.7,538.9 200.2,541.4C196.2,544.2 196.2,544.2 190.2,540.8C186.9,539.0 183.8,537.8 183.5,538.2C183.1,538.6 183.0,540.4 183.4,542.3C183.7,544.2 185.5,547.4 187.3,549.4C190.1,552.6 191.7,553.4 200.0,555.4C205.2,556.7 214.0,558.5 219.5,559.5C225.0,560.4 233.3,561.5 238.0,561.9C242.7,562.4 256.4,562.8 268.5,562.9zM642.5,561.7C648.6,561.5 650.1,561.0 654.2,558.2C656.9,556.4 659.0,554.5 659.0,554.0C659.0,553.5 657.5,553.3 655.8,553.6C654.0,554.0 649.4,554.8 645.5,555.6C641.6,556.4 636.6,557.0 634.2,557.0C630.6,557.0 629.9,557.3 630.2,558.7C630.4,559.6 631.6,560.7 633.0,561.2C634.4,561.6 638.6,561.8 642.5,561.7zM644.0,546.0C644.4,546.0 647.5,544.9 650.9,543.5C654.3,542.1 658.7,539.9 660.6,538.7C662.4,537.5 664.0,535.9 664.0,535.2C664.0,534.6 663.4,534.0 662.7,534.0C661.9,534.0 656.9,534.9 651.5,536.1C646.1,537.2 641.3,538.3 640.8,538.6C640.4,538.9 640.8,540.6 641.7,542.5C642.6,544.4 643.7,546.0 644.0,546.0zM530.7,545.0C531.7,545.0 536.5,544.3 541.5,543.5C546.5,542.7 554.4,540.9 559.1,539.5C563.8,538.2 572.8,535.0 579.0,532.5C585.2,530.0 593.9,525.8 598.3,523.2C602.6,520.6 609.0,516.2 612.4,513.4C615.9,510.6 620.3,506.0 622.3,503.2C624.4,500.5 627.2,495.6 628.6,492.5C630.6,488.2 631.4,484.6 631.8,477.9C632.1,471.6 631.9,468.6 631.0,467.5C630.3,466.7 628.5,466.0 626.9,466.0C624.7,466.0 623.9,466.6 623.6,468.2C623.3,469.5 622.8,473.1 622.5,476.4C622.1,479.6 621.2,484.0 620.5,486.1C619.7,488.3 617.7,492.0 616.0,494.5C614.3,497.0 612.0,499.5 610.9,500.1C609.8,500.7 608.6,500.9 608.2,500.6C607.9,500.2 608.4,497.6 609.3,494.6C610.2,491.7 611.0,488.8 611.0,488.0C611.0,487.1 607.9,486.9 597.2,487.2C585.7,487.5 582.9,487.9 579.5,489.7C577.3,490.9 572.9,493.4 569.6,495.4C566.2,497.4 561.8,499.2 559.1,499.5C556.6,499.8 553.1,500.7 551.5,501.5C549.9,502.2 544.9,506.0 540.5,510.0C536.1,513.9 531.3,517.8 529.8,518.7C528.3,519.6 526.9,521.2 526.6,522.3C526.4,523.4 526.6,528.3 527.1,533.4C527.6,538.4 528.3,543.1 528.5,543.8C528.7,544.4 529.7,545.0 530.7,545.0zM494.8,541.5C495.5,541.2 499.2,541.0 502.8,541.0C506.5,541.0 510.1,540.6 510.9,540.1C512.1,539.3 512.2,538.7 511.2,536.5C510.5,535.1 508.7,533.1 507.0,532.2C505.4,531.3 504.2,530.0 504.3,529.5C504.5,529.0 506.2,528.3 508.1,528.0C510.6,527.6 511.6,527.0 511.8,525.3C512.0,523.9 511.3,522.6 509.6,521.5C508.2,520.6 504.5,519.6 501.3,519.3C497.0,518.9 495.1,519.1 494.4,520.1C493.8,520.9 493.0,525.8 492.7,531.1C492.3,536.4 492.4,541.0 492.7,541.4C493.1,541.8 494.0,541.8 494.8,541.5zM473.6,540.8C478.7,540.6 483.1,540.2 483.4,539.9C483.7,539.6 485.1,535.6 486.5,530.9C488.0,526.3 489.4,521.4 489.7,520.1C490.1,518.7 489.7,517.5 488.9,516.9C488.1,516.4 484.6,516.0 481.0,516.0C476.2,516.0 473.6,516.5 471.2,518.0C469.0,519.4 467.1,521.8 465.6,525.3C464.3,528.1 463.0,532.2 462.6,534.3C462.1,536.8 462.3,538.7 463.1,539.6C464.0,540.7 466.5,541.0 473.6,540.8zM449.2,536.9C454.9,537.0 454.9,537.0 457.8,531.8C459.5,528.9 461.7,524.7 462.9,522.6C464.4,519.6 464.7,518.3 463.8,517.3C463.2,516.6 461.7,516.0 460.4,516.0C459.1,516.0 456.0,515.3 453.5,514.5C449.2,513.0 448.7,513.0 444.2,515.0C441.6,516.2 438.0,518.5 436.1,520.3C434.3,522.1 431.7,525.2 430.4,527.2C429.1,529.3 428.0,531.8 428.0,532.9C428.0,534.5 429.1,534.9 435.8,535.7C440.0,536.3 446.1,536.8 449.2,536.9zM644.2,529.0C645.5,529.0 648.5,528.3 651.0,527.4C653.5,526.6 656.7,524.7 658.2,523.2C659.8,521.8 661.0,519.7 661.0,518.5C661.0,517.3 661.7,514.9 662.6,513.1C663.5,511.3 663.8,509.5 663.4,509.0C662.9,508.6 660.1,509.0 657.2,510.0C654.3,511.0 649.8,513.5 647.2,515.7C643.0,519.3 642.5,520.2 642.2,524.4C641.9,528.6 642.1,529.0 644.2,529.0zM182.5,521.4C192.9,521.1 206.2,520.5 212.0,519.9C217.8,519.4 227.9,518.0 234.5,516.9C241.1,515.7 251.4,513.3 257.5,511.5C263.6,509.7 275.8,506.1 284.7,503.6C293.5,501.0 305.3,497.2 310.7,495.1C316.2,492.9 326.2,488.4 333.1,485.0C339.9,481.6 350.9,475.8 357.5,472.2C364.1,468.7 373.3,463.1 378.0,459.9C382.7,456.7 391.4,450.2 397.4,445.3C403.4,440.5 415.2,431.1 423.5,424.5C431.9,417.9 445.7,406.9 454.1,399.9C462.6,393.0 473.3,384.5 478.0,381.0C482.7,377.4 491.5,370.4 497.6,365.3C503.8,360.2 512.1,352.5 516.2,348.1C520.2,343.6 527.1,334.3 531.5,327.3C535.8,320.2 541.3,311.5 543.6,307.9C546.0,304.3 551.7,297.8 556.2,293.4C561.5,288.4 567.8,283.7 573.4,280.5C578.3,277.7 582.5,274.9 582.7,274.3C583.0,273.6 581.6,272.8 579.4,272.4C577.3,272.0 568.6,272.0 560.1,272.3C546.5,272.7 543.6,273.2 537.6,275.4C533.8,276.9 526.7,280.1 521.9,282.6C517.1,285.2 509.4,290.5 504.8,294.5C500.3,298.4 493.0,305.8 488.7,310.8C484.4,315.9 480.5,320.0 480.0,320.0C479.5,320.0 478.5,319.7 477.6,319.4C476.7,319.1 476.0,318.3 476.0,317.6C476.0,317.0 477.6,314.1 479.6,311.1C481.6,308.2 486.6,302.2 490.8,297.9C494.9,293.5 501.3,287.8 504.9,285.1C508.5,282.4 514.6,278.7 518.5,276.8C522.4,274.8 527.9,272.5 530.8,271.6C533.8,270.5 535.7,269.4 535.4,268.8C535.0,268.2 532.1,267.9 527.8,268.2C522.1,268.7 519.1,269.6 511.7,273.3C506.2,276.0 499.3,280.5 494.8,284.4C490.6,288.0 484.5,294.0 481.3,297.8C478.0,301.5 473.2,307.6 470.6,311.3C468.0,314.9 465.1,318.1 464.2,318.4C463.3,318.6 460.1,319.4 457.2,320.0C453.4,320.9 450.6,322.4 446.7,325.8C443.9,328.4 436.3,335.4 430.0,341.5C423.0,348.1 412.7,356.5 404.1,362.5C394.5,369.1 387.8,374.7 383.8,379.3C380.4,383.0 374.7,388.2 371.1,390.8C367.5,393.3 353.7,403.6 340.4,413.6C327.2,423.5 314.8,432.2 312.9,432.9C311.0,433.5 303.6,434.5 296.5,435.1C289.4,435.6 279.2,436.4 274.0,436.9C264.9,437.6 264.2,437.9 257.2,442.4C253.2,445.0 247.0,448.5 243.5,450.1C239.9,451.8 234.7,453.8 231.8,454.6C228.8,455.4 217.1,456.5 205.0,457.0C193.1,457.6 181.3,458.6 178.5,459.4C175.8,460.2 171.2,461.1 168.5,461.4C165.8,461.7 157.6,461.6 150.5,461.0C143.3,460.5 132.7,459.0 127.0,457.6C121.2,456.2 111.8,453.3 106.0,451.2C100.2,449.0 94.3,447.0 92.9,446.6C91.4,446.3 89.5,446.6 88.4,447.4C86.6,448.8 86.6,448.9 88.4,450.8C89.4,452.0 95.8,454.9 102.6,457.4C109.4,460.0 118.3,462.9 122.3,463.9C126.2,465.0 132.9,466.4 137.0,467.1C141.1,467.8 151.9,468.4 161.0,468.4C170.3,468.4 179.5,467.8 182.0,467.2C184.5,466.5 194.8,465.6 205.0,465.0C215.2,464.4 226.4,463.5 230.0,462.9C233.6,462.3 239.6,460.5 243.5,458.8C247.3,457.1 254.3,453.5 259.0,450.8C263.7,448.1 269.1,445.5 271.0,445.0C272.9,444.5 282.3,443.6 291.9,443.0C301.4,442.4 311.0,441.3 313.1,440.6C315.2,439.8 320.0,437.3 323.8,434.9C327.5,432.5 334.1,427.9 338.5,424.8C342.9,421.6 350.8,415.8 356.0,412.0C361.2,408.1 369.6,402.5 374.5,399.5C382.2,394.9 384.1,393.2 387.4,388.0C389.5,384.7 393.4,380.0 396.1,377.6C398.8,375.2 403.6,371.5 406.8,369.4C409.9,367.3 415.9,363.1 420.0,360.0C424.1,356.8 433.7,348.4 441.3,341.2C451.5,331.4 456.1,327.7 459.1,326.8C462.3,325.9 464.7,325.9 470.4,326.9C474.4,327.5 485.0,330.1 494.0,332.5C503.0,335.0 510.5,337.2 510.7,337.4C511.0,337.6 510.7,338.7 510.2,339.7C509.6,340.7 506.5,344.1 503.2,347.3C499.9,350.4 496.7,353.0 496.1,353.0C495.5,353.0 496.0,351.4 497.1,349.5C498.2,347.6 498.9,345.6 498.6,345.1C498.2,344.6 493.6,342.8 488.2,341.1C482.9,339.5 474.9,337.1 470.6,336.0C463.4,334.0 462.4,333.9 459.5,335.3C457.8,336.1 449.8,342.9 441.7,350.3C433.7,357.7 422.4,367.4 416.7,371.8C411.0,376.2 405.8,380.5 405.1,381.3C404.1,382.6 404.2,383.5 405.5,386.1C406.5,387.9 411.3,393.5 416.2,398.6C421.1,403.7 424.9,408.4 424.5,408.9C424.2,409.5 423.3,410.0 422.6,410.0C421.8,410.0 418.5,408.0 415.2,405.6C411.9,403.1 406.8,398.2 403.9,394.6C401.0,391.0 397.9,388.0 396.9,388.0C395.9,388.0 394.9,388.9 394.5,390.0C394.2,391.0 394.4,392.9 395.0,394.0C395.6,395.2 400.2,401.1 405.1,407.2C414.1,418.4 414.1,418.4 411.1,421.3C409.4,423.1 407.6,424.0 406.7,423.7C405.8,423.4 401.7,418.8 397.5,413.5C393.2,408.2 389.1,403.6 388.3,403.3C387.5,403.0 384.7,403.7 382.1,404.9C379.6,406.2 373.2,410.0 368.0,413.5C362.8,417.0 355.5,422.4 351.8,425.4C348.1,428.5 344.3,432.1 343.5,433.4C342.1,435.5 342.2,436.3 344.1,442.6C345.3,446.3 347.3,451.9 348.6,455.0C350.0,458.0 351.8,461.0 352.6,461.7C354.0,462.7 353.8,463.1 351.2,464.4C348.5,465.8 348.1,465.8 346.8,464.2C345.9,463.3 343.8,458.7 342.0,454.0C340.2,449.3 338.1,444.3 337.4,442.8C336.6,441.2 335.5,440.0 334.9,440.0C334.2,440.0 334.0,445.2 334.2,455.2C334.5,469.9 334.4,470.5 332.5,470.5C330.8,470.5 330.2,468.9 327.8,458.1C326.4,451.3 324.7,445.3 324.1,444.7C323.4,444.0 322.6,444.1 321.4,445.1C320.0,446.3 319.9,448.1 320.5,460.6C320.9,468.4 320.9,475.7 320.5,476.9C320.2,478.1 319.5,479.0 319.0,479.0C318.5,479.0 317.9,478.2 317.6,477.2C317.2,476.2 316.1,470.0 315.0,463.5C314.0,457.0 312.8,451.4 312.3,451.0C311.9,450.5 303.9,450.6 294.6,451.1C285.3,451.5 276.2,452.4 274.3,453.1C271.7,453.9 270.4,455.2 269.3,457.8C268.1,460.7 267.9,464.9 268.2,478.5C268.5,495.4 268.5,495.5 266.3,495.8C264.5,496.1 263.9,495.4 263.1,492.2C262.5,490.1 261.6,482.4 261.1,475.1C260.6,467.8 259.9,461.6 259.6,461.3C259.3,461.0 258.0,461.4 256.7,462.3C255.4,463.2 254.0,465.3 253.6,467.1C253.3,468.8 253.0,476.4 253.0,483.8C253.0,496.4 252.8,497.5 250.8,499.7C249.6,501.0 248.3,502.0 248.0,502.0C247.6,502.0 246.8,496.7 246.1,490.2C245.5,483.8 244.8,476.0 244.7,473.0C244.6,468.8 244.1,467.5 243.0,467.6C242.2,467.7 237.2,469.0 232.0,470.4C226.8,471.8 218.2,473.3 212.8,473.6C207.5,474.0 202.6,474.6 202.0,475.0C201.3,475.4 198.8,482.9 196.4,491.6C193.7,501.5 191.4,508.0 190.3,508.7C189.4,509.4 188.0,510.0 187.3,510.0C186.4,510.0 186.0,508.6 186.0,505.8C186.0,503.4 186.9,496.1 188.0,489.5C189.1,482.9 190.0,477.2 190.0,476.8C190.0,476.3 189.2,476.0 188.1,476.0C187.1,476.0 185.8,476.6 185.2,477.2C184.7,477.9 182.6,484.1 180.6,490.9C178.5,497.7 176.2,504.6 175.4,506.1C174.6,507.7 173.5,509.0 173.0,509.0C172.4,509.0 172.0,508.2 172.0,507.2C172.0,506.3 173.1,500.2 174.5,493.7C175.9,487.3 177.0,480.9 177.0,479.5C177.0,477.0 177.0,477.0 162.7,477.0C150.2,477.0 148.1,477.2 146.8,478.8C145.9,479.7 142.7,485.5 139.7,491.6C136.6,497.7 133.4,503.5 132.5,504.4C131.6,505.3 130.2,506.0 129.3,506.0C128.1,506.0 127.9,505.2 128.3,502.6C128.6,500.7 131.0,494.0 133.7,487.8C136.3,481.6 138.7,476.2 138.8,475.8C139.0,475.3 138.3,475.0 137.3,475.0C136.2,475.0 134.2,476.2 132.7,477.8C131.3,479.3 127.6,485.2 124.4,491.0C121.3,496.8 118.3,502.1 117.8,502.8C117.2,503.4 115.9,504.0 114.9,504.0C113.6,504.0 113.0,503.3 113.0,501.7C113.0,500.4 115.7,494.2 119.0,487.7C122.3,481.3 125.0,475.6 125.0,475.1C125.0,474.5 121.9,473.2 118.1,472.0C114.4,470.9 110.5,470.0 109.6,470.0C108.7,470.0 104.9,473.9 101.2,478.7C97.5,483.5 92.7,489.3 90.6,491.7C87.6,495.0 86.0,496.0 84.2,495.8C82.8,495.6 81.5,495.0 81.3,494.4C81.1,493.8 82.4,491.3 84.2,488.8C86.0,486.3 90.1,480.7 93.2,476.4C96.4,472.0 99.0,467.8 99.0,466.8C99.0,465.7 97.1,464.5 92.8,463.1C89.4,461.9 85.9,461.0 84.9,461.0C84.0,461.0 78.9,465.0 73.6,470.0C68.2,474.9 61.0,481.1 57.4,483.6C53.9,486.1 51.0,488.8 51.0,489.5C51.0,490.2 52.4,492.0 54.1,493.5C55.9,494.9 61.4,498.0 66.4,500.4C71.4,502.8 79.6,506.2 84.7,507.9C89.7,509.6 98.9,512.1 105.1,513.5C111.3,514.9 121.8,516.9 128.4,518.1C135.1,519.2 145.7,520.5 152.0,521.0C158.3,521.5 172.1,521.6 182.5,521.4zM462.6,511.7C469.3,511.4 475.7,510.7 476.9,510.1C478.7,509.1 479.0,508.0 479.0,503.1C479.0,498.7 479.4,497.1 480.6,496.6C481.5,496.3 486.3,496.0 491.3,496.0C496.4,496.0 502.2,496.5 504.3,497.1C506.5,497.7 508.4,497.9 508.7,497.7C508.9,497.4 508.6,496.2 508.0,495.0C507.4,493.9 503.7,490.9 499.9,488.4C496.1,486.0 493.2,483.5 493.5,483.0C493.8,482.4 496.4,482.0 499.1,482.0C502.7,482.0 504.0,481.6 503.8,480.8C503.5,480.1 501.6,478.3 499.4,476.8C497.3,475.3 493.1,473.5 490.2,472.9C485.9,471.9 483.5,471.9 478.7,472.9C475.3,473.6 469.9,475.5 466.8,477.2C463.6,478.9 458.4,482.7 455.1,485.7C451.8,488.6 447.1,494.1 444.6,497.9C442.1,501.6 439.6,505.8 439.1,507.3C438.1,510.0 438.1,510.0 442.8,510.0C445.4,510.0 448.2,510.5 449.0,511.1C449.9,511.7 455.0,512.0 462.6,511.7zM501.8,511.8C504.3,512.0 505.0,511.6 505.0,510.1C505.0,509.1 504.1,507.1 502.9,505.6C501.8,504.2 499.5,502.3 498.0,501.5C496.4,500.7 493.5,500.0 491.5,500.0C489.5,500.0 487.0,500.4 486.0,501.0C485.0,501.5 483.9,503.4 483.5,505.0C483.1,506.9 483.3,508.6 484.0,509.5C484.7,510.4 487.7,511.0 491.8,511.3C495.5,511.5 500.0,511.7 501.8,511.8zM637.5,511.0C638.3,511.0 642.2,508.9 646.2,506.3C650.2,503.7 653.8,501.2 654.2,500.6C654.5,500.1 654.0,498.5 652.9,497.2C651.9,495.8 651.0,494.1 651.0,493.4C651.0,492.6 650.3,492.0 649.5,492.0C648.7,492.0 646.5,493.4 644.6,495.0C642.7,496.7 640.0,500.1 638.6,502.5C637.2,504.9 636.0,507.8 636.0,508.9C636.0,510.1 636.6,511.0 637.5,511.0zM71.8,489.0C70.8,489.0 70.0,488.4 70.0,487.8C70.0,487.1 73.0,483.7 76.7,480.2C80.3,476.8 83.5,474.2 83.8,474.5C84.1,474.7 83.0,476.9 81.5,479.2C80.0,481.6 77.6,484.7 76.2,486.2C74.8,487.8 72.8,489.0 71.8,489.0zM564.7,477.0C565.9,477.0 568.0,476.6 569.4,476.0C570.8,475.5 572.0,474.6 572.0,474.1C572.0,473.6 570.5,472.8 568.8,472.5C567.0,472.1 562.0,470.7 557.7,469.3C553.3,468.0 549.5,467.1 549.2,467.5C548.9,467.8 550.0,469.4 551.6,471.1C553.3,472.8 556.4,474.7 558.6,475.5C560.7,476.3 563.5,476.9 564.7,477.0zM574.8,455.9C577.8,456.0 581.4,455.3 583.2,454.4C584.9,453.5 585.8,452.5 585.4,452.1C584.9,451.7 581.6,450.8 578.0,450.2C574.4,449.6 568.4,447.5 564.5,445.6C560.6,443.6 554.9,439.8 551.7,437.0C548.5,434.3 545.4,432.0 544.8,432.0C544.2,432.0 544.1,433.1 544.5,434.8C544.8,436.3 546.3,439.1 547.7,441.0C549.1,442.9 551.7,445.8 553.4,447.3C555.1,448.8 558.3,451.0 560.5,452.2C562.7,453.3 565.6,454.6 567.0,455.1C568.4,455.5 571.9,455.9 574.8,455.9zM182.3,454.7C183.1,454.5 183.5,452.0 183.4,447.9C183.3,444.4 182.9,427.8 182.5,411.0C182.0,389.8 182.1,376.8 182.9,368.5C183.5,361.9 184.8,352.3 185.7,347.1C186.9,340.6 187.6,338.3 188.1,339.6C188.6,340.6 188.6,352.5 188.3,366.0C187.9,384.0 188.2,396.3 189.4,412.5C190.3,424.6 191.7,437.2 192.3,440.5C193.6,446.5 193.6,446.5 208.0,446.4C216.0,446.3 223.7,445.8 225.3,445.3C227.2,444.8 223.9,444.4 214.8,444.4C207.5,444.3 200.4,443.8 199.0,443.3C196.6,442.3 196.6,442.3 198.6,441.2C199.7,440.6 205.1,439.4 210.6,438.5C218.2,437.3 222.7,435.9 230.3,432.3C235.6,429.7 240.7,426.9 241.6,425.9C242.7,424.6 240.8,425.0 233.4,427.5C228.1,429.4 220.9,431.2 217.3,431.6C213.3,432.0 210.5,431.9 209.8,431.2C209.2,430.6 210.4,429.7 213.7,428.5C216.3,427.5 220.8,425.7 223.7,424.4C226.6,423.2 231.1,420.7 233.7,418.9C236.3,417.2 240.0,414.3 241.8,412.7C243.5,411.0 245.0,409.0 245.0,408.3C245.0,407.6 244.9,407.0 244.7,407.0C244.5,407.0 240.6,408.4 236.1,410.0C231.5,411.7 227.5,412.9 227.3,412.6C227.1,412.4 229.4,410.0 232.6,407.4C235.7,404.7 239.8,401.1 241.7,399.5C245.1,396.5 245.1,396.5 243.9,384.0C243.3,376.8 243.0,362.9 243.3,351.0C243.6,338.9 244.3,328.9 245.0,326.5C246.1,323.0 246.4,322.8 247.0,324.6C247.4,325.7 248.3,334.9 248.9,345.1C249.6,355.2 250.7,369.6 251.6,377.0C252.4,384.4 254.2,397.2 255.6,405.5C257.0,413.8 258.8,423.2 259.6,426.5C260.5,429.8 261.6,433.1 262.2,433.7C262.8,434.4 263.6,434.7 264.1,434.4C264.6,434.1 265.0,432.2 265.0,430.1C265.0,428.0 263.4,416.9 261.5,405.4C259.7,393.9 257.6,378.2 256.9,370.5C256.2,361.7 256.0,344.3 256.3,323.5C256.7,298.0 257.2,288.9 258.4,283.5C259.3,279.6 261.8,272.9 263.9,268.5C266.0,264.1 270.5,256.7 274.0,252.0C277.5,247.3 284.2,239.6 289.0,234.9C293.8,230.1 300.6,224.3 304.1,221.9C307.6,219.6 313.9,216.3 318.0,214.6C324.7,211.9 326.6,211.6 336.0,211.7C343.5,211.7 351.0,212.6 362.5,214.8C371.3,216.6 380.1,218.4 382.0,219.0C384.9,219.8 386.1,220.9 387.8,224.5C389.0,227.0 390.0,230.2 390.0,231.5C390.0,232.8 387.7,237.4 384.9,241.7C382.1,246.0 378.1,253.1 376.0,257.5C373.9,261.9 371.7,267.9 371.1,270.8C370.5,273.7 370.0,280.9 370.0,286.8C370.0,292.7 370.7,303.6 371.6,311.0C372.4,318.4 374.0,329.0 375.1,334.5C376.3,340.0 378.5,348.3 380.1,352.9C381.7,357.6 383.4,361.8 384.0,362.4C384.7,363.1 385.0,362.9 385.0,361.8C385.0,360.9 383.9,353.1 382.6,344.4C381.3,335.6 379.9,325.0 379.5,320.8C379.1,316.5 379.2,313.0 379.7,313.0C380.2,313.0 381.9,317.4 383.4,322.8C385.0,328.1 387.2,334.9 388.2,337.8C389.3,340.6 390.7,343.0 391.3,343.0C392.0,343.0 395.9,341.7 400.0,340.0C404.1,338.4 408.5,337.1 409.8,337.0C411.7,337.0 411.9,337.2 410.8,338.9C410.2,340.0 406.1,343.6 401.8,347.1C397.5,350.5 394.0,353.7 394.0,354.2C394.0,354.6 394.5,355.0 395.1,355.0C395.7,355.0 399.7,353.2 403.9,351.0C408.1,348.8 415.6,343.5 420.5,339.2C425.5,334.9 431.0,329.7 432.8,327.6C434.5,325.6 436.0,323.5 436.0,323.0C436.0,322.5 435.2,322.4 434.2,322.7C433.3,323.1 429.8,325.1 426.6,327.2C423.3,329.3 420.3,331.0 419.8,331.0C419.4,331.0 419.0,330.8 419.0,330.4C419.0,330.1 422.2,326.5 426.1,322.4C430.0,318.3 433.0,314.4 432.7,313.7C432.5,313.0 430.6,307.3 428.5,301.0C426.5,294.7 423.2,283.4 421.3,276.0C419.0,267.1 417.6,259.2 417.3,252.9C416.9,246.5 417.1,243.0 417.8,242.6C418.5,242.2 419.7,244.6 421.0,249.2C422.2,253.2 425.2,262.8 427.6,270.5C430.1,278.2 433.9,288.1 436.0,292.5C438.2,296.9 440.8,301.6 441.9,303.0C443.0,304.4 444.2,305.2 444.5,304.8C444.9,304.4 443.1,298.2 440.6,291.1C438.0,283.9 435.1,274.7 434.1,270.7C433.1,266.8 432.0,262.1 431.7,260.3C431.3,258.5 431.5,256.8 431.9,256.5C432.4,256.2 433.7,257.5 434.8,259.2C435.9,261.0 438.9,267.4 441.5,273.5C444.1,279.6 448.1,287.5 450.3,291.2C452.6,295.0 454.8,298.0 455.3,298.0C455.7,298.0 457.7,296.9 459.7,295.5C461.7,294.2 463.5,293.2 463.7,293.4C463.9,293.6 463.1,295.7 462.0,298.1C460.9,300.5 460.0,303.1 460.0,303.8C460.0,304.4 460.4,305.0 460.9,305.0C461.4,305.0 466.4,300.6 472.1,295.2C477.8,289.9 485.3,283.1 488.7,280.3C492.1,277.5 498.5,273.0 503.0,270.3C507.4,267.7 511.0,265.2 511.0,264.8C511.0,264.3 507.6,264.0 503.5,264.0C495.9,264.0 495.9,264.0 498.2,260.9C500.1,258.3 500.2,257.8 499.0,256.9C498.1,256.4 494.5,256.3 490.8,256.6C487.0,257.0 484.0,256.9 484.0,256.4C484.0,255.9 485.8,253.9 488.1,251.9C490.6,249.8 492.0,247.9 491.6,247.2C491.2,246.5 488.1,246.0 483.9,246.0C478.7,246.0 476.9,245.7 477.2,244.8C477.5,244.1 479.1,242.5 480.9,241.3C482.6,240.1 484.6,239.0 485.2,238.8C485.9,238.5 486.0,237.8 485.5,237.1C484.9,236.1 483.0,235.9 477.9,236.4C473.9,236.7 471.0,236.6 471.0,236.1C471.0,235.6 472.9,233.5 475.2,231.6C479.3,228.1 479.4,227.9 477.6,226.5C476.5,225.7 473.7,225.0 471.3,225.0C468.3,225.0 467.0,224.6 467.0,223.6C467.0,222.8 468.9,221.2 471.3,220.1C473.7,218.9 476.6,218.0 477.9,218.0C479.1,218.0 481.1,218.5 482.3,219.1C483.5,219.6 482.3,218.0 479.6,215.5C476.6,212.7 470.3,208.8 463.4,205.3C452.5,199.9 451.7,199.6 444.3,199.7C438.7,199.7 434.9,200.3 430.9,201.8C427.8,203.0 422.6,205.7 419.2,207.8C415.8,209.8 410.6,213.5 407.6,216.0C404.6,218.5 401.9,221.1 401.6,221.7C401.3,222.4 401.6,225.5 402.2,228.5C402.8,231.6 403.0,234.3 402.7,234.7C402.3,235.0 401.3,234.7 400.4,234.0C399.6,233.2 397.8,230.5 396.4,227.8C395.1,225.2 394.0,222.0 394.0,220.6C394.0,219.1 395.5,216.9 398.1,214.5C400.4,212.5 405.9,208.4 410.5,205.4C415.1,202.4 422.1,198.4 426.2,196.5C430.2,194.6 435.7,192.6 438.4,192.1C441.4,191.6 445.9,191.6 449.7,192.1C453.3,192.6 458.8,194.4 462.3,196.1C465.7,197.9 472.3,201.8 477.0,204.8C481.9,208.1 490.0,214.9 496.0,221.0C501.8,226.8 509.3,234.7 512.7,238.5C517.4,243.9 519.1,245.2 520.0,244.3C521.0,243.4 520.5,241.8 517.7,236.8C515.7,233.3 512.7,228.5 511.1,226.0C509.4,223.5 508.4,221.4 508.9,221.2C509.5,221.0 512.9,222.5 516.6,224.4C520.3,226.4 523.9,228.0 524.7,228.0C525.4,228.0 526.0,227.6 526.0,227.1C526.0,226.6 522.2,221.9 517.6,216.8C513.0,211.6 506.8,205.6 504.0,203.5C499.0,199.8 498.2,199.6 489.1,199.0C483.8,198.6 478.4,197.7 477.2,196.9C476.0,196.1 475.0,195.0 475.0,194.3C475.0,193.6 476.8,192.6 479.0,192.0C481.2,191.4 483.0,190.5 483.0,190.1C483.0,189.6 481.8,188.8 480.2,188.2C478.7,187.7 474.3,186.7 470.4,186.0C464.3,184.9 461.0,185.0 448.0,186.4C437.7,187.6 430.4,189.0 425.6,190.7C421.7,192.1 416.2,194.4 413.5,195.8C410.8,197.1 403.9,201.4 398.3,205.2C392.7,209.1 387.1,212.2 385.8,212.2C384.5,212.3 376.5,210.8 368.0,209.1C359.5,207.4 351.5,205.7 350.2,205.4C348.8,205.1 348.0,204.2 348.0,202.8C348.0,201.4 351.5,197.1 358.2,190.5C363.9,185.0 371.2,178.4 374.4,175.9C379.8,171.9 380.1,171.5 377.9,171.2C376.5,171.0 373.4,171.8 370.9,172.8C368.5,173.9 363.0,177.5 358.7,180.9C354.5,184.2 348.3,190.3 344.9,194.4C341.6,198.5 338.1,202.1 337.2,202.5C336.3,202.9 330.2,204.5 323.7,206.1C317.2,207.7 309.3,210.2 306.2,211.7C302.5,213.4 297.4,217.3 291.6,222.9C286.7,227.6 278.8,236.1 273.9,241.7C269.1,247.3 262.6,255.5 259.5,259.9C256.5,264.2 253.4,268.0 252.7,268.3C252.1,268.5 247.9,268.3 243.5,267.8C239.1,267.3 229.2,267.1 221.5,267.2C207.6,267.5 207.6,267.5 203.8,272.5C201.7,275.2 197.8,282.0 195.1,287.5C192.4,293.0 188.8,302.0 187.1,307.5C185.4,313.0 182.9,323.1 181.5,330.0C180.2,336.9 178.4,348.6 177.5,356.0C176.6,363.4 175.6,378.5 175.3,389.5C175.0,401.4 175.2,415.7 175.9,424.8C176.6,433.2 177.6,442.7 178.1,445.8C178.7,448.9 179.6,452.3 180.2,453.3C180.7,454.3 181.7,454.9 182.3,454.7zM147.0,448.8C153.3,448.8 159.4,448.5 160.5,448.1C161.9,447.5 161.2,447.2 157.6,446.7C154.9,446.3 150.6,446.0 148.1,446.0C145.6,446.0 140.4,445.3 136.6,444.5C132.8,443.7 129.5,442.8 129.2,442.5C128.9,442.2 129.1,441.5 129.8,440.8C130.4,440.2 136.5,439.4 143.6,439.0C153.0,438.4 156.6,437.8 157.8,436.6C159.1,435.3 159.1,435.0 157.9,434.5C157.1,434.3 154.1,433.7 151.1,433.3C148.1,432.8 145.5,432.0 145.3,431.3C145.0,430.6 147.1,429.4 150.7,428.4C153.9,427.5 157.0,426.3 157.6,425.8C158.3,425.3 159.1,422.5 159.5,419.5C159.8,416.5 160.5,414.0 160.9,414.0C161.4,414.0 162.5,415.0 163.3,416.2C164.9,418.5 164.9,418.5 165.1,415.0C165.1,413.1 165.1,406.1 165.0,399.5C164.8,389.1 164.6,387.3 162.9,385.7C161.2,384.1 161.0,382.4 161.0,371.1C161.0,364.0 161.5,353.6 162.0,347.9C162.6,342.2 163.9,332.9 165.1,327.2C166.2,321.6 168.0,314.4 169.1,311.4C170.3,308.4 171.4,306.1 171.6,306.3C171.9,306.5 171.1,314.1 170.0,323.1C168.9,332.0 168.0,344.0 168.0,349.7C168.0,355.9 168.4,360.0 169.0,360.0C169.6,360.0 170.0,359.8 170.0,359.5C170.0,359.2 171.6,349.2 173.6,337.2C176.0,322.1 178.3,312.0 181.0,303.8C183.1,297.4 186.7,288.4 189.0,284.0C191.2,279.5 195.5,272.5 198.6,268.4C201.7,264.3 205.6,260.2 207.3,259.3C210.0,258.0 213.4,257.8 230.5,258.2C241.5,258.4 251.2,258.5 252.1,258.3C253.0,258.1 256.9,254.2 260.6,249.8C264.4,245.3 271.6,237.5 276.6,232.4C281.7,227.4 288.6,221.3 292.1,219.0C297.7,215.1 298.1,214.6 296.6,213.4C295.6,212.7 290.5,211.3 285.2,210.3C279.8,209.3 271.0,208.5 265.5,208.5C256.4,208.5 255.0,208.8 249.5,211.5C245.9,213.3 239.9,218.0 234.2,223.4C229.1,228.3 221.5,236.5 217.4,241.6C211.1,249.5 209.3,251.1 205.8,252.1C203.3,252.7 200.9,252.8 199.7,252.3C197.9,251.5 198.4,250.6 205.1,243.0C209.1,238.3 217.7,229.3 224.2,222.9C230.7,216.6 236.0,211.0 236.0,210.6C236.0,210.1 232.7,210.1 228.8,210.4C224.8,210.8 219.6,212.0 217.3,213.0C214.9,214.0 210.7,216.5 207.8,218.4C204.9,220.3 200.0,224.0 197.0,226.6C194.0,229.2 188.9,234.2 185.8,237.8C182.6,241.4 180.0,244.7 180.0,245.1C180.0,245.6 183.1,245.9 186.9,245.7C191.5,245.6 194.3,245.9 195.2,246.8C196.2,247.8 196.1,248.3 194.9,249.5C194.0,250.4 189.9,251.4 184.5,252.1C178.4,252.8 173.8,254.0 170.1,255.8C167.1,257.3 164.8,258.9 165.1,259.5C165.3,260.1 165.8,260.4 166.2,260.3C166.6,260.1 173.2,259.7 180.9,259.4C193.8,258.7 195.0,258.8 195.0,260.4C195.0,261.3 193.0,264.2 190.5,266.8C187.6,269.9 186.0,270.9 186.0,269.9C186.0,269.0 185.2,268.0 184.1,267.7C183.1,267.5 177.2,267.6 171.1,268.0C163.8,268.5 159.2,269.3 157.6,270.3C156.3,271.2 152.4,275.3 149.1,279.4C145.7,283.5 139.9,291.7 136.1,297.7C132.3,303.6 127.0,312.6 124.3,317.5C121.6,322.4 117.5,331.0 115.2,336.5C113.0,342.0 110.0,350.8 108.6,356.0C107.2,361.2 105.4,369.3 104.6,374.0C103.8,378.7 102.9,386.3 102.7,390.8C102.4,397.2 102.7,399.5 103.8,400.6C104.6,401.4 106.4,402.0 107.9,401.8C110.2,401.5 110.6,400.9 111.2,396.5C111.5,393.8 112.8,386.1 113.9,379.5C115.1,372.9 117.4,362.3 119.0,355.8C120.6,349.4 122.9,341.9 124.0,339.1C125.1,336.3 127.1,331.8 128.4,329.2C129.8,326.5 131.6,323.7 132.6,322.9C134.2,321.6 134.3,321.9 133.7,327.1C133.3,330.2 132.1,335.8 130.9,339.6C129.7,343.4 127.6,351.4 126.3,357.5C123.9,367.9 123.7,370.5 123.3,406.5C122.9,440.0 123.0,444.7 124.3,445.9C125.2,446.6 128.0,447.5 130.7,448.0C133.3,448.4 140.7,448.8 147.0,448.8zM106.2,426.9C107.8,427.0 109.0,426.8 109.0,426.4C109.0,426.1 107.4,425.2 105.5,424.4C103.6,423.7 101.1,423.0 100.0,423.0C98.9,423.0 98.0,423.4 98.0,423.9C98.0,424.4 99.2,425.3 100.8,425.8C102.3,426.4 104.7,426.9 106.2,426.9zM279.1,425.0C280.1,425.0 281.0,424.8 281.0,424.6C281.0,424.3 279.6,418.4 277.9,411.3C276.3,404.3 274.0,392.6 272.9,385.5C271.6,377.4 270.6,364.9 270.3,352.5C270.0,339.2 270.1,332.8 270.8,333.5C271.3,334.1 273.0,342.4 274.4,352.0C275.9,361.6 277.7,373.1 278.6,377.5C279.4,381.9 280.6,387.0 281.2,388.8C281.8,390.9 283.1,392.5 284.7,393.1C287.2,394.0 287.2,394.1 285.5,396.0C284.5,397.1 284.0,398.6 284.4,399.5C284.9,401.0 287.0,401.1 301.8,400.8C318.7,400.5 318.7,400.5 326.1,396.7C330.2,394.6 337.4,390.1 342.1,386.7C346.9,383.3 352.3,379.3 354.1,377.9C356.0,376.4 357.2,374.9 356.8,374.5C356.4,374.1 351.5,375.8 345.8,378.3C340.2,380.9 335.3,382.7 335.1,382.4C334.8,382.1 339.4,377.3 345.3,371.7C351.2,366.1 356.1,360.9 356.0,360.2C356.0,359.3 355.3,359.1 353.8,359.6C352.5,359.9 348.9,361.6 345.7,363.2C342.5,364.8 339.4,366.0 338.8,365.8C338.3,365.6 341.2,362.2 345.4,358.2C351.9,352.1 353.0,350.5 353.0,347.7C353.0,345.9 352.0,335.5 350.9,324.5C349.5,312.1 348.7,297.3 348.6,285.5C348.5,266.5 348.5,266.5 351.7,258.5C353.5,254.1 356.5,248.2 358.3,245.5C360.1,242.8 364.0,237.2 366.9,233.2C369.9,229.2 372.0,225.7 371.7,225.4C371.4,225.0 368.2,224.2 364.5,223.4C360.9,222.6 352.7,221.3 346.3,220.5C337.5,219.3 332.8,219.2 326.9,220.0C322.6,220.5 317.3,221.8 315.3,222.9C313.2,223.9 309.6,226.2 307.4,227.8C305.1,229.5 300.2,233.7 296.5,237.1C292.8,240.6 286.4,247.9 282.3,253.4C278.2,258.9 273.4,266.6 271.6,270.5C269.7,274.3 267.7,279.8 267.0,282.5C266.4,285.2 265.2,292.7 264.4,299.0C263.6,305.3 263.0,318.9 263.0,329.5C263.0,339.9 263.5,353.8 264.0,360.4C264.6,366.9 265.7,376.8 266.5,382.4C267.3,387.9 269.1,397.2 270.4,403.0C271.7,408.8 273.8,416.1 275.0,419.2C276.6,423.5 277.6,425.0 279.1,425.0zM585.8,424.9C586.4,425.0 587.0,424.6 587.0,424.1C587.0,423.7 583.7,421.9 579.8,420.1C575.8,418.3 569.7,415.1 566.2,412.8C562.8,410.6 559.7,408.9 559.5,409.2C559.3,409.4 560.4,411.3 562.1,413.3C563.8,415.3 567.2,418.2 569.7,419.7C572.2,421.1 576.6,422.9 579.4,423.6C582.2,424.3 585.1,424.9 585.8,424.9zM601.5,416.4C602.6,416.2 604.1,416.0 604.9,416.0C605.7,416.0 606.1,415.8 605.9,415.5C605.6,415.3 601.5,413.9 596.8,412.6C592.1,411.2 585.7,408.9 582.7,407.5C579.7,406.0 575.4,403.4 573.3,401.5C571.2,399.7 568.1,395.8 566.5,392.9C563.6,387.5 563.6,387.5 567.2,390.2C569.1,391.7 574.3,394.7 578.6,396.9C582.9,399.0 589.4,401.7 593.0,402.7C598.2,404.1 602.8,404.5 616.0,404.4C625.4,404.3 636.6,403.7 642.1,402.8C647.4,401.9 654.4,400.0 657.8,398.5C661.2,397.0 664.4,395.2 665.0,394.5C665.7,393.6 658.6,393.4 633.7,393.4C606.0,393.5 600.6,393.2 595.1,391.7C591.6,390.8 585.9,388.6 582.5,387.0C579.1,385.4 574.1,382.3 571.3,380.1C568.6,377.9 565.1,374.3 563.6,372.1C562.1,370.0 559.6,365.1 558.1,361.3C556.6,357.6 554.8,352.2 554.1,349.5C553.5,346.8 552.4,338.9 551.7,332.0C550.4,319.5 550.4,319.5 548.5,325.5C547.1,330.0 546.7,334.3 546.7,342.5C546.8,351.6 547.5,356.0 550.4,367.5C552.6,376.0 555.5,384.7 558.0,389.7C560.8,395.4 563.5,399.2 567.2,402.5C570.0,405.0 576.0,408.9 580.4,411.0C584.9,413.2 591.0,415.4 594.0,415.9C597.0,416.4 600.4,416.6 601.5,416.4zM109.5,415.5C110.0,415.4 110.6,414.6 110.8,413.8C111.0,412.7 109.8,411.9 106.6,411.1C104.1,410.5 101.2,410.0 100.1,410.0C98.9,410.0 98.0,410.6 98.0,411.4C98.0,412.2 99.5,413.3 101.2,413.9C103.0,414.4 105.4,415.1 106.5,415.3C107.6,415.6 109.0,415.7 109.5,415.5zM302.8,411.6C309.2,411.2 316.8,410.4 319.5,409.8C322.2,409.2 326.1,407.9 328.0,406.8C331.5,404.9 331.5,404.9 328.5,405.4C326.9,405.7 319.6,406.6 312.5,407.5C305.4,408.3 297.6,409.2 295.2,409.6C292.9,409.9 291.0,410.6 291.0,411.2C291.0,411.9 294.6,412.1 302.8,411.6zM609.5,384.9C612.2,384.9 620.4,384.1 627.5,383.0C634.7,382.0 642.1,380.4 644.0,379.6C645.9,378.8 652.7,377.3 659.0,376.1C665.3,375.0 674.5,372.9 679.3,371.6C684.1,370.3 689.3,368.3 690.8,367.3C693.4,365.5 692.9,365.5 664.0,365.2C634.6,365.0 634.6,365.0 623.5,370.5C616.7,373.9 609.8,376.6 605.3,377.5C600.0,378.6 596.9,378.7 593.1,378.0C590.3,377.5 586.3,376.2 584.3,375.1C582.2,374.0 579.1,371.7 577.3,369.8C575.6,368.0 573.3,364.5 572.2,362.0C571.2,359.5 570.0,355.6 569.6,353.2C569.3,350.9 569.2,349.0 569.4,349.0C569.6,349.0 571.2,351.3 573.0,354.0C574.8,356.8 578.3,360.8 580.8,363.0C583.6,365.5 587.4,367.6 590.8,368.6C594.6,369.7 598.7,370.1 603.6,369.8C610.0,369.4 611.8,368.8 618.2,365.0C622.2,362.6 627.9,359.4 630.9,357.8C635.5,355.4 637.5,355.0 644.4,355.0C648.9,355.0 659.1,354.5 667.2,354.0C675.3,353.5 686.6,352.3 692.2,351.4C697.9,350.6 703.1,349.2 703.9,348.4C705.2,347.2 705.2,346.8 703.8,345.3C702.9,344.2 702.0,340.6 701.6,336.0C701.3,331.9 700.6,325.6 700.1,322.0C699.6,318.4 698.9,313.1 698.5,310.2C697.8,305.6 697.9,305.0 699.4,305.6C700.3,305.9 701.0,305.9 701.0,305.5C701.0,305.1 700.2,303.6 699.2,302.2C698.2,300.7 696.8,298.3 696.1,296.9C695.4,295.5 693.5,293.6 691.9,292.6C690.3,291.7 689.0,290.5 689.0,290.0C689.0,289.5 687.7,287.6 686.1,285.7C684.5,283.9 680.7,281.2 677.8,279.7C674.9,278.2 669.1,276.3 664.9,275.6C660.8,274.8 650.5,273.6 642.0,272.9C633.5,272.3 622.7,272.0 618.0,272.3C613.3,272.7 606.6,273.9 603.0,275.1C599.4,276.2 592.9,279.0 588.5,281.3C583.1,284.1 578.3,287.6 574.0,292.0C570.4,295.6 566.1,301.2 564.3,304.6C562.5,307.9 560.4,313.3 559.5,316.5C558.7,319.8 558.0,326.1 558.0,330.6C558.0,335.1 558.7,342.3 559.5,346.5C560.3,350.7 562.0,356.5 563.3,359.3C564.6,362.2 567.8,366.9 570.4,369.7C573.6,373.3 577.5,376.1 582.4,378.6C586.4,380.5 592.9,382.7 597.1,383.5C601.2,384.2 606.8,384.9 609.5,384.9zM375.0,384.0C375.6,384.0 376.0,381.9 376.0,379.3C376.0,376.8 374.4,368.1 372.6,360.1C370.7,352.1 368.1,338.1 366.9,329.0C365.6,318.7 364.6,304.7 364.3,291.7C363.8,271.5 363.8,270.7 366.4,262.7C367.8,258.1 371.2,250.7 374.1,246.0C376.9,241.3 380.4,235.6 381.7,233.3C383.0,230.9 383.9,228.6 383.5,228.0C383.2,227.5 382.2,227.0 381.5,227.0C380.7,227.0 377.5,230.0 374.5,233.8C371.4,237.5 366.9,244.0 364.4,248.2C361.9,252.4 358.9,258.5 357.7,261.7C355.7,266.8 355.5,269.3 355.6,283.5C355.7,295.3 356.4,304.3 358.4,318.0C359.9,328.2 362.0,341.0 363.1,346.5C364.2,352.0 366.5,361.4 368.2,367.5C369.9,373.6 371.9,379.7 372.6,381.2C373.4,382.8 374.5,384.0 375.0,384.0zM623.7,347.6C620.3,347.8 616.1,347.5 614.4,347.1C612.6,346.7 609.6,345.3 607.6,344.1C605.6,342.8 601.9,339.2 599.4,335.9C597.0,332.7 593.6,327.5 592.0,324.4C589.8,320.4 589.0,317.4 589.0,313.8C589.0,310.4 589.7,307.6 591.1,305.4C592.2,303.6 595.1,300.3 597.6,298.2C600.0,296.0 604.0,293.7 606.5,293.0C609.2,292.2 613.7,291.9 617.8,292.2C621.5,292.5 627.2,293.8 630.5,295.0C635.0,296.7 637.8,298.7 641.8,302.8C645.7,307.0 647.0,307.9 647.0,306.4C647.0,305.4 645.9,302.2 644.6,299.5C643.3,296.8 641.0,293.3 639.4,291.9C637.8,290.4 635.1,288.5 633.5,287.7C630.5,286.1 630.5,286.1 633.0,286.1C634.4,286.1 637.3,286.9 639.5,287.9C641.7,288.9 644.7,291.0 646.2,292.6C647.7,294.2 649.9,297.8 651.1,300.5C652.8,304.1 653.5,308.0 653.8,314.6C654.2,322.8 654.0,324.1 651.7,328.7C650.3,331.4 646.8,335.8 644.0,338.3C641.2,340.8 636.9,343.8 634.4,345.0C631.7,346.4 627.4,347.4 623.7,347.6zM615.0,331.9C616.0,331.9 615.6,331.3 614.0,330.2C612.7,329.3 610.3,327.4 608.7,326.1C607.1,324.7 604.9,321.7 603.9,319.3C602.6,316.3 601.6,315.2 600.6,315.6C599.8,315.9 598.8,317.0 598.5,318.0C598.2,319.1 598.6,321.3 599.5,322.9C600.3,324.6 602.2,326.7 603.5,327.6C604.9,328.5 607.7,329.8 609.8,330.6C611.8,331.3 614.2,331.9 615.0,331.9zM627.5,331.4C628.6,331.0 630.7,329.8 632.3,328.8C633.8,327.7 635.5,325.9 636.1,324.8C636.8,323.5 636.8,322.4 636.2,321.8C635.5,321.1 635.0,321.5 634.5,322.9C634.2,324.0 632.0,326.6 629.7,328.5C627.4,330.5 626.4,331.8 627.5,331.4zM619.2,315.8C620.4,315.6 621.8,314.7 622.4,313.7C623.3,312.2 623.1,311.6 621.6,310.4C620.5,309.6 618.6,309.0 617.3,309.0C615.9,309.0 615.0,309.6 615.0,310.6C615.0,311.4 615.5,313.0 616.1,314.1C616.7,315.4 617.9,316.0 619.2,315.8zM683.4,313.0C682.8,313.0 680.2,311.4 677.6,309.4C673.5,306.3 672.9,305.4 673.2,302.7C673.5,299.7 673.8,299.5 677.5,299.2C680.5,299.0 682.5,299.6 685.0,301.2C687.5,302.9 688.6,304.4 688.8,306.7C689.0,309.0 688.5,310.2 686.8,311.4C685.6,312.3 684.0,313.0 683.4,313.0zM610.7,306.5C616.6,306.2 623.6,305.8 626.2,305.7C628.9,305.6 631.0,305.3 631.0,304.9C631.0,304.6 630.0,303.4 628.7,302.2C627.5,301.1 624.8,299.4 622.8,298.5C620.7,297.7 617.2,297.0 615.0,297.0C612.7,297.0 609.9,297.5 608.7,298.1C607.5,298.7 605.4,300.2 604.2,301.4C602.9,302.5 601.4,304.3 600.8,305.4C599.8,307.2 600.3,307.2 610.7,306.5zM419.1,300.0C418.5,300.0 417.2,298.3 416.2,296.2C415.1,294.2 413.3,289.6 412.2,286.0C411.0,282.4 409.6,276.4 409.0,272.5C408.5,268.6 408.0,264.9 408.0,264.2C408.0,263.6 408.4,263.0 408.8,263.0C409.2,263.0 410.7,266.0 412.2,269.8C413.6,273.5 415.7,279.5 416.9,283.2C418.0,286.9 419.2,292.2 419.6,295.0C420.0,298.4 419.9,300.0 419.1,300.0zM281.4,272.0C281.0,272.0 281.0,270.5 281.4,268.8C281.8,267.0 283.2,263.7 284.7,261.5C286.1,259.3 287.5,258.0 287.7,258.7C287.9,259.3 286.7,262.6 285.0,265.9C283.4,269.3 281.7,272.0 281.4,272.0zM536.9,256.7C545.8,256.8 552.0,256.5 552.0,256.0C552.0,255.5 550.5,254.3 548.8,253.4C546.5,252.2 542.3,251.5 535.0,251.2C526.9,250.9 524.1,251.2 522.6,252.3C521.5,253.1 520.9,254.3 521.2,255.1C521.6,256.2 525.0,256.5 536.9,256.7zM507.8,249.1C508.0,248.4 506.6,245.5 504.7,242.7C502.8,239.8 499.6,235.5 497.5,233.0C495.4,230.5 492.9,227.9 491.8,227.2C490.8,226.4 492.7,229.8 496.1,234.7C499.6,239.5 503.5,245.0 504.9,246.9C506.3,248.9 507.6,249.8 507.8,249.1zM246.6,204.8C248.3,204.9 253.2,204.1 257.5,203.0C261.8,201.9 268.5,201.0 272.4,201.0C276.3,201.0 285.3,202.0 292.3,203.1C305.2,205.3 305.2,205.3 309.8,203.1C312.4,202.0 319.0,199.6 324.5,197.9C334.0,194.9 334.9,194.4 342.0,187.6C346.1,183.6 352.1,178.5 355.2,176.1C358.4,173.8 361.0,171.4 361.0,170.8C361.0,170.0 355.6,169.9 341.2,170.3C325.7,170.8 319.9,171.4 314.0,173.0C309.9,174.2 304.5,176.3 302.0,177.7C299.5,179.1 293.3,183.4 288.2,187.2C283.0,191.1 276.9,195.0 274.7,196.1C271.6,197.5 268.1,198.0 261.5,198.0C253.7,198.0 252.8,197.8 254.0,196.5C254.8,195.7 258.6,194.0 262.4,192.6C266.2,191.2 271.7,188.6 274.7,186.8C277.7,185.0 280.9,182.7 281.8,181.6C283.4,179.8 283.3,179.7 278.5,180.4C275.8,180.8 270.1,182.0 266.0,183.1C261.9,184.3 255.3,186.7 251.5,188.5C247.7,190.4 240.7,194.2 236.2,197.1C231.6,199.9 228.2,202.6 228.7,203.1C229.1,203.5 232.7,204.1 236.5,204.3C240.3,204.4 244.9,204.7 246.6,204.8zM383.0,203.9C386.6,204.0 388.6,203.3 392.5,200.7C395.3,198.8 403.9,193.8 411.7,189.6C419.6,185.3 426.2,181.4 426.6,180.9C426.9,180.4 424.7,180.0 421.6,180.0C418.4,180.0 416.0,179.6 416.0,179.0C416.0,178.4 417.2,177.5 418.6,176.9C420.1,176.4 421.0,175.7 420.7,175.3C420.3,175.0 417.0,174.1 413.3,173.4C409.5,172.7 403.8,172.1 400.5,172.1C397.2,172.1 392.8,172.7 390.7,173.4C388.7,174.2 384.4,176.3 381.4,178.1C378.3,180.0 372.4,184.6 368.3,188.4C364.3,192.2 360.5,196.1 359.9,197.2C359.3,198.3 359.1,199.4 359.4,199.8C359.8,200.1 364.2,201.2 369.3,202.1C374.4,203.0 380.5,203.8 383.0,203.9z" />

</svg>