<?xml version="1.0" encoding="UTF-8" standalone="no"?>
<svg 
  version="1.1" 
  xmlns="http://www.w3.org/2000/svg" 
  xmlns:xlink="http://www.w3.org/1999/xlink" 
  xmlns:svg="http://www.w3.org/2000/svg"
  xmlns:rdf="http://www.w3.org/1999/02/22-rdf-syntax-ns#"
  xmlns:cc="http://creativecommons.org/ns#"
  xmlns:dc="http://purl.org/dc/elements/1.1/"
  viewBox="0 0 768 768"
  width="768"
  height="768"
>
<style>svg {background-color: white; }</style>"
<metadata id="metadata1">
Created by https://svgstud.io and licensed under CC-BY-SA 4.0 license. Please attribute https://svgstud.io
</metadata>
<metadata id="prompt">
wheat
</metadata>
<metadata id="version">
7
</metadata>
<metadata id="metadata2">
<rdf:RDF>
<cc:Work
    rdf:about="">
    <cc:license
    rdf:resource="http://creativecommons.org/licenses/by-sa/4.0/" />
    <dc:creator>
        <cc:Agent>
            <dc:title>https://svgstud.io</dc:title>
        </cc:Agent>
    </dc:creator>
</cc:Work>
<cc:License
    rdf:about="http://creativecommons.org/licenses/by-sa/4.0/">
    <cc:permits
    rdf:resource="http://creativecommons.org/ns#Reproduction" />
    <cc:permits
    rdf:resource="http://creativecommons.org/ns#Distribution" />
    <cc:requires
    rdf:resource="http://creativecommons.org/ns#Notice" />
    <cc:requires
    rdf:resource="http://creativecommons.org/ns#Attribution" />
    <cc:permits
    rdf:resource="http://creativecommons.org/ns#DerivativeWorks" />
    <cc:requires
    rdf:resource="http://creativecommons.org/ns#ShareAlike" />
</cc:License>
</rdf:RDF>
</metadata>
<metadata id="uid">
e774e3733b01f90be5d6bb3217917580366a2ad7bff3531e6026f141b0661d38
</metadata>
<path stroke="none" fill="black" fill-rule="evenodd" d="M438.0,727.3C435.0,727.4 418.1,727.2 400.5,726.8C382.9,726.4 359.2,726.0 347.8,725.7C336.4,725.5 326.7,725.0 326.3,724.7C326.0,724.3 326.9,722.6 328.5,721.0C330.1,719.4 331.2,717.9 330.9,717.7C330.7,717.5 320.1,716.8 307.5,716.1C294.9,715.4 276.9,714.9 267.5,715.0C258.1,715.0 247.7,715.4 244.2,715.8C240.8,716.3 238.0,716.3 238.0,716.0C238.0,715.6 239.0,714.4 240.2,713.3C241.5,712.2 244.9,710.0 247.8,708.5C250.6,706.9 253.0,705.3 253.0,704.8C253.0,704.4 242.5,704.0 229.6,704.0C216.6,704.0 205.9,703.6 205.6,703.1C205.2,702.6 206.3,701.1 207.9,699.7C209.6,698.3 213.2,696.7 215.9,696.0C218.7,695.3 221.3,694.4 221.6,693.9C221.9,693.4 221.1,692.6 219.8,692.0C218.5,691.5 213.0,690.6 207.5,690.2C202.0,689.7 195.0,689.4 192.0,689.5C189.0,689.6 184.0,690.0 181.0,690.4C175.5,691.1 175.5,691.1 178.0,689.0C179.4,687.8 182.5,685.9 185.0,684.7C188.5,683.1 191.9,682.5 200.0,682.2C208.5,681.9 212.6,682.3 221.5,684.3C227.6,685.7 235.3,688.0 238.8,689.4C242.3,690.9 245.9,692.0 246.8,691.8C247.9,691.5 245.6,689.2 239.5,684.7C234.6,681.0 227.8,676.7 224.5,675.1C221.2,673.5 214.4,671.0 209.5,669.7C204.6,668.3 197.3,666.7 193.3,666.1C189.4,665.5 180.2,665.0 173.0,665.0C162.9,665.0 159.9,664.7 160.2,663.8C160.4,663.1 162.6,661.5 165.1,660.3C167.5,659.1 172.0,657.6 175.1,656.9C178.5,656.2 184.1,656.0 189.1,656.3C193.7,656.7 199.9,657.2 202.8,657.6C205.7,658.0 208.0,657.9 208.0,657.4C208.0,656.9 202.7,651.2 196.2,644.9C189.8,638.5 180.2,630.0 175.0,626.0C169.8,622.1 165.3,618.4 165.2,617.9C165.0,617.4 165.5,617.0 166.4,617.0C167.2,617.0 171.4,618.4 175.7,620.1C180.0,621.8 185.1,624.1 187.0,625.3C188.9,626.5 193.9,630.3 198.0,633.8C202.1,637.4 212.0,646.8 219.9,654.9C227.9,663.0 234.4,669.0 234.7,668.3C234.9,667.6 232.6,662.3 229.5,656.5C226.3,650.7 224.0,645.7 224.3,645.4C224.5,645.1 231.3,651.3 239.2,659.2C247.2,667.1 259.8,680.0 267.3,687.9C274.7,695.8 281.4,702.0 282.0,701.8C282.8,701.6 281.7,698.6 279.0,693.5C276.7,689.1 273.4,683.4 271.6,680.7C269.8,678.1 264.1,670.7 258.9,664.3C253.8,657.9 245.6,648.3 240.9,643.1C236.2,637.8 229.0,629.0 224.9,623.5C220.8,618.0 213.6,607.6 208.9,600.5C204.2,593.4 196.9,582.3 192.8,576.0C188.7,569.7 182.5,559.8 179.0,554.0C175.4,548.2 169.9,540.4 166.6,536.6C163.4,532.7 161.2,529.4 161.8,529.2C162.4,529.0 166.0,530.5 169.7,532.4C173.4,534.4 180.8,539.5 186.0,543.7C191.2,548.0 198.7,554.7 202.6,558.7C206.6,562.7 213.5,570.3 218.0,575.7C222.6,581.1 230.2,591.4 235.0,598.5C239.8,605.6 249.0,620.8 255.5,632.1C261.9,643.5 268.3,654.0 269.7,655.6C272.1,658.5 272.1,658.5 271.6,653.0C271.3,650.0 270.1,644.1 269.0,640.0C267.9,635.9 267.0,630.9 267.0,629.0C267.0,625.5 267.0,625.5 270.2,630.5C271.9,633.2 274.4,637.9 275.7,640.9C277.0,643.9 280.1,653.7 282.5,662.6C285.0,671.5 288.0,681.6 289.4,685.1C290.7,688.6 293.2,694.4 294.8,698.0C296.4,701.6 298.8,705.4 299.9,706.4C301.2,707.6 302.4,708.0 303.0,707.4C303.5,706.9 302.8,702.2 301.0,695.5C299.5,689.5 297.9,681.8 297.6,678.5C296.9,672.5 296.9,672.5 302.2,681.7C305.1,686.7 308.3,691.9 309.3,693.2C311.1,695.5 311.1,695.5 310.5,690.6C310.1,687.9 307.8,680.3 305.3,673.6C302.8,667.0 299.3,658.6 297.5,655.0C295.7,651.4 292.6,643.8 290.6,638.0C288.7,632.2 285.9,621.9 284.6,615.0C283.2,608.1 281.2,596.2 280.1,588.5C279.0,580.8 277.8,571.7 277.4,568.2C276.9,563.9 277.1,562.0 277.9,562.0C278.5,562.0 279.0,562.4 279.0,562.9C279.0,563.3 280.9,567.1 283.2,571.1C285.4,575.2 288.5,580.3 290.0,582.5C291.4,584.7 294.7,590.5 297.2,595.5C299.8,600.5 303.7,610.1 306.0,617.0C308.2,623.9 312.5,639.0 315.5,650.6C318.5,662.2 322.6,676.6 324.6,682.6C326.6,688.6 330.3,697.8 332.8,703.0C337.1,711.8 337.4,712.3 337.8,709.3C338.0,707.5 337.4,702.1 336.5,697.3C335.6,692.4 332.0,677.0 328.5,663.0C325.1,649.0 320.3,629.9 318.0,620.5C315.7,611.1 312.9,599.5 311.8,594.5C310.8,589.5 308.9,579.4 307.6,572.0C306.3,564.6 304.4,553.5 303.5,547.5C302.6,541.5 300.5,529.1 299.0,520.0C297.4,510.9 294.3,491.6 292.0,477.0C289.8,462.4 286.6,441.9 284.9,431.5C283.2,421.1 280.7,406.4 279.3,399.0C277.9,391.6 274.5,374.7 271.9,361.5C269.2,348.3 265.9,333.3 264.5,328.1C263.2,322.9 261.5,318.3 260.8,317.9C260.1,317.4 257.9,317.0 255.9,317.0C254.0,317.0 249.7,316.5 246.5,315.9C243.2,315.3 238.9,314.0 237.0,313.0C235.0,312.0 231.6,309.2 229.6,306.9C227.5,304.6 224.5,300.0 223.0,296.6C221.5,293.2 220.0,289.3 219.6,287.7C219.0,285.1 219.1,285.0 221.0,286.2C222.2,286.9 224.6,289.8 226.5,292.5C228.3,295.2 231.1,298.7 232.7,300.2C234.2,301.7 236.8,303.4 238.3,303.9C239.9,304.5 243.1,305.0 245.6,305.0C248.5,305.0 250.0,304.6 250.0,303.7C250.0,303.0 249.2,301.4 248.3,300.0C247.1,298.3 247.0,297.5 247.8,297.2C248.5,297.0 249.0,295.8 249.0,294.6C249.0,293.4 248.4,291.6 247.7,290.6C246.9,289.5 242.6,288.0 235.5,286.4C229.4,285.1 223.2,283.5 221.5,283.0C219.3,282.3 217.9,280.7 216.3,277.2C215.0,274.6 213.3,269.5 212.3,265.8C211.4,262.1 210.9,258.7 211.4,258.3C211.8,257.9 212.5,258.2 213.0,259.0C213.5,259.8 215.8,263.4 218.2,267.0C221.3,271.7 223.7,274.1 226.9,275.7C229.3,276.9 233.3,278.2 235.7,278.6C238.1,278.9 240.6,278.8 241.1,278.3C241.6,277.8 241.2,275.9 240.0,273.5C238.6,270.8 238.1,268.5 238.5,266.4C238.8,264.5 238.6,262.9 237.8,262.2C237.1,261.6 231.2,259.6 224.8,257.7C218.4,255.8 212.0,253.6 210.6,252.7C208.7,251.4 207.3,248.6 205.1,241.5C203.4,236.3 202.0,231.3 202.0,230.4C202.0,229.5 202.7,229.0 203.7,229.2C204.6,229.4 207.0,232.6 209.0,236.4C211.0,240.2 213.8,244.1 215.2,245.1C216.6,246.2 219.7,247.7 222.0,248.5C224.3,249.3 227.5,250.0 229.1,250.0C230.6,250.0 232.1,249.6 232.4,249.2C232.7,248.7 232.2,245.3 231.3,241.4C230.5,237.6 229.1,233.8 228.4,232.9C227.6,232.1 222.4,230.1 216.8,228.5C207.7,226.0 206.0,225.1 202.3,221.4C199.4,218.4 197.7,215.5 196.5,211.3C195.5,208.1 194.5,203.5 194.2,201.1C193.8,197.7 194.0,196.8 195.1,197.2C195.9,197.4 197.8,200.3 199.5,203.6C201.2,206.9 203.3,210.8 204.3,212.2C205.3,213.7 208.0,215.8 210.3,216.9C212.6,217.9 216.0,219.1 217.9,219.5C220.2,220.0 221.5,219.8 222.1,218.9C222.6,218.1 223.0,217.0 223.0,216.4C223.0,215.8 221.8,213.5 220.4,211.4C218.9,209.3 218.2,207.4 218.7,207.3C219.3,207.1 220.5,206.4 221.4,205.7C222.4,205.0 222.9,203.8 222.5,202.9C222.2,202.0 220.9,200.8 219.7,200.1C218.5,199.5 213.5,197.9 208.7,196.5C203.8,195.1 198.3,193.3 196.4,192.5C193.6,191.4 192.4,189.9 190.4,185.3C189.0,182.2 187.4,177.2 186.8,174.3C186.0,170.5 186.0,168.6 186.7,167.9C187.5,167.1 188.8,168.7 191.0,172.8C192.7,176.1 195.5,180.2 197.2,181.9C198.8,183.5 202.6,185.8 205.6,187.0C208.6,188.1 212.0,189.0 213.0,189.0C214.4,189.0 215.0,188.3 215.0,186.8C215.0,185.5 214.2,182.0 213.2,179.0C212.3,176.0 211.1,173.0 210.7,172.3C210.3,171.7 207.4,170.6 204.2,170.0C201.1,169.3 196.2,167.9 193.4,166.9C190.6,165.8 187.6,164.2 186.7,163.2C185.9,162.3 184.7,157.9 184.1,153.6C183.5,149.2 183.3,145.4 183.6,145.1C184.0,144.8 184.7,145.4 185.4,146.4C186.0,147.4 187.8,150.3 189.5,152.8C191.2,155.3 193.7,158.2 195.2,159.3C196.8,160.5 199.6,161.4 202.2,161.4C206.5,161.5 206.5,161.5 206.2,158.0C206.0,156.1 205.1,153.4 204.1,152.0C203.1,150.6 200.1,148.3 197.4,146.8C194.7,145.2 190.8,143.5 188.7,142.8C186.1,142.0 184.5,140.8 183.8,139.1C183.3,137.7 183.0,133.1 183.2,129.0C183.5,124.1 184.8,118.1 186.9,111.8C188.7,106.4 190.5,102.0 190.9,102.0C191.4,102.0 192.9,102.9 194.2,104.0C195.6,105.0 199.9,109.2 203.7,113.2C207.6,117.2 212.7,123.0 215.1,126.0C217.5,129.0 221.5,134.2 224.0,137.5C226.5,140.8 230.1,146.7 232.0,150.5C234.0,154.3 239.3,164.1 243.8,172.2C248.4,180.3 253.9,191.3 256.1,196.7C258.3,202.1 261.6,210.6 263.4,215.5C265.3,220.4 267.9,227.4 269.3,231.0C270.7,234.6 273.5,242.0 275.5,247.5C277.6,253.0 280.6,262.0 282.2,267.5C284.2,274.3 285.2,280.1 285.3,285.5C285.5,292.4 285.1,294.3 282.7,299.5C280.9,303.3 277.9,307.4 274.4,310.6C269.0,315.7 269.0,315.7 270.5,323.1C271.4,327.2 273.2,334.6 274.5,339.5C275.9,344.4 278.5,355.9 280.4,365.0C282.3,374.1 284.4,385.1 285.0,389.5C285.7,393.9 287.5,404.9 289.2,414.0C290.8,423.1 293.2,437.5 294.5,446.0C295.8,454.5 298.1,469.1 299.5,478.5C301.0,487.9 303.0,500.7 304.0,507.0C305.0,513.3 308.2,531.3 311.0,547.0C313.8,562.7 316.8,579.7 317.5,584.8C318.3,589.9 320.1,598.9 321.6,604.8C323.0,610.7 324.5,616.4 325.0,617.5C325.4,618.6 327.0,624.9 328.4,631.5C329.8,638.1 332.6,651.4 334.5,661.2C336.4,670.9 339.0,681.5 340.2,684.7C341.4,687.9 342.7,690.9 343.2,691.4C343.6,692.0 344.0,688.4 344.0,683.6C344.0,678.8 343.3,668.2 342.5,660.2C341.6,652.1 340.4,641.7 339.8,637.0C339.2,632.3 338.5,609.6 338.3,586.5C338.0,559.8 338.4,525.2 339.4,491.5C340.3,462.4 341.7,422.1 342.5,402.0C343.3,381.9 344.4,354.9 345.0,342.0C345.5,329.1 346.2,314.0 346.4,308.5C346.6,303.0 346.4,297.8 345.9,296.9C345.4,295.9 343.7,294.9 342.0,294.5C340.3,294.1 336.8,292.1 334.2,290.0C330.9,287.5 328.6,284.6 327.2,281.2C326.0,278.4 324.6,273.3 324.1,269.8C323.6,266.0 323.6,259.0 324.2,252.0C324.8,245.7 325.1,237.9 325.1,234.7C325.0,231.4 325.6,226.5 326.4,223.7C327.1,220.8 328.1,215.6 328.4,212.0C328.8,208.4 329.5,203.5 330.1,201.0C330.6,198.5 331.7,193.6 332.4,190.0C333.2,186.4 334.5,180.6 335.3,177.0C336.1,173.4 338.0,167.5 339.4,164.0C340.9,160.4 344.0,154.6 346.4,151.0C348.8,147.4 352.1,142.2 353.9,139.5C355.6,136.8 358.3,132.9 359.9,131.0C361.9,128.7 363.2,127.8 363.8,128.5C364.4,129.1 366.8,133.6 369.3,138.5C371.8,143.4 375.1,152.0 376.6,157.5C379.3,167.5 379.3,167.5 378.6,198.5C378.3,215.6 377.5,237.6 377.0,247.4C376.4,257.2 375.3,268.2 374.5,271.7C373.7,275.2 372.3,279.5 371.4,281.3C370.5,283.1 368.4,286.1 366.7,288.0C365.1,289.9 361.4,292.9 358.6,294.6C353.5,297.6 353.5,297.6 352.8,306.6C352.5,311.5 351.7,330.6 351.1,349.0C350.5,367.4 349.5,396.7 349.0,414.0C348.5,431.3 347.6,462.6 347.0,483.5C346.4,504.4 346.0,543.7 346.0,570.8C346.0,597.8 346.3,620.0 346.8,620.0C347.2,620.0 348.7,616.7 350.1,612.8C351.6,608.8 355.5,597.0 359.0,586.5C362.8,574.9 367.7,562.6 371.5,554.9C375.0,547.9 380.6,538.6 384.0,534.1C387.4,529.7 393.1,523.3 396.6,520.0C400.2,516.7 404.4,513.3 406.1,512.4C407.8,511.6 409.5,511.1 409.8,511.4C410.1,511.8 408.5,514.6 406.2,517.8C403.9,520.9 397.9,529.6 392.7,537.0C387.5,544.4 381.3,554.3 378.8,559.0C376.3,563.7 372.4,571.8 370.2,577.0C367.9,582.3 363.8,594.0 361.0,603.0C358.2,612.1 355.2,622.6 354.4,626.4C353.6,630.3 352.5,637.5 352.0,642.4C351.5,647.4 351.5,653.1 351.9,655.0C352.4,657.2 352.9,658.0 353.3,657.0C353.6,656.2 356.0,649.9 358.5,643.0C361.0,636.1 365.6,625.8 368.7,620.0C371.7,614.2 376.0,607.1 378.2,604.2C380.4,601.2 382.4,599.0 382.6,599.2C382.8,599.5 381.9,603.0 380.6,607.1C379.3,611.2 376.1,619.9 373.5,626.5C370.9,633.1 367.4,642.5 365.8,647.5C364.2,652.5 361.3,660.5 359.3,665.5C357.4,670.4 355.2,677.8 354.4,681.8C353.6,685.9 353.0,692.5 353.0,696.7C353.0,702.2 353.3,704.1 354.2,703.8C354.9,703.5 357.4,698.2 359.7,691.9C362.1,685.6 365.7,676.2 367.7,671.0C369.7,665.8 373.3,657.0 375.8,651.5C378.2,646.0 382.4,635.0 385.1,627.0C387.7,619.0 392.0,607.2 394.5,600.7C397.0,594.2 403.5,579.8 409.0,568.7C414.5,557.6 420.4,546.0 422.1,543.0C423.8,540.0 431.4,525.7 439.0,511.4C446.6,497.0 458.0,474.3 464.3,460.9C470.6,447.5 477.6,430.9 479.9,424.0C482.3,417.1 485.5,408.6 487.0,405.0C488.6,401.4 491.0,395.9 492.4,392.6C493.8,389.4 495.0,386.3 495.0,385.6C495.0,385.0 493.1,383.2 490.9,381.6C488.2,379.7 485.9,376.9 484.4,373.6C483.1,370.8 482.0,367.1 482.0,365.4C482.0,363.6 482.9,359.1 484.1,355.4C485.2,351.6 489.2,342.4 493.0,335.0C496.7,327.6 501.4,318.7 503.3,315.2C505.3,311.8 510.7,304.4 515.4,298.7C520.0,293.1 526.7,285.8 530.2,282.4C533.7,279.1 540.1,273.4 544.5,269.8C548.9,266.2 554.8,262.1 557.7,260.6C560.6,259.2 563.5,258.0 564.1,258.0C565.0,258.0 565.1,260.5 564.7,267.4C564.3,272.6 563.1,281.5 562.0,287.2C560.8,292.9 558.4,302.2 556.5,308.0C554.7,313.8 550.6,324.3 547.5,331.5C544.4,338.6 539.0,350.4 535.5,357.6C531.4,366.0 527.3,372.6 524.3,376.0C521.5,379.1 517.4,382.3 514.5,383.6C511.8,384.9 508.1,386.0 506.5,386.0C504.9,386.0 502.9,386.4 502.2,386.8C501.6,387.3 499.4,391.6 497.4,396.5C495.5,401.4 491.9,411.2 489.4,418.3C487.0,425.5 485.0,431.7 485.0,432.2C485.0,432.6 486.5,433.0 488.4,433.0C490.3,433.0 493.3,431.9 495.4,430.5C497.4,429.2 500.3,427.1 501.9,425.9C503.6,424.7 507.2,420.9 509.9,417.5C512.7,414.0 515.0,411.0 515.0,410.8C515.0,410.5 512.6,410.8 509.8,411.5C506.9,412.2 502.8,413.5 500.8,414.4C498.7,415.3 496.7,416.0 496.3,416.0C495.9,416.0 497.4,414.2 499.5,411.9C501.7,409.7 504.9,407.0 506.7,405.9C508.5,404.8 512.7,402.8 516.2,401.4C519.6,400.1 523.4,399.0 524.6,399.0C526.9,399.0 526.9,399.0 525.3,403.8C524.4,406.4 521.7,412.1 519.2,416.5C516.5,421.1 511.8,427.3 508.1,431.1C504.4,434.7 499.7,438.5 497.5,439.5C495.3,440.5 490.5,441.6 486.9,441.8C480.3,442.2 480.3,442.2 478.0,447.9C476.7,451.0 470.6,463.9 464.5,476.5C458.4,489.1 448.7,508.1 443.0,518.5C437.4,529.0 428.7,545.4 423.8,555.0C418.9,564.6 412.4,577.8 409.4,584.4C406.4,590.9 403.0,598.9 401.9,602.2C400.8,605.5 400.1,608.7 400.2,609.2C400.4,609.8 403.6,606.6 407.4,602.2C411.1,597.8 416.7,592.2 419.8,589.7C423.0,587.3 428.4,583.8 431.9,582.0C438.3,578.8 438.3,578.8 435.2,582.7C433.6,584.8 427.7,591.5 422.3,597.5C416.9,603.6 408.9,613.2 404.5,619.0C400.1,624.8 395.3,631.3 393.8,633.5C392.4,635.7 389.4,640.4 387.3,644.0C385.1,647.6 380.3,658.1 376.6,667.4C372.8,676.7 368.5,689.3 367.0,695.4C365.5,701.5 363.9,708.6 363.6,711.2C363.1,714.3 363.2,716.0 363.9,716.0C364.5,716.0 368.9,708.2 373.6,698.8C378.4,689.3 384.6,677.9 387.6,673.5C390.5,669.1 395.2,663.2 398.0,660.5C403.2,655.5 403.2,655.5 393.6,674.1C388.3,684.4 382.7,696.3 381.1,700.6C379.5,705.0 377.9,710.2 377.6,712.4C377.1,715.2 377.2,716.1 378.1,715.8C378.8,715.6 382.2,710.2 385.8,703.9C389.3,697.7 394.6,688.4 397.5,683.5C400.5,678.5 406.7,669.1 411.3,662.6C416.0,656.0 424.2,645.8 429.5,639.8C434.8,633.8 440.9,627.6 443.2,626.0C445.5,624.3 447.5,623.2 447.7,623.4C448.0,623.6 446.8,626.7 445.1,630.2C443.4,633.6 442.0,637.0 442.0,637.7C442.0,638.4 445.8,636.1 450.4,632.6C455.0,629.1 462.8,624.3 467.7,622.0C472.5,619.7 481.7,616.5 488.0,614.8C498.5,612.0 501.3,611.7 519.8,611.3C531.2,611.0 540.0,611.1 540.0,611.6C540.0,612.1 536.5,614.6 532.2,617.1C528.0,619.7 521.4,623.1 517.5,624.8C513.6,626.5 507.0,629.2 502.8,630.9C498.5,632.6 489.3,636.8 482.3,640.4C475.3,643.9 464.9,649.5 459.4,652.8C453.8,656.1 444.3,662.5 438.4,667.1C432.4,671.7 423.5,679.3 418.6,684.0C413.8,688.7 407.9,695.2 405.6,698.5C403.3,701.8 400.8,705.8 400.2,707.3C399.0,710.2 399.0,710.2 402.2,707.9C404.0,706.6 409.1,702.7 413.4,699.3C417.8,695.9 421.6,693.2 421.8,693.5C422.0,693.7 420.1,697.3 417.5,701.4C414.9,705.6 412.0,711.2 410.9,714.0C409.9,716.7 409.2,719.0 409.5,719.0C409.8,719.0 413.0,716.0 416.6,712.2C421.8,706.9 423.0,706.0 422.6,708.0C422.3,709.4 421.7,712.2 421.4,714.2C421.0,716.4 421.2,718.0 421.7,718.0C422.2,718.0 426.0,714.1 430.2,709.2C434.4,704.4 442.3,696.0 447.7,690.4C453.1,684.9 461.1,677.7 465.5,674.3C469.9,671.0 476.2,666.5 479.4,664.4C482.6,662.3 486.3,659.8 487.5,659.0C488.8,658.2 491.8,655.9 494.1,653.9C496.5,651.9 502.8,647.3 508.1,643.8C513.4,640.2 521.5,635.7 526.2,633.7C530.8,631.7 538.6,628.9 543.5,627.5C548.5,626.1 556.5,624.6 561.5,624.2C566.4,623.8 571.8,623.6 573.3,623.8C574.9,624.0 576.0,624.7 575.7,625.3C575.5,626.0 571.8,628.5 567.4,631.0C563.0,633.5 553.1,639.7 545.5,644.7C537.8,649.8 529.1,655.8 526.2,658.1C523.2,660.3 521.0,662.4 521.3,662.6C521.5,662.9 526.0,662.0 531.1,660.6C536.3,659.2 544.1,657.6 548.4,657.0C552.7,656.3 566.6,655.8 579.1,655.9C591.7,655.9 602.7,656.3 603.6,656.8C605.0,657.6 604.8,658.0 602.4,659.7C600.8,660.9 594.5,664.8 588.5,668.5C582.5,672.2 572.1,677.8 565.5,681.0C558.9,684.2 548.8,688.5 543.0,690.4C537.2,692.3 530.9,694.2 529.0,694.6C527.1,695.0 518.1,695.4 509.0,695.7C499.9,695.9 491.4,696.3 490.1,696.6C488.8,696.9 488.1,697.5 488.6,698.0C489.1,698.4 493.1,700.3 497.5,702.1C501.9,703.9 507.2,706.5 509.2,707.8C511.3,709.2 513.0,710.7 513.0,711.2C513.0,711.8 510.3,712.0 506.2,711.7C502.5,711.4 493.0,710.7 485.1,710.0C474.1,709.0 469.1,709.0 463.8,709.9C459.9,710.5 455.2,711.8 453.2,712.7C449.5,714.3 449.5,714.3 457.0,715.1C461.1,715.6 467.9,716.4 472.0,717.1C476.1,717.7 480.1,718.6 480.9,719.0C482.1,719.6 482.0,720.0 480.4,720.8C479.4,721.3 475.8,722.3 472.5,722.9C469.2,723.4 462.9,724.4 458.5,725.1C454.1,725.7 448.9,726.4 447.0,726.6C445.1,726.9 441.0,727.2 438.0,727.3zM460.6,695.0C460.9,695.0 463.2,693.6 465.8,691.8C468.4,690.1 474.3,685.7 479.0,682.1C483.7,678.5 490.0,673.5 493.0,671.0C496.0,668.4 502.0,663.8 506.2,660.7C510.4,657.6 517.3,652.3 521.4,648.8C525.5,645.4 528.8,642.4 528.6,642.3C528.4,642.1 526.5,642.6 524.4,643.4C522.2,644.1 515.8,647.1 510.1,649.9C504.4,652.7 496.3,657.4 492.1,660.2C487.9,663.1 480.3,669.7 475.2,675.0C470.1,680.2 464.6,686.5 462.9,688.9C461.3,691.4 460.0,693.7 460.0,694.2C460.0,694.6 460.3,695.0 460.6,695.0zM435.1,623.5C434.0,624.1 433.8,623.9 434.3,622.6C434.7,621.6 436.6,618.5 438.5,615.7C440.4,612.8 446.5,604.8 452.2,597.8C457.9,590.9 466.8,580.3 472.1,574.3C477.4,568.4 491.9,553.5 504.4,541.3C516.8,529.1 527.0,518.7 527.0,518.2C527.0,517.7 526.0,516.5 524.9,515.4C523.7,514.4 522.1,512.1 521.4,510.3C520.6,508.5 520.0,505.0 520.0,502.5C520.0,500.0 520.7,496.5 521.7,494.7C523.3,491.5 523.3,491.5 524.7,495.8C525.5,498.1 526.6,500.0 527.1,500.0C527.6,500.0 530.0,497.0 532.4,493.2C534.9,489.5 540.3,482.8 544.4,478.4C548.5,473.9 555.2,467.8 559.2,464.7C563.2,461.6 570.2,456.9 574.8,454.1C579.4,451.4 586.7,447.9 591.1,446.5C595.5,445.0 600.7,443.6 602.6,443.5C605.1,443.2 606.0,443.6 606.0,444.6C606.0,445.4 605.3,447.5 604.3,449.3C603.4,451.1 597.5,461.1 591.2,471.5C584.9,481.9 577.2,494.1 574.0,498.5C570.8,502.9 565.7,508.9 562.6,511.8C559.6,514.7 554.7,518.2 551.8,519.5C547.9,521.4 544.8,522.0 539.9,522.0C533.2,522.0 533.2,522.0 507.7,547.8C493.7,561.9 479.0,577.2 474.9,581.8C470.8,586.4 465.8,592.2 463.7,594.8C461.6,597.4 457.2,602.8 453.8,606.8C450.5,610.8 445.2,616.0 442.1,618.3C439.0,620.7 435.9,623.0 435.1,623.5zM204.7,623.0C204.0,623.0 201.6,621.7 199.4,620.1C197.3,618.5 193.9,615.2 192.0,612.9C190.1,610.5 186.5,605.4 184.1,601.5C181.8,597.7 178.7,592.4 177.4,589.8C176.1,587.3 173.3,580.7 171.1,575.3C169.0,569.9 166.9,563.5 166.5,561.0C165.8,556.5 165.8,556.5 170.4,563.0C172.9,566.6 176.0,571.5 177.4,574.0C178.7,576.5 184.8,586.4 191.0,596.0C197.2,605.6 203.1,615.2 204.1,617.2C205.1,619.2 206.0,621.4 206.0,622.0C206.0,622.5 205.4,623.0 204.7,623.0zM272.8,616.3C272.5,619.5 272.5,619.5 270.3,616.1C269.1,614.2 267.2,609.2 266.0,605.0C264.9,600.7 262.8,590.9 261.5,583.1C260.1,575.4 258.5,566.9 258.0,564.4C257.4,561.8 255.6,551.9 254.0,542.4C252.4,532.8 250.6,523.3 250.1,521.3C249.5,519.2 248.1,512.1 247.0,505.5C245.8,498.9 243.1,485.6 240.9,476.0C238.7,466.4 235.4,452.9 233.4,446.0C231.5,439.1 229.5,432.1 228.9,430.4C228.0,427.4 227.7,427.3 219.8,426.1C213.7,425.3 210.2,424.2 206.2,421.7C202.7,419.6 199.8,416.8 197.7,413.5C195.9,410.7 192.2,403.8 189.3,398.0C186.4,392.2 182.3,383.6 180.0,378.8C177.8,374.1 176.0,369.8 176.0,369.4C176.0,368.9 174.2,364.9 172.0,360.4C169.8,355.9 167.4,349.6 166.7,346.3C165.9,343.0 164.7,339.4 164.1,338.1C163.4,336.9 162.2,332.5 161.4,328.4C160.7,324.2 160.0,317.5 160.0,313.4C160.0,307.4 160.3,306.0 161.5,306.0C162.4,306.0 166.7,307.9 171.3,310.1C175.8,312.4 182.6,316.0 186.3,318.2C190.1,320.4 196.9,325.3 201.3,329.1C205.8,332.9 213.0,340.0 217.2,344.8C221.5,349.6 227.2,356.6 229.8,360.5C232.5,364.4 237.2,372.1 240.4,377.8C244.9,386.0 246.3,389.6 247.2,395.6C248.2,402.0 248.1,403.8 246.6,408.5C245.5,412.2 243.3,415.7 239.8,419.5C236.0,423.7 234.9,425.6 235.3,427.3C235.6,428.5 237.3,434.0 239.0,439.5C240.7,445.0 243.6,456.2 245.6,464.5C247.5,472.8 249.9,483.6 251.0,488.5C252.0,493.4 254.4,505.8 256.4,516.0C258.3,526.2 261.3,542.4 262.9,552.0C264.6,561.6 266.6,573.1 267.5,577.5C268.3,581.9 269.9,591.7 271.1,599.3C272.2,606.9 273.0,614.5 272.8,616.3zM169.2,520.0C168.3,520.0 165.2,518.9 162.4,517.6C159.6,516.3 155.6,513.7 153.5,511.9C151.4,510.0 147.9,505.8 145.8,502.6C143.7,499.3 142.0,496.3 142.0,495.9C142.0,495.5 143.3,495.6 144.9,496.1C146.5,496.7 151.3,500.0 155.6,503.6C160.0,507.2 165.2,512.0 167.2,514.3C169.3,516.6 171.0,518.8 171.0,519.2C171.0,519.7 170.2,520.0 169.2,520.0zM538.8,510.8C543.2,510.6 547.1,509.6 550.2,508.0C552.8,506.7 555.9,504.6 557.1,503.4C558.3,502.2 558.9,500.7 558.5,500.1C558.2,499.5 555.9,499.0 553.4,499.0C550.3,499.0 548.8,498.5 548.3,497.5C548.0,496.6 548.1,495.6 548.4,495.3C548.8,494.9 552.5,494.3 556.7,493.9C561.7,493.4 565.2,492.5 566.9,491.3C568.2,490.2 569.6,488.8 569.8,488.2C570.0,487.4 568.9,487.0 566.5,487.0C564.5,487.0 562.0,486.5 560.9,485.9C559.0,484.9 558.9,484.7 560.5,483.0C561.6,481.8 564.3,480.9 568.3,480.5C571.7,480.1 575.9,479.1 577.5,478.2C580.5,476.6 580.5,476.6 575.8,475.3C573.1,474.5 571.0,473.3 571.0,472.6C571.0,471.8 573.4,470.1 576.3,468.7C579.8,467.1 583.8,463.8 587.8,459.4C591.2,455.7 593.9,452.5 593.7,452.3C593.5,452.2 591.2,452.6 588.7,453.4C586.1,454.2 580.2,457.3 575.6,460.4C571.0,463.5 562.6,470.3 557.0,475.7C551.4,481.0 544.3,488.7 541.3,492.7C538.2,496.8 534.9,501.8 533.9,503.8C532.8,505.8 532.0,508.3 532.0,509.3C532.0,511.0 532.6,511.2 538.8,510.8zM397.2,494.2C396.4,495.0 395.9,494.5 395.5,492.7C395.1,491.3 395.5,480.5 396.4,468.8C397.2,457.1 398.8,435.6 400.0,421.0C401.1,406.4 402.7,387.1 403.6,378.0C404.4,368.9 406.0,356.3 407.0,350.0C408.0,343.7 409.2,337.1 409.6,335.3C410.2,332.5 409.9,332.1 406.6,330.5C404.6,329.5 401.4,326.9 399.4,324.7C397.5,322.4 395.3,318.3 394.5,315.6C393.7,312.9 393.0,309.0 393.0,307.1C393.0,305.1 393.9,299.0 395.0,293.5C396.1,288.0 397.4,281.9 398.0,280.0C398.5,278.1 399.0,274.7 399.0,272.5C399.0,270.3 399.9,265.4 400.9,261.5C401.9,257.6 404.0,250.5 405.5,245.5C407.0,240.6 410.0,233.1 412.1,228.9C414.3,224.6 416.0,220.8 416.0,220.4C416.0,220.0 418.1,216.3 420.8,212.3C424.1,207.1 425.9,205.2 427.0,205.6C427.8,205.9 429.1,206.3 429.9,206.4C430.8,206.4 431.9,204.6 432.9,201.7C433.8,198.8 436.4,194.5 439.4,191.2C442.1,188.1 445.1,184.9 446.2,184.2C447.8,183.0 448.1,183.2 449.1,185.7C449.7,187.2 451.3,192.8 452.7,198.0C454.0,203.2 455.4,211.1 455.7,215.5C456.0,219.9 455.7,226.8 455.1,230.7C454.5,234.7 453.5,241.3 452.9,245.2C452.4,249.2 451.2,254.7 450.4,257.4C449.6,260.1 449.0,263.7 449.0,265.4C449.0,267.1 448.4,272.3 447.6,277.0C446.8,281.7 445.6,288.4 445.0,292.0C444.3,295.6 443.4,301.1 442.9,304.4C442.4,307.6 441.1,312.2 440.0,314.7C438.9,317.1 436.6,320.9 434.9,323.1C433.2,325.3 429.4,328.4 426.6,330.0C423.8,331.7 420.5,333.0 419.4,333.0C418.2,333.0 416.8,333.6 416.2,334.2C415.7,334.9 414.1,344.5 412.6,355.5C411.2,366.5 409.6,380.9 409.0,387.5C408.5,394.1 407.6,409.4 407.0,421.5C406.3,433.6 404.7,451.1 403.4,460.5C402.1,469.9 400.3,481.0 399.6,485.4C398.8,489.7 397.7,493.7 397.2,494.2zM219.8,415.9C222.7,416.0 225.0,415.6 225.0,415.0C225.0,414.4 223.2,411.3 220.9,408.0C218.7,404.7 216.5,401.8 216.2,401.6C215.8,401.4 211.6,400.9 206.8,400.5C198.5,399.8 198.0,399.9 198.0,401.7C198.0,402.8 200.2,406.0 202.9,408.8C205.6,411.7 209.2,414.3 211.1,414.9C213.0,415.4 216.9,415.9 219.8,415.9zM415.0,415.0C414.6,415.0 414.0,414.7 413.7,414.3C413.3,414.0 413.0,412.3 413.0,410.6C413.0,408.3 414.2,406.5 418.9,402.1C422.2,399.0 426.2,394.2 427.8,391.5C429.4,388.8 431.7,383.2 432.9,379.1C434.1,375.1 434.9,371.5 434.5,371.2C434.2,370.9 429.6,374.9 424.3,380.1C414.8,389.5 414.8,389.5 415.3,385.6C415.7,383.4 417.6,379.2 419.6,376.1C421.6,373.1 425.7,368.3 428.7,365.4C431.7,362.6 436.4,359.0 439.1,357.5C441.9,356.0 444.4,355.0 444.7,355.3C445.0,355.6 444.7,360.4 444.1,366.0C443.4,371.5 442.0,378.8 440.8,382.3C439.7,385.7 437.7,390.8 436.3,393.6C434.9,396.5 431.7,401.2 429.2,404.1C426.6,406.9 422.5,410.6 420.1,412.2C417.6,413.7 415.3,415.0 415.0,415.0zM234.6,410.9C235.4,410.2 236.8,408.4 237.6,406.9C238.4,405.3 239.0,402.2 239.0,399.8C239.0,396.0 238.8,395.7 237.5,397.1C236.6,398.0 235.3,401.1 234.5,404.1C233.7,407.1 233.0,410.1 233.0,410.9C233.0,412.0 233.3,412.0 234.6,410.9zM226.6,401.0C227.3,401.0 229.7,397.9 232.0,394.2C234.2,390.4 236.0,386.5 236.0,385.3C236.0,384.2 235.6,382.0 235.1,380.4C234.6,378.8 233.9,376.3 233.6,374.8C233.2,373.2 232.6,372.0 232.1,372.0C231.6,372.0 229.0,375.4 226.1,379.6C223.3,383.8 221.0,388.3 221.0,389.6C221.0,390.9 221.9,394.0 223.1,396.5C224.3,399.0 225.8,401.0 226.6,401.0zM209.2,393.9C212.4,393.9 215.0,393.6 215.0,393.1C215.0,392.6 213.3,390.0 211.1,387.3C207.2,382.4 207.2,382.4 197.1,381.1C191.5,380.3 186.6,380.0 186.3,380.3C186.0,380.7 187.4,383.2 189.5,385.9C191.6,388.7 194.5,391.3 195.9,391.9C197.3,392.5 199.6,393.1 201.0,393.3C202.4,393.5 206.1,393.8 209.2,393.9zM217.0,380.0C217.5,380.0 218.6,379.0 219.4,377.8C220.2,376.5 221.4,373.5 222.1,371.0C223.2,366.9 223.0,365.6 221.1,359.7C219.8,356.0 218.3,353.0 217.7,353.0C217.0,353.0 214.7,356.0 212.6,359.6C208.7,366.2 208.7,366.2 210.9,370.8C212.2,373.4 213.8,376.5 214.6,377.8C215.4,379.0 216.5,380.0 217.0,380.0zM506.9,377.0C508.7,377.0 512.1,375.2 516.6,371.9C520.4,369.1 523.8,366.2 524.3,365.5C524.7,364.7 524.7,363.9 524.2,363.6C523.8,363.4 520.5,363.1 517.0,363.0C513.4,362.9 509.9,362.9 509.2,362.9C508.5,363.0 507.0,364.9 506.0,367.2C504.9,369.6 504.0,372.7 504.0,374.2C504.0,376.6 504.4,377.0 506.9,377.0zM200.2,374.9C203.1,375.0 205.0,374.6 205.0,373.9C205.0,373.3 204.0,371.5 202.8,369.8C201.5,368.2 199.6,365.8 198.4,364.5C196.8,362.7 194.8,362.1 189.2,361.5C185.4,361.1 181.2,361.1 180.1,361.5C178.9,361.8 178.0,362.6 178.0,363.1C178.0,363.6 180.0,366.0 182.4,368.4C185.5,371.5 188.1,373.1 191.1,373.8C193.5,374.3 197.6,374.8 200.2,374.9zM495.0,372.0C495.4,372.0 496.7,370.5 497.8,368.8C498.9,367.0 500.1,364.3 500.5,362.8C501.1,360.5 500.5,359.4 496.6,355.5C494.0,353.0 491.5,351.2 491.0,351.5C490.5,351.8 489.8,354.1 489.4,356.5C489.1,359.0 489.1,362.5 489.4,364.3C489.7,366.2 490.9,368.6 492.1,369.8C493.2,371.0 494.5,372.0 495.0,372.0zM204.7,359.0C205.5,359.0 206.8,357.4 207.6,355.5C208.3,353.6 209.0,350.6 209.0,348.7C209.0,346.9 208.0,343.4 206.8,341.0C205.5,338.5 203.8,336.5 203.0,336.5C202.2,336.5 200.2,339.0 198.7,342.2C196.2,347.1 196.0,348.1 197.1,350.2C197.8,351.4 199.4,354.0 200.8,355.8C202.1,357.5 203.9,359.0 204.7,359.0zM515.8,358.5C517.3,358.2 520.5,356.9 522.9,355.8C525.3,354.6 528.8,352.4 530.6,350.7C532.5,349.1 534.0,347.4 534.0,346.9C534.0,346.4 531.3,346.0 528.0,346.0C524.7,346.0 520.4,346.6 518.5,347.4C516.7,348.2 514.7,349.7 514.1,350.8C513.5,352.0 513.0,354.3 513.0,356.0C513.0,359.0 513.2,359.2 515.8,358.5zM187.0,354.7C190.4,354.5 191.6,354.1 191.8,352.7C192.0,351.8 190.9,349.5 189.5,347.7C188.0,346.0 185.6,344.0 184.1,343.3C182.7,342.6 178.7,342.1 175.2,342.0C171.8,342.0 169.0,342.4 169.0,342.9C169.0,343.3 170.4,345.4 172.0,347.5C173.7,349.6 175.8,351.9 176.8,352.6C177.7,353.2 179.4,354.0 180.5,354.3C181.6,354.6 184.5,354.7 187.0,354.7zM504.1,354.0C505.1,354.0 506.4,353.1 507.0,352.1C507.5,351.0 508.0,348.8 508.0,347.1C508.0,344.7 506.8,342.7 502.9,338.7C498.1,333.7 497.8,333.6 496.4,335.4C495.6,336.5 495.2,338.1 495.4,338.9C495.6,339.8 496.1,342.2 496.5,344.2C496.8,346.3 498.2,349.3 499.6,351.0C501.0,352.6 503.0,354.0 504.1,354.0zM522.8,341.4C524.3,341.0 528.0,339.4 531.1,337.9C534.3,336.3 537.7,333.9 538.9,332.4C540.1,330.9 541.0,329.3 541.0,328.9C541.0,328.4 537.8,328.0 534.0,328.0C529.2,328.0 526.1,328.5 524.5,329.6C523.2,330.5 521.4,333.1 520.4,335.5C519.5,337.9 519.1,340.3 519.5,340.9C519.8,341.5 521.3,341.7 522.8,341.4zM190.5,340.0C191.2,340.0 192.1,339.3 192.4,338.4C192.7,337.5 193.0,335.5 193.0,333.9C193.0,332.2 192.3,329.6 191.5,328.1C190.7,326.5 189.3,324.9 188.3,324.6C187.2,324.1 186.1,324.5 185.2,325.7C184.4,326.8 184.1,328.7 184.4,330.4C184.8,332.0 185.9,334.8 187.1,336.6C188.2,338.5 189.8,340.0 190.5,340.0zM510.9,338.0C511.3,338.0 512.5,337.1 513.4,336.1C514.4,335.0 515.4,332.4 515.7,330.3C516.1,327.1 515.7,325.9 513.0,322.5C511.3,320.3 509.2,318.1 508.4,317.7C507.3,317.1 506.5,317.8 505.4,320.6C504.4,322.9 504.1,325.6 504.4,327.4C504.8,329.1 506.2,332.2 507.5,334.2C508.9,336.3 510.4,338.0 510.9,338.0zM178.8,336.0C181.0,336.0 182.0,335.5 182.0,334.5C182.0,333.6 180.2,330.0 177.9,326.5C175.7,322.9 172.7,319.1 171.3,318.0C169.9,316.9 167.8,316.0 166.7,316.0C165.0,316.0 164.8,316.5 165.3,320.0C165.6,322.2 166.9,326.2 168.2,328.8C169.4,331.4 171.6,334.1 173.0,334.7C174.4,335.4 177.0,336.0 178.8,336.0zM419.4,323.0C420.7,323.0 423.2,322.0 425.1,320.7C426.9,319.5 429.9,316.5 431.7,314.2C433.5,311.8 435.0,309.2 435.0,308.3C435.0,307.1 434.1,306.9 429.8,307.5C426.9,307.9 423.7,308.6 422.8,309.1C421.8,309.6 419.9,312.0 418.5,314.5C416.8,317.4 416.1,319.7 416.5,321.0C416.9,322.2 418.0,323.0 419.4,323.0zM533.5,322.4C535.1,322.1 538.0,321.1 539.8,320.3C541.6,319.4 544.1,317.4 545.5,315.8C546.9,314.2 548.0,312.2 548.0,311.4C548.0,310.4 546.6,310.0 542.5,310.0C537.6,310.0 536.6,310.4 533.0,313.6C530.6,315.8 529.0,318.1 529.0,319.4C529.0,320.7 529.3,322.0 529.7,322.4C530.1,322.8 531.8,322.8 533.5,322.4zM408.1,320.0C409.1,320.0 410.4,318.5 411.4,316.0C412.3,313.8 413.0,311.3 413.0,310.5C413.0,309.7 409.8,306.6 405.8,303.6C401.8,300.6 398.2,298.4 397.7,298.7C397.2,299.0 397.2,301.1 397.5,303.4C397.9,305.6 398.9,309.1 399.7,311.0C400.5,312.9 402.3,315.7 403.7,317.2C405.2,318.8 407.1,320.0 408.1,320.0zM519.0,320.0C520.0,320.0 521.8,318.8 522.9,317.3C524.1,315.9 525.3,313.6 525.6,312.4C526.0,310.7 525.3,308.9 523.0,306.0C521.3,303.8 519.4,302.0 518.9,302.0C518.3,302.0 516.8,303.1 515.4,304.6C513.2,306.7 512.9,307.7 513.5,310.8C513.9,312.8 514.8,315.7 515.6,317.2C516.4,318.8 517.9,320.0 519.0,320.0zM262.5,309.0C263.5,309.0 264.0,308.0 264.0,305.8C264.0,304.0 262.4,298.0 260.5,292.5C258.6,287.0 257.0,281.7 257.0,280.7C257.0,279.8 256.1,276.4 254.9,273.2C253.8,270.1 251.1,261.9 249.0,255.0C246.8,248.1 242.8,236.0 240.1,228.0C237.4,220.0 234.9,211.2 234.5,208.5C234.1,205.8 232.5,201.1 230.9,198.3C229.3,195.4 228.0,191.7 228.0,190.0C228.0,188.3 229.4,184.1 231.2,180.7C234.3,174.6 234.3,174.4 233.1,167.6C232.5,163.8 231.4,160.0 230.8,159.3C230.0,158.3 229.4,158.3 228.4,159.1C227.7,159.7 225.0,163.5 222.5,167.6C217.9,175.0 217.9,175.0 220.4,182.4C221.7,186.5 223.3,192.4 223.9,195.5C224.5,198.7 224.8,201.6 224.5,202.0C224.2,202.4 225.5,206.9 227.4,211.9C229.3,216.9 232.9,228.1 235.4,236.8C238.0,245.4 241.9,257.9 244.1,264.5C246.4,271.1 249.1,280.1 250.2,284.5C251.3,288.9 252.8,294.4 253.6,296.7C254.5,299.0 256.4,302.7 258.1,304.9C259.7,307.2 261.7,309.0 262.5,309.0zM424.6,305.0C425.4,305.0 429.2,301.9 433.0,298.1C437.5,293.7 440.0,290.5 440.0,289.0C440.0,287.0 439.7,286.9 435.8,287.5C433.4,287.9 430.6,288.7 429.5,289.2C428.4,289.8 426.3,291.4 424.8,292.8C423.3,294.2 421.7,296.9 421.4,298.7C421.0,300.7 421.2,302.6 422.0,303.5C422.7,304.3 423.9,305.0 424.6,305.0zM541.6,305.0C544.6,305.0 546.1,304.2 549.6,300.6C552.0,298.2 554.0,295.7 554.0,295.1C554.0,294.5 553.3,293.7 552.5,293.4C551.7,293.0 549.4,293.1 547.5,293.4C545.6,293.8 542.7,295.4 541.0,297.1C539.3,298.8 538.0,301.2 538.0,302.6C538.0,304.7 538.5,305.0 541.6,305.0zM530.5,304.0C531.3,304.0 532.9,302.5 534.0,300.8C535.1,299.0 536.0,296.0 536.0,294.1C536.0,292.2 535.3,289.8 534.3,288.8C533.4,287.8 531.9,287.0 531.0,287.0C530.0,287.0 528.7,287.6 528.1,288.4C527.4,289.2 526.7,291.3 526.4,293.2C526.0,295.2 526.4,298.1 527.4,300.3C528.2,302.3 529.6,304.0 530.5,304.0zM270.3,299.0C271.1,299.0 272.4,298.2 273.3,297.2C274.2,296.2 275.8,293.4 276.9,290.9C278.0,288.5 279.2,283.4 279.6,279.7C280.2,274.2 280.0,273.0 278.8,273.0C278.0,273.0 276.2,274.2 274.8,275.8C273.4,277.3 271.1,280.4 269.7,282.7C268.2,285.0 266.8,287.9 266.5,289.3C266.1,290.6 266.5,293.4 267.4,295.4C268.2,297.4 269.5,299.0 270.3,299.0zM412.1,299.0C414.1,299.0 415.1,298.3 416.0,296.0C417.0,293.7 417.0,292.3 416.2,290.5C415.6,289.2 412.0,286.1 408.3,283.6C402.1,279.4 401.5,279.2 400.8,280.9C400.4,282.0 400.5,284.3 401.0,286.1C401.5,287.8 402.7,290.4 403.6,291.9C404.5,293.3 406.2,295.5 407.3,296.8C408.5,298.0 410.5,299.0 412.1,299.0zM544.7,288.9C544.8,288.9 546.0,288.5 547.2,287.9C548.7,287.3 551.2,283.7 553.8,278.7C556.1,274.2 558.0,269.7 558.0,268.7C558.0,267.1 557.8,267.1 555.1,268.4C553.5,269.3 549.7,272.2 546.7,275.0C543.6,277.8 540.8,281.0 540.5,282.1C540.1,283.1 540.1,284.9 540.5,285.9C540.8,287.0 541.9,288.1 542.8,288.3C543.7,288.6 544.6,288.8 544.7,288.9zM350.7,287.4C352.3,287.1 354.5,286.2 355.6,285.4C356.8,284.7 359.4,282.2 361.3,279.8C363.2,277.4 365.5,274.0 366.4,272.2C367.4,270.3 367.9,268.2 367.6,267.4C367.3,266.6 366.3,266.0 365.3,266.0C364.3,266.0 361.2,267.4 358.3,269.0C355.5,270.6 352.0,273.5 350.6,275.3C349.2,277.2 347.7,280.1 347.4,281.8C347.0,283.5 347.0,285.6 347.4,286.5C347.8,287.6 348.7,287.9 350.7,287.4zM425.9,285.0C426.9,285.0 430.0,283.5 432.6,281.8C435.7,279.7 438.7,276.5 440.8,273.0C442.5,270.0 443.9,267.1 443.7,266.5C443.5,266.0 442.2,265.6 440.9,265.8C439.6,265.9 436.6,266.8 434.3,267.6C432.0,268.4 428.7,270.7 427.0,272.6C424.6,275.4 424.0,277.0 424.0,280.5C424.0,284.2 424.3,285.0 425.9,285.0zM340.4,282.0C341.3,282.0 342.5,280.8 343.1,279.3C343.6,277.8 344.0,275.1 343.8,273.1C343.5,270.0 342.9,269.3 336.5,265.9C332.6,263.8 329.2,262.1 328.8,262.0C328.3,262.0 328.0,263.0 328.0,264.2C328.0,265.5 328.9,268.3 329.9,270.5C330.9,272.7 333.3,276.2 335.3,278.2C337.2,280.3 339.5,282.0 340.4,282.0zM414.1,280.0C415.0,280.0 416.2,279.4 416.7,278.8C417.3,278.1 418.0,276.4 418.3,275.1C418.6,273.8 418.5,271.8 418.0,270.5C417.5,269.2 414.5,266.3 411.4,264.1C406.5,260.6 405.5,260.2 404.7,261.5C404.3,262.4 404.2,264.5 404.5,266.3C404.9,268.1 405.9,270.9 406.7,272.5C407.6,274.1 409.2,276.5 410.3,277.8C411.4,279.0 413.1,280.0 414.1,280.0zM266.2,276.0C267.7,274.2 269.6,270.6 270.5,268.2C271.3,265.7 272.0,262.0 272.0,260.1C272.0,258.1 271.7,255.5 271.4,254.2C271.0,253.0 270.3,252.0 269.6,252.0C269.0,252.0 266.6,254.8 264.3,258.2C262.1,261.7 259.7,265.6 259.0,266.8C258.4,268.1 258.1,270.2 258.4,271.4C258.7,272.7 260.0,274.9 261.2,276.5C263.4,279.3 263.4,279.3 266.2,276.0zM354.8,266.0C355.2,266.0 358.3,263.7 361.6,261.0C365.0,258.2 368.2,254.7 368.8,253.2C369.4,251.7 370.2,249.5 370.5,248.2C371.0,246.6 370.7,246.0 369.4,246.0C368.5,246.0 365.4,247.4 362.5,249.0C359.5,250.7 355.8,253.6 354.1,255.6C352.4,257.5 351.0,259.9 351.0,261.0C351.0,262.0 351.7,263.6 352.6,264.4C353.4,265.3 354.5,266.0 354.8,266.0zM420.1,263.0C421.0,263.0 422.0,262.0 422.4,260.8C422.7,259.5 423.0,257.6 423.0,256.4C423.0,255.1 420.8,252.4 417.0,249.1C413.7,246.2 410.6,244.2 410.0,244.5C409.5,244.8 409.0,246.9 409.0,249.0C409.0,251.7 409.8,253.8 411.8,256.2C413.3,258.0 415.4,260.3 416.5,261.2C417.6,262.2 419.2,262.9 420.1,263.0zM431.4,262.4C432.6,262.1 435.1,260.6 436.9,259.1C438.8,257.6 441.9,254.2 443.7,251.6C445.5,248.9 447.0,246.2 447.0,245.4C447.0,244.6 446.0,244.0 444.8,244.0C443.5,244.0 440.7,244.9 438.5,245.9C436.3,246.9 433.0,249.3 431.2,251.4C429.0,253.9 428.0,256.1 428.0,258.4C428.0,260.2 428.3,262.0 428.7,262.3C429.1,262.7 430.3,262.7 431.4,262.4zM343.0,261.8C345.1,261.5 345.5,260.9 345.8,257.7C346.0,255.5 345.5,252.9 344.7,251.6C343.8,250.3 340.1,247.5 336.3,245.2C332.5,242.9 329.0,241.0 328.6,241.0C328.1,241.0 328.0,242.8 328.4,245.1C328.8,247.3 329.9,250.9 331.0,253.1C332.1,255.2 334.7,258.1 336.8,259.5C338.9,261.0 341.6,261.9 343.0,261.8zM255.3,256.0C256.1,256.0 257.4,255.2 258.3,254.2C259.1,253.3 261.0,250.0 262.4,247.0C264.0,243.6 265.0,239.7 265.0,236.8C265.0,234.2 264.6,230.9 264.0,229.5C263.5,228.1 262.6,227.1 262.0,227.5C261.5,227.8 258.8,231.3 256.0,235.2C252.4,240.4 251.0,243.3 251.0,245.7C251.0,247.6 251.7,250.6 252.4,252.5C253.2,254.4 254.5,256.0 255.3,256.0zM353.8,247.0C354.7,247.0 358.0,245.0 361.0,242.6C364.4,239.9 367.7,236.1 369.4,233.0C370.9,230.2 371.9,227.6 371.6,227.3C371.3,226.9 368.6,227.2 365.6,227.9C362.6,228.6 358.6,230.1 356.8,231.3C354.8,232.7 353.0,235.1 352.1,237.6C351.3,239.9 351.0,242.8 351.4,244.3C351.8,245.9 352.7,247.0 353.8,247.0zM422.5,246.0C423.1,246.0 424.1,245.5 424.8,244.8C425.5,244.1 426.0,242.5 426.0,241.2C426.0,239.9 424.4,236.6 422.5,234.0C420.6,231.4 418.3,228.7 417.4,227.9C416.1,226.8 415.7,226.9 414.9,228.1C414.4,228.9 414.0,230.8 414.0,232.3C414.0,233.8 414.6,236.6 415.4,238.4C416.2,240.2 417.8,242.7 419.1,243.9C420.3,245.0 421.9,246.0 422.5,246.0zM344.7,241.3C345.4,241.0 346.2,239.9 346.6,238.8C346.9,237.7 346.9,235.8 346.6,234.6C346.3,233.3 344.2,230.5 341.9,228.2C339.6,226.0 336.0,223.3 333.9,222.1C330.0,219.9 330.0,219.9 330.0,223.5C330.0,225.4 330.7,228.7 331.5,230.8C332.4,232.8 334.1,235.5 335.3,236.9C336.5,238.2 338.8,239.8 340.4,240.5C342.1,241.2 344.0,241.6 344.7,241.3zM434.7,241.5C436.2,241.2 439.1,239.5 441.2,237.8C443.3,236.1 446.0,233.0 447.0,230.9C448.1,228.8 449.0,226.2 449.0,225.0C449.0,223.3 448.6,223.1 446.2,223.6C444.7,224.0 442.0,224.9 440.3,225.7C438.0,226.6 436.3,228.5 434.5,232.0C433.1,234.7 432.0,238.1 432.0,239.6C432.0,241.9 432.3,242.1 434.7,241.5zM248.0,232.8C248.8,232.6 250.8,230.1 252.3,227.2C254.6,222.9 255.2,220.7 255.1,215.6C255.1,212.2 254.6,208.1 254.1,206.7C253.5,205.2 252.9,204.0 252.7,204.0C252.4,204.0 250.0,207.6 247.1,211.9C243.6,217.3 242.0,220.8 242.0,223.1C242.0,224.9 243.0,227.9 244.2,229.7C245.5,231.5 247.2,232.9 248.0,232.8zM427.7,229.0C428.3,229.0 429.6,228.0 430.4,226.8C431.3,225.6 432.0,223.7 432.0,222.7C432.0,221.7 430.7,219.5 429.1,217.9C427.5,216.3 425.5,215.0 424.6,215.0C423.8,215.0 422.6,215.9 422.0,217.0C421.2,218.4 421.2,220.2 422.0,223.0C422.6,225.2 423.8,227.4 424.8,227.9C425.7,228.5 427.0,229.0 427.7,229.0zM356.1,227.0C356.5,227.0 359.1,225.2 361.8,223.1C364.5,220.9 367.7,217.8 368.9,216.2C370.1,214.5 371.3,211.8 371.6,210.1C372.0,208.3 371.8,207.0 371.3,207.0C370.7,207.0 368.3,207.7 365.9,208.5C363.5,209.3 360.5,210.5 359.4,211.1C358.2,211.7 356.3,213.9 355.1,216.0C354.0,218.1 353.0,220.9 353.0,222.2C353.0,223.5 353.5,225.1 354.2,225.8C354.9,226.5 355.7,227.0 356.1,227.0zM344.4,221.0C345.6,221.0 347.1,220.5 347.8,219.8C348.5,219.1 349.0,217.5 349.0,216.2C349.0,214.7 347.1,211.5 344.1,208.1C341.4,205.0 337.9,201.7 336.2,200.8C333.6,199.2 333.1,199.2 332.6,200.5C332.3,201.4 332.5,204.4 333.1,207.2C333.9,210.8 335.4,213.5 338.2,216.6C340.6,219.2 343.1,221.0 344.4,221.0zM438.6,219.0C439.9,219.0 442.2,217.9 443.7,216.6C446.4,214.3 446.5,213.8 446.4,205.6C446.4,200.8 446.0,196.7 445.7,196.3C445.3,196.0 444.4,196.3 443.6,197.0C442.7,197.6 440.5,201.0 438.5,204.5C436.4,208.3 435.0,212.2 435.0,214.2C435.0,216.1 435.3,218.0 435.7,218.3C436.0,218.7 437.4,219.0 438.6,219.0zM240.0,207.0C241.6,207.0 242.8,205.6 244.7,201.4C246.7,197.0 247.1,194.9 246.6,191.4C246.3,189.0 245.4,185.4 244.5,183.4C243.0,179.9 242.9,179.8 241.1,181.4C240.1,182.3 237.8,185.8 236.0,189.1C232.9,194.9 232.9,195.3 234.3,198.3C235.1,200.1 236.3,202.7 236.9,204.2C237.6,206.0 238.7,207.0 240.0,207.0zM357.4,207.0C358.1,207.0 360.7,205.7 363.3,204.1C366.3,202.1 368.9,199.3 370.9,195.8C372.6,192.9 374.0,189.7 374.0,188.8C374.0,187.8 373.4,187.0 372.7,187.0C372.0,187.0 369.7,187.9 367.5,189.1C365.3,190.3 362.0,192.6 360.2,194.3C358.4,196.0 356.6,198.9 356.1,200.8C355.5,202.6 355.4,204.8 355.7,205.6C356.0,206.4 356.8,207.0 357.4,207.0zM347.0,202.0C348.0,202.0 349.6,201.3 350.5,200.4C351.5,199.3 352.0,197.5 351.8,195.2C351.5,192.1 350.7,191.0 345.5,187.3C342.2,184.9 338.7,182.5 337.6,181.9C335.8,180.9 335.8,181.1 336.2,186.3C336.6,191.0 337.3,192.6 340.9,196.9C343.3,199.7 346.0,202.0 347.0,202.0zM360.9,187.0C361.8,187.0 363.6,186.0 364.7,184.8C365.8,183.5 367.9,180.5 369.3,178.0C370.7,175.5 372.2,171.6 372.6,169.2C373.1,165.7 373.0,165.0 371.6,165.0C370.7,165.0 367.0,167.8 363.4,171.3C358.6,176.0 357.0,178.3 357.0,180.4C357.0,181.9 357.5,184.0 358.0,185.1C358.6,186.1 359.9,187.0 360.9,187.0zM349.3,182.7C349.9,182.5 351.1,181.3 351.7,179.9C352.4,178.6 353.0,176.1 353.0,174.3C353.0,171.9 351.9,170.1 348.5,166.6C346.1,164.1 343.9,162.0 343.6,162.0C343.4,162.0 342.8,164.5 342.5,167.5C342.1,170.5 342.0,174.0 342.4,175.3C342.7,176.6 344.1,178.9 345.5,180.4C346.9,181.9 348.6,183.0 349.3,182.7zM359.0,165.9C359.3,165.9 360.2,165.4 361.0,164.7C361.9,164.0 363.4,162.4 364.3,161.0C365.4,159.4 366.0,156.7 365.9,153.0C365.9,150.0 365.3,146.0 364.6,144.1C363.4,140.7 363.4,140.7 361.3,144.1C360.1,146.0 358.6,148.9 357.9,150.5C356.8,153.5 356.8,153.5 355.3,150.0C353.8,146.5 353.8,146.5 352.4,149.1C351.7,150.6 350.8,153.6 350.4,155.8C349.8,159.6 350.0,159.9 354.1,162.8C356.5,164.5 358.7,165.9 359.0,165.9zM215.9,164.0C216.4,164.0 217.6,163.0 218.5,161.8C219.4,160.5 220.8,157.2 221.6,154.3C223.1,149.1 223.1,149.1 219.4,141.1C217.4,136.6 215.4,133.0 215.0,133.0C214.6,133.0 213.1,136.0 211.7,139.8C210.2,143.5 209.0,147.6 209.0,148.8C209.0,150.0 209.5,151.8 210.0,152.8C210.6,153.7 211.9,156.6 213.0,159.2C214.0,161.9 215.4,164.0 215.9,164.0zM202.9,139.9C205.1,140.0 205.2,139.8 204.8,134.9C204.4,131.4 202.8,126.9 199.8,121.1C197.3,116.4 194.5,112.4 193.6,112.2C192.6,112.0 191.6,112.9 190.9,114.7C190.3,116.2 189.7,121.3 189.6,125.9C189.5,133.7 189.7,134.4 191.9,135.9C193.2,136.8 195.7,138.0 197.4,138.7C199.1,139.3 201.6,139.9 202.9,139.9z" />

</svg>