<?xml version="1.0" encoding="UTF-8" standalone="no"?>
<svg 
  version="1.1" 
  xmlns="http://www.w3.org/2000/svg" 
  xmlns:xlink="http://www.w3.org/1999/xlink" 
  xmlns:svg="http://www.w3.org/2000/svg"
  xmlns:rdf="http://www.w3.org/1999/02/22-rdf-syntax-ns#"
  xmlns:cc="http://creativecommons.org/ns#"
  xmlns:dc="http://purl.org/dc/elements/1.1/"
  viewBox="0 0 768 768"
  width="768"
  height="768"
>
<style>svg {background-color: white; }</style>"
<metadata id="metadata1">
Created by https://svgstud.io and licensed under CC-BY-SA 4.0 license. Please attribute https://svgstud.io
</metadata>
<metadata id="prompt">
wheat
</metadata>
<metadata id="version">
7
</metadata>
<metadata id="metadata2">
<rdf:RDF>
<cc:Work
    rdf:about="">
    <cc:license
    rdf:resource="http://creativecommons.org/licenses/by-sa/4.0/" />
    <dc:creator>
        <cc:Agent>
            <dc:title>https://svgstud.io</dc:title>
        </cc:Agent>
    </dc:creator>
</cc:Work>
<cc:License
    rdf:about="http://creativecommons.org/licenses/by-sa/4.0/">
    <cc:permits
    rdf:resource="http://creativecommons.org/ns#Reproduction" />
    <cc:permits
    rdf:resource="http://creativecommons.org/ns#Distribution" />
    <cc:requires
    rdf:resource="http://creativecommons.org/ns#Notice" />
    <cc:requires
    rdf:resource="http://creativecommons.org/ns#Attribution" />
    <cc:permits
    rdf:resource="http://creativecommons.org/ns#DerivativeWorks" />
    <cc:requires
    rdf:resource="http://creativecommons.org/ns#ShareAlike" />
</cc:License>
</rdf:RDF>
</metadata>
<metadata id="uid">
83f14399d1cc144d343e86b2293b024e13762f7bea13a2da161734fa52d32206
</metadata>
<path stroke="none" fill="black" fill-rule="evenodd" d="M422.5,715.5C397.2,715.6 374.2,715.6 371.5,715.4C368.8,715.1 359.5,714.3 351.0,713.5C342.5,712.7 335.2,711.6 334.7,711.1C334.2,710.6 335.6,709.1 338.2,707.6C340.7,706.2 342.9,705.0 343.3,705.0C343.6,705.0 346.0,704.1 348.6,702.9C352.3,701.4 353.1,700.7 352.0,700.0C351.2,699.4 342.6,699.0 333.0,699.0C323.4,699.1 311.2,699.7 306.0,700.4C298.9,701.4 292.4,701.6 280.5,700.9C271.7,700.5 261.4,699.7 257.5,699.1C253.7,698.6 246.7,697.9 242.0,697.5C237.3,697.2 231.1,696.4 228.2,695.9C225.4,695.3 223.0,694.5 223.0,694.0C223.0,693.5 223.9,692.6 225.0,692.0C226.1,691.4 232.7,689.6 239.7,687.9C249.5,685.5 255.0,684.7 263.0,684.6C268.8,684.6 277.3,684.9 281.9,685.3C288.6,686.0 290.1,685.9 289.8,684.8C289.5,684.1 286.2,682.6 282.3,681.3C278.5,680.1 271.9,678.7 267.6,678.1C263.3,677.5 254.7,677.0 248.3,677.0C240.9,677.0 233.4,677.7 227.2,678.9C221.8,680.0 212.8,681.5 207.0,682.4C201.2,683.2 192.4,684.2 187.5,684.6C179.3,685.3 178.6,685.2 179.8,683.7C180.6,682.8 184.9,679.9 189.3,677.3C197.5,672.5 197.5,672.5 189.5,671.8C185.1,671.4 173.1,670.7 162.8,670.1C152.6,669.6 143.3,668.7 142.3,668.2C140.8,667.3 142.2,666.3 151.3,662.1C157.3,659.3 164.4,656.4 167.3,655.5C170.1,654.7 173.7,653.4 175.2,652.7C176.7,652.1 178.0,651.2 178.0,650.8C178.0,650.5 176.3,649.6 174.3,648.9C172.0,648.2 167.9,647.9 162.9,648.3C158.6,648.7 154.9,648.6 154.6,648.1C154.3,647.7 155.4,646.6 156.9,645.7C158.5,644.8 162.7,643.4 166.2,642.5C171.3,641.4 174.4,641.3 181.2,642.0C185.9,642.6 191.7,643.7 194.0,644.5C196.4,645.3 198.5,645.8 198.8,645.6C199.0,645.3 197.8,643.3 196.1,641.1C194.4,638.9 188.8,633.4 183.7,628.7C178.7,624.1 170.4,616.8 165.5,612.5C160.6,608.3 151.9,601.7 146.3,598.0C140.7,594.2 132.4,589.7 127.8,587.8C123.3,586.0 117.8,583.6 115.6,582.5C113.4,581.4 111.4,579.9 111.2,579.2C110.9,578.3 112.5,578.0 117.0,578.0C120.9,578.0 125.9,578.9 130.8,580.6C135.0,582.0 142.1,585.1 146.5,587.4C150.9,589.8 159.9,594.8 166.5,598.5C173.1,602.2 184.4,609.0 191.6,613.6C198.8,618.2 205.0,622.0 205.4,622.0C205.8,622.0 204.2,619.6 202.0,616.7C199.8,613.7 195.9,609.5 193.2,607.3C190.6,605.1 185.8,601.6 182.5,599.3C179.2,597.1 173.6,593.7 170.0,591.7C166.4,589.7 162.4,587.1 161.0,585.9C158.5,583.9 158.5,583.9 162.0,584.6C163.9,584.9 169.7,586.7 174.8,588.5C179.9,590.4 187.3,593.9 191.3,596.3C195.3,598.8 201.7,604.2 205.5,608.2C209.3,612.3 215.8,619.4 219.9,624.0C223.9,628.6 229.5,634.3 232.4,636.7C235.2,639.1 237.6,640.6 237.8,640.1C238.0,639.6 237.6,638.1 236.9,636.8C236.3,635.5 232.3,629.4 228.2,623.2C224.1,617.0 220.9,611.8 221.2,611.5C221.4,611.3 225.2,612.9 229.6,615.1C233.9,617.3 239.4,620.3 241.8,621.6C244.1,623.0 246.0,623.8 246.0,623.4C246.0,623.1 244.4,620.6 242.5,618.0C240.5,615.3 234.4,608.8 228.9,603.6C223.4,598.3 214.1,590.3 208.3,585.8C202.5,581.2 193.2,573.8 187.7,569.2C182.1,564.6 175.9,559.7 174.0,558.2C172.1,556.6 166.2,552.4 160.9,548.8C155.7,545.2 150.8,541.4 150.1,540.6C149.3,539.7 149.0,538.7 149.4,538.3C149.7,537.9 153.1,538.7 156.8,540.0C160.5,541.3 165.8,543.4 168.5,544.8C171.2,546.1 178.4,550.6 184.5,554.8C190.6,558.9 199.6,565.5 204.5,569.5C209.4,573.5 219.4,582.5 226.6,589.6C233.8,596.7 243.0,606.3 247.1,611.0C251.2,615.7 257.9,623.5 262.0,628.4C266.1,633.3 271.7,639.8 274.5,642.7C277.2,645.7 280.4,648.7 281.7,649.5C283.8,650.9 283.8,650.9 283.0,648.0C282.5,646.4 279.6,640.1 276.5,634.1C273.3,628.0 267.6,618.9 263.7,613.8C259.8,608.7 254.7,602.3 252.4,599.6C250.0,596.8 248.2,594.4 248.4,594.2C248.6,594.0 250.1,594.5 251.7,595.3C253.2,596.1 257.2,598.9 260.5,601.4C263.8,604.0 270.5,610.4 275.3,615.8C280.2,621.1 286.4,629.3 289.2,634.0C292.1,638.7 297.0,646.8 300.3,652.0C303.6,657.2 307.9,663.2 309.9,665.3C311.9,667.4 315.0,670.0 316.8,671.2C318.6,672.3 320.4,673.0 320.7,672.7C321.0,672.4 315.7,661.9 309.0,649.5C302.3,637.1 297.0,626.7 297.2,626.5C297.4,626.2 301.7,630.2 306.6,635.3C311.6,640.3 316.9,646.1 318.4,648.0C321.1,651.3 321.2,651.4 320.6,648.8C320.3,647.4 319.7,645.5 319.4,644.6C319.1,643.7 319.2,643.0 319.8,643.0C320.4,643.0 322.9,645.3 325.4,648.1C329.9,653.1 330.0,653.2 330.0,650.4C330.0,648.8 328.9,644.9 327.6,641.8C326.3,638.6 322.6,632.6 319.4,628.4C316.2,624.2 310.0,617.4 305.6,613.3C301.2,609.2 294.5,603.7 290.6,601.0C286.7,598.4 280.2,594.6 276.1,592.5C272.0,590.5 260.8,586.1 251.2,582.9C240.0,579.2 231.4,575.6 227.3,573.0C223.8,570.8 217.9,566.6 214.2,563.7C210.5,560.7 204.2,556.4 200.3,554.1C196.3,551.8 191.8,548.9 190.3,547.6C187.6,545.3 187.6,545.3 193.0,545.8C196.0,546.0 202.6,547.5 207.5,549.0C212.4,550.5 218.0,552.1 219.8,552.5C221.8,552.9 223.0,552.8 223.0,552.1C223.0,551.6 222.6,550.9 222.1,550.5C221.5,550.2 217.2,544.2 212.4,537.2C207.6,530.2 200.7,521.1 197.1,517.0C193.5,512.9 186.1,505.1 180.8,499.6C175.4,494.1 171.0,489.3 171.0,488.8C171.0,488.4 171.6,488.0 172.2,488.0C172.9,488.0 176.2,489.5 179.5,491.3C182.8,493.1 190.9,498.3 197.5,503.0C204.9,508.2 213.7,515.6 220.5,522.5C226.6,528.5 233.0,536.0 234.8,539.0C236.7,542.0 240.4,548.3 243.2,553.0C245.9,557.7 250.2,564.2 252.7,567.5C256.7,572.8 257.2,573.1 256.7,570.5C256.4,568.9 255.4,564.6 254.6,561.0C253.1,554.5 253.1,554.5 256.3,558.2C258.1,560.2 262.0,565.9 265.0,571.0C268.0,576.0 271.6,581.0 273.0,582.0C274.4,583.0 277.2,584.5 279.4,585.4C283.3,587.0 283.3,587.0 282.7,584.0C282.3,582.4 278.9,575.3 274.9,568.2C271.0,561.2 264.5,551.0 260.5,545.6C256.5,540.2 247.2,529.5 239.9,521.8C232.5,514.1 226.2,507.3 225.8,506.7C225.4,506.1 225.3,505.3 225.6,504.8C225.9,504.4 227.3,504.6 228.8,505.2C230.3,505.9 234.7,508.4 238.5,510.8C243.2,513.8 251.6,521.3 264.0,533.9C276.6,546.5 284.5,555.4 288.6,561.5C292.0,566.5 296.8,574.2 299.4,578.7C302.0,583.3 304.6,587.3 305.2,587.6C306.0,588.1 306.1,586.7 305.7,583.0C305.3,580.1 303.9,573.7 302.4,568.8C301.0,563.9 300.0,559.7 300.2,559.5C300.4,559.2 302.3,561.3 304.4,564.0C306.5,566.8 308.6,569.0 309.1,569.0C309.6,569.0 310.0,568.3 310.0,567.5C310.0,566.7 308.6,561.7 306.9,556.4C305.2,551.1 301.4,540.6 298.5,533.1C295.6,525.6 289.8,511.6 285.7,501.9C281.6,492.2 277.0,482.0 275.7,479.3C274.3,476.6 272.6,473.9 271.8,473.4C271.1,472.8 266.5,471.8 261.5,471.2C256.0,470.5 250.6,469.1 247.4,467.5C244.6,466.1 240.4,463.0 238.2,460.6C235.9,458.2 233.0,453.9 231.6,451.1C230.2,448.3 229.0,445.4 229.0,444.5C229.0,443.5 231.9,445.4 236.8,449.7C241.0,453.5 245.9,457.1 247.5,457.8C249.2,458.4 253.4,459.6 257.0,460.4C260.6,461.3 263.8,461.6 264.2,461.2C264.5,460.8 263.1,457.6 260.9,454.0C258.8,450.4 257.0,447.0 257.0,446.4C257.0,445.8 256.4,444.7 255.6,444.1C254.8,443.4 250.0,441.8 244.8,440.4C239.7,439.1 232.7,436.8 229.3,435.4C225.0,433.6 222.0,431.5 219.7,428.7C217.8,426.4 214.8,421.6 213.1,418.1C211.3,414.7 210.1,411.6 210.4,411.3C210.6,411.0 214.3,413.8 218.5,417.5C222.8,421.2 228.7,425.3 231.7,426.6C234.8,428.0 239.9,429.7 243.1,430.4C248.7,431.7 249.0,431.7 249.0,430.0C249.0,429.0 246.3,424.1 243.0,419.2C239.6,414.3 236.1,409.5 235.2,408.6C234.2,407.8 228.9,405.9 223.5,404.4C218.0,403.0 210.7,400.3 207.3,398.4C202.7,395.9 200.3,393.7 198.5,390.6C197.1,388.2 195.3,384.2 194.4,381.6C193.5,379.0 193.0,376.6 193.4,376.3C193.7,375.9 196.6,378.4 199.7,381.8C203.4,385.7 207.5,388.8 211.0,390.4C214.4,392.0 218.3,393.0 221.2,393.0C224.4,393.0 226.0,392.6 226.0,391.7C226.0,391.1 223.1,386.1 219.5,380.7C213.3,371.5 212.8,371.0 209.5,371.0C207.5,371.0 203.1,370.1 199.7,368.9C196.3,367.8 191.4,365.7 188.8,364.3C185.0,362.2 183.7,360.8 181.7,356.1C180.3,353.0 178.8,349.3 178.5,347.8C178.1,346.2 178.2,345.0 178.7,345.0C179.1,345.0 181.5,347.1 184.0,349.6C186.4,352.1 190.1,355.0 192.2,356.1C194.3,357.2 198.8,358.7 202.1,359.6C206.6,360.8 208.5,360.9 209.4,360.0C210.2,359.2 209.7,357.5 207.5,353.4C205.8,350.3 203.2,346.2 201.5,344.3C199.0,341.5 197.3,340.6 191.5,339.3C187.7,338.5 181.8,336.5 178.4,334.9C175.1,333.4 171.6,331.2 170.6,330.1C169.6,329.0 167.7,325.1 166.4,321.4C165.0,317.7 164.1,314.5 164.4,314.3C164.7,314.0 167.2,316.3 170.0,319.4C174.2,323.8 176.4,325.3 181.6,327.0C185.1,328.2 189.0,329.0 190.2,328.8C191.8,328.6 192.4,327.9 192.2,326.7C192.0,325.6 190.5,322.5 188.8,319.7C187.1,316.8 185.0,313.7 184.2,312.8C183.4,311.9 179.8,310.1 176.1,309.0C172.5,307.8 168.0,305.9 166.2,304.8C164.4,303.7 162.0,301.0 160.9,298.9C159.8,296.7 158.5,291.7 158.0,287.8C157.5,283.8 157.3,280.4 157.5,280.2C157.7,280.0 159.5,283.0 161.5,286.8C163.5,290.6 166.1,294.7 167.3,295.8C168.5,296.9 172.0,298.5 175.2,299.4C178.3,300.3 181.1,301.0 181.4,301.0C181.7,301.0 182.0,300.2 182.0,299.2C182.0,298.3 179.8,293.8 177.1,289.4C174.4,284.9 169.9,278.3 167.1,274.7C164.3,271.2 162.0,267.5 162.0,266.6C162.0,265.7 162.5,265.0 163.1,265.0C163.7,265.0 166.0,266.3 168.3,267.9C170.6,269.5 176.6,275.1 181.7,280.3C186.8,285.6 191.2,291.1 191.6,292.6C192.0,294.2 191.8,297.9 191.1,301.0C190.4,304.0 189.6,307.6 189.3,309.0C189.0,310.8 189.9,313.2 192.5,317.0C194.6,320.0 197.1,323.4 198.2,324.5C200.1,326.5 200.1,326.5 201.6,324.6C202.4,323.5 203.0,320.9 203.0,318.8C203.0,316.8 201.9,311.6 200.5,307.4C199.1,303.2 198.0,298.8 198.0,297.6C198.1,295.7 198.4,295.9 201.1,299.0C202.8,300.9 206.2,305.4 208.6,309.0C211.0,312.6 213.0,316.3 213.0,317.3C213.0,318.3 211.6,322.3 209.9,326.2C208.2,330.0 206.6,334.7 206.3,336.5C205.9,339.3 206.5,340.9 210.5,346.4C213.1,350.0 215.5,353.0 216.0,353.0C216.4,353.0 217.3,352.3 218.0,351.5C218.6,350.7 219.8,348.0 220.6,345.5C221.7,341.5 221.7,340.5 220.6,338.7C219.8,337.5 218.2,333.4 217.1,329.6C215.9,325.9 215.0,322.0 215.0,321.1C215.1,320.0 216.2,320.8 218.7,323.5C220.7,325.7 224.0,330.1 226.1,333.3C228.2,336.5 230.1,340.4 230.5,342.0C231.0,344.2 230.2,346.5 226.4,352.9C223.5,357.9 221.6,362.6 221.3,365.3C220.9,368.3 221.3,370.7 222.5,373.0C223.5,374.9 225.9,378.6 227.8,381.2C229.8,383.8 231.8,386.0 232.2,386.0C232.6,386.0 233.0,383.3 233.0,380.0C233.0,375.3 233.3,374.0 234.5,374.0C235.4,374.0 236.6,372.9 237.2,371.5C238.2,369.4 238.0,367.7 236.2,362.2C235.1,358.5 233.8,353.8 233.4,351.6C232.9,348.6 233.0,347.8 234.1,348.2C234.9,348.4 237.8,352.0 240.7,356.1C243.6,360.2 246.2,364.9 246.6,366.7C247.0,369.0 246.5,371.4 244.5,375.7C243.0,378.9 240.9,383.9 239.9,386.9C238.9,389.9 238.0,393.2 238.0,394.3C238.0,395.4 239.6,398.9 241.6,402.2C244.4,406.7 245.5,407.8 246.5,407.0C247.2,406.4 249.2,402.4 250.9,398.0C254.1,390.0 254.1,390.0 252.0,383.7C250.8,380.2 250.0,376.0 250.2,374.5C250.5,371.9 250.9,372.2 255.8,379.5C258.7,383.8 261.5,389.1 262.2,391.1C263.3,394.8 263.1,395.3 257.1,405.9C253.8,411.9 251.0,417.3 251.0,417.7C251.0,418.2 253.3,422.3 256.1,426.9C260.3,433.7 261.5,435.0 262.5,433.9C263.1,433.1 264.6,430.1 265.8,427.1C267.0,424.2 268.0,420.6 268.0,419.1C268.0,417.7 267.3,414.7 266.5,412.5C265.7,410.3 265.1,406.3 265.0,403.6C265.0,400.5 265.4,399.0 265.9,399.6C266.4,400.1 268.7,403.8 270.9,407.7C273.2,411.7 276.2,418.0 277.6,421.7C279.0,425.5 281.3,431.5 282.6,435.3C284.0,439.1 285.1,444.3 285.1,447.4C285.2,450.4 284.7,454.6 284.0,456.7C283.3,458.8 281.5,462.2 279.9,464.2C277.0,467.8 277.0,467.8 283.5,480.2C287.0,487.0 291.5,496.3 293.5,501.0C295.5,505.7 300.0,517.1 303.5,526.5C306.9,535.9 310.9,547.1 312.3,551.6C313.7,556.0 316.3,565.7 318.0,573.1C319.8,580.5 323.0,593.2 325.3,601.5C327.5,609.8 330.8,622.6 332.6,630.0C334.5,637.4 337.3,648.5 339.0,654.5C340.6,660.5 343.7,668.9 345.8,673.0C347.9,677.4 350.2,680.6 351.2,680.8C352.6,681.1 353.0,680.4 353.0,677.8C353.0,676.0 351.9,668.6 350.5,661.5C349.1,654.4 345.2,637.9 341.9,625.0C338.5,612.1 335.0,598.4 334.0,594.5C332.9,590.6 331.2,584.4 330.0,580.5C328.9,576.6 327.1,569.1 326.0,563.6C324.9,558.2 324.0,553.3 324.0,552.7C324.0,552.0 324.3,552.0 324.9,552.6C325.4,553.1 327.2,556.9 328.8,561.1C330.5,565.2 334.6,576.7 338.0,586.6C341.3,596.4 345.9,610.5 348.1,617.9C350.3,625.3 353.8,634.5 355.8,638.4C359.5,645.5 359.5,645.5 359.8,637.8C360.0,632.2 359.3,626.1 357.1,615.8C355.5,607.9 353.0,597.5 351.5,592.5C350.1,587.5 347.2,578.8 345.0,573.0C342.9,567.2 338.1,555.8 334.5,547.5C330.8,539.2 326.5,529.4 324.9,525.7C323.3,521.9 321.4,516.4 320.6,513.4C319.8,510.4 319.6,508.0 320.1,508.0C320.5,508.0 322.7,510.4 324.9,513.2C327.1,516.1 331.7,523.9 335.3,530.5C338.9,537.1 343.0,544.5 344.4,547.0C347.0,551.5 347.0,551.5 347.0,548.0C347.0,546.1 346.3,538.2 345.5,530.5C344.7,522.8 344.1,512.9 344.1,508.5C344.1,501.0 344.2,500.7 345.4,503.6C346.1,505.2 347.7,510.6 348.8,515.6C350.0,520.5 351.9,530.4 353.0,537.5C354.2,544.6 356.2,556.6 357.6,564.0C359.0,571.4 360.8,581.8 361.5,587.0C362.3,592.2 364.1,603.9 365.5,613.0C366.9,622.1 369.1,635.1 370.5,642.0C371.9,648.9 374.0,658.0 375.4,662.2C376.7,666.4 379.0,672.0 380.5,674.5C381.9,677.0 383.7,678.9 384.3,678.7C385.1,678.4 385.4,675.8 385.2,670.4C385.1,666.1 384.5,658.2 383.9,653.0C383.3,647.8 380.9,631.6 378.4,617.0C376.0,602.4 372.2,581.0 370.0,569.5C367.9,558.0 364.3,539.8 362.1,529.2C359.9,518.6 356.9,503.0 355.5,494.7C354.1,486.3 352.7,474.5 352.3,468.4C351.9,460.8 352.1,457.1 352.8,456.6C353.4,456.2 354.3,456.8 354.9,457.8C355.4,458.8 357.0,465.7 358.4,473.1C359.8,480.5 361.6,491.1 362.5,496.7C363.3,502.4 365.2,513.0 366.6,520.2C368.0,527.5 370.3,536.1 371.8,539.4C374.2,544.8 374.4,545.0 375.3,542.9C375.8,541.6 375.9,536.2 375.5,531.0C375.1,525.8 374.2,516.3 373.5,510.0C372.7,503.7 370.7,487.3 369.1,473.5C367.4,459.8 364.4,439.3 362.5,428.0C360.5,416.7 358.3,403.9 357.5,399.5C356.7,395.1 354.5,383.6 352.6,374.0C350.6,364.4 348.4,353.4 347.6,349.5C346.7,345.6 345.4,338.7 344.6,334.0C343.7,329.3 341.0,314.2 338.5,300.5C336.0,286.8 332.8,270.6 331.4,264.5C330.1,258.4 328.3,250.1 327.5,246.0C326.7,241.9 324.3,230.9 322.1,221.7C320.0,212.4 318.0,204.7 317.8,204.4C317.5,204.2 314.9,203.6 312.0,203.0C309.1,202.4 304.7,200.8 302.3,199.5C300.0,198.1 296.9,195.3 295.5,193.2C294.1,191.2 292.3,187.4 291.4,184.7C290.5,182.0 290.1,179.6 290.4,179.2C290.8,178.9 293.2,181.0 295.7,183.9C298.3,186.9 302.2,190.1 304.4,191.1C306.7,192.1 310.0,193.0 311.9,193.0C315.0,193.0 315.2,192.8 314.7,190.3C314.4,188.7 313.2,185.4 312.1,182.9C310.0,178.2 310.0,178.2 301.3,176.1C296.4,174.8 291.1,173.0 289.3,171.9C287.2,170.6 285.7,168.5 284.6,165.3C283.7,162.7 283.0,159.6 283.0,158.2C283.0,156.0 283.3,156.1 287.2,160.2C289.6,162.6 293.3,165.4 295.4,166.4C297.5,167.4 301.1,168.5 303.3,168.8C307.3,169.3 307.3,169.3 306.6,165.4C306.2,163.3 305.3,160.4 304.7,159.1C304.0,157.7 302.4,156.3 301.0,155.9C299.6,155.5 295.3,154.2 291.3,153.0C287.4,151.8 283.4,150.0 282.5,149.0C281.7,148.1 280.7,145.0 280.3,142.1C279.9,138.3 280.0,137.0 281.0,137.0C281.7,137.0 283.8,138.8 285.7,140.9C287.8,143.4 290.7,145.4 293.7,146.4C296.2,147.3 299.0,148.0 299.7,148.0C300.5,148.0 301.0,146.9 301.0,145.2C301.0,143.7 300.1,140.7 299.1,138.4C297.4,134.6 296.6,134.1 289.5,131.5C284.6,129.7 281.3,127.8 280.3,126.3C279.4,125.0 278.5,121.5 278.2,118.7C277.7,113.5 277.7,113.5 280.0,116.3C281.2,117.8 284.5,120.4 287.4,122.0C290.2,123.7 293.5,125.0 294.6,125.0C296.0,125.0 297.0,124.2 297.4,122.8C297.7,121.5 298.0,118.4 298.0,115.9C298.0,113.4 297.0,108.5 295.8,105.0C294.6,101.4 292.2,96.1 290.3,93.0C288.5,90.0 287.0,86.5 287.0,85.2C287.0,84.0 287.6,83.0 288.3,83.0C289.0,83.0 291.0,84.5 292.7,86.2C294.4,88.0 299.0,94.5 303.0,100.5C307.0,106.5 311.1,112.7 312.1,114.3C313.2,115.8 317.2,123.6 321.1,131.8C325.0,140.0 329.8,152.2 332.1,159.6C334.8,168.5 336.0,174.5 336.0,178.6C336.0,182.8 335.3,186.1 333.4,190.0C332.0,193.0 329.3,197.1 327.4,199.1C324.0,202.6 324.0,202.7 325.3,206.6C326.1,208.7 328.2,217.5 330.0,226.0C331.8,234.5 334.3,246.4 335.7,252.5C337.0,258.6 338.9,267.8 340.0,273.0C341.0,278.2 343.5,290.6 345.4,300.5C347.3,310.4 349.1,320.8 349.5,323.5C349.8,326.2 351.7,336.1 353.6,345.5C355.5,354.9 358.4,369.7 360.1,378.5C361.9,387.3 364.1,399.4 365.1,405.5C366.0,411.6 367.4,420.1 368.0,424.5C368.7,428.9 369.8,435.2 370.6,438.5C371.3,441.8 373.2,454.2 374.9,466.0C376.6,477.8 378.9,496.5 380.0,507.4C381.1,518.4 382.7,538.4 383.5,551.9C384.5,567.6 385.7,579.7 387.0,585.3C388.0,590.1 389.2,594.5 389.5,595.0C389.9,595.6 390.5,596.0 390.9,596.0C391.4,596.0 392.3,594.0 392.9,591.5C393.5,589.1 394.5,574.5 395.0,559.3C395.8,540.1 395.8,518.5 395.0,489.5C394.5,466.4 393.3,429.7 392.5,408.0C391.6,386.3 390.3,358.4 389.5,346.0C388.7,333.6 387.5,313.2 386.8,300.6C385.6,277.7 385.6,277.7 380.9,274.6C378.3,272.9 375.2,270.1 374.0,268.2C372.7,266.4 371.1,262.6 370.4,259.8C369.6,257.0 369.1,250.4 369.1,245.1C369.1,239.8 369.4,233.8 369.7,231.8C369.9,229.7 370.6,228.0 371.0,228.0C371.5,228.0 372.4,229.6 373.0,231.5C373.6,233.4 375.5,236.1 377.1,237.5C378.8,238.9 380.8,240.0 381.6,240.0C382.4,240.0 383.5,238.9 384.0,237.5C384.5,236.1 384.7,233.5 384.3,231.8C383.9,229.5 381.8,226.7 377.2,222.4C370.7,216.2 370.7,216.2 371.4,210.9C371.8,208.0 372.4,205.2 372.7,204.7C373.0,204.2 374.4,206.2 375.9,209.1C378.3,214.0 378.8,214.5 381.8,214.5C384.8,214.5 385.1,214.8 385.7,218.2C386.0,220.3 386.7,222.0 387.2,222.0C387.7,222.0 389.5,221.0 391.1,219.8C392.8,218.5 395.2,215.7 396.5,213.5C397.8,211.3 398.9,208.2 399.0,206.5C399.1,204.8 399.2,202.9 399.1,202.2C399.0,201.6 398.6,201.0 398.2,201.0C397.7,201.0 395.0,203.0 392.1,205.5C389.2,208.0 386.4,210.0 385.9,210.0C385.4,210.0 385.0,208.7 385.0,207.1C385.0,205.1 383.7,202.6 381.0,199.5C378.3,196.4 377.0,193.9 377.0,192.0C377.0,190.4 377.5,187.9 378.0,186.4C379.1,183.7 379.1,183.7 382.0,187.1C383.6,189.0 385.2,191.6 385.6,193.0C385.9,194.4 386.4,196.3 386.7,197.2C387.1,198.8 387.4,198.8 389.9,197.5C391.4,196.8 393.5,194.9 394.4,193.4C395.8,191.4 396.0,189.7 395.5,186.3C395.2,183.9 394.3,180.2 393.6,178.2C392.3,174.5 392.3,174.5 389.2,180.0C386.6,184.6 386.0,185.1 385.3,183.5C384.9,182.4 384.6,180.1 384.6,178.3C384.6,176.2 386.1,173.0 389.0,168.6C391.5,165.0 393.8,162.0 394.2,162.0C394.6,162.0 396.7,167.7 399.0,174.6C402.7,186.1 403.3,189.0 404.7,206.4C405.5,216.9 406.5,232.8 406.7,241.6C407.2,257.2 407.1,257.9 404.7,262.6C403.3,265.3 399.9,269.7 397.0,272.4C391.8,277.3 391.8,277.3 392.9,295.4C393.5,305.4 394.7,325.0 395.5,339.0C396.3,353.0 397.7,383.4 398.6,406.5C399.6,432.7 400.5,491.0 401.1,561.5C401.5,623.6 402.2,676.7 402.7,679.5C403.3,683.1 404.0,684.6 405.3,684.8C406.3,685.0 408.2,684.9 409.5,684.6C411.8,684.0 411.8,683.8 412.4,664.8C412.7,654.2 413.2,625.0 413.5,600.0C413.8,575.0 414.7,529.3 415.6,498.5C416.4,467.7 417.3,415.9 417.4,383.5C417.7,329.0 417.9,322.4 420.3,297.5C421.8,282.6 423.4,266.2 424.0,261.0C424.5,255.8 425.9,246.3 427.0,240.0C429.0,228.5 429.0,228.5 426.1,226.3C424.5,225.0 421.8,221.9 420.1,219.3C417.4,215.3 417.0,213.8 417.1,208.6C417.2,205.2 417.5,201.2 417.9,199.5C418.6,196.6 418.7,196.7 419.9,201.7C420.6,204.5 422.5,208.9 424.1,211.4C425.9,214.3 427.7,216.0 428.9,216.0C430.5,216.0 431.3,214.8 432.5,210.8C433.3,208.0 434.0,205.3 434.0,204.9C434.0,204.4 430.9,201.7 427.0,198.9C423.2,196.0 419.8,192.8 419.4,191.7C419.1,190.7 419.1,187.7 419.5,185.2C419.8,182.6 420.6,178.7 421.2,176.5C422.2,172.5 422.2,172.5 424.5,180.3C425.7,184.7 427.6,189.4 428.7,190.8C429.7,192.2 431.1,193.5 431.8,193.8C432.4,194.0 434.0,191.9 435.4,189.1C436.9,186.3 438.0,183.2 438.0,182.2C438.0,181.1 435.9,178.3 433.2,175.9C430.6,173.5 427.7,170.5 426.8,169.1C425.8,167.6 425.0,164.9 425.0,162.9C425.0,161.0 425.6,158.5 426.4,157.5C427.7,155.7 428.0,155.9 430.3,161.0C431.6,164.0 433.6,167.3 434.8,168.3C436.8,170.1 436.9,170.1 438.3,167.3C439.1,165.8 440.4,162.6 441.1,160.2C442.3,155.9 442.3,155.9 438.3,151.7C436.1,149.4 433.7,146.5 433.1,145.2C432.2,143.6 432.2,141.9 433.0,139.0C433.6,136.8 434.5,135.0 435.0,135.0C435.5,135.0 437.1,137.2 438.5,139.9C439.9,142.7 441.9,145.2 443.1,145.5C444.2,145.9 445.7,145.7 446.2,145.2C446.8,144.6 447.5,142.1 447.8,139.5C448.3,134.9 448.2,134.6 443.6,130.5C439.9,127.0 439.0,125.6 439.0,122.9C439.0,121.0 439.3,118.5 439.6,117.2C440.0,116.0 440.6,115.0 441.1,115.0C441.6,115.0 443.1,117.2 444.5,119.9C445.8,122.6 447.5,125.2 448.1,125.6C448.8,126.0 449.9,125.5 450.7,124.5C451.4,123.4 452.0,121.1 452.0,119.2C452.0,117.3 451.2,113.6 450.3,110.9C449.3,108.3 448.8,105.8 449.2,105.5C449.5,105.1 451.2,105.6 453.0,106.5C454.8,107.4 456.5,107.9 456.8,107.5C457.2,107.2 456.7,104.7 455.7,102.1C454.8,99.4 454.0,96.5 454.0,95.7C454.0,94.8 454.4,93.8 455.0,93.5C455.5,93.2 456.8,93.4 457.9,93.9C459.2,94.7 460.1,94.6 460.8,93.7C461.4,93.1 462.6,89.9 463.5,86.7C464.7,82.7 466.9,78.7 471.0,73.7C474.2,69.7 478.0,65.8 479.4,65.1C480.8,64.3 482.3,64.0 482.6,64.3C483.0,64.7 483.5,70.4 483.8,77.0C484.1,84.2 483.8,92.1 483.0,96.7C482.4,101.0 479.8,113.3 477.3,124.0C474.9,134.7 472.4,146.0 471.8,149.0C471.3,152.0 469.3,160.8 467.5,168.5C465.6,176.2 463.4,187.0 462.5,192.5C461.5,198.0 459.9,205.1 458.8,208.2C457.7,211.4 455.5,215.9 454.1,218.2C452.6,220.6 449.5,223.8 447.2,225.3C445.0,226.9 441.3,228.4 439.1,228.7C436.9,229.0 434.6,229.8 434.1,230.4C433.6,231.0 432.7,236.4 432.1,242.5C431.5,248.6 430.1,263.6 429.0,276.0C428.0,288.4 426.4,309.5 425.6,323.0C424.5,341.4 424.2,373.6 424.1,451.5C424.1,508.7 424.4,556.1 424.9,556.8C425.4,557.7 427.0,554.4 429.5,547.3C431.6,541.4 436.4,530.4 440.3,523.0C447.4,509.5 447.4,509.5 447.6,498.5C447.7,491.8 448.4,485.0 449.4,481.1C450.4,477.5 452.3,472.6 453.6,470.1C456.1,465.5 456.1,465.5 455.5,480.0C454.9,494.5 454.9,494.5 456.9,491.5C458.0,489.9 460.3,486.9 462.0,485.0C465.1,481.5 465.1,481.5 464.5,486.3C464.1,489.0 462.3,495.7 460.3,501.3C458.4,506.9 455.1,516.7 453.0,523.0C451.0,529.3 447.8,540.1 446.0,547.0C444.2,553.9 441.0,565.6 438.9,573.0C436.8,580.4 433.9,591.6 432.5,597.9C431.1,604.1 429.3,613.8 428.5,619.4C427.8,624.9 426.9,634.7 426.5,641.0C426.2,647.6 426.3,653.1 426.8,653.9C427.4,654.6 428.3,654.9 428.9,654.6C429.5,654.2 430.9,652.2 431.9,650.2C432.9,648.2 434.9,641.8 436.3,636.0C437.6,630.2 440.2,619.0 442.0,611.0C443.8,603.0 446.8,590.6 448.7,583.5C450.6,576.4 453.0,567.8 454.1,564.5C455.1,561.2 457.7,552.0 459.9,544.0C462.0,536.0 464.8,526.1 466.0,522.0C467.2,517.9 472.4,501.4 477.6,485.5C482.8,469.6 489.0,451.1 491.5,444.5C494.0,437.9 497.4,428.8 499.1,424.2C500.7,419.6 505.7,407.7 510.2,397.7C514.6,387.7 519.7,376.1 521.5,372.0C523.3,367.9 532.0,350.0 540.8,332.3C549.6,314.6 559.7,295.3 563.3,289.3C566.8,283.4 571.4,275.8 573.5,272.5C575.6,269.2 578.8,264.8 580.7,262.7C582.5,260.7 584.0,258.6 584.0,258.0C584.0,257.5 582.7,255.6 581.0,253.7C579.4,251.8 577.6,249.1 577.1,247.6C576.3,245.8 576.4,243.3 577.1,239.7C577.7,236.9 579.1,232.9 580.1,231.0C581.1,229.1 582.8,226.4 583.9,225.1C585.8,222.6 585.8,222.6 585.3,229.2C585.0,232.9 585.0,237.0 585.4,238.4C585.7,239.8 586.4,241.0 586.8,241.0C587.3,241.0 589.5,238.7 591.8,235.9C595.9,230.8 595.9,230.8 594.0,225.9C592.9,223.2 592.0,219.8 592.0,218.3C592.0,216.9 592.9,214.2 594.1,212.4C595.2,210.5 596.6,209.0 597.0,209.0C597.5,209.0 598.2,210.6 598.6,212.5C598.9,214.4 599.8,216.4 600.6,217.1C601.4,217.7 602.7,218.0 603.5,217.6C604.4,217.3 605.8,215.3 606.7,213.3C608.0,210.2 608.0,209.0 607.0,206.5C606.4,204.8 605.6,202.8 605.4,202.0C605.1,201.2 605.6,199.6 606.4,198.5C607.8,196.5 607.9,196.5 610.4,198.9C611.9,200.3 613.5,201.0 614.5,200.7C615.3,200.3 616.5,198.9 617.0,197.5C617.6,196.0 618.0,193.6 618.0,192.2C618.0,190.7 618.7,188.4 619.6,187.2C620.5,185.9 621.9,185.0 622.8,185.1C623.8,185.3 628.6,181.4 634.0,176.2C641.1,169.3 645.5,165.9 651.4,163.0C655.7,160.8 660.5,159.0 662.1,159.0C663.7,159.0 665.0,159.3 665.0,159.7C665.0,160.0 662.3,165.1 659.0,171.0C655.7,176.9 653.0,182.0 653.0,182.4C653.0,182.9 650.0,188.7 646.3,195.3C642.6,202.0 638.1,210.4 636.2,214.0C634.2,217.6 628.4,227.3 623.3,235.7C617.1,245.6 612.4,252.1 609.7,254.3C607.4,256.2 604.5,258.2 603.3,258.8C602.1,259.5 598.7,260.0 595.8,260.0C592.8,260.0 589.7,260.6 588.8,261.2C587.9,261.9 584.8,266.3 581.9,271.0C579.0,275.7 573.5,284.9 569.7,291.5C565.8,298.1 558.0,312.7 552.3,324.0C546.6,335.3 537.9,353.3 532.9,364.0C528.0,374.7 522.6,386.2 520.9,389.6C519.3,393.0 518.0,396.4 518.0,397.2C518.0,398.1 516.6,401.4 514.9,404.6C513.2,407.9 510.0,415.2 507.8,421.0C505.6,426.8 502.0,436.2 499.8,442.0C497.6,447.8 492.2,463.5 487.9,477.0C483.5,490.5 476.7,513.9 472.6,529.0C468.5,544.1 464.7,558.8 464.1,561.5C463.5,564.2 461.9,573.5 460.5,582.0C459.2,590.5 457.2,604.0 456.1,612.0C455.0,620.0 453.9,628.6 453.7,631.2C453.4,633.9 453.6,636.0 453.9,636.0C454.3,636.0 456.6,633.6 459.0,630.8C461.3,627.9 464.1,623.7 465.1,621.5C466.1,619.3 468.0,611.0 469.5,603.0C470.9,595.0 473.6,581.8 475.4,573.5C477.3,565.2 480.4,551.8 482.3,543.5C484.3,535.2 489.1,518.4 493.0,506.0C497.5,491.9 502.4,478.9 506.0,471.4C509.5,464.2 514.0,456.7 517.0,453.1C519.9,449.6 522.4,447.1 522.7,447.4C523.0,447.7 522.5,450.1 521.5,452.7C520.5,455.4 517.3,462.7 514.5,469.0C511.6,475.3 505.8,490.7 501.5,503.2C497.3,515.7 494.0,526.9 494.2,528.1C494.5,530.1 495.0,529.9 500.8,525.1C504.2,522.2 507.0,520.3 507.0,521.0C507.0,521.6 506.0,524.0 504.9,526.3C503.7,528.6 501.1,533.0 499.0,536.0C497.0,539.0 494.2,543.5 492.8,546.0C491.3,548.5 489.3,553.5 488.2,557.0C487.0,560.6 485.9,564.6 485.5,566.0C484.9,568.5 484.9,568.5 487.2,565.9C488.5,564.4 495.4,556.3 502.6,547.9C509.8,539.4 518.5,529.9 521.9,526.8C525.3,523.6 530.1,519.9 532.5,518.5C535.1,516.9 538.0,516.0 539.7,516.2C542.3,516.5 541.8,517.1 531.1,528.0C524.9,534.3 514.7,545.4 508.4,552.7C502.2,559.9 494.2,570.2 490.7,575.7C487.2,581.1 483.9,586.6 483.5,588.0C482.9,590.0 484.2,589.2 489.9,584.1C493.8,580.6 497.3,577.4 497.6,576.9C497.9,576.4 498.5,576.0 499.1,576.0C499.6,576.0 498.2,579.5 496.0,583.8C493.8,588.0 489.5,595.5 486.4,600.5C483.3,605.5 479.5,611.4 478.1,613.6C476.7,615.9 471.3,623.8 466.2,631.1C461.0,638.5 454.2,649.7 451.0,656.1C447.7,662.5 444.2,670.5 443.0,673.9C441.9,677.2 441.0,681.1 441.0,682.5C441.0,685.0 441.0,685.0 444.0,683.5C446.0,682.4 450.2,677.0 457.0,666.7C462.4,658.4 470.3,646.3 474.5,640.0C478.6,633.7 483.5,626.0 485.4,623.0C487.2,620.0 492.4,611.6 497.0,604.5C501.5,597.4 508.4,587.0 512.3,581.5C516.2,576.0 522.4,567.9 526.1,563.5C529.7,559.1 536.1,552.3 540.1,548.4C544.2,544.5 551.0,539.0 555.4,536.1C559.7,533.3 564.9,530.5 566.9,529.9C568.9,529.3 571.9,529.0 573.5,529.2C576.3,529.5 575.9,529.9 566.5,536.9C561.0,541.0 553.3,547.2 549.3,550.7C545.3,554.2 538.6,561.4 534.4,566.7C530.1,572.0 523.4,581.3 519.3,587.3C515.3,593.4 512.0,598.7 512.0,599.2C512.0,599.6 512.3,600.0 512.7,600.0C513.1,600.0 515.2,598.3 517.5,596.2C519.7,594.0 523.2,591.3 525.2,590.1C527.3,588.8 529.0,588.1 529.0,588.5C529.0,588.9 524.3,596.0 518.6,604.3C512.9,612.7 506.8,622.3 505.1,625.8C503.4,629.2 502.2,632.0 502.6,632.0C502.9,632.0 504.7,630.8 506.7,629.3C510.2,626.6 510.2,626.6 508.7,630.1C507.9,632.0 505.2,637.8 502.6,643.0C500.1,648.2 497.7,654.0 497.4,655.9C496.8,658.5 497.0,659.2 498.1,658.8C498.9,658.6 502.5,654.4 506.3,649.4C510.0,644.5 517.4,633.5 522.8,625.0C528.2,616.5 534.8,605.9 537.4,601.5C540.0,597.0 545.8,588.5 550.3,582.5C554.8,576.4 562.7,567.2 568.0,562.0C573.2,556.7 581.3,549.3 586.0,545.4C590.7,541.6 597.2,536.8 600.6,534.8C603.9,532.7 608.8,530.6 611.5,530.0C614.1,529.4 616.4,529.1 616.7,529.3C616.9,529.5 615.8,531.0 614.2,532.6C612.7,534.2 608.1,538.2 604.1,541.5C600.0,544.8 592.7,551.9 587.9,557.3C583.1,562.7 575.2,572.3 570.3,578.8C565.5,585.2 558.9,594.8 555.6,600.0C552.4,605.2 548.8,610.6 547.8,611.9C546.8,613.2 546.1,614.4 546.3,614.6C546.5,614.8 549.5,613.7 553.0,612.3C558.4,610.1 561.5,609.6 571.3,609.2C580.9,608.8 583.9,609.1 587.7,610.5C591.4,611.9 591.9,612.5 590.6,613.2C589.7,613.7 584.6,614.9 579.3,616.0C573.9,617.0 567.0,618.7 564.0,619.8C561.0,620.9 555.4,623.3 551.5,625.3C547.6,627.2 541.8,631.0 538.5,633.7C535.3,636.4 530.2,641.5 527.3,645.0C524.4,648.6 520.2,654.7 517.9,658.7C515.7,662.7 514.0,666.4 514.2,667.0C514.4,667.6 517.3,665.7 520.7,662.8C524.1,659.9 531.3,653.8 536.7,649.2C544.1,642.9 549.4,639.5 558.5,635.0C565.1,631.7 572.9,628.5 575.9,627.9C578.9,627.3 584.0,627.0 587.1,627.4C590.3,627.7 594.7,628.7 597.0,629.6C599.8,630.8 600.8,631.5 599.9,632.0C599.1,632.4 595.0,633.0 590.7,633.4C586.3,633.8 580.3,635.0 577.2,636.2C574.1,637.4 569.7,639.5 567.3,640.9C564.9,642.3 563.0,643.7 563.0,644.0C563.0,644.3 569.9,644.5 578.3,644.6C587.4,644.7 597.5,645.4 603.5,646.4C609.0,647.3 617.5,649.2 622.5,650.7C627.5,652.1 634.6,654.6 638.5,656.2C642.4,657.9 645.8,659.8 646.2,660.4C646.6,661.0 647.0,662.0 647.0,662.6C647.0,663.3 643.3,665.6 638.7,667.8C634.2,670.1 626.6,673.0 622.0,674.3C617.3,675.7 609.3,677.3 604.2,678.0C598.3,678.7 585.2,679.1 568.2,678.8C553.5,678.7 539.4,678.9 536.8,679.3C534.1,679.8 532.0,680.5 532.0,681.0C532.0,681.4 535.3,682.3 539.2,683.0C543.2,683.6 548.3,684.7 550.4,685.3C552.6,686.0 554.5,687.0 554.7,687.7C555.0,688.4 553.9,689.3 552.3,689.7C550.8,690.1 541.4,690.3 531.5,690.0C521.6,689.8 508.7,689.5 502.8,689.5C497.0,689.5 491.8,689.9 491.3,690.3C490.9,690.8 491.7,692.2 493.3,693.4C495.4,695.1 495.7,695.9 494.8,696.8C494.0,697.6 489.6,698.0 481.5,698.1C469.5,698.1 469.5,698.1 478.5,700.9C483.4,702.5 490.9,704.3 495.0,705.0C499.1,705.7 502.9,706.7 503.5,707.2C504.1,707.7 503.9,708.6 503.0,709.5C502.0,710.4 497.3,711.3 489.5,712.0C482.9,712.6 475.5,713.5 473.0,714.1C470.3,714.7 449.9,715.3 422.5,715.5zM334.8,504.8C334.5,509.5 334.5,509.5 332.2,506.6C331.0,505.0 329.3,501.5 328.5,498.7C327.7,495.9 325.8,488.2 324.4,481.6C323.0,474.9 321.4,467.8 320.8,465.7C320.1,462.5 319.2,461.6 315.7,460.1C313.3,459.1 310.1,456.7 308.4,454.8C306.7,452.9 304.4,448.3 303.2,444.4C302.0,440.6 300.6,434.2 300.2,430.2C299.7,426.3 299.5,423.0 299.6,423.0C299.7,423.0 302.8,428.7 306.5,435.8C310.2,442.8 313.7,448.9 314.2,449.5C314.9,450.2 315.1,447.7 314.7,441.5C314.3,436.6 312.5,425.8 310.5,417.5C308.5,409.2 306.3,399.6 305.5,396.0C304.7,392.4 303.1,385.7 302.0,381.0C301.0,376.3 298.0,364.6 295.4,355.0C292.9,345.4 289.7,333.0 288.3,327.5C287.0,322.0 285.6,317.2 285.1,316.8C284.7,316.3 281.7,315.5 278.5,314.9C275.2,314.3 270.5,312.8 267.9,311.5C265.4,310.2 262.1,307.7 260.6,305.9C259.1,304.2 257.0,300.9 255.8,298.6C254.7,296.4 253.4,293.3 252.9,291.8C252.4,290.0 252.5,289.0 253.2,289.0C253.8,289.0 256.9,291.9 260.2,295.4C264.7,300.3 267.1,302.0 270.3,302.8C272.6,303.4 275.7,304.1 277.1,304.4C278.7,304.7 280.2,304.5 280.8,303.7C281.5,302.9 281.0,300.6 279.1,296.1C277.6,292.6 275.5,289.1 274.4,288.5C273.4,287.8 268.0,286.2 262.5,285.0C254.4,283.2 252.1,282.2 249.8,279.8C248.3,278.2 246.1,273.9 245.0,270.3C243.9,266.7 243.0,263.0 243.0,262.1C243.0,261.1 245.5,263.1 249.3,267.1C255.0,273.2 256.2,274.0 263.5,276.3C267.9,277.7 271.8,278.6 272.2,278.4C272.6,278.1 272.5,276.7 271.9,275.2C271.3,273.7 269.3,269.7 267.4,266.3C263.9,260.0 263.9,260.0 255.7,257.5C251.1,256.1 245.3,253.7 242.8,252.1C238.8,249.5 238.0,248.4 236.0,242.6C234.8,239.0 234.0,235.2 234.2,234.3C234.5,232.9 235.5,233.8 238.2,237.5C240.2,240.2 243.1,243.2 244.7,244.2C246.2,245.1 250.1,246.6 253.3,247.5C257.0,248.6 259.6,248.8 260.1,248.3C260.7,247.7 260.3,245.2 258.9,241.5C257.7,238.4 255.6,234.5 254.1,233.0C252.4,231.2 248.6,229.2 243.5,227.6C239.1,226.1 234.7,224.3 233.8,223.6C232.8,222.9 230.9,219.9 229.5,216.9C228.2,213.9 227.0,210.9 227.0,210.2C227.0,209.6 227.4,209.0 227.8,209.0C228.3,209.0 229.9,210.3 231.4,211.9C233.0,213.5 236.5,215.8 239.2,217.0C241.9,218.2 245.1,219.0 246.3,218.8C248.2,218.5 248.5,217.9 248.3,214.8C248.2,212.7 247.1,209.2 246.0,207.1C244.9,204.9 242.9,200.1 241.6,196.5C240.3,193.0 237.3,187.1 235.0,183.5C232.1,179.1 231.0,176.6 231.7,175.9C232.4,175.2 234.5,176.4 238.1,179.3C241.1,181.7 246.2,186.9 249.4,190.8C252.7,194.8 256.3,199.5 257.4,201.4C259.3,204.9 259.3,204.9 257.2,206.7C255.8,207.8 254.6,210.4 254.1,213.5C253.6,216.2 253.4,219.7 253.7,221.3C254.0,222.8 254.7,224.3 255.2,224.6C255.7,224.9 257.0,224.4 258.0,223.5C259.0,222.6 260.3,219.9 260.9,217.5C261.5,215.1 262.0,211.6 262.0,209.8C262.1,206.5 262.1,206.5 264.6,209.5C266.0,211.2 269.2,215.7 271.7,219.5C274.3,223.3 277.7,229.4 279.4,233.0C281.0,236.6 284.6,243.3 287.3,247.8C290.0,252.4 292.9,258.3 293.7,260.8C294.5,263.4 296.3,267.8 297.6,270.5C298.9,273.2 300.6,278.2 301.5,281.5C302.3,284.7 303.0,289.2 303.0,291.5C303.0,293.8 301.8,298.0 300.1,301.5C298.6,304.8 296.1,308.6 294.6,309.9C293.2,311.3 292.0,313.0 292.0,313.8C292.0,314.6 292.9,318.2 293.9,321.8C294.9,325.5 296.9,333.0 298.4,338.5C299.8,344.0 303.8,360.4 307.4,375.0C311.0,389.6 315.5,408.9 317.5,418.0C319.4,427.1 321.7,437.0 322.5,440.0C323.3,443.0 325.5,452.7 327.4,461.5C329.3,470.3 331.8,482.6 333.0,488.8C334.2,495.1 335.0,502.2 334.8,504.8zM536.2,505.5C534.5,506.0 534.0,505.7 534.0,504.2C534.0,503.1 535.0,501.0 536.2,499.4C537.4,497.8 540.6,493.9 543.2,490.8C546.4,487.1 548.8,483.0 550.1,478.9C551.2,475.5 553.9,470.1 556.0,466.9C558.2,463.8 562.7,459.1 566.2,456.5C569.7,453.9 575.8,450.2 579.9,448.3C584.0,446.5 587.7,445.1 588.3,445.3C588.8,445.4 588.0,446.4 586.4,447.5C584.9,448.5 580.3,452.0 576.4,455.2C572.4,458.5 568.0,462.9 566.6,465.1C565.2,467.2 564.0,469.6 564.0,470.5C564.0,471.3 564.2,472.0 564.5,472.0C564.9,472.0 566.5,471.3 568.2,470.4C570.1,469.4 572.6,469.0 574.6,469.3C577.8,469.8 578.3,469.4 585.4,461.2C589.5,456.4 595.3,450.1 598.3,447.2C602.6,443.0 604.6,441.7 607.9,441.3C610.6,440.9 612.0,441.1 612.0,441.9C612.0,442.5 611.1,443.5 609.9,444.2C608.8,444.9 604.3,449.8 600.1,455.0C595.9,460.2 590.5,467.3 588.2,470.7C585.9,474.1 582.1,478.4 579.8,480.3C577.4,482.2 574.5,484.3 573.2,484.9C571.9,485.6 568.5,486.8 565.7,487.5C562.8,488.2 559.3,488.6 557.9,488.3C555.6,487.9 554.1,489.0 546.9,496.3C542.3,501.0 537.5,505.1 536.2,505.5zM469.2,465.0C468.4,465.0 468.0,463.3 468.0,459.8C468.0,456.9 468.7,450.4 469.5,445.5C470.3,440.6 472.6,428.2 474.6,418.0C476.5,407.8 479.9,390.7 482.1,380.0C484.3,369.3 487.7,353.8 489.6,345.5C491.5,337.2 494.2,326.9 495.5,322.5C496.8,318.1 498.6,312.0 499.4,309.0C500.3,306.0 502.9,297.6 505.4,290.5C507.8,283.4 511.9,272.3 514.4,266.0C516.8,259.7 520.9,249.8 523.5,244.1C526.0,238.3 531.5,227.1 535.7,219.1C539.9,211.0 544.8,202.3 546.6,199.5C549.8,194.8 549.9,194.5 548.3,192.0C547.4,190.6 546.0,188.4 545.1,187.1C544.2,185.6 543.6,182.7 543.7,179.4C543.8,175.9 544.8,172.0 546.5,168.3C547.9,165.1 549.9,161.6 551.0,160.5C552.0,159.4 553.8,156.3 555.0,153.7C556.3,151.1 557.7,149.1 558.3,149.3C558.9,149.5 559.9,151.4 560.5,153.6C561.0,155.7 561.9,158.1 562.4,158.8C563.0,159.9 563.7,159.7 565.7,157.8C567.1,156.5 568.8,154.3 569.6,152.8C570.4,151.3 571.0,149.2 571.0,148.2C571.0,147.1 570.1,145.1 569.0,143.7C567.9,142.3 567.0,140.3 567.0,139.3C567.0,138.3 567.7,136.4 568.6,135.2C569.4,134.0 570.5,133.0 571.0,133.0C571.4,133.0 572.8,134.6 574.0,136.5C575.5,138.9 576.9,140.0 578.5,140.0C579.8,140.0 581.2,139.6 581.5,139.0C581.8,138.5 581.5,135.3 580.8,131.9C579.6,125.8 579.6,125.8 582.3,123.4C583.8,122.1 585.0,120.5 585.0,119.8C585.1,119.0 585.6,119.3 586.5,120.4C587.3,121.5 588.1,122.2 588.3,121.9C588.5,121.7 589.5,119.2 590.5,116.5C591.7,113.1 594.1,109.8 597.9,106.2C601.0,103.3 606.2,98.9 609.5,96.4C612.8,93.8 618.1,90.5 621.2,88.9C624.4,87.3 627.5,86.0 628.1,86.0C628.8,86.0 629.0,86.9 628.7,88.2C628.4,89.5 625.7,96.3 622.7,103.5C619.7,110.7 611.7,127.3 605.0,140.5C598.2,153.7 591.6,166.3 590.4,168.5C589.1,170.7 586.4,175.6 584.4,179.3C582.3,183.1 578.6,188.0 575.8,190.5C573.1,193.0 569.2,195.4 567.2,196.0C565.2,196.5 561.6,197.0 559.3,197.0C556.1,197.0 554.7,197.6 553.2,199.5C552.2,200.8 546.1,212.4 539.7,225.2C533.3,238.0 526.2,253.4 523.9,259.5C521.6,265.6 518.7,273.4 517.5,277.0C516.2,280.6 514.3,285.6 513.2,288.2C512.0,290.8 509.1,299.8 506.6,308.2C504.2,316.6 500.4,330.5 498.2,339.0C495.9,347.5 492.5,362.8 490.5,373.0C488.5,383.2 485.1,399.8 483.0,410.0C480.8,420.2 477.9,435.6 476.5,444.2C475.1,452.9 473.7,460.8 473.3,461.7C472.9,462.7 472.2,463.8 471.6,464.2C471.0,464.6 469.9,465.0 469.2,465.0zM272.7,457.0C273.4,457.0 274.9,455.2 276.0,453.0C277.4,450.3 278.0,447.1 278.0,442.8C278.0,439.3 277.5,434.8 276.9,432.8C276.4,430.7 275.5,429.0 274.9,429.0C274.4,429.0 272.7,431.0 271.2,433.3C269.7,435.7 267.6,439.6 266.6,441.8C264.7,445.9 264.7,445.9 268.1,451.5C269.9,454.5 272.0,457.0 272.7,457.0zM349.9,438.7C349.1,438.8 347.5,438.5 346.4,438.0C345.2,437.5 343.4,435.9 342.3,434.3C341.2,432.8 339.8,430.0 339.2,428.1C338.5,426.2 338.0,420.6 338.0,415.6C338.0,410.6 338.5,404.7 339.0,402.5C339.5,400.2 341.2,395.7 342.7,392.5C345.5,386.5 345.5,386.5 346.2,393.5C346.6,397.3 348.3,408.2 350.1,417.8C352.6,430.6 353.1,435.6 352.3,436.8C351.8,437.7 350.7,438.6 349.9,438.7zM441.8,401.0C440.4,401.0 438.3,399.9 437.0,398.5C435.1,396.5 434.5,394.5 434.2,389.6C433.9,385.5 434.4,381.2 435.5,377.4C436.4,374.1 438.5,368.9 440.2,365.8C441.9,362.7 446.7,356.1 450.9,351.1C455.5,345.7 461.1,340.4 465.3,337.6C469.0,335.1 472.7,333.0 473.5,333.0C474.3,333.0 475.0,333.8 475.0,334.9C475.0,335.9 473.9,342.1 472.6,348.6C471.2,355.2 469.6,362.7 469.0,365.3C468.3,367.9 466.1,373.8 464.1,378.5C462.0,383.4 458.6,389.1 455.8,392.3C453.2,395.3 449.6,398.4 447.7,399.4C445.8,400.3 443.1,401.0 441.8,401.0zM449.8,383.0C450.4,383.0 452.0,381.6 453.4,379.9C454.9,378.2 456.8,375.4 457.7,373.7C458.6,372.0 461.2,364.5 463.6,357.1C466.0,349.6 467.7,343.4 467.5,343.2C467.3,343.0 463.3,346.5 458.7,350.9C452.7,356.7 449.2,361.0 446.7,365.8C444.8,369.5 443.0,374.0 442.7,375.8C442.3,377.5 442.3,379.0 442.7,379.0C443.0,379.0 444.9,377.8 446.7,376.4C450.2,373.8 450.2,373.8 449.5,378.4C449.0,381.3 449.1,383.0 449.8,383.0zM564.5,338.8C559.3,339.0 555.6,338.6 554.1,337.8C552.8,337.1 551.8,336.2 551.9,335.8C551.9,335.3 552.0,334.3 552.0,333.4C552.0,332.6 554.3,329.4 557.1,326.5C559.9,323.5 564.1,320.0 566.4,318.6C568.6,317.3 574.2,315.1 578.7,313.7C583.2,312.2 590.6,310.4 595.2,309.6C599.7,308.9 603.8,308.4 604.2,308.7C604.7,308.9 605.0,309.6 605.0,310.2C605.0,310.8 599.9,316.3 593.6,322.5C586.7,329.3 580.3,334.6 577.4,336.1C573.7,337.9 570.5,338.6 564.5,338.8zM571.6,327.7C573.4,327.4 576.4,326.4 578.2,325.6C580.1,324.7 583.2,322.6 585.3,320.9C587.3,319.2 589.0,317.4 589.0,316.8C589.0,316.1 587.2,316.0 583.9,316.4C581.0,316.8 577.0,318.0 574.9,319.0C572.9,320.1 570.3,322.1 569.1,323.6C568.0,325.0 567.3,326.7 567.6,327.2C568.0,327.8 569.7,328.0 571.6,327.7zM289.8,299.0C290.5,299.0 292.0,297.1 293.0,294.8C294.0,292.4 295.0,288.9 295.2,287.0C295.3,285.1 295.1,280.5 294.6,276.8C294.1,273.0 293.4,270.0 293.0,270.0C292.6,270.0 291.1,271.1 289.7,272.5C288.4,273.9 285.9,277.5 284.4,280.5C281.5,285.9 281.5,285.9 285.0,292.4C286.9,296.0 289.1,299.0 289.8,299.0zM279.2,273.0C279.6,273.0 280.6,271.8 281.3,270.2C282.1,268.7 283.3,265.7 284.0,263.6C285.1,260.3 285.0,258.5 283.5,252.1C282.5,247.9 281.4,243.6 281.0,242.5C280.4,240.8 279.8,241.3 276.6,246.2C274.5,249.3 272.2,253.6 271.5,255.6C270.8,257.7 270.5,260.1 270.9,261.0C271.2,261.8 273.1,264.9 275.0,267.7C276.9,270.6 278.8,273.0 279.2,273.0zM388.3,266.0C389.0,266.0 391.5,264.1 393.7,261.8C396.0,259.4 398.4,256.2 398.9,254.7C399.5,253.1 400.0,250.3 400.0,248.4C400.0,246.5 399.6,245.0 399.1,245.0C398.6,245.0 395.7,247.6 392.6,250.8C387.4,256.1 387.0,256.8 387.0,261.2C387.0,264.5 387.4,266.0 388.3,266.0zM381.0,262.0C381.5,262.0 382.6,261.3 383.4,260.4C384.3,259.6 385.0,257.6 385.0,256.2C385.0,254.7 384.3,252.4 383.4,251.2C382.6,250.0 380.1,248.1 378.0,247.0C375.8,245.9 373.6,245.0 373.0,245.0C372.5,245.0 372.0,245.4 372.0,246.0C372.0,246.5 372.9,249.3 374.0,252.3C375.1,255.2 376.9,258.6 378.0,259.8C379.2,261.0 380.5,262.0 381.0,262.0zM595.9,249.4C597.9,249.0 600.4,248.4 601.5,248.0C602.6,247.5 606.1,244.8 609.2,241.8C612.4,238.8 615.0,235.6 615.0,234.6C615.0,233.0 614.5,232.8 611.2,233.4C609.2,233.7 605.2,234.0 602.5,234.0C597.5,234.1 597.5,234.1 594.2,239.4C592.5,242.4 591.0,245.7 591.0,246.7C591.0,247.8 591.3,249.0 591.7,249.3C592.1,249.7 594.0,249.7 595.9,249.4zM267.9,245.0C268.4,245.0 269.2,244.4 269.8,243.7C270.4,243.0 271.3,240.4 271.9,238.0C272.7,234.6 272.5,231.9 271.4,226.7C270.0,220.9 269.6,220.1 268.3,221.1C267.5,221.8 265.7,224.6 264.3,227.4C262.5,230.9 261.9,233.3 262.3,235.7C262.6,237.5 263.8,240.4 265.0,242.0C266.2,243.7 267.5,245.0 267.9,245.0zM388.2,244.0C388.7,244.0 391.2,241.9 393.9,239.2C397.3,235.8 399.0,233.1 399.9,229.7C400.5,227.0 400.8,224.5 400.5,223.9C400.1,223.4 399.3,223.0 398.5,223.0C397.8,223.0 394.9,225.1 392.2,227.8C388.5,231.5 387.2,233.5 386.7,236.7C386.3,239.0 386.3,241.6 386.6,242.4C386.9,243.3 387.6,244.0 388.2,244.0zM605.3,227.0C606.1,227.0 609.7,226.1 613.2,225.0C617.6,223.6 620.8,221.9 623.3,219.3C625.3,217.3 627.0,215.1 627.0,214.3C627.0,213.4 625.2,213.0 620.5,213.0C616.2,213.0 613.1,213.5 611.5,214.6C610.1,215.5 608.2,217.6 607.1,219.4C606.1,221.1 604.9,223.5 604.5,224.8C604.1,226.4 604.3,227.0 605.3,227.0zM440.4,218.0C441.0,218.0 442.4,217.2 443.6,216.2C444.7,215.3 447.0,212.7 448.7,210.5C450.4,208.3 452.5,205.1 453.4,203.3C454.3,201.6 454.6,199.9 454.2,199.6C453.7,199.3 450.7,200.3 447.4,201.9C444.2,203.4 441.0,205.3 440.4,206.1C439.8,206.9 439.0,208.6 438.7,209.9C438.4,211.2 438.4,213.6 438.7,215.1C439.0,216.7 439.8,218.0 440.4,218.0zM619.5,208.0C620.9,208.0 624.0,207.1 626.4,206.0C628.7,204.8 632.1,202.5 633.9,200.8C635.6,199.1 636.9,197.2 636.7,196.6C636.5,196.0 634.4,195.4 632.0,195.2C629.6,195.0 626.7,195.1 625.4,195.4C624.2,195.7 621.8,197.9 620.1,200.2C618.4,202.5 617.0,205.2 617.0,206.2C617.0,207.5 617.8,208.0 619.5,208.0zM237.2,204.9C235.7,204.9 233.4,204.4 232.0,203.9C230.7,203.3 228.7,202.2 227.8,201.3C226.5,200.1 226.0,198.2 226.0,193.9C226.0,190.7 226.4,187.9 226.9,187.5C227.4,187.2 229.3,189.7 231.1,193.0C232.9,196.4 235.6,200.0 237.2,201.1C238.7,202.2 240.0,203.6 240.0,204.1C240.0,204.6 238.8,205.0 237.2,204.9zM443.2,196.4C444.5,196.1 447.6,194.3 450.1,192.4C452.7,190.5 455.8,187.0 457.3,184.2C458.8,181.5 460.0,178.3 460.0,177.2C460.0,175.1 460.0,175.1 454.0,177.2C450.3,178.4 447.1,180.3 445.6,182.0C444.3,183.6 442.4,186.9 441.5,189.4C440.5,191.9 440.0,194.6 440.4,195.5C440.8,196.7 441.6,196.9 443.2,196.4zM630.9,190.0C632.0,190.0 634.0,189.6 635.4,189.0C636.8,188.5 640.0,186.2 642.5,183.9C645.0,181.6 647.9,178.2 649.1,176.3C650.3,174.4 651.0,172.7 650.8,172.4C650.5,172.2 647.4,173.3 643.9,174.9C640.4,176.5 636.3,179.0 634.9,180.6C633.5,182.2 631.6,184.6 630.7,186.0C629.7,187.3 629.0,188.8 629.0,189.2C629.0,189.7 629.9,190.0 630.9,190.0zM323.0,188.0C323.5,188.0 324.6,186.9 325.5,185.6C326.4,184.3 327.6,180.8 328.2,177.8C329.0,174.1 329.0,170.9 328.4,168.0C327.9,165.6 327.0,163.5 326.4,163.3C325.8,163.1 323.4,165.9 321.0,169.5C317.4,175.0 316.9,176.5 317.4,179.4C317.8,181.3 319.0,184.0 320.1,185.4C321.2,186.8 322.6,188.0 323.0,188.0zM560.8,187.0C562.3,187.0 566.0,185.8 568.8,184.4C571.7,183.0 575.2,180.2 576.7,178.3C578.9,175.4 579.1,174.7 577.9,173.9C577.1,173.4 574.0,173.0 570.9,173.0C566.8,173.0 564.6,173.5 562.8,175.0C561.4,176.1 559.5,178.6 558.5,180.5C557.6,182.5 557.1,184.8 557.4,185.6C557.7,186.4 559.2,187.0 560.8,187.0zM554.1,179.0C554.5,179.0 555.6,178.3 556.5,177.3C557.4,176.4 558.6,174.6 559.1,173.3C559.6,172.0 560.0,169.6 560.0,168.1C560.0,166.5 558.9,164.1 557.5,162.6C556.2,161.2 554.7,160.0 554.1,160.0C553.6,160.0 552.7,161.4 552.1,163.1C551.5,164.9 551.0,168.6 551.0,171.4C551.0,174.3 551.5,177.1 552.2,177.8C552.9,178.5 553.7,179.0 554.1,179.0zM447.0,171.0C448.2,171.0 450.4,170.3 451.9,169.5C453.5,168.7 456.6,165.9 458.8,163.3C461.0,160.6 463.6,156.8 464.6,154.7C465.6,152.7 466.1,150.8 465.8,150.5C465.5,150.2 462.3,151.0 458.7,152.4C455.1,153.7 451.0,155.6 449.6,156.5C448.2,157.5 446.6,159.8 446.0,161.9C445.5,163.9 445.0,166.7 445.0,168.2C445.0,170.4 445.5,171.0 447.0,171.0zM571.0,167.0C572.1,167.0 575.1,166.0 577.7,164.8C580.3,163.6 584.4,160.7 586.8,158.4C589.2,156.0 590.9,153.7 590.5,153.1C590.2,152.5 587.8,152.0 585.2,152.1C582.6,152.2 579.4,152.5 578.0,152.9C576.7,153.3 574.1,155.5 572.3,157.9C570.5,160.2 569.0,163.2 569.0,164.6C569.0,166.3 569.5,167.0 571.0,167.0zM314.5,165.0C315.2,165.0 317.1,162.3 318.9,159.1C321.0,155.1 322.0,151.8 322.0,148.9C322.0,146.5 321.7,143.5 321.4,142.2C321.0,141.0 320.3,140.0 319.6,140.0C319.0,140.0 316.6,143.0 314.2,146.7C310.8,152.1 310.1,154.1 310.5,156.5C310.9,158.1 311.6,160.7 312.2,162.2C312.8,163.8 313.8,165.0 314.5,165.0zM452.8,146.0C453.9,146.0 456.5,144.7 458.6,143.2C460.7,141.6 464.0,138.7 465.7,136.7C467.5,134.6 469.7,131.6 470.5,130.0C472.1,127.0 472.1,127.0 468.5,127.0C466.5,127.0 463.5,127.6 461.7,128.4C459.9,129.1 457.3,131.0 455.8,132.6C454.4,134.2 452.7,137.3 452.1,139.5C451.5,141.7 451.0,144.1 451.0,144.8C451.0,145.4 451.8,146.0 452.8,146.0zM583.8,146.0C584.8,146.0 587.7,145.3 590.3,144.4C592.9,143.5 596.1,141.5 597.5,139.8C598.9,138.2 600.0,136.1 600.0,135.3C600.0,134.0 599.0,133.9 593.8,134.4C590.4,134.8 586.8,135.6 585.8,136.1C584.8,136.6 583.3,138.4 582.4,140.1C581.6,141.8 581.1,143.8 581.4,144.6C581.7,145.4 582.8,146.0 583.8,146.0zM308.3,142.8C309.0,142.6 310.3,140.8 311.3,138.9C312.7,136.2 313.0,134.2 312.5,129.3C312.2,126.0 311.5,121.8 310.9,120.1C310.3,118.4 309.4,117.0 309.0,117.0C308.5,117.0 307.3,118.1 306.2,119.5C305.1,120.9 303.7,124.3 303.0,127.0C302.3,129.8 302.1,133.0 302.4,134.3C302.7,135.5 303.9,138.0 305.0,139.8C306.1,141.7 307.6,143.0 308.3,142.8zM592.4,129.0C593.8,129.0 596.1,128.5 597.7,127.9C599.2,127.4 602.0,125.5 603.8,123.7C605.5,122.0 607.0,120.0 607.0,119.3C607.0,118.6 605.2,117.6 603.0,117.0C599.1,116.0 598.8,116.1 594.5,119.7C591.1,122.5 590.0,124.1 590.0,126.2C590.0,128.5 590.4,129.0 592.4,129.0zM458.8,122.0C459.8,122.0 461.7,121.3 463.0,120.3C464.4,119.4 467.0,117.3 468.8,115.6C470.7,113.9 473.1,110.8 474.2,108.6C475.4,106.2 475.8,104.4 475.2,103.8C474.6,103.2 472.7,103.3 469.9,104.0C467.3,104.7 464.3,106.5 462.5,108.5C460.8,110.3 458.9,113.5 458.2,115.7C457.5,117.9 457.0,120.2 457.0,120.9C457.0,121.5 457.8,122.0 458.8,122.0zM601.6,113.0C602.5,113.0 604.7,112.3 606.6,111.4C608.4,110.5 611.5,108.0 613.5,105.9C615.4,103.7 617.0,101.3 617.0,100.5C617.0,99.7 616.4,99.0 615.6,99.0C614.8,99.0 612.9,99.5 611.3,100.1C609.8,100.6 607.2,102.3 605.7,103.8C604.1,105.3 602.2,107.7 601.4,109.2C600.6,110.7 600.0,112.1 600.0,112.5C600.0,112.8 600.7,113.0 601.6,113.0zM287.2,112.0C286.3,111.9 284.3,111.3 282.8,110.4C281.3,109.6 279.7,107.8 279.4,106.4C279.0,105.0 279.4,101.6 280.1,98.9C280.9,96.1 281.9,93.9 282.5,94.0C283.1,94.1 284.0,96.3 284.6,98.8C285.2,101.4 286.5,105.2 287.4,107.2C288.3,109.3 289.0,111.2 289.0,111.5C289.0,111.8 288.2,112.0 287.2,112.0zM466.6,99.0C467.3,99.0 469.8,97.1 472.0,94.8C474.2,92.4 476.5,88.9 477.1,87.0C477.7,85.1 478.0,82.2 477.8,80.6C477.7,79.0 477.0,77.5 476.3,77.3C475.7,77.1 473.2,79.4 470.8,82.4C468.5,85.5 466.0,89.7 465.4,91.7C464.8,93.8 464.5,96.3 464.8,97.2C465.0,98.2 465.8,99.0 466.6,99.0z" />

</svg>