<?xml version="1.0" encoding="UTF-8" standalone="no"?>
<svg 
  version="1.1" 
  xmlns="http://www.w3.org/2000/svg" 
  xmlns:xlink="http://www.w3.org/1999/xlink" 
  xmlns:svg="http://www.w3.org/2000/svg"
  xmlns:rdf="http://www.w3.org/1999/02/22-rdf-syntax-ns#"
  xmlns:cc="http://creativecommons.org/ns#"
  xmlns:dc="http://purl.org/dc/elements/1.1/"
  viewBox="0 0 768 768"
  width="768"
  height="768"
>
<style>svg {background-color: white; }</style>"
<metadata id="metadata1">
Created by https://svgstud.io and licensed under CC-BY-SA 4.0 license. Please attribute https://svgstud.io
</metadata>
<metadata id="prompt">
wildflowers
</metadata>
<metadata id="version">
7
</metadata>
<metadata id="metadata2">
<rdf:RDF>
<cc:Work
    rdf:about="">
    <cc:license
    rdf:resource="http://creativecommons.org/licenses/by-sa/4.0/" />
    <dc:creator>
        <cc:Agent>
            <dc:title>https://svgstud.io</dc:title>
        </cc:Agent>
    </dc:creator>
</cc:Work>
<cc:License
    rdf:about="http://creativecommons.org/licenses/by-sa/4.0/">
    <cc:permits
    rdf:resource="http://creativecommons.org/ns#Reproduction" />
    <cc:permits
    rdf:resource="http://creativecommons.org/ns#Distribution" />
    <cc:requires
    rdf:resource="http://creativecommons.org/ns#Notice" />
    <cc:requires
    rdf:resource="http://creativecommons.org/ns#Attribution" />
    <cc:permits
    rdf:resource="http://creativecommons.org/ns#DerivativeWorks" />
    <cc:requires
    rdf:resource="http://creativecommons.org/ns#ShareAlike" />
</cc:License>
</rdf:RDF>
</metadata>
<metadata id="uid">
d601aac0ea81d6dccac803615c3f1499bd1e36ca05f1314f487d03af61740cd7
</metadata>
<path stroke="none" fill="black" fill-rule="evenodd" d="M448.1,728.9C445.5,728.8 436.3,728.3 427.5,727.8C418.7,727.3 409.4,726.3 406.8,725.5C403.0,724.3 393.9,724.0 355.6,724.0C326.8,724.0 309.0,723.6 309.0,723.1C309.0,722.5 312.0,719.9 315.7,717.3C320.1,714.2 321.9,712.4 320.8,712.2C319.9,712.0 315.5,713.8 311.1,716.1C303.0,720.3 302.9,720.3 290.2,720.7C277.5,721.1 277.5,721.1 280.0,718.9C281.4,717.7 284.9,715.6 287.8,714.3C290.7,712.9 292.9,711.6 292.6,711.3C292.4,711.0 284.1,711.3 274.3,712.0C264.5,712.6 251.8,713.0 246.1,712.8C235.7,712.5 235.7,712.5 238.4,709.2C241.2,706.0 241.2,706.0 224.6,706.0C211.4,706.0 208.0,705.7 208.0,704.7C208.0,703.9 210.3,700.5 213.0,697.0C215.8,693.6 217.9,690.6 217.7,690.4C217.5,690.2 215.0,690.9 212.2,692.0C208.3,693.5 204.5,694.0 197.2,694.0C191.9,694.0 185.8,693.7 183.8,693.4C181.6,693.0 180.0,692.2 180.0,691.4C180.0,690.7 182.2,688.9 185.0,687.3C187.7,685.8 190.0,684.2 190.0,683.8C190.0,683.5 188.3,683.0 186.2,682.7C184.2,682.5 177.1,682.2 170.5,682.0C163.9,681.9 155.8,681.5 152.5,681.2C147.0,680.6 146.5,680.3 146.5,678.1C146.5,676.2 148.4,674.1 155.3,669.0C160.6,664.9 168.9,660.0 176.5,656.4C183.3,653.2 189.0,650.0 189.0,649.4C189.0,648.7 185.0,645.4 180.0,642.1C175.1,638.7 171.0,635.5 171.0,634.9C171.0,634.4 172.8,634.0 174.9,634.0C177.1,634.0 182.2,635.2 186.2,636.6C190.2,638.1 195.2,640.1 197.3,641.2C199.4,642.2 201.7,642.9 202.3,642.7C202.9,642.5 200.8,639.5 197.5,636.1C194.2,632.6 189.3,628.2 186.7,626.2C182.9,623.5 180.1,622.4 174.2,621.4C170.1,620.6 164.3,619.3 161.3,618.5C158.4,617.6 156.0,616.4 156.0,615.8C156.0,615.0 158.8,614.9 165.5,615.3C170.9,615.7 175.0,615.6 175.0,615.1C175.0,614.6 173.1,612.6 170.9,610.6C168.1,608.2 165.0,606.7 161.4,606.0C158.4,605.4 155.7,604.4 155.4,603.8C154.9,603.0 155.9,602.9 158.8,603.3C161.0,603.7 163.6,604.3 164.5,604.6C165.9,605.2 166.1,604.9 165.5,603.2C165.2,602.0 165.1,601.0 165.5,601.0C165.8,601.0 167.5,601.7 169.3,602.6C171.1,603.6 175.2,606.4 178.5,608.9C181.8,611.4 190.1,618.7 197.0,625.0C203.9,631.4 211.1,637.8 213.1,639.3C215.1,640.8 217.4,642.0 218.3,642.0C219.3,642.0 220.0,641.6 220.0,641.1C220.0,640.7 217.5,636.9 214.5,632.7C209.8,626.1 209.4,625.2 211.5,626.0C212.9,626.5 217.4,628.8 221.6,631.1C225.7,633.4 229.4,634.9 229.7,634.6C230.1,634.3 227.9,631.6 224.9,628.7C221.9,625.7 216.7,621.5 213.4,619.3C210.2,617.1 203.7,613.2 199.0,610.6C194.3,608.0 189.4,605.0 188.0,604.0C185.5,602.0 185.5,602.0 189.0,602.0C191.0,602.0 195.9,602.9 200.0,604.1C204.1,605.2 210.7,607.6 214.5,609.5C218.3,611.4 224.2,614.5 227.4,616.5C230.6,618.4 233.5,619.9 233.7,619.7C233.9,619.5 232.6,617.3 230.8,614.9C229.1,612.5 222.3,604.9 215.7,598.1C209.1,591.2 200.9,581.8 197.4,577.1C194.0,572.4 191.3,568.3 191.6,568.1C191.8,567.9 193.8,569.0 196.2,570.6C198.5,572.2 205.9,578.9 212.7,585.5C219.5,592.1 232.2,605.6 240.8,615.4C253.1,629.5 259.7,636.0 270.9,645.2C278.8,651.7 285.5,656.8 285.7,656.6C286.0,656.4 285.3,654.5 284.2,652.3C283.1,650.2 280.5,646.2 278.3,643.3C276.2,640.5 270.7,633.6 266.1,628.0C261.1,622.0 250.6,611.5 240.4,602.4C230.9,593.9 222.8,586.5 222.4,585.9C222.0,585.3 223.9,586.0 226.6,587.6C229.3,589.1 234.4,592.2 238.0,594.5C241.6,596.8 248.8,602.2 254.0,606.5C259.2,610.8 267.3,618.0 271.9,622.4C276.5,626.9 279.7,629.4 279.1,628.2C278.4,626.9 278.0,625.6 278.2,625.4C278.5,625.2 280.5,626.4 282.9,628.1C285.2,629.8 292.3,637.7 298.6,645.6C304.9,653.5 310.6,660.2 311.2,660.6C311.9,661.0 312.0,660.2 311.5,657.9C311.1,656.0 309.0,651.1 306.9,647.0C304.8,642.9 299.6,635.6 295.5,630.8C290.9,625.5 284.0,619.1 277.6,614.3C271.9,610.0 263.2,604.3 258.3,601.7C253.4,599.1 246.5,594.3 242.9,591.2C239.3,588.1 234.6,583.5 232.3,581.0C230.1,578.5 227.9,575.5 227.6,574.2C227.1,572.8 227.3,572.0 228.1,572.0C228.8,572.0 231.4,573.2 233.9,574.7C236.4,576.1 240.3,578.7 242.5,580.4C244.7,582.0 249.6,586.1 253.3,589.3C257.0,592.6 260.4,595.0 260.7,594.6C261.1,594.3 259.7,588.0 257.7,580.7C255.6,573.5 251.2,556.5 247.9,543.0C244.6,529.5 240.1,512.0 237.9,504.1C235.7,496.2 233.1,487.8 232.1,485.5C230.8,482.5 228.9,480.4 225.8,478.6C223.2,477.1 216.1,474.9 208.1,473.1C200.0,471.2 193.0,469.0 190.3,467.4C187.8,466.0 184.1,463.1 182.0,461.0C179.9,458.9 175.5,452.8 172.1,447.4C168.7,441.9 165.2,436.4 164.3,435.1C162.6,432.8 162.6,432.8 172.6,433.5C178.0,433.8 185.8,435.0 189.8,436.1C193.9,437.2 199.0,439.0 201.2,440.1C203.5,441.3 207.7,444.5 210.7,447.3C216.0,452.3 216.0,452.3 216.0,449.3C216.0,447.7 215.1,441.5 214.0,435.4C212.9,429.4 211.0,420.0 209.8,414.6C207.8,405.5 207.3,404.5 204.6,403.1C202.9,402.2 199.8,399.9 197.8,397.9C194.5,394.7 194.0,393.6 194.0,389.7C194.0,387.2 194.7,382.5 195.5,379.4C196.3,376.3 197.2,373.5 197.5,373.2C197.7,372.9 198.4,373.9 198.9,375.3C199.4,376.7 201.4,379.8 203.2,382.3C205.0,384.8 206.9,386.7 207.5,386.6C208.1,386.4 208.3,384.3 208.2,381.9C208.0,379.6 206.6,374.4 205.1,370.5C203.5,366.7 201.3,360.4 200.2,356.5C199.1,352.6 196.7,343.9 195.0,337.0C193.3,330.1 191.2,322.8 190.3,320.8C189.4,318.7 187.7,316.4 186.4,315.5C185.1,314.7 182.9,311.9 181.4,309.4C179.9,306.9 178.4,302.9 177.9,300.7C177.5,298.4 177.4,296.3 177.6,296.1C177.8,295.8 179.6,297.2 181.5,299.0C183.4,300.9 185.0,301.9 185.0,301.2C185.0,300.5 182.6,293.1 179.6,284.8C176.6,276.4 172.7,265.8 171.0,261.3C169.2,256.7 167.4,252.7 166.8,252.4C166.2,252.0 163.3,251.6 160.2,251.3C156.5,251.1 153.1,250.1 150.2,248.4C146.8,246.4 145.2,244.5 143.2,240.1C141.2,235.9 140.6,232.9 140.6,228.0C140.6,223.0 141.3,220.0 143.4,215.3C145.6,210.5 147.0,208.8 149.7,207.5C151.7,206.5 156.8,205.6 161.2,205.3C169.1,204.7 169.1,204.7 174.4,210.1C177.2,213.1 180.7,217.8 182.0,220.5C183.3,223.2 184.6,227.8 184.8,230.7C185.2,235.0 184.8,236.7 182.7,240.2C181.3,242.6 178.8,245.5 177.1,246.8C175.4,248.0 174.0,249.9 174.0,251.0C174.0,252.0 176.5,260.0 179.6,268.7C182.7,277.4 187.2,289.2 189.7,294.8C192.2,300.7 194.6,307.9 195.1,311.5C195.6,315.0 198.7,328.5 202.0,341.7C207.1,362.0 208.9,367.2 213.6,376.7C216.6,382.9 219.3,389.4 219.6,391.2C219.9,393.0 219.5,395.5 218.8,396.6C218.1,397.8 216.7,400.1 215.7,401.9C214.0,404.9 214.0,405.5 218.5,430.7C221.0,444.9 223.9,459.4 225.0,463.0C226.1,466.6 227.6,470.5 228.5,471.8C229.4,473.0 230.5,474.0 231.1,474.0C231.6,474.0 232.0,470.3 232.0,465.8C232.0,460.6 232.4,458.1 232.9,459.0C233.4,459.8 234.8,464.8 235.9,470.0C237.1,475.2 239.6,485.8 241.5,493.5C243.4,501.2 248.3,520.5 252.4,536.5C256.5,552.5 262.2,572.0 265.0,580.0C267.8,587.9 271.1,596.1 272.2,598.2C273.4,600.3 274.9,601.9 275.4,601.7C276.0,601.5 276.4,600.0 276.2,598.4C276.0,596.8 275.3,592.1 274.5,588.0C273.7,583.9 272.6,576.8 271.9,572.4C271.3,567.9 271.0,563.4 271.3,562.4C271.6,561.1 273.4,564.0 276.8,571.0C280.3,578.3 281.7,580.4 281.3,578.0C281.0,576.1 280.1,571.8 279.3,568.5C278.5,565.2 275.8,556.2 273.4,548.5C270.9,540.8 264.6,518.1 259.4,498.0C254.2,477.9 248.1,454.8 246.0,446.5C243.8,438.2 240.2,423.2 238.0,413.0C235.7,402.8 232.0,385.3 229.9,374.0C227.7,362.7 224.1,344.3 222.0,333.0C219.8,321.7 216.5,303.3 214.6,292.0C212.7,280.7 210.0,264.1 208.5,255.0C207.1,245.9 205.0,233.6 204.0,227.5C202.9,221.4 200.4,207.1 198.5,195.5C196.5,183.9 193.6,167.1 191.9,158.0C190.3,148.9 188.5,140.1 187.9,138.4C186.9,135.2 186.9,135.2 175.7,134.8C166.4,134.5 163.6,134.0 159.0,131.8C156.0,130.4 150.7,126.9 147.3,124.0C143.5,120.8 140.2,116.9 138.9,114.2C137.2,110.9 136.6,107.2 136.2,100.1C136.0,94.6 136.2,88.7 136.9,86.3C137.5,84.1 139.8,79.6 141.9,76.3C144.3,72.7 148.4,68.6 152.5,65.6C156.1,63.0 162.1,59.7 165.8,58.4C170.9,56.6 174.6,56.0 181.5,56.0C188.5,56.0 192.1,56.6 197.3,58.5C201.1,59.8 206.7,62.4 209.7,64.2C212.7,66.0 217.0,69.5 219.1,71.9C221.3,74.3 223.5,78.1 224.1,80.4C224.7,82.7 225.9,87.1 226.7,90.2C227.6,93.3 228.0,97.6 227.8,99.8C227.5,102.0 226.4,105.4 225.4,107.5C224.5,109.6 221.3,113.8 218.4,116.9C215.5,120.0 211.0,123.8 208.3,125.2C205.7,126.6 201.5,128.3 199.1,129.0C194.7,130.2 194.7,130.2 195.3,136.3C195.6,139.7 197.5,152.4 199.5,164.5C201.5,176.6 207.8,215.1 213.6,250.0C219.4,284.9 227.9,332.4 232.5,355.5C237.1,378.6 244.3,411.9 248.4,429.5C252.6,447.1 258.3,470.3 261.1,481.0C264.0,491.7 268.0,506.8 270.1,514.5C272.1,522.2 276.1,535.2 278.9,543.5C281.8,551.8 286.7,567.0 290.0,577.5C293.2,588.0 297.5,602.6 299.5,610.0C301.5,617.4 304.2,625.9 305.5,628.8C306.8,631.6 308.2,634.0 308.6,634.0C309.0,634.0 309.0,630.0 308.7,625.0C308.4,620.1 308.5,615.8 308.9,615.5C309.4,615.3 311.2,617.6 312.9,620.8C316.1,626.5 316.1,626.5 315.6,622.5C315.3,620.3 313.0,612.3 310.5,604.6C308.0,597.0 306.1,590.5 306.4,590.3C306.7,590.0 308.9,592.9 311.3,596.6C313.8,600.4 317.4,606.7 319.3,610.6C321.3,614.5 323.8,620.4 324.9,623.6C326.0,626.9 327.8,636.5 329.0,645.0C330.2,653.5 331.5,661.1 332.0,661.9C332.7,663.2 332.9,663.0 333.4,661.0C333.7,659.6 335.1,650.2 336.5,640.0C338.9,622.4 339.5,620.2 348.2,594.5C353.2,579.6 359.4,562.1 362.0,555.5C364.7,548.9 367.1,542.5 367.5,541.2C367.9,539.9 367.7,539.0 367.1,539.0C366.5,539.0 364.2,541.5 361.9,544.6C359.5,547.6 355.7,554.0 353.3,558.8C351.0,563.6 349.0,567.0 349.0,566.4C349.0,565.8 350.1,562.2 351.4,558.4C352.7,554.5 354.5,549.8 355.5,547.9C356.5,546.0 359.6,541.1 362.3,537.0C365.1,532.9 369.8,526.9 372.8,523.8C375.8,520.6 378.7,518.0 379.3,518.0C379.8,518.0 379.9,519.2 379.5,520.8C379.1,522.3 376.8,528.2 374.4,533.9C372.0,539.6 368.2,550.8 366.0,558.8C363.8,566.8 362.0,574.2 362.0,575.3C362.0,577.2 362.1,577.3 364.0,575.5C365.5,574.1 366.0,574.0 366.0,575.1C366.0,575.9 364.7,581.2 363.0,586.9C361.4,592.6 359.6,600.6 359.0,604.7C358.5,608.8 358.0,612.6 358.0,613.2C358.0,613.8 359.0,613.5 360.2,612.4C361.3,611.4 363.5,607.8 365.0,604.5C366.5,601.2 369.1,593.8 370.8,588.0C372.5,582.2 376.2,568.4 379.0,557.3C381.8,546.1 385.0,534.2 386.1,530.8C387.3,527.4 389.2,522.5 390.5,520.0C391.8,517.5 393.6,514.6 394.5,513.5C396.0,511.6 396.1,511.8 395.6,517.5C395.3,520.8 394.4,527.3 393.5,532.0C392.6,536.7 391.8,543.2 391.7,546.5C391.6,550.7 392.4,555.0 394.4,561.0C396.0,565.7 398.1,571.9 399.2,574.8C400.3,577.6 401.7,580.0 402.4,580.0C403.2,580.0 404.3,579.4 404.9,578.6C405.5,577.9 406.7,572.3 407.5,566.3C408.3,560.2 409.7,552.5 410.6,549.0C412.0,544.1 412.5,543.2 413.1,544.9C413.6,546.0 414.4,551.6 415.1,557.4C415.7,563.2 416.8,568.8 417.6,569.7C418.3,570.7 419.2,571.1 419.7,570.7C420.1,570.2 420.5,542.5 420.4,509.2C420.4,475.8 420.1,447.4 419.7,446.0C419.1,443.7 418.3,443.3 411.8,442.3C407.7,441.7 401.8,440.2 398.7,439.0C395.5,437.8 391.0,435.4 388.7,433.6C386.4,431.9 383.5,428.6 382.3,426.5C381.1,424.3 379.5,420.1 378.9,417.2C377.9,413.1 377.9,410.5 378.9,405.3C379.6,401.7 381.0,396.9 382.2,394.6C383.4,392.4 387.3,387.6 390.9,384.0C395.8,379.1 399.0,376.8 403.3,375.2C407.8,373.5 411.3,373.0 418.5,373.0C423.6,373.0 430.0,373.4 432.8,374.0C435.6,374.5 440.0,375.9 442.7,377.2C445.3,378.4 449.8,381.8 452.6,384.6C455.4,387.5 458.8,392.0 460.1,394.7C461.7,398.0 462.6,401.8 462.8,406.7C463.1,411.6 462.7,415.4 461.6,418.8C460.6,421.6 458.1,425.8 456.0,428.2C453.9,430.7 449.5,434.0 446.3,435.7C443.1,437.4 438.0,439.5 434.9,440.4C431.8,441.3 428.9,442.7 428.6,443.6C428.3,444.5 428.0,469.3 428.1,498.8C428.2,528.3 428.5,556.3 428.8,561.0C429.5,569.5 429.5,569.5 439.7,570.1C447.1,570.6 451.0,571.3 454.3,572.9C456.8,574.1 462.7,578.8 467.6,583.3C472.4,587.8 479.0,594.6 482.3,598.4C488.3,605.4 488.3,605.4 487.6,577.4C487.2,562.1 486.3,540.3 485.5,529.0C484.7,517.7 483.6,498.1 482.9,485.5C482.3,472.9 481.7,444.5 481.6,422.5C481.6,400.5 481.9,377.3 482.3,370.9C483.1,359.2 483.1,359.2 477.5,357.5C474.4,356.5 470.1,354.4 468.0,352.9C465.8,351.3 463.1,348.2 462.0,346.1C460.6,343.2 460.0,340.1 460.0,335.5C460.0,330.4 460.6,327.6 462.6,323.4C464.0,320.4 467.5,315.6 470.3,312.8C473.1,310.0 476.9,307.1 478.9,306.3C481.6,305.1 484.6,305.0 492.4,305.5C500.6,306.0 503.2,306.6 506.2,308.6C508.2,309.9 511.2,312.9 512.8,315.2C514.4,317.6 516.4,321.4 517.3,323.8C518.2,326.1 519.0,330.6 519.0,333.8C519.0,337.7 518.2,341.1 516.6,344.5C515.3,347.4 512.2,351.4 509.5,353.8C506.6,356.3 503.4,358.2 501.1,358.6C499.1,358.9 496.0,359.5 494.1,359.9C491.4,360.4 490.4,361.2 489.8,363.5C489.3,365.2 488.6,377.1 488.2,390.0C487.8,402.9 487.8,427.7 488.2,445.0C488.7,462.3 490.1,494.3 491.5,516.0C492.9,537.7 494.7,567.4 495.5,582.0C496.3,596.6 497.5,611.6 498.0,615.5C498.6,619.4 499.7,624.8 500.4,627.5C501.2,630.2 502.2,633.9 502.6,635.5C503.2,637.4 503.7,625.8 504.1,604.0C504.6,569.5 504.6,569.5 507.7,560.2C509.4,555.1 512.3,548.5 514.1,545.5C515.9,542.5 517.8,540.0 518.2,540.0C518.6,540.0 519.0,540.2 519.0,540.5C519.0,540.8 517.2,546.7 514.9,553.7C512.7,560.6 510.5,568.8 510.0,571.9C509.6,575.1 509.4,578.8 509.7,580.3C510.0,581.8 510.8,583.0 511.4,583.0C512.2,583.0 512.4,587.5 512.2,599.8C512.0,609.0 512.0,617.9 512.2,619.5C512.5,622.5 512.5,622.5 515.1,617.6C517.7,612.7 517.7,612.7 518.3,622.0C518.7,627.1 519.0,633.5 519.0,636.1C519.0,638.7 519.5,641.2 520.0,641.5C520.5,641.8 521.0,642.0 521.0,641.8C521.0,641.6 522.8,632.6 525.0,621.8C527.2,611.0 530.0,599.5 531.2,596.3C533.3,590.9 533.5,590.7 533.8,593.6C534.0,595.3 533.2,603.8 532.0,612.6C530.8,621.3 529.6,636.8 529.3,647.0C529.0,659.2 529.2,666.4 529.9,668.2C530.5,669.8 531.4,671.0 531.9,671.0C532.4,671.0 533.6,668.0 534.4,664.2C535.3,660.5 536.5,650.8 537.0,642.5C537.5,634.2 538.5,620.0 539.0,610.8C539.6,601.6 540.7,589.8 541.5,584.4C542.3,579.1 543.5,573.0 544.2,570.9C544.9,568.4 545.6,567.4 546.1,568.1C546.5,568.8 546.7,579.5 546.4,591.9C546.0,614.5 546.0,614.5 548.4,609.5C549.7,606.8 551.5,601.8 552.4,598.5C553.3,595.2 555.6,584.0 557.5,573.5C559.5,563.0 562.2,549.1 563.6,542.5C565.1,535.9 567.6,525.8 569.2,520.1C570.8,514.4 574.3,504.1 577.0,497.1C579.6,490.2 584.7,478.2 588.4,470.6C592.0,462.9 595.0,456.2 595.0,455.6C595.0,454.9 593.5,453.6 591.8,452.6C590.0,451.6 587.2,449.5 585.7,448.1C584.1,446.7 582.1,444.2 581.3,442.6C580.5,441.0 579.8,437.2 579.7,434.1C579.7,431.0 580.3,427.3 581.0,426.0C581.7,424.6 583.4,422.0 584.8,420.3C586.1,418.5 589.5,416.0 592.3,414.6C597.1,412.4 598.2,412.3 605.3,413.0C609.6,413.5 616.2,414.8 619.8,415.9C624.4,417.3 627.5,419.0 629.7,421.2C631.4,423.0 633.4,425.8 633.9,427.3C634.5,428.9 635.0,432.2 635.0,434.8C635.0,437.6 634.0,441.5 632.6,444.5C631.3,447.2 629.0,450.7 627.4,452.2C625.8,453.7 622.7,455.7 620.5,456.6C618.0,457.7 613.8,458.4 609.0,458.4C601.5,458.5 601.5,458.5 597.3,466.5C595.0,470.9 591.0,479.2 588.5,484.9C586.0,490.6 581.9,501.1 579.5,508.1C577.1,515.1 573.7,527.1 572.1,534.7C570.4,542.3 567.7,556.4 566.0,566.0C564.4,575.6 563.0,583.6 563.0,583.8C563.0,584.0 563.4,583.9 564.0,583.5C564.5,583.2 568.2,577.0 572.1,569.7C576.1,562.4 582.2,552.3 585.7,547.1C589.2,542.0 592.5,535.9 593.1,533.6C594.0,530.3 595.9,528.0 602.5,522.1C607.1,518.1 614.1,512.8 618.1,510.3C622.2,507.9 626.5,505.7 627.8,505.3C629.1,505.0 630.3,505.0 630.6,505.3C630.9,505.6 628.5,510.5 625.3,516.1C622.1,521.8 617.5,528.6 615.0,531.3C611.3,535.3 609.2,536.6 603.5,538.4C597.4,540.4 596.0,541.3 592.7,545.6C590.6,548.3 585.3,557.7 580.8,566.5C576.4,575.3 568.3,589.3 562.9,597.6C556.4,607.6 551.8,616.0 549.4,622.1C547.4,627.2 545.6,633.9 545.3,637.0C544.8,642.5 544.8,642.5 546.9,640.0C548.0,638.6 552.1,631.6 556.1,624.5C560.1,617.4 565.9,607.7 569.1,603.0C572.3,598.3 577.4,592.1 580.4,589.1C583.5,586.1 586.3,583.9 586.6,584.3C587.0,584.7 584.9,589.8 581.9,595.6C578.9,601.5 576.3,606.8 576.1,607.4C575.9,608.0 578.0,606.5 580.8,604.1C583.7,601.8 586.0,600.0 586.0,600.2C586.0,600.3 584.9,603.6 583.6,607.5C582.2,611.3 581.3,614.6 581.5,614.8C581.7,615.0 582.8,614.9 583.9,614.5C585.0,614.2 588.7,609.9 592.0,605.1C595.3,600.2 601.6,592.0 606.0,586.9C610.4,581.7 617.0,574.9 620.7,571.7C624.5,568.5 629.2,565.0 631.2,563.9C633.3,562.9 635.4,562.0 636.0,562.0C636.5,562.0 637.0,562.4 637.0,562.8C637.0,563.3 634.2,567.0 630.7,571.1C627.2,575.2 619.6,584.5 613.6,591.8C607.7,599.2 603.0,605.4 603.3,605.6C603.5,605.8 605.8,605.6 608.5,605.1C611.2,604.6 614.2,604.5 615.3,604.9C617.3,605.7 617.3,605.7 615.2,607.8C614.1,608.9 608.0,611.5 601.3,613.5C594.8,615.6 584.5,619.6 578.5,622.5C571.9,625.7 566.1,629.2 564.1,631.4C562.0,633.6 561.2,635.0 562.1,635.0C562.8,634.9 564.6,634.3 566.0,633.5C567.4,632.7 568.8,632.1 569.3,632.0C569.7,632.0 566.7,636.2 562.6,641.2C558.5,646.3 554.1,652.2 553.0,654.2C551.8,656.3 551.2,658.0 551.7,658.0C552.1,658.0 561.1,651.0 571.7,642.5C583.1,633.4 593.8,625.6 598.0,623.5C602.7,621.1 607.3,619.7 612.2,619.1C616.2,618.5 623.4,617.8 628.2,617.5C633.1,617.1 637.0,617.2 637.0,617.7C637.0,618.1 632.4,621.6 626.8,625.4C621.1,629.2 612.3,635.4 607.2,639.3C602.2,643.1 598.0,646.7 598.0,647.2C598.0,647.7 598.8,647.9 599.8,647.7C600.7,647.4 603.7,646.9 606.3,646.5C611.1,645.9 611.1,645.9 609.6,648.7C608.8,650.2 607.0,653.0 605.6,654.9C604.2,656.8 603.0,658.8 603.0,659.2C603.0,659.6 603.5,660.0 604.0,660.0C604.6,660.0 612.5,652.8 621.5,644.1C630.5,635.3 640.0,626.9 642.4,625.5C644.9,624.0 647.7,623.0 648.6,623.2C649.7,623.4 648.8,625.0 644.8,629.5C641.9,632.8 638.8,636.4 638.0,637.4C636.6,639.2 636.7,639.3 640.8,638.7C643.2,638.4 645.0,638.6 644.8,639.1C644.6,639.5 640.0,643.0 634.5,646.7C629.0,650.4 624.5,654.0 624.5,654.5C624.5,655.0 627.4,655.8 631.0,656.2C634.6,656.6 640.1,657.5 643.4,658.1C646.6,658.7 650.3,659.6 651.6,660.2C652.9,660.8 654.0,661.9 654.0,662.7C654.0,663.5 652.1,665.0 649.8,666.0C647.0,667.2 646.1,668.1 647.0,668.4C647.8,668.7 652.0,669.4 656.3,670.0C660.6,670.5 665.0,671.5 666.1,672.1C667.4,672.7 668.0,673.9 667.8,675.3C667.6,676.8 666.3,677.9 663.7,678.8C661.4,679.5 649.3,680.4 634.1,681.0C617.1,681.6 607.0,682.5 604.4,683.4C600.5,684.8 600.5,684.8 606.5,686.5C609.8,687.4 616.5,689.5 621.5,691.2C626.5,692.9 631.3,695.0 632.3,695.9C633.9,697.2 633.9,697.5 632.5,698.9C631.3,700.1 627.6,700.6 615.2,701.0C599.5,701.5 599.5,701.5 605.6,703.2C608.9,704.2 612.5,705.7 613.6,706.5C615.4,707.9 615.4,708.1 613.7,709.4C612.8,710.1 609.4,711.3 606.2,711.9C603.0,712.5 589.1,713.5 575.4,714.0C561.7,714.5 546.6,715.0 541.8,715.0C536.9,715.0 533.0,715.4 533.0,715.8C533.0,716.3 535.5,717.4 538.5,718.4C541.5,719.3 544.2,720.6 544.6,721.1C544.9,721.7 544.7,722.7 544.1,723.3C543.5,723.9 534.2,724.7 520.3,725.2C507.8,725.6 487.4,726.6 475.1,727.5C462.7,728.3 450.6,728.9 448.1,728.9zM371.0,714.9C376.3,714.8 377.8,714.6 376.0,714.0C374.6,713.6 370.6,713.2 367.0,713.1C362.5,713.1 361.0,713.3 362.0,714.0C362.8,714.5 366.9,714.9 371.0,714.9zM424.0,711.0C424.5,711.0 431.1,710.1 438.7,709.0C446.3,707.9 455.2,706.3 458.4,705.5C461.7,704.6 466.6,702.7 469.4,701.2C472.2,699.7 477.2,695.7 480.6,692.4C485.2,687.8 488.0,683.9 491.4,676.9C493.9,671.7 496.1,666.6 496.2,665.5C496.4,664.3 495.8,663.4 494.8,663.2C493.8,663.0 489.3,666.2 483.8,671.0C478.7,675.4 471.0,681.7 466.6,685.1C462.3,688.4 458.5,690.9 458.3,690.6C458.0,690.4 459.4,687.8 461.3,684.8C463.2,681.9 467.8,676.6 471.6,673.0C475.4,669.4 480.1,665.2 482.0,663.8C483.9,662.3 485.2,660.9 484.9,660.6C484.6,660.3 479.9,659.4 474.4,658.5C469.0,657.6 457.1,656.7 448.0,656.3C432.8,655.8 431.1,655.9 425.8,657.9C422.7,659.1 419.6,660.7 419.0,661.5C417.9,662.8 420.2,663.0 436.6,663.1C455.5,663.1 455.5,663.1 450.5,667.3C447.8,669.6 443.3,673.7 440.6,676.5C438.0,679.2 434.2,683.9 432.4,686.7C430.5,689.6 428.5,693.1 428.0,694.5C427.2,696.7 428.1,696.2 433.6,691.6C437.2,688.5 441.5,685.3 443.1,684.5C444.7,683.6 446.0,683.3 446.0,683.7C446.0,684.2 440.8,690.1 434.5,697.0C428.2,703.9 423.0,709.8 423.0,710.2C423.0,710.7 423.4,711.0 424.0,711.0zM232.9,693.3C237.3,691.9 244.3,690.6 251.7,690.0C258.2,689.5 270.6,689.0 279.2,689.0C289.4,689.0 297.4,688.5 302.2,687.5C306.2,686.6 309.9,685.5 310.4,685.0C310.9,684.5 308.4,683.3 304.5,682.1C300.8,680.9 293.7,679.3 288.6,678.4C283.6,677.5 279.1,676.4 278.7,676.0C278.2,675.6 279.5,674.7 281.6,674.0C284.2,673.1 288.6,672.9 295.4,673.3C301.0,673.6 308.9,674.8 313.0,675.9C317.1,677.0 320.9,678.0 321.4,678.0C321.9,678.0 321.2,677.1 319.8,676.1C318.5,675.0 314.6,673.0 311.1,671.6C307.6,670.2 301.4,668.3 297.4,667.5C293.4,666.7 288.2,666.0 285.8,666.0C283.4,666.1 278.1,666.7 273.9,667.4C269.7,668.2 262.6,670.4 258.2,672.3C253.7,674.3 246.9,677.9 243.1,680.4C239.3,683.0 233.9,687.1 231.1,689.6C228.3,692.1 226.0,694.5 226.0,694.9C226.0,695.3 229.1,694.6 232.9,693.3zM327.8,695.2C328.7,694.8 331.3,693.5 333.5,692.3C335.7,691.1 338.6,689.2 340.0,688.1C341.4,687.0 342.2,685.8 341.8,685.5C341.4,685.1 339.8,685.1 338.1,685.5C336.5,685.8 333.1,687.9 330.6,690.1C328.1,692.4 326.0,694.6 326.0,695.1C326.0,695.5 326.8,695.6 327.8,695.2zM513.2,689.0C513.7,689.0 514.0,688.6 514.0,688.0C514.0,687.5 512.4,685.2 510.3,683.0C508.3,680.7 505.8,678.4 504.8,677.9C503.8,677.4 502.4,677.2 501.8,677.6C501.1,678.1 502.8,680.2 506.6,683.6C509.8,686.6 512.8,689.0 513.2,689.0zM361.0,682.2C363.2,679.8 367.4,674.1 370.4,669.7C373.3,665.2 379.2,656.1 383.5,649.5C387.8,642.9 396.2,630.5 402.3,622.0C408.3,613.5 416.4,602.7 420.3,598.1C424.1,593.6 431.0,586.6 435.6,582.7C440.2,578.8 444.0,575.2 444.0,574.7C444.0,574.2 442.0,574.1 439.2,574.4C436.6,574.8 430.3,576.2 425.3,577.5C420.2,578.9 412.8,581.3 408.9,583.0C405.0,584.6 398.0,588.5 393.3,591.6C388.5,594.6 381.3,600.6 377.1,604.9C372.9,609.1 366.2,617.4 362.2,623.4C357.7,630.2 354.2,636.7 353.0,640.8C351.9,644.3 351.0,647.9 351.0,648.8C351.0,649.7 353.9,646.1 357.4,640.9C361.0,635.8 366.2,629.0 369.0,626.0C371.8,623.0 373.8,621.4 373.4,622.5C373.0,623.6 371.4,628.0 369.9,632.3C368.3,636.6 367.0,640.8 367.0,641.6C367.0,642.4 367.4,643.0 367.9,643.0C368.5,643.0 371.0,640.0 373.6,636.2C376.2,632.5 381.2,625.7 384.6,621.0C388.0,616.3 394.4,609.0 398.8,604.8C403.2,600.5 407.1,597.0 407.5,597.0C407.9,597.0 407.4,598.2 406.5,599.8C405.5,601.3 403.9,603.4 403.0,604.5C402.0,605.6 398.3,611.0 394.7,616.5C391.1,622.0 386.2,630.1 383.8,634.5C381.3,638.9 375.6,648.5 371.2,655.9C366.7,663.2 361.7,672.5 360.0,676.6C358.4,680.6 357.0,684.5 357.0,685.2C357.1,685.9 358.9,684.5 361.0,682.2zM528.8,683.5C529.0,682.0 528.1,679.1 526.7,676.7C525.3,674.4 521.8,670.0 518.8,667.0C515.9,663.9 507.9,657.0 501.0,651.5C494.1,646.0 483.4,636.6 477.2,630.5C470.9,624.5 464.9,618.3 463.8,616.7C461.7,613.8 461.7,613.8 466.9,616.5C469.8,617.9 472.5,618.8 473.1,618.4C473.7,618.1 473.0,616.0 471.5,613.3C470.0,610.9 469.0,608.6 469.3,608.4C469.6,608.1 471.5,610.0 473.5,612.7C475.5,615.3 480.8,621.3 485.3,626.0C491.4,632.4 493.6,634.1 493.8,632.7C494.0,631.7 492.8,628.0 491.1,624.5C489.5,620.9 486.8,616.1 485.1,613.7C483.5,611.3 479.4,606.0 476.0,601.9C472.5,597.8 466.3,590.8 462.0,586.2C457.2,581.2 453.4,578.0 452.2,578.0C451.1,578.0 448.7,579.2 447.0,580.7C445.2,582.2 441.1,586.4 437.9,590.2C434.7,594.0 432.0,597.5 432.0,598.0C432.0,598.5 434.4,600.5 437.3,602.4C440.2,604.3 451.4,614.3 462.0,624.6C472.7,634.8 485.4,646.7 490.1,650.9C494.8,655.1 502.4,661.7 507.1,665.7C511.7,669.6 518.4,675.8 522.0,679.5C528.2,685.8 528.5,686.0 528.8,683.5zM543.0,682.8C545.8,680.8 547.0,680.6 558.3,680.8C565.0,680.8 572.5,680.6 575.0,680.2C579.5,679.5 579.5,679.5 576.7,677.6C574.7,676.2 571.4,675.5 565.9,675.2C561.5,674.9 557.8,674.4 557.5,674.0C557.3,673.6 560.2,671.0 563.9,668.1C567.7,665.3 573.4,660.1 576.6,656.7C579.8,653.2 585.2,647.3 588.6,643.5C591.9,639.6 595.0,635.8 595.5,635.0C596.2,633.9 595.6,634.0 593.5,635.4C591.8,636.4 587.8,639.2 584.5,641.5C581.2,643.9 574.5,649.3 569.5,653.5C564.5,657.8 557.2,664.5 553.1,668.4C549.1,672.3 544.5,677.3 542.9,679.4C541.3,681.5 540.0,683.7 540.0,684.2C540.0,684.7 541.4,684.1 543.0,682.8zM392.4,684.0C392.6,684.0 395.4,682.6 398.5,681.0C403.9,678.1 404.8,678.0 416.5,678.0C424.5,678.0 429.1,677.6 429.6,676.9C429.9,676.3 429.6,675.4 428.9,674.9C428.1,674.4 423.4,673.1 418.5,671.8C412.4,670.3 405.3,669.5 396.4,669.2C383.4,668.8 383.4,668.8 380.1,672.5C378.3,674.5 377.1,676.4 377.4,676.7C377.6,677.0 380.2,676.7 383.0,676.1C385.8,675.5 390.1,675.0 392.5,675.0C395.0,675.0 397.0,675.4 397.0,675.8C397.0,676.2 395.9,678.1 394.5,680.0C393.1,681.9 392.0,683.5 392.0,683.7C392.0,683.9 392.2,684.0 392.4,684.0zM170.0,670.5C173.0,670.1 182.5,669.5 191.0,669.0C199.5,668.6 206.9,668.5 207.5,668.8C208.2,669.1 208.2,668.9 207.5,668.2C206.9,667.6 205.4,667.0 204.0,666.8C202.6,666.7 201.6,666.1 201.7,665.5C201.8,665.0 203.6,664.0 205.7,663.2C207.8,662.4 214.2,661.6 220.0,661.3C225.8,661.0 234.8,661.3 240.0,661.8C245.2,662.4 249.7,662.6 249.9,662.4C250.1,662.2 247.0,660.5 242.9,658.5C238.9,656.6 235.0,655.0 234.3,655.0C233.6,655.0 233.0,654.5 233.0,653.8C233.0,653.0 236.6,652.9 246.2,653.3C259.5,653.9 259.5,653.9 255.6,651.8C253.4,650.7 248.0,649.1 243.6,648.3C238.3,647.4 232.9,647.1 228.0,647.5C223.9,647.8 216.6,648.9 211.9,650.0C207.2,651.0 199.1,653.5 193.9,655.5C188.7,657.5 181.6,660.7 178.0,662.7C174.4,664.7 169.9,667.4 168.0,668.8C164.5,671.2 164.5,671.2 170.0,670.5zM392.6,659.2C393.7,658.6 398.6,654.6 403.5,650.3C409.8,644.9 412.0,642.4 410.8,642.2C409.8,642.0 407.5,642.6 405.5,643.6C403.6,644.5 400.3,647.3 398.2,649.9C396.0,652.4 393.5,655.8 392.4,657.4C390.6,660.3 390.6,660.3 392.6,659.2zM448.9,647.0C449.8,647.0 449.1,645.6 447.0,643.5C443.6,640.0 443.6,640.0 446.9,640.0C448.7,640.0 453.0,640.7 456.4,641.6C459.7,642.5 464.7,644.1 467.3,645.2C469.9,646.3 472.4,646.9 472.8,646.5C473.2,646.1 471.5,644.0 469.0,641.8C466.5,639.5 461.8,636.4 458.5,634.9C455.1,633.3 448.3,631.4 442.8,630.5C434.8,629.1 431.4,629.0 422.4,629.9C416.4,630.5 411.2,631.4 410.6,632.0C410.0,632.6 410.2,633.1 411.1,633.4C411.9,633.7 415.6,634.8 419.5,635.9C423.4,637.0 431.2,640.0 437.0,642.5C442.8,644.9 448.2,647.0 448.9,647.0zM450.8,628.4C451.0,628.3 450.6,627.1 449.9,625.8C449.2,624.6 446.2,620.7 443.2,617.2C440.2,613.8 435.6,609.4 432.9,607.4C430.2,605.5 427.6,604.1 427.1,604.5C426.5,604.8 426.3,608.6 426.7,613.8C427.0,618.6 427.7,623.5 428.1,624.8C428.8,626.7 429.7,627.0 434.7,627.1C437.9,627.1 442.8,627.5 445.5,627.9C448.2,628.3 450.6,628.5 450.8,628.4zM333.1,616.8C332.6,617.7 331.4,616.3 329.2,612.2C327.4,608.9 321.9,600.7 316.9,593.9C311.9,587.1 305.6,578.4 303.0,574.5C300.4,570.6 296.8,564.6 295.1,561.1C293.3,557.7 292.1,554.6 292.4,554.2C292.7,553.9 296.0,556.8 299.7,560.6C303.5,564.4 309.1,570.7 312.1,574.6C315.2,578.4 319.5,584.3 321.6,587.6C325.5,593.5 325.5,593.5 325.8,588.5C326.0,585.8 325.4,577.2 324.6,569.5C323.8,561.8 322.6,549.2 322.0,541.5C321.4,533.8 320.0,519.6 319.0,509.9C317.9,500.2 315.4,480.9 313.5,466.9C311.5,452.9 308.6,431.8 306.9,420.0C305.3,408.2 302.9,391.1 301.5,382.0C300.1,372.9 297.4,353.8 295.5,339.5C293.6,325.2 291.3,308.3 290.4,302.0C289.4,293.9 288.4,290.1 287.3,289.2C286.4,288.6 284.6,288.0 283.4,288.0C282.1,288.0 278.8,287.5 275.9,286.9C273.0,286.3 269.5,284.7 267.8,283.1C265.7,281.3 264.7,279.2 264.3,276.3C263.7,272.0 263.7,272.0 258.6,272.6C254.3,273.1 252.5,272.8 248.9,271.0C246.5,269.7 243.1,267.6 241.3,266.3C239.5,264.9 236.8,261.7 235.2,259.2C233.5,256.6 231.9,253.1 231.5,251.3C231.1,249.2 231.4,247.1 232.5,245.1C233.3,243.4 236.6,240.1 239.8,237.8C245.2,233.8 245.4,233.6 243.0,232.9C241.6,232.5 238.7,232.2 236.6,232.1C234.4,232.0 230.7,231.1 228.4,229.9C225.0,228.3 223.8,227.0 222.4,223.4C221.2,220.2 220.9,217.1 221.2,211.8C221.5,207.3 222.6,202.4 224.0,199.2C225.2,196.3 227.1,193.5 228.1,193.0C229.1,192.4 232.1,192.0 234.9,192.0C237.6,192.0 240.2,191.6 240.5,191.0C240.8,190.5 239.3,188.1 237.0,185.7C234.8,183.3 233.0,180.6 233.0,179.8C233.0,179.0 234.3,176.5 236.0,174.2C237.6,172.0 241.5,168.2 244.6,165.9C248.6,162.8 251.1,161.6 253.4,161.7C255.2,161.8 258.2,162.7 260.1,163.9C261.9,165.0 263.9,166.0 264.3,166.0C264.8,166.0 264.9,164.2 264.5,162.0C264.1,159.9 264.1,157.2 264.5,156.0C264.9,154.9 266.8,153.1 268.8,152.1C270.8,151.1 274.9,149.7 277.8,149.1C280.7,148.5 286.4,148.0 290.4,148.0C294.6,148.0 298.3,148.5 299.3,149.2C300.3,150.0 301.5,153.1 302.1,156.9C303.0,161.7 303.0,165.7 302.1,172.6C301.5,177.7 300.7,182.5 300.4,183.4C300.1,184.3 299.4,185.0 299.0,185.0C298.5,185.0 297.9,180.6 297.6,175.2C297.2,169.9 296.7,162.7 296.4,159.2C296.0,154.4 295.5,153.0 294.2,152.9C293.3,152.8 290.0,152.8 287.0,152.9C284.0,153.0 279.2,153.5 276.4,154.1C273.5,154.6 270.4,156.0 269.5,157.0C268.1,158.5 267.9,159.9 268.5,163.7C268.9,166.3 270.7,172.5 272.6,177.4C274.5,182.3 275.9,186.8 275.7,187.4C275.5,187.9 272.9,185.3 269.9,181.6C266.9,177.9 261.9,172.8 258.7,170.4C255.4,168.0 252.1,166.0 251.3,166.0C250.5,166.0 246.9,168.8 243.4,172.2C239.9,175.5 237.0,178.8 237.0,179.5C237.0,180.1 239.4,183.6 242.4,187.2C247.0,192.7 248.7,194.1 253.2,195.5C256.1,196.5 260.2,198.1 262.2,199.2C264.3,200.2 266.0,201.7 266.0,202.5C266.0,203.3 265.7,204.0 265.2,204.0C264.8,204.0 259.3,202.6 253.0,201.0C246.7,199.3 239.0,197.7 235.8,197.4C230.2,196.7 230.2,196.7 228.5,200.1C227.4,202.2 226.5,206.7 226.2,212.2C225.7,221.0 225.7,221.0 229.4,222.5C231.5,223.4 237.7,224.3 243.8,224.6C249.7,224.9 257.0,224.8 260.0,224.3C265.5,223.5 265.5,223.5 266.1,216.4C266.5,212.5 267.3,208.4 267.8,207.3C268.4,206.2 271.4,203.0 274.4,200.3C278.1,196.9 281.3,194.9 284.4,194.1C286.9,193.5 291.1,193.0 293.8,193.0C296.5,193.0 301.1,193.8 303.9,194.7C307.6,195.9 310.7,197.9 314.4,201.7C317.7,204.9 320.0,208.2 320.4,210.1C320.7,211.8 321.0,214.9 321.0,216.9C321.0,218.9 319.9,222.8 318.6,225.5C317.3,228.2 314.7,231.9 312.9,233.6C311.0,235.3 307.8,237.9 305.8,239.5C302.3,242.0 301.3,242.2 293.0,242.2C283.9,242.2 283.9,242.2 279.3,249.3C276.7,253.3 273.6,258.9 272.2,261.9C270.7,265.1 269.7,269.2 269.6,272.3C269.5,277.0 269.8,277.5 272.3,278.8C273.8,279.5 279.6,280.4 285.3,280.7C293.2,281.1 296.3,280.9 299.2,279.7C302.0,278.5 303.1,277.4 303.9,274.5C304.5,272.1 304.6,267.0 304.0,259.7C303.4,253.5 303.0,247.2 303.0,245.7C303.0,244.1 303.4,243.1 303.9,243.5C304.4,243.8 306.5,248.4 308.6,253.8C310.6,259.1 313.6,266.1 315.2,269.2C317.3,273.5 318.6,275.0 320.1,275.0C321.3,275.0 325.3,273.4 329.0,271.4C332.8,269.5 337.7,266.3 339.9,264.3C342.2,262.4 344.0,260.0 344.0,259.1C344.0,258.1 342.3,254.7 340.2,251.4C338.1,248.2 332.9,242.4 328.6,238.5C324.3,234.7 321.3,231.4 321.9,231.2C322.6,231.0 327.9,232.6 333.8,234.8C339.7,237.1 346.9,239.2 349.7,239.6C352.6,239.9 356.1,239.9 357.5,239.6C359.3,239.1 360.6,237.7 361.6,235.4C362.4,233.4 363.4,229.7 363.6,227.1C363.9,224.6 364.4,219.3 364.7,215.3C365.1,208.4 365.0,208.1 362.6,206.4C360.3,205.0 357.9,204.8 343.7,205.3C334.8,205.6 326.4,206.2 325.1,206.6C323.3,207.1 322.8,207.0 323.2,205.9C323.4,205.1 326.9,202.5 331.0,200.1C335.0,197.6 341.4,192.7 345.2,189.2C349.0,185.6 352.0,181.9 352.0,180.8C352.0,179.8 349.1,176.2 345.4,172.7C341.7,169.3 337.8,166.0 336.6,165.3C335.5,164.6 334.2,164.1 333.8,164.0C333.5,164.0 329.1,169.3 324.2,175.8C319.3,182.3 314.5,188.2 313.6,188.9C312.7,189.6 312.0,190.0 312.0,189.6C312.0,189.2 313.5,185.9 315.4,182.2C317.3,178.5 320.9,172.6 323.4,169.1C325.9,165.5 328.0,162.1 328.0,161.4C328.0,160.8 327.3,159.9 326.4,159.6C325.5,159.3 322.8,159.0 320.2,159.0C316.4,159.0 315.0,159.5 312.3,162.2C309.6,164.8 309.0,165.1 309.0,163.6C309.0,162.6 310.7,160.0 312.9,157.9C315.7,155.0 317.6,154.0 319.9,154.0C321.6,154.0 325.6,154.9 328.8,156.0C331.9,157.1 337.5,160.1 341.3,162.6C345.0,165.2 350.0,169.5 352.5,172.2C355.0,175.0 357.3,178.3 357.6,179.6C357.9,180.9 357.9,183.1 357.6,184.4C357.3,185.7 354.8,189.5 352.0,192.7C349.3,195.9 347.0,198.8 347.0,199.1C347.0,199.5 350.6,200.1 354.9,200.5C359.8,200.9 364.0,201.9 365.9,203.1C367.6,204.1 369.5,206.2 370.1,207.8C370.7,209.3 371.0,214.9 370.8,220.5C370.5,229.2 370.0,231.4 367.3,237.2C365.1,241.8 363.1,244.6 360.8,246.0C358.0,247.8 356.3,248.1 349.7,247.7C345.4,247.5 341.7,247.6 341.5,248.0C341.3,248.4 342.9,251.1 345.0,254.1C347.5,257.6 348.9,260.6 349.0,262.6C349.0,265.2 347.9,266.8 343.0,271.3C339.8,274.3 334.6,278.0 331.5,279.6C328.4,281.1 323.7,282.5 321.2,282.7C317.6,283.1 315.4,282.6 311.7,280.7C306.9,278.2 306.9,278.2 305.3,280.9C304.3,282.3 302.1,284.9 300.4,286.6C297.6,289.2 297.2,290.2 297.6,293.6C297.8,295.7 299.1,307.9 300.5,320.5C301.9,333.1 304.2,351.1 305.5,360.5C306.9,369.9 309.5,388.3 311.4,401.5C313.4,414.7 316.5,438.3 318.5,454.0C320.5,469.7 323.4,491.9 325.0,503.5C326.6,515.0 329.8,541.1 332.1,561.5C335.9,595.6 336.1,599.2 335.0,607.0C334.4,611.6 333.5,616.0 333.1,616.8zM384.7,590.0C385.0,590.0 386.8,588.9 388.7,587.4C391.3,585.4 392.0,584.2 392.0,581.5C392.0,579.7 391.0,574.0 389.9,568.8C388.7,563.7 387.3,558.7 386.8,557.6C386.0,556.1 385.6,556.0 384.9,557.1C384.4,557.9 384.0,565.6 384.0,574.2C384.0,582.9 384.3,590.0 384.7,590.0zM192.9,583.4C192.7,583.6 186.2,581.5 178.5,578.8C170.8,576.2 159.3,572.0 152.9,569.5C146.6,567.0 140.5,564.4 139.4,563.6C137.6,562.2 137.6,562.1 140.3,561.5C141.8,561.1 147.0,561.5 151.8,562.3C156.6,563.1 164.5,565.2 169.3,567.0C174.2,568.8 180.8,572.0 184.1,574.2C187.4,576.4 190.8,579.3 191.7,580.7C192.6,582.0 193.1,583.2 192.9,583.4zM529.5,583.0C529.3,583.0 528.9,582.6 528.6,582.1C528.3,581.7 528.9,571.0 530.0,558.4C531.1,545.8 533.1,519.9 534.5,500.7C535.9,481.6 537.5,454.4 538.0,440.2C538.6,426.1 539.5,404.6 540.1,392.5C540.6,380.4 541.8,364.0 542.6,356.0C543.4,348.0 545.0,335.2 546.1,327.5C547.2,319.8 549.4,307.5 551.1,300.3C552.7,293.0 554.0,286.4 554.0,285.7C554.0,285.0 551.5,283.2 548.5,281.7C545.5,280.3 541.2,277.4 539.0,275.3C536.7,273.3 534.0,270.0 532.9,267.9C531.9,265.8 530.8,261.7 530.4,258.8C530.1,255.8 530.3,250.9 530.9,247.8C531.6,244.7 533.1,240.6 534.3,238.8C535.5,237.0 538.6,234.3 541.2,232.7C543.7,231.1 547.6,229.6 549.7,229.3C552.4,228.9 554.8,229.3 557.1,230.6C559.4,231.7 562.9,232.4 567.6,232.4C574.0,232.5 575.2,232.8 578.6,235.5C580.8,237.2 585.1,239.9 588.3,241.4C592.2,243.3 595.2,245.6 597.2,248.4C599.8,252.0 600.1,253.1 599.8,258.0C599.6,261.1 598.4,265.6 597.0,268.3C595.6,271.0 592.4,275.4 589.8,278.0C586.7,281.2 583.1,283.6 579.5,284.9C576.2,286.2 571.6,287.0 568.0,287.0C564.8,287.0 561.8,287.5 561.5,288.0C561.1,288.6 560.0,292.1 559.0,295.8C558.0,299.5 556.2,307.2 555.0,312.9C553.9,318.6 552.0,329.6 551.0,337.4C549.9,345.2 548.4,358.9 547.5,368.0C546.7,377.1 545.3,404.3 544.5,428.5C543.7,452.7 542.6,478.4 542.0,485.5C541.5,492.6 540.6,507.5 540.0,518.5C539.4,529.5 538.5,543.9 538.0,550.6C537.5,557.2 536.5,565.1 535.9,568.1C535.3,571.1 533.7,575.6 532.4,578.2C531.0,580.9 529.8,583.0 529.5,583.0zM189.3,568.0C188.9,568.0 185.5,566.3 181.7,564.3C177.7,562.2 170.9,556.9 164.7,551.2C159.1,546.0 149.4,537.3 143.2,531.8C137.1,526.3 132.0,521.7 132.0,521.4C132.0,521.2 133.2,521.3 134.8,521.6C136.3,522.0 140.2,523.6 143.5,525.3C146.8,526.9 151.8,529.8 154.5,531.8C157.2,533.7 162.2,537.7 165.5,540.6C168.8,543.5 174.9,549.9 179.0,554.9C183.1,559.9 186.8,564.0 187.2,564.0C187.6,564.0 188.4,564.9 189.0,566.0C189.6,567.1 189.7,568.0 189.3,568.0zM314.8,567.5C314.6,567.6 309.2,562.2 302.8,555.4C292.9,545.0 290.9,542.3 289.6,537.9C288.7,535.0 288.0,529.7 288.0,526.1C288.1,520.0 288.2,519.6 289.6,521.5C290.4,522.6 293.9,528.7 297.2,535.0C300.6,541.3 304.5,548.3 306.0,550.5C307.5,552.7 310.2,557.4 311.9,560.9C313.7,564.3 315.0,567.3 314.8,567.5zM191.4,559.6C188.6,560.8 188.1,560.7 186.6,559.1C185.7,558.1 185.0,556.7 185.0,556.0C185.0,555.2 186.6,553.2 188.5,551.4C190.4,549.7 192.0,547.5 192.0,546.6C192.0,545.3 190.9,545.0 186.0,545.0C181.3,545.0 179.6,544.6 178.0,543.0C176.9,541.9 176.0,540.1 176.0,539.0C176.0,537.3 176.7,537.0 181.0,537.0C184.4,537.0 186.2,536.5 186.6,535.6C186.9,534.8 186.4,532.8 185.6,531.1C184.7,529.5 184.0,526.5 184.0,524.5C184.0,522.6 184.4,521.0 184.9,521.0C185.4,521.0 188.1,523.1 190.9,525.6C193.7,528.2 197.2,532.3 198.7,534.8C201.4,539.3 201.4,539.3 202.9,537.0C203.8,535.7 207.3,531.8 210.7,528.3C214.1,524.8 217.4,522.0 217.9,522.0C218.5,522.0 219.0,522.6 219.0,523.4C219.0,524.1 218.3,526.4 217.5,528.3C216.6,530.6 216.4,532.1 217.0,532.5C217.6,532.8 218.0,533.9 218.0,534.9C218.0,535.9 216.9,537.7 215.5,539.0C214.2,540.2 213.3,541.6 213.5,542.1C213.8,542.5 216.5,543.2 219.5,543.5C222.5,543.9 225.5,544.8 226.1,545.6C227.0,546.7 226.9,547.4 226.0,548.5C225.3,549.3 223.2,550.2 221.1,550.5C219.1,550.9 216.5,551.5 215.2,552.0C213.6,552.7 213.0,553.8 213.0,556.0C213.0,557.9 212.6,558.9 212.0,558.5C211.4,558.1 209.8,555.6 208.4,552.9C207.0,550.1 205.4,548.0 204.7,548.3C204.1,548.5 203.1,550.0 202.7,551.7C202.1,553.8 200.6,555.3 198.1,556.5C196.1,557.5 193.1,558.9 191.4,559.6zM481.8,561.0C481.1,561.0 479.6,560.3 478.6,559.5C477.6,558.7 473.7,556.9 470.1,555.5C466.4,554.1 461.8,551.6 459.7,549.9C457.7,548.2 454.6,544.8 452.9,542.3C451.2,539.9 447.8,532.2 445.4,525.4C443.0,518.5 441.0,512.5 441.0,512.0C441.0,511.4 441.5,511.0 442.1,511.0C442.7,511.0 446.9,513.1 451.3,515.8C455.7,518.4 462.1,523.2 465.5,526.6C469.1,530.2 473.1,535.6 475.2,539.6C477.2,543.4 479.7,549.6 480.9,553.4C482.1,557.1 483.0,560.4 483.0,560.6C483.0,560.8 482.4,561.0 481.8,561.0zM338.1,534.0C337.7,534.0 337.0,533.7 336.7,533.3C336.3,533.0 336.0,529.9 336.0,526.6C336.0,523.2 336.9,517.5 337.9,513.9C338.9,510.2 341.6,503.1 343.9,497.9C347.6,489.7 347.9,488.3 347.0,485.6C346.4,483.9 345.2,473.5 344.4,462.5C343.6,451.5 342.1,436.0 341.0,428.0C339.1,413.6 339.1,413.6 334.5,409.5C331.2,406.6 329.8,404.5 329.4,402.0C329.0,399.7 329.5,396.9 330.9,393.7C332.0,391.1 334.3,386.9 336.0,384.5C337.7,382.0 339.7,380.0 340.4,380.0C341.2,380.0 343.3,382.4 345.3,385.2C347.2,388.1 349.5,392.8 350.4,395.6C351.7,399.6 351.8,401.3 351.0,403.6C350.4,405.2 348.7,407.7 347.3,409.2C344.7,411.9 344.7,411.9 346.9,436.0C348.1,449.2 349.4,464.7 349.7,470.4C350.1,477.2 349.9,481.9 349.1,484.1C348.1,486.9 349.6,485.8 359.3,476.2C365.5,470.1 372.3,464.4 374.3,463.5C376.3,462.7 380.1,462.0 382.7,462.0C385.4,462.0 391.6,463.5 397.0,465.3C402.2,467.0 406.5,468.9 406.4,469.5C406.4,470.1 403.9,472.2 400.9,474.2C397.9,476.3 393.3,478.7 390.6,479.6C386.8,480.9 383.6,481.1 376.6,480.7C371.6,480.4 366.7,479.8 365.7,479.5C364.4,479.0 362.9,479.9 360.0,483.1C357.8,485.5 354.5,490.4 352.6,494.0C350.8,497.6 347.4,506.1 345.2,513.0C342.9,519.9 340.6,527.4 340.0,529.8C339.4,532.1 338.6,534.0 338.1,534.0zM273.9,507.0C273.5,507.0 272.8,506.5 272.4,505.8C272.0,505.2 271.7,502.2 271.6,499.1C271.6,494.7 272.3,492.1 274.9,486.8C276.7,483.2 280.4,477.8 283.1,474.8C287.6,469.8 287.9,469.7 288.0,472.1C288.0,473.5 287.1,477.2 286.1,480.3C285.0,483.4 282.0,490.6 279.4,496.4C276.8,502.3 274.3,507.0 273.9,507.0zM517.6,471.8C516.4,476.2 516.4,476.2 509.1,467.9C505.0,463.3 500.9,457.8 499.9,455.5C498.6,452.7 498.1,449.2 498.1,444.0C498.2,436.5 498.2,436.5 499.4,442.3C500.2,446.1 501.6,449.0 503.5,451.0C505.1,452.7 506.7,454.0 507.2,454.0C507.6,454.0 508.0,453.2 508.0,452.2C508.0,451.3 506.6,447.1 504.9,443.0C503.3,438.9 501.5,435.1 500.9,434.6C500.4,434.0 500.0,432.6 500.0,431.4C500.0,430.1 500.4,428.9 500.9,428.6C501.4,428.3 505.2,431.7 509.5,436.1C513.7,440.5 518.0,446.0 519.1,448.3C520.1,450.6 521.0,454.6 521.0,457.2C521.0,459.8 520.5,463.1 519.9,464.7C519.3,466.2 518.2,469.5 517.6,471.8zM381.7,472.5C384.5,472.2 388.1,471.5 389.7,470.9C392.4,469.9 392.4,469.8 390.5,468.7C389.4,468.1 385.9,467.6 382.8,467.6C378.6,467.5 376.6,468.0 375.3,469.3C373.7,470.9 373.7,471.2 375.0,472.1C375.8,472.6 378.8,472.8 381.7,472.5zM266.6,469.9C266.1,470.0 266.0,466.7 266.2,462.8C266.6,457.2 267.4,454.0 269.9,449.2C271.6,445.8 275.2,440.7 277.8,438.0C280.5,435.2 283.2,433.0 283.8,433.0C284.6,433.0 284.7,433.7 284.1,435.2C283.6,436.5 279.7,444.8 275.4,453.7C271.0,462.6 267.1,469.9 266.6,469.9zM203.2,461.9C204.8,462.0 206.0,461.8 206.0,461.5C206.0,461.2 203.0,459.0 199.2,456.7C195.5,454.3 191.6,452.0 190.5,451.6C189.4,451.1 187.0,450.4 185.2,450.0C183.5,449.6 181.8,449.5 181.5,450.0C181.3,450.4 182.3,451.8 183.8,453.2C185.3,454.6 187.7,456.5 189.2,457.5C190.7,458.4 193.9,459.8 196.2,460.5C198.6,461.3 201.7,461.9 203.2,461.9zM207.2,453.9C208.2,454.0 209.0,453.6 209.0,453.2C209.0,452.8 207.3,450.7 205.3,448.6C203.3,446.6 200.0,444.0 198.1,443.1C196.1,442.1 191.5,440.3 187.8,439.1C184.1,437.9 179.6,437.0 177.8,437.2C174.5,437.5 174.5,437.5 178.5,440.3C180.7,441.9 185.2,444.7 188.5,446.7C191.8,448.6 197.0,451.0 200.0,452.0C203.0,453.0 206.3,453.8 207.2,453.9zM610.1,440.0C610.7,440.0 612.9,438.2 614.9,436.0C616.9,433.8 618.8,432.0 619.1,432.0C619.5,432.0 620.0,433.8 620.4,436.0C620.7,438.2 621.5,440.0 622.0,440.0C622.5,440.0 623.9,438.2 625.0,436.0C626.1,433.9 627.0,430.9 627.0,429.5C627.0,428.1 625.9,425.8 624.5,424.5C622.9,422.8 621.0,422.0 618.8,422.0C616.9,422.0 614.4,421.3 613.2,420.4C611.9,419.5 609.3,418.8 607.4,418.8C605.0,418.8 603.0,419.6 601.3,421.1C599.9,422.4 597.9,425.2 596.9,427.2C595.9,429.3 595.0,431.6 595.0,432.5C595.0,433.3 595.7,434.0 596.6,434.0C597.5,434.0 598.8,434.8 599.5,435.7C600.7,437.2 601.0,437.2 604.0,434.7C605.7,433.2 607.6,432.0 608.1,432.0C608.6,432.0 609.0,433.8 609.0,436.0C609.0,438.3 609.5,440.0 610.1,440.0zM587.0,434.0C587.4,434.0 588.3,432.8 589.1,431.4C589.8,429.9 593.0,426.5 596.0,423.8C600.6,419.7 601.3,418.7 600.3,417.2C599.6,416.1 598.1,415.6 596.0,415.7C594.2,415.7 591.7,416.8 590.3,418.2C588.9,419.4 587.2,421.7 586.4,423.2C585.6,424.7 585.0,427.4 585.0,429.3C585.0,431.1 585.3,433.0 585.7,433.3C586.0,433.7 586.6,434.0 587.0,434.0zM407.9,427.5C408.4,427.3 409.0,424.9 409.4,422.4C409.7,419.8 411.8,414.3 414.0,410.3C416.2,406.2 418.0,402.2 418.0,401.5C418.0,400.7 417.2,399.9 416.2,399.6C415.3,399.4 411.4,399.0 407.5,398.8C400.5,398.5 400.5,398.5 399.6,402.9C398.8,406.4 399.0,408.4 400.4,412.4C401.4,415.2 403.3,419.9 404.7,422.8C406.0,425.7 407.5,427.8 407.9,427.5zM391.9,426.0C392.3,426.0 392.6,422.3 392.6,417.8C392.5,411.5 393.0,408.6 394.4,406.0C395.4,404.1 397.2,401.5 398.3,400.2C399.6,398.9 400.0,397.6 399.4,397.1C398.9,396.6 396.4,395.3 393.8,394.2C389.6,392.4 388.8,392.3 387.5,393.6C386.7,394.4 385.6,396.7 385.0,398.8C384.5,400.8 384.0,404.8 384.0,407.5C384.0,410.3 384.4,414.0 385.0,415.9C385.5,417.7 387.1,420.7 388.5,422.6C389.9,424.5 391.4,426.0 391.9,426.0zM427.0,426.0C427.5,426.0 428.8,423.1 430.0,419.5C431.8,414.0 432.4,413.1 433.6,414.1C434.4,414.7 435.5,417.2 436.1,419.6C436.7,422.0 437.6,424.0 438.0,424.0C438.4,424.0 439.1,423.3 439.4,422.4C439.7,421.5 440.0,418.6 440.0,416.0C440.0,413.3 439.5,408.7 438.9,405.8C438.3,402.9 437.3,399.9 436.7,399.1C435.8,398.1 433.9,397.9 428.7,398.3C424.9,398.6 421.2,399.4 420.4,400.1C419.6,400.7 419.0,402.2 419.0,403.4C419.0,404.6 420.3,409.4 421.9,414.1C423.5,418.7 425.1,423.3 425.5,424.2C425.9,425.2 426.6,426.0 427.0,426.0zM450.0,413.0C450.6,413.0 451.0,411.0 451.0,408.6C451.0,406.1 450.5,401.8 449.8,398.8C449.2,395.9 448.3,393.1 447.9,392.6C447.5,392.2 445.3,392.8 443.1,394.1C440.8,395.3 439.0,396.7 439.0,397.1C439.0,397.5 440.6,400.2 442.5,403.1C444.4,406.1 446.7,409.5 447.5,410.8C448.4,412.0 449.5,413.0 450.0,413.0zM562.8,411.1C561.8,411.6 561.0,411.8 561.0,411.4C561.0,411.0 563.0,406.5 565.4,401.4C568.1,395.6 571.7,390.1 574.6,387.0C577.3,384.1 581.1,381.0 583.2,379.9C585.2,378.9 587.2,378.0 587.6,378.0C588.0,378.0 587.5,379.0 586.4,380.2C584.8,382.0 585.3,381.9 589.5,379.4C594.1,376.8 595.5,376.5 605.8,376.1C613.8,375.9 617.0,376.1 617.0,376.9C617.0,377.6 614.5,381.1 611.6,384.8C608.6,388.5 604.5,392.8 602.5,394.3C600.5,395.9 596.9,398.0 594.5,399.1C592.0,400.2 586.1,401.5 581.4,402.1C575.7,402.7 571.8,403.7 570.0,405.0C568.5,406.0 566.7,407.6 566.0,408.5C565.3,409.4 563.8,410.6 562.8,411.1zM336.9,399.0C338.5,399.0 339.5,398.0 340.6,395.5C341.4,393.5 341.8,390.9 341.4,389.4C341.0,388.0 340.1,386.6 339.3,386.3C338.5,386.0 337.5,386.1 337.0,386.6C336.6,387.1 335.9,390.1 335.5,393.2C334.8,398.7 334.9,399.0 336.9,399.0zM583.8,395.0C585.9,395.0 589.8,394.4 592.4,393.6C595.0,392.8 599.1,390.5 601.6,388.5C604.0,386.5 606.7,383.5 607.5,381.9C609.0,379.2 608.9,379.0 607.0,379.0C605.9,379.0 602.1,380.4 598.7,382.1C595.3,383.9 589.9,387.0 586.8,389.1C583.7,391.3 580.8,393.4 580.5,394.0C580.1,394.6 581.4,395.0 583.8,395.0zM419.0,393.6C424.2,393.3 430.9,392.4 433.9,391.5C436.8,390.6 440.4,388.7 441.8,387.3C444.3,384.8 444.3,384.8 441.8,382.4C440.5,381.0 437.7,379.7 435.6,379.3C432.0,378.7 431.9,378.8 432.6,381.4C433.0,383.0 432.7,384.6 432.0,385.5C431.1,386.6 428.4,387.0 420.9,387.0C415.4,387.0 410.8,386.6 410.5,386.0C410.2,385.4 411.2,383.8 412.9,382.4C414.6,381.0 416.0,379.4 416.0,378.9C416.0,378.4 414.9,377.8 413.5,377.4C411.8,377.0 409.3,377.6 405.7,379.3C402.9,380.8 399.0,383.2 397.2,384.7C394.9,386.7 394.2,387.9 394.9,388.9C395.4,389.7 398.9,391.2 402.7,392.2C407.9,393.6 411.8,393.9 419.0,393.6zM395.5,371.0C394.6,371.0 393.5,369.8 392.9,368.2C392.3,366.7 390.0,360.8 387.8,355.0C385.6,349.2 383.4,344.1 382.9,343.5C382.2,342.8 381.4,343.1 380.4,344.4C379.6,345.5 379.0,348.2 379.0,350.5C379.0,352.7 378.2,356.1 377.1,358.0C376.1,360.0 374.4,361.6 373.1,361.8C371.8,362.0 370.8,361.5 370.3,360.3C370.0,359.3 368.9,356.6 367.8,354.2C366.2,350.6 366.1,349.3 367.0,345.9C367.6,343.6 367.9,341.2 367.6,340.4C367.3,339.6 366.2,339.0 365.1,339.0C364.0,339.0 361.0,340.8 358.5,343.0C355.9,345.2 353.4,346.8 352.9,346.5C352.4,346.1 352.0,345.5 352.0,345.1C352.0,344.6 353.5,342.0 355.4,339.2C357.3,336.5 358.6,333.9 358.3,333.6C357.9,333.3 353.9,333.0 349.3,333.0C344.8,333.0 341.0,332.6 341.0,332.2C341.0,331.7 341.8,330.6 342.8,329.8C343.7,328.9 346.5,327.1 349.0,325.7C353.4,323.2 353.5,323.1 353.2,318.7C352.9,315.2 353.3,313.8 355.2,311.9C356.5,310.5 357.2,309.9 356.8,310.4C356.3,311.0 356.0,312.2 356.0,313.1C356.0,314.2 357.3,315.3 359.6,316.0C362.6,317.0 363.5,317.0 364.7,315.7C365.6,314.8 366.0,313.4 365.6,312.5C365.3,311.6 363.7,310.4 362.2,309.8C359.4,308.7 359.4,308.7 362.4,305.4C364.0,303.5 365.8,302.0 366.4,302.0C367.0,302.0 366.9,302.5 366.2,303.2C365.5,303.9 365.0,305.0 365.0,305.6C365.0,306.3 366.6,307.4 368.5,308.0C370.5,308.7 372.7,308.9 373.5,308.6C374.4,308.3 375.0,306.7 375.0,304.5C375.0,301.9 374.6,301.0 373.2,300.9C372.2,300.9 372.0,300.6 372.8,300.3C373.5,300.0 376.2,300.3 378.8,301.0C383.4,302.1 383.6,302.3 383.2,305.1C382.8,307.8 383.0,308.0 386.2,308.0C388.4,308.0 390.4,308.7 391.5,310.0C392.5,311.1 394.6,312.0 396.1,312.0C398.0,312.0 399.1,311.4 399.5,310.0C399.8,308.9 399.8,307.6 399.5,307.0C399.1,306.4 397.0,305.0 394.7,303.8C391.6,302.2 391.0,301.5 392.3,301.2C393.2,301.0 395.9,301.8 398.3,302.9C401.4,304.4 403.4,306.5 405.8,310.5C407.7,313.6 409.0,316.9 408.7,317.8C408.4,318.7 407.9,320.2 407.5,321.2C407.0,322.5 407.9,323.1 412.3,324.4C415.3,325.3 418.3,326.7 419.0,327.5C420.0,328.7 420.0,329.3 418.9,330.6C417.8,331.9 416.3,332.1 409.9,331.5C405.1,331.1 402.0,331.2 401.6,331.8C401.3,332.4 403.0,335.2 405.5,338.1C408.0,341.0 410.0,344.0 410.0,344.7C410.0,345.4 409.0,346.0 407.9,346.0C406.7,346.0 403.8,344.4 401.4,342.5C399.1,340.6 396.3,339.0 395.2,339.0C394.1,339.0 392.7,339.7 392.0,340.5C391.0,341.6 391.4,344.5 393.9,354.8C395.6,361.8 397.0,368.3 397.0,369.3C397.0,370.2 396.3,371.0 395.5,371.0zM160.5,358.6C155.0,358.7 147.9,358.5 144.8,358.3C140.8,358.0 139.0,357.5 139.0,356.6C139.0,355.8 141.5,351.9 144.5,347.9C147.5,343.8 151.7,339.3 153.9,337.7C156.1,336.2 159.8,334.6 162.2,334.2C164.6,333.8 168.5,333.7 170.9,334.2C173.6,334.6 176.9,336.3 179.5,338.5C181.9,340.4 184.2,342.9 184.5,344.1C185.0,345.5 184.2,347.3 181.6,350.4C179.7,352.8 176.4,355.6 174.3,356.6C171.4,358.0 168.1,358.5 160.5,358.6zM151.2,350.4C152.5,350.0 155.7,348.2 158.5,346.4C161.2,344.5 163.8,343.0 164.3,343.0C164.7,343.0 164.4,344.0 163.6,345.2C162.7,346.4 162.0,347.8 162.0,348.3C162.0,348.7 163.8,348.1 166.0,346.9C168.2,345.6 170.8,343.8 171.6,342.9C173.1,341.2 172.9,341.0 169.5,339.6C167.4,338.7 164.5,338.0 163.0,338.0C161.5,338.0 158.5,339.3 156.4,340.9C154.2,342.4 151.7,344.9 150.7,346.3C149.8,347.8 149.0,349.4 149.0,350.0C149.0,350.7 149.8,350.9 151.2,350.4zM467.9,340.4C468.3,339.9 469.4,337.4 470.4,334.8C471.3,332.3 472.7,329.7 473.4,329.1C474.5,328.2 474.9,328.9 475.4,332.2C475.8,334.6 476.8,337.5 477.6,338.8C478.4,340.0 479.5,340.8 480.1,340.4C480.7,340.1 482.9,336.0 485.2,331.4C487.5,326.8 489.7,323.3 490.1,323.6C490.6,323.9 491.0,326.5 491.0,329.3C491.0,332.2 491.3,335.5 491.6,336.8C492.0,338.2 492.9,339.0 494.0,338.8C494.9,338.6 496.4,339.1 497.3,339.8C498.6,340.9 499.1,340.8 500.3,338.8C501.1,337.5 502.1,334.1 502.5,331.3C502.9,328.4 503.6,325.8 504.1,325.4C504.6,325.1 506.0,326.9 507.2,329.4C508.4,331.9 509.7,333.7 510.2,333.4C510.6,333.1 511.0,331.3 511.0,329.3C511.0,327.3 510.5,324.0 509.8,321.8C509.2,319.7 507.7,316.9 506.6,315.6C504.5,313.5 504.1,313.4 497.4,314.4C491.6,315.2 489.4,315.0 485.2,313.7C482.4,312.7 479.0,312.0 477.6,312.0C476.2,312.0 473.9,313.3 472.2,314.9C470.6,316.5 468.5,319.6 467.5,321.7C466.5,323.8 465.4,328.0 465.2,331.1C465.0,334.4 465.3,337.7 466.0,339.0C466.6,340.2 467.5,340.8 467.9,340.4zM367.0,328.0C367.5,328.0 368.0,327.6 368.0,327.0C368.0,326.5 369.2,325.3 370.7,324.3C373.2,322.6 373.3,322.6 374.8,324.8C375.6,326.0 376.8,327.0 377.5,327.0C378.3,327.0 380.2,325.9 381.8,324.5C383.5,323.1 385.3,322.0 385.9,322.0C386.4,322.0 387.4,322.9 388.0,324.0C388.6,325.1 389.5,326.0 389.9,326.0C390.4,326.0 391.1,325.3 391.4,324.4C391.7,323.6 391.1,321.1 390.0,318.9C388.5,316.1 386.6,314.3 383.4,312.7C378.9,310.5 378.9,310.5 374.2,313.0C370.7,314.9 368.9,316.7 367.1,320.3C365.8,322.9 365.0,325.7 365.4,326.5C365.7,327.3 366.4,328.0 367.0,328.0zM569.9,270.1C570.9,269.5 574.0,266.5 576.9,263.5C579.7,260.4 582.0,257.0 582.0,256.0C582.0,255.0 581.3,253.9 580.4,253.6C579.5,253.3 576.9,253.0 574.5,253.0C572.1,253.0 569.9,252.6 569.6,252.1C569.3,251.6 567.3,250.9 565.3,250.5C563.2,250.2 560.5,249.2 559.2,248.4C557.6,247.3 555.6,247.1 552.5,247.6C548.9,248.1 547.9,247.9 547.4,246.7C547.1,245.8 544.5,244.6 541.4,243.9C538.4,243.2 535.7,242.9 535.4,243.3C535.1,243.6 534.8,245.9 534.8,248.4C534.8,251.7 535.7,254.6 537.8,258.3C539.4,261.1 541.4,263.6 542.2,263.8C543.1,264.0 544.0,262.6 544.7,259.8C545.4,257.4 546.5,254.7 547.3,253.6C548.5,251.9 548.8,252.1 550.4,256.6C551.4,259.3 552.9,262.5 553.6,263.8C554.4,265.0 555.8,266.0 556.7,266.0C557.7,266.0 560.6,263.9 563.3,261.2C568.2,256.5 568.2,256.5 568.0,263.0C567.9,266.6 567.8,269.9 567.9,270.3C567.9,270.7 568.8,270.6 569.9,270.1zM255.1,266.0C256.1,266.0 258.6,264.5 260.6,262.8C262.7,261.0 267.9,255.5 272.2,250.5C276.5,245.6 280.0,240.8 280.0,239.9C280.0,238.9 278.4,237.2 276.6,236.0C274.7,234.9 272.1,232.3 270.9,230.4C269.0,227.2 268.4,226.9 265.7,227.4C264.0,227.7 259.4,229.6 255.4,231.5C251.4,233.4 245.7,237.3 242.6,240.1C239.6,242.8 236.8,246.0 236.5,247.0C236.2,248.1 236.4,249.8 237.0,251.0C237.6,252.1 241.5,255.9 245.7,259.5C249.9,263.1 254.1,266.0 255.1,266.0zM588.5,250.7C590.8,250.5 591.6,250.0 591.8,248.2C592.0,246.9 591.6,245.2 591.0,244.4C590.3,243.7 588.6,243.0 587.2,243.0C585.8,243.0 583.8,243.7 582.8,244.7C581.8,245.6 581.0,246.9 581.0,247.7C581.0,248.4 582.0,249.5 583.2,250.0C584.5,250.5 586.9,250.8 588.5,250.7zM573.2,245.8C574.2,245.3 575.4,244.1 576.0,243.0C576.5,242.0 577.0,240.4 577.0,239.6C577.0,238.7 575.7,237.4 574.0,236.5C572.4,235.7 569.7,235.0 568.0,235.0C566.1,235.0 564.0,235.9 562.5,237.5C561.1,238.8 560.0,240.8 560.0,241.8C560.0,243.4 561.2,244.1 565.8,245.2C569.3,246.1 572.2,246.4 573.2,245.8zM550.0,240.4C551.9,240.1 554.7,239.2 556.2,238.4C558.6,237.2 558.9,236.6 558.0,235.0C557.4,233.9 555.8,232.7 554.5,232.4C553.1,232.1 550.8,232.1 549.2,232.5C547.7,232.8 545.5,233.8 544.2,234.6C543.0,235.4 542.0,236.7 542.0,237.6C542.0,238.4 543.0,239.5 544.2,240.0C545.5,240.5 548.1,240.7 550.0,240.4zM150.2,235.0C150.6,235.0 151.0,233.5 151.0,231.7C151.0,229.8 151.3,228.0 151.7,227.7C152.1,227.3 153.6,228.2 155.1,229.6C157.5,231.9 158.2,232.1 159.5,231.0C160.3,230.3 161.0,228.6 161.0,227.1C161.0,225.7 161.3,223.5 161.6,222.2C162.1,220.4 162.5,220.2 163.7,221.2C164.5,221.8 165.8,223.6 166.6,225.2C167.4,226.8 168.5,227.8 169.0,227.5C169.6,227.1 170.0,224.9 170.0,222.5C170.0,219.9 170.5,218.0 171.2,217.7C172.1,217.4 171.9,216.5 170.4,214.4C168.4,211.7 167.8,211.5 161.4,211.4C157.6,211.3 153.0,211.7 151.2,212.2C149.1,212.8 147.5,214.1 146.9,215.7C146.4,217.0 146.0,220.6 146.0,223.7C146.0,227.1 146.7,230.3 147.7,232.1C148.7,233.7 149.8,235.0 150.2,235.0zM288.5,218.5C291.9,218.0 294.4,217.0 296.2,215.2C298.8,212.9 299.1,212.8 300.7,214.3C301.9,215.4 303.0,215.6 304.1,215.0C305.0,214.5 306.3,212.7 307.0,211.1C308.0,208.5 307.9,207.5 306.4,204.3C305.3,202.2 303.1,199.8 301.5,199.0C299.7,198.1 295.8,197.5 291.8,197.5C286.6,197.5 284.5,198.0 282.4,199.6C280.9,200.7 278.3,203.2 276.7,205.2C275.0,207.4 273.8,210.1 273.7,212.1C273.5,215.2 273.7,215.5 277.3,216.1C279.4,216.4 281.6,217.2 282.3,217.9C283.1,218.7 285.1,218.9 288.5,218.5zM287.4,214.7C286.4,214.8 284.5,214.4 283.2,213.8C282.0,213.2 281.0,211.9 281.0,210.8C281.0,209.8 281.7,209.0 282.5,209.0C283.4,209.0 285.5,209.7 287.1,210.6C288.8,211.4 290.0,212.7 289.7,213.3C289.5,214.0 288.5,214.6 287.4,214.7zM164.0,125.8C165.4,125.6 167.0,124.5 167.7,123.0C168.4,121.6 170.3,117.4 172.0,113.7C173.7,110.0 174.8,106.6 174.6,106.1C174.3,105.6 172.7,104.7 171.0,104.0C168.3,102.9 167.7,103.0 165.9,104.6C164.8,105.6 162.4,109.0 160.5,112.1C158.6,115.2 157.0,118.9 157.0,120.3C157.0,121.8 157.9,123.5 159.2,124.5C160.5,125.4 162.6,125.9 164.0,125.8zM181.9,126.0C185.0,126.0 187.2,125.5 188.0,124.5C188.9,123.4 189.1,120.8 188.7,115.4C188.4,111.3 187.6,107.2 187.0,106.4C186.3,105.6 184.3,105.0 182.4,105.0C180.0,105.0 178.7,105.6 177.9,107.1C177.3,108.3 176.6,111.9 176.3,115.0C176.0,118.2 176.0,122.0 176.4,123.4C177.0,125.8 177.5,126.0 181.9,126.0zM201.0,120.0C202.0,120.0 203.2,119.4 203.8,118.8C204.5,117.9 203.7,115.5 200.9,110.6C198.7,106.8 197.1,103.6 197.3,103.4C197.5,103.2 199.4,104.3 201.6,106.0C203.7,107.6 206.6,109.9 208.0,111.0C209.6,112.3 211.3,112.8 212.3,112.4C213.2,112.1 214.0,110.8 214.0,109.6C213.9,108.5 212.1,105.5 210.0,103.0C207.8,100.5 206.5,98.3 207.1,98.1C207.7,97.9 210.8,98.8 214.1,100.0C217.4,101.2 220.8,101.9 221.6,101.6C222.4,101.3 223.0,99.8 223.0,98.3C223.0,96.8 222.6,95.0 222.2,94.3C221.8,93.6 219.9,92.4 218.0,91.7C216.1,90.9 212.8,90.0 210.7,89.6C207.6,89.0 206.7,89.3 204.7,91.4C203.5,92.7 201.4,95.2 200.1,97.0C198.9,98.7 196.0,101.0 193.9,102.1C191.8,103.1 190.0,104.6 190.0,105.3C190.0,105.9 192.1,109.5 194.6,113.2C197.4,117.3 199.9,120.0 201.0,120.0zM149.5,115.0C150.2,115.0 153.7,112.1 157.3,108.5C161.0,104.9 164.0,101.5 164.0,100.8C164.0,100.2 163.3,98.8 162.3,97.8C161.4,96.8 159.7,96.0 158.5,96.0C157.3,96.0 153.8,96.9 150.8,97.9C147.8,98.9 144.4,100.4 143.2,101.1C142.0,101.9 140.8,103.1 140.5,103.8C140.2,104.6 140.9,106.8 142.1,108.6C143.2,110.5 145.1,112.7 146.3,113.5C147.5,114.3 148.9,115.0 149.5,115.0zM142.8,93.9C144.8,93.9 148.3,93.3 150.4,92.7C152.5,92.0 154.8,90.7 155.4,89.7C156.2,88.3 156.2,87.7 155.0,87.0C153.7,86.2 153.7,86.0 155.2,86.0C156.1,86.0 157.8,84.8 159.0,83.3C160.1,81.8 160.9,80.0 160.8,79.2C160.6,78.4 158.3,76.9 155.6,75.8C152.8,74.8 149.6,74.1 148.4,74.4C147.2,74.7 145.5,76.6 144.5,78.6C143.3,81.2 143.1,82.5 143.9,83.3C144.6,84.0 144.1,84.9 142.0,86.2C139.7,87.5 139.0,88.7 139.0,91.0C139.0,93.8 139.2,94.0 142.8,93.9zM167.0,90.0C167.5,90.0 168.4,89.1 169.0,88.0C169.6,86.9 170.7,86.0 171.4,86.0C172.2,86.0 173.3,86.7 174.0,87.5C174.7,88.3 176.3,89.0 177.6,89.0C178.8,89.0 180.2,88.5 180.5,88.0C180.8,87.5 180.8,87.0 180.3,87.0C179.9,87.0 178.9,86.6 178.1,86.1C177.1,85.4 177.0,84.8 177.9,83.1C178.6,82.0 179.8,81.0 180.6,81.0C181.4,81.0 183.2,82.2 184.6,83.7C186.7,86.0 187.3,86.2 189.5,85.2C191.0,84.5 192.0,83.2 192.0,81.9C192.0,80.8 190.7,78.5 189.1,76.9C186.7,74.5 185.3,74.0 181.5,74.0C178.9,74.0 175.3,74.7 173.4,75.6C171.6,76.5 169.1,78.7 168.0,80.5C166.9,82.3 166.0,85.1 166.0,86.9C166.0,88.6 166.4,90.0 167.0,90.0zM211.7,85.4C216.0,85.0 219.8,84.4 220.3,84.0C220.7,83.7 220.4,81.7 219.5,79.7C218.7,77.7 217.1,75.6 215.9,74.9C214.2,74.1 212.8,74.2 209.5,75.4C207.2,76.3 204.4,78.0 203.5,79.0C202.0,80.7 201.9,81.4 202.8,83.5C203.9,85.9 204.1,86.0 211.7,85.4zM202.4,74.7C204.6,72.9 207.0,70.4 207.8,69.2C209.1,67.2 208.9,66.9 203.5,64.3C197.8,61.5 197.8,61.5 194.4,65.2C192.5,67.3 191.0,69.6 191.0,70.4C191.0,71.2 192.7,73.2 194.7,74.9C198.4,77.9 198.4,77.9 202.4,74.7zM163.9,75.7C165.2,75.6 167.2,74.3 168.3,72.8C170.1,70.4 170.1,69.8 169.0,67.1C168.2,65.2 166.8,63.7 165.2,63.3C163.6,62.9 161.5,63.4 159.4,64.5C157.5,65.5 155.3,67.1 154.5,68.0C153.0,69.7 153.2,70.0 157.2,72.8C159.6,74.5 162.6,75.8 163.9,75.7zM181.0,69.9C187.0,69.8 187.0,69.8 188.1,66.0C188.8,63.9 189.0,61.4 188.7,60.5C188.1,59.2 186.7,59.0 180.3,59.2C173.2,59.5 172.5,59.7 172.2,61.7C172.0,62.9 172.6,65.2 173.5,66.9C175.0,69.8 175.3,69.9 181.0,69.9z" />

</svg>