<?xml version="1.0" standalone="no"?>
<!DOCTYPE svg PUBLIC "-//W3C//DTD SVG 20010904//EN"
 "http://www.w3.org/TR/2001/REC-SVG-20010904/DTD/svg10.dtd">
<svg version="1.0" xmlns="http://www.w3.org/2000/svg"
 width="512.000000pt" height="512.000000pt" viewBox="0 0 512.000000 512.000000"
 preserveAspectRatio="xMidYMid meet">
<metadata>
Created by potrace 1.16, written by Peter Selinger 2001-2019
</metadata>
<g transform="translate(0.000000,512.000000) scale(0.100000,-0.100000)"
fill="#000000" stroke="none">
<path d="M32 5111 c5 -16 175 -206 222 -249 45 -41 96 -62 153 -62 81 0 61 94
-53 248 l-54 72 -136 0 c-78 0 -134 -4 -132 -9z"/>
<path d="M1510 5116 c0 -9 139 -300 169 -356 53 -97 102 -125 116 -67 5 17
-18 84 -75 226 l-82 201 -64 0 c-35 0 -64 -2 -64 -4z"/>
<path d="M1832 5109 c3 -8 17 -51 32 -96 15 -46 32 -85 37 -88 13 -9 11 1 -19
99 -15 49 -34 92 -41 94 -9 3 -12 -1 -9 -9z"/>
<path d="M2135 5108 c4 -13 99 -513 110 -581 4 -24 15 -43 30 -53 30 -20 38
-48 65 -239 24 -170 48 -322 56 -348 11 -35 25 -4 19 41 -26 191 -80 496 -104
592 -43 171 -57 266 -42 294 10 18 9 46 -3 142 -24 178 -17 164 -81 164 -39 0
-53 -4 -50 -12z"/>
<path d="M2464 4989 c3 -131 3 -136 -16 -131 -17 4 -19 0 -16 -34 2 -30 7 -39
21 -38 15 2 17 -8 17 -64 0 -58 3 -69 25 -87 23 -18 25 -29 31 -132 8 -126 1
-146 -45 -137 -18 4 -32 0 -41 -11 -11 -14 -10 -31 11 -117 21 -91 26 -102 51
-112 30 -11 38 -30 38 -101 0 -56 13 -86 30 -69 7 7 7 26 1 60 -8 43 -5 423 4
432 1 2 6 -91 10 -205 3 -114 13 -266 20 -338 8 -71 17 -179 21 -240 4 -60 11
-117 16 -125 6 -9 7 29 3 103 -7 134 6 211 41 239 20 16 22 30 29 217 7 201 2
252 -20 197 -10 -23 -13 18 -19 220 -8 301 -14 436 -21 442 -3 3 -6 -26 -6
-64 -1 -38 -4 -58 -6 -44 -8 51 -47 151 -65 167 -42 38 -65 -13 -69 -152 -1
-59 -13 -141 -18 -125 -1 3 -4 61 -7 129 -3 67 -10 153 -14 190 -7 53 -8 40
-6 -70z"/>
<path d="M3211 5118 c-1 -4 -22 -107 -47 -229 -39 -191 -46 -247 -30 -228 8
10 87 440 83 451 -3 7 -6 10 -6 6z"/>
<path d="M3266 5104 c-3 -9 -9 -39 -12 -69 -12 -103 35 -63 52 44 6 37 4 41
-14 41 -11 0 -23 -7 -26 -16z"/>
<path d="M3765 5085 c-24 -59 -24 -65 5 -65 9 0 60 79 60 93 0 4 -11 7 -25 7
-19 0 -28 -8 -40 -35z"/>
<path d="M5059 5083 c-20 -21 -116 -132 -215 -248 -98 -115 -216 -252 -261
-303 -84 -95 -92 -109 -72 -129 14 -14 36 -7 66 20 13 12 29 17 39 13 9 -4 28
1 41 9 42 28 46 11 9 -34 -36 -43 -43 -65 -27 -90 6 -8 16 -11 31 -6 13 4 119
102 236 218 l214 210 0 188 c0 211 -1 215 -61 152z m-116 -434 c-37 -34 -83
-52 -83 -32 0 3 19 31 41 61 l41 54 22 -21 21 -22 -42 -40z"/>
<path d="M893 5047 c8 -21 217 -333 217 -324 0 24 -197 337 -212 337 -6 0 -8
-6 -5 -13z"/>
<path d="M4208 5033 c-66 -78 -468 -758 -468 -793 0 -25 28 -5 59 43 120 183
451 732 451 748 0 24 -22 25 -42 2z"/>
<path d="M3843 5018 c-6 -7 -39 -68 -73 -136 -60 -120 -68 -157 -33 -150 21 4
143 242 140 272 -2 24 -20 31 -34 14z"/>
<path d="M710 5014 c0 -8 240 -352 277 -397 49 -60 20 1 -49 102 -150 222
-228 322 -228 295z"/>
<path d="M1740 4986 c0 -8 5 -18 10 -21 6 -3 10 1 10 9 0 8 -4 18 -10 21 -5 3
-10 -1 -10 -9z"/>
<path d="M2857 4983 c-4 -3 -7 -22 -7 -40 0 -47 24 -38 28 10 3 34 -5 46 -21
30z"/>
<path d="M3716 4902 c-70 -139 -187 -404 -181 -410 2 -3 15 17 26 44 12 27 64
139 115 248 96 205 121 280 40 118z"/>
<path d="M3340 4945 c-14 -8 -45 -39 -70 -69 -25 -31 -53 -56 -62 -56 -12 0
-22 -16 -33 -52 -8 -28 -15 -59 -15 -67 -1 -9 -7 -34 -15 -56 -20 -55 -75
-286 -79 -333 -2 -21 -8 -47 -14 -58 -12 -23 -66 -232 -111 -434 -16 -74 -39
-160 -49 -190 -20 -58 -84 -330 -86 -365 -1 -11 5 -20 13 -20 8 0 22 27 35 65
12 36 36 85 55 109 21 26 41 69 52 109 28 101 25 129 -13 123 -15 -2 -13 8 86
436 20 84 47 174 60 200 13 27 37 93 52 148 27 98 30 102 104 180 149 158 202
273 150 325 -23 23 -27 24 -60 5z"/>
<path d="M1929 4866 c-10 -21 -7 -42 14 -118 38 -132 117 -376 181 -562 31
-87 56 -165 56 -172 0 -8 -9 -14 -20 -14 -27 0 -25 -15 10 -112 31 -84 41
-140 14 -78 -17 40 -52 80 -69 80 -7 0 -16 -10 -22 -21 -8 -19 -16 -2 -57 107
-92 251 -98 264 -109 257 -6 -4 -8 0 -4 11 5 14 3 15 -13 6 -24 -13 -20 -27
60 -206 100 -227 180 -385 197 -391 9 -3 24 -1 34 5 10 7 21 12 23 12 2 0 14
-26 26 -57 13 -33 37 -72 56 -89 19 -17 39 -46 45 -63 6 -18 16 -30 23 -28 14
5 15 -3 -28 192 -44 204 -47 225 -37 225 21 0 57 -140 77 -300 7 -64 19 -90
39 -90 21 0 20 11 -21 225 -78 418 -87 449 -127 443 -29 -4 -37 14 -95 226
-27 97 -54 182 -60 188 -8 8 -15 8 -25 0 -12 -10 -20 9 -51 115 -20 71 -45
150 -54 178 -20 57 -46 70 -63 31z"/>
<path d="M4398 4768 c-108 -144 -123 -168 -109 -168 27 0 224 233 219 258 -7
36 -31 16 -110 -90z"/>
<path d="M3028 4797 c-12 -9 -21 -59 -36 -196 -21 -186 -20 -211 3 -211 26 0
36 30 50 156 29 239 29 239 13 252 -11 9 -18 9 -30 -1z"/>
<path d="M522 4738 c-30 -30 -6 -83 77 -171 63 -68 131 -85 146 -38 8 27 -23
146 -49 184 -22 33 -58 46 -79 29 -7 -5 -21 -6 -32 -1 -29 11 -49 11 -63 -3z"/>
<path d="M0 4727 c0 -15 67 -83 75 -75 7 7 -53 88 -65 88 -6 0 -10 -6 -10 -13z"/>
<path d="M130 4647 c0 -15 34 -49 68 -66 34 -18 28 9 -11 47 -35 34 -57 41
-57 19z"/>
<path d="M2717 4654 c-11 -11 -8 -92 2 -99 15 -9 33 32 29 67 -3 31 -17 45
-31 32z"/>
<path d="M2782 4648 c-16 -16 -15 -65 1 -71 29 -11 54 32 37 64 -12 22 -21 24
-38 7z"/>
<path d="M784 4635 c3 -8 103 -139 223 -291 120 -151 229 -292 243 -312 14
-21 53 -75 88 -120 34 -46 62 -87 62 -93 0 -5 -11 -9 -25 -9 -41 0 -31 -39 31
-126 76 -107 231 -273 260 -280 14 -4 31 -1 39 6 32 27 16 69 -77 198 -33 46
-58 85 -56 87 2 3 20 -11 38 -30 34 -35 60 -45 60 -24 0 16 -67 107 -110 149
-19 19 -77 92 -127 163 -82 113 -96 127 -122 127 -16 0 -31 -5 -33 -11 -2 -6
-24 15 -48 47 -137 184 -424 534 -437 534 -9 0 -13 -6 -9 -15z m768 -951 c-4
-20 -7 -19 -36 15 -67 76 -86 103 -79 113 10 18 119 -103 115 -128z"/>
<path d="M274 4626 c-4 -10 -2 -22 4 -28 8 -8 13 -7 18 6 4 10 2 22 -4 28 -8
8 -13 7 -18 -6z"/>
<path d="M1283 4614 c-10 -27 14 -66 39 -62 30 4 34 32 9 57 -25 25 -39 27
-48 5z"/>
<path d="M1794 4565 c75 -208 115 -308 115 -289 1 26 -112 331 -129 347 -6 7
0 -19 14 -58z"/>
<path d="M1062 4608 c-20 -20 -14 -53 17 -95 33 -46 92 -86 114 -78 10 4 34
-21 78 -79 34 -47 65 -83 67 -81 6 6 -41 75 -90 130 -22 25 -38 53 -38 68 0
41 -89 147 -124 147 -7 0 -17 -5 -24 -12z"/>
<path d="M1236 4583 c-11 -11 -6 -23 9 -23 8 0 15 4 15 9 0 13 -16 22 -24 14z"/>
<path d="M3435 4551 c-17 -39 -15 -71 4 -71 13 0 54 87 46 100 -13 21 -32 9
-50 -29z"/>
<path d="M1491 4564 c-20 -14 -22 -23 -18 -57 7 -48 33 -87 72 -106 24 -12 30
-11 54 6 50 38 31 106 -43 152 -40 25 -36 25 -65 5z"/>
<path d="M4285 4572 c-24 -16 -136 -163 -133 -173 2 -6 33 27 69 73 81 102 92
121 64 100z"/>
<path d="M71 4493 c150 -155 183 -203 139 -203 -15 0 -20 -7 -20 -29 0 -25 30
-58 203 -221 279 -265 292 -279 278 -293 -17 -17 -13 -29 7 -25 12 2 66 -38
151 -112 153 -133 157 -136 177 -119 8 6 16 10 17 8 1 -2 8 -12 15 -21 11 -14
10 -16 -7 -11 -12 3 -21 1 -21 -5 0 -9 283 -264 301 -270 5 -2 9 5 9 16 0 13
-33 49 -93 100 -51 45 -99 87 -106 96 -10 12 -9 14 11 9 27 -7 31 -11 -60 66
-66 57 -85 81 -64 81 19 0 104 -66 221 -170 69 -62 136 -117 150 -124 95 -48
94 -17 -1 65 -40 34 -227 212 -415 395 -188 184 -348 335 -355 335 -7 1 -18 2
-24 3 -6 0 -96 80 -200 178 -179 167 -355 318 -371 318 -4 0 22 -30 58 -67z"/>
<path d="M3312 4538 c-12 -16 -84 -279 -78 -286 7 -6 22 33 53 138 14 46 32
90 39 98 15 15 19 62 5 62 -5 0 -13 -6 -19 -12z"/>
<path d="M4143 4518 c-30 -35 -108 -149 -128 -188 -9 -19 -27 -45 -38 -57 -38
-42 -3 -23 38 20 103 108 175 205 175 237 0 18 -26 11 -47 -12z"/>
<path d="M2882 4518 c-14 -14 -16 -64 -3 -72 30 -19 65 40 41 69 -15 18 -22
19 -38 3z"/>
<path d="M5105 4510 c-3 -5 -1 -10 4 -10 6 0 11 5 11 10 0 6 -2 10 -4 10 -3 0
-8 -4 -11 -10z"/>
<path d="M179 4491 c17 -31 172 -171 189 -171 10 1 -23 39 -83 95 -98 93 -125
113 -106 76z"/>
<path d="M296 4482 c-7 -11 73 -87 82 -77 3 3 -12 24 -35 46 -22 23 -43 37
-47 31z"/>
<path d="M2827 4466 c-3 -8 -2 -18 3 -21 13 -8 20 9 11 24 -6 10 -10 9 -14 -3z"/>
<path d="M3445 4464 c-25 -25 -95 -171 -95 -198 0 -31 26 -41 57 -21 23 15
103 164 103 191 0 14 -27 44 -40 44 -5 0 -16 -7 -25 -16z"/>
<path d="M509 4453 c14 -26 50 -63 61 -63 19 0 10 27 -18 53 -33 31 -58 37
-43 10z"/>
<path d="M1750 4416 c0 -7 7 -19 15 -26 12 -10 16 -9 21 3 3 9 3 21 -1 27 -9
15 -35 12 -35 -4z"/>
<path d="M0 4388 c0 -15 13 -31 36 -46 52 -34 62 -16 18 29 -44 45 -54 48 -54
17z"/>
<path d="M1100 4390 c0 -5 5 -10 10 -10 6 0 10 5 10 10 0 6 -4 10 -10 10 -5 0
-10 -4 -10 -10z"/>
<path d="M4297 4383 c-10 -10 -8 -33 3 -33 5 0 14 9 20 20 8 15 8 20 -3 20 -8
0 -17 -3 -20 -7z"/>
<path d="M4403 4248 c-119 -118 -137 -142 -111 -150 15 -5 -2 -35 -56 -92 -41
-46 -45 -60 -13 -50 15 4 4 -12 -38 -55 -85 -87 -87 -107 -4 -52 54 37 275
239 309 285 14 18 40 52 57 76 40 52 34 68 -14 39 -24 -15 -38 -18 -45 -11 -8
8 1 26 31 63 22 28 41 56 41 60 0 29 -48 -5 -157 -113z"/>
<path d="M2846 4254 c-4 -58 -5 -108 -2 -112 3 -3 6 8 7 24 0 16 4 66 7 112 4
45 4 82 1 82 -3 0 -9 -48 -13 -106z"/>
<path d="M4880 4343 c-8 -3 -37 -16 -65 -28 -27 -12 -61 -26 -75 -30 -14 -4
-65 -47 -115 -94 -49 -47 -114 -107 -142 -133 -35 -30 -53 -54 -53 -69 0 -14
-21 -43 -60 -80 -55 -52 -72 -79 -52 -79 4 0 35 23 70 51 34 29 66 49 69 45 4
-4 -26 -40 -67 -81 -74 -74 -83 -91 -34 -58 23 14 21 10 -13 -40 -40 -60 -55
-67 -85 -41 -14 14 -20 14 -33 4 -8 -7 -15 -18 -15 -26 0 -7 -21 -29 -47 -49
-27 -20 -92 -77 -146 -127 -82 -76 -98 -95 -95 -117 2 -19 9 -27 28 -29 49 -5
307 214 393 334 47 65 85 100 369 337 272 227 307 266 272 302 -15 15 -73 19
-104 8z"/>
<path d="M5080 4335 c-7 -8 -8 -15 -2 -15 5 0 15 7 22 15 7 8 8 15 2 15 -5 0
-15 -7 -22 -15z"/>
<path d="M873 4173 c154 -179 202 -229 211 -215 3 5 -40 60 -97 122 -56 61
-128 142 -160 178 -32 37 -65 69 -73 70 -9 2 45 -67 119 -155z"/>
<path d="M1115 4320 c3 -5 8 -10 11 -10 2 0 4 5 4 10 0 6 -5 10 -11 10 -5 0
-7 -4 -4 -10z"/>
<path d="M1402 4317 c-51 -23 -37 -75 54 -198 45 -61 95 -131 199 -279 22 -31
48 -65 58 -76 10 -10 44 -59 74 -109 62 -99 113 -168 120 -161 6 5 -212 356
-245 394 -13 15 -21 21 -17 15 11 -22 -4 -14 -16 8 -9 17 -8 20 3 13 9 -6 9
-3 -2 13 -8 12 -41 58 -74 104 -49 69 -57 85 -47 101 17 27 13 67 -10 115 -25
52 -63 75 -97 60z m298 -512 c0 -11 -14 7 -31 40 -7 13 -3 12 10 -5 11 -14 21
-29 21 -35z"/>
<path d="M1592 4321 c2 -7 7 -12 11 -12 12 1 9 15 -3 20 -7 2 -11 -2 -8 -8z"/>
<path d="M606 4313 c-12 -12 -5 -24 35 -68 38 -41 69 -58 69 -36 0 4 -16 28
-34 53 -35 45 -58 62 -70 51z"/>
<path d="M1180 4313 c0 -13 52 -90 90 -133 43 -48 21 -5 -37 74 -53 72 -53 72
-53 59z"/>
<path d="M2030 4318 c0 -14 23 -58 32 -58 4 0 8 4 8 9 0 11 -39 59 -40 49z"/>
<path d="M2240 4313 c0 -27 24 -123 30 -123 5 0 2 28 -6 62 -14 58 -24 84 -24
61z"/>
<path d="M1687 4293 c-19 -18 7 -73 34 -73 17 0 22 31 9 56 -13 24 -30 31 -43
17z"/>
<path d="M1860 4291 c0 -6 4 -13 10 -16 6 -3 7 1 4 9 -7 18 -14 21 -14 7z"/>
<path d="M2950 4286 c0 -9 5 -16 10 -16 6 0 10 4 10 9 0 6 -4 13 -10 16 -5 3
-10 -1 -10 -9z"/>
<path d="M4004 4248 c-56 -60 -162 -189 -188 -230 -25 -38 -7 -35 31 5 45 47
213 260 213 269 0 14 -6 9 -56 -44z"/>
<path d="M20 4276 c0 -17 59 -68 218 -190 107 -82 132 -97 132 -78 0 17 -321
282 -342 282 -4 0 -8 -6 -8 -14z"/>
<path d="M5091 4266 c-26 -28 -17 -35 13 -13 11 8 17 19 15 26 -3 8 -13 3 -28
-13z"/>
<path d="M3566 4229 c-26 -45 -26 -80 1 -57 18 15 43 62 43 83 0 27 -18 16
-44 -26z"/>
<path d="M4125 4250 c-14 -16 -16 -23 -7 -32 9 -9 16 -7 32 7 23 21 26 45 7
45 -8 0 -22 -9 -32 -20z"/>
<path d="M1330 4235 c0 -5 9 -21 20 -35 11 -14 20 -20 20 -15 0 6 -9 21 -20
35 -11 14 -20 21 -20 15z"/>
<path d="M3467 4207 c-15 -11 -87 -159 -87 -178 0 -5 4 -9 9 -9 14 0 111 151
111 171 0 24 -14 31 -33 16z"/>
<path d="M990 4200 c0 -5 5 -10 10 -10 6 0 10 5 10 10 0 6 -4 10 -10 10 -5 0
-10 -4 -10 -10z"/>
<path d="M740 4196 c0 -5 21 -29 48 -55 26 -26 64 -66 85 -90 21 -23 41 -40
44 -37 3 2 -36 47 -86 98 -50 51 -91 89 -91 84z"/>
<path d="M3383 4192 c-11 -7 -46 -112 -37 -112 13 0 63 68 64 87 0 25 -11 35
-27 25z"/>
<path d="M4169 4173 c-51 -57 -62 -73 -55 -80 7 -7 106 85 106 99 0 17 -28 7
-51 -19z"/>
<path d="M3649 4130 c-54 -84 -149 -255 -149 -268 0 -7 4 -12 9 -12 8 0 47 64
158 257 14 24 23 51 21 60 -3 13 -14 3 -39 -37z"/>
<path d="M2023 4155 c-6 -18 75 -107 90 -98 5 3 4 10 -2 16 -6 6 -11 20 -11
32 0 48 -62 88 -77 50z"/>
<path d="M2757 4077 c-5 -54 -7 -101 -4 -104 8 -8 19 97 15 152 -2 40 -5 30
-11 -48z"/>
<path d="M1710 4149 c1 -24 67 -132 74 -120 8 12 -35 101 -58 120 -13 11 -16
11 -16 0z"/>
<path d="M3782 4139 c-10 -15 -10 -25 -3 -32 14 -14 41 9 41 34 0 25 -22 24
-38 -2z"/>
<path d="M1050 4140 c0 -5 5 -10 11 -10 5 0 7 5 4 10 -3 6 -8 10 -11 10 -2 0
-4 -4 -4 -10z"/>
<path d="M1660 4140 c0 -5 5 -10 11 -10 5 0 7 5 4 10 -3 6 -8 10 -11 10 -2 0
-4 -4 -4 -10z"/>
<path d="M3708 4133 c-25 -29 -39 -61 -29 -68 11 -6 61 55 61 73 0 17 -15 15
-32 -5z"/>
<path d="M600 4127 c0 -18 92 -127 139 -165 39 -31 41 -32 41 -11 0 27 -69
119 -120 159 -40 32 -60 38 -60 17z"/>
<path d="M1059 4093 c18 -35 79 -98 87 -91 4 4 -13 30 -37 57 -45 50 -67 65
-50 34z"/>
<path d="M2843 4088 c-12 -13 -28 -48 -36 -78 -17 -61 -48 -315 -46 -370 1
-19 -8 -80 -19 -134 -20 -98 -20 -99 -1 -135 20 -38 24 -97 9 -171 -5 -25 -5
-49 0 -53 8 -9 30 75 30 116 0 40 79 388 125 557 33 118 45 177 42 208 -8 76
-61 106 -104 60z"/>
<path d="M3202 4040 c-12 -40 -20 -75 -18 -77 6 -7 48 126 44 139 -2 6 -14
-22 -26 -62z"/>
<path d="M810 4084 c0 -6 19 -28 42 -49 36 -35 38 -36 21 -10 -25 36 -63 72
-63 59z"/>
<path d="M5074 4041 c-45 -33 -80 -46 -88 -33 -3 6 1 15 9 22 24 20 17 30 -21
30 -29 0 -43 -7 -68 -35 -18 -19 -38 -35 -46 -35 -21 0 -77 -38 -261 -180 -97
-74 -230 -175 -297 -225 -67 -49 -121 -93 -122 -97 0 -5 11 -8 25 -8 25 0 25
0 -13 -49 -20 -27 -60 -67 -88 -89 -79 -62 -97 -132 -35 -132 23 0 84 36 234
138 247 167 264 179 256 186 -3 3 -74 -35 -157 -85 -100 -61 -157 -89 -168
-85 -19 7 -21 6 246 171 473 293 589 373 574 397 -3 4 -17 8 -32 8 -25 0 -23
4 36 61 34 34 61 63 59 65 -2 2 -21 -9 -43 -25z"/>
<path d="M4110 4045 c-21 -25 -1 -31 23 -7 17 18 18 22 5 22 -8 0 -21 -7 -28
-15z"/>
<path d="M3936 4041 c-4 -7 -5 -15 -2 -18 9 -9 19 4 14 18 -4 11 -6 11 -12 0z"/>
<path d="M1655 4030 c-12 -19 6 -67 35 -95 48 -46 68 -9 29 55 -29 48 -51 61
-64 40z"/>
<path d="M2060 4025 c0 -5 9 -23 20 -40 26 -39 26 -25 0 17 -11 18 -20 29 -20
23z"/>
<path d="M3170 3833 c-40 -109 -83 -224 -96 -255 -12 -32 -20 -58 -16 -58 12
0 198 498 189 506 -2 2 -37 -85 -77 -193z"/>
<path d="M1830 3995 c0 -16 27 -32 37 -21 7 7 -16 36 -28 36 -5 0 -9 -7 -9
-15z"/>
<path d="M3025 3960 c-18 -53 -13 -104 8 -98 19 6 58 90 55 118 -2 17 -10 26
-25 28 -17 3 -24 -5 -38 -48z"/>
<path d="M3281 3979 c-26 -43 -103 -258 -99 -277 4 -23 91 136 118 217 19 53
22 73 13 82 -9 9 -17 3 -32 -22z"/>
<path d="M1210 3991 c0 -5 5 -13 10 -16 6 -3 10 -2 10 4 0 5 -4 13 -10 16 -5
3 -10 2 -10 -4z"/>
<path d="M880 3983 c0 -10 52 -63 62 -63 16 0 8 27 -15 48 -23 21 -47 29 -47
15z"/>
<path d="M1470 3983 c0 -5 12 -20 26 -34 24 -21 26 -22 16 -3 -13 25 -42 50
-42 37z"/>
<path d="M1882 3974 c1 -9 9 -19 16 -22 9 -3 13 2 10 14 -1 9 -9 19 -16 22 -9
3 -13 -2 -10 -14z"/>
<path d="M0 3928 l0 -43 125 -85 c172 -116 174 -118 183 -103 6 10 25 2 71
-28 34 -22 65 -39 67 -36 2 2 -35 35 -83 73 -82 65 -126 97 -295 217 l-68 48
0 -43z"/>
<path d="M2520 3938 c0 -57 22 -412 27 -428 4 -12 6 -12 15 3 6 12 6 44 -1
100 -6 45 -14 142 -17 215 -4 73 -11 135 -16 138 -4 3 -8 -10 -8 -28z"/>
<path d="M3945 3960 c-3 -5 -1 -10 4 -10 6 0 11 5 11 10 0 6 -2 10 -4 10 -3 0
-8 -4 -11 -10z"/>
<path d="M4639 3917 c-64 -51 -79 -69 -62 -74 11 -4 143 105 143 118 0 16 -14
9 -81 -44z"/>
<path d="M1110 3947 c0 -16 117 -133 126 -125 6 7 -15 43 -59 101 -28 36 -67
50 -67 24z"/>
<path d="M3332 3948 c-18 -18 -15 -40 6 -36 9 2 18 13 20 26 4 24 -7 29 -26
10z"/>
<path d="M220 3941 c0 -5 21 -26 48 -47 26 -22 92 -82 147 -134 96 -92 201
-176 295 -235 29 -18 39 -29 30 -35 -8 -5 -8 -10 -2 -14 6 -3 12 -1 14 6 4 10
418 -260 453 -294 24 -24 -149 78 -334 198 -46 30 -89 54 -95 54 -17 0 23 -34
98 -84 39 -25 64 -46 58 -46 -7 0 -12 -7 -12 -15 0 -18 26 -20 33 -2 3 9 8 9
23 0 11 -7 62 -38 114 -69 52 -31 145 -86 205 -122 138 -82 185 -118 185 -143
0 -15 7 -19 31 -19 18 0 81 -23 140 -52 159 -75 135 -77 -54 -4 -38 15 -65 22
-62 16 11 -18 157 -87 232 -109 71 -21 114 -49 59 -39 -41 8 -32 -19 12 -32
91 -29 209 -85 232 -110 17 -18 50 -34 105 -49 44 -13 100 -32 124 -42 23 -11
52 -17 62 -14 10 4 29 -1 41 -9 12 -9 33 -16 46 -16 22 0 23 2 11 17 -12 15
-12 16 4 10 9 -3 17 -5 17 -3 0 9 -56 63 -135 128 -49 41 -114 100 -143 131
-29 31 -54 55 -57 54 -7 -3 -75 66 -75 77 0 5 10 0 23 -12 13 -12 27 -22 31
-22 4 0 47 -41 96 -91 72 -73 93 -90 113 -87 16 2 35 -6 51 -21 14 -14 26 -21
26 -17 0 28 -130 207 -189 260 -30 27 -37 13 -16 -34 10 -22 16 -42 14 -44 -2
-2 -30 19 -61 48 -32 30 -55 56 -52 59 3 3 -11 21 -31 42 -20 20 -40 34 -43
31 -3 -4 10 -22 28 -41 19 -19 28 -35 21 -35 -24 0 -106 63 -171 131 -65 69
-95 84 -107 52 -5 -12 9 -31 48 -66 30 -28 53 -56 51 -62 -1 -6 33 -42 75 -80
43 -37 84 -77 92 -88 14 -20 14 -20 -19 -1 -90 52 -410 377 -402 410 3 14
-131 135 -176 158 l-33 17 15 -23 c9 -13 70 -76 136 -141 66 -65 120 -123 120
-128 0 -5 -30 11 -66 35 -36 25 -83 47 -104 51 -79 13 -105 -36 -50 -98 17
-19 30 -37 30 -41 0 -9 -137 61 -145 74 -3 5 -15 10 -26 10 -11 0 -64 29 -118
64 -54 35 -130 83 -169 106 -40 24 -72 45 -72 48 0 3 7 10 17 17 9 7 13 17 10
23 -7 10 -209 153 -452 317 -72 49 -176 121 -232 162 -104 74 -113 80 -113 64z
m1600 -962 c0 -11 -74 27 -90 46 -7 8 -9 24 -4 37 6 21 9 20 50 -26 24 -26 44
-52 44 -57z m36 -60 c22 -17 94 -70 162 -117 131 -91 139 -99 125 -113 -11
-11 -57 19 -230 148 -62 46 -113 91 -113 99 0 21 13 17 56 -17z m387 -313 c21
-13 35 -26 30 -29 -4 -2 -28 8 -53 24 -25 16 -38 29 -30 28 8 0 32 -10 53 -23z"/>
<path d="M1904 3916 c-5 -14 76 -149 98 -162 18 -11 5 26 -32 93 -44 79 -57
92 -66 69z"/>
<path d="M1580 3890 c0 -5 5 -10 10 -10 6 0 10 5 10 10 0 6 -4 10 -10 10 -5 0
-10 -4 -10 -10z"/>
<path d="M3808 3875 c-8 -18 -8 -29 -1 -36 13 -13 43 15 43 42 0 28 -28 23
-42 -6z"/>
<path d="M2740 3846 c0 -23 -3 -72 -6 -107 -3 -43 -2 -59 4 -49 16 23 27 200
13 200 -6 0 -11 -18 -11 -44z"/>
<path d="M920 3859 c0 -6 25 -43 57 -81 74 -91 113 -119 113 -80 -1 19 -170
181 -170 161z"/>
<path d="M1040 3860 c0 -5 5 -10 10 -10 6 0 10 5 10 10 0 6 -4 10 -10 10 -5 0
-10 -4 -10 -10z"/>
<path d="M5072 3857 c-7 -8 -7 -18 -1 -27 8 -13 10 -13 19 0 21 32 5 55 -18
27z"/>
<path d="M1272 3849 c2 -7 10 -15 17 -17 8 -3 12 1 9 9 -2 7 -10 15 -17 17 -8
3 -12 -1 -9 -9z"/>
<path d="M2690 3845 c0 -10 7 -15 18 -13 21 4 19 22 -2 26 -10 2 -16 -3 -16
-13z"/>
<path d="M3593 3838 c-11 -13 -36 -50 -54 -83 -62 -114 -198 -330 -321 -509
-4 -6 -9 -8 -12 -6 -3 3 13 33 34 66 21 33 40 74 43 91 3 16 12 44 22 62 24
47 13 48 -20 1 -15 -22 -32 -40 -38 -40 -5 0 -45 -37 -88 -82 -77 -81 -78 -82
-105 -68 -25 14 -28 13 -53 -17 -26 -31 -81 -159 -81 -188 0 -8 9 -15 20 -15
11 0 20 -5 20 -11 0 -14 -89 -179 -96 -179 -3 0 -2 5 1 10 3 6 3 20 0 31 -6
18 -9 19 -21 7 -19 -19 -54 -167 -42 -174 28 -17 59 10 123 111 61 96 95 128
95 90 0 -8 -24 -56 -54 -107 -29 -51 -51 -99 -49 -105 8 -20 27 -15 53 12 13
14 31 25 40 25 18 0 47 29 108 111 23 31 94 105 157 164 118 110 136 139 91
151 -50 12 -97 -29 -241 -211 -48 -60 -96 -113 -106 -117 -25 -10 -24 4 2 28
12 10 73 85 136 166 72 92 123 148 136 150 11 2 23 10 25 18 5 13 3 13 -12 1
-25 -21 -31 -5 -10 26 37 58 229 301 295 375 38 42 69 83 69 92 0 28 -36 17
-84 -25 -25 -22 -46 -38 -46 -34 0 3 17 32 38 63 21 31 44 72 52 90 17 43 1
61 -27 30z"/>
<path d="M3912 3806 c-62 -66 -80 -103 -58 -124 24 -25 67 -5 134 63 48 48 63
69 60 87 -2 19 -10 23 -44 26 -37 3 -44 -1 -92 -52z"/>
<path d="M1780 3841 c0 -5 5 -13 10 -16 6 -3 10 -2 10 4 0 5 -4 13 -10 16 -5
3 -10 2 -10 -4z"/>
<path d="M3060 3824 c0 -8 5 -12 10 -9 6 3 10 10 10 16 0 5 -4 9 -10 9 -5 0
-10 -7 -10 -16z"/>
<path d="M3844 3822 c-12 -9 -61 -66 -108 -127 -48 -60 -114 -138 -147 -171
-58 -61 -75 -92 -43 -80 9 3 17 6 19 6 2 0 36 42 76 93 40 50 108 134 152 184
74 87 99 134 51 95z"/>
<path d="M3425 3800 c-17 -33 -18 -40 -7 -40 8 0 42 52 42 64 0 17 -21 2 -35
-24z"/>
<path d="M4125 3746 c-87 -69 -121 -103 -113 -112 7 -6 208 155 208 167 0 18
-17 8 -95 -55z"/>
<path d="M1280 3796 c0 -5 16 -26 35 -47 19 -22 35 -34 35 -29 0 13 -69 88
-70 76z"/>
<path d="M5010 3790 c0 -5 4 -10 9 -10 6 0 13 5 16 10 3 6 -1 10 -9 10 -9 0
-16 -4 -16 -10z"/>
<path d="M1100 3778 c0 -18 68 -84 77 -75 7 8 -47 79 -65 85 -7 2 -12 -3 -12
-10z"/>
<path d="M0 3766 c0 -8 31 -36 41 -36 15 0 10 27 -7 34 -18 7 -34 8 -34 2z"/>
<path d="M1646 3761 c-3 -5 1 -14 9 -21 12 -10 15 -10 15 3 0 19 -16 31 -24
18z"/>
<path d="M5010 3760 c-8 -5 -56 -32 -107 -60 -51 -29 -98 -59 -105 -68 -7 -9
19 1 57 23 87 47 175 103 175 110 0 6 -1 6 -20 -5z"/>
<path d="M3355 3748 c-27 -15 -36 -31 -25 -42 10 -10 36 7 51 36 11 21 3 22
-26 6z"/>
<path d="M1210 3709 c-18 -32 -4 -63 45 -107 54 -47 79 -56 99 -33 13 14 13
20 -1 48 -23 48 -87 113 -111 113 -12 0 -26 -9 -32 -21z"/>
<path d="M3212 3717 c-16 -19 -26 -87 -13 -87 12 0 41 52 41 74 0 21 -16 28
-28 13z"/>
<path d="M4133 3689 c-46 -40 -69 -67 -61 -74 5 -5 128 96 128 106 0 18 -20 8
-67 -32z"/>
<path d="M5013 3714 c-17 -7 -34 -18 -38 -24 -10 -16 31 -12 45 5 7 8 19 15
26 15 8 0 14 5 14 10 0 13 -7 12 -47 -6z"/>
<path d="M2083 3704 c3 -10 14 -44 25 -74 17 -47 18 -56 6 -65 -13 -9 -10 -20
16 -72 17 -34 44 -73 59 -86 16 -13 32 -35 36 -48 15 -49 46 -100 57 -93 12 8
4 80 -14 131 -12 33 -38 46 -38 18 0 -35 -16 -10 -38 57 -29 90 -91 236 -105
245 -6 4 -8 -1 -4 -13z"/>
<path d="M3443 3697 c-44 -49 -67 -97 -45 -97 9 0 76 110 70 116 -3 2 -14 -6
-25 -19z"/>
<path d="M4375 3710 c-4 -6 -3 -16 3 -22 6 -6 12 -6 17 2 4 6 3 16 -3 22 -6 6
-12 6 -17 -2z"/>
<path d="M1897 3703 c-26 -26 49 -195 90 -201 15 -2 28 -18 43 -54 25 -59 21
-72 -10 -28 -34 48 -35 29 -1 -37 41 -83 100 -119 85 -54 -6 25 -70 173 -121
278 -27 54 -75 108 -86 96z"/>
<path d="M1705 3691 c-3 -5 -1 -12 5 -16 5 -3 10 1 10 9 0 18 -6 21 -15 7z"/>
<path d="M2047 3654 c8 -25 18 -43 21 -40 7 8 -19 86 -29 86 -4 0 -1 -20 8
-46z"/>
<path d="M2 3617 l3 -62 205 -107 c113 -58 215 -116 228 -126 29 -27 29 -52
-2 -52 -32 0 -73 16 -268 103 l-168 75 0 -27 c0 -26 13 -34 278 -156 152 -71
301 -139 330 -151 29 -12 63 -31 75 -42 12 -11 52 -32 90 -47 37 -15 67 -31
67 -36 0 -13 -3 -12 -107 21 -51 17 -101 30 -111 30 -10 0 -26 -15 -36 -35
-16 -29 -17 -39 -7 -61 10 -24 10 -26 -6 -20 -10 4 -48 15 -86 24 -44 11 -66
21 -62 29 2 7 0 15 -6 18 -13 8 -390 115 -406 115 -8 0 -13 -14 -13 -35 l0
-34 91 -27 c81 -25 95 -32 120 -67 27 -38 29 -67 4 -67 -7 0 -59 11 -114 24
l-101 24 0 -64 c0 -74 -20 -63 180 -94 74 -11 160 -29 190 -40 43 -15 436
-100 464 -100 3 0 6 -5 6 -11 0 -8 -13 -10 -37 -6 -21 3 -141 13 -268 23 -127
9 -241 22 -254 29 l-25 12 22 12 c24 13 30 41 9 41 -7 0 -67 7 -132 15 -169
21 -155 25 -155 -44 l0 -58 38 -6 c20 -3 82 -9 137 -13 113 -8 143 -17 124
-40 -22 -27 4 -35 101 -32 91 3 94 4 100 28 7 30 37 38 110 28 30 -4 114 -14
185 -23 136 -16 314 -42 353 -50 14 -4 22 -13 22 -26 0 -19 -5 -20 -85 -18
-71 2 -86 6 -90 21 -6 17 -60 38 -102 38 -23 0 -63 -32 -63 -50 0 -5 9 -19 20
-30 24 -24 92 -27 130 -6 19 11 55 13 157 9 130 -6 148 -2 121 25 -6 6 -9 14
-6 17 3 4 66 -1 139 -9 271 -32 337 -37 474 -41 77 -3 177 -11 223 -18 93 -15
113 -5 25 13 -86 18 -119 31 -60 24 26 -3 47 -1 47 4 0 9 -34 20 -138 43 -30
6 -56 18 -59 25 -6 15 -80 39 -154 49 -34 5 -55 2 -79 -10 l-33 -17 24 -19
c30 -23 23 -23 -87 1 -100 22 -174 26 -157 9 8 -8 110 -28 151 -29 6 0 12 -4
12 -8 0 -5 -53 0 -117 10 -65 9 -203 29 -308 43 -219 30 -247 36 -253 54 -3
10 2 12 19 7 13 -3 85 -15 159 -26 145 -21 250 -26 235 -11 -15 15 -357 97
-605 147 -282 55 -270 53 -270 63 0 5 25 3 57 -4 31 -7 62 -11 68 -8 7 2 41
-3 76 -12 35 -9 76 -14 92 -11 19 4 34 1 44 -9 8 -8 22 -15 32 -15 10 0 170
-34 357 -76 330 -73 480 -98 459 -76 -11 11 -188 63 -280 82 -60 12 -138 51
-118 57 6 2 39 -3 73 -12 34 -9 65 -14 68 -11 6 7 -1 9 -107 41 -54 16 -87 21
-91 15 -6 -9 -250 45 -310 69 -48 19 10 11 140 -18 69 -16 126 -28 128 -26 2
2 -8 14 -22 28 -38 38 -33 50 12 30 80 -36 258 -93 287 -91 17 1 36 -1 43 -6
6 -4 12 -2 12 3 0 6 -4 11 -9 11 -5 0 -12 11 -15 25 -3 13 -15 29 -26 35 -11
6 -17 16 -14 25 4 8 2 15 -4 15 -6 0 -12 -5 -14 -11 -2 -5 -22 3 -44 19 -29
21 -48 28 -67 25 -51 -10 -363 108 -325 122 9 4 25 2 36 -4 38 -20 186 -71
207 -71 14 0 26 10 33 25 10 21 9 28 -6 43 -23 23 -209 141 -405 257 -128 76
-155 96 -174 130 -27 50 -28 58 -4 50 10 -3 23 1 30 9 10 11 3 21 -33 50 -39
33 -103 62 -113 52 -3 -2 10 -20 27 -39 l31 -36 -29 8 c-16 5 -35 5 -42 1 -19
-12 -3 -60 33 -97 17 -18 28 -33 24 -33 -13 0 -156 75 -360 188 l-198 110 3
-61z m566 -293 c105 -36 332 -153 332 -171 0 -20 -19 -13 -215 82 -226 110
-265 140 -117 89z m1312 -805 c24 -14 -19 -10 -65 6 l-40 14 45 -6 c25 -3 52
-9 60 -14z"/>
<path d="M2466 3660 c-10 -28 -11 -74 -3 -176 6 -75 5 -113 -4 -145 l-13 -42
-13 29 c-12 28 -12 27 -13 -26 -1 -30 -4 -49 -7 -42 -4 10 -8 9 -17 -4 -11
-15 -17 -7 -41 60 -25 68 -30 75 -43 62 -13 -12 -11 -27 13 -123 15 -59 34
-126 41 -147 8 -22 12 -41 10 -43 -2 -2 -25 30 -51 71 -26 42 -52 76 -57 76
-6 0 -7 8 -3 18 5 13 4 14 -6 5 -17 -17 90 -246 135 -289 18 -18 36 -45 40
-60 10 -41 88 -204 97 -204 5 0 6 7 3 15 -4 8 -4 15 -1 15 3 0 11 -17 18 -37
17 -53 71 -165 76 -159 2 2 -2 42 -10 88 -17 94 -11 209 9 173 6 -11 14 -67
17 -124 3 -57 10 -108 16 -114 8 -8 11 -7 11 3 2 56 21 278 30 340 6 41 11
106 11 144 0 65 -2 72 -30 98 -40 37 -44 105 -10 127 21 12 22 18 15 119 -6
112 -15 134 -41 112 -21 -17 -23 -13 -36 56 -6 32 -14 63 -18 67 -13 13 -4
-304 9 -350 9 -29 10 -72 5 -149 l-8 -109 -19 90 c-20 100 -73 419 -84 505 -8
65 -19 94 -28 70z m48 -315 c14 -82 35 -193 46 -245 20 -99 24 -127 14 -118
-16 17 -79 343 -88 463 -8 100 0 72 28 -100z m22 -392 c9 -32 27 -93 40 -136
31 -102 30 -142 -2 -52 -38 106 -74 245 -64 245 5 0 17 -26 26 -57z m111 -175
c-3 -7 -5 -2 -5 12 0 14 2 19 5 13 2 -7 2 -19 0 -25z m-117 -53 c0 -5 -5 -3
-10 5 -5 8 -10 20 -10 25 0 6 5 3 10 -5 5 -8 10 -19 10 -25z"/>
<path d="M710 3652 c0 -15 48 -54 62 -50 8 3 3 13 -16 31 -29 27 -46 34 -46
19z"/>
<path d="M1380 3652 c0 -12 19 -26 26 -19 2 2 -2 10 -11 17 -9 8 -15 8 -15 2z"/>
<path d="M3264 3652 c-6 -4 -19 -22 -29 -39 -14 -24 -22 -29 -28 -20 -6 8 -7
6 -3 -6 3 -10 -5 -34 -19 -57 -28 -45 -32 -75 -10 -83 21 -9 135 157 135 198
0 16 -27 20 -46 7z"/>
<path d="M1110 3630 c10 -19 40 -28 40 -12 0 13 -23 32 -37 32 -11 0 -11 -5
-3 -20z"/>
<path d="M1710 3634 c0 -8 5 -12 10 -9 6 4 8 11 5 16 -9 14 -15 11 -15 -7z"/>
<path d="M4673 3611 c-95 -64 -120 -105 -56 -93 26 5 27 4 13 -14 -8 -10 -24
-27 -36 -36 -44 -36 -262 -193 -314 -226 -95 -62 -37 -46 119 33 83 41 151 74
151 72 0 -2 -45 -34 -100 -73 -54 -38 -99 -72 -100 -77 0 -9 165 74 285 143
106 61 308 201 300 208 -2 3 -72 -29 -155 -70 -82 -41 -150 -74 -150 -72 0 2
48 36 106 75 59 39 109 80 111 90 3 11 18 26 34 35 16 8 29 19 29 24 0 15 -15
12 -42 -10 -14 -10 -28 -17 -32 -13 -3 3 -19 6 -36 5 -20 0 -33 6 -40 19 -14
26 -19 25 -87 -20z m-83 -235 c0 -2 -8 -10 -17 -17 -16 -13 -17 -12 -4 4 13
16 21 21 21 13z"/>
<path d="M500 3627 c0 -17 20 -37 37 -37 22 0 14 26 -12 38 -20 9 -25 9 -25
-1z"/>
<path d="M2182 3600 c0 -14 2 -19 5 -12 2 6 2 18 0 25 -3 6 -5 1 -5 -13z"/>
<path d="M3897 3587 c-38 -33 -50 -55 -19 -38 35 20 75 58 66 63 -5 4 -26 -8
-47 -25z"/>
<path d="M3977 3592 c-18 -20 -23 -52 -9 -52 14 0 42 35 42 53 0 22 -13 21
-33 -1z"/>
<path d="M3760 3567 c-20 -17 -53 -47 -74 -65 -21 -18 -36 -36 -33 -39 6 -5
137 103 150 124 14 23 -7 14 -43 -20z"/>
<path d="M1694 3545 c8 -35 103 -178 164 -246 43 -48 55 -72 25 -48 -15 11
-14 9 1 -9 11 -12 21 -20 24 -17 3 3 14 -2 24 -12 34 -31 18 4 -44 93 -63 91
-173 241 -191 259 -6 7 -7 0 -3 -20z"/>
<path d="M1230 3553 c0 -13 29 -38 35 -31 3 3 -4 13 -15 23 -11 10 -20 13 -20
8z"/>
<path d="M4980 3485 c-115 -59 -176 -106 -164 -127 3 -5 10 -6 15 -3 20 13 20
-26 0 -54 -44 -61 -14 -114 52 -91 85 29 230 96 234 108 10 24 -4 23 -72 -3
-124 -46 -127 -25 -4 32 l79 36 0 83 c0 46 -3 84 -7 83 -5 0 -64 -29 -133 -64z"/>
<path d="M1447 3493 c-14 -13 -6 -54 14 -74 24 -24 72 -23 77 2 7 37 -68 96
-91 72z"/>
<path d="M2280 3493 c0 -4 5 -15 10 -23 8 -13 10 -13 10 2 0 9 -4 20 -10 23
-5 3 -10 3 -10 -2z"/>
<path d="M1346 3482 c-3 -6 -1 -14 5 -17 15 -10 25 3 12 16 -7 7 -13 7 -17 1z"/>
<path d="M3713 3463 c-21 -8 -15 -33 7 -33 13 0 20 7 20 20 0 20 -5 23 -27 13z"/>
<path d="M1945 3451 c-3 -5 -1 -12 5 -16 5 -3 10 1 10 9 0 18 -6 21 -15 7z"/>
<path d="M2540 3450 c0 -5 5 -10 10 -10 6 0 10 5 10 10 0 6 -4 10 -10 10 -5 0
-10 -4 -10 -10z"/>
<path d="M2945 3431 c-6 -11 9 -23 19 -14 9 9 7 23 -3 23 -6 0 -12 -4 -16 -9z"/>
<path d="M3025 3404 c-17 -41 -19 -54 -7 -54 9 0 42 64 42 80 0 23 -21 7 -35
-26z"/>
<path d="M3777 3399 c-38 -33 -48 -38 -53 -25 -5 13 -16 8 -57 -26 -67 -56
-217 -208 -217 -219 0 -34 74 17 230 161 47 43 101 91 120 108 19 17 32 33 29
36 -3 4 -27 -12 -52 -35z"/>
<path d="M1590 3412 c0 -5 7 -13 16 -16 10 -4 14 -1 12 6 -5 15 -28 23 -28 10z"/>
<path d="M1862 3401 c4 -13 18 -16 19 -4 0 4 -5 9 -11 12 -7 2 -11 -2 -8 -8z"/>
<path d="M1735 3369 c-10 -15 3 -25 16 -12 7 7 7 13 1 17 -6 3 -14 1 -17 -5z"/>
<path d="M1400 3350 c15 -28 150 -142 163 -137 27 9 11 28 -72 90 -50 37 -93
67 -96 67 -3 0 -1 -9 5 -20z"/>
<path d="M3501 3349 c-22 -24 -27 -39 -12 -39 11 0 44 50 38 57 -3 2 -14 -6
-26 -18z"/>
<path d="M3405 3340 c-11 -17 5 -32 21 -19 8 6 14 15 14 20 0 12 -27 11 -35
-1z"/>
<path d="M1690 3335 c0 -15 102 -125 116 -125 24 0 16 14 -33 61 -58 54 -83
74 -83 64z"/>
<path d="M1930 3331 c0 -12 26 -32 33 -25 9 10 -4 34 -19 34 -8 0 -14 -4 -14
-9z"/>
<path d="M2917 3320 c-15 -39 -45 -165 -40 -173 10 -17 32 16 31 47 -1 17 4
48 11 69 13 37 11 89 -2 57z"/>
<path d="M4687 3323 c-10 -9 -9 -23 1 -23 5 0 17 7 28 15 19 14 19 14 -2 15
-11 0 -24 -3 -27 -7z"/>
<path d="M0 3262 c0 -49 1 -51 23 -43 15 6 22 16 22 36 0 17 -8 33 -22 43 -23
14 -23 14 -23 -36z"/>
<path d="M3965 3280 c-10 -11 -46 -41 -81 -67 -35 -26 -64 -54 -64 -60 0 -20
11 -16 70 23 94 62 128 102 101 118 -4 3 -16 -3 -26 -14z"/>
<path d="M3411 3276 c-16 -19 -11 -29 8 -17 7 5 12 14 9 21 -3 9 -8 7 -17 -4z"/>
<path d="M3712 3263 c-58 -31 -232 -171 -232 -186 0 -5 10 -2 23 7 98 71 100
44 1 -32 -61 -48 -90 -82 -68 -82 26 0 331 199 372 243 15 15 22 34 20 49 -5
35 -52 35 -116 1z"/>
<path d="M2060 3261 c0 -5 5 -13 10 -16 6 -3 10 -2 10 4 0 5 -4 13 -10 16 -5
3 -10 2 -10 -4z"/>
<path d="M4570 3255 c0 -8 4 -15 9 -15 5 0 14 7 21 15 10 13 9 15 -9 15 -12 0
-21 -6 -21 -15z"/>
<path d="M4635 3245 l-30 -26 39 16 c21 8 40 15 42 15 2 0 4 5 4 10 0 17 -24
11 -55 -15z"/>
<path d="M1977 3253 c-15 -14 -5 -41 39 -107 55 -81 198 -233 189 -199 -11 38
4 45 37 18 66 -56 66 16 -1 111 -56 81 -113 134 -142 134 -12 0 -34 11 -51 25
-29 24 -58 32 -71 18z"/>
<path d="M970 3220 c11 -20 31 -26 43 -13 11 10 -13 33 -35 33 -16 0 -17 -3
-8 -20z"/>
<path d="M2150 3229 c0 -9 9 -24 20 -34 26 -23 26 -4 0 26 -15 18 -19 20 -20
8z"/>
<path d="M4408 3178 c-67 -39 -38 -48 35 -11 28 14 37 33 15 33 -7 0 -30 -10
-50 -22z"/>
<path d="M4564 3185 c-10 -8 -14 -15 -8 -15 6 0 17 7 24 15 16 19 9 19 -16 0z"/>
<path d="M4652 3179 c-25 -11 -42 -24 -39 -31 2 -7 -9 -18 -24 -25 -37 -15
-50 -60 -23 -80 40 -29 109 12 101 60 -3 22 1 31 17 37 12 4 39 16 61 25 39
17 39 18 15 25 -39 12 -62 10 -108 -11z"/>
<path d="M1377 3184 c-9 -10 4 -34 19 -34 8 0 14 4 14 9 0 12 -26 32 -33 25z"/>
<path d="M4950 3126 c-190 -70 -180 -65 -230 -108 -73 -64 -31 -60 197 17
l203 69 0 38 c0 24 -5 38 -12 38 -7 -1 -78 -25 -158 -54z"/>
<path d="M1045 3160 c3 -5 10 -10 16 -10 5 0 9 5 9 10 0 6 -7 10 -16 10 -8 0
-12 -4 -9 -10z"/>
<path d="M1880 3164 c0 -5 23 -32 52 -59 35 -35 45 -41 30 -20 -26 38 -82 92
-82 79z"/>
<path d="M4175 3144 c-27 -14 -56 -32 -64 -39 -13 -12 -12 -15 2 -21 17 -6
137 60 137 77 0 15 -22 10 -75 -17z"/>
<path d="M4040 3122 c-36 -12 -101 -65 -92 -74 10 -10 105 32 117 53 10 14 -6
28 -25 21z"/>
<path d="M4400 3079 c-101 -43 -118 -53 -101 -63 11 -7 197 69 206 84 13 22
-18 15 -105 -21z"/>
<path d="M2800 3090 c0 -5 5 -10 10 -10 6 0 10 5 10 10 0 6 -4 10 -10 10 -5 0
-10 -4 -10 -10z"/>
<path d="M3716 3081 c-4 -7 -5 -15 -2 -18 9 -9 19 4 14 18 -4 11 -6 11 -12 0z"/>
<path d="M1212 3068 c6 -16 57 -42 66 -33 9 9 -36 45 -55 45 -8 0 -13 -6 -11
-12z"/>
<path d="M430 3042 c0 -37 71 -82 96 -61 34 28 -6 79 -61 79 -27 0 -35 -4 -35
-18z"/>
<path d="M4175 3051 c-6 -11 9 -23 19 -14 9 9 7 23 -3 23 -6 0 -12 -4 -16 -9z"/>
<path d="M1320 3041 c0 -5 7 -12 16 -15 14 -5 15 -4 4 9 -14 17 -20 19 -20 6z"/>
<path d="M4058 3034 c-35 -18 -37 -38 -3 -30 42 11 73 24 80 35 9 16 -45 13
-77 -5z"/>
<path d="M4483 3020 c-13 -5 -23 -12 -23 -15 0 -10 27 -5 46 10 21 16 11 18
-23 5z"/>
<path d="M5057 3015 c-66 -18 -97 -40 -97 -70 0 -13 5 -27 10 -30 6 -3 10 -10
10 -15 0 -12 -107 -33 -136 -26 -23 6 -157 -24 -299 -66 -74 -23 -74 -38 0
-19 24 6 56 11 72 10 25 0 26 -1 8 -9 -11 -5 -67 -19 -125 -30 -71 -15 -120
-31 -151 -51 -72 -46 -103 -53 -133 -34 -14 10 -26 26 -26 37 0 21 3 21 -95
-12 -58 -20 -68 -45 -17 -45 41 0 36 -15 -9 -30 -21 -7 -35 -19 -37 -32 -3
-17 -18 -21 -135 -38 -108 -14 -136 -22 -153 -39 -12 -13 -46 -28 -77 -35 -76
-17 -85 -34 -16 -30 31 2 56 0 57 -6 2 -5 -6 -11 -18 -13 -32 -5 -13 -22 25
-22 19 0 36 -4 39 -8 3 -5 27 -5 53 -1 70 11 203 11 203 -1 0 -5 -25 -10 -56
-10 -52 0 -56 -1 -51 -21 5 -19 2 -21 -22 -16 -53 11 -249 20 -286 13 l-37 -7
17 -26 17 -25 -104 7 c-56 4 -134 11 -173 14 l-70 7 87 8 c57 5 87 12 85 19
-1 8 27 14 84 18 92 6 121 15 98 30 -8 5 -31 9 -51 9 -37 0 -57 13 -38 25 20
12 9 22 -22 20 -18 0 -67 -18 -109 -39 -68 -34 -105 -43 -234 -62 -77 -10 -89
-14 -77 -26 6 -6 45 -13 86 -16 42 -2 76 -7 76 -11 0 -3 -7 -14 -15 -25 -17
-22 -4 -56 21 -56 8 0 25 -6 37 -14 12 -7 60 -24 107 -36 47 -12 90 -27 95
-32 7 -8 6 -9 -3 -4 -23 13 -152 23 -152 12 0 -13 81 -66 101 -66 11 0 11 -2
1 -8 -9 -6 9 -19 56 -40 38 -18 76 -32 84 -32 9 0 21 -7 28 -15 10 -12 9 -15
-6 -15 -20 0 35 -38 144 -97 58 -33 92 -37 92 -14 0 6 -26 29 -57 52 -32 23
-68 54 -80 69 -12 15 -48 36 -80 48 -65 24 -102 47 -91 57 4 4 39 -8 78 -25
79 -37 106 -36 33 1 -66 34 -70 54 -9 46 59 -8 102 -31 109 -56 6 -24 55 -50
65 -35 9 13 175 -49 376 -140 79 -36 166 -74 193 -85 26 -10 111 -46 187 -80
77 -33 141 -61 143 -61 48 0 -308 172 -581 281 -189 76 -346 151 -346 166 0 7
6 13 13 12 6 -2 27 1 44 5 37 9 76 0 67 -15 -3 -6 -24 -8 -48 -5 -38 5 -34 2
42 -35 45 -22 119 -49 164 -61 45 -11 98 -29 118 -39 19 -10 49 -21 65 -25 52
-13 12 22 -48 42 -68 22 -127 52 -127 64 0 6 4 10 8 10 12 0 212 -68 247 -84
153 -70 716 -233 715 -207 -1 20 -239 110 -410 156 -160 42 -235 64 -266 75
-51 20 -283 90 -297 90 -8 0 -13 10 -13 22 1 21 -12 26 -134 60 -74 21 -171
45 -215 54 -99 19 -108 22 -101 33 6 10 113 -9 191 -33 28 -9 122 -32 210 -52
89 -20 167 -42 175 -51 13 -14 12 -15 -12 -9 -43 10 -33 -7 15 -26 195 -76
215 -79 204 -37 -5 18 -2 20 16 14 12 -3 50 -9 85 -12 55 -5 62 -4 56 11 -8
20 6 20 51 2 18 -8 100 -33 182 -55 81 -23 168 -48 193 -56 41 -14 42 -15 10
-11 -19 3 -97 17 -173 31 -75 14 -150 25 -165 23 -30 -4 13 -16 321 -98 l177
-47 0 84 c0 58 -4 85 -12 88 -7 3 -76 16 -153 30 -483 88 -691 138 -657 159 6
3 95 -5 199 -19 578 -77 533 -73 533 -49 0 11 5 14 18 9 9 -3 29 -9 45 -12 23
-5 27 -2 27 16 0 13 -8 22 -22 25 -49 10 -232 26 -294 26 -57 0 -71 4 -98 26
l-31 27 35 -7 c114 -21 285 -37 288 -27 4 11 31 9 100 -5 20 -4 22 -1 22 35 0
37 -2 39 -37 45 -21 3 -56 6 -78 6 -74 1 -70 17 6 24 39 3 76 9 80 12 24 15
-13 22 -147 29 -110 5 -149 4 -154 -5 -10 -16 -197 -15 -217 1 -24 20 5 29
100 29 86 0 87 0 87 25 0 15 6 25 14 25 8 0 18 5 21 11 7 10 -182 7 -450 -7
-66 -4 -118 -4 -115 -1 3 3 77 10 165 17 243 17 247 17 239 42 -5 18 -3 20 12
13 22 -9 22 -9 102 -7 38 1 62 6 62 13 0 8 -20 10 -60 7 -58 -4 -78 3 -44 16
9 3 60 9 115 13 72 4 99 3 99 -5 0 -7 -11 -12 -24 -12 -14 0 -28 -5 -32 -11
-5 -9 23 -10 111 -5 65 4 124 10 131 13 9 3 14 20 14 45 l0 41 -107 -7 c-60
-4 -135 -9 -167 -13 -38 -4 -57 -2 -53 4 4 6 37 13 74 16 37 3 110 11 161 18
l92 12 0 64 c0 60 -1 64 -20 58 -14 -4 -28 2 -46 20 -30 30 -26 37 29 55 l37
12 0 79 c0 43 -3 79 -7 78 -5 0 -30 -7 -56 -14z m-251 -320 c-11 -8 -28 -15
-37 -15 -29 0 -48 -11 -43 -24 7 -18 -402 -74 -418 -58 -7 7 -10 13 -7 16 9 8
457 92 504 95 20 0 20 0 1 -14z m-626 -200 c-9 -11 -32 -15 -83 -15 -80 0 -83
8 -5 20 90 13 102 12 88 -5z m330 -145 c0 -12 -176 -12 -205 0 -13 6 20 9 93
9 68 1 112 -3 112 -9z m149 -36 c17 -4 31 -11 31 -16 0 -11 -171 1 -184 13
-11 10 105 12 153 3z m-1275 -84 c80 -22 158 -41 174 -41 39 -2 62 -9 62 -19
0 -5 -15 -7 -32 -4 -52 9 -289 72 -333 88 -73 27 -19 17 129 -24z m644 11 c93
-18 111 -25 98 -38 -8 -9 -245 37 -252 49 -8 13 53 8 154 -11z m-271 -55 c16
-16 -34 -16 -97 -1 -65 16 -78 23 -65 37 6 6 153 -26 162 -36z m502 -47 c20
-13 -72 -2 -103 12 -15 7 -5 8 33 4 30 -4 62 -11 70 -16z m-869 1 c8 -5 11
-10 5 -10 -5 0 -17 5 -25 10 -8 5 -10 10 -5 10 6 0 17 -5 25 -10z"/>
<path d="M2751 3006 c-17 -20 -42 -188 -31 -200 12 -12 27 28 48 122 11 49 12
76 5 83 -7 7 -14 5 -22 -5z"/>
<path d="M4587 3003 c-4 -3 -7 -10 -7 -14 0 -9 39 1 46 12 6 10 -29 12 -39 2z"/>
<path d="M2310 2973 c0 -18 76 -145 123 -205 50 -65 49 -41 -2 40 -27 43 -61
101 -75 130 -26 52 -46 67 -46 35z"/>
<path d="M4504 2965 c-24 -18 -7 -19 26 0 16 9 19 14 9 15 -8 0 -24 -7 -35
-15z"/>
<path d="M3960 2953 c-71 -36 -23 -71 52 -37 25 11 38 23 36 33 -4 23 -47 24
-88 4z"/>
<path d="M1390 2945 c7 -8 16 -12 21 -9 13 8 1 24 -18 24 -13 0 -13 -3 -3 -15z"/>
<path d="M4296 2926 c-96 -37 -138 -68 -119 -87 8 -8 41 -2 126 25 116 36 144
53 133 81 -8 23 -42 18 -140 -19z"/>
<path d="M4615 2950 c-3 -5 1 -10 9 -10 8 0 18 5 21 10 3 6 -1 10 -9 10 -8 0
-18 -4 -21 -10z"/>
<path d="M4747 2939 c-9 -6 -15 -14 -12 -18 8 -13 55 0 55 15 0 16 -18 18 -43
3z"/>
<path d="M3269 2919 c-8 -16 -8 -24 0 -32 16 -16 45 3 49 32 5 29 -33 29 -49
0z"/>
<path d="M4832 2929 c2 -6 8 -10 13 -10 5 0 11 4 13 10 2 6 -4 11 -13 11 -9 0
-15 -5 -13 -11z"/>
<path d="M4123 2908 c-28 -13 -30 -28 -5 -28 19 0 42 18 42 32 0 10 -10 9 -37
-4z"/>
<path d="M3380 2900 c0 -5 5 -10 10 -10 6 0 10 5 10 10 0 6 -4 10 -10 10 -5 0
-10 -4 -10 -10z"/>
<path d="M3555 2899 c-11 -17 0 -20 21 -4 17 13 17 14 2 15 -9 0 -20 -5 -23
-11z"/>
<path d="M3640 2840 c-142 -81 -237 -130 -252 -130 -7 0 11 22 41 48 41 37 53
53 48 66 -10 25 -66 16 -121 -20 -67 -44 -177 -135 -183 -150 -3 -8 5 -26 18
-40 29 -31 36 -29 188 40 64 29 134 59 156 66 139 45 251 118 243 159 -6 29
-32 21 -138 -39z"/>
<path d="M1515 2870 c3 -5 11 -10 16 -10 6 0 7 5 4 10 -3 6 -11 10 -16 10 -6
0 -7 -4 -4 -10z"/>
<path d="M2310 2871 c0 -13 29 -35 37 -28 7 8 -15 37 -28 37 -5 0 -9 -4 -9 -9z"/>
<path d="M4475 2840 c-3 -5 1 -10 9 -10 8 0 18 5 21 10 3 6 -1 10 -9 10 -8 0
-18 -4 -21 -10z"/>
<path d="M4010 2809 c-140 -47 -170 -60 -170 -71 0 -10 57 -1 75 12 6 4 54 22
108 39 53 18 97 37 97 42 0 14 -17 10 -110 -22z"/>
<path d="M4355 2820 c-3 -5 -1 -10 4 -10 6 0 11 5 11 10 0 6 -2 10 -4 10 -3 0
-8 -4 -11 -10z"/>
<path d="M4229 2781 c-22 -18 -23 -20 -6 -27 23 -9 56 21 41 36 -8 8 -18 5
-35 -9z"/>
<path d="M3210 2759 c0 -5 5 -7 10 -4 6 3 10 8 10 11 0 2 -4 4 -10 4 -5 0 -10
-5 -10 -11z"/>
<path d="M4125 2760 c-3 -5 3 -10 14 -10 12 0 21 5 21 10 0 6 -6 10 -14 10 -8
0 -18 -4 -21 -10z"/>
<path d="M1710 2737 c0 -26 12 -34 110 -71 36 -14 94 -37 129 -51 45 -19 66
-24 74 -16 16 16 3 24 -93 64 -47 19 -113 49 -147 66 -33 17 -63 31 -67 31 -3
0 -6 -10 -6 -23z"/>
<path d="M4337 2753 c-4 -3 -7 -11 -7 -17 0 -6 5 -5 12 2 6 6 9 14 7 17 -3 3
-9 2 -12 -2z"/>
<path d="M3974 2735 c-11 -27 6 -36 37 -20 16 9 27 20 24 25 -9 15 -55 12 -61
-5z"/>
<path d="M1460 2720 c0 -5 7 -10 15 -10 8 0 15 5 15 10 0 6 -7 10 -15 10 -8 0
-15 -4 -15 -10z"/>
<path d="M3822 2700 c-64 -18 -113 -47 -62 -36 95 19 171 40 176 47 8 14 -45
9 -114 -11z"/>
<path d="M1619 2694 c18 -8 36 -13 39 -10 6 6 -43 26 -61 25 -7 0 3 -7 22 -15z"/>
<path d="M2420 2690 c0 -16 61 -80 76 -80 8 0 14 -6 14 -13 0 -8 9 -22 20 -32
15 -14 20 -15 20 -4 0 16 -107 139 -121 139 -5 0 -9 -4 -9 -10z"/>
<path d="M2920 2659 c-31 -43 -45 -77 -37 -86 7 -6 87 100 87 115 0 23 -20 11
-50 -29z"/>
<path d="M2690 2666 c0 -8 5 -18 10 -21 6 -3 10 3 10 14 0 12 -4 21 -10 21 -5
0 -10 -6 -10 -14z"/>
<path d="M2811 2663 c-24 -47 -39 -93 -31 -98 13 -8 60 65 60 92 0 27 -16 30
-29 6z"/>
<path d="M1650 2655 c0 -8 7 -15 15 -15 8 0 15 7 15 15 0 8 -7 15 -15 15 -8 0
-15 -7 -15 -15z"/>
<path d="M1720 2650 c0 -5 7 -10 16 -10 8 0 12 5 9 10 -3 6 -10 10 -16 10 -5
0 -9 -4 -9 -10z"/>
<path d="M2755 2651 c-9 -16 -34 -91 -30 -91 7 0 26 40 35 71 9 29 6 37 -5 20z"/>
<path d="M2977 2633 c-10 -10 -8 -33 3 -33 5 0 14 9 20 20 8 15 8 20 -3 20 -8
0 -17 -3 -20 -7z"/>
<path d="M3755 2616 c-16 -7 -60 -20 -97 -30 -38 -10 -68 -22 -68 -27 0 -13
17 -11 80 7 30 8 74 20 97 25 23 6 44 17 47 25 7 18 -18 18 -59 0z"/>
<path d="M3065 2609 c-11 -17 0 -20 21 -4 17 13 17 14 2 15 -9 0 -20 -5 -23
-11z"/>
<path d="M3850 2610 c0 -5 5 -10 10 -10 6 0 10 5 10 10 0 6 -4 10 -10 10 -5 0
-10 -4 -10 -10z"/>
<path d="M1891 2595 c10 -10 22 -13 34 -9 18 7 18 8 -1 15 -10 4 -26 8 -34 8
-12 1 -12 -1 1 -14z"/>
<path d="M3370 2570 c-37 -16 -66 -35 -68 -45 -3 -13 1 -16 20 -10 61 17 148
59 148 71 0 20 -27 16 -100 -16z"/>
<path d="M1985 2579 c-8 -12 43 -31 74 -27 22 3 19 6 -21 20 -28 10 -50 13
-53 7z"/>
<path d="M2450 2581 c0 -14 89 -108 90 -95 0 7 -15 30 -32 52 -33 41 -58 59
-58 43z"/>
<path d="M3278 2564 c-27 -13 -48 -29 -48 -34 0 -6 27 3 60 20 33 17 60 32 60
35 0 11 -27 3 -72 -21z"/>
<path d="M2107 2555 c-16 -12 -16 -13 3 -18 13 -3 18 -10 14 -21 -3 -9 -1 -16
6 -16 6 0 8 5 5 10 -3 6 -5 10 -3 10 3 0 156 -51 193 -64 l20 -8 -20 16 c-11
8 -25 19 -31 24 -6 5 -21 13 -35 17 -13 4 -49 20 -79 35 -47 24 -58 26 -73 15z"/>
<path d="M3725 2560 c3 -5 8 -10 11 -10 2 0 4 5 4 10 0 6 -5 10 -11 10 -5 0
-7 -4 -4 -10z"/>
<path d="M645 2540 c28 -12 165 -12 165 0 0 6 -37 10 -92 9 -61 0 -86 -3 -73
-9z"/>
<path d="M84 2515 c-9 -23 5 -35 40 -35 43 0 66 24 37 39 -28 16 -71 14 -77
-4z"/>
<path d="M3005 2500 c-3 -5 1 -10 9 -10 9 0 16 5 16 10 0 6 -4 10 -9 10 -6 0
-13 -4 -16 -10z"/>
<path d="M360 2480 c0 -5 5 -10 10 -10 6 0 10 5 10 10 0 6 -4 10 -10 10 -5 0
-10 -4 -10 -10z"/>
<path d="M670 2480 c0 -5 18 -10 40 -10 22 0 40 5 40 10 0 6 -18 10 -40 10
-22 0 -40 -4 -40 -10z"/>
<path d="M2365 2480 c5 -9 69 -40 81 -40 2 0 4 4 4 9 0 5 -18 16 -40 25 -47
19 -53 20 -45 6z"/>
<path d="M3390 2480 l-25 -8 25 0 c14 0 39 4 55 8 l30 8 -30 0 c-16 0 -41 -4
-55 -8z"/>
<path d="M1295 2450 c-13 -5 25 -9 103 -9 80 -1 121 3 117 9 -8 12 -192 12
-220 0z"/>
<path d="M2215 2452 c13 -13 85 -35 92 -28 6 6 -31 22 -75 32 -18 4 -24 3 -17
-4z"/>
<path d="M2973 2442 c-66 -21 -81 -37 -28 -28 67 10 116 27 110 37 -8 12 -19
11 -82 -9z"/>
<path d="M180 2434 c-69 -7 -137 -13 -152 -13 -21 -1 -28 -6 -28 -22 0 -20 3
-20 83 -13 45 4 84 10 87 14 3 4 47 13 98 20 51 7 95 17 98 21 6 11 -28 10
-186 -7z"/>
<path d="M470 2440 c0 -13 11 -13 30 0 12 8 11 10 -7 10 -13 0 -23 -4 -23 -10z"/>
<path d="M3206 2434 c-70 -14 -103 -31 -89 -45 11 -11 160 14 175 29 10 10 3
33 -10 31 -4 -1 -38 -7 -76 -15z"/>
<path d="M1578 2433 c-10 -2 -18 -9 -18 -15 0 -12 49 -2 65 13 9 9 -15 11 -47
2z"/>
<path d="M1910 2425 c0 -11 -11 -15 -42 -15 -24 0 -50 -5 -58 -10 -11 -7 5
-10 53 -10 37 0 67 -4 67 -9 0 -12 -112 -23 -178 -17 -41 3 -47 3 -22 -3 45
-10 30 -16 -85 -35 -69 -12 -94 -20 -108 -37 -27 -33 -16 -44 44 -45 109 -1
104 -13 -16 -39 -96 -21 -185 -53 -185 -66 0 -13 39 -6 234 42 168 42 183 47
240 93 49 39 130 49 152 18 9 -13 21 -18 34 -15 33 9 26 -32 -7 -45 -51 -20
-85 -25 -92 -13 -11 18 -91 -25 -91 -49 0 -23 36 -26 110 -9 94 22 180 36 180
30 0 -4 -22 -15 -50 -26 -27 -11 -50 -25 -50 -32 0 -7 3 -13 7 -13 15 0 190
75 233 100 25 15 66 35 93 45 44 17 50 17 90 1 59 -22 88 -20 133 10 21 15 55
32 74 39 43 15 54 45 15 45 -16 0 -39 13 -62 35 -20 19 -41 35 -47 36 -58 6
-105 2 -123 -8 -13 -8 -35 -11 -50 -8 -27 6 -27 6 -9 -9 10 -8 23 -13 27 -10
10 6 12 -20 2 -29 -3 -4 -11 -3 -17 2 -6 5 -40 11 -76 14 -36 3 -132 17 -215
31 -178 30 -205 31 -205 11z m495 -85 c-3 -5 -14 -10 -23 -9 -14 0 -13 2 3 9
27 11 27 11 20 0z m-110 -49 c-8 -7 -139 -41 -159 -41 -4 0 -6 4 -6 9 0 10
102 39 145 40 17 1 25 -3 20 -8z"/>
<path d="M1075 2420 c-4 -6 10 -10 34 -10 23 0 41 5 41 10 0 6 -15 10 -34 10
-19 0 -38 -4 -41 -10z"/>
<path d="M560 2413 c-19 -3 -39 -9 -45 -14 -13 -13 126 0 140 12 9 9 -27 10
-95 2z"/>
<path d="M1425 2399 c-4 -6 -5 -12 -2 -15 7 -7 37 7 37 17 0 13 -27 11 -35 -2z"/>
<path d="M750 2390 c-29 -18 -3 -24 98 -22 41 1 61 6 57 12 -4 6 -15 8 -25 5
-10 -3 -21 -1 -25 5 -8 12 -85 13 -105 0z"/>
<path d="M3003 2393 c9 -2 23 -2 30 0 6 3 -1 5 -18 5 -16 0 -22 -2 -12 -5z"/>
<path d="M1135 2380 c-8 -13 95 -13 115 0 11 7 -3 10 -47 10 -34 0 -65 -4 -68
-10z"/>
<path d="M1307 2370 c-64 -8 -87 -20 -40 -20 54 0 123 12 117 21 -3 5 -8 8
-12 8 -4 -1 -33 -5 -65 -9z"/>
<path d="M2915 2360 c-3 -5 1 -10 9 -10 9 0 16 5 16 10 0 6 -4 10 -9 10 -6 0
-13 -4 -16 -10z"/>
<path d="M593 2353 c-23 -9 -14 -23 15 -23 37 0 72 10 72 21 0 9 -66 11 -87 2z"/>
<path d="M960 2353 c-19 -3 -39 -9 -45 -14 -13 -13 116 -1 130 12 9 9 -18 10
-85 2z"/>
<path d="M1410 2348 c-62 -17 -61 -31 2 -24 64 7 88 14 88 27 0 11 -45 10 -90
-3z"/>
<path d="M2750 2320 c0 -5 7 -10 16 -10 8 0 12 5 9 10 -3 6 -10 10 -16 10 -5
0 -9 -4 -9 -10z"/>
<path d="M455 2315 c-5 -2 -49 -9 -96 -15 -101 -14 -123 -24 -96 -44 15 -12
11 -14 -38 -18 -51 -4 -86 -20 -74 -33 3 -2 37 4 75 14 38 10 108 21 157 24
99 7 142 23 142 52 0 15 -7 20 -30 22 -16 1 -34 0 -40 -2z"/>
<path d="M1095 2309 c-10 -15 1 -23 20 -15 9 3 13 10 10 16 -8 13 -22 13 -30
-1z"/>
<path d="M2920 2290 c0 -5 -13 -10 -30 -10 -38 0 -39 -17 -3 -26 15 -4 54 -20
86 -37 124 -61 169 -67 183 -25 10 32 -31 62 -116 87 -82 23 -120 27 -120 11z"/>
<path d="M857 2273 c-27 -8 -46 -17 -43 -20 6 -7 124 16 146 28 26 14 -51 8
-103 -8z"/>
<path d="M595 2256 c-28 -7 -56 -16 -63 -20 -7 -4 -83 -20 -170 -36 -86 -16
-203 -39 -259 -51 l-103 -22 0 -33 c0 -19 5 -34 11 -34 6 0 86 21 177 46 181
50 310 83 330 84 23 0 12 -17 -18 -30 -48 -20 -37 -33 21 -26 28 4 56 3 62 -2
19 -16 132 24 156 55 57 71 -8 102 -144 69z"/>
<path d="M1882 2253 c-18 -8 -31 -18 -28 -20 5 -6 88 18 101 29 16 14 -39 8
-73 -9z"/>
<path d="M1465 2240 c-3 -5 -2 -10 4 -10 5 0 13 5 16 10 3 6 2 10 -4 10 -5 0
-13 -4 -16 -10z"/>
<path d="M2354 2235 c-19 -14 -19 -14 1 -14 11 0 34 6 50 14 l30 13 -31 1
c-16 1 -39 -6 -50 -14z"/>
<path d="M2542 2173 c-41 -90 -60 -183 -44 -217 17 -38 66 -36 86 2 39 76 60
244 34 270 -26 26 -45 12 -76 -55z"/>
<path d="M1293 2210 c-54 -32 -35 -90 24 -75 72 18 88 95 20 95 -7 0 -27 -9
-44 -20z"/>
<path d="M2850 2222 c0 -5 23 -31 51 -57 39 -37 53 -45 62 -35 9 9 4 19 -23
42 -42 35 -90 62 -90 50z"/>
<path d="M2654 2205 c-13 -33 -10 -198 3 -202 8 -3 13 16 15 64 2 48 7 67 16
66 6 -2 12 4 12 12 0 8 -4 15 -10 15 -5 0 -10 8 -10 18 0 9 -4 24 -10 32 -7
12 -10 11 -16 -5z"/>
<path d="M1099 2196 c-4 -4 -161 -33 -227 -42 -39 -5 -132 -50 -132 -64 0 -16
32 -12 65 9 25 14 213 71 238 71 4 0 7 -11 7 -24 0 -51 59 -38 97 20 l22 34
-33 0 c-18 0 -35 -2 -37 -4z"/>
<path d="M2284 2185 c-10 -8 -14 -15 -7 -15 19 0 43 11 43 21 0 13 -14 11 -36
-6z"/>
<path d="M2378 2155 c-27 -20 -48 -38 -48 -41 0 -7 20 4 44 25 10 9 28 16 39
16 13 0 23 7 25 18 5 25 -7 21 -60 -18z"/>
<path d="M2417 2098 c-47 -51 -85 -94 -83 -95 2 -2 26 4 55 13 45 15 56 25 91
78 38 57 50 96 32 96 -5 0 -47 -41 -95 -92z"/>
<path d="M1725 2164 c-39 -14 -69 -34 -49 -34 27 2 105 27 105 35 1 15 -13 15
-56 -1z"/>
<path d="M3032 2144 c10 -10 20 -15 24 -12 3 4 -5 12 -18 18 -22 12 -22 12 -6
-6z"/>
<path d="M347 2133 c-24 -23 9 -31 39 -8 18 14 18 14 -7 15 -14 0 -29 -3 -32
-7z"/>
<path d="M1875 2130 c-28 -4 -65 -15 -82 -24 -45 -23 -67 -22 -53 3 9 18 8 19
-18 11 -15 -4 -54 -20 -87 -35 -33 -15 -81 -28 -107 -29 -45 -2 -47 -1 -42 21
8 32 -3 30 -104 -21 -100 -51 -184 -106 -162 -106 32 1 182 30 200 40 10 5 31
14 47 20 24 8 25 8 9 -3 -41 -27 -104 -65 -148 -91 -50 -28 -54 -35 -38 -66
11 -21 16 -17 -112 -101 -84 -54 -98 -74 -45 -64 31 6 31 5 12 -10 -11 -9 -31
-19 -45 -22 -14 -3 -38 -17 -53 -30 -33 -27 -47 -29 -47 -8 0 33 -44 13 -178
-82 -44 -31 -61 -48 -53 -56 7 -7 18 -5 35 7 14 9 30 16 36 16 6 0 26 11 43
23 40 30 115 74 102 60 -31 -32 -358 -241 -410 -262 -16 -6 -41 -20 -55 -31
-23 -18 -23 -20 -5 -20 11 0 27 5 35 10 11 7 18 4 26 -11 10 -20 12 -19 53 15
77 64 381 262 496 322 79 42 71 21 -10 -25 -83 -47 -150 -111 -115 -111 5 0
47 27 91 60 45 34 84 59 86 56 3 -2 -3 -16 -12 -30 -19 -29 -12 -32 25 -11 14
8 31 14 38 15 48 1 -147 -193 -422 -419 -129 -107 -233 -197 -231 -199 7 -8
51 25 230 169 200 160 568 429 587 429 3 0 3 -13 0 -30 -6 -44 15 -39 82 20
31 28 61 50 67 50 5 0 9 7 9 16 0 11 -6 14 -22 8 -25 -8 -6 10 147 133 97 78
235 214 235 232 0 5 -27 8 -60 8 -33 -1 -60 0 -60 3 0 3 41 23 92 45 97 43 99
59 2 26 -99 -33 -91 -6 14 48 23 12 42 26 42 31 0 6 -3 9 -7 9 -5 -1 -31 -5
-58 -9z m-35 -220 c-61 -48 -282 -192 -287 -187 -11 12 147 137 174 137 10 0
43 16 73 35 60 38 79 46 40 15z m-356 -13 c-2 -7 -19 -21 -37 -31 l-32 -18 33
31 c35 34 44 38 36 18z m13 -185 c-31 -33 -87 -67 -87 -54 0 11 90 81 104 82
6 0 -2 -12 -17 -28z"/>
<path d="M2725 2105 c10 -59 28 -81 20 -25 -3 25 -11 50 -17 55 -7 7 -8 -2 -3
-30z"/>
<path d="M2807 2134 c-8 -8 3 -34 14 -34 11 0 12 27 0 34 -4 3 -11 3 -14 0z"/>
<path d="M1573 2118 c-13 -6 -23 -15 -23 -19 0 -10 58 10 66 22 7 12 -16 10
-43 -3z"/>
<path d="M2194 2101 c-37 -22 -51 -41 -32 -41 22 0 79 40 73 50 -8 13 -5 13
-41 -9z"/>
<path d="M2373 2099 c-18 -12 -33 -28 -33 -37 0 -11 10 -6 35 18 48 47 48 51
-2 19z"/>
<path d="M3010 2092 c0 -15 86 -92 103 -92 36 0 9 42 -49 74 -51 29 -54 30
-54 18z"/>
<path d="M3270 2097 c0 -4 34 -31 75 -62 120 -88 93 -84 -43 7 -40 27 -77 46
-82 43 -6 -4 -8 -10 -5 -15 5 -9 146 -110 198 -143 21 -13 27 -23 22 -37 -8
-24 26 -59 113 -116 46 -30 194 -135 211 -150 2 -2 2 -7 -1 -10 -4 -3 -18 2
-32 12 -46 29 -39 8 11 -36 72 -63 192 -140 218 -140 14 0 29 9 35 20 12 22 4
44 -36 105 -25 39 -14 32 126 -84 274 -225 430 -366 430 -389 0 -8 7 -11 18
-8 12 4 28 -4 48 -25 16 -17 145 -144 287 -281 l257 -250 0 135 0 136 -57 44
c-78 59 -88 64 -80 44 4 -10 -28 11 -71 46 -42 35 -99 79 -127 97 -99 67 -515
395 -515 406 0 6 14 -2 52 -28 35 -24 58 -23 58 3 0 18 8 14 61 -28 95 -74
122 -101 115 -118 -3 -9 3 -19 16 -26 12 -7 72 -51 133 -98 194 -153 284 -221
290 -221 4 0 33 -21 66 -46 l59 -45 0 64 0 64 -77 55 c-321 228 -471 334 -555
391 -53 37 -110 84 -128 104 -18 20 -78 67 -134 105 -84 57 -106 68 -130 64
-23 -5 -44 4 -104 44 -41 28 -78 48 -81 45 -5 -6 -3 -10 38 -65 l24 -32 -24
12 c-35 19 -257 179 -265 191 -10 16 -200 138 -276 176 -61 31 -138 53 -138
40z m328 -201 c17 -19 17 -19 -16 0 -18 10 -45 29 -60 42 l-27 23 43 -22 c23
-13 50 -32 60 -43z m177 -137 c27 -30 4 -16 -72 45 -35 27 -63 53 -63 58 0 10
108 -72 135 -103z"/>
<path d="M1212 2076 c-67 -17 -106 -45 -110 -79 -3 -22 1 -27 20 -27 24 0 110
30 160 56 21 11 28 21 26 37 -4 27 -26 30 -96 13z"/>
<path d="M2020 2064 c-75 -40 -81 -44 -75 -54 9 -14 135 55 135 74 0 10 -12 6
-60 -20z"/>
<path d="M2265 2078 c-35 -19 -75 -61 -75 -79 0 -22 24 -41 43 -33 19 7 67 85
67 108 0 19 -8 20 -35 4z"/>
<path d="M2831 2058 c19 -37 59 -88 70 -88 20 0 8 32 -27 70 -40 44 -61 53
-43 18z"/>
<path d="M563 2058 c-13 -6 -23 -15 -23 -20 0 -15 37 -8 61 12 23 18 23 19 4
19 -11 0 -30 -5 -42 -11z"/>
<path d="M2910 2055 c0 -16 116 -155 130 -155 25 0 14 23 -40 87 -60 72 -90
94 -90 68z"/>
<path d="M339 2031 c-35 -36 -37 -56 -4 -77 41 -26 115 14 115 62 0 49 -68 58
-111 15z"/>
<path d="M2707 2044 c-3 -3 -1 -18 4 -33 22 -57 94 -459 84 -469 -2 -2 -9 16
-15 39 -29 112 -46 144 -36 67 5 -38 4 -39 -4 -13 -5 17 -21 50 -34 75 -13 25
-27 62 -31 83 -8 43 -27 62 -20 20 9 -57 13 -269 6 -288 -6 -15 -10 -7 -15 30
-7 53 -29 104 -39 89 -3 -5 -12 -44 -21 -86 -18 -86 -21 -195 -6 -218 14 -22
42 -1 53 41 l10 34 12 -40 13 -40 1 48 c1 26 5 47 10 47 13 0 21 -81 26 -286
6 -223 13 -294 27 -294 11 0 5 261 -7 365 -3 26 1 18 11 -22 8 -35 19 -63 24
-63 16 0 40 58 40 97 0 21 -9 81 -20 133 -11 52 -20 97 -19 100 0 3 14 -28 30
-69 29 -72 99 -336 99 -373 0 -11 18 -92 40 -181 23 -96 58 -290 85 -477 25
-173 47 -325 50 -337 4 -19 12 -23 40 -23 25 0 35 4 35 16 0 9 -13 95 -30 192
-45 271 -80 517 -80 562 0 23 5 61 11 85 13 53 -6 155 -52 274 -16 41 -27 77
-24 79 5 5 45 -83 45 -98 0 -4 7 -13 15 -20 13 -10 15 -9 15 10 0 12 -7 46
-16 76 -8 30 -14 59 -12 66 7 21 66 -87 79 -145 7 -32 16 -60 21 -63 15 -10
21 27 10 63 -19 61 7 22 33 -50 14 -36 40 -86 58 -110 23 -31 40 -69 52 -119
9 -40 39 -152 65 -248 27 -96 65 -240 85 -320 20 -80 43 -169 51 -198 l15 -52
50 0 c27 0 49 4 49 9 0 15 -80 242 -97 275 -8 16 -40 112 -69 213 -30 101 -79
250 -110 331 -31 81 -82 218 -114 305 -32 88 -79 195 -105 239 -25 44 -45 82
-42 84 2 2 19 -17 38 -42 28 -38 35 -43 37 -26 5 33 -56 162 -98 208 -21 23
-64 92 -95 153 -30 61 -58 111 -61 111 -2 0 -2 -17 1 -37 l5 -38 -24 50 c-13
28 -27 67 -31 87 -4 21 -11 40 -16 44 -16 9 -10 -51 11 -111 36 -105 14 -68
-35 57 -50 128 -57 142 -68 132z m188 -597 c58 -184 5 -151 -59 37 -13 38 -14
51 -4 63 10 13 14 12 25 -3 8 -10 25 -54 38 -97z m55 -483 c14 -36 12 -52 -3
-29 -20 30 -28 55 -16 55 5 0 14 -12 19 -26z"/>
<path d="M141 2027 c-30 -15 -38 -35 -18 -43 21 -7 110 33 102 46 -8 14 -55
12 -84 -3z"/>
<path d="M675 1990 c-136 -43 -315 -95 -610 -179 l-60 -17 -3 -57 c-2 -31 -1
-57 2 -57 2 0 60 25 128 56 166 75 388 164 532 214 148 51 230 91 184 90 -7
-1 -85 -23 -173 -50z"/>
<path d="M3690 2023 c0 -10 110 -66 117 -59 6 6 -65 52 -94 61 -13 3 -23 2
-23 -2z"/>
<path d="M2795 2000 c3 -5 8 -10 11 -10 2 0 4 5 4 10 0 6 -5 10 -11 10 -5 0
-7 -4 -4 -10z"/>
<path d="M4419 1995 c18 -9 36 -14 39 -11 9 10 -2 15 -39 21 l-34 5 34 -15z"/>
<path d="M2027 1923 c-54 -36 -101 -62 -105 -59 -4 4 15 27 41 51 51 48 63 74
25 54 -68 -36 -178 -136 -178 -162 0 -9 6 -8 50 5 8 3 12 3 8 1 -12 -7 -9 -31
3 -35 6 -2 -7 -16 -30 -31 -22 -15 -41 -32 -41 -37 0 -20 22 -9 63 33 23 24
78 70 122 104 187 141 215 192 42 76z"/>
<path d="M2273 1910 c-79 -67 -89 -83 -66 -102 13 -11 21 -6 56 32 47 53 92
119 85 125 -2 3 -36 -22 -75 -55z"/>
<path d="M3291 1905 c37 -36 75 -65 84 -65 15 0 16 2 4 17 -25 29 -130 113
-142 113 -7 0 18 -30 54 -65z"/>
<path d="M906 1940 c-50 -25 -66 -39 -66 -57 0 -12 7 -14 32 -9 42 8 99 52 92
71 -8 19 -10 18 -58 -5z"/>
<path d="M2355 1901 c-55 -65 -63 -81 -43 -81 18 0 100 107 96 125 -2 9 -22
-8 -53 -44z"/>
<path d="M760 1935 c-7 -9 -10 -19 -6 -22 8 -9 38 9 44 25 5 17 -23 15 -38 -3z"/>
<path d="M2677 1903 c6 -49 10 -60 17 -52 8 7 -6 99 -15 99 -5 0 -6 -21 -2
-47z"/>
<path d="M2860 1943 c0 -4 7 -17 15 -27 17 -23 34 -13 19 11 -12 19 -34 29
-34 16z"/>
<path d="M2920 1942 c0 -12 62 -84 68 -78 6 7 -48 86 -59 86 -5 0 -9 -3 -9 -8z"/>
<path d="M3096 1931 c-3 -5 12 -31 34 -57 40 -48 46 -68 13 -43 -10 7 -2 -5
18 -26 20 -22 53 -61 74 -87 27 -35 44 -48 64 -48 20 0 48 -23 121 -97 52 -54
150 -147 218 -206 98 -87 126 -106 137 -97 11 9 11 18 4 38 -11 28 -93 140
-163 222 -52 60 -269 284 -286 295 -22 14 -5 -19 41 -80 23 -31 39 -58 36 -62
-10 -10 -50 21 -181 142 -69 63 -127 111 -130 106z"/>
<path d="M3950 1926 c0 -9 5 -16 10 -16 6 0 10 4 10 9 0 6 -4 13 -10 16 -5 3
-10 -1 -10 -9z"/>
<path d="M2640 1918 c0 -7 5 -20 10 -28 8 -12 10 -9 10 13 0 15 -4 27 -10 27
-5 0 -10 -6 -10 -12z"/>
<path d="M4270 1912 c0 -11 24 -22 48 -22 21 0 5 15 -25 25 -13 3 -23 2 -23
-3z"/>
<path d="M985 1900 c-3 -5 1 -10 9 -10 9 0 16 5 16 10 0 6 -4 10 -9 10 -6 0
-13 -4 -16 -10z"/>
<path d="M2069 1884 c-13 -14 -56 -50 -96 -81 -75 -57 -92 -81 -71 -95 25 -15
46 -8 111 42 75 57 78 60 93 118 13 50 1 56 -37 16z"/>
<path d="M645 1890 c-3 -5 -1 -10 4 -10 6 0 11 5 11 10 0 6 -2 10 -4 10 -3 0
-8 -4 -11 -10z"/>
<path d="M3050 1888 c0 -4 21 -37 46 -73 52 -75 55 -99 4 -30 -54 72 -50 54 5
-28 7 -10 11 -27 8 -38 -3 -11 8 -39 27 -69 18 -28 30 -57 26 -66 -9 -23 -23
-9 -80 80 -57 88 -86 119 -86 94 0 -42 199 -416 208 -390 2 6 -13 42 -33 81
-19 39 -34 71 -32 71 9 0 75 -110 110 -182 29 -59 105 -172 154 -227 2 -3 10
2 18 10 13 13 10 22 -23 75 -20 33 -52 80 -71 105 -59 75 -57 76 13 9 68 -65
69 -65 46 -24 -12 23 -21 47 -18 54 2 6 25 -29 51 -79 27 -50 53 -91 58 -91
19 0 8 38 -27 96 -20 32 -46 75 -58 95 -12 20 -25 37 -29 37 -14 2 -119 147
-177 247 l-23 40 29 -28 c16 -15 52 -58 79 -95 49 -65 77 -84 97 -64 9 9 -21
48 -164 221 -66 79 -157 177 -158 169z"/>
<path d="M3090 1886 c0 -2 8 -10 18 -17 15 -13 16 -12 3 4 -13 16 -21 21 -21
13z"/>
<path d="M2330 1793 c-77 -109 -98 -149 -83 -164 8 -8 17 -4 33 13 23 25 125
227 117 234 -2 2 -32 -35 -67 -83z"/>
<path d="M499 1851 c-13 -11 -21 -22 -18 -25 11 -11 59 13 59 29 0 20 -13 19
-41 -4z"/>
<path d="M628 1832 c-35 -23 -49 -42 -30 -42 12 0 78 57 72 63 -3 2 -22 -7
-42 -21z"/>
<path d="M970 1833 c-41 -37 -64 -100 -46 -128 29 -45 116 -19 156 47 51 82
-37 146 -110 81z"/>
<path d="M2910 1855 c0 -3 7 -22 15 -42 11 -26 19 -33 26 -26 8 8 6 20 -5 42
-14 27 -36 42 -36 26z"/>
<path d="M4096 1841 c25 -15 31 -24 27 -44 -4 -21 3 -29 54 -60 91 -56 226
-118 248 -115 11 2 21 12 23 23 3 25 -30 47 -217 142 -135 69 -205 96 -135 54z"/>
<path d="M2616 1807 c-5 -26 -6 -51 -2 -54 12 -13 17 6 14 53 l-3 49 -9 -48z"/>
<path d="M4580 1840 c0 -13 56 -41 170 -83 101 -37 210 -57 210 -39 0 16 -19
24 -182 81 -144 50 -198 61 -198 41z"/>
<path d="M4460 1826 c0 -13 29 -26 58 -26 21 0 4 17 -28 28 -24 9 -30 8 -30
-2z"/>
<path d="M1203 1810 c-46 -28 -41 -35 7 -10 38 19 49 30 33 30 -5 0 -23 -9
-40 -20z"/>
<path d="M730 1805 c-16 -9 -19 -14 -9 -15 8 0 24 7 35 15 24 18 7 19 -26 0z"/>
<path d="M2496 1756 c-32 -67 -40 -131 -16 -131 18 0 52 115 47 160 -3 28 -5
27 -31 -29z"/>
<path d="M315 1772 c-69 -28 -90 -53 -51 -60 25 -5 158 58 153 73 -6 18 -30
15 -102 -13z"/>
<path d="M3460 1774 c0 -8 5 -12 10 -9 6 4 8 11 5 16 -9 14 -15 11 -15 -7z"/>
<path d="M4360 1766 c0 -18 17 -29 30 -21 8 5 7 11 -1 21 -15 18 -29 18 -29 0z"/>
<path d="M820 1738 c-20 -12 -30 -23 -23 -25 12 -4 83 33 83 43 0 10 -28 2
-60 -18z"/>
<path d="M2207 1731 c-19 -32 -21 -41 -9 -41 5 0 16 16 25 35 20 42 8 47 -16
6z"/>
<path d="M2975 1713 c18 -42 25 -52 25 -34 0 14 -28 71 -35 71 -3 0 2 -17 10
-37z"/>
<path d="M1698 1676 c-78 -73 -178 -193 -178 -212 0 -8 10 -14 21 -14 19 0 70
38 185 135 25 22 31 49 14 60 -7 4 -1 23 15 51 14 24 22 44 18 44 -4 -1 -38
-29 -75 -64z"/>
<path d="M2035 1730 c-3 -6 1 -7 9 -4 18 7 21 14 7 14 -6 0 -13 -4 -16 -10z"/>
<path d="M2056 1685 c-59 -62 -83 -95 -69 -95 17 0 135 128 131 141 -4 9 -25
-7 -62 -46z"/>
<path d="M3472 1729 c2 -6 8 -10 13 -10 5 0 11 4 13 10 2 6 -4 11 -13 11 -9 0
-15 -5 -13 -11z"/>
<path d="M613 1657 c-27 -29 -55 -63 -62 -76 -12 -21 -11 -22 11 -16 12 4 51
20 85 35 47 22 64 35 69 54 18 74 -35 75 -103 3z"/>
<path d="M3532 1701 c2 -7 7 -12 11 -12 12 1 9 15 -3 20 -7 2 -11 -2 -8 -8z"/>
<path d="M4770 1700 c0 -5 7 -10 16 -10 8 0 12 5 9 10 -3 6 -10 10 -16 10 -5
0 -9 -4 -9 -10z"/>
<path d="M839 1681 c-13 -11 -21 -22 -18 -25 3 -4 17 2 30 13 13 11 21 22 18
25 -3 4 -17 -2 -30 -13z"/>
<path d="M5025 1685 c-17 -14 -18 -17 -4 -30 12 -12 26 -14 57 -9 50 8 53 18
12 39 -35 18 -40 18 -65 0z"/>
<path d="M3635 1670 c3 -5 8 -10 11 -10 2 0 4 5 4 10 0 6 -5 10 -11 10 -5 0
-7 -4 -4 -10z"/>
<path d="M1619 1651 c-31 -25 -21 -35 11 -11 14 10 22 21 19 25 -3 3 -17 -3
-30 -14z"/>
<path d="M1928 1648 c-8 -7 -37 -40 -62 -73 -54 -68 -302 -336 -328 -353 -22
-15 -48 -5 -48 18 0 11 9 35 21 55 22 36 20 65 -4 65 -21 0 -79 -79 -88 -119
-5 -20 -11 -47 -14 -61 -5 -18 0 -33 12 -49 19 -23 21 -23 73 -11 35 8 66 25
93 49 44 40 234 274 250 309 6 12 18 22 26 22 17 0 131 131 131 150 0 14 -43
12 -62 -2z"/>
<path d="M3580 1640 c0 -13 48 -70 134 -158 172 -177 396 -432 396 -451 0 -9
-18 2 -45 29 -56 55 -59 42 -5 -21 22 -26 40 -57 40 -68 0 -36 132 -181 165
-181 15 0 47 -33 108 -108 113 -141 146 -171 205 -191 45 -16 62 -32 177 -167
69 -82 158 -188 197 -236 l72 -88 48 0 48 0 0 188 0 188 -202 201 c-152 150
-213 204 -241 213 -63 20 -85 -3 -51 -55 23 -34 4 -31 -31 5 -16 17 -34 30
-40 30 -6 0 -22 11 -35 25 -13 14 -18 25 -12 25 29 0 3 36 -113 157 -121 127
-188 175 -217 157 -5 -4 -54 36 -107 89 -53 52 -111 103 -130 112 -19 9 -93
76 -165 149 -73 72 -146 142 -164 154 l-32 23 0 -21z m874 -890 c55 -68 70
-90 62 -90 -7 0 -160 179 -165 193 -6 20 47 -34 103 -103z"/>
<path d="M1830 1625 c0 -9 5 -15 11 -13 6 2 11 8 11 13 0 5 -5 11 -11 13 -6 2
-11 -4 -11 -13z"/>
<path d="M365 1573 c-49 -26 -151 -72 -225 -104 l-135 -57 -3 -51 c-2 -28 0
-51 4 -51 14 0 121 70 144 95 32 34 142 109 243 164 71 39 89 52 70 50 -5 0
-48 -21 -98 -46z"/>
<path d="M1770 1605 c-7 -8 -9 -22 -6 -31 6 -15 8 -15 26 1 10 9 16 23 13 31
-7 18 -17 18 -33 -1z"/>
<path d="M4685 1610 c-3 -5 -3 -15 1 -21 10 -16 93 -51 104 -44 22 13 8 37
-32 55 -49 22 -64 24 -73 10z"/>
<path d="M2077 1603 c-4 -3 -7 -11 -7 -17 0 -6 5 -5 12 2 6 6 9 14 7 17 -3 3
-9 2 -12 -2z"/>
<path d="M3348 1594 c-4 -3 61 -139 144 -302 135 -267 190 -386 305 -660 19
-46 32 -86 30 -89 -6 -5 -112 212 -141 287 -25 65 -68 124 -94 128 -51 8 -34
-63 34 -138 34 -37 189 -370 339 -727 l39 -93 233 0 c231 0 234 0 223 20 -18
33 -199 331 -323 532 -64 103 -126 206 -138 230 -12 24 -42 63 -68 88 -55 52
-106 125 -97 138 5 8 -14 22 -29 22 -2 0 7 -24 21 -54 14 -30 31 -83 38 -118
13 -57 136 -309 263 -535 l35 -64 -38 7 c-22 4 -41 12 -43 18 -2 6 -62 125
-133 265 -115 227 -128 257 -117 277 14 28 -4 62 -194 359 -257 401 -274 425
-289 409z"/>
<path d="M4600 1582 c0 -10 21 -32 32 -32 16 0 8 19 -12 30 -11 6 -20 7 -20 2z"/>
<path d="M2414 1543 c-10 -16 -28 -55 -40 -88 -35 -95 -101 -226 -139 -273
-61 -76 -86 -211 -45 -252 43 -43 98 -9 143 89 24 54 31 86 38 176 4 61 17
146 28 189 12 44 21 95 21 113 0 19 5 43 10 54 16 28 5 23 -16 -8z m-59 -258
c-14 -50 -36 -77 -51 -63 -3 3 10 36 28 73 36 77 47 72 23 -10z"/>
<path d="M2458 1564 c-5 -4 -8 -16 -8 -28 0 -14 3 -17 11 -9 6 6 9 19 7 28 -1
9 -6 13 -10 9z"/>
<path d="M4445 1554 c32 -24 75 -45 75 -36 0 9 -72 52 -86 52 -5 0 0 -8 11
-16z"/>
<path d="M4953 1563 c-20 -8 -15 -50 10 -77 21 -25 133 -96 149 -96 4 0 8 27
8 60 l0 61 -62 29 c-62 29 -80 33 -105 23z"/>
<path d="M1974 1519 c-22 -24 -24 -29 -8 -21 24 13 49 40 42 47 -2 3 -18 -9
-34 -26z"/>
<path d="M1946 1432 c-89 -109 -99 -118 -126 -114 -25 4 -41 -7 -109 -68 -64
-58 -78 -76 -71 -90 7 -13 -21 -46 -140 -165 -82 -82 -152 -146 -156 -142 -4
3 34 47 85 96 50 49 91 94 91 100 0 16 -35 22 -64 11 -15 -5 -37 -10 -48 -10
-19 0 -20 5 -16 45 3 25 3 45 0 45 -3 0 -41 -36 -85 -81 -43 -44 -81 -78 -84
-76 -3 3 22 41 55 84 68 88 77 109 63 147 -7 17 -7 26 -1 26 6 0 10 5 10 10 0
13 -51 13 -87 -1 -15 -6 -53 -32 -83 -58 -30 -26 -76 -59 -101 -73 -46 -27
-79 -58 -62 -58 5 0 19 7 31 16 46 32 32 5 -22 -42 -30 -27 -56 -53 -58 -59
-1 -5 -30 -39 -63 -73 -68 -72 -93 -108 -82 -119 4 -4 15 1 24 10 15 15 17 13
32 -16 19 -37 62 -53 117 -42 28 5 56 24 106 72 37 37 68 62 68 56 0 -5 -38
-58 -85 -117 -47 -59 -83 -112 -79 -117 3 -5 -7 -24 -21 -41 -52 -61 -55 -111
-9 -129 54 -20 126 33 236 171 67 85 204 229 195 206 -3 -8 -31 -56 -61 -107
-31 -51 -54 -94 -51 -97 6 -7 -3 -20 104 148 51 80 110 161 131 180 20 19 55
62 78 95 49 75 69 92 84 77 12 -12 -25 -63 -110 -152 -37 -38 -42 -48 -32 -63
7 -11 8 -36 4 -63 -5 -36 -3 -44 10 -44 12 0 9 -9 -13 -42 -15 -24 -60 -99
-98 -168 -39 -69 -130 -229 -202 -356 -72 -128 -131 -235 -131 -238 0 -4 16
-6 36 -4 l36 3 199 390 c109 215 198 397 196 405 -1 8 32 64 75 125 107 152
172 270 164 298 -4 16 4 31 28 57 30 31 180 225 200 258 4 6 3 12 -2 12 -5 0
-53 -53 -106 -118z"/>
<path d="M2110 1535 c0 -8 7 -15 15 -15 8 0 15 7 15 15 0 8 -7 15 -15 15 -8 0
-15 -7 -15 -15z"/>
<path d="M520 1526 c0 -9 7 -16 16 -16 17 0 14 22 -4 28 -7 2 -12 -3 -12 -12z"/>
<path d="M1381 1412 c-79 -69 -138 -128 -131 -130 11 -4 134 75 184 117 17 14
81 97 100 129 18 30 -19 2 -153 -116z"/>
<path d="M2260 1530 c0 -5 5 -10 10 -10 6 0 10 5 10 10 0 6 -4 10 -10 10 -5 0
-10 -4 -10 -10z"/>
<path d="M2145 1486 c-22 -18 -29 -32 -30 -60 -1 -20 2 -36 6 -36 15 0 89 84
89 101 0 26 -29 24 -65 -5z"/>
<path d="M2315 1487 c-28 -43 -39 -88 -24 -98 20 -12 47 17 59 63 16 58 -6 79
-35 35z"/>
<path d="M2465 1486 c-18 -27 -40 -105 -49 -176 l-7 -45 21 38 c23 41 65 195
57 204 -3 2 -13 -7 -22 -21z"/>
<path d="M365 1471 c-89 -52 -218 -145 -236 -171 -30 -42 -33 -76 -10 -99 25
-25 70 -27 114 -5 53 27 225 152 242 176 21 31 19 84 -5 108 -27 27 -46 25
-105 -9z"/>
<path d="M1879 1460 c-24 -21 -29 -30 -17 -30 24 0 74 45 60 54 -6 3 -25 -7
-43 -24z"/>
<path d="M926 1465 c-22 -17 -17 -29 8 -19 9 3 16 12 16 20 0 17 0 17 -24 -1z"/>
<path d="M657 1436 c-32 -18 -64 -39 -70 -47 -7 -7 0 -5 15 4 35 22 44 22 27
0 -15 -19 24 7 76 51 42 35 21 32 -48 -8z"/>
<path d="M4580 1462 c0 -13 96 -83 323 -236 l217 -147 0 80 0 81 -50 25 c-58
29 -78 31 -95 8 -12 -16 -18 -14 -71 21 -47 32 -311 176 -321 176 -2 0 -3 -3
-3 -8z"/>
<path d="M3350 1441 c0 -5 5 -13 10 -16 6 -3 10 -2 10 4 0 5 -4 13 -10 16 -5
3 -10 2 -10 -4z"/>
<path d="M4969 1344 c79 -47 145 -83 148 -80 15 14 -16 37 -134 99 -72 37
-137 67 -144 67 -8 0 51 -39 130 -86z"/>
<path d="M4080 1402 c0 -21 18 -42 37 -42 20 0 15 38 -6 50 -27 14 -31 13 -31
-8z"/>
<path d="M1000 1394 c0 -8 5 -12 10 -9 6 3 10 10 10 16 0 5 -4 9 -10 9 -5 0
-10 -7 -10 -16z"/>
<path d="M1453 1364 c-24 -14 -43 -29 -43 -35 0 -12 72 24 89 45 19 23 2 19
-46 -10z"/>
<path d="M3570 1371 c0 -6 5 -13 10 -16 6 -3 10 1 10 9 0 9 -4 16 -10 16 -5 0
-10 -4 -10 -9z"/>
<path d="M2130 1331 c-17 -43 -7 -63 13 -24 19 36 21 53 8 53 -5 0 -14 -13
-21 -29z"/>
<path d="M2534 1333 c0 -16 -3 -44 -7 -63 l-7 -35 15 30 c16 33 20 95 6 95 -4
0 -8 -12 -7 -27z"/>
<path d="M1952 1330 c-24 -22 -27 -35 -12 -45 11 -7 43 40 38 55 -2 6 -13 2
-26 -10z"/>
<path d="M820 1324 c0 -17 22 -14 28 4 2 7 -3 12 -12 12 -9 0 -16 -7 -16 -16z"/>
<path d="M2628 1296 c-12 -74 -10 -152 2 -140 7 7 10 47 8 100 -3 82 -4 85
-10 40z"/>
<path d="M1033 1231 c-246 -192 -492 -403 -805 -694 l-228 -210 0 -164 0 -163
24 0 c16 0 37 15 63 43 35 40 131 145 527 576 83 90 172 191 198 225 25 34 53
68 62 75 18 15 21 38 6 43 -20 6 48 92 169 216 67 67 121 127 121 132 0 22
-30 4 -137 -79z m-340 -382 c-30 -31 -51 -14 -22 17 16 17 26 21 33 14 7 -7 4
-17 -11 -31z"/>
<path d="M3220 1284 c0 -8 5 -12 10 -9 6 3 10 10 10 16 0 5 -4 9 -10 9 -5 0
-10 -7 -10 -16z"/>
<path d="M3800 1287 c0 -26 61 -107 81 -107 27 0 24 20 -12 63 -36 44 -69 65
-69 44z"/>
<path d="M4210 1290 c0 -18 65 -83 97 -97 18 -7 33 -18 33 -23 0 -15 48 -43
60 -35 7 4 -6 20 -32 40 -24 19 -60 54 -81 79 -34 42 -77 61 -77 36z"/>
<path d="M4515 1290 c3 -5 8 -10 11 -10 2 0 4 5 4 10 0 6 -5 10 -11 10 -5 0
-7 -4 -4 -10z"/>
<path d="M3670 1266 c0 -8 41 -65 91 -128 51 -62 96 -119 102 -126 7 -9 5 -11
-9 -6 -15 5 -13 1 8 -21 27 -28 58 -29 58 -2 0 18 -113 176 -175 245 -46 51
-75 66 -75 38z"/>
<path d="M725 1250 c-10 -11 -16 -22 -14 -25 7 -6 49 24 49 36 0 15 -16 10
-35 -11z"/>
<path d="M2185 1257 c-4 -10 -5 -21 -1 -24 10 -10 18 4 13 24 -4 17 -4 17 -12
0z"/>
<path d="M2080 1239 c0 -5 5 -7 10 -4 6 3 10 8 10 11 0 2 -4 4 -10 4 -5 0 -10
-5 -10 -11z"/>
<path d="M2046 1122 c-44 -70 -193 -314 -331 -543 -139 -229 -272 -447 -297
-485 -24 -38 -47 -75 -52 -82 -5 -9 16 -12 98 -12 l105 0 53 102 c47 90 57
103 85 110 43 11 54 30 107 183 24 72 72 202 106 290 79 204 84 219 63 211
-18 -7 -25 -24 72 183 42 90 75 165 73 166 -2 2 -39 -54 -82 -123z"/>
<path d="M3196 1225 c-9 -24 103 -343 252 -715 25 -63 76 -203 113 -310 l67
-195 81 -3 c44 -2 81 -1 81 2 0 6 -162 460 -234 656 -56 151 -143 359 -162
384 -17 24 -44 14 -44 -17 0 -14 9 -36 20 -50 18 -23 80 -176 80 -198 0 -21
-19 3 -31 39 -16 50 -116 258 -147 304 -13 21 -22 44 -18 53 9 24 -11 65 -33
65 -10 0 -21 -7 -25 -15z"/>
<path d="M615 1219 c-10 -15 3 -25 16 -12 7 7 7 13 1 17 -6 3 -14 1 -17 -5z"/>
<path d="M510 1185 c-68 -46 -482 -368 -499 -389 -7 -8 -11 -19 -9 -24 1 -5
58 34 124 87 67 53 192 151 278 219 142 113 176 142 163 142 -3 0 -28 -16 -57
-35z"/>
<path d="M1103 1205 c-3 -9 -3 -18 0 -21 9 -9 27 6 27 22 0 19 -19 18 -27 -1z"/>
<path d="M3655 1200 c3 -5 8 -10 11 -10 2 0 4 5 4 10 0 6 -5 10 -11 10 -5 0
-7 -4 -4 -10z"/>
<path d="M3920 1180 c0 -5 7 -10 15 -10 8 0 15 5 15 10 0 6 -7 10 -15 10 -8 0
-15 -4 -15 -10z"/>
<path d="M1967 1163 c-4 -3 -7 -15 -7 -26 0 -16 3 -17 15 -7 8 7 15 19 15 26
0 15 -12 19 -23 7z"/>
<path d="M4925 1140 c3 -5 10 -10 16 -10 5 0 9 5 9 10 0 6 -7 10 -16 10 -8 0
-12 -4 -9 -10z"/>
<path d="M595 1119 c-4 -6 -5 -13 -2 -16 7 -7 27 6 27 18 0 12 -17 12 -25 -2z"/>
<path d="M2807 1117 c-7 -18 3 -66 15 -73 21 -13 30 14 18 50 -12 37 -24 46
-33 23z"/>
<path d="M3480 1109 c0 -49 61 -109 80 -78 15 24 -8 62 -52 85 -26 14 -28 13
-28 -7z"/>
<path d="M3730 1115 c0 -9 5 -15 11 -13 6 2 11 8 11 13 0 5 -5 11 -11 13 -6 2
-11 -4 -11 -13z"/>
<path d="M2531 1055 c-6 -35 -23 -103 -36 -151 -14 -47 -41 -168 -61 -267 -36
-185 -120 -588 -130 -619 -5 -16 4 -18 85 -18 52 0 91 4 91 10 0 10 55 472 65
547 5 31 14 48 33 62 l27 19 -1 -107 c-1 -103 -1 -104 6 -31 11 107 12 530 1
530 -5 0 -12 -41 -16 -91 -4 -51 -11 -101 -15 -113 l-9 -21 -7 22 c-3 12 -15
25 -25 28 -16 5 -19 13 -14 38 17 94 31 227 24 227 -4 0 -12 -29 -18 -65z"/>
<path d="M178 1099 c-19 -11 -25 -49 -8 -49 19 0 60 32 60 46 0 16 -27 18 -52
3z"/>
<path d="M3385 1080 c3 -5 8 -10 11 -10 2 0 4 5 4 10 0 6 -5 10 -11 10 -5 0
-7 -4 -4 -10z"/>
<path d="M1835 1070 c-3 -5 -1 -10 4 -10 6 0 11 5 11 10 0 6 -2 10 -4 10 -3 0
-8 -4 -11 -10z"/>
<path d="M1917 1073 c-4 -3 -7 -11 -7 -17 0 -6 5 -5 12 2 6 6 9 14 7 17 -3 3
-9 2 -12 -2z"/>
<path d="M3945 1070 c-7 -12 2 -30 16 -30 5 0 9 9 9 20 0 21 -15 27 -25 10z"/>
<path d="M4459 1054 c40 -51 211 -224 221 -224 26 0 1 32 -107 136 -114 109
-157 142 -114 88z"/>
<path d="M459 1051 c-19 -16 -22 -22 -11 -32 10 -11 16 -9 34 9 31 31 11 51
-23 23z"/>
<path d="M2043 912 c-114 -236 -168 -368 -153 -377 17 -11 50 50 106 193 31
81 72 187 92 235 19 48 32 90 30 92 -3 3 -36 -61 -75 -143z"/>
<path d="M2402 831 c-58 -257 -90 -437 -78 -448 14 -14 23 18 50 180 15 89 36
198 46 242 22 95 44 244 38 250 -3 3 -28 -98 -56 -224z"/>
<path d="M2786 1004 c-10 -27 -7 -44 9 -44 9 0 15 9 15 24 0 30 -15 42 -24 20z"/>
<path d="M4575 1010 c-3 -5 1 -10 9 -10 9 0 16 5 16 10 0 6 -4 10 -9 10 -6 0
-13 -4 -16 -10z"/>
<path d="M3052 970 c0 -14 2 -19 5 -12 2 6 2 18 0 25 -3 6 -5 1 -5 -13z"/>
<path d="M1770 888 c-23 -46 -64 -119 -90 -163 -27 -44 -51 -91 -55 -105 -6
-24 -5 -24 19 5 32 37 183 332 174 340 -3 3 -25 -32 -48 -77z"/>
<path d="M3505 960 c-3 -5 -1 -10 4 -10 6 0 11 5 11 10 0 6 -2 10 -4 10 -3 0
-8 -4 -11 -10z"/>
<path d="M2106 923 c-9 -9 -7 -33 3 -33 12 0 22 28 12 34 -5 3 -11 3 -15 -1z"/>
<path d="M3934 916 c-6 -17 2 -36 17 -36 12 0 12 37 -1 45 -6 3 -13 -1 -16 -9z"/>
<path d="M257 872 c-45 -45 -61 -82 -36 -82 18 0 111 98 107 111 -8 25 -24 18
-71 -29z"/>
<path d="M2672 908 c-17 -17 -15 -58 3 -58 10 0 15 11 15 35 0 39 -1 40 -18
23z"/>
<path d="M2147 890 c-9 -14 -17 -28 -17 -32 0 -9 -134 -294 -272 -578 -86
-177 -128 -267 -128 -276 0 -2 29 -4 65 -4 36 0 65 1 65 3 0 11 263 776 285
826 28 68 29 100 2 61z"/>
<path d="M2831 868 c1 -7 5 -24 9 -38 8 -24 8 -24 9 7 1 17 -3 35 -9 38 -5 3
-10 0 -9 -7z"/>
<path d="M3077 873 c-9 -8 -7 -68 2 -108 l7 -30 24 47 c20 40 22 51 12 73 -11
24 -31 32 -45 18z"/>
<path d="M2264 813 c-39 -88 -106 -305 -160 -518 -12 -46 16 15 56 123 53 144
144 452 134 452 -2 0 -16 -26 -30 -57z"/>
<path d="M1637 842 c-21 -23 -22 -52 -2 -52 16 0 35 30 35 54 0 21 -13 20 -33
-2z"/>
<path d="M2184 836 c-8 -22 3 -33 18 -18 9 9 9 15 0 24 -9 9 -13 7 -18 -6z"/>
<path d="M4013 837 c4 -9 25 -45 48 -79 39 -57 43 -60 55 -43 14 18 14 18 14
-1 0 -25 23 -62 105 -167 36 -48 71 -84 76 -81 11 7 9 12 -109 183 -71 104
-87 121 -97 108 -9 -13 -15 -9 -38 28 -32 49 -65 82 -54 52z"/>
<path d="M2733 642 c-3 -190 -18 -508 -29 -594 l-7 -48 42 0 41 0 0 133 c0
224 -21 650 -34 674 -9 17 -11 -18 -13 -165z"/>
<path d="M3154 756 c-3 -8 6 -51 20 -96 14 -44 26 -94 26 -109 0 -41 20 -91
36 -91 21 0 17 27 -16 118 -34 92 -35 103 -17 100 7 -2 13 10 15 29 2 23 -3
35 -20 47 -28 20 -37 20 -44 2z"/>
<path d="M3553 753 c3 -10 34 -94 70 -188 35 -93 95 -259 132 -367 66 -195 68
-198 96 -198 l28 0 -24 64 c-44 116 -263 664 -275 685 -13 25 -34 28 -27 4z"/>
<path d="M2884 633 c4 -107 2 -132 -10 -137 -16 -6 -19 -62 -4 -71 5 -3 7 -12
3 -21 -3 -8 -2 -58 3 -112 l9 -97 6 120 c10 177 10 387 -1 421 -7 20 -9 -10
-6 -103z"/>
<path d="M3116 723 c-9 -18 -12 -33 -7 -33 13 0 33 38 28 53 -2 7 -11 -3 -21
-20z"/>
<path d="M1410 653 c-50 -65 -69 -107 -56 -121 13 -13 42 16 77 79 71 125 59
148 -21 42z"/>
<path d="M1585 657 c-4 -10 -5 -21 -1 -24 10 -10 18 4 13 24 -4 17 -4 17 -12
0z"/>
<path d="M3680 645 c0 -14 21 -45 31 -45 18 0 5 45 -13 48 -10 2 -18 1 -18 -3z"/>
<path d="M4294 627 c-7 -20 3 -37 22 -37 18 0 18 24 -1 40 -12 10 -16 9 -21
-3z"/>
<path d="M3250 610 c0 -19 11 -26 23 -14 8 8 -3 34 -14 34 -5 0 -9 -9 -9 -20z"/>
<path d="M4994 606 c-8 -22 3 -33 18 -18 9 9 9 15 0 24 -9 9 -13 7 -18 -6z"/>
<path d="M2260 596 c0 -7 -47 -143 -105 -301 -58 -159 -103 -291 -100 -293 7
-7 28 47 122 312 84 238 101 296 89 296 -3 0 -6 -6 -6 -14z"/>
<path d="M140 585 c-7 -9 -10 -18 -7 -22 8 -7 37 15 37 28 0 14 -16 11 -30 -6z"/>
<path d="M1580 565 c0 -8 5 -15 10 -15 6 0 10 7 10 15 0 8 -4 15 -10 15 -5 0
-10 -7 -10 -15z"/>
<path d="M1164 535 c-4 -14 -3 -29 0 -32 10 -10 49 34 42 46 -13 20 -35 12
-42 -14z"/>
<path d="M3277 544 c-4 -4 -7 -14 -7 -23 0 -11 3 -12 11 -4 6 6 10 16 7 23 -2
6 -7 8 -11 4z"/>
<path d="M5030 525 c-7 -8 -10 -19 -6 -22 9 -9 38 8 38 22 -1 16 -18 16 -32 0z"/>
<path d="M905 487 c-4 -10 -5 -21 -1 -24 10 -10 18 4 13 24 -4 17 -4 17 -12 0z"/>
<path d="M4350 489 c0 -27 204 -338 223 -339 16 0 4 31 -42 108 -52 87 -141
212 -166 232 -12 10 -15 10 -15 -1z"/>
<path d="M707 443 c-11 -10 -8 -41 4 -49 16 -9 43 21 36 40 -7 16 -28 21 -40
9z"/>
<path d="M819 373 c-109 -132 -289 -361 -289 -367 0 -3 15 -6 33 -6 35 0 21
-16 249 299 70 96 92 141 70 141 -4 0 -33 -30 -63 -67z"/>
<path d="M1846 398 c-19 -26 -21 -48 -5 -48 16 0 38 31 39 53 0 24 -16 21 -34
-5z"/>
<path d="M1074 378 c-34 -42 -63 -105 -64 -140 0 -54 40 -46 72 16 21 40 41
156 27 156 -4 0 -20 -15 -35 -32z"/>
<path d="M2582 360 c0 -14 2 -19 5 -12 2 6 2 18 0 25 -3 6 -5 1 -5 -13z"/>
<path d="M2610 336 c-15 -40 -13 -58 8 -54 20 4 29 55 13 71 -7 7 -13 2 -21
-17z"/>
<path d="M556 318 c-33 -46 -10 -73 29 -34 14 14 25 32 25 41 0 23 -37 18 -54
-7z"/>
<path d="M1141 319 c-28 -30 -81 -136 -81 -161 0 -44 36 -10 80 74 34 65 42
90 34 98 -9 9 -17 6 -33 -11z"/>
<path d="M1827 303 c-28 -52 -38 -83 -27 -83 14 0 52 78 48 98 -3 13 -9 8 -21
-15z"/>
<path d="M3310 291 c0 -12 5 -21 10 -21 6 0 10 6 10 14 0 8 -4 18 -10 21 -5 3
-10 -3 -10 -14z"/>
<path d="M516 211 c-4 -7 -5 -15 -2 -18 9 -9 19 4 14 18 -4 11 -6 11 -12 0z"/>
<path d="M3310 163 c0 -13 5 -23 10 -23 13 0 13 11 0 30 -8 12 -10 11 -10 -7z"/>
<path d="M4510 111 c0 -24 18 -37 31 -24 13 13 1 43 -17 43 -8 0 -14 -9 -14
-19z"/>
<path d="M2890 85 c-7 -9 -10 -18 -7 -22 8 -7 37 15 37 28 0 14 -16 11 -30 -6z"/>
<path d="M3320 91 c0 -6 5 -13 10 -16 6 -3 10 1 10 9 0 9 -4 16 -10 16 -5 0
-10 -4 -10 -9z"/>
<path d="M2950 35 c-14 -16 -5 -35 16 -35 15 0 20 35 5 44 -5 3 -14 -1 -21 -9z"/>
</g>
</svg>