<?xml version="1.0" standalone="no"?>
<!DOCTYPE svg PUBLIC "-//W3C//DTD SVG 20010904//EN"
 "http://www.w3.org/TR/2001/REC-SVG-20010904/DTD/svg10.dtd">
<svg version="1.0" xmlns="http://www.w3.org/2000/svg"
 width="512.000000pt" height="512.000000pt" viewBox="0 0 512.000000 512.000000"
 preserveAspectRatio="xMidYMid meet">
<metadata>
Created by potrace 1.16, written by Peter Selinger 2001-2019
</metadata>
<g transform="translate(0.000000,512.000000) scale(0.100000,-0.100000)"
fill="#000000" stroke="none">
<path d="M130 5116 c0 -2 8 -10 18 -17 15 -13 16 -12 3 4 -13 16 -21 21 -21
13z"/>
<path d="M293 5098 c56 -241 76 -397 73 -573 -2 -77 -1 -113 1 -80 2 33 9 65
15 70 11 11 4 -158 -9 -205 -7 -24 -8 -23 -14 10 -6 29 -7 26 -6 -20 1 -131
-75 -296 -209 -455 -32 -38 -51 -64 -41 -56 34 27 136 161 173 228 21 37 53
110 72 163 32 92 33 93 27 40 -9 -81 -39 -158 -101 -267 -77 -134 -144 -231
-215 -313 l-59 -69 0 -68 1 -68 43 48 c83 92 259 417 317 582 45 132 53 218
41 456 -9 155 -20 250 -47 397 -19 106 -35 195 -35 197 0 3 -7 5 -16 5 -12 0
-15 -6 -11 -22z"/>
<path d="M355 5073 c4 -26 24 -116 46 -200 21 -85 39 -165 39 -178 0 -14 3
-25 8 -25 8 0 8 -106 -1 -235 -3 -54 -3 -76 2 -55 7 30 9 26 10 -33 0 -38 -4
-89 -11 -115 -12 -47 -12 -47 -20 -17 -6 25 -7 24 -3 -9 6 -56 -38 -231 -92
-366 -46 -116 -101 -220 -116 -220 -4 0 -5 -4 -2 -10 3 -5 1 -10 -5 -10 -6 0
-8 -4 -5 -10 3 -5 1 -10 -4 -10 -6 0 -11 -20 -11 -44 0 -43 -3 -47 -65 -100
-35 -30 -78 -63 -95 -72 -26 -16 -40 -34 -26 -34 12 0 213 113 232 131 12 11
34 43 49 72 16 29 47 73 70 99 49 55 74 124 107 303 21 108 23 148 22 405 -1
300 -2 307 -60 580 -43 202 -42 200 -61 200 -13 0 -14 -8 -8 -47z m81 -1078
c-23 -134 -63 -264 -94 -305 -24 -31 -27 -33 -30 -14 -2 11 18 73 43 137 45
115 83 247 86 297 2 25 2 25 6 2 3 -13 -3 -66 -11 -117z"/>
<path d="M552 5079 c13 -23 53 -78 90 -123 172 -206 238 -343 352 -726 88
-293 121 -513 120 -810 0 -220 -1 -230 -42 -448 -33 -182 -47 -234 -72 -280
-17 -32 -24 -48 -16 -37 8 11 22 29 30 40 20 26 -24 -83 -48 -121 -11 -16 -37
-50 -58 -76 -26 -31 -49 -76 -68 -133 -16 -47 -52 -124 -80 -171 -29 -47 -50
-87 -48 -89 2 -2 49 57 103 132 55 75 118 157 140 182 142 164 212 317 296
642 57 221 53 319 -32 773 -21 116 -37 211 -35 213 11 11 83 -232 101 -345 15
-86 15 -86 9 -18 -7 97 -24 164 -99 386 -36 107 -84 258 -106 335 -87 298
-284 704 -347 713 -12 2 -22 1 -22 -2 0 -3 21 -38 47 -78 74 -115 264 -511
251 -523 -2 -3 -21 35 -41 83 -68 158 -160 320 -242 422 l-79 100 -64 0 -63 0
23 -41z m488 -614 c0 -5 -5 -3 -10 5 -5 8 -10 20 -10 25 0 6 5 3 10 -5 5 -8
10 -19 10 -25z m139 -395 c0 -10 -3 -8 -9 5 -12 27 -12 43 0 25 5 -8 9 -22 9
-30z m-35 -62 c8 -29 13 -54 11 -56 -2 -2 -11 20 -19 49 -18 58 -18 59 -12 59
3 0 11 -23 20 -52z m-37 -90 c-3 -8 -6 -5 -6 6 -1 11 2 17 5 13 3 -3 4 -12 1
-19z m10 -50 c-3 -7 -5 -2 -5 12 0 14 2 19 5 13 2 -7 2 -19 0 -25z m10 -40
c-3 -8 -6 -5 -6 6 -1 11 2 17 5 13 3 -3 4 -12 1 -19z m58 -198 c33 -130 47
-269 34 -351 -14 -95 -126 -495 -135 -486 -2 2 0 17 5 33 42 130 102 374 110
443 12 110 -1 243 -39 399 -16 68 -30 129 -29 135 1 17 25 -61 54 -173z m-13
-370 c-5 -47 -20 -112 -31 -146 -12 -33 -30 -98 -40 -145 -11 -46 -20 -75 -20
-64 0 23 16 99 53 239 21 81 26 123 27 240 l2 141 10 -90 c7 -62 7 -116 -1
-175z m-95 -402 c-3 -8 -6 -5 -6 6 -1 11 2 17 5 13 3 -3 4 -12 1 -19z m-10
-40 c-3 -8 -6 -5 -6 6 -1 11 2 17 5 13 3 -3 4 -12 1 -19z"/>
<path d="M832 5098 c83 -129 198 -362 277 -562 48 -120 70 -169 71 -155 0 3
-13 39 -30 79 -16 40 -35 91 -41 114 -17 66 -124 312 -188 431 -45 85 -64 111
-81 113 -22 4 -23 3 -8 -20z"/>
<path d="M1370 5114 c0 -3 17 -36 39 -72 105 -182 130 -243 221 -557 18 -60
56 -159 84 -220 46 -101 51 -117 54 -196 2 -47 -3 -133 -12 -192 -18 -122 -21
-207 -6 -207 35 0 101 234 108 383 9 196 -27 330 -154 576 -41 79 -74 149 -75
155 0 6 -33 83 -73 171 -58 127 -78 161 -95 163 -11 2 -21 1 -21 -3 0 -3 22
-44 50 -90 55 -95 92 -165 86 -165 -2 0 -37 58 -77 130 -67 117 -77 130 -101
130 -16 0 -28 -3 -28 -6z m230 -284 c6 -11 8 -20 6 -20 -3 0 -10 9 -16 20 -6
11 -8 20 -6 20 3 0 10 -9 16 -20z"/>
<path d="M1956 5046 c56 -177 95 -461 96 -691 0 -77 2 -135 4 -130 11 33 34
314 34 422 0 152 -10 221 -52 366 l-31 107 -37 0 -38 0 24 -74z"/>
<path d="M2108 5093 c5 -21 7 -23 10 -9 2 10 0 22 -6 28 -6 6 -7 0 -4 -19z"/>
<path d="M2264 4985 c0 -77 2 -107 3 -67 2 40 2 103 0 140 -2 37 -3 4 -3 -73z"/>
<path d="M2695 5073 c-10 -26 -39 -88 -65 -138 -52 -100 -81 -198 -62 -217 20
-20 39 -1 62 64 13 34 50 125 81 201 l57 137 -28 0 c-23 0 -30 -7 -45 -47z"/>
<path d="M3177 4993 c-32 -155 -54 -230 -57 -193 -1 23 -30 -88 -60 -233 -6
-32 -13 -57 -15 -55 -9 9 36 273 59 346 14 46 26 93 26 105 -1 28 -82 -210
-82 -240 0 -13 -3 -21 -7 -19 -3 2 -7 -13 -7 -33 -2 -51 -120 -458 -146 -501
-11 -19 -53 -76 -94 -126 -41 -50 -74 -94 -74 -98 0 -11 143 109 189 159 48
52 152 260 214 425 19 52 61 151 92 220 73 160 93 209 121 298 l22 72 -77 0
-78 0 -26 -127z"/>
<path d="M3671 5088 c5 -17 13 -35 19 -38 16 -10 -30 -280 -85 -497 -53 -210
-113 -404 -155 -498 -16 -36 -27 -65 -25 -65 13 0 123 228 174 362 60 155 89
250 129 418 23 97 40 145 48 137 21 -21 -210 -743 -304 -952 -94 -209 -251
-520 -320 -635 -38 -63 -145 -230 -237 -370 -216 -328 -365 -564 -449 -715
-80 -141 -147 -247 -153 -241 -8 8 104 244 170 360 36 63 88 145 114 182 65
92 395 596 465 709 68 113 74 123 61 110 -6 -5 -52 -77 -103 -160 -51 -82
-163 -252 -249 -377 -86 -125 -191 -278 -233 -340 -94 -137 -174 -293 -229
-448 -30 -87 -49 -125 -77 -154 -20 -21 -30 -36 -22 -31 8 4 3 -3 -11 -16 -15
-13 -81 -94 -148 -179 -301 -382 -319 -400 -532 -520 -273 -152 -645 -419
-703 -504 -20 -28 -86 -157 -147 -286 -162 -344 -161 -340 -145 -340 7 0 59
89 116 202 57 112 125 237 152 279 94 148 382 397 662 573 49 31 94 56 99 56
6 0 -5 -17 -24 -38 l-34 -37 37 34 c21 19 36 37 33 39 -2 3 28 27 68 54 99 68
167 137 317 318 70 85 153 182 184 215 l56 60 -28 -80 c-15 -44 -47 -121 -72
-171 -25 -51 -41 -90 -36 -87 18 12 -110 -222 -195 -355 -180 -282 -415 -588
-777 -1011 l-44 -51 35 0 c31 0 43 9 109 83 252 280 454 540 655 844 177 267
291 482 388 728 140 354 202 455 519 845 230 283 390 500 515 702 63 100 176
273 252 383 310 452 447 705 629 1160 64 161 111 304 109 336 0 8 -15 -29 -33
-81 -76 -223 -242 -610 -338 -790 -28 -52 -83 -147 -121 -210 -88 -145 -344
-525 -365 -542 -13 -12 -14 -10 -3 10 6 12 10 22 7 22 -2 0 -23 -34 -45 -75
-23 -41 -43 -75 -46 -75 -4 0 33 111 64 189 12 29 20 55 18 58 -3 2 -17 -27
-32 -64 -66 -167 -194 -374 -389 -630 -58 -76 -115 -149 -126 -163 -19 -22
-19 -20 3 20 55 102 84 151 165 275 141 216 283 454 333 560 68 145 164 386
264 660 48 132 113 305 145 385 32 80 76 195 98 255 22 61 51 136 66 169 14
32 26 60 26 62 0 2 -49 4 -109 4 -106 0 -110 -1 -114 -22 l-4 -23 -2 23 c-1
16 -7 22 -25 22 -23 0 -24 -2 -15 -32z m9 -420 c-19 -83 -63 -229 -67 -224 -3
2 12 68 33 145 21 77 40 139 42 136 2 -2 -1 -28 -8 -57z"/>
<path d="M4540 5083 c-48 -150 -159 -380 -592 -1228 -168 -330 -334 -667 -368
-750 -234 -566 -257 -613 -349 -718 -28 -32 -51 -64 -51 -71 0 -30 17 -24 56
21 40 45 43 47 69 35 41 -19 57 1 110 139 47 120 71 155 54 78 -22 -96 -256
-644 -388 -906 -109 -219 -173 -323 -446 -733 -93 -140 -193 -293 -222 -340
-28 -47 -80 -116 -115 -155 -35 -38 -57 -66 -50 -61 39 24 -9 -30 -178 -202
l-190 -192 78 0 78 0 85 87 c116 120 165 179 396 474 258 328 337 437 503 694
191 293 267 425 375 647 143 296 220 491 339 870 64 204 187 489 333 773 316
613 445 922 579 1383 58 200 55 233 -5 62 -94 -268 -191 -476 -439 -935 -167
-310 -187 -344 -209 -352 -25 -10 -45 26 -38 67 11 55 103 256 288 622 95 189
194 390 219 448 60 137 110 280 98 280 -4 0 -14 -17 -20 -37z m-272 -1065
c-41 -84 -128 -256 -195 -383 -137 -263 -180 -356 -303 -649 -221 -528 -470
-1015 -903 -1766 -182 -317 -425 -652 -568 -785 -28 -26 -21 -16 20 30 35 39
81 102 104 140 22 39 95 151 162 251 355 526 478 730 701 1166 273 532 317
627 380 808 31 91 72 203 91 250 41 102 182 376 325 630 56 102 137 249 178
327 41 77 77 140 79 138 2 -2 -30 -73 -71 -157z m-2128 -3783 c-24 -25 -46
-45 -49 -45 -3 0 15 20 39 45 24 25 46 45 49 45 3 0 -15 -20 -39 -45z"/>
<path d="M4857 5098 c-3 -13 -15 -99 -27 -193 -11 -93 -28 -192 -36 -218 -9
-27 -14 -50 -12 -53 3 -2 31 83 63 188 32 106 66 215 76 241 11 26 19 50 19
52 0 3 -18 5 -39 5 -32 0 -40 -4 -44 -22z"/>
<path d="M170 5060 c6 -11 13 -20 16 -20 2 0 0 9 -6 20 -6 11 -13 20 -16 20
-2 0 0 -9 6 -20z"/>
<path d="M935 5040 c9 -16 18 -30 21 -30 2 0 -2 14 -11 30 -9 17 -18 30 -21
30 -2 0 2 -13 11 -30z"/>
<path d="M2122 5030 c0 -19 2 -27 5 -17 2 9 2 25 0 35 -3 9 -5 1 -5 -18z"/>
<path d="M3132 5015 c0 -16 2 -22 5 -12 2 9 2 23 0 30 -3 6 -5 -1 -5 -18z"/>
<path d="M227 4955 c20 -41 39 -73 41 -71 4 5 -66 146 -73 146 -3 0 12 -34 32
-75z"/>
<path d="M2134 4928 c41 -384 55 -747 37 -947 -6 -68 -10 -126 -8 -128 6 -6
45 261 52 352 8 112 -10 364 -34 465 -11 47 -25 138 -31 203 -7 64 -15 117
-17 117 -3 0 -2 -28 1 -62z"/>
<path d="M1438 4837 c22 -38 44 -71 48 -75 13 -12 -57 112 -73 128 -8 8 4 -16
25 -53z"/>
<path d="M1020 4875 c0 -5 5 -17 10 -25 5 -8 10 -10 10 -5 0 6 -5 17 -10 25
-5 8 -10 11 -10 5z"/>
<path d="M3343 4829 c-19 -58 -109 -269 -162 -381 -35 -76 -56 -108 -68 -109
-10 0 -13 -3 -6 -6 9 -3 7 -15 -7 -44 -11 -21 -25 -39 -30 -39 -5 0 -14 -10
-21 -21 -9 -17 -8 -20 3 -14 7 3 5 0 -4 -8 -10 -8 -15 -17 -11 -20 3 -4 1 -7
-5 -7 -7 0 -11 -3 -10 -7 4 -13 -42 -93 -53 -93 -6 0 -7 -4 -4 -10 3 -5 1 -10
-4 -10 -6 0 -10 -3 -10 -7 3 -21 -2 -33 -13 -27 -7 5 -8 3 -3 -6 5 -8 2 -17
-7 -24 -15 -11 -18 -17 -18 -37 0 -5 -5 -7 -12 -3 -7 5 -8 3 -3 -6 5 -8 -1
-20 -16 -32 -13 -11 -18 -17 -11 -13 10 5 9 -1 -2 -24 -9 -17 -21 -31 -26 -31
-5 0 -14 -10 -21 -21 -8 -16 -8 -20 1 -14 7 4 5 -6 -4 -24 -9 -17 -19 -31 -22
-31 -2 0 1 10 7 23 6 12 9 20 7 17 -13 -13 -219 -324 -221 -333 -1 -6 -8 -17
-15 -26 -7 -9 -85 -109 -172 -222 -126 -164 -191 -237 -317 -359 -87 -84 -140
-140 -118 -124 22 15 98 84 169 153 146 143 148 132 7 -37 -108 -128 -127
-162 -194 -332 -24 -64 -72 -171 -106 -239 -34 -67 -57 -120 -51 -116 6 4 64
73 129 153 65 81 225 260 356 397 130 138 268 286 307 330 39 44 -7 -1 -103
-100 -202 -210 -447 -457 -432 -435 6 8 25 40 43 70 l32 55 -56 -54 c-30 -30
-59 -52 -63 -48 -9 10 13 94 36 132 9 16 50 57 91 90 128 103 276 265 395 430
70 97 241 372 348 560 101 175 280 542 272 555 -3 6 -2 10 4 10 6 0 7 7 4 17
-4 11 -3 14 5 9 8 -5 10 -2 6 8 -3 9 -1 16 6 16 6 0 8 5 5 10 -3 6 -2 10 4 10
6 0 8 7 5 15 -4 8 -1 15 6 15 6 0 8 5 5 10 -3 6 -1 10 5 10 7 0 10 7 6 15 -3
8 -2 15 3 15 4 0 12 15 18 33 6 17 39 103 73 190 33 87 60 163 58 169 -2 6 -9
-5 -15 -23z m-288 -709 c-36 -71 -67 -130 -70 -130 -3 0 24 59 60 130 36 72
67 130 70 130 3 0 -24 -58 -60 -130z m-275 -390 c-6 -11 -13 -20 -16 -20 -2 0
0 9 6 20 6 11 13 20 16 20 2 0 0 -9 -6 -20z m-26 -42 c-23 -39 -107 -157 -129
-183 -21 -23 -19 -19 5 15 18 25 52 75 77 113 25 37 48 67 50 67 2 0 1 -6 -3
-12z m-144 -317 c-5 -11 -15 -23 -21 -27 -6 -3 -3 5 6 20 20 30 30 35 15 7z
m-46 -66 c-9 -14 -18 -25 -21 -25 -5 0 5 18 20 38 17 22 18 13 1 -13z m-65
-96 c-24 -33 -47 -63 -53 -67 -6 -3 1 10 15 29 14 18 35 49 48 67 12 17 25 32
27 32 3 0 -14 -27 -37 -61z m-540 -804 c-18 -25 -34 -45 -36 -45 -6 0 6 19 35
58 37 49 38 38 1 -13z"/>
<path d="M476 4755 c9 -88 44 -267 72 -370 24 -89 27 -118 27 -255 -1 -185
-17 -254 -99 -425 -72 -149 -145 -243 -325 -418 -140 -135 -152 -150 -149
-179 l3 -31 97 82 c114 95 198 190 281 315 76 117 98 160 140 282 59 171 72
247 72 449 0 175 -1 183 -32 285 -18 58 -46 152 -63 210 -23 80 -28 93 -24 55z"/>
<path d="M2274 4540 c0 -129 2 -182 3 -117 2 64 2 170 0 235 -1 64 -3 11 -3
-118z"/>
<path d="M1491 4745 c0 -5 8 -26 19 -45 11 -19 19 -30 19 -25 0 6 -8 26 -19
45 -11 19 -19 31 -19 25z"/>
<path d="M1530 4655 c0 -5 5 -17 10 -25 5 -8 10 -10 10 -5 0 6 -5 17 -10 25
-5 8 -10 11 -10 5z"/>
<path d="M4746 4524 c-15 -52 -26 -97 -24 -100 3 -2 17 40 32 92 15 53 25 98
23 101 -2 2 -16 -40 -31 -93z"/>
<path d="M1913 4520 c0 -30 2 -43 4 -27 2 15 2 39 0 55 -2 15 -4 2 -4 -28z"/>
<path d="M4796 4540 c-3 -8 -19 -65 -35 -125 -54 -200 -98 -315 -113 -293 -7
9 -8 8 -4 -5 7 -22 -38 -128 -189 -447 -103 -216 -301 -649 -312 -680 -3 -8
49 86 115 210 65 124 168 316 228 427 60 111 135 250 167 310 32 59 78 144
102 188 59 105 80 200 71 313 -7 87 -20 131 -30 102z"/>
<path d="M2863 4397 c-22 -34 -50 -81 -63 -104 -13 -23 -28 -39 -33 -36 -5 3
-8 0 -5 -8 2 -7 -26 -77 -62 -154 -37 -77 -91 -198 -120 -270 -62 -156 -130
-287 -235 -455 -81 -130 -328 -499 -375 -560 -36 -46 -64 -90 -57 -90 24 0
495 711 632 955 15 28 37 66 48 85 18 29 18 33 4 21 -22 -18 52 144 132 289
32 58 71 129 85 158 33 65 97 224 93 228 -2 2 -21 -25 -44 -59z"/>
<path d="M2806 4404 c-4 -14 -5 -28 -3 -31 3 -2 8 8 11 23 4 14 5 28 3 31 -3
2 -8 -8 -11 -23z"/>
<path d="M2926 4415 c-9 -26 -7 -32 5 -12 6 10 9 21 6 23 -2 3 -7 -2 -11 -11z"/>
<path d="M1913 4380 c0 -25 2 -35 4 -22 2 12 2 32 0 45 -2 12 -4 2 -4 -23z"/>
<path d="M4701 4364 c-7 -25 -10 -48 -8 -51 3 -2 10 17 16 43 7 25 10 48 8 51
-3 2 -10 -17 -16 -43z"/>
<path d="M2902 4355 c-17 -37 -14 -45 4 -12 9 16 14 31 11 33 -2 2 -9 -7 -15
-21z"/>
<path d="M1181 4360 c0 -8 4 -24 9 -35 5 -13 9 -14 9 -5 0 8 -4 24 -9 35 -5
13 -9 14 -9 5z"/>
<path d="M433 4300 c0 -25 2 -35 4 -22 2 12 2 32 0 45 -2 12 -4 2 -4 -23z"/>
<path d="M3086 4305 c-9 -26 -7 -32 5 -12 6 10 9 21 6 23 -2 3 -7 -2 -11 -11z"/>
<path d="M1201 4284 c0 -11 3 -14 6 -6 3 7 2 16 -1 19 -3 4 -6 -2 -5 -13z"/>
<path d="M4681 4284 c0 -11 3 -14 6 -6 3 7 2 16 -1 19 -3 4 -6 -2 -5 -13z"/>
<path d="M1211 4255 c0 -5 8 -41 19 -80 11 -38 18 -54 15 -34 -6 39 -33 130
-34 114z"/>
<path d="M4671 4244 c0 -11 3 -14 6 -6 3 7 2 16 -1 19 -3 4 -6 -2 -5 -13z"/>
<path d="M2263 4180 c0 -25 2 -35 4 -22 2 12 2 32 0 45 -2 12 -4 2 -4 -23z"/>
<path d="M4661 4204 c0 -11 3 -14 6 -6 3 7 2 16 -1 19 -3 4 -6 -2 -5 -13z"/>
<path d="M2043 4175 c0 -22 2 -30 4 -17 2 12 2 30 0 40 -3 9 -5 -1 -4 -23z"/>
<path d="M4651 4164 c0 -11 3 -14 6 -6 3 7 2 16 -1 19 -3 4 -6 -2 -5 -13z"/>
<path d="M1983 4095 c0 -27 2 -38 4 -22 2 15 2 37 0 50 -2 12 -4 0 -4 -28z"/>
<path d="M2033 4095 c0 -22 2 -30 4 -17 2 12 2 30 0 40 -3 9 -5 -1 -4 -23z"/>
<path d="M2760 4090 c-6 -11 -8 -20 -6 -20 3 0 10 9 16 20 6 11 8 20 6 20 -3
0 -10 -9 -16 -20z"/>
<path d="M1251 4090 c0 -8 6 -44 14 -80 8 -36 15 -85 15 -110 1 -35 3 -40 10
-24 5 13 1 55 -11 115 -20 99 -27 124 -28 99z"/>
<path d="M1291 4084 c0 -11 3 -14 6 -6 3 7 2 16 -1 19 -3 4 -6 -2 -5 -13z"/>
<path d="M2252 4070 c0 -14 2 -19 5 -12 2 6 2 18 0 25 -3 6 -5 1 -5 -13z"/>
<path d="M1301 4034 c0 -11 3 -14 6 -6 3 7 2 16 -1 19 -3 4 -6 -2 -5 -13z"/>
<path d="M2022 4010 c0 -19 2 -27 5 -17 2 9 2 25 0 35 -3 9 -5 1 -5 -18z"/>
<path d="M1972 3985 c0 -16 2 -22 5 -12 2 9 2 23 0 30 -3 6 -5 -1 -5 -18z"/>
<path d="M1311 3984 c0 -11 3 -14 6 -6 3 7 2 16 -1 19 -3 4 -6 -2 -5 -13z"/>
<path d="M2012 3945 c0 -16 2 -22 5 -12 2 9 2 23 0 30 -3 6 -5 -1 -5 -18z"/>
<path d="M1322 3925 c0 -16 2 -22 5 -12 2 9 2 23 0 30 -3 6 -5 -1 -5 -18z"/>
<path d="M1962 3920 c0 -14 2 -19 5 -12 2 6 2 18 0 25 -3 6 -5 1 -5 -13z"/>
<path d="M2231 3924 c0 -11 3 -14 6 -6 3 7 2 16 -1 19 -3 4 -6 -2 -5 -13z"/>
<path d="M2002 3880 c0 -19 2 -27 5 -17 2 9 2 25 0 35 -3 9 -5 1 -5 -18z"/>
<path d="M5083 3877 c-77 -88 -193 -287 -193 -332 0 -55 39 -15 76 76 30 74
93 184 130 228 14 17 24 38 22 48 -2 13 -10 8 -35 -20z"/>
<path d="M1301 3864 c0 -11 3 -14 6 -6 3 7 2 16 -1 19 -3 4 -6 -2 -5 -13z"/>
<path d="M1332 3855 c0 -16 2 -22 5 -12 2 9 2 23 0 30 -3 6 -5 -1 -5 -18z"/>
<path d="M1946 3844 c-4 -20 -5 -38 -3 -40 3 -3 8 11 11 32 4 20 5 38 3 40 -3
3 -8 -11 -11 -32z"/>
<path d="M280 3830 c-11 -22 -18 -40 -15 -40 2 0 14 18 25 40 11 22 18 40 15
40 -2 0 -14 -18 -25 -40z"/>
<path d="M681 3834 c0 -11 3 -14 6 -6 3 7 2 16 -1 19 -3 4 -6 -2 -5 -13z"/>
<path d="M1292 3815 c0 -16 2 -22 5 -12 2 9 2 23 0 30 -3 6 -5 -1 -5 -18z"/>
<path d="M1986 3789 c-4 -28 -5 -53 -3 -56 3 -2 8 19 12 47 4 28 5 53 2 56 -2
3 -7 -19 -11 -47z"/>
<path d="M2152 3820 c0 -14 2 -19 5 -12 2 6 2 18 0 25 -3 6 -5 1 -5 -13z"/>
<path d="M1852 3805 c0 -16 2 -22 5 -12 2 9 2 23 0 30 -3 6 -5 -1 -5 -18z"/>
<path d="M2211 3814 c0 -11 3 -14 6 -6 3 7 2 16 -1 19 -3 4 -6 -2 -5 -13z"/>
<path d="M1342 3800 c0 -14 2 -19 5 -12 2 6 2 18 0 25 -3 6 -5 1 -5 -13z"/>
<path d="M693 3730 c0 -47 2 -66 4 -42 2 23 2 61 0 85 -2 23 -4 4 -4 -43z"/>
<path d="M2022 3753 c-6 -27 -16 -77 -22 -113 -16 -94 -47 -214 -76 -300 -55
-160 -185 -405 -284 -534 -27 -36 -50 -71 -50 -78 0 -42 224 234 284 352 56
107 109 265 135 401 20 105 39 319 28 319 -3 0 -10 -21 -15 -47z"/>
<path d="M1931 3774 c0 -11 3 -14 6 -6 3 7 2 16 -1 19 -3 4 -6 -2 -5 -13z"/>
<path d="M2142 3770 c0 -14 2 -19 5 -12 2 6 2 18 0 25 -3 6 -5 1 -5 -13z"/>
<path d="M44 3748 l-29 -33 33 29 c30 28 37 36 29 36 -2 0 -16 -15 -33 -32z"/>
<path d="M235 3750 c-9 -16 -13 -30 -11 -30 3 0 12 14 21 30 9 17 13 30 11 30
-3 0 -12 -13 -21 -30z"/>
<path d="M1303 3745 c0 -22 2 -30 4 -17 2 12 2 30 0 40 -3 9 -5 -1 -4 -23z"/>
<path d="M1352 3740 c0 -14 2 -19 5 -12 2 6 2 18 0 25 -3 6 -5 1 -5 -13z"/>
<path d="M1842 3725 c0 -16 2 -22 5 -12 2 9 2 23 0 30 -3 6 -5 -1 -5 -18z"/>
<path d="M1921 3734 c0 -11 3 -14 6 -6 3 7 2 16 -1 19 -3 4 -6 -2 -5 -13z"/>
<path d="M2131 3724 c0 -11 3 -14 6 -6 3 7 2 16 -1 19 -3 4 -6 -2 -5 -13z"/>
<path d="M1972 3700 c0 -14 2 -19 5 -12 2 6 2 18 0 25 -3 6 -5 1 -5 -13z"/>
<path d="M1362 3680 c0 -19 2 -27 5 -17 2 9 2 25 0 35 -3 9 -5 1 -5 -18z"/>
<path d="M1911 3694 c0 -11 3 -14 6 -6 3 7 2 16 -1 19 -3 4 -6 -2 -5 -13z"/>
<path d="M1312 3670 c-1 -19 -5 -53 -8 -75 -5 -31 -4 -37 5 -29 8 7 11 34 8
75 -2 35 -4 48 -5 29z"/>
<path d="M2121 3684 c0 -11 3 -14 6 -6 3 7 2 16 -1 19 -3 4 -6 -2 -5 -13z"/>
<path d="M1832 3670 c0 -14 2 -19 5 -12 2 6 2 18 0 25 -3 6 -5 1 -5 -13z"/>
<path d="M1377 3540 c3 -58 7 -107 9 -109 7 -7 2 101 -6 159 -6 39 -7 24 -3
-50z"/>
<path d="M1821 3614 c0 -11 3 -14 6 -6 3 7 2 16 -1 19 -3 4 -6 -2 -5 -13z"/>
<path d="M682 3590 c0 -19 2 -27 5 -17 2 9 2 25 0 35 -3 9 -5 1 -5 -18z"/>
<path d="M5054 3588 l-19 -23 23 19 c12 11 22 21 22 23 0 8 -8 2 -26 -19z"/>
<path d="M1811 3574 c0 -11 3 -14 6 -6 3 7 2 16 -1 19 -3 4 -6 -2 -5 -13z"/>
<path d="M4994 3538 l-29 -33 33 29 c30 28 37 36 29 36 -2 0 -16 -15 -33 -32z"/>
<path d="M1801 3534 c0 -11 3 -14 6 -6 3 7 2 16 -1 19 -3 4 -6 -2 -5 -13z"/>
<path d="M3215 3520 c-9 -16 -13 -30 -11 -30 3 0 12 14 21 30 9 17 13 30 11
30 -3 0 -12 -13 -21 -30z"/>
<path d="M5015 3483 c-99 -73 -190 -161 -254 -245 -53 -70 -53 -86 0 -28 24
27 33 33 21 15 -11 -16 -37 -46 -57 -65 -20 -19 -58 -62 -83 -95 -25 -33 -80
-96 -122 -141 -77 -80 -138 -172 -180 -272 -13 -29 -25 -51 -27 -48 -7 6 83
203 119 259 18 29 80 102 138 162 58 61 118 133 134 160 49 85 117 177 185
251 l66 70 -75 -75 c-41 -42 -107 -121 -146 -176 -39 -55 -110 -143 -158 -195
-130 -143 -188 -234 -256 -404 -33 -82 -57 -152 -54 -157 3 -5 0 -9 -6 -9 -6
0 -9 -4 -6 -8 7 -12 -111 -251 -189 -382 -115 -194 -196 -308 -348 -488 -169
-202 -232 -326 -321 -641 -78 -271 -137 -412 -211 -499 -35 -40 -138 -259
-188 -399 -21 -57 -23 -73 -13 -73 8 0 26 30 42 72 72 193 149 362 184 404 45
54 212 378 310 600 89 202 119 246 227 335 154 127 331 314 463 489 157 208
231 282 455 455 99 76 242 186 317 244 l137 106 1 58 c0 44 -3 56 -12 51 -112
-69 -457 -298 -503 -334 -93 -74 -203 -193 -223 -241 -11 -24 -27 -68 -37 -98
-22 -68 -220 -331 -355 -474 -121 -128 -260 -249 -277 -243 -7 3 -12 1 -10 -5
1 -6 -9 -18 -23 -27 -24 -17 -24 -17 -10 3 8 11 68 87 133 169 187 233 346
476 540 821 146 262 392 607 482 678 19 15 77 65 128 110 50 45 109 95 130
111 30 23 37 35 37 63 l0 35 -37 -30 c-21 -17 -94 -83 -163 -149 -155 -147
-93 -66 83 108 l117 117 0 61 c0 34 -3 61 -7 61 -5 0 -48 -30 -98 -67z m-714
-920 c-12 -20 -14 -14 -5 12 4 9 9 14 11 11 3 -2 0 -13 -6 -23z"/>
<path d="M1313 3505 c0 -22 2 -30 4 -17 2 12 2 30 0 40 -3 9 -5 -1 -4 -23z"/>
<path d="M672 3500 c0 -19 2 -27 5 -17 2 9 2 25 0 35 -3 9 -5 1 -5 -18z"/>
<path d="M3175 3450 c-9 -16 -13 -30 -11 -30 3 0 12 14 21 30 9 17 13 30 11
30 -3 0 -12 -13 -21 -30z"/>
<path d="M662 3435 c0 -16 2 -22 5 -12 2 9 2 23 0 30 -3 6 -5 -1 -5 -18z"/>
<path d="M1324 3320 c0 -63 1 -89 3 -57 2 31 2 83 0 115 -2 31 -3 5 -3 -58z"/>
<path d="M1393 3355 c0 -38 2 -53 4 -32 2 20 2 52 0 70 -2 17 -4 1 -4 -38z"/>
<path d="M3140 3390 c-6 -11 -8 -20 -6 -20 3 0 10 9 16 20 6 11 8 20 6 20 -3
0 -10 -9 -16 -20z"/>
<path d="M641 3332 c-7 -41 -40 -151 -73 -245 -33 -95 -100 -288 -149 -430
-110 -319 -146 -398 -255 -550 -47 -65 -83 -121 -81 -124 3 -2 46 51 97 118
111 146 137 203 245 529 43 129 101 300 130 380 56 154 109 348 103 377 -2 10
-10 -15 -17 -55z"/>
<path d="M2785 3298 l-50 -53 53 50 c48 46 57 55 49 55 -1 0 -25 -24 -52 -52z"/>
<path d="M2021 3284 c0 -11 3 -14 6 -6 3 7 2 16 -1 19 -3 4 -6 -2 -5 -13z"/>
<path d="M1371 3165 c-22 -171 -22 -190 0 -70 10 61 18 126 17 145 -2 19 -9
-14 -17 -75z"/>
<path d="M2719 3213 c-13 -16 -12 -17 4 -4 16 13 21 21 13 21 -2 0 -10 -8 -17
-17z"/>
<path d="M2674 3198 l-19 -23 23 19 c21 18 27 26 19 26 -2 0 -12 -10 -23 -22z"/>
<path d="M211 3194 c-1 -6 -16 -14 -33 -18 -23 -4 -55 -29 -105 -81 -66 -68
-73 -79 -73 -116 l0 -40 29 20 c71 51 198 209 187 234 -3 8 -5 9 -5 1z"/>
<path d="M1991 3193 c-1 -6 -4 -20 -7 -30 -5 -17 -5 -17 6 0 6 10 9 23 6 30
-3 9 -5 9 -5 0z"/>
<path d="M1312 3150 c0 -19 2 -27 5 -17 2 9 2 25 0 35 -3 9 -5 1 -5 -18z"/>
<path d="M2669 3153 l-24 -28 28 24 c25 23 32 31 24 31 -2 0 -14 -12 -28 -27z"/>
<path d="M1302 3075 c0 -16 2 -22 5 -12 2 9 2 23 0 30 -3 6 -5 -1 -5 -18z"/>
<path d="M1292 3020 c0 -14 2 -19 5 -12 2 6 2 18 0 25 -3 6 -5 1 -5 -13z"/>
<path d="M1281 2974 c0 -11 3 -14 6 -6 3 7 2 16 -1 19 -3 4 -6 -2 -5 -13z"/>
<path d="M2374 2958 l-29 -33 33 29 c30 28 37 36 29 36 -2 0 -16 -15 -33 -32z"/>
<path d="M1342 2960 c0 -14 2 -19 5 -12 2 6 2 18 0 25 -3 6 -5 1 -5 -13z"/>
<path d="M1271 2934 c0 -11 3 -14 6 -6 3 7 2 16 -1 19 -3 4 -6 -2 -5 -13z"/>
<path d="M1331 2904 c0 -11 3 -14 6 -6 3 7 2 16 -1 19 -3 4 -6 -2 -5 -13z"/>
<path d="M4759 2893 l-24 -28 28 24 c25 23 32 31 24 31 -2 0 -14 -12 -28 -27z"/>
<path d="M1726 2760 c-108 -149 -185 -242 -195 -235 -5 2 -17 -5 -27 -18 l-19
-22 23 19 c12 11 22 15 22 9 0 -11 -39 -49 -49 -47 -3 1 -60 -51 -126 -115
-66 -64 -102 -100 -80 -81 22 19 77 71 123 115 45 44 82 75 82 69 0 -6 -66
-73 -147 -149 -215 -200 -503 -487 -503 -500 0 -18 -267 -272 -283 -269 -10 1
-14 -3 -10 -14 4 -10 2 -13 -5 -8 -8 5 -10 1 -5 -10 4 -11 3 -15 -4 -11 -7 5
-10 -1 -7 -15 2 -13 1 -17 -2 -9 -7 14 -6 15 -89 -82 -20 -23 -36 -34 -40 -27
-3 5 -11 7 -18 3 -11 -6 37 82 54 102 18 19 8 -7 -17 -45 -15 -22 -24 -43 -21
-46 10 -10 63 81 139 236 78 161 104 199 229 345 47 55 105 123 128 150 42 49
41 48 -9 -5 -99 -104 -257 -295 -311 -375 -50 -75 -73 -116 -213 -375 -85
-159 -159 -271 -169 -257 -5 7 -6 2 -2 -12 5 -18 4 -22 -6 -16 -8 6 -11 4 -7
-6 3 -8 0 -26 -8 -40 -7 -13 -13 -28 -13 -34 0 -5 14 17 33 50 55 100 125 209
141 217 8 5 12 15 8 25 -4 10 -2 14 4 10 6 -4 16 -1 22 7 7 8 8 16 4 18 -4 3
-2 3 5 2 15 -4 16 8 1 23 -9 9 -7 11 7 8 24 -4 20 -19 -22 -77 -19 -27 -31
-48 -26 -48 4 0 25 25 46 55 21 30 44 52 49 48 6 -3 7 -1 4 4 -15 23 110 148
328 327 213 176 261 221 375 356 54 63 115 133 136 156 22 22 30 29 18 15 -11
-14 -49 -66 -84 -116 -35 -49 -75 -105 -88 -122 -13 -18 -22 -33 -19 -33 2 0
41 48 85 108 44 59 128 163 187 232 170 201 485 630 462 630 -3 0 -43 -54 -91
-120z m-1278 -1265 c-6 -14 -13 -23 -15 -21 -5 5 15 46 22 46 3 0 -1 -11 -7
-25z"/>
<path d="M4698 2818 c-42 -51 -161 -228 -154 -228 3 0 29 35 57 78 29 42 72
103 96 135 51 66 52 77 1 15z"/>
<path d="M1268 2762 c-26 -48 -54 -96 -62 -107 l-16 -20 5 20 c3 11 -4 0 -15
-25 -19 -41 -156 -230 -167 -230 -2 0 -1 6 3 13 4 7 3 9 -2 4 -5 -5 -9 -13 -9
-17 0 -5 -9 -16 -20 -25 -11 -9 -13 -13 -5 -9 17 9 -110 -145 -195 -237 -53
-57 -151 -197 -317 -454 -25 -38 -60 -90 -78 -115 l-32 -45 32 35 c17 19 58
73 90 120 75 108 142 191 289 360 253 291 411 501 481 640 32 64 73 170 67
176 -1 2 -24 -36 -49 -84z"/>
<path d="M1365 2743 c-82 -126 -239 -335 -361 -480 -47 -57 -83 -103 -80 -103
4 0 127 144 242 286 83 102 220 300 263 382 25 48 2 17 -64 -85z"/>
<path d="M909 2786 c-87 -86 -203 -262 -364 -552 -38 -69 -76 -128 -82 -131
-7 -3 -13 -11 -13 -19 0 -8 -5 -14 -11 -14 -5 0 -8 -4 -4 -9 3 -6 -3 -18 -14
-28 -19 -18 -51 -76 -51 -90 1 -4 7 3 15 17 17 30 20 21 4 -14 -7 -14 -15 -24
-18 -22 -3 2 -7 -6 -7 -17 -1 -12 -11 -47 -22 -77 -11 -30 -47 -135 -78 -232
-32 -97 -60 -175 -62 -173 -2 2 24 88 57 191 34 103 59 189 57 191 -2 2 -31
-80 -64 -184 -87 -269 -107 -353 -82 -353 6 0 10 5 10 12 0 6 2 9 5 6 3 -2 -3
-29 -13 -59 -12 -35 -21 -49 -25 -39 -4 8 -4 -2 -1 -23 3 -26 2 -37 -5 -32 -7
4 -11 -4 -11 -19 0 -14 5 -28 10 -31 5 -3 10 2 10 12 0 26 35 135 72 226 22
53 34 73 41 65 6 -9 7 -8 3 5 -8 26 85 215 216 437 63 107 136 232 162 278 26
45 52 80 57 76 5 -3 6 3 2 12 -4 12 -3 15 5 10 8 -5 10 -1 5 10 -4 12 -3 15 5
10 8 -5 10 -1 5 10 -5 13 -3 15 7 9 8 -5 11 -4 7 2 -4 5 13 55 37 109 24 54
56 133 71 174 16 41 30 69 32 63 6 -18 -35 -129 -83 -224 -24 -49 -42 -89 -39
-89 3 0 27 44 54 99 28 54 72 127 98 162 61 79 77 107 32 55 -19 -22 -39 -47
-45 -55 -9 -12 -11 -5 -10 32 0 26 4 47 9 47 4 0 7 8 7 18 0 9 13 55 29 102
16 47 28 86 27 88 -2 1 -23 -18 -47 -42z m-131 -353 c-13 -27 -56 -103 -96
-171 -41 -67 -96 -162 -123 -210 -61 -109 -63 -100 -4 17 60 120 231 411 241
411 2 0 -6 -21 -18 -47z m-290 -424 c-12 -35 -23 -59 -25 -53 -4 13 37 128 43
121 2 -2 -6 -32 -18 -68z m-142 -336 c-8 -15 -15 -25 -16 -21 0 12 23 58 27
54 3 -2 -2 -17 -11 -33z m-40 -90 c-14 -26 -25 -45 -26 -41 0 12 43 98 48 94
2 -2 -8 -26 -22 -53z m-45 -100 c-11 -21 -20 -35 -21 -31 0 12 33 78 38 74 2
-2 -6 -21 -17 -43z m-35 -89 c-8 -21 -15 -34 -15 -28 -1 15 20 76 25 71 2 -2
-2 -21 -10 -43z m-29 -6 c-3 -8 -6 -5 -6 6 -1 11 2 17 5 13 3 -3 4 -12 1 -19z
m-10 -40 c-3 -8 -6 -5 -6 6 -1 11 2 17 5 13 3 -3 4 -12 1 -19z m-10 -40 c-3
-8 -6 -5 -6 6 -1 11 2 17 5 13 3 -3 4 -12 1 -19z"/>
<path d="M1941 2694 c-29 -26 -116 -124 -195 -218 -78 -94 -192 -227 -252
-296 -125 -143 -395 -423 -401 -416 -3 3 41 62 98 133 123 154 158 208 210
321 22 48 61 114 86 147 57 73 67 91 30 50 -53 -57 -114 -140 -161 -220 -96
-159 -299 -424 -455 -594 -52 -57 -203 -205 -336 -329 -317 -297 -327 -307
-225 -231 138 102 256 204 415 359 82 80 141 134 130 120 l-20 -25 22 19 c13
10 20 22 18 27 -3 4 5 15 17 23 12 9 19 16 15 16 -4 0 26 38 68 85 41 47 78
84 81 84 4 -1 65 57 136 127 145 144 341 362 528 589 68 83 152 178 187 213
74 73 76 81 4 16z"/>
<path d="M4080 2653 c-44 -53 -152 -275 -148 -305 4 -32 41 -36 60 -6 8 13 32
74 52 136 20 62 46 134 57 159 11 25 18 48 15 50 -2 2 -18 -13 -36 -34z"/>
<path d="M471 2564 c0 -11 3 -14 6 -6 3 7 2 16 -1 19 -3 4 -6 -2 -5 -13z"/>
<path d="M445 2473 c-28 -107 -92 -266 -134 -330 -21 -32 -89 -115 -151 -183
-62 -69 -125 -138 -139 -155 l-26 -30 32 30 c73 71 260 285 294 338 56 86 163
376 146 393 -2 2 -12 -26 -22 -63z"/>
<path d="M69 2463 c-1 -5 0 -12 1 -18 1 -5 -2 -7 -6 -3 -4 4 -20 0 -35 -9 -26
-15 -29 -23 -29 -66 0 -42 2 -47 18 -38 44 24 98 101 88 127 -6 14 -35 20 -37
7z"/>
<path d="M844 2228 l-29 -33 33 29 c30 28 37 36 29 36 -2 0 -16 -15 -33 -32z"/>
<path d="M1004 2083 c-37 -43 -104 -116 -149 -163 -116 -121 -314 -380 -291
-380 3 0 24 28 47 63 64 95 184 243 270 332 82 85 204 225 196 225 -2 0 -35
-35 -73 -77z"/>
<path d="M5005 2056 c-198 -135 -278 -213 -535 -531 -77 -95 -174 -210 -217
-256 -154 -166 -249 -293 -311 -414 -16 -33 -56 -141 -87 -240 -75 -236 -146
-386 -279 -587 l-18 -28 78 0 79 0 50 92 c67 122 88 146 28 33 -64 -123 -63
-125 79 -125 l113 0 33 93 c40 110 191 423 252 522 86 141 189 264 370 445
168 168 198 194 332 280 l147 95 1 74 0 74 -157 -154 c-117 -114 -192 -177
-288 -243 -431 -297 -509 -377 -684 -704 -96 -181 -117 -211 -85 -121 8 24 35
113 59 197 69 235 107 305 338 621 277 379 458 571 691 737 l126 89 0 63 c0
34 -1 62 -3 62 -2 0 -52 -33 -112 -74z"/>
<path d="M1880 2060 c-11 -22 -18 -40 -15 -40 2 0 14 18 25 40 11 22 18 40 15
40 -2 0 -14 -18 -25 -40z"/>
<path d="M3101 2058 c-86 -70 -147 -180 -276 -498 -136 -334 -192 -442 -360
-700 -88 -136 -141 -221 -103 -167 7 10 63 85 125 165 204 268 251 345 409
672 80 168 163 349 184 402 21 54 48 111 60 128 12 17 20 33 18 36 -3 2 -28
-15 -57 -38z"/>
<path d="M3819 2028 c-30 -65 -167 -272 -291 -440 -51 -70 -117 -169 -146
-220 -29 -51 -62 -108 -73 -125 -12 -18 -18 -33 -15 -33 3 0 45 60 93 133 48
72 122 178 165 234 113 148 193 274 250 391 27 57 48 105 46 108 -3 2 -15 -19
-29 -48z"/>
<path d="M112 1995 c-16 -13 -32 -22 -34 -19 -5 5 -78 -90 -78 -101 0 -21 118
84 139 124 15 27 9 27 -27 -4z"/>
<path d="M1840 1990 c-6 -11 -8 -20 -6 -20 3 0 10 9 16 20 6 11 8 20 6 20 -3
0 -10 -9 -16 -20z"/>
<path d="M1589 1933 c-36 -38 -109 -133 -164 -213 -54 -80 -122 -179 -150
-220 -62 -91 -68 -100 -61 -100 3 0 47 62 99 138 204 298 241 349 295 405 31
31 54 57 51 57 -3 0 -35 -30 -70 -67z"/>
<path d="M1628 1923 c-30 -43 -79 -112 -107 -153 -29 -41 -56 -74 -61 -73 -4
1 -7 -5 -6 -15 0 -10 -5 -16 -14 -14 -8 2 -12 0 -8 -3 10 -10 -11 -47 -21 -40
-5 2 -8 -3 -7 -12 0 -10 -4 -18 -11 -18 -6 0 -15 -4 -20 -9 -5 -5 -2 -6 6 -1
9 5 12 3 9 -6 -3 -8 -10 -14 -16 -14 -5 0 -14 -4 -19 -9 -5 -5 -3 -6 5 -2 18
10 15 -2 -9 -35 -11 -16 -25 -26 -31 -23 -7 4 -8 2 -4 -4 9 -15 -126 -182
-242 -299 -49 -49 -134 -126 -188 -170 -55 -44 -136 -119 -182 -167 -45 -47
-85 -86 -89 -86 -12 0 7 119 28 171 51 132 129 234 359 475 170 177 202 222
181 248 -18 21 -57 5 -113 -47 -105 -95 -348 -359 -342 -369 4 -7 3 -8 -4 -4
-7 4 -13 2 -13 -3 -1 -6 -2 -17 -3 -23 0 -7 -8 -13 -16 -13 -8 0 -14 -8 -14
-18 1 -9 -2 -15 -6 -12 -14 9 -121 -181 -157 -279 -9 -23 -24 -72 -34 -111
-22 -86 -25 -63 -4 35 19 91 63 197 126 302 27 46 38 70 24 53 -47 -56 -133
-246 -165 -363 -17 -63 -37 -126 -45 -142 -8 -15 -33 -84 -55 -152 -25 -74
-55 -144 -77 -176 -49 -71 -131 -143 -214 -187 l-69 -36 0 -60 0 -59 50 0 c49
0 49 0 113 76 35 42 115 162 178 266 62 104 116 191 120 194 12 7 -1 -92 -26
-191 -13 -49 -45 -147 -73 -217 l-50 -128 57 0 58 0 46 147 c25 82 62 210 82
285 19 76 44 158 55 182 49 115 138 222 355 427 245 230 424 455 602 753 53
89 103 171 111 184 8 12 12 22 10 22 -3 0 -30 -35 -60 -77z m-1199 -1372 c-7
-23 -14 -39 -16 -37 -3 2 1 23 8 45 7 23 14 39 16 37 3 -2 -1 -23 -8 -45z"/>
<path d="M1784 1893 c-134 -243 -389 -531 -639 -723 -124 -96 -364 -329 -390
-381 -15 -28 -15 -32 -3 -21 13 10 17 10 21 0 3 -7 6 -2 6 11 1 31 233 267
381 389 314 258 515 492 654 761 31 59 8 31 -30 -36z"/>
<path d="M1059 1883 c-13 -16 -12 -17 4 -4 9 7 17 15 17 17 0 8 -8 3 -21 -13z"/>
<path d="M323 1845 c-3 -9 -3 -18 -1 -21 3 -3 8 4 11 16 6 23 -1 27 -10 5z"/>
<path d="M1019 1833 c-13 -16 -12 -17 4 -4 9 7 17 15 17 17 0 8 -8 3 -21 -13z"/>
<path d="M610 1670 c-6 -11 -8 -20 -6 -20 3 0 10 9 16 20 6 11 8 20 6 20 -3 0
-10 -9 -16 -20z"/>
<path d="M580 1620 c-6 -11 -8 -20 -6 -20 3 0 10 9 16 20 6 11 8 20 6 20 -3 0
-10 -9 -16 -20z"/>
<path d="M823 1446 c-37 -42 -117 -151 -96 -131 18 17 143 175 139 175 -3 0
-22 -20 -43 -44z"/>
<path d="M2004 1353 c-15 -27 -55 -88 -89 -138 -34 -49 -124 -182 -199 -295
-198 -295 -273 -386 -538 -657 -219 -223 -254 -263 -229 -263 12 0 334 327
432 441 130 148 241 301 426 584 164 250 241 375 230 375 -3 0 -17 -21 -33
-47z"/>
<path d="M242 1249 c-35 -72 -61 -133 -59 -135 2 -2 19 28 37 66 19 39 38 70
43 70 4 0 5 5 2 10 -3 6 -1 10 5 10 6 0 9 4 6 9 -3 5 1 12 10 15 9 4 14 13 10
21 -3 8 -1 14 5 12 6 -1 15 8 20 21 5 14 5 21 0 17 -5 -3 -11 0 -13 6 -2 5
-32 -49 -66 -122z"/>
<path d="M680 1255 c-17 -25 -29 -45 -26 -45 3 0 19 20 36 45 17 25 29 45 26
45 -3 0 -19 -20 -36 -45z"/>
<path d="M150 1236 c0 -31 6 -34 13 -6 3 11 1 23 -4 26 -5 3 -9 -6 -9 -20z"/>
<path d="M5044 1172 c-344 -239 -613 -438 -645 -479 -17 -22 -17 -22 101 68
47 36 164 121 260 189 147 104 317 230 355 262 26 22 -9 3 -71 -40z"/>
<path d="M289 1193 c-13 -16 -12 -17 4 -4 16 13 21 21 13 21 -2 0 -10 -8 -17
-17z"/>
<path d="M3259 1173 c-13 -16 -12 -17 4 -4 16 13 21 21 13 21 -2 0 -10 -8 -17
-17z"/>
<path d="M260 1150 c-6 -11 -8 -20 -6 -20 3 0 10 9 16 20 6 11 8 20 6 20 -3 0
-10 -9 -16 -20z"/>
<path d="M3244 1128 l-19 -23 23 19 c21 18 27 26 19 26 -2 0 -12 -10 -23 -22z"/>
<path d="M3194 1068 l-19 -23 23 19 c21 18 27 26 19 26 -2 0 -12 -10 -23 -22z"/>
<path d="M120 1063 c0 -12 5 -25 10 -28 13 -8 13 15 0 35 -8 12 -10 11 -10 -7z"/>
<path d="M106 969 c-4 -33 -5 -64 -2 -67 3 -3 6 7 6 22 0 15 3 25 8 23 8 -6 8
70 0 78 -3 3 -8 -22 -12 -56z"/>
<path d="M3149 1013 c-13 -16 -12 -17 4 -4 9 7 17 15 17 17 0 8 -8 3 -21 -13z"/>
<path d="M1401 934 c-76 -80 -197 -221 -231 -269 -26 -37 7 0 82 90 41 50 112
129 157 178 46 48 81 87 78 87 -3 0 -42 -39 -86 -86z"/>
<path d="M3109 963 c-13 -16 -12 -17 4 -4 9 7 17 15 17 17 0 8 -8 3 -21 -13z"/>
<path d="M3079 923 c-13 -16 -12 -17 4 -4 16 13 21 21 13 21 -2 0 -10 -8 -17
-17z"/>
<path d="M3049 883 c-13 -16 -12 -17 4 -4 16 13 21 21 13 21 -2 0 -10 -8 -17
-17z"/>
<path d="M2970 779 c-33 -44 -98 -142 -144 -217 -47 -75 -117 -175 -156 -222
-82 -97 -111 -149 -139 -249 -11 -39 -23 -76 -26 -81 -5 -8 9 -10 41 -8 47 3
47 3 64 54 69 201 263 580 376 732 30 39 52 72 49 72 -3 0 -32 -36 -65 -81z"/>
<path d="M371 724 c0 -11 3 -14 6 -6 3 7 2 16 -1 19 -3 4 -6 -2 -5 -13z"/>
<path d="M336 579 c-16 -68 -37 -147 -48 -176 -37 -101 -173 -219 -243 -211
-27 3 -32 1 -23 -9 16 -20 38 -16 93 16 60 35 145 122 175 180 21 42 84 295
77 314 -2 6 -16 -46 -31 -114z"/>
<path d="M5045 671 c-80 -45 -97 -81 -39 -81 59 0 -1 -50 -125 -104 -100 -44
-194 -98 -276 -158 -67 -50 -212 -196 -275 -275 l-40 -53 106 0 107 0 68 64
c91 86 146 126 329 236 85 52 170 105 188 118 l32 24 0 129 c0 97 -3 129 -12
129 -7 0 -36 -13 -63 -29z"/>
<path d="M13 613 c-7 -2 -13 -16 -13 -29 0 -24 1 -24 25 -8 40 26 30 55 -12
37z"/>
<path d="M4513 487 c-98 -103 -286 -360 -343 -467 -12 -23 -12 -24 3 -12 9 8
44 58 77 113 79 127 190 275 275 367 37 39 65 72 62 72 -2 0 -36 -33 -74 -73z"/>
<path d="M30 458 c-19 -16 -26 -26 -15 -20 18 9 64 53 54 52 -2 -1 -20 -15
-39 -32z"/>
<path d="M840 330 c-6 -11 -8 -20 -6 -20 3 0 10 9 16 20 6 11 8 20 6 20 -3 0
-10 -9 -16 -20z"/>
<path d="M767 203 c-85 -148 -109 -194 -105 -199 3 -2 28 40 58 94 29 53 64
116 77 140 14 23 23 42 20 42 -3 0 -25 -35 -50 -77z"/>
<path d="M2019 213 c-13 -16 -12 -17 4 -4 16 13 21 21 13 21 -2 0 -10 -8 -17
-17z"/>
<path d="M1989 173 c-13 -16 -12 -17 4 -4 16 13 21 21 13 21 -2 0 -10 -8 -17
-17z"/>
<path d="M1954 128 l-19 -23 23 19 c12 11 22 21 22 23 0 8 -8 2 -26 -19z"/>
<path d="M270 80 c-11 -22 -18 -40 -15 -40 2 0 14 18 25 40 11 22 18 40 15 40
-2 0 -14 -18 -25 -40z"/>
<path d="M4899 103 c-13 -16 -12 -17 4 -4 16 13 21 21 13 21 -2 0 -10 -8 -17
-17z"/>
<path d="M1919 83 c-13 -16 -12 -17 4 -4 16 13 21 21 13 21 -2 0 -10 -8 -17
-17z"/>
<path d="M4830 45 c-24 -25 -42 -45 -39 -45 3 0 25 20 49 45 24 25 42 45 39
45 -3 0 -25 -20 -49 -45z"/>
<path d="M1854 28 l-29 -33 33 29 c30 28 37 36 29 36 -2 0 -16 -15 -33 -32z"/>
<path d="M4695 10 c-3 -5 1 -10 10 -10 9 0 13 5 10 10 -3 6 -8 10 -10 10 -2 0
-7 -4 -10 -10z"/>
</g>
</svg>